<?xml version="1.0" encoding="utf-8" standalone="no"?>
<!DOCTYPE svg PUBLIC "-//W3C//DTD SVG 1.1//EN" "http://www.w3.org/Graphics/SVG/1.1/DTD/svg11.dtd">
<svg width="4000px" height="4000px" version="1.1" xmlns="http://www.w3.org/2000/svg" xmlns:xlink="http://www.w3.org/1999/xlink">
<g id="bg">
<rect x="0" y="0" width="4000px" height="4000px" style="fill:rgb(255,255,255);"/>
</g>
<g id="ideograms">
<path d="M2000.000,358.000 A1642.000,1642.000 40.000 0,1 2751.610,540.121 L2769.004,506.336 A1680.000,1680.000 0.000 0,0 2000.000,320.000 Z" style="stroke-width:2.0;stroke:rgb(255,255,255);stroke-linecap:round;fill:rgb(185,185,185);" />
<text x="2427.0" y="305.8" font-size="36.4px" font-family="CMUBright-Roman" style="text-anchor:start;fill:rgb(0,0,0);" transform="rotate(283.6,2427.0,305.8)" >Management-Operations</text>
<path d="M2000.000,358.000 A1642.000,1642.000 40.000 0,1 2751.610,540.121 L2769.004,506.336 A1680.000,1680.000 0.000 0,0 2000.000,320.000 Z" style="stroke-width:2.0;stroke:rgb(255,255,255);stroke-linecap:round;fill:none;" />
<path d="M2783.279,556.865 A1642.000,1642.000 40.000 0,1 3226.411,908.176 L3254.793,882.908 A1680.000,1680.000 0.000 0,0 2801.406,523.467 Z" style="stroke-width:2.0;stroke:rgb(255,255,255);stroke-linecap:round;fill:rgb(185,185,185);" />
<text x="3097.5" y="640.5" font-size="36.4px" font-family="CMUBright-Roman" style="text-anchor:start;fill:rgb(0,0,0);" transform="rotate(308.4,3097.5,640.5)" >Engineering</text>
<path d="M2783.279,556.865 A1642.000,1642.000 40.000 0,1 3226.411,908.176 L3254.793,882.908 A1680.000,1680.000 0.000 0,0 2801.406,523.467 Z" style="stroke-width:2.0;stroke:rgb(255,255,255);stroke-linecap:round;fill:none;" />
<path d="M3249.937,935.189 A1642.000,1642.000 40.000 0,1 3507.538,1349.236 L3542.426,1334.176 A1680.000,1680.000 0.000 0,0 3278.864,910.547 Z" style="stroke-width:2.0;stroke:rgb(255,255,255);stroke-linecap:round;fill:rgb(185,185,185);" />
<text x="3491.6" y="1090.2" font-size="36.4px" font-family="CMUBright-Roman" style="text-anchor:start;fill:rgb(0,0,0);" transform="rotate(328.1,3491.6,1090.2)" >Leadership-General</text>
<path d="M3249.937,935.189 A1642.000,1642.000 40.000 0,1 3507.538,1349.236 L3542.426,1334.176 A1680.000,1680.000 0.000 0,0 3278.864,910.547 Z" style="stroke-width:2.0;stroke:rgb(255,255,255);stroke-linecap:round;fill:none;" />
<path d="M3521.375,1382.278 A1642.000,1642.000 40.000 0,1 3633.192,1830.154 L3670.988,1826.223 A1680.000,1680.000 0.000 0,0 3556.584,1367.982 Z" style="stroke-width:2.0;stroke:rgb(255,255,255);stroke-linecap:round;fill:rgb(185,185,185);" />
<text x="3699.0" y="1592.3" font-size="36.4px" font-family="CMUBright-Roman" style="text-anchor:start;fill:rgb(0,0,0);" transform="rotate(346.0,3699.0,1592.3)" >Sales-Marketing</text>
<path d="M3521.375,1382.278 A1642.000,1642.000 40.000 0,1 3633.192,1830.154 L3670.988,1826.223 A1680.000,1680.000 0.000 0,0 3556.584,1367.982 Z" style="stroke-width:2.0;stroke:rgb(255,255,255);stroke-linecap:round;fill:none;" />
<path d="M3636.509,1865.822 A1642.000,1642.000 40.000 0,1 3610.774,2318.704 L3648.051,2326.079 A1680.000,1680.000 0.000 0,0 3674.381,1862.717 Z" style="stroke-width:2.0;stroke:rgb(255,255,255);stroke-linecap:round;fill:rgb(185,185,185);" />
<text x="3743.6" y="2111.6" font-size="36.4px" font-family="CMUBright-Roman" style="text-anchor:start;fill:rgb(0,0,0);" transform="rotate(3.3,3743.6,2111.6)" >Finance-Investment</text>
<path d="M3636.509,1865.822 A1642.000,1642.000 40.000 0,1 3610.774,2318.704 L3648.051,2326.079 A1680.000,1680.000 0.000 0,0 3674.381,1862.717 Z" style="stroke-width:2.0;stroke:rgb(255,255,255);stroke-linecap:round;fill:none;" />
<path d="M3603.438,2353.767 A1642.000,1642.000 40.000 0,1 3499.856,2668.278 L3534.566,2683.744 A1680.000,1680.000 0.000 0,0 3640.546,2361.954 Z" style="stroke-width:2.0;stroke:rgb(255,255,255);stroke-linecap:round;fill:rgb(185,185,185);" />
<text x="3655.6" y="2558.4" font-size="36.4px" font-family="CMUBright-Roman" style="text-anchor:start;fill:rgb(0,0,0);" transform="rotate(18.2,3655.6,2558.4)" >Software-Data</text>
<path d="M3603.438,2353.767 A1642.000,1642.000 40.000 0,1 3499.856,2668.278 L3534.566,2683.744 A1680.000,1680.000 0.000 0,0 3640.546,2361.954 Z" style="stroke-width:2.0;stroke:rgb(255,255,255);stroke-linecap:round;fill:none;" />
<path d="M3484.921,2700.839 A1642.000,1642.000 40.000 0,1 3330.895,2961.708 L3361.695,2983.964 A1680.000,1680.000 0.000 0,0 3519.285,2717.058 Z" style="stroke-width:2.0;stroke:rgb(255,255,255);stroke-linecap:round;fill:rgb(185,185,185);" />
<text x="3498.1" y="2899.1" font-size="36.4px" font-family="CMUBright-Roman" style="text-anchor:start;fill:rgb(0,0,0);" transform="rotate(30.6,3498.1,2899.1)" >Education</text>
<path d="M3484.921,2700.839 A1642.000,1642.000 40.000 0,1 3330.895,2961.708 L3361.695,2983.964 A1680.000,1680.000 0.000 0,0 3519.285,2717.058 Z" style="stroke-width:2.0;stroke:rgb(255,255,255);stroke-linecap:round;fill:none;" />
<path d="M3309.599,2990.512 A1642.000,1642.000 40.000 0,1 3129.055,3192.225 L3155.184,3219.816 A1680.000,1680.000 0.000 0,0 3339.906,3013.435 Z" style="stroke-width:2.0;stroke:rgb(255,255,255);stroke-linecap:round;fill:rgb(185,185,185);" />
<text x="3293.5" y="3174.5" font-size="36.4px" font-family="CMUBright-Roman" style="text-anchor:start;fill:rgb(0,0,0);" transform="rotate(41.8,3293.5,3174.5)" >Research-Science</text>
<path d="M3309.599,2990.512 A1642.000,1642.000 40.000 0,1 3129.055,3192.225 L3155.184,3219.816 A1680.000,1680.000 0.000 0,0 3339.906,3013.435 Z" style="stroke-width:2.0;stroke:rgb(255,255,255);stroke-linecap:round;fill:none;" />
<path d="M3102.778,3216.571 A1642.000,1642.000 40.000 0,1 2891.302,3379.038 L2911.929,3410.952 A1680.000,1680.000 0.000 0,0 3128.299,3244.726 Z" style="stroke-width:2.0;stroke:rgb(255,255,255);stroke-linecap:round;fill:rgb(185,185,185);" />
<text x="3054.5" y="3393.1" font-size="36.4px" font-family="CMUBright-Roman" style="text-anchor:start;fill:rgb(0,0,0);" transform="rotate(52.5,3054.5,3393.1)" >Clinical-Care</text>
<path d="M3102.778,3216.571 A1642.000,1642.000 40.000 0,1 2891.302,3379.038 L2911.929,3410.952 A1680.000,1680.000 0.000 0,0 3128.299,3244.726 Z" style="stroke-width:2.0;stroke:rgb(255,255,255);stroke-linecap:round;fill:none;" />
<path d="M2861.006,3398.153 A1642.000,1642.000 40.000 0,1 2640.127,3512.085 L2654.941,3547.079 A1680.000,1680.000 0.000 0,0 2880.932,3430.510 Z" style="stroke-width:2.0;stroke:rgb(255,255,255);stroke-linecap:round;fill:rgb(185,185,185);" />
<text x="2786.7" y="3560.1" font-size="36.4px" font-family="CMUBright-Roman" style="text-anchor:start;fill:rgb(0,0,0);" transform="rotate(62.7,2786.7,3560.1)" >Accounting-Audit</text>
<path d="M2861.006,3398.153 A1642.000,1642.000 40.000 0,1 2640.127,3512.085 L2654.941,3547.079 A1680.000,1680.000 0.000 0,0 2880.932,3430.510 Z" style="stroke-width:2.0;stroke:rgb(255,255,255);stroke-linecap:round;fill:none;" />
<path d="M2606.988,3525.690 A1642.000,1642.000 40.000 0,1 2452.002,3578.562 L2462.463,3615.094 A1680.000,1680.000 0.000 0,0 2621.036,3560.998 Z" style="stroke-width:2.0;stroke:rgb(255,255,255);stroke-linecap:round;fill:rgb(185,185,185);" />
<text x="2552.3" y="3657.6" font-size="36.4px" font-family="CMUBright-Roman" style="text-anchor:start;fill:rgb(0,0,0);" transform="rotate(71.2,2552.3,3657.6)" >Social-Service</text>
<path d="M2606.988,3525.690 A1642.000,1642.000 40.000 0,1 2452.002,3578.562 L2462.463,3615.094 A1680.000,1680.000 0.000 0,0 2621.036,3560.998 Z" style="stroke-width:2.0;stroke:rgb(255,255,255);stroke-linecap:round;fill:none;" />
<path d="M2417.459,3588.047 A1642.000,1642.000 40.000 0,1 2320.910,3610.336 L2328.336,3647.603 A1680.000,1680.000 0.000 0,0 2427.120,3624.798 Z" style="stroke-width:2.0;stroke:rgb(255,255,255);stroke-linecap:round;fill:rgb(185,185,185);" />
<text x="2380.8" y="3705.2" font-size="36.4px" font-family="CMUBright-Roman" style="text-anchor:start;fill:rgb(0,0,0);" transform="rotate(77.0,2380.8,3705.2)" >IT-Infrastructure</text>
<path d="M2417.459,3588.047 A1642.000,1642.000 40.000 0,1 2320.910,3610.336 L2328.336,3647.603 A1680.000,1680.000 0.000 0,0 2427.120,3624.798 Z" style="stroke-width:2.0;stroke:rgb(255,255,255);stroke-linecap:round;fill:none;" />
<path d="M2285.704,3616.953 A1642.000,1642.000 40.000 0,1 2189.660,3631.010 L2194.050,3668.755 A1680.000,1680.000 0.000 0,0 2292.316,3654.373 Z" style="stroke-width:2.0;stroke:rgb(255,255,255);stroke-linecap:round;fill:rgb(185,185,185);" />
<text x="2237.2" y="3731.0" font-size="36.4px" font-family="CMUBright-Roman" style="text-anchor:start;fill:rgb(0,0,0);" transform="rotate(81.7,2237.2,3731.0)" >Legal-Policy</text>
<path d="M2285.704,3616.953 A1642.000,1642.000 40.000 0,1 2189.660,3631.010 L2194.050,3668.755 A1680.000,1680.000 0.000 0,0 2292.316,3654.373 Z" style="stroke-width:2.0;stroke:rgb(255,255,255);stroke-linecap:round;fill:none;" />
<path d="M2154.035,3634.759 A1642.000,1642.000 40.000 0,1 1474.020,3555.477 L1461.848,3591.475 A1680.000,1680.000 0.000 0,0 2157.600,3672.592 Z" style="stroke-width:2.0;stroke:rgb(255,255,255);stroke-linecap:round;fill:rgb(15,52,135);" />
<text x="1813.6" y="3737.2" font-size="36.4px" font-family="CMUBright-Roman" style="text-anchor:end;fill:rgb(0,0,0);" transform="rotate(-83.3,1813.6,3737.2)" >Finance-Accounting</text>
<path d="M2154.035,3634.759 A1642.000,1642.000 40.000 0,1 1474.020,3555.477 L1461.848,3591.475 A1680.000,1680.000 0.000 0,0 2157.600,3672.592 Z" style="stroke-width:2.0;stroke:rgb(255,255,255);stroke-linecap:round;fill:none;" />
<path d="M1440.213,3543.633 A1642.000,1642.000 40.000 0,1 888.845,3208.925 L863.130,3236.902 A1680.000,1680.000 0.000 0,0 1427.258,3579.356 Z" style="stroke-width:2.0;stroke:rgb(255,255,255);stroke-linecap:round;fill:rgb(42,98,180);" />
<text x="1104.1" y="3500.0" font-size="36.4px" font-family="CMUBright-Roman" style="text-anchor:end;fill:rgb(0,0,0);" transform="rotate(-58.7,1104.1,3500.0)" >General-Business</text>
<path d="M1440.213,3543.633 A1642.000,1642.000 40.000 0,1 888.845,3208.925 L863.130,3236.902 A1680.000,1680.000 0.000 0,0 1427.258,3579.356 Z" style="stroke-width:2.0;stroke:rgb(255,255,255);stroke-linecap:round;fill:none;" />
<path d="M862.737,3184.397 A1642.000,1642.000 40.000 0,1 624.574,2896.866 L592.744,2917.622 A1680.000,1680.000 0.000 0,0 836.418,3211.807 Z" style="stroke-width:2.0;stroke:rgb(255,255,255);stroke-linecap:round;fill:rgb(28,75,160);" />
<text x="664.7" y="3126.8" font-size="36.4px" font-family="CMUBright-Roman" style="text-anchor:end;fill:rgb(0,0,0);" transform="rotate(-39.6,664.7,3126.8)" >Marketing-Communication</text>
<path d="M862.737,3184.397 A1642.000,1642.000 40.000 0,1 624.574,2896.866 L592.744,2917.622 A1680.000,1680.000 0.000 0,0 836.418,3211.807 Z" style="stroke-width:2.0;stroke:rgb(255,255,255);stroke-linecap:round;fill:none;" />
<path d="M605.337,2866.648 A1642.000,1642.000 40.000 0,1 476.558,2612.607 L441.301,2626.784 A1680.000,1680.000 0.000 0,0 573.061,2886.704 Z" style="stroke-width:2.0;stroke:rgb(255,255,255);stroke-linecap:round;fill:rgb(60,120,198);" />
<text x="448.7" y="2803.8" font-size="36.4px" font-family="CMUBright-Roman" style="text-anchor:end;fill:rgb(0,0,0);" transform="rotate(-26.9,448.7,2803.8)" >Operations-Analytics</text>
<path d="M605.337,2866.648 A1642.000,1642.000 40.000 0,1 476.558,2612.607 L441.301,2626.784 A1680.000,1680.000 0.000 0,0 573.061,2886.704 Z" style="stroke-width:2.0;stroke:rgb(255,255,255);stroke-linecap:round;fill:none;" />
<path d="M463.556,2579.227 A1642.000,1642.000 40.000 0,1 407.419,2399.813 L370.563,2409.066 A1680.000,1680.000 0.000 0,0 427.999,2592.632 Z" style="stroke-width:2.0;stroke:rgb(255,255,255);stroke-linecap:round;fill:rgb(82,145,215);" />
<text x="337.2" y="2536.5" font-size="36.4px" font-family="CMUBright-Roman" style="text-anchor:end;fill:rgb(0,0,0);" transform="rotate(-17.4,337.2,2536.5)" >Specialized-Business</text>
<path d="M463.556,2579.227 A1642.000,1642.000 40.000 0,1 407.419,2399.813 L370.563,2409.066 A1680.000,1680.000 0.000 0,0 427.999,2592.632 Z" style="stroke-width:2.0;stroke:rgb(255,255,255);stroke-linecap:round;fill:none;" />
<path d="M399.076,2364.976 A1642.000,1642.000 40.000 0,1 366.776,2169.540 L328.979,2173.464 A1680.000,1680.000 0.000 0,0 362.027,2373.422 Z" style="stroke-width:2.0;stroke:rgb(255,255,255);stroke-linecap:round;fill:rgb(200,108,30);" />
<text x="278.3" y="2297.2" font-size="36.4px" font-family="CMUBright-Roman" style="text-anchor:end;fill:rgb(0,0,0);" transform="rotate(-9.4,278.3,2297.2)" >Social-Sciences</text>
<path d="M399.076,2364.976 A1642.000,1642.000 40.000 0,1 366.776,2169.540 L328.979,2173.464 A1680.000,1680.000 0.000 0,0 362.027,2373.422 Z" style="stroke-width:2.0;stroke:rgb(255,255,255);stroke-linecap:round;fill:none;" />
<path d="M363.466,2133.872 A1642.000,1642.000 40.000 0,1 358.290,2030.870 L320.297,2031.584 A1680.000,1680.000 0.000 0,0 325.593,2136.970 Z" style="stroke-width:2.0;stroke:rgb(255,255,255);stroke-linecap:round;fill:rgb(108,170,228);" />
<text x="255.6" y="2099.7" font-size="36.4px" font-family="CMUBright-Roman" style="text-anchor:end;fill:rgb(0,0,0);" transform="rotate(-2.9,255.6,2099.7)" >Economics</text>
<path d="M363.466,2133.872 A1642.000,1642.000 40.000 0,1 358.290,2030.870 L320.297,2031.584 A1680.000,1680.000 0.000 0,0 325.593,2136.970 Z" style="stroke-width:2.0;stroke:rgb(255,255,255);stroke-linecap:round;fill:none;" />
<path d="M358.007,1995.049 A1642.000,1642.000 40.000 0,1 358.807,1948.539 L320.825,1947.348 A1680.000,1680.000 0.000 0,0 320.008,1994.934 Z" style="stroke-width:2.0;stroke:rgb(255,255,255);stroke-linecap:round;fill:rgb(220,140,52);" />
<text x="252.9" y="1982.5" font-size="36.4px" font-family="CMUBright-Roman" style="text-anchor:end;fill:rgb(0,0,0);" transform="rotate(1.0,252.9,1982.5)" >Humanities-Liberal-Arts</text>
<path d="M358.007,1995.049 A1642.000,1642.000 40.000 0,1 358.807,1948.539 L320.825,1947.348 A1680.000,1680.000 0.000 0,0 320.008,1994.934 Z" style="stroke-width:2.0;stroke:rgb(255,255,255);stroke-linecap:round;fill:none;" />
<path d="M360.320,1912.749 A1642.000,1642.000 40.000 0,1 361.133,1898.615 L323.205,1896.269 A1680.000,1680.000 0.000 0,0 322.373,1910.730 Z" style="stroke-width:2.0;stroke:rgb(255,255,255);stroke-linecap:round;fill:rgb(235,168,78);" />
<text x="255.0" y="1912.1" font-size="36.4px" font-family="CMUBright-Roman" style="text-anchor:end;fill:rgb(0,0,0);" transform="rotate(3.3,255.0,1912.1)" >International-Studies</text>
<path d="M360.320,1912.749 A1642.000,1642.000 40.000 0,1 361.133,1898.615 L323.205,1896.269 A1680.000,1680.000 0.000 0,0 322.373,1910.730 Z" style="stroke-width:2.0;stroke:rgb(255,255,255);stroke-linecap:round;fill:none;" />
<path d="M363.735,1862.887 A1642.000,1642.000 40.000 0,1 391.336,1670.812 L354.108,1663.193 A1680.000,1680.000 0.000 0,0 325.867,1859.714 Z" style="stroke-width:2.0;stroke:rgb(255,255,255);stroke-linecap:round;fill:rgb(195,58,55);" />
<text x="268.8" y="1763.9" font-size="36.4px" font-family="CMUBright-Roman" style="text-anchor:end;fill:rgb(0,0,0);" transform="rotate(8.2,268.8,1763.9)" >Social-Work</text>
<path d="M363.735,1862.887 A1642.000,1642.000 40.000 0,1 391.336,1670.812 L354.108,1663.193 A1680.000,1680.000 0.000 0,0 325.867,1859.714 Z" style="stroke-width:2.0;stroke:rgb(255,255,255);stroke-linecap:round;fill:none;" />
<path d="M398.900,1635.797 A1642.000,1642.000 40.000 0,1 428.981,1522.439 L392.624,1511.387 A1680.000,1680.000 0.000 0,0 361.847,1627.368 Z" style="stroke-width:2.0;stroke:rgb(255,255,255);stroke-linecap:round;fill:rgb(175,35,42);" />
<text x="308.1" y="1564.0" font-size="36.4px" font-family="CMUBright-Roman" style="text-anchor:end;fill:rgb(0,0,0);" transform="rotate(14.9,308.1,1564.0)" >Teacher-Education</text>
<path d="M398.900,1635.797 A1642.000,1642.000 40.000 0,1 428.981,1522.439 L392.624,1511.387 A1680.000,1680.000 0.000 0,0 361.847,1627.368 Z" style="stroke-width:2.0;stroke:rgb(255,255,255);stroke-linecap:round;fill:none;" />
<path d="M439.773,1488.281 A1642.000,1642.000 40.000 0,1 474.975,1391.343 L439.682,1377.257 A1680.000,1680.000 0.000 0,0 403.666,1476.439 Z" style="stroke-width:2.0;stroke:rgb(255,255,255);stroke-linecap:round;fill:rgb(215,82,72);" />
<text x="352.5" y="1418.2" font-size="36.4px" font-family="CMUBright-Roman" style="text-anchor:end;fill:rgb(0,0,0);" transform="rotate(20.0,352.5,1418.2)" >Special-Education</text>
<path d="M439.773,1488.281 A1642.000,1642.000 40.000 0,1 474.975,1391.343 L439.682,1377.257 A1680.000,1680.000 0.000 0,0 403.666,1476.439 Z" style="stroke-width:2.0;stroke:rgb(255,255,255);stroke-linecap:round;fill:none;" />
<path d="M488.616,1358.220 A1642.000,1642.000 40.000 0,1 509.092,1311.991 L474.588,1296.068 A1680.000,1680.000 0.000 0,0 453.639,1343.368 Z" style="stroke-width:2.0;stroke:rgb(255,255,255);stroke-linecap:round;fill:rgb(230,112,95);" />
<text x="396.3" y="1306.6" font-size="36.4px" font-family="CMUBright-Roman" style="text-anchor:end;fill:rgb(0,0,0);" transform="rotate(23.9,396.3,1306.6)" >Educational-Leadership</text>
<path d="M488.616,1358.220 A1642.000,1642.000 40.000 0,1 509.092,1311.991 L474.588,1296.068 A1680.000,1680.000 0.000 0,0 453.639,1343.368 Z" style="stroke-width:2.0;stroke:rgb(255,255,255);stroke-linecap:round;fill:none;" />
<path d="M524.455,1279.630 A1642.000,1642.000 40.000 0,1 553.988,1222.045 L520.524,1204.041 A1680.000,1680.000 0.000 0,0 490.308,1262.959 Z" style="stroke-width:2.0;stroke:rgb(255,255,255);stroke-linecap:round;fill:rgb(0,130,142);" />
<text x="439.7" y="1213.8" font-size="36.4px" font-family="CMUBright-Roman" style="text-anchor:end;fill:rgb(0,0,0);" transform="rotate(27.2,439.7,1213.8)" >Communication-Studies</text>
<path d="M524.455,1279.630 A1642.000,1642.000 40.000 0,1 553.988,1222.045 L520.524,1204.041 A1680.000,1680.000 0.000 0,0 490.308,1262.959 Z" style="stroke-width:2.0;stroke:rgb(255,255,255);stroke-linecap:round;fill:none;" />
<path d="M571.303,1190.686 A1642.000,1642.000 40.000 0,1 588.562,1160.949 L555.898,1141.531 A1680.000,1680.000 0.000 0,0 538.240,1171.956 Z" style="stroke-width:2.0;stroke:rgb(255,255,255);stroke-linecap:round;fill:rgb(0,165,172);" />
<text x="482.6" y="1133.8" font-size="36.4px" font-family="CMUBright-Roman" style="text-anchor:end;fill:rgb(0,0,0);" transform="rotate(30.1,482.6,1133.8)" >Journalism-Media</text>
<path d="M571.303,1190.686 A1642.000,1642.000 40.000 0,1 588.562,1160.949 L555.898,1141.531 A1680.000,1680.000 0.000 0,0 538.240,1171.956 Z" style="stroke-width:2.0;stroke:rgb(255,255,255);stroke-linecap:round;fill:none;" />
<path d="M607.202,1130.358 A1642.000,1642.000 40.000 0,1 613.667,1120.089 L581.583,1099.725 A1680.000,1680.000 0.000 0,0 574.969,1110.233 Z" style="stroke-width:2.0;stroke:rgb(255,255,255);stroke-linecap:round;fill:rgb(38,195,195);" />
<text x="512.9" y="1082.8" font-size="36.4px" font-family="CMUBright-Roman" style="text-anchor:end;fill:rgb(0,0,0);" transform="rotate(32.2,512.9,1082.8)" >Creative-Writing</text>
<path d="M607.202,1130.358 A1642.000,1642.000 40.000 0,1 613.667,1120.089 L581.583,1099.725 A1680.000,1680.000 0.000 0,0 574.969,1110.233 Z" style="stroke-width:2.0;stroke:rgb(255,255,255);stroke-linecap:round;fill:none;" />
<path d="M633.192,1090.055 A1642.000,1642.000 40.000 0,1 667.742,1040.182 L636.910,1017.969 A1680.000,1680.000 0.000 0,0 601.560,1068.997 Z" style="stroke-width:2.0;stroke:rgb(255,255,255);stroke-linecap:round;fill:rgb(180,45,112);" />
<text x="554.7" y="1018.2" font-size="36.4px" font-family="CMUBright-Roman" style="text-anchor:end;fill:rgb(0,0,0);" transform="rotate(34.7,554.7,1018.2)" >Arts-Theology</text>
<path d="M633.192,1090.055 A1642.000,1642.000 40.000 0,1 667.742,1040.182 L636.910,1017.969 A1680.000,1680.000 0.000 0,0 601.560,1068.997 Z" style="stroke-width:2.0;stroke:rgb(255,255,255);stroke-linecap:round;fill:none;" />
<path d="M688.997,1011.347 A1642.000,1642.000 40.000 0,1 698.803,998.477 L668.690,975.299 A1680.000,1680.000 0.000 0,0 658.657,988.467 Z" style="stroke-width:2.0;stroke:rgb(255,255,255);stroke-linecap:round;fill:rgb(205,75,142);" />
<text x="600.6" y="953.9" font-size="36.4px" font-family="CMUBright-Roman" style="text-anchor:end;fill:rgb(0,0,0);" transform="rotate(37.3,600.6,953.9)" >English-Writing</text>
<path d="M688.997,1011.347 A1642.000,1642.000 40.000 0,1 698.803,998.477 L668.690,975.299 A1680.000,1680.000 0.000 0,0 658.657,988.467 Z" style="stroke-width:2.0;stroke:rgb(255,255,255);stroke-linecap:round;fill:none;" />
<path d="M720.960,970.329 A1642.000,1642.000 40.000 0,1 724.774,965.610 L695.262,941.672 A1680.000,1680.000 0.000 0,0 691.360,946.500 Z" style="stroke-width:2.0;stroke:rgb(255,255,255);stroke-linecap:round;fill:rgb(225,110,168);" />
<text x="631.0" y="914.3" font-size="36.4px" font-family="CMUBright-Roman" style="text-anchor:end;fill:rgb(0,0,0);" transform="rotate(38.9,631.0,914.3)" >Languages</text>
<path d="M720.960,970.329 A1642.000,1642.000 40.000 0,1 724.774,965.610 L695.262,941.672 A1680.000,1680.000 0.000 0,0 691.360,946.500 Z" style="stroke-width:2.0;stroke:rgb(255,255,255);stroke-linecap:round;fill:none;" />
<path d="M747.643,938.037 A1642.000,1642.000 40.000 0,1 884.635,794.959 L858.822,767.071 A1680.000,1680.000 0.000 0,0 718.660,913.461 Z" style="stroke-width:2.0;stroke:rgb(255,255,255);stroke-linecap:round;fill:rgb(88,40,138);" />
<text x="727.0" y="803.3" font-size="36.4px" font-family="CMUBright-Roman" style="text-anchor:end;fill:rgb(0,0,0);" transform="rotate(43.8,727.0,803.3)" >Biological-Sciences</text>
<path d="M747.643,938.037 A1642.000,1642.000 40.000 0,1 884.635,794.959 L858.822,767.071 A1680.000,1680.000 0.000 0,0 718.660,913.461 Z" style="stroke-width:2.0;stroke:rgb(255,255,255);stroke-linecap:round;fill:none;" />
<path d="M911.188,770.914 A1642.000,1642.000 40.000 0,1 969.888,721.316 L946.049,691.724 A1680.000,1680.000 0.000 0,0 885.990,742.470 Z" style="stroke-width:2.0;stroke:rgb(255,255,255);stroke-linecap:round;fill:rgb(115,65,165);" />
<text x="862.8" y="673.5" font-size="36.4px" font-family="CMUBright-Roman" style="text-anchor:end;fill:rgb(0,0,0);" transform="rotate(49.8,862.8,673.5)" >Health-Wellness</text>
<path d="M911.188,770.914 A1642.000,1642.000 40.000 0,1 969.888,721.316 L946.049,691.724 A1680.000,1680.000 0.000 0,0 885.990,742.470 Z" style="stroke-width:2.0;stroke:rgb(255,255,255);stroke-linecap:round;fill:none;" />
<path d="M998.028,699.148 A1642.000,1642.000 40.000 0,1 1023.858,679.655 L1001.267,649.099 A1680.000,1680.000 0.000 0,0 974.840,669.043 Z" style="stroke-width:2.0;stroke:rgb(255,255,255);stroke-linecap:round;fill:rgb(140,92,188);" />
<text x="935.2" y="614.8" font-size="36.4px" font-family="CMUBright-Roman" style="text-anchor:end;fill:rgb(0,0,0);" transform="rotate(53.0,935.2,614.8)" >Physical-Sciences</text>
<path d="M998.028,699.148 A1642.000,1642.000 40.000 0,1 1023.858,679.655 L1001.267,649.099 A1680.000,1680.000 0.000 0,0 974.840,669.043 Z" style="stroke-width:2.0;stroke:rgb(255,255,255);stroke-linecap:round;fill:none;" />
<path d="M1052.893,658.675 A1642.000,1642.000 40.000 0,1 1064.493,650.559 L1042.843,619.329 A1680.000,1680.000 0.000 0,0 1030.975,627.633 Z" style="stroke-width:2.0;stroke:rgb(255,255,255);stroke-linecap:round;fill:rgb(165,120,208);" />
<text x="988.2" y="575.6" font-size="36.4px" font-family="CMUBright-Roman" style="text-anchor:end;fill:rgb(0,0,0);" transform="rotate(55.0,988.2,575.6)" >Environmental-Sciences</text>
<path d="M1052.893,658.675 A1642.000,1642.000 40.000 0,1 1064.493,650.559 L1042.843,619.329 A1680.000,1680.000 0.000 0,0 1030.975,627.633 Z" style="stroke-width:2.0;stroke:rgb(255,255,255);stroke-linecap:round;fill:none;" />
<path d="M1094.154,630.472 A1642.000,1642.000 40.000 0,1 1594.822,408.776 L1585.445,371.951 A1680.000,1680.000 0.000 0,0 1073.190,598.778 Z" style="stroke-width:2.0;stroke:rgb(255,255,255);stroke-linecap:round;fill:rgb(22,118,50);" />
<text x="1278.0" y="409.0" font-size="36.4px" font-family="CMUBright-Roman" style="text-anchor:end;fill:rgb(0,0,0);" transform="rotate(66.1,1278.0,409.0)" >Engineering-Disciplines</text>
<path d="M1094.154,630.472 A1642.000,1642.000 40.000 0,1 1594.822,408.776 L1585.445,371.951 A1680.000,1680.000 0.000 0,0 1073.190,598.778 Z" style="stroke-width:2.0;stroke:rgb(255,255,255);stroke-linecap:round;fill:none;" />
<path d="M1629.631,400.315 A1642.000,1642.000 40.000 0,1 1964.180,358.391 L1963.351,320.400 A1680.000,1680.000 0.000 0,0 1621.060,363.295 Z" style="stroke-width:2.0;stroke:rgb(255,255,255);stroke-linecap:round;fill:rgb(48,158,75);" />
<text x="1767.4" y="268.4" font-size="36.4px" font-family="CMUBright-Roman" style="text-anchor:end;fill:rgb(0,0,0);" transform="rotate(82.9,1767.4,268.4)" >Computer-Science-IT</text>
<path d="M1629.631,400.315 A1642.000,1642.000 40.000 0,1 1964.180,358.391 L1963.351,320.400 A1680.000,1680.000 0.000 0,0 1621.060,363.295 Z" style="stroke-width:2.0;stroke:rgb(255,255,255);stroke-linecap:round;fill:none;" />
</g>
<g id="track_0">
<path d="M 1445.811,3528.196 A 1625.580,1625.580 0.00 0,1 1434.5,3524.1 L 1434.5,3524.1 1453.8,3473.8 1474.2,3424.2 1495.5,3375.6 1517.7,3328.3 1540.8,3282.6 1564.5,3238.9 1588.9,3197.3 1613.9,3158.1 1639.3,3121.6 1665.1,3088.0 1691.2,3057.4 1717.5,3030.0 1744.0,3006.1 1770.5,2985.6 1797.1,2968.8 1823.6,2955.7 1850.0,2946.4 1876.2,2940.9 1902.1,2939.3 1927.7,2941.6 1953.0,2947.9 1977.8,2957.9 2002.0,2971.8 2025.8,2989.5 2048.9,3010.8 2071.4,3035.7 2093.1,3064.0 2114.1,3095.6 2134.3,3130.4 2153.6,3168.1 2172.1,3208.6 2189.6,3251.6 2206.1,3296.9 2221.6,3344.2 2236.1,3393.3 2249.5,3443.8 2261.8,3495.5 2272.9,3547.9 2282.8,3600.8  A 1625.580,1625.580 0.00 0,1 2271.0,3602.8 L 2271.0,3602.8 2261.5,3549.9 2250.8,3497.5 2239.0,3445.8 2226.1,3395.2 2212.1,3346.1 2197.2,3298.7 2181.2,3253.4 2164.3,3210.4 2146.4,3169.9 2127.7,3132.1 2108.2,3097.3 2087.8,3065.7 2066.7,3037.4 2044.9,3012.5 2022.5,2991.2 1999.4,2973.6 1975.9,2959.7 1951.8,2949.7 1927.2,2943.5 1902.3,2941.3 1877.1,2942.9 1851.6,2948.5 1825.9,2957.9 1800.0,2971.1 1774.1,2988.0 1748.2,3008.6 1722.4,3032.6 1696.7,3060.1 1671.2,3090.8 1646.0,3124.6 1621.2,3161.2 1596.9,3200.5 1573.0,3242.3 1549.8,3286.2 1527.3,3332.0 1505.5,3379.4 1484.6,3428.2 1464.7,3477.9 1445.8,3528.2  Z" style="stroke-width: 0.0;  fill: rgb(42,98,180);" />
<path d="M 1434.532,3524.059 A 1625.580,1625.580 0.00 0,1 1423.3,3519.8 L 1423.3,3519.8 1443.1,3469.5 1464.2,3419.8 1486.5,3371.1 1509.9,3323.8 1534.3,3278.0 1559.7,3234.1 1585.8,3192.4 1612.7,3153.0 1640.3,3116.3 1668.5,3082.4 1697.2,3051.6 1726.4,3023.9 1755.8,2999.6 1785.6,2978.7 1815.6,2961.4 1845.6,2947.8 1875.8,2937.9 1905.9,2931.8 1935.9,2929.5 1965.8,2931.1 1995.4,2936.5 2024.7,2945.7 2053.6,2958.7 2082.1,2975.5 2110.0,2995.8 2137.4,3019.7 2164.2,3047.0 2190.2,3077.6 2215.5,3111.3 2240.0,3148.0 2263.6,3187.4 2286.2,3229.4 2307.8,3273.6 2328.4,3320.0 2347.8,3368.0 2366.1,3417.6 2383.1,3468.4 2398.9,3520.0 2413.3,3572.2  A 1625.580,1625.580 0.00 0,1 2401.7,3575.2 L 2401.7,3575.2 2387.6,3523.0 2372.3,3471.3 2355.8,3420.5 2338.0,3370.8 2319.1,3322.6 2299.0,3276.2 2278.0,3231.9 2255.9,3189.9 2233.0,3150.4 2209.1,3113.7 2184.4,3079.9 2159.0,3049.3 2132.9,3021.9 2106.2,2998.0 2078.9,2977.6 2051.1,2960.9 2022.8,2947.9 1994.2,2938.7 1965.3,2933.3 1936.1,2931.7 1906.8,2934.1 1877.4,2940.2 1847.9,2950.2 1818.5,2963.9 1789.2,2981.3 1760.1,3002.2 1731.2,3026.7 1702.7,3054.5 1674.7,3085.4 1647.1,3119.4 1620.1,3156.3 1593.7,3195.7 1568.1,3237.6 1543.3,3281.6 1519.4,3327.5 1496.5,3375.0 1474.6,3423.8 1454.0,3473.6 1434.5,3524.1  Z" style="stroke-width: 0.0;  fill: rgb(42,98,180);" />
<path d="M 1423.284,3519.838 A 1625.580,1625.580 0.00 0,1 1421.4,3519.1 L 1421.4,3519.1 1441.6,3468.4 1463.3,3418.4 1486.5,3369.3 1511.0,3321.4 1536.9,3275.2 1563.9,3230.7 1592.1,3188.4 1621.3,3148.4 1651.5,3110.9 1682.6,3076.2 1714.5,3044.4 1747.1,3015.7 1780.4,2990.2 1814.3,2968.1 1848.6,2949.4 1883.3,2934.4 1918.3,2922.9 1953.6,2915.2 1989.0,2911.2 2024.5,2910.9 2059.9,2914.4 2095.3,2921.6 2130.5,2932.5 2165.4,2947.1 2200.0,2965.2 2234.2,2986.8 2267.8,3011.8 2300.8,3040.0 2333.2,3071.4 2364.8,3105.6 2395.6,3142.7 2425.4,3182.2 2454.2,3224.2 2481.9,3268.2 2508.4,3314.1 2533.6,3361.5 2557.5,3410.3 2580.0,3460.0 2600.9,3510.4  A 1625.580,1625.580 0.00 0,1 2599.1,3511.2 L 2599.1,3511.2 2578.2,3460.8 2555.8,3411.0 2532.0,3362.2 2506.8,3314.7 2480.4,3268.8 2452.8,3224.8 2424.1,3182.8 2394.3,3143.2 2363.7,3106.2 2332.2,3071.9 2299.9,3040.6 2267.0,3012.3 2233.4,2987.3 2199.4,2965.7 2164.9,2947.6 2130.1,2933.0 2095.0,2922.1 2059.8,2914.9 2024.4,2911.4 1989.0,2911.6 1953.7,2915.6 1918.6,2923.4 1883.7,2934.8 1849.1,2949.9 1814.9,2968.5 1781.1,2990.7 1748.0,3016.2 1715.4,3044.9 1683.6,3076.7 1652.7,3111.4 1622.5,3148.9 1593.4,3189.0 1565.3,3231.3 1538.4,3275.8 1512.6,3322.1 1488.1,3369.9 1465.0,3419.0 1443.4,3469.1 1423.3,3519.8  Z" style="stroke-width: 0.0;  fill: rgb(42,98,180);" />
<path d="M 1421.412,3519.127 A 1625.580,1625.580 0.00 0,1 1395.3,3508.9 L 1395.3,3508.9 1416.8,3457.8 1440.3,3407.3 1465.6,3357.7 1492.6,3309.3 1521.3,3262.4 1551.6,3217.2 1583.4,3174.0 1616.6,3132.9 1651.2,3094.2 1687.1,3058.1 1724.2,3024.7 1762.3,2994.2 1801.5,2966.7 1841.6,2942.4 1882.5,2921.3 1924.2,2903.6 1966.5,2889.3 2009.3,2878.5 2052.6,2871.2 2096.3,2867.5 2140.2,2867.3 2184.2,2870.7 2228.3,2877.6 2272.4,2887.9 2316.3,2901.7 2359.9,2918.9 2403.2,2939.3 2446.0,2962.9 2488.2,2989.5 2529.7,3019.0 2570.4,3051.2 2610.1,3086.1 2648.8,3123.3 2686.4,3162.7 2722.6,3204.0 2757.5,3247.1 2790.8,3291.7 2822.5,3337.5 2852.4,3384.2  A 1625.580,1625.580 0.00 0,1 2828.4,3398.7 L 2828.4,3398.7 2799.4,3351.6 2768.7,3305.4 2736.4,3260.4 2702.6,3216.9 2667.5,3175.1 2631.1,3135.2 2593.6,3097.6 2555.1,3062.3 2515.6,3029.6 2475.4,2999.7 2434.6,2972.7 2393.1,2948.7 2351.2,2928.0 2309.0,2910.5 2266.5,2896.4 2223.9,2885.8 2181.2,2878.6 2138.6,2875.1 2096.2,2875.1 2054.0,2878.7 2012.2,2885.9 1970.8,2896.7 1929.9,2910.9 1889.7,2928.6 1850.3,2949.8 1811.6,2974.2 1773.9,3001.7 1737.1,3032.4 1701.4,3066.0 1666.9,3102.3 1633.6,3141.2 1601.6,3182.5 1571.1,3226.0 1542.0,3271.4 1514.5,3318.6 1488.6,3367.3 1464.4,3417.1 1442.0,3467.8 1421.4,3519.1  Z" style="stroke-width: 0.0;  fill: rgb(42,98,180);" />
<path d="M 1395.303,3508.924 A 1625.580,1625.580 0.00 0,1 1393.4,3508.2 L 1393.4,3508.2 1415.6,3456.2 1439.9,3404.7 1466.4,3354.0 1495.0,3304.4 1525.6,3256.1 1558.2,3209.3 1592.6,3164.2 1628.9,3121.1 1666.8,3080.1 1706.4,3041.5 1747.5,3005.3 1790.0,2971.7 1833.9,2940.9 1879.1,2912.9 1925.4,2887.9 1972.8,2866.0 2021.2,2847.2 2070.4,2831.6 2120.4,2819.3 2171.0,2810.2 2222.2,2804.5 2273.8,2802.0 2325.7,2802.9 2377.7,2807.0 2429.9,2814.4 2481.9,2824.9 2533.8,2838.6 2585.3,2855.4 2636.4,2875.1 2687.0,2897.6 2736.7,2922.9 2785.7,2950.8 2833.6,2981.1 2880.4,3013.7 2925.8,3048.5 2969.9,3085.1 3012.3,3123.5 3053.0,3163.3 3091.7,3204.4  A 1625.580,1625.580 0.00 0,1 3090.3,3205.7 L 3090.3,3205.7 3051.6,3164.6 3010.9,3124.7 2968.6,3086.3 2924.6,3049.6 2879.2,3014.9 2832.5,2982.2 2784.7,2951.9 2735.8,2923.9 2686.1,2898.6 2635.7,2876.0 2584.7,2856.3 2533.2,2839.5 2481.4,2825.8 2429.5,2815.1 2377.4,2807.7 2325.5,2803.6 2273.7,2802.7 2222.2,2805.1 2171.1,2810.9 2120.6,2819.9 2070.7,2832.2 2021.6,2847.8 1973.3,2866.6 1926.0,2888.5 1879.7,2913.5 1834.7,2941.4 1790.8,2972.3 1748.4,3005.9 1707.4,3042.1 1667.9,3080.7 1630.1,3121.7 1593.9,3164.8 1559.6,3209.9 1527.1,3256.7 1496.6,3305.1 1468.0,3354.7 1441.6,3405.4 1417.3,3456.9 1395.3,3508.9  Z" style="stroke-width: 0.0;  fill: rgb(42,98,180);" />
<path d="M 1393.445,3508.178 A 1625.580,1625.580 0.00 0,1 1384.2,3504.4 L 1384.2,3504.4 1407.2,3451.4 1432.7,3398.9 1460.7,3346.9 1491.0,3295.9 1523.7,3245.9 1558.5,3197.2 1595.6,3150.0 1634.7,3104.5 1675.8,3060.8 1718.8,3019.1 1763.7,2979.6 1810.2,2942.3 1858.4,2907.4 1908.2,2875.1 1959.3,2845.3 2011.8,2818.3 2065.5,2794.1 2120.3,2772.7 2176.1,2754.2 2232.8,2738.7 2290.2,2726.2 2348.3,2716.6 2406.8,2710.1 2465.8,2706.6 2524.9,2706.1 2584.2,2708.6 2643.5,2714.1 2702.5,2722.4 2761.2,2733.6 2819.5,2747.6 2877.2,2764.2 2934.0,2783.4 2989.9,2805.2 3044.8,2829.3 3098.3,2855.6 3150.4,2884.1 3201.0,2914.5 3249.7,2946.8 3296.5,2980.6  A 1625.580,1625.580 0.00 0,1 3290.4,2988.6 L 3290.4,2988.6 3243.9,2954.5 3195.5,2922.0 3145.2,2891.3 3093.4,2862.6 3040.2,2835.9 2985.7,2811.6 2930.1,2789.6 2873.6,2770.0 2816.3,2753.1 2758.4,2738.9 2700.0,2727.5 2641.3,2718.9 2582.5,2713.3 2523.6,2710.5 2464.8,2710.8 2406.3,2714.1 2348.2,2720.5 2290.5,2729.8 2233.5,2742.2 2177.3,2757.7 2121.9,2776.0 2067.6,2797.3 2014.3,2821.5 1962.3,2848.5 1911.6,2878.2 1862.3,2910.5 1814.5,2945.4 1768.4,2982.7 1724.0,3022.3 1681.4,3064.0 1640.8,3107.7 1602.1,3153.3 1565.5,3200.6 1531.0,3249.3 1498.8,3299.4 1468.8,3350.5 1441.2,3402.5 1416.1,3455.1 1393.4,3508.2  Z" style="stroke-width: 0.0;  fill: rgb(42,98,180);" />
<path d="M 1384.168,3504.414 A 1625.580,1625.580 0.00 0,1 1378.6,3502.1 L 1378.6,3502.1 1402.5,3447.8 1429.1,3393.8 1458.4,3340.2 1490.3,3287.2 1524.7,3235.1 1561.6,3183.9 1600.9,3133.9 1642.5,3085.2 1686.2,3037.9 1732.1,2992.3 1780.1,2948.3 1829.9,2906.3 1881.6,2866.2 1935.1,2828.2 1990.2,2792.3 2046.7,2758.7 2104.7,2727.5 2164.0,2698.7 2224.5,2672.4 2286.0,2648.6 2348.5,2627.4 2411.7,2608.9 2475.7,2593.0 2540.1,2579.8 2605.0,2569.3 2670.1,2561.5 2735.3,2556.4 2800.5,2554.0 2865.5,2554.2 2930.2,2557.1 2994.4,2562.7 3057.9,2570.8 3120.6,2581.4 3182.3,2594.4 3242.9,2609.9 3302.1,2627.6 3359.9,2647.6 3415.9,2669.7 3470.1,2693.8  A 1625.580,1625.580 0.00 0,1 3467.5,2699.3 L 3467.5,2699.3 3413.5,2675.0 3357.6,2652.7 3300.0,2632.5 3240.9,2614.6 3180.5,2598.9 3118.9,2585.7 3056.4,2574.9 2993.0,2566.6 2929.0,2560.9 2864.5,2557.8 2799.7,2557.3 2734.7,2559.6 2669.6,2564.5 2604.7,2572.2 2540.0,2582.5 2475.8,2595.6 2412.1,2611.4 2349.0,2629.8 2286.8,2650.9 2225.5,2674.6 2165.3,2700.9 2106.2,2729.6 2048.4,2760.8 1992.1,2794.3 1937.2,2830.1 1884.0,2868.1 1832.6,2908.2 1783.0,2950.3 1735.3,2994.2 1689.6,3039.9 1646.1,3087.1 1604.8,3135.9 1565.7,3185.9 1529.1,3237.2 1494.9,3289.4 1463.3,3342.4 1434.2,3396.0 1407.8,3450.1 1384.2,3504.4  Z" style="stroke-width: 0.0;  fill: rgb(42,98,180);" />
<path d="M 1378.613,3502.128 A 1625.580,1625.580 0.00 0,1 1371.2,3499.0 L 1371.2,3499.0 1396.1,3443.2 1423.9,3387.4 1454.5,3331.7 1487.9,3276.5 1523.9,3221.7 1562.5,3167.5 1603.7,3114.1 1647.2,3061.6 1693.0,3010.1 1741.1,2959.8 1791.3,2910.7 1843.6,2863.0 1897.7,2816.7 1953.7,2772.0 2011.4,2729.0 2070.7,2687.7 2131.6,2648.3 2193.7,2610.8 2257.2,2575.2 2321.8,2541.7 2387.4,2510.4 2453.9,2481.2 2521.2,2454.2 2589.1,2429.5 2657.6,2407.2 2726.4,2387.2 2795.4,2369.6 2864.5,2354.4 2933.5,2341.7 3002.4,2331.4 3070.9,2323.6 3138.9,2318.3 3206.2,2315.5 3272.7,2315.1 3338.3,2317.3 3402.7,2321.9 3465.8,2328.9 3527.4,2338.4 3587.4,2350.2  A 1625.580,1625.580 0.00 0,1 3585.7,2358.0 L 3585.7,2358.0 3525.8,2345.9 3464.3,2336.2 3401.3,2328.8 3337.1,2323.9 3271.7,2321.5 3205.3,2321.6 3138.1,2324.1 3070.3,2329.2 3001.9,2336.7 2933.3,2346.7 2864.4,2359.2 2795.4,2374.1 2726.6,2391.5 2658.0,2411.3 2589.8,2433.4 2522.1,2457.9 2455.0,2484.7 2388.7,2513.7 2323.3,2544.9 2259.0,2578.3 2195.7,2613.7 2133.8,2651.2 2073.3,2690.5 2014.2,2731.8 1956.8,2774.7 1901.1,2819.4 1847.2,2865.6 1795.3,2913.4 1745.4,2962.5 1697.6,3012.8 1652.1,3064.3 1608.9,3116.9 1568.1,3170.3 1529.7,3224.5 1494.0,3279.3 1461.0,3334.7 1430.7,3390.4 1403.2,3446.2 1378.6,3502.1  Z" style="stroke-width: 0.0;  fill: rgb(42,98,180);" />
<path d="M 1371.220,3499.048 A 1625.580,1625.580 0.00 0,1 1316.3,3474.8 L 1316.3,3474.8 1344.4,3417.2 1375.6,3359.3 1409.5,3301.4 1446.2,3243.5 1485.6,3185.7 1527.5,3128.1 1571.8,3070.8 1618.4,3013.8 1667.3,2957.2 1718.2,2901.2 1771.2,2845.8 1826.1,2791.1 1882.7,2737.2 1941.1,2684.2 2001.0,2632.1 2062.4,2581.0 2125.1,2531.0 2189.1,2482.3 2254.2,2434.7 2320.3,2388.6 2387.4,2343.9 2455.2,2300.6 2523.8,2259.0 2592.9,2219.0 2662.5,2180.8 2732.4,2144.3 2802.6,2109.7 2872.8,2077.1 2943.1,2046.5 3013.3,2018.0 3083.2,1991.7 3152.8,1967.6 3221.9,1945.8 3290.4,1926.3 3358.3,1909.4 3425.3,1894.9 3491.3,1883.0 3556.3,1873.7 3620.1,1867.2  A 1625.580,1625.580 0.00 0,1 3623.9,1927.1 L 3623.9,1927.1 3560.6,1931.3 3496.1,1938.2 3430.4,1947.7 3363.8,1959.8 3296.4,1974.4 3228.3,1991.6 3159.6,2011.1 3090.5,2033.1 3021.0,2057.3 2951.4,2083.8 2881.7,2112.5 2812.1,2143.3 2742.6,2176.2 2673.4,2211.1 2604.7,2247.8 2536.5,2286.5 2468.9,2326.9 2402.1,2369.0 2336.2,2412.7 2271.3,2458.0 2207.5,2504.8 2145.0,2552.9 2083.7,2602.4 2024.0,2653.1 1965.7,2704.9 1909.1,2757.8 1854.3,2811.6 1801.4,2866.4 1750.4,2921.9 1701.5,2978.1 1654.8,3034.9 1610.3,3092.2 1568.3,3149.9 1528.7,3208.0 1491.7,3266.2 1457.3,3324.5 1425.7,3382.8 1397.0,3441.0 1371.2,3499.0  Z" style="stroke-width: 0.0;  fill: rgb(42,98,180);" />
<path d="M 1316.268,3474.795 A 1625.580,1625.580 0.00 0,1 1218.0,3425.1 L 1218.0,3425.1 1251.6,3366.3 1288.0,3307.2 1327.0,3247.8 1368.4,3188.1 1412.2,3128.2 1458.2,3068.2 1506.3,3007.9 1556.3,2947.6 1608.2,2887.2 1661.8,2826.8 1716.9,2766.4 1773.5,2706.1 1831.4,2645.9 1890.6,2585.9 1951.0,2526.2 2012.3,2466.8 2074.6,2407.8 2137.7,2349.3 2201.5,2291.3 2266.0,2233.9 2331.0,2177.2 2396.4,2121.3 2462.2,2066.3 2528.3,2012.3 2594.6,1959.3 2661.1,1907.4 2727.6,1856.9 2794.0,1807.6 2860.4,1759.9 2926.6,1713.7 2992.6,1669.2 3058.4,1626.5 3123.8,1585.7 3188.8,1547.0 3253.3,1510.4 3317.4,1476.1 3380.9,1444.3 3443.8,1415.0 3506.2,1388.5  A 1625.580,1625.580 0.00 0,1 3544.1,1491.8 L 3544.1,1491.8 3481.4,1513.7 3418.0,1538.5 3354.0,1565.8 3289.4,1595.7 3224.2,1628.1 3158.7,1662.7 3092.7,1699.6 3026.5,1738.6 2960.1,1779.5 2893.5,1822.3 2826.9,1866.9 2760.3,1913.2 2693.9,1961.1 2627.6,2010.4 2561.6,2061.2 2496.0,2113.2 2430.9,2166.4 2366.3,2220.7 2302.3,2276.0 2239.1,2332.3 2176.8,2389.4 2115.3,2447.3 2054.9,2505.8 1995.6,2564.9 1937.6,2624.6 1880.9,2684.7 1825.7,2745.2 1772.0,2805.9 1720.0,2866.9 1669.7,2928.1 1621.3,2989.3 1575.0,3050.5 1530.7,3111.8 1488.7,3172.9 1449.0,3233.8 1411.8,3294.5 1377.2,3355.0 1345.3,3415.1 1316.3,3474.8  Z" style="stroke-width: 0.0;  fill: rgb(42,98,180);" />
<path d="M 1218.002,3425.128 A 1625.580,1625.580 0.00 0,1 1053.7,3321.8 L 1053.7,3321.8 1096.4,3263.6 1141.4,3205.1 1188.4,3146.3 1237.3,3087.2 1287.9,3027.6 1340.1,2967.5 1393.6,2907.0 1448.3,2846.1 1504.1,2784.6 1560.9,2722.7 1618.4,2660.3 1676.7,2597.5 1735.5,2534.2 1794.8,2470.5 1854.4,2406.4 1914.2,2341.9 1974.3,2277.2 2034.4,2212.2 2094.5,2147.1 2154.5,2081.7 2214.4,2016.4 2274.1,1951.0 2333.5,1885.8 2392.7,1820.7 2451.5,1755.9 2510.0,1691.5 2568.1,1627.6 2625.9,1564.2 2683.2,1501.6 2740.1,1439.9 2796.6,1379.1 2852.8,1319.4 2908.6,1261.0 2964.0,1204.0 3019.1,1148.5 3074.0,1094.8 3128.6,1043.0 3183.1,993.3 3237.4,945.8  A 1625.580,1625.580 0.00 0,1 3354.3,1100.8 L 3354.3,1100.8 3296.7,1140.3 3239.0,1182.3 3181.0,1226.8 3122.7,1273.4 3064.2,1322.2 3005.5,1372.9 2946.4,1425.4 2887.2,1479.6 2827.7,1535.3 2768.0,1592.3 2708.1,1650.7 2648.1,1710.2 2587.9,1770.7 2527.7,1832.1 2467.5,1894.3 2407.3,1957.2 2347.1,2020.8 2287.1,2084.8 2227.3,2149.2 2167.8,2214.0 2108.6,2279.0 2049.9,2344.1 1991.7,2409.4 1934.0,2474.7 1877.1,2540.0 1821.0,2605.1 1765.7,2670.2 1711.5,2735.0 1658.4,2799.6 1606.6,2863.8 1556.1,2927.8 1507.1,2991.4 1459.7,3054.7 1414.2,3117.5 1370.5,3179.9 1328.9,3241.9 1289.5,3303.4 1252.5,3364.5 1218.0,3425.1  Z" style="stroke-width: 0.0;  fill: rgb(42,98,180);" />
<path d="M 1053.709,3321.758 A 1625.580,1625.580 0.00 0,1 1034.3,3307.6 L 1034.3,3307.6 1077.1,3248.3 1119.7,3186.8 1162.0,3123.5 1204.3,3058.4 1246.6,2991.7 1288.9,2923.6 1331.4,2854.3 1374.2,2783.8 1417.2,2712.3 1460.6,2640.0 1504.4,2566.9 1548.5,2493.3 1593.2,2419.1 1638.2,2344.6 1683.7,2269.8 1729.7,2194.8 1776.1,2119.8 1822.9,2044.8 1870.1,1969.9 1917.7,1895.1 1965.5,1820.6 2013.7,1746.4 2062.0,1672.6 2110.4,1599.2 2158.9,1526.3 2207.3,1453.9 2255.6,1382.1 2303.6,1310.9 2351.3,1240.3 2398.4,1170.4 2444.9,1101.1 2490.6,1032.5 2535.5,964.6 2579.2,897.4 2621.7,830.9 2662.7,765.0 2702.2,699.8 2739.8,635.3 2775.4,571.3  A 1625.580,1625.580 0.00 0,1 2796.5,582.9 L 2796.5,582.9 2759.8,646.6 2721.1,710.9 2680.7,775.8 2638.7,841.3 2595.4,907.5 2550.8,974.4 2505.2,1042.0 2458.8,1110.2 2411.6,1179.2 2363.9,1248.8 2315.7,1319.1 2267.3,1390.0 2218.6,1461.5 2169.8,1533.6 2121.1,1606.3 2072.4,1679.5 2024.0,1753.2 1975.8,1827.2 1927.9,1901.6 1880.3,1976.3 1833.2,2051.2 1786.6,2126.3 1740.4,2201.4 1694.7,2276.5 1649.5,2351.4 1604.8,2426.1 1560.6,2500.5 1516.9,2574.5 1473.6,2647.9 1430.8,2720.6 1388.3,2792.5 1346.2,2863.5 1304.3,2933.4 1262.6,3002.1 1221.0,3069.4 1179.4,3135.2 1137.7,3199.3 1095.9,3261.5 1053.7,3321.8  Z" style="stroke-width: 0.0;  fill: rgb(42,98,180);" />
<path d="M 1034.276,3307.627 A 1625.580,1625.580 0.00 0,1 900.0,3196.8 L 900.0,3196.8 944.5,3146.6 988.4,3093.6 1031.7,3038.0 1074.3,2979.9 1116.3,2919.6 1157.6,2857.0 1198.4,2792.3 1238.5,2725.8 1278.0,2657.4 1316.8,2587.4 1355.0,2515.8 1392.5,2442.9 1429.3,2368.6 1465.3,2293.2 1500.7,2216.8 1535.2,2139.5 1569.0,2061.4 1601.8,1982.6 1633.9,1903.2 1665.0,1823.5 1695.1,1743.4 1724.2,1663.1 1752.2,1582.8 1779.1,1502.5 1804.8,1422.3 1829.3,1342.4 1852.4,1262.8 1874.2,1183.7 1894.5,1105.2 1913.3,1027.4 1930.5,950.3 1946.0,874.2 1959.7,799.0 1971.6,724.9 1981.6,652.1 1989.5,580.5 1995.3,510.3 1998.8,441.6 2000.0,374.4  A 1625.580,1625.580 0.00 0,1 2173.9,383.7 L 2173.9,383.7 2165.4,452.5 2154.7,522.7 2141.8,594.1 2127.1,666.8 2110.5,740.7 2092.2,815.8 2072.4,891.8 2051.1,968.8 2028.4,1046.7 2004.5,1125.3 1979.5,1204.7 1953.4,1284.8 1926.4,1365.3 1898.4,1446.3 1869.7,1527.7 1840.2,1609.3 1810.1,1691.1 1779.3,1772.9 1748.0,1854.7 1716.2,1936.4 1683.9,2017.8 1651.1,2098.9 1618.0,2179.5 1584.4,2259.6 1550.5,2338.9 1516.3,2417.5 1481.7,2495.1 1446.7,2571.6 1411.4,2647.0 1375.8,2721.1 1339.8,2793.8 1303.4,2864.9 1266.5,2934.3 1229.2,3001.9 1191.4,3067.5 1153.1,3131.1 1114.1,3192.4 1074.6,3251.3 1034.3,3307.6  Z" style="stroke-width: 0.0;  fill: rgb(42,98,180);" />
</g>
<defs>
<pattern id="checker" width="10" height="10" patternTransform="rotate(45 0 0)" patternUnits="userSpaceOnUse"><line x1="0" y1="0" x2="10" y2="0" style="stroke:black;stroke-width:5" /><line x1="0" y1="0" x2="0" y2="10" style="stroke:black;stroke-width:4" /></pattern>
<pattern id="checker" width="10" height="10" patternTransform="rotate(45 0 0)" patternUnits="userSpaceOnUse"><line x1="0" y1="0" x2="10" y2="0" style="stroke:black;stroke-width:2" /><line x1="0" y1="0" x2="0" y2="10" style="stroke:black;stroke-width:2" /></pattern>
<pattern id="hline" width="10" height="10" patternTransform="rotate(0 0 0)" patternUnits="userSpaceOnUse"><line x1="0" y1="0" x2="10" y2="0" style="stroke:black;stroke-width:5" /></pattern>
<pattern id="hline-sparse" width="10" height="10" patternTransform="rotate(0 0 0)" patternUnits="userSpaceOnUse"><line x1="0" y1="0" x2="10" y2="0" style="stroke:black;stroke-width:2" /></pattern>
<pattern id="vline-sparse" width="10" height="10" patternTransform="rotate(0 0 0)" patternUnits="userSpaceOnUse"><line x1="0" y1="0" x2="0" y2="10" style="stroke:black;stroke-width:2" /></pattern>
<pattern id="vline" width="10" height="10" patternTransform="rotate(0 0 0)" patternUnits="userSpaceOnUse"><line x1="0" y1="0" x2="0" y2="10" style="stroke:black;stroke-width:5" /></pattern>
</defs>
</svg>
