<?xml version="1.0" encoding="utf-8" standalone="no"?>
<!DOCTYPE svg PUBLIC "-//W3C//DTD SVG 1.1//EN" "http://www.w3.org/Graphics/SVG/1.1/DTD/svg11.dtd">
<svg width="4000px" height="4000px" version="1.1" xmlns="http://www.w3.org/2000/svg" xmlns:xlink="http://www.w3.org/1999/xlink">
<g id="bg">
<rect x="0" y="0" width="4000px" height="4000px" style="fill:rgb(255,255,255);"/>
</g>
<g id="ideograms">
<path d="M2000.000,358.000 A1642.000,1642.000 40.000 0,1 2727.139,527.779 L2743.967,493.709 A1680.000,1680.000 0.000 0,0 2000.000,320.000 Z" style="stroke-width:2.0;stroke:rgb(255,255,255);stroke-linecap:round;fill:rgb(185,185,185);" />
<text x="2412.3" y="302.2" font-size="36.4px" font-family="CMUBright-Roman" style="text-anchor:start;fill:rgb(0,0,0);" transform="rotate(283.1,2412.3,302.2)" >Engineering</text>
<path d="M2000.000,358.000 A1642.000,1642.000 40.000 0,1 2727.139,527.779 L2743.967,493.709 A1680.000,1680.000 0.000 0,0 2000.000,320.000 Z" style="stroke-width:2.0;stroke:rgb(255,255,255);stroke-linecap:round;fill:none;" />
<path d="M2759.082,543.992 A1642.000,1642.000 40.000 0,1 3284.099,976.646 L3313.816,952.963 A1680.000,1680.000 0.000 0,0 2776.649,510.297 Z" style="stroke-width:2.0;stroke:rgb(255,255,255);stroke-linecap:round;fill:rgb(185,185,185);" />
<text x="3120.8" y="659.6" font-size="36.4px" font-family="CMUBright-Roman" style="text-anchor:start;fill:rgb(0,0,0);" transform="rotate(309.5,3120.8,659.6)" >Finance-Investment</text>
<path d="M2759.082,543.992 A1642.000,1642.000 40.000 0,1 3284.099,976.646 L3313.816,952.963 A1680.000,1680.000 0.000 0,0 2776.649,510.297 Z" style="stroke-width:2.0;stroke:rgb(255,255,255);stroke-linecap:round;fill:none;" />
<path d="M3306.118,1004.902 A1642.000,1642.000 40.000 0,1 3557.132,1478.938 L3593.167,1466.879 A1680.000,1680.000 0.000 0,0 3336.345,981.873 Z" style="stroke-width:2.0;stroke:rgb(255,255,255);stroke-linecap:round;fill:rgb(185,185,185);" />
<text x="3551.5" y="1196.5" font-size="36.4px" font-family="CMUBright-Roman" style="text-anchor:start;fill:rgb(0,0,0);" transform="rotate(332.1,3551.5,1196.5)" >Management-Operations</text>
<path d="M3306.118,1004.902 A1642.000,1642.000 40.000 0,1 3557.132,1478.938 L3593.167,1466.879 A1680.000,1680.000 0.000 0,0 3336.345,981.873 Z" style="stroke-width:2.0;stroke:rgb(255,255,255);stroke-linecap:round;fill:none;" />
<path d="M3568.128,1513.031 A1642.000,1642.000 40.000 0,1 3640.479,1929.339 L3678.444,1927.703 A1680.000,1680.000 0.000 0,0 3604.418,1501.761 Z" style="stroke-width:2.0;stroke:rgb(255,255,255);stroke-linecap:round;fill:rgb(185,185,185);" />
<text x="3723.5" y="1713.2" font-size="36.4px" font-family="CMUBright-Roman" style="text-anchor:start;fill:rgb(0,0,0);" transform="rotate(350.1,3723.5,1713.2)" >Software-Data</text>
<path d="M3568.128,1513.031 A1642.000,1642.000 40.000 0,1 3640.479,1929.339 L3678.444,1927.703 A1680.000,1680.000 0.000 0,0 3604.418,1501.761 Z" style="stroke-width:2.0;stroke:rgb(255,255,255);stroke-linecap:round;fill:none;" />
<path d="M3641.630,1965.142 A1642.000,1642.000 40.000 0,1 3597.388,2380.151 L3634.356,2388.948 A1680.000,1680.000 0.000 0,0 3679.621,1964.336 Z" style="stroke-width:2.0;stroke:rgb(255,255,255);stroke-linecap:round;fill:rgb(185,185,185);" />
<text x="3735.6" y="2201.1" font-size="36.4px" font-family="CMUBright-Roman" style="text-anchor:start;fill:rgb(0,0,0);" transform="rotate(6.1,3735.6,2201.1)" >Sales-Marketing</text>
<path d="M3641.630,1965.142 A1642.000,1642.000 40.000 0,1 3597.388,2380.151 L3634.356,2388.948 A1680.000,1680.000 0.000 0,0 3679.621,1964.336 Z" style="stroke-width:2.0;stroke:rgb(255,255,255);stroke-linecap:round;fill:none;" />
<path d="M3588.715,2414.907 A1642.000,1642.000 40.000 0,1 3447.858,2774.513 L3481.365,2792.437 A1680.000,1680.000 0.000 0,0 3625.482,2424.509 Z" style="stroke-width:2.0;stroke:rgb(255,255,255);stroke-linecap:round;fill:rgb(185,185,185);" />
<text x="3620.9" y="2652.1" font-size="36.4px" font-family="CMUBright-Roman" style="text-anchor:start;fill:rgb(0,0,0);" transform="rotate(21.4,3620.9,2652.1)" >Accounting-Audit</text>
<path d="M3588.715,2414.907 A1642.000,1642.000 40.000 0,1 3447.858,2774.513 L3481.365,2792.437 A1680.000,1680.000 0.000 0,0 3625.482,2424.509 Z" style="stroke-width:2.0;stroke:rgb(255,255,255);stroke-linecap:round;fill:none;" />
<path d="M3430.618,2805.914 A1642.000,1642.000 40.000 0,1 3261.549,3051.027 L3290.745,3075.350 A1680.000,1680.000 0.000 0,0 3463.726,2824.565 Z" style="stroke-width:2.0;stroke:rgb(255,255,255);stroke-linecap:round;fill:rgb(185,185,185);" />
<text x="3429.4" y="3004.8" font-size="36.4px" font-family="CMUBright-Roman" style="text-anchor:start;fill:rgb(0,0,0);" transform="rotate(34.6,3429.4,3004.8)" >Leadership-General</text>
<path d="M3430.618,2805.914 A1642.000,1642.000 40.000 0,1 3261.549,3051.027 L3290.745,3075.350 A1680.000,1680.000 0.000 0,0 3463.726,2824.565 Z" style="stroke-width:2.0;stroke:rgb(255,255,255);stroke-linecap:round;fill:none;" />
<path d="M3238.321,3078.297 A1642.000,1642.000 40.000 0,1 3039.505,3271.060 L3063.562,3300.476 A1680.000,1680.000 0.000 0,0 3266.979,3103.252 Z" style="stroke-width:2.0;stroke:rgb(255,255,255);stroke-linecap:round;fill:rgb(185,185,185);" />
<text x="3207.2" y="3263.1" font-size="36.4px" font-family="CMUBright-Roman" style="text-anchor:start;fill:rgb(0,0,0);" transform="rotate(45.9,3207.2,3263.1)" >Clinical-Care</text>
<path d="M3238.321,3078.297 A1642.000,1642.000 40.000 0,1 3039.505,3271.060 L3063.562,3300.476 A1680.000,1680.000 0.000 0,0 3266.979,3103.252 Z" style="stroke-width:2.0;stroke:rgb(255,255,255);stroke-linecap:round;fill:none;" />
<path d="M3011.529,3293.434 A1642.000,1642.000 40.000 0,1 2784.385,3442.534 L2802.537,3475.918 A1680.000,1680.000 0.000 0,0 3034.939,3323.368 Z" style="stroke-width:2.0;stroke:rgb(255,255,255);stroke-linecap:round;fill:rgb(185,185,185);" />
<text x="2948.3" y="3467.5" font-size="36.4px" font-family="CMUBright-Roman" style="text-anchor:start;fill:rgb(0,0,0);" transform="rotate(56.7,2948.3,3467.5)" >Research-Science</text>
<path d="M3011.529,3293.434 A1642.000,1642.000 40.000 0,1 2784.385,3442.534 L2802.537,3475.918 A1680.000,1680.000 0.000 0,0 3034.939,3323.368 Z" style="stroke-width:2.0;stroke:rgb(255,255,255);stroke-linecap:round;fill:none;" />
<path d="M2752.729,3459.302 A1642.000,1642.000 40.000 0,1 2556.245,3544.913 L2569.118,3580.666 A1680.000,1680.000 0.000 0,0 2770.149,3493.074 Z" style="stroke-width:2.0;stroke:rgb(255,255,255);stroke-linecap:round;fill:rgb(185,185,185);" />
<text x="2686.4" y="3606.7" font-size="36.4px" font-family="CMUBright-Roman" style="text-anchor:start;fill:rgb(0,0,0);" transform="rotate(66.5,2686.4,3606.7)" >Education</text>
<path d="M2752.729,3459.302 A1642.000,1642.000 40.000 0,1 2556.245,3544.913 L2569.118,3580.666 A1680.000,1680.000 0.000 0,0 2770.149,3493.074 Z" style="stroke-width:2.0;stroke:rgb(255,255,255);stroke-linecap:round;fill:none;" />
<path d="M2522.411,3556.679 A1642.000,1642.000 40.000 0,1 2417.174,3588.121 L2426.829,3624.875 A1680.000,1680.000 0.000 0,0 2534.501,3592.705 Z" style="stroke-width:2.0;stroke:rgb(255,255,255);stroke-linecap:round;fill:rgb(185,185,185);" />
<text x="2488.2" y="3677.6" font-size="36.4px" font-family="CMUBright-Roman" style="text-anchor:start;fill:rgb(0,0,0);" transform="rotate(73.4,2488.2,3677.6)" >IT-Infrastructure</text>
<path d="M2522.411,3556.679 A1642.000,1642.000 40.000 0,1 2417.174,3588.121 L2426.829,3624.875 A1680.000,1680.000 0.000 0,0 2534.501,3592.705 Z" style="stroke-width:2.0;stroke:rgb(255,255,255);stroke-linecap:round;fill:none;" />
<path d="M2382.430,3596.844 A1642.000,1642.000 40.000 0,1 2321.118,3610.294 L2328.550,3647.560 A1680.000,1680.000 0.000 0,0 2391.281,3633.799 Z" style="stroke-width:2.0;stroke:rgb(255,255,255);stroke-linecap:round;fill:rgb(185,185,185);" />
<text x="2358.7" y="3710.0" font-size="36.4px" font-family="CMUBright-Roman" style="text-anchor:start;fill:rgb(0,0,0);" transform="rotate(77.6,2358.7,3710.0)" >Legal-Policy</text>
<path d="M2382.430,3596.844 A1642.000,1642.000 40.000 0,1 2321.118,3610.294 L2328.550,3647.560 A1680.000,1680.000 0.000 0,0 2391.281,3633.799 Z" style="stroke-width:2.0;stroke:rgb(255,255,255);stroke-linecap:round;fill:none;" />
<path d="M2285.913,3616.916 A1642.000,1642.000 40.000 0,1 2249.787,3622.890 L2255.567,3660.447 A1680.000,1680.000 0.000 0,0 2292.530,3654.336 Z" style="stroke-width:2.0;stroke:rgb(255,255,255);stroke-linecap:round;fill:rgb(185,185,185);" />
<text x="2272.7" y="3725.8" font-size="36.4px" font-family="CMUBright-Roman" style="text-anchor:start;fill:rgb(0,0,0);" transform="rotate(80.6,2272.7,3725.8)" >Social-Service</text>
<path d="M2285.913,3616.916 A1642.000,1642.000 40.000 0,1 2249.787,3622.890 L2255.567,3660.447 A1680.000,1680.000 0.000 0,0 2292.530,3654.336 Z" style="stroke-width:2.0;stroke:rgb(255,255,255);stroke-linecap:round;fill:none;" />
<path d="M2214.324,3627.952 A1642.000,1642.000 40.000 0,1 1245.263,3458.265 L1227.797,3492.013 A1680.000,1680.000 0.000 0,0 2219.284,3665.627 Z" style="stroke-width:2.0;stroke:rgb(255,255,255);stroke-linecap:round;fill:rgb(15,52,135);" />
<text x="1714.4" y="3723.7" font-size="36.4px" font-family="CMUBright-Roman" style="text-anchor:end;fill:rgb(0,0,0);" transform="rotate(-80.1,1714.4,3723.7)" >Finance-Accounting</text>
<path d="M2214.324,3627.952 A1642.000,1642.000 40.000 0,1 1245.263,3458.265 L1227.797,3492.013 A1680.000,1680.000 0.000 0,0 2219.284,3665.627 Z" style="stroke-width:2.0;stroke:rgb(255,255,255);stroke-linecap:round;fill:none;" />
<path d="M1213.631,3441.453 A1642.000,1642.000 40.000 0,1 879.437,3200.209 L853.504,3227.985 A1680.000,1680.000 0.000 0,0 1195.432,3474.812 Z" style="stroke-width:2.0;stroke:rgb(255,255,255);stroke-linecap:round;fill:rgb(28,75,160);" />
<text x="990.4" y="3426.0" font-size="36.4px" font-family="CMUBright-Roman" style="text-anchor:end;fill:rgb(0,0,0);" transform="rotate(-54.2,990.4,3426.0)" >Marketing-Communication</text>
<path d="M1213.631,3441.453 A1642.000,1642.000 40.000 0,1 879.437,3200.209 L853.504,3227.985 A1680.000,1680.000 0.000 0,0 1195.432,3474.812 Z" style="stroke-width:2.0;stroke:rgb(255,255,255);stroke-linecap:round;fill:none;" />
<path d="M853.521,3175.478 A1642.000,1642.000 40.000 0,1 639.254,2918.986 L607.763,2940.253 A1680.000,1680.000 0.000 0,0 826.988,3202.682 Z" style="stroke-width:2.0;stroke:rgb(255,255,255);stroke-linecap:round;fill:rgb(42,98,180);" />
<text x="667.2" y="3129.7" font-size="36.4px" font-family="CMUBright-Roman" style="text-anchor:end;fill:rgb(0,0,0);" transform="rotate(-39.9,667.2,3129.7)" >General-Business</text>
<path d="M853.521,3175.478 A1642.000,1642.000 40.000 0,1 639.254,2918.986 L607.763,2940.253 A1680.000,1680.000 0.000 0,0 826.988,3202.682 Z" style="stroke-width:2.0;stroke:rgb(255,255,255);stroke-linecap:round;fill:none;" />
<path d="M619.530,2889.082 A1642.000,1642.000 40.000 0,1 479.680,2620.315 L444.496,2634.671 A1680.000,1680.000 0.000 0,0 587.583,2909.658 Z" style="stroke-width:2.0;stroke:rgb(255,255,255);stroke-linecap:round;fill:rgb(60,120,198);" />
<text x="457.3" y="2820.2" font-size="36.4px" font-family="CMUBright-Roman" style="text-anchor:end;fill:rgb(0,0,0);" transform="rotate(-27.5,457.3,2820.2)" >Operations-Analytics</text>
<path d="M619.530,2889.082 A1642.000,1642.000 40.000 0,1 479.680,2620.315 L444.496,2634.671 A1680.000,1680.000 0.000 0,0 587.583,2909.658 Z" style="stroke-width:2.0;stroke:rgb(255,255,255);stroke-linecap:round;fill:none;" />
<path d="M466.510,2587.002 A1642.000,1642.000 40.000 0,1 421.749,2453.087 L385.224,2463.573 A1680.000,1680.000 0.000 0,0 431.021,2600.587 Z" style="stroke-width:2.0;stroke:rgb(255,255,255);stroke-linecap:round;fill:rgb(82,145,215);" />
<text x="347.9" y="2568.6" font-size="36.4px" font-family="CMUBright-Roman" style="text-anchor:end;fill:rgb(0,0,0);" transform="rotate(-18.5,347.9,2568.6)" >Specialized-Business</text>
<path d="M466.510,2587.002 A1642.000,1642.000 40.000 0,1 421.749,2453.087 L385.224,2463.573 A1680.000,1680.000 0.000 0,0 431.021,2600.587 Z" style="stroke-width:2.0;stroke:rgb(255,255,255);stroke-linecap:round;fill:none;" />
<path d="M412.241,2418.550 A1642.000,1642.000 40.000 0,1 391.911,2331.987 L354.696,2339.670 A1680.000,1680.000 0.000 0,0 375.496,2428.236 Z" style="stroke-width:2.0;stroke:rgb(255,255,255);stroke-linecap:round;fill:rgb(108,170,228);" />
<text x="301.9" y="2411.1" font-size="36.4px" font-family="CMUBright-Roman" style="text-anchor:end;fill:rgb(0,0,0);" transform="rotate(-13.2,301.9,2411.1)" >Economics</text>
<path d="M412.241,2418.550 A1642.000,1642.000 40.000 0,1 391.911,2331.987 L354.696,2339.670 A1680.000,1680.000 0.000 0,0 375.496,2428.236 Z" style="stroke-width:2.0;stroke:rgb(255,255,255);stroke-linecap:round;fill:none;" />
<path d="M385.052,2296.827 A1642.000,1642.000 40.000 0,1 366.030,2162.194 L328.216,2165.947 A1680.000,1680.000 0.000 0,0 347.678,2303.697 Z" style="stroke-width:2.0;stroke:rgb(255,255,255);stroke-linecap:round;fill:rgb(200,108,30);" />
<text x="271.8" y="2256.8" font-size="36.4px" font-family="CMUBright-Roman" style="text-anchor:end;fill:rgb(0,0,0);" transform="rotate(-8.0,271.8,2256.8)" >Social-Sciences</text>
<path d="M385.052,2296.827 A1642.000,1642.000 40.000 0,1 366.030,2162.194 L328.216,2165.947 A1680.000,1680.000 0.000 0,0 347.678,2303.697 Z" style="stroke-width:2.0;stroke:rgb(255,255,255);stroke-linecap:round;fill:none;" />
<path d="M362.881,2126.510 A1642.000,1642.000 40.000 0,1 359.682,2074.299 L321.721,2076.018 A1680.000,1680.000 0.000 0,0 324.994,2129.438 Z" style="stroke-width:2.0;stroke:rgb(255,255,255);stroke-linecap:round;fill:rgb(220,140,52);" />
<text x="256.9" y="2119.3" font-size="36.4px" font-family="CMUBright-Roman" style="text-anchor:end;fill:rgb(0,0,0);" transform="rotate(-3.5,256.9,2119.3)" >Humanities-Liberal-Arts</text>
<path d="M362.881,2126.510 A1642.000,1642.000 40.000 0,1 359.682,2074.299 L321.721,2076.018 A1680.000,1680.000 0.000 0,0 324.994,2129.438 Z" style="stroke-width:2.0;stroke:rgb(255,255,255);stroke-linecap:round;fill:none;" />
<path d="M358.451,2038.498 A1642.000,1642.000 40.000 0,1 358.158,2022.807 L320.162,2023.335 A1680.000,1680.000 0.000 0,0 320.462,2039.389 Z" style="stroke-width:2.0;stroke:rgb(255,255,255);stroke-linecap:round;fill:rgb(235,168,78);" />
<text x="253.4" y="2045.1" font-size="36.4px" font-family="CMUBright-Roman" style="text-anchor:end;fill:rgb(0,0,0);" transform="rotate(-1.1,253.4,2045.1)" >International-Studies</text>
<path d="M358.451,2038.498 A1642.000,1642.000 40.000 0,1 358.158,2022.807 L320.162,2023.335 A1680.000,1680.000 0.000 0,0 320.462,2039.389 Z" style="stroke-width:2.0;stroke:rgb(255,255,255);stroke-linecap:round;fill:none;" />
<path d="M358.052,1986.985 A1642.000,1642.000 40.000 0,1 367.336,1825.152 L329.552,1821.105 A1680.000,1680.000 0.000 0,0 320.053,1986.684 Z" style="stroke-width:2.0;stroke:rgb(255,255,255);stroke-linecap:round;fill:rgb(175,35,42);" />
<text x="255.0" y="1912.4" font-size="36.4px" font-family="CMUBright-Roman" style="text-anchor:end;fill:rgb(0,0,0);" transform="rotate(3.3,255.0,1912.4)" >Teacher-Education</text>
<path d="M358.052,1986.985 A1642.000,1642.000 40.000 0,1 367.336,1825.152 L329.552,1821.105 A1680.000,1680.000 0.000 0,0 320.053,1986.684 Z" style="stroke-width:2.0;stroke:rgb(255,255,255);stroke-linecap:round;fill:none;" />
<path d="M371.539,1789.577 A1642.000,1642.000 40.000 0,1 376.636,1753.316 L339.067,1747.607 A1680.000,1680.000 0.000 0,0 333.852,1784.707 Z" style="stroke-width:2.0;stroke:rgb(255,255,255);stroke-linecap:round;fill:rgb(195,58,55);" />
<text x="268.1" y="1769.2" font-size="36.4px" font-family="CMUBright-Roman" style="text-anchor:end;fill:rgb(0,0,0);" transform="rotate(8.0,268.1,1769.2)" >Social-Work</text>
<path d="M371.539,1789.577 A1642.000,1642.000 40.000 0,1 376.636,1753.316 L339.067,1747.607 A1680.000,1680.000 0.000 0,0 333.852,1784.707 Z" style="stroke-width:2.0;stroke:rgb(255,255,255);stroke-linecap:round;fill:none;" />
<path d="M382.404,1717.961 A1642.000,1642.000 40.000 0,1 388.090,1687.094 L350.786,1679.853 A1680.000,1680.000 0.000 0,0 344.968,1711.434 Z" style="stroke-width:2.0;stroke:rgb(255,255,255);stroke-linecap:round;fill:rgb(215,82,72);" />
<text x="279.0" y="1698.7" font-size="36.4px" font-family="CMUBright-Roman" style="text-anchor:end;fill:rgb(0,0,0);" transform="rotate(10.4,279.0,1698.7)" >Special-Education</text>
<path d="M382.404,1717.961 A1642.000,1642.000 40.000 0,1 388.090,1687.094 L350.786,1679.853 A1680.000,1680.000 0.000 0,0 344.968,1711.434 Z" style="stroke-width:2.0;stroke:rgb(255,255,255);stroke-linecap:round;fill:none;" />
<path d="M395.300,1652.005 A1642.000,1642.000 40.000 0,1 396.416,1646.895 L359.305,1638.723 A1680.000,1680.000 0.000 0,0 358.163,1643.952 Z" style="stroke-width:2.0;stroke:rgb(255,255,255);stroke-linecap:round;fill:rgb(230,112,95);" />
<text x="289.8" y="1642.1" font-size="36.4px" font-family="CMUBright-Roman" style="text-anchor:end;fill:rgb(0,0,0);" transform="rotate(12.3,289.8,1642.1)" >Educational-Leadership</text>
<path d="M395.300,1652.005 A1642.000,1642.000 40.000 0,1 396.416,1646.895 L359.305,1638.723 A1680.000,1680.000 0.000 0,0 358.163,1643.952 Z" style="stroke-width:2.0;stroke:rgb(255,255,255);stroke-linecap:round;fill:none;" />
<path d="M404.501,1611.997 A1642.000,1642.000 40.000 0,1 423.388,1541.244 L386.901,1530.627 A1680.000,1680.000 0.000 0,0 367.577,1603.017 Z" style="stroke-width:2.0;stroke:rgb(255,255,255);stroke-linecap:round;fill:rgb(0,130,142);" />
<text x="308.7" y="1561.5" font-size="36.4px" font-family="CMUBright-Roman" style="text-anchor:end;fill:rgb(0,0,0);" transform="rotate(14.9,308.7,1561.5)" >Communication-Studies</text>
<path d="M404.501,1611.997 A1642.000,1642.000 40.000 0,1 423.388,1541.244 L386.901,1530.627 A1680.000,1680.000 0.000 0,0 367.577,1603.017 Z" style="stroke-width:2.0;stroke:rgb(255,255,255);stroke-linecap:round;fill:none;" />
<path d="M433.770,1506.960 A1642.000,1642.000 40.000 0,1 448.549,1462.261 L412.644,1449.816 A1680.000,1680.000 0.000 0,0 397.524,1495.549 Z" style="stroke-width:2.0;stroke:rgb(255,255,255);stroke-linecap:round;fill:rgb(0,165,172);" />
<text x="337.2" y="1463.4" font-size="36.4px" font-family="CMUBright-Roman" style="text-anchor:end;fill:rgb(0,0,0);" transform="rotate(18.3,337.2,1463.4)" >Journalism-Media</text>
<path d="M433.770,1506.960 A1642.000,1642.000 40.000 0,1 448.549,1462.261 L412.644,1449.816 A1680.000,1680.000 0.000 0,0 397.524,1495.549 Z" style="stroke-width:2.0;stroke:rgb(255,255,255);stroke-linecap:round;fill:none;" />
<path d="M460.649,1428.544 A1642.000,1642.000 40.000 0,1 466.181,1413.858 L430.684,1400.293 A1680.000,1680.000 0.000 0,0 425.024,1415.319 Z" style="stroke-width:2.0;stroke:rgb(255,255,255);stroke-linecap:round;fill:rgb(38,195,195);" />
<text x="359.4" y="1399.1" font-size="36.4px" font-family="CMUBright-Roman" style="text-anchor:end;fill:rgb(0,0,0);" transform="rotate(20.6,359.4,1399.1)" >Creative-Writing</text>
<path d="M460.649,1428.544 A1642.000,1642.000 40.000 0,1 466.181,1413.858 L430.684,1400.293 A1680.000,1680.000 0.000 0,0 425.024,1415.319 Z" style="stroke-width:2.0;stroke:rgb(255,255,255);stroke-linecap:round;fill:none;" />
<path d="M479.332,1380.537 A1642.000,1642.000 40.000 0,1 510.660,1308.603 L476.193,1292.602 A1680.000,1680.000 0.000 0,0 444.140,1366.201 Z" style="stroke-width:2.0;stroke:rgb(255,255,255);stroke-linecap:round;fill:rgb(180,45,112);" />
<text x="391.8" y="1317.1" font-size="36.4px" font-family="CMUBright-Roman" style="text-anchor:end;fill:rgb(0,0,0);" transform="rotate(23.5,391.8,1317.1)" >Arts-Theology</text>
<path d="M479.332,1380.537 A1642.000,1642.000 40.000 0,1 510.660,1308.603 L476.193,1292.602 A1680.000,1680.000 0.000 0,0 444.140,1366.201 Z" style="stroke-width:2.0;stroke:rgb(255,255,255);stroke-linecap:round;fill:none;" />
<path d="M526.097,1276.278 A1642.000,1642.000 40.000 0,1 530.738,1266.901 L496.736,1249.936 A1680.000,1680.000 0.000 0,0 491.987,1259.529 Z" style="stroke-width:2.0;stroke:rgb(255,255,255);stroke-linecap:round;fill:rgb(205,75,142);" />
<text x="427.1" y="1239.3" font-size="36.4px" font-family="CMUBright-Roman" style="text-anchor:end;fill:rgb(0,0,0);" transform="rotate(26.3,427.1,1239.3)" >English-Writing</text>
<path d="M526.097,1276.278 A1642.000,1642.000 40.000 0,1 530.738,1266.901 L496.736,1249.936 A1680.000,1680.000 0.000 0,0 491.987,1259.529 Z" style="stroke-width:2.0;stroke:rgb(255,255,255);stroke-linecap:round;fill:none;" />
<path d="M547.080,1235.024 A1642.000,1642.000 40.000 0,1 549.525,1230.399 L515.957,1212.589 A1680.000,1680.000 0.000 0,0 513.456,1217.321 Z" style="stroke-width:2.0;stroke:rgb(255,255,255);stroke-linecap:round;fill:rgb(225,110,168);" />
<text x="447.9" y="1197.7" font-size="36.4px" font-family="CMUBright-Roman" style="text-anchor:end;fill:rgb(0,0,0);" transform="rotate(27.9,447.9,1197.7)" >Languages</text>
<path d="M547.080,1235.024 A1642.000,1642.000 40.000 0,1 549.525,1230.399 L515.957,1212.589 A1680.000,1680.000 0.000 0,0 513.456,1217.321 Z" style="stroke-width:2.0;stroke:rgb(255,255,255);stroke-linecap:round;fill:none;" />
<path d="M566.659,1198.940 A1642.000,1642.000 40.000 0,1 748.337,937.219 L719.370,912.624 A1680.000,1680.000 0.000 0,0 533.488,1180.402 Z" style="stroke-width:2.0;stroke:rgb(255,255,255);stroke-linecap:round;fill:rgb(88,40,138);" />
<text x="555.7" y="1016.9" font-size="36.4px" font-family="CMUBright-Roman" style="text-anchor:end;fill:rgb(0,0,0);" transform="rotate(34.8,555.7,1016.9)" >Biological-Sciences</text>
<path d="M566.659,1198.940 A1642.000,1642.000 40.000 0,1 748.337,937.219 L719.370,912.624 A1680.000,1680.000 0.000 0,0 533.488,1180.402 Z" style="stroke-width:2.0;stroke:rgb(255,255,255);stroke-linecap:round;fill:none;" />
<path d="M771.819,910.167 A1642.000,1642.000 40.000 0,1 821.633,856.490 L794.362,830.027 A1680.000,1680.000 0.000 0,0 743.396,884.946 Z" style="stroke-width:2.0;stroke:rgb(255,255,255);stroke-linecap:round;fill:rgb(115,65,165);" />
<text x="710.8" y="820.7" font-size="36.4px" font-family="CMUBright-Roman" style="text-anchor:end;fill:rgb(0,0,0);" transform="rotate(42.9,710.8,820.7)" >Health-Wellness</text>
<path d="M771.819,910.167 A1642.000,1642.000 40.000 0,1 821.633,856.490 L794.362,830.027 A1680.000,1680.000 0.000 0,0 743.396,884.946 Z" style="stroke-width:2.0;stroke:rgb(255,255,255);stroke-linecap:round;fill:none;" />
<path d="M846.858,831.057 A1642.000,1642.000 40.000 0,1 873.212,805.633 L847.135,777.993 A1680.000,1680.000 0.000 0,0 820.172,804.004 Z" style="stroke-width:2.0;stroke:rgb(255,255,255);stroke-linecap:round;fill:rgb(140,92,188);" />
<text x="775.8" y="753.4" font-size="36.4px" font-family="CMUBright-Roman" style="text-anchor:end;fill:rgb(0,0,0);" transform="rotate(46.0,775.8,753.4)" >Physical-Sciences</text>
<path d="M846.858,831.057 A1642.000,1642.000 40.000 0,1 873.212,805.633 L847.135,777.993 A1680.000,1680.000 0.000 0,0 820.172,804.004 Z" style="stroke-width:2.0;stroke:rgb(255,255,255);stroke-linecap:round;fill:none;" />
<path d="M899.535,781.337 A1642.000,1642.000 40.000 0,1 903.423,777.837 L878.045,749.553 A1680.000,1680.000 0.000 0,0 874.067,753.134 Z" style="stroke-width:2.0;stroke:rgb(255,255,255);stroke-linecap:round;fill:rgb(165,120,208);" />
<text x="821.8" y="709.8" font-size="36.4px" font-family="CMUBright-Roman" style="text-anchor:end;fill:rgb(0,0,0);" transform="rotate(48.0,821.8,709.8)" >Environmental-Sciences</text>
<path d="M899.535,781.337 A1642.000,1642.000 40.000 0,1 903.423,777.837 L878.045,749.553 A1680.000,1680.000 0.000 0,0 874.067,753.134 Z" style="stroke-width:2.0;stroke:rgb(255,255,255);stroke-linecap:round;fill:none;" />
<path d="M930.345,754.206 A1642.000,1642.000 40.000 0,1 1638.399,398.311 L1630.030,361.244 A1680.000,1680.000 0.000 0,0 905.590,725.375 Z" style="stroke-width:2.0;stroke:rgb(255,255,255);stroke-linecap:round;fill:rgb(22,118,50);" />
<text x="1201.1" y="446.2" font-size="36.4px" font-family="CMUBright-Roman" style="text-anchor:end;fill:rgb(0,0,0);" transform="rotate(63.3,1201.1,446.2)" >Engineering-Disciplines</text>
<path d="M930.345,754.206 A1642.000,1642.000 40.000 0,1 1638.399,398.311 L1630.030,361.244 A1680.000,1680.000 0.000 0,0 905.590,725.375 Z" style="stroke-width:2.0;stroke:rgb(255,255,255);stroke-linecap:round;fill:none;" />
<path d="M1673.425,390.804 A1642.000,1642.000 40.000 0,1 1964.180,358.391 L1963.351,320.400 A1680.000,1680.000 0.000 0,0 1665.867,353.563 Z" style="stroke-width:2.0;stroke:rgb(255,255,255);stroke-linecap:round;fill:rgb(48,158,75);" />
<text x="1791.0" y="265.3" font-size="36.4px" font-family="CMUBright-Roman" style="text-anchor:end;fill:rgb(0,0,0);" transform="rotate(83.6,1791.0,265.3)" >Computer-Science-IT</text>
<path d="M1673.425,390.804 A1642.000,1642.000 40.000 0,1 1964.180,358.391 L1963.351,320.400 A1680.000,1680.000 0.000 0,0 1665.867,353.563 Z" style="stroke-width:2.0;stroke:rgb(255,255,255);stroke-linecap:round;fill:none;" />
</g>
<g id="track_0">
<path d="M 864.986,3163.724 A 1625.580,1625.580 0.00 0,1 861.3,3160.1 L 861.3,3160.1 901.6,3120.6 943.7,3082.5 987.4,3045.9 1032.7,3011.2 1079.3,2978.4 1127.0,2947.7 1175.8,2919.4 1225.5,2893.6 1275.8,2870.4 1326.8,2850.0 1378.1,2832.5 1429.8,2818.0 1481.6,2806.6 1533.5,2798.3 1585.2,2793.2 1636.7,2791.4 1687.8,2792.8 1738.5,2797.6 1788.6,2805.7 1838.0,2817.0 1886.6,2831.7 1934.3,2849.5 1980.9,2870.6 2026.4,2894.7 2070.7,2921.9 2113.7,2952.0 2155.3,2985.0 2195.5,3020.6 2234.0,3058.8 2270.9,3099.4 2306.1,3142.2 2339.5,3187.2 2371.0,3233.9 2400.5,3282.4 2428.1,3332.2 2453.6,3383.3 2477.0,3435.3 2498.2,3488.0 2517.2,3541.1  A 1625.580,1625.580 0.00 0,1 2512.3,3542.8 L 2512.3,3542.8 2493.5,3489.6 2472.5,3436.9 2449.3,3384.9 2424.0,3333.8 2396.6,3283.9 2367.3,3235.4 2336.0,3188.6 2302.9,3143.7 2267.9,3100.8 2231.3,3060.2 2193.0,3022.0 2153.1,2986.3 2111.7,2953.4 2069.0,2923.3 2024.9,2896.1 1979.7,2872.0 1933.3,2851.0 1885.9,2833.2 1837.5,2818.6 1788.4,2807.3 1738.5,2799.3 1688.1,2794.6 1637.2,2793.2 1585.9,2795.1 1534.4,2800.3 1482.8,2808.7 1431.2,2820.2 1379.8,2834.9 1328.6,2852.5 1277.9,2873.0 1227.7,2896.3 1178.3,2922.2 1129.7,2950.6 1082.1,2981.4 1035.7,3014.3 990.7,3049.2 947.1,3085.9 905.1,3124.2 865.0,3163.7  Z" style="stroke-width: 0.0;  fill: rgb(42,98,180);" />
<path d="M 861.284,3160.102 A 1625.580,1625.580 0.00 0,1 857.6,3156.5 L 857.6,3156.5 898.8,3116.5 942.0,3077.9 987.2,3040.8 1034.1,3005.4 1082.7,2972.0 1132.7,2940.7 1184.1,2911.6 1236.6,2884.9 1290.2,2860.7 1344.7,2839.1 1399.9,2820.3 1455.7,2804.3 1512.0,2791.2 1568.7,2781.1 1625.6,2774.1 1682.5,2770.1 1739.5,2769.3 1796.2,2771.6 1852.7,2777.0 1908.7,2785.5 1964.2,2797.2 2019.1,2812.0 2073.1,2829.8 2126.3,2850.6 2178.5,2874.3 2229.6,2900.8 2279.4,2930.1 2328.0,2962.0 2375.1,2996.5 2420.6,3033.3 2464.5,3072.4 2506.7,3113.5 2547.0,3156.6 2585.4,3201.5 2621.8,3247.9 2656.1,3295.6 2688.1,3344.5 2717.8,3394.3 2745.2,3444.7  A 1625.580,1625.580 0.00 0,1 2740.6,3447.1 L 2740.6,3447.1 2713.4,3396.6 2683.9,3346.8 2652.0,3297.8 2618.0,3250.0 2581.8,3203.6 2543.6,3158.7 2503.5,3115.5 2461.5,3074.3 2417.9,3035.2 2372.5,2998.3 2325.7,2963.8 2277.4,2931.9 2227.8,2902.5 2176.9,2876.0 2125.0,2852.3 2072.0,2831.5 2018.2,2813.7 1963.6,2799.0 1908.3,2787.3 1852.5,2778.8 1796.3,2773.4 1739.8,2771.2 1683.1,2772.1 1626.3,2776.1 1569.7,2783.3 1513.2,2793.4 1457.1,2806.6 1401.5,2822.7 1346.5,2841.6 1292.2,2863.3 1238.9,2887.6 1186.5,2914.4 1135.4,2943.6 1085.5,2975.1 1037.1,3008.6 990.4,3044.1 945.4,3081.3 902.3,3120.0 861.3,3160.1  Z" style="stroke-width: 0.0;  fill: rgb(42,98,180);" />
<path d="M 857.594,3156.468 A 1625.580,1625.580 0.00 0,1 853.9,3152.8 L 853.9,3152.8 896.2,3112.1 940.9,3072.7 987.7,3034.7 1036.7,2998.4 1087.5,2963.8 1140.2,2931.2 1194.5,2900.7 1250.3,2872.3 1307.5,2846.2 1365.9,2822.6 1425.4,2801.4 1485.9,2782.8 1547.2,2766.8 1609.2,2753.6 1671.7,2743.1 1734.7,2735.4 1798.0,2730.6 1861.4,2728.6 1924.8,2729.5 1988.2,2733.3 2051.3,2739.9 2114.0,2749.4 2176.3,2761.7 2237.9,2776.8 2298.8,2794.6 2358.8,2815.1 2417.8,2838.2 2475.6,2863.8 2532.2,2891.9 2587.4,2922.3 2641.1,2955.0 2693.1,2989.8 2743.4,3026.5 2791.8,3065.2 2838.3,3105.5 2882.5,3147.4 2924.6,3190.6 2964.2,3235.0 3001.4,3280.5  A 1625.580,1625.580 0.00 0,1 2997.3,3283.7 L 2997.3,3283.7 2960.3,3238.1 2920.8,3193.6 2879.0,3150.3 2834.9,3108.3 2788.7,3067.9 2740.5,3029.2 2690.4,2992.3 2638.5,2957.5 2585.0,2924.7 2530.1,2894.2 2473.7,2866.1 2416.0,2840.4 2357.3,2817.2 2297.5,2796.7 2236.8,2778.8 2175.4,2763.7 2113.4,2751.4 2050.9,2741.9 1988.0,2735.3 1924.8,2731.5 1861.6,2730.7 1798.4,2732.7 1735.3,2737.6 1672.6,2745.3 1610.2,2755.8 1548.4,2769.1 1487.3,2785.2 1427.0,2803.9 1367.7,2825.1 1309.5,2848.9 1252.5,2875.1 1196.9,2903.5 1142.8,2934.2 1090.3,2966.9 1039.7,3001.6 990.9,3038.0 944.2,3076.1 899.7,3115.6 857.6,3156.5  Z" style="stroke-width: 0.0;  fill: rgb(42,98,180);" />
<path d="M 853.915,3152.823 A 1625.580,1625.580 0.00 0,1 793.2,3089.1 L 793.2,3089.1 840.4,3048.3 890.3,3008.7 942.8,2970.3 997.8,2933.2 1055.1,2897.5 1114.5,2863.3 1176.0,2830.6 1239.5,2799.5 1304.7,2770.1 1371.5,2742.4 1439.9,2716.4 1509.7,2692.2 1580.7,2669.9 1652.9,2649.4 1726.0,2630.9 1800.0,2614.4 1874.6,2599.8 1949.9,2587.3 2025.6,2576.8 2101.6,2568.4 2177.7,2562.0 2253.9,2557.7 2329.9,2555.6 2405.7,2555.5 2481.1,2557.5 2556.0,2561.6 2630.2,2567.8 2703.6,2576.1 2776.0,2586.4 2847.3,2598.8 2917.4,2613.2 2986.1,2629.7 3053.3,2648.1 3118.8,2668.4 3182.5,2690.6 3244.2,2714.8 3303.9,2740.7 3361.3,2768.4 3416.3,2797.9  A 1625.580,1625.580 0.00 0,1 3371.0,2873.4 L 3371.0,2873.4 3318.5,2841.5 3263.6,2811.3 3206.4,2782.8 3147.1,2756.2 3085.9,2731.4 3022.8,2708.6 2958.1,2687.8 2891.9,2669.1 2824.3,2652.4 2755.5,2637.9 2685.6,2625.6 2614.8,2615.5 2543.2,2607.7 2470.9,2602.1 2398.1,2598.8 2325.0,2597.7 2251.6,2599.0 2178.1,2602.6 2104.6,2608.4 2031.4,2616.6 1958.4,2627.0 1885.9,2639.6 1814.1,2654.5 1742.9,2671.5 1672.6,2690.7 1603.3,2712.0 1535.2,2735.4 1468.3,2760.8 1402.8,2788.1 1338.8,2817.4 1276.6,2848.4 1216.1,2881.2 1157.5,2915.7 1101.0,2951.8 1046.7,2989.4 994.7,3028.4 945.2,3068.7 898.2,3110.2 853.9,3152.8  Z" style="stroke-width: 0.0;  fill: rgb(42,98,180);" />
<path d="M 793.190,3089.092 A 1625.580,1625.580 0.00 0,1 772.6,3065.8 L 772.6,3065.8 822.5,3024.2 875.1,2983.6 930.4,2943.9 988.2,2905.3 1048.4,2867.7 1110.8,2831.2 1175.3,2795.8 1241.8,2761.4 1310.2,2728.3 1380.3,2696.3 1451.9,2665.4 1525.1,2635.9 1599.5,2607.5 1675.1,2580.5 1751.9,2554.8 1829.5,2530.4 1907.9,2507.4 1987.0,2485.8 2066.7,2465.6 2146.8,2446.8 2227.1,2429.6 2307.6,2413.9 2388.1,2399.7 2468.5,2387.1 2548.7,2376.2 2628.4,2366.8 2707.7,2359.2 2786.4,2353.3 2864.3,2349.1 2941.3,2346.7 3017.3,2346.1 3092.1,2347.4 3165.6,2350.5 3237.8,2355.5 3308.4,2362.5 3377.3,2371.5 3444.5,2382.5 3509.7,2395.6 3572.8,2410.8  A 1625.580,1625.580 0.00 0,1 3564.7,2440.7 L 3564.7,2440.7 3502.2,2424.5 3437.6,2410.3 3371.1,2398.2 3302.7,2388.1 3232.7,2380.1 3161.1,2374.0 3088.1,2369.8 3013.9,2367.6 2938.4,2367.3 2862.0,2368.8 2784.7,2372.2 2706.6,2377.4 2627.9,2384.3 2548.7,2393.0 2469.1,2403.5 2389.3,2415.6 2309.4,2429.3 2229.6,2444.7 2149.9,2461.7 2070.5,2480.3 1991.5,2500.4 1913.1,2522.0 1835.4,2545.1 1758.5,2569.7 1682.6,2595.6 1607.8,2623.0 1534.1,2651.6 1461.9,2681.6 1391.1,2712.9 1321.9,2745.5 1254.4,2779.2 1188.8,2814.1 1125.3,2850.2 1063.8,2887.4 1004.6,2925.7 947.9,2965.1 893.6,3005.5 842.0,3046.8 793.2,3089.1  Z" style="stroke-width: 0.0;  fill: rgb(42,98,180);" />
<path d="M 772.594,3065.826 A 1625.580,1625.580 0.00 0,1 742.5,3030.2 L 742.5,3030.2 795.8,2988.1 851.7,2946.6 910.2,2905.9 971.0,2865.9 1034.1,2826.4 1099.3,2787.6 1166.4,2749.4 1235.4,2711.8 1306.1,2674.8 1378.4,2638.3 1452.1,2602.5 1527.1,2567.2 1603.3,2532.5 1680.6,2498.4 1758.8,2464.9 1837.8,2432.1 1917.6,2399.9 1997.9,2368.5 2078.6,2337.7 2159.8,2307.8 2241.1,2278.6 2322.6,2250.3 2404.1,2222.9 2485.5,2196.5 2566.7,2171.1 2647.6,2146.8 2728.0,2123.6 2808.0,2101.7 2887.3,2081.0 2965.9,2061.7 3043.7,2043.9 3120.6,2027.7 3196.4,2013.1 3271.2,2000.2 3344.8,1989.1 3417.0,1980.0 3487.9,1973.0 3557.3,1968.1 3625.2,1965.5  A 1625.580,1625.580 0.00 0,1 3625.5,2012.1 L 3625.5,2012.1 3558.2,2012.8 3489.2,2015.8 3418.8,2021.0 3346.9,2028.3 3273.7,2037.5 3199.3,2048.7 3123.8,2061.7 3047.2,2076.4 2969.7,2092.8 2891.5,2110.7 2812.5,2130.1 2732.9,2150.8 2652.7,2173.0 2572.2,2196.3 2491.5,2220.9 2410.5,2246.6 2329.5,2273.4 2248.5,2301.3 2167.7,2330.1 2087.1,2359.8 2007.0,2390.5 1927.4,2421.9 1848.4,2454.2 1770.1,2487.3 1692.8,2521.2 1616.4,2555.7 1541.1,2591.0 1467.1,2626.9 1394.5,2663.6 1323.4,2700.9 1253.9,2738.8 1186.1,2777.4 1120.3,2816.6 1056.5,2856.5 994.8,2897.0 935.5,2938.2 878.6,2980.0 824.2,3022.6 772.6,3065.8  Z" style="stroke-width: 0.0;  fill: rgb(42,98,180);" />
<path d="M 742.543,3030.200 A 1625.580,1625.580 0.00 0,1 736.0,3022.2 L 736.0,3022.2 791.7,2978.4 849.7,2935.1 910.1,2892.2 972.5,2849.5 1036.9,2807.1 1103.0,2764.9 1170.9,2722.8 1240.2,2680.7 1311.0,2638.8 1383.0,2596.8 1456.1,2554.9 1530.2,2512.9 1605.1,2471.0 1680.9,2429.0 1757.2,2387.0 1834.2,2345.0 1911.5,2303.1 1989.2,2261.2 2067.0,2219.4 2145.1,2177.7 2223.1,2136.2 2301.1,2095.0 2379.0,2054.0 2456.6,2013.5 2534.0,1973.3 2611.0,1933.7 2687.6,1894.7 2763.6,1856.5 2839.2,1819.1 2914.1,1782.6 2988.3,1747.1 3061.8,1712.8 3134.5,1679.9 3206.4,1648.4 3277.4,1618.4 3347.6,1590.3 3416.8,1564.0 3485.1,1539.8 3552.4,1517.9  A 1625.580,1625.580 0.00 0,1 3555.5,1527.8 L 3555.5,1527.8 3488.2,1549.3 3419.8,1573.0 3350.6,1598.8 3280.4,1626.6 3209.3,1656.1 3137.3,1687.3 3064.5,1719.9 2991.0,1753.8 2916.7,1788.9 2841.8,1825.1 2766.2,1862.3 2690.1,1900.3 2613.5,1939.1 2536.5,1978.5 2459.1,2018.5 2381.4,2058.9 2303.5,2099.8 2225.6,2141.0 2147.5,2182.4 2069.6,2224.0 1991.7,2265.9 1914.1,2307.8 1836.9,2349.8 1760.1,2391.8 1683.8,2433.9 1608.2,2476.0 1533.4,2518.1 1459.5,2560.3 1386.6,2602.4 1314.8,2644.5 1244.3,2686.7 1175.2,2729.0 1107.6,2771.3 1041.7,2813.8 977.6,2856.5 915.5,2899.4 855.5,2942.6 797.8,2986.2 742.5,3030.2  Z" style="stroke-width: 0.0;  fill: rgb(42,98,180);" />
<path d="M 736.004,3022.167 A 1625.580,1625.580 0.00 0,1 688.6,2960.6 L 688.6,2960.6 748.2,2916.1 808.2,2869.7 868.7,2821.6 929.6,2772.1 991.0,2721.4 1053.1,2669.6 1115.8,2616.9 1179.1,2563.4 1243.0,2509.4 1307.7,2455.0 1373.0,2400.2 1439.0,2345.3 1505.7,2290.3 1573.0,2235.4 1641.0,2180.6 1709.6,2126.1 1778.8,2071.9 1848.5,2018.2 1918.7,1964.9 1989.4,1912.1 2060.4,1859.9 2131.7,1808.3 2203.3,1757.3 2275.0,1707.0 2346.8,1657.3 2418.6,1608.3 2490.2,1559.9 2561.6,1512.2 2632.6,1465.1 2703.2,1418.5 2773.1,1372.5 2842.3,1327.0 2910.6,1281.8 2977.9,1237.0 3044.0,1192.5 3108.7,1148.1 3171.9,1103.8 3233.4,1059.4 3293.1,1014.9  A 1625.580,1625.580 0.00 0,1 3338.6,1077.7 L 3338.6,1077.7 3278.3,1120.3 3217.5,1164.7 3156.2,1210.9 3094.5,1258.7 3032.1,1307.8 2969.2,1358.1 2905.7,1409.4 2841.6,1461.6 2776.8,1514.4 2711.4,1567.8 2645.3,1621.7 2578.6,1675.8 2511.2,1730.1 2443.3,1784.4 2374.7,1838.7 2305.6,1892.9 2236.0,1946.9 2166.0,2000.6 2095.5,2053.9 2024.6,2106.9 1953.5,2159.3 1882.2,2211.3 1810.7,2262.7 1739.1,2313.6 1667.6,2364.0 1596.2,2413.7 1525.0,2462.9 1454.2,2511.5 1383.8,2559.6 1314.1,2607.2 1245.0,2654.4 1176.8,2701.1 1109.6,2747.4 1043.5,2793.5 978.8,2839.3 915.4,2885.0 853.8,2930.6 793.9,2976.3 736.0,3022.2  Z" style="stroke-width: 0.0;  fill: rgb(42,98,180);" />
<path d="M 688.619,2960.620 A 1625.580,1625.580 0.00 0,1 664.6,2926.9 L 664.6,2926.9 721.3,2886.3 778.1,2843.1 835.2,2797.4 892.5,2749.6 949.9,2699.6 1007.6,2647.7 1065.6,2594.0 1123.7,2538.6 1182.0,2481.7 1240.5,2423.4 1299.2,2363.8 1357.9,2303.1 1416.8,2241.4 1475.7,2178.7 1534.6,2115.3 1593.5,2051.1 1652.3,1986.3 1711.0,1921.1 1769.4,1855.4 1827.5,1789.4 1885.3,1723.2 1942.7,1656.8 1999.5,1590.3 2055.8,1523.8 2111.3,1457.4 2166.1,1391.1 2219.9,1324.9 2272.8,1258.9 2324.5,1193.3 2375.0,1127.9 2424.1,1062.9 2471.7,998.3 2517.7,934.0 2561.9,870.3 2604.3,806.9 2644.5,744.1 2682.6,681.7 2718.3,619.9 2751.5,558.6  A 1625.580,1625.580 0.00 0,1 2788.0,578.2 L 2788.0,578.2 2753.0,639.1 2715.6,700.5 2675.9,762.4 2634.0,824.8 2590.2,887.6 2544.5,950.9 2497.1,1014.7 2448.2,1078.9 2397.9,1143.5 2346.3,1208.4 2293.6,1273.7 2239.8,1339.4 2185.1,1405.3 2129.6,1471.4 2073.4,1537.7 2016.6,1604.1 1959.3,1670.5 1901.6,1737.0 1843.5,1803.3 1785.2,1869.5 1726.7,1935.5 1668.0,2001.1 1609.3,2066.3 1550.6,2131.0 1491.9,2195.1 1433.3,2258.5 1374.8,2321.0 1316.5,2382.6 1258.3,2443.1 1200.3,2502.5 1142.6,2560.5 1085.1,2617.1 1027.8,2672.2 970.7,2725.4 913.9,2776.9 857.3,2826.2 800.9,2873.4 744.7,2918.3 688.6,2960.6  Z" style="stroke-width: 0.0;  fill: rgb(42,98,180);" />
<path d="M 664.564,2926.888 A 1625.580,1625.580 0.00 0,1 652.9,2909.8 L 652.9,2909.8 705.9,2872.4 758.7,2832.1 811.3,2789.0 863.5,2743.2 915.3,2694.8 966.6,2644.0 1017.4,2590.8 1067.7,2535.5 1117.3,2478.1 1166.2,2418.7 1214.3,2357.4 1261.7,2294.4 1308.1,2229.9 1353.6,2163.8 1398.1,2096.3 1441.5,2027.6 1483.8,1957.8 1524.9,1887.0 1564.8,1815.2 1603.3,1742.7 1640.4,1669.6 1676.1,1595.8 1710.3,1521.7 1743.0,1447.3 1774.0,1372.7 1803.3,1298.0 1830.8,1223.3 1856.5,1148.9 1880.3,1074.7 1902.1,1000.9 1922.0,927.7 1939.7,855.1 1955.3,783.2 1968.7,712.2 1979.8,642.2 1988.5,573.3 1994.9,505.6 1998.7,439.3 2000.0,374.4  A 1625.580,1625.580 0.00 0,1 2020.7,374.6 L 2020.7,374.6 2018.6,439.7 2013.9,506.2 2006.8,574.1 1997.2,643.1 1985.4,713.3 1971.2,784.5 1954.9,856.5 1936.4,929.3 1915.9,1002.8 1893.4,1076.8 1869.0,1151.1 1842.7,1225.8 1814.6,1300.7 1784.8,1375.6 1753.4,1450.5 1720.4,1525.3 1685.8,1599.7 1649.8,1673.8 1612.4,1747.3 1573.7,1820.2 1533.7,1892.4 1492.4,1963.7 1450.1,2034.0 1406.6,2103.1 1362.2,2171.1 1316.7,2237.7 1270.4,2302.9 1223.2,2366.5 1175.2,2428.4 1126.5,2488.4 1077.1,2546.5 1027.1,2602.6 976.6,2656.4 925.5,2708.0 874.0,2757.1 822.1,2803.7 769.9,2847.6 717.3,2888.7 664.6,2926.9  Z" style="stroke-width: 0.0;  fill: rgb(42,98,180);" />
</g>
<defs>
<pattern id="hline" width="10" height="10" patternTransform="rotate(0 0 0)" patternUnits="userSpaceOnUse"><line x1="0" y1="0" x2="10" y2="0" style="stroke:black;stroke-width:5" /></pattern>
<pattern id="vline-sparse" width="10" height="10" patternTransform="rotate(0 0 0)" patternUnits="userSpaceOnUse"><line x1="0" y1="0" x2="0" y2="10" style="stroke:black;stroke-width:2" /></pattern>
<pattern id="checker" width="10" height="10" patternTransform="rotate(45 0 0)" patternUnits="userSpaceOnUse"><line x1="0" y1="0" x2="10" y2="0" style="stroke:black;stroke-width:5" /><line x1="0" y1="0" x2="0" y2="10" style="stroke:black;stroke-width:4" /></pattern>
<pattern id="checker" width="10" height="10" patternTransform="rotate(45 0 0)" patternUnits="userSpaceOnUse"><line x1="0" y1="0" x2="10" y2="0" style="stroke:black;stroke-width:2" /><line x1="0" y1="0" x2="0" y2="10" style="stroke:black;stroke-width:2" /></pattern>
<pattern id="hline-sparse" width="10" height="10" patternTransform="rotate(0 0 0)" patternUnits="userSpaceOnUse"><line x1="0" y1="0" x2="10" y2="0" style="stroke:black;stroke-width:2" /></pattern>
<pattern id="vline" width="10" height="10" patternTransform="rotate(0 0 0)" patternUnits="userSpaceOnUse"><line x1="0" y1="0" x2="0" y2="10" style="stroke:black;stroke-width:5" /></pattern>
</defs>
</svg>
