<?xml version="1.0" encoding="utf-8" standalone="no"?>
<!DOCTYPE svg PUBLIC "-//W3C//DTD SVG 1.1//EN" "http://www.w3.org/Graphics/SVG/1.1/DTD/svg11.dtd">
<svg width="4000px" height="4000px" version="1.1" xmlns="http://www.w3.org/2000/svg" xmlns:xlink="http://www.w3.org/1999/xlink">
<g id="bg">
<rect x="0" y="0" width="4000px" height="4000px" style="fill:rgb(255,255,255);"/>
</g>
<g id="ideograms">
<path d="M2000.000,358.000 A1642.000,1642.000 40.000 0,1 2727.139,527.779 L2743.967,493.709 A1680.000,1680.000 0.000 0,0 2000.000,320.000 Z" style="stroke-width:2.0;stroke:rgb(255,255,255);stroke-linecap:round;fill:rgb(185,185,185);" />
<text x="2412.3" y="302.2" font-size="36.4px" font-family="CMUBright-Roman" style="text-anchor:start;fill:rgb(0,0,0);" transform="rotate(283.1,2412.3,302.2)" >Engineering</text>
<path d="M2000.000,358.000 A1642.000,1642.000 40.000 0,1 2727.139,527.779 L2743.967,493.709 A1680.000,1680.000 0.000 0,0 2000.000,320.000 Z" style="stroke-width:2.0;stroke:rgb(255,255,255);stroke-linecap:round;fill:none;" />
<path d="M2759.082,543.992 A1642.000,1642.000 40.000 0,1 3284.099,976.646 L3313.816,952.963 A1680.000,1680.000 0.000 0,0 2776.649,510.297 Z" style="stroke-width:2.0;stroke:rgb(255,255,255);stroke-linecap:round;fill:rgb(185,185,185);" />
<text x="3120.8" y="659.6" font-size="36.4px" font-family="CMUBright-Roman" style="text-anchor:start;fill:rgb(0,0,0);" transform="rotate(309.5,3120.8,659.6)" >Finance-Investment</text>
<path d="M2759.082,543.992 A1642.000,1642.000 40.000 0,1 3284.099,976.646 L3313.816,952.963 A1680.000,1680.000 0.000 0,0 2776.649,510.297 Z" style="stroke-width:2.0;stroke:rgb(255,255,255);stroke-linecap:round;fill:none;" />
<path d="M3306.118,1004.902 A1642.000,1642.000 40.000 0,1 3557.132,1478.938 L3593.167,1466.879 A1680.000,1680.000 0.000 0,0 3336.345,981.873 Z" style="stroke-width:2.0;stroke:rgb(255,255,255);stroke-linecap:round;fill:rgb(185,185,185);" />
<text x="3551.5" y="1196.5" font-size="36.4px" font-family="CMUBright-Roman" style="text-anchor:start;fill:rgb(0,0,0);" transform="rotate(332.1,3551.5,1196.5)" >Management-Operations</text>
<path d="M3306.118,1004.902 A1642.000,1642.000 40.000 0,1 3557.132,1478.938 L3593.167,1466.879 A1680.000,1680.000 0.000 0,0 3336.345,981.873 Z" style="stroke-width:2.0;stroke:rgb(255,255,255);stroke-linecap:round;fill:none;" />
<path d="M3568.128,1513.031 A1642.000,1642.000 40.000 0,1 3640.479,1929.339 L3678.444,1927.703 A1680.000,1680.000 0.000 0,0 3604.418,1501.761 Z" style="stroke-width:2.0;stroke:rgb(255,255,255);stroke-linecap:round;fill:rgb(185,185,185);" />
<text x="3723.5" y="1713.2" font-size="36.4px" font-family="CMUBright-Roman" style="text-anchor:start;fill:rgb(0,0,0);" transform="rotate(350.1,3723.5,1713.2)" >Software-Data</text>
<path d="M3568.128,1513.031 A1642.000,1642.000 40.000 0,1 3640.479,1929.339 L3678.444,1927.703 A1680.000,1680.000 0.000 0,0 3604.418,1501.761 Z" style="stroke-width:2.0;stroke:rgb(255,255,255);stroke-linecap:round;fill:none;" />
<path d="M3641.630,1965.142 A1642.000,1642.000 40.000 0,1 3597.388,2380.151 L3634.356,2388.948 A1680.000,1680.000 0.000 0,0 3679.621,1964.336 Z" style="stroke-width:2.0;stroke:rgb(255,255,255);stroke-linecap:round;fill:rgb(185,185,185);" />
<text x="3735.6" y="2201.1" font-size="36.4px" font-family="CMUBright-Roman" style="text-anchor:start;fill:rgb(0,0,0);" transform="rotate(6.1,3735.6,2201.1)" >Sales-Marketing</text>
<path d="M3641.630,1965.142 A1642.000,1642.000 40.000 0,1 3597.388,2380.151 L3634.356,2388.948 A1680.000,1680.000 0.000 0,0 3679.621,1964.336 Z" style="stroke-width:2.0;stroke:rgb(255,255,255);stroke-linecap:round;fill:none;" />
<path d="M3588.715,2414.907 A1642.000,1642.000 40.000 0,1 3447.858,2774.513 L3481.365,2792.437 A1680.000,1680.000 0.000 0,0 3625.482,2424.509 Z" style="stroke-width:2.0;stroke:rgb(255,255,255);stroke-linecap:round;fill:rgb(185,185,185);" />
<text x="3620.9" y="2652.1" font-size="36.4px" font-family="CMUBright-Roman" style="text-anchor:start;fill:rgb(0,0,0);" transform="rotate(21.4,3620.9,2652.1)" >Accounting-Audit</text>
<path d="M3588.715,2414.907 A1642.000,1642.000 40.000 0,1 3447.858,2774.513 L3481.365,2792.437 A1680.000,1680.000 0.000 0,0 3625.482,2424.509 Z" style="stroke-width:2.0;stroke:rgb(255,255,255);stroke-linecap:round;fill:none;" />
<path d="M3430.618,2805.914 A1642.000,1642.000 40.000 0,1 3261.549,3051.027 L3290.745,3075.350 A1680.000,1680.000 0.000 0,0 3463.726,2824.565 Z" style="stroke-width:2.0;stroke:rgb(255,255,255);stroke-linecap:round;fill:rgb(185,185,185);" />
<text x="3429.4" y="3004.8" font-size="36.4px" font-family="CMUBright-Roman" style="text-anchor:start;fill:rgb(0,0,0);" transform="rotate(34.6,3429.4,3004.8)" >Leadership-General</text>
<path d="M3430.618,2805.914 A1642.000,1642.000 40.000 0,1 3261.549,3051.027 L3290.745,3075.350 A1680.000,1680.000 0.000 0,0 3463.726,2824.565 Z" style="stroke-width:2.0;stroke:rgb(255,255,255);stroke-linecap:round;fill:none;" />
<path d="M3238.321,3078.297 A1642.000,1642.000 40.000 0,1 3039.505,3271.060 L3063.562,3300.476 A1680.000,1680.000 0.000 0,0 3266.979,3103.252 Z" style="stroke-width:2.0;stroke:rgb(255,255,255);stroke-linecap:round;fill:rgb(185,185,185);" />
<text x="3207.2" y="3263.1" font-size="36.4px" font-family="CMUBright-Roman" style="text-anchor:start;fill:rgb(0,0,0);" transform="rotate(45.9,3207.2,3263.1)" >Clinical-Care</text>
<path d="M3238.321,3078.297 A1642.000,1642.000 40.000 0,1 3039.505,3271.060 L3063.562,3300.476 A1680.000,1680.000 0.000 0,0 3266.979,3103.252 Z" style="stroke-width:2.0;stroke:rgb(255,255,255);stroke-linecap:round;fill:none;" />
<path d="M3011.529,3293.434 A1642.000,1642.000 40.000 0,1 2784.385,3442.534 L2802.537,3475.918 A1680.000,1680.000 0.000 0,0 3034.939,3323.368 Z" style="stroke-width:2.0;stroke:rgb(255,255,255);stroke-linecap:round;fill:rgb(185,185,185);" />
<text x="2948.3" y="3467.5" font-size="36.4px" font-family="CMUBright-Roman" style="text-anchor:start;fill:rgb(0,0,0);" transform="rotate(56.7,2948.3,3467.5)" >Research-Science</text>
<path d="M3011.529,3293.434 A1642.000,1642.000 40.000 0,1 2784.385,3442.534 L2802.537,3475.918 A1680.000,1680.000 0.000 0,0 3034.939,3323.368 Z" style="stroke-width:2.0;stroke:rgb(255,255,255);stroke-linecap:round;fill:none;" />
<path d="M2752.729,3459.302 A1642.000,1642.000 40.000 0,1 2556.245,3544.913 L2569.118,3580.666 A1680.000,1680.000 0.000 0,0 2770.149,3493.074 Z" style="stroke-width:2.0;stroke:rgb(255,255,255);stroke-linecap:round;fill:rgb(185,185,185);" />
<text x="2686.4" y="3606.7" font-size="36.4px" font-family="CMUBright-Roman" style="text-anchor:start;fill:rgb(0,0,0);" transform="rotate(66.5,2686.4,3606.7)" >Education</text>
<path d="M2752.729,3459.302 A1642.000,1642.000 40.000 0,1 2556.245,3544.913 L2569.118,3580.666 A1680.000,1680.000 0.000 0,0 2770.149,3493.074 Z" style="stroke-width:2.0;stroke:rgb(255,255,255);stroke-linecap:round;fill:none;" />
<path d="M2522.411,3556.679 A1642.000,1642.000 40.000 0,1 2417.174,3588.121 L2426.829,3624.875 A1680.000,1680.000 0.000 0,0 2534.501,3592.705 Z" style="stroke-width:2.0;stroke:rgb(255,255,255);stroke-linecap:round;fill:rgb(185,185,185);" />
<text x="2488.2" y="3677.6" font-size="36.4px" font-family="CMUBright-Roman" style="text-anchor:start;fill:rgb(0,0,0);" transform="rotate(73.4,2488.2,3677.6)" >IT-Infrastructure</text>
<path d="M2522.411,3556.679 A1642.000,1642.000 40.000 0,1 2417.174,3588.121 L2426.829,3624.875 A1680.000,1680.000 0.000 0,0 2534.501,3592.705 Z" style="stroke-width:2.0;stroke:rgb(255,255,255);stroke-linecap:round;fill:none;" />
<path d="M2382.430,3596.844 A1642.000,1642.000 40.000 0,1 2321.118,3610.294 L2328.550,3647.560 A1680.000,1680.000 0.000 0,0 2391.281,3633.799 Z" style="stroke-width:2.0;stroke:rgb(255,255,255);stroke-linecap:round;fill:rgb(185,185,185);" />
<text x="2358.7" y="3710.0" font-size="36.4px" font-family="CMUBright-Roman" style="text-anchor:start;fill:rgb(0,0,0);" transform="rotate(77.6,2358.7,3710.0)" >Legal-Policy</text>
<path d="M2382.430,3596.844 A1642.000,1642.000 40.000 0,1 2321.118,3610.294 L2328.550,3647.560 A1680.000,1680.000 0.000 0,0 2391.281,3633.799 Z" style="stroke-width:2.0;stroke:rgb(255,255,255);stroke-linecap:round;fill:none;" />
<path d="M2285.913,3616.916 A1642.000,1642.000 40.000 0,1 2249.787,3622.890 L2255.567,3660.447 A1680.000,1680.000 0.000 0,0 2292.530,3654.336 Z" style="stroke-width:2.0;stroke:rgb(255,255,255);stroke-linecap:round;fill:rgb(185,185,185);" />
<text x="2272.7" y="3725.8" font-size="36.4px" font-family="CMUBright-Roman" style="text-anchor:start;fill:rgb(0,0,0);" transform="rotate(80.6,2272.7,3725.8)" >Social-Service</text>
<path d="M2285.913,3616.916 A1642.000,1642.000 40.000 0,1 2249.787,3622.890 L2255.567,3660.447 A1680.000,1680.000 0.000 0,0 2292.530,3654.336 Z" style="stroke-width:2.0;stroke:rgb(255,255,255);stroke-linecap:round;fill:none;" />
<path d="M2214.324,3627.952 A1642.000,1642.000 40.000 0,1 1245.263,3458.265 L1227.797,3492.013 A1680.000,1680.000 0.000 0,0 2219.284,3665.627 Z" style="stroke-width:2.0;stroke:rgb(255,255,255);stroke-linecap:round;fill:rgb(15,52,135);" />
<text x="1714.4" y="3723.7" font-size="36.4px" font-family="CMUBright-Roman" style="text-anchor:end;fill:rgb(0,0,0);" transform="rotate(-80.1,1714.4,3723.7)" >Finance-Accounting</text>
<path d="M2214.324,3627.952 A1642.000,1642.000 40.000 0,1 1245.263,3458.265 L1227.797,3492.013 A1680.000,1680.000 0.000 0,0 2219.284,3665.627 Z" style="stroke-width:2.0;stroke:rgb(255,255,255);stroke-linecap:round;fill:none;" />
<path d="M1213.631,3441.453 A1642.000,1642.000 40.000 0,1 879.437,3200.209 L853.504,3227.985 A1680.000,1680.000 0.000 0,0 1195.432,3474.812 Z" style="stroke-width:2.0;stroke:rgb(255,255,255);stroke-linecap:round;fill:rgb(28,75,160);" />
<text x="990.4" y="3426.0" font-size="36.4px" font-family="CMUBright-Roman" style="text-anchor:end;fill:rgb(0,0,0);" transform="rotate(-54.2,990.4,3426.0)" >Marketing-Communication</text>
<path d="M1213.631,3441.453 A1642.000,1642.000 40.000 0,1 879.437,3200.209 L853.504,3227.985 A1680.000,1680.000 0.000 0,0 1195.432,3474.812 Z" style="stroke-width:2.0;stroke:rgb(255,255,255);stroke-linecap:round;fill:none;" />
<path d="M853.521,3175.478 A1642.000,1642.000 40.000 0,1 639.254,2918.986 L607.763,2940.253 A1680.000,1680.000 0.000 0,0 826.988,3202.682 Z" style="stroke-width:2.0;stroke:rgb(255,255,255);stroke-linecap:round;fill:rgb(42,98,180);" />
<text x="667.2" y="3129.7" font-size="36.4px" font-family="CMUBright-Roman" style="text-anchor:end;fill:rgb(0,0,0);" transform="rotate(-39.9,667.2,3129.7)" >General-Business</text>
<path d="M853.521,3175.478 A1642.000,1642.000 40.000 0,1 639.254,2918.986 L607.763,2940.253 A1680.000,1680.000 0.000 0,0 826.988,3202.682 Z" style="stroke-width:2.0;stroke:rgb(255,255,255);stroke-linecap:round;fill:none;" />
<path d="M619.530,2889.082 A1642.000,1642.000 40.000 0,1 479.680,2620.315 L444.496,2634.671 A1680.000,1680.000 0.000 0,0 587.583,2909.658 Z" style="stroke-width:2.0;stroke:rgb(255,255,255);stroke-linecap:round;fill:rgb(60,120,198);" />
<text x="457.3" y="2820.2" font-size="36.4px" font-family="CMUBright-Roman" style="text-anchor:end;fill:rgb(0,0,0);" transform="rotate(-27.5,457.3,2820.2)" >Operations-Analytics</text>
<path d="M619.530,2889.082 A1642.000,1642.000 40.000 0,1 479.680,2620.315 L444.496,2634.671 A1680.000,1680.000 0.000 0,0 587.583,2909.658 Z" style="stroke-width:2.0;stroke:rgb(255,255,255);stroke-linecap:round;fill:none;" />
<path d="M466.510,2587.002 A1642.000,1642.000 40.000 0,1 421.749,2453.087 L385.224,2463.573 A1680.000,1680.000 0.000 0,0 431.021,2600.587 Z" style="stroke-width:2.0;stroke:rgb(255,255,255);stroke-linecap:round;fill:rgb(82,145,215);" />
<text x="347.9" y="2568.6" font-size="36.4px" font-family="CMUBright-Roman" style="text-anchor:end;fill:rgb(0,0,0);" transform="rotate(-18.5,347.9,2568.6)" >Specialized-Business</text>
<path d="M466.510,2587.002 A1642.000,1642.000 40.000 0,1 421.749,2453.087 L385.224,2463.573 A1680.000,1680.000 0.000 0,0 431.021,2600.587 Z" style="stroke-width:2.0;stroke:rgb(255,255,255);stroke-linecap:round;fill:none;" />
<path d="M412.241,2418.550 A1642.000,1642.000 40.000 0,1 391.911,2331.987 L354.696,2339.670 A1680.000,1680.000 0.000 0,0 375.496,2428.236 Z" style="stroke-width:2.0;stroke:rgb(255,255,255);stroke-linecap:round;fill:rgb(108,170,228);" />
<text x="301.9" y="2411.1" font-size="36.4px" font-family="CMUBright-Roman" style="text-anchor:end;fill:rgb(0,0,0);" transform="rotate(-13.2,301.9,2411.1)" >Economics</text>
<path d="M412.241,2418.550 A1642.000,1642.000 40.000 0,1 391.911,2331.987 L354.696,2339.670 A1680.000,1680.000 0.000 0,0 375.496,2428.236 Z" style="stroke-width:2.0;stroke:rgb(255,255,255);stroke-linecap:round;fill:none;" />
<path d="M385.052,2296.827 A1642.000,1642.000 40.000 0,1 366.030,2162.194 L328.216,2165.947 A1680.000,1680.000 0.000 0,0 347.678,2303.697 Z" style="stroke-width:2.0;stroke:rgb(255,255,255);stroke-linecap:round;fill:rgb(200,108,30);" />
<text x="271.8" y="2256.8" font-size="36.4px" font-family="CMUBright-Roman" style="text-anchor:end;fill:rgb(0,0,0);" transform="rotate(-8.0,271.8,2256.8)" >Social-Sciences</text>
<path d="M385.052,2296.827 A1642.000,1642.000 40.000 0,1 366.030,2162.194 L328.216,2165.947 A1680.000,1680.000 0.000 0,0 347.678,2303.697 Z" style="stroke-width:2.0;stroke:rgb(255,255,255);stroke-linecap:round;fill:none;" />
<path d="M362.881,2126.510 A1642.000,1642.000 40.000 0,1 359.682,2074.299 L321.721,2076.018 A1680.000,1680.000 0.000 0,0 324.994,2129.438 Z" style="stroke-width:2.0;stroke:rgb(255,255,255);stroke-linecap:round;fill:rgb(220,140,52);" />
<text x="256.9" y="2119.3" font-size="36.4px" font-family="CMUBright-Roman" style="text-anchor:end;fill:rgb(0,0,0);" transform="rotate(-3.5,256.9,2119.3)" >Humanities-Liberal-Arts</text>
<path d="M362.881,2126.510 A1642.000,1642.000 40.000 0,1 359.682,2074.299 L321.721,2076.018 A1680.000,1680.000 0.000 0,0 324.994,2129.438 Z" style="stroke-width:2.0;stroke:rgb(255,255,255);stroke-linecap:round;fill:none;" />
<path d="M358.451,2038.498 A1642.000,1642.000 40.000 0,1 358.158,2022.807 L320.162,2023.335 A1680.000,1680.000 0.000 0,0 320.462,2039.389 Z" style="stroke-width:2.0;stroke:rgb(255,255,255);stroke-linecap:round;fill:rgb(235,168,78);" />
<text x="253.4" y="2045.1" font-size="36.4px" font-family="CMUBright-Roman" style="text-anchor:end;fill:rgb(0,0,0);" transform="rotate(-1.1,253.4,2045.1)" >International-Studies</text>
<path d="M358.451,2038.498 A1642.000,1642.000 40.000 0,1 358.158,2022.807 L320.162,2023.335 A1680.000,1680.000 0.000 0,0 320.462,2039.389 Z" style="stroke-width:2.0;stroke:rgb(255,255,255);stroke-linecap:round;fill:none;" />
<path d="M358.052,1986.985 A1642.000,1642.000 40.000 0,1 367.336,1825.152 L329.552,1821.105 A1680.000,1680.000 0.000 0,0 320.053,1986.684 Z" style="stroke-width:2.0;stroke:rgb(255,255,255);stroke-linecap:round;fill:rgb(175,35,42);" />
<text x="255.0" y="1912.4" font-size="36.4px" font-family="CMUBright-Roman" style="text-anchor:end;fill:rgb(0,0,0);" transform="rotate(3.3,255.0,1912.4)" >Teacher-Education</text>
<path d="M358.052,1986.985 A1642.000,1642.000 40.000 0,1 367.336,1825.152 L329.552,1821.105 A1680.000,1680.000 0.000 0,0 320.053,1986.684 Z" style="stroke-width:2.0;stroke:rgb(255,255,255);stroke-linecap:round;fill:none;" />
<path d="M371.539,1789.577 A1642.000,1642.000 40.000 0,1 376.636,1753.316 L339.067,1747.607 A1680.000,1680.000 0.000 0,0 333.852,1784.707 Z" style="stroke-width:2.0;stroke:rgb(255,255,255);stroke-linecap:round;fill:rgb(195,58,55);" />
<text x="268.1" y="1769.2" font-size="36.4px" font-family="CMUBright-Roman" style="text-anchor:end;fill:rgb(0,0,0);" transform="rotate(8.0,268.1,1769.2)" >Social-Work</text>
<path d="M371.539,1789.577 A1642.000,1642.000 40.000 0,1 376.636,1753.316 L339.067,1747.607 A1680.000,1680.000 0.000 0,0 333.852,1784.707 Z" style="stroke-width:2.0;stroke:rgb(255,255,255);stroke-linecap:round;fill:none;" />
<path d="M382.404,1717.961 A1642.000,1642.000 40.000 0,1 388.090,1687.094 L350.786,1679.853 A1680.000,1680.000 0.000 0,0 344.968,1711.434 Z" style="stroke-width:2.0;stroke:rgb(255,255,255);stroke-linecap:round;fill:rgb(215,82,72);" />
<text x="279.0" y="1698.7" font-size="36.4px" font-family="CMUBright-Roman" style="text-anchor:end;fill:rgb(0,0,0);" transform="rotate(10.4,279.0,1698.7)" >Special-Education</text>
<path d="M382.404,1717.961 A1642.000,1642.000 40.000 0,1 388.090,1687.094 L350.786,1679.853 A1680.000,1680.000 0.000 0,0 344.968,1711.434 Z" style="stroke-width:2.0;stroke:rgb(255,255,255);stroke-linecap:round;fill:none;" />
<path d="M395.300,1652.005 A1642.000,1642.000 40.000 0,1 396.416,1646.895 L359.305,1638.723 A1680.000,1680.000 0.000 0,0 358.163,1643.952 Z" style="stroke-width:2.0;stroke:rgb(255,255,255);stroke-linecap:round;fill:rgb(230,112,95);" />
<text x="289.8" y="1642.1" font-size="36.4px" font-family="CMUBright-Roman" style="text-anchor:end;fill:rgb(0,0,0);" transform="rotate(12.3,289.8,1642.1)" >Educational-Leadership</text>
<path d="M395.300,1652.005 A1642.000,1642.000 40.000 0,1 396.416,1646.895 L359.305,1638.723 A1680.000,1680.000 0.000 0,0 358.163,1643.952 Z" style="stroke-width:2.0;stroke:rgb(255,255,255);stroke-linecap:round;fill:none;" />
<path d="M404.501,1611.997 A1642.000,1642.000 40.000 0,1 423.388,1541.244 L386.901,1530.627 A1680.000,1680.000 0.000 0,0 367.577,1603.017 Z" style="stroke-width:2.0;stroke:rgb(255,255,255);stroke-linecap:round;fill:rgb(0,130,142);" />
<text x="308.7" y="1561.5" font-size="36.4px" font-family="CMUBright-Roman" style="text-anchor:end;fill:rgb(0,0,0);" transform="rotate(14.9,308.7,1561.5)" >Communication-Studies</text>
<path d="M404.501,1611.997 A1642.000,1642.000 40.000 0,1 423.388,1541.244 L386.901,1530.627 A1680.000,1680.000 0.000 0,0 367.577,1603.017 Z" style="stroke-width:2.0;stroke:rgb(255,255,255);stroke-linecap:round;fill:none;" />
<path d="M433.770,1506.960 A1642.000,1642.000 40.000 0,1 448.549,1462.261 L412.644,1449.816 A1680.000,1680.000 0.000 0,0 397.524,1495.549 Z" style="stroke-width:2.0;stroke:rgb(255,255,255);stroke-linecap:round;fill:rgb(0,165,172);" />
<text x="337.2" y="1463.4" font-size="36.4px" font-family="CMUBright-Roman" style="text-anchor:end;fill:rgb(0,0,0);" transform="rotate(18.3,337.2,1463.4)" >Journalism-Media</text>
<path d="M433.770,1506.960 A1642.000,1642.000 40.000 0,1 448.549,1462.261 L412.644,1449.816 A1680.000,1680.000 0.000 0,0 397.524,1495.549 Z" style="stroke-width:2.0;stroke:rgb(255,255,255);stroke-linecap:round;fill:none;" />
<path d="M460.649,1428.544 A1642.000,1642.000 40.000 0,1 466.181,1413.858 L430.684,1400.293 A1680.000,1680.000 0.000 0,0 425.024,1415.319 Z" style="stroke-width:2.0;stroke:rgb(255,255,255);stroke-linecap:round;fill:rgb(38,195,195);" />
<text x="359.4" y="1399.1" font-size="36.4px" font-family="CMUBright-Roman" style="text-anchor:end;fill:rgb(0,0,0);" transform="rotate(20.6,359.4,1399.1)" >Creative-Writing</text>
<path d="M460.649,1428.544 A1642.000,1642.000 40.000 0,1 466.181,1413.858 L430.684,1400.293 A1680.000,1680.000 0.000 0,0 425.024,1415.319 Z" style="stroke-width:2.0;stroke:rgb(255,255,255);stroke-linecap:round;fill:none;" />
<path d="M479.332,1380.537 A1642.000,1642.000 40.000 0,1 510.660,1308.603 L476.193,1292.602 A1680.000,1680.000 0.000 0,0 444.140,1366.201 Z" style="stroke-width:2.0;stroke:rgb(255,255,255);stroke-linecap:round;fill:rgb(180,45,112);" />
<text x="391.8" y="1317.1" font-size="36.4px" font-family="CMUBright-Roman" style="text-anchor:end;fill:rgb(0,0,0);" transform="rotate(23.5,391.8,1317.1)" >Arts-Theology</text>
<path d="M479.332,1380.537 A1642.000,1642.000 40.000 0,1 510.660,1308.603 L476.193,1292.602 A1680.000,1680.000 0.000 0,0 444.140,1366.201 Z" style="stroke-width:2.0;stroke:rgb(255,255,255);stroke-linecap:round;fill:none;" />
<path d="M526.097,1276.278 A1642.000,1642.000 40.000 0,1 530.738,1266.901 L496.736,1249.936 A1680.000,1680.000 0.000 0,0 491.987,1259.529 Z" style="stroke-width:2.0;stroke:rgb(255,255,255);stroke-linecap:round;fill:rgb(205,75,142);" />
<text x="427.1" y="1239.3" font-size="36.4px" font-family="CMUBright-Roman" style="text-anchor:end;fill:rgb(0,0,0);" transform="rotate(26.3,427.1,1239.3)" >English-Writing</text>
<path d="M526.097,1276.278 A1642.000,1642.000 40.000 0,1 530.738,1266.901 L496.736,1249.936 A1680.000,1680.000 0.000 0,0 491.987,1259.529 Z" style="stroke-width:2.0;stroke:rgb(255,255,255);stroke-linecap:round;fill:none;" />
<path d="M547.080,1235.024 A1642.000,1642.000 40.000 0,1 549.525,1230.399 L515.957,1212.589 A1680.000,1680.000 0.000 0,0 513.456,1217.321 Z" style="stroke-width:2.0;stroke:rgb(255,255,255);stroke-linecap:round;fill:rgb(225,110,168);" />
<text x="447.9" y="1197.7" font-size="36.4px" font-family="CMUBright-Roman" style="text-anchor:end;fill:rgb(0,0,0);" transform="rotate(27.9,447.9,1197.7)" >Languages</text>
<path d="M547.080,1235.024 A1642.000,1642.000 40.000 0,1 549.525,1230.399 L515.957,1212.589 A1680.000,1680.000 0.000 0,0 513.456,1217.321 Z" style="stroke-width:2.0;stroke:rgb(255,255,255);stroke-linecap:round;fill:none;" />
<path d="M566.659,1198.940 A1642.000,1642.000 40.000 0,1 748.337,937.219 L719.370,912.624 A1680.000,1680.000 0.000 0,0 533.488,1180.402 Z" style="stroke-width:2.0;stroke:rgb(255,255,255);stroke-linecap:round;fill:rgb(88,40,138);" />
<text x="555.7" y="1016.9" font-size="36.4px" font-family="CMUBright-Roman" style="text-anchor:end;fill:rgb(0,0,0);" transform="rotate(34.8,555.7,1016.9)" >Biological-Sciences</text>
<path d="M566.659,1198.940 A1642.000,1642.000 40.000 0,1 748.337,937.219 L719.370,912.624 A1680.000,1680.000 0.000 0,0 533.488,1180.402 Z" style="stroke-width:2.0;stroke:rgb(255,255,255);stroke-linecap:round;fill:none;" />
<path d="M771.819,910.167 A1642.000,1642.000 40.000 0,1 821.633,856.490 L794.362,830.027 A1680.000,1680.000 0.000 0,0 743.396,884.946 Z" style="stroke-width:2.0;stroke:rgb(255,255,255);stroke-linecap:round;fill:rgb(115,65,165);" />
<text x="710.8" y="820.7" font-size="36.4px" font-family="CMUBright-Roman" style="text-anchor:end;fill:rgb(0,0,0);" transform="rotate(42.9,710.8,820.7)" >Health-Wellness</text>
<path d="M771.819,910.167 A1642.000,1642.000 40.000 0,1 821.633,856.490 L794.362,830.027 A1680.000,1680.000 0.000 0,0 743.396,884.946 Z" style="stroke-width:2.0;stroke:rgb(255,255,255);stroke-linecap:round;fill:none;" />
<path d="M846.858,831.057 A1642.000,1642.000 40.000 0,1 873.212,805.633 L847.135,777.993 A1680.000,1680.000 0.000 0,0 820.172,804.004 Z" style="stroke-width:2.0;stroke:rgb(255,255,255);stroke-linecap:round;fill:rgb(140,92,188);" />
<text x="775.8" y="753.4" font-size="36.4px" font-family="CMUBright-Roman" style="text-anchor:end;fill:rgb(0,0,0);" transform="rotate(46.0,775.8,753.4)" >Physical-Sciences</text>
<path d="M846.858,831.057 A1642.000,1642.000 40.000 0,1 873.212,805.633 L847.135,777.993 A1680.000,1680.000 0.000 0,0 820.172,804.004 Z" style="stroke-width:2.0;stroke:rgb(255,255,255);stroke-linecap:round;fill:none;" />
<path d="M899.535,781.337 A1642.000,1642.000 40.000 0,1 903.423,777.837 L878.045,749.553 A1680.000,1680.000 0.000 0,0 874.067,753.134 Z" style="stroke-width:2.0;stroke:rgb(255,255,255);stroke-linecap:round;fill:rgb(165,120,208);" />
<text x="821.8" y="709.8" font-size="36.4px" font-family="CMUBright-Roman" style="text-anchor:end;fill:rgb(0,0,0);" transform="rotate(48.0,821.8,709.8)" >Environmental-Sciences</text>
<path d="M899.535,781.337 A1642.000,1642.000 40.000 0,1 903.423,777.837 L878.045,749.553 A1680.000,1680.000 0.000 0,0 874.067,753.134 Z" style="stroke-width:2.0;stroke:rgb(255,255,255);stroke-linecap:round;fill:none;" />
<path d="M930.345,754.206 A1642.000,1642.000 40.000 0,1 1638.399,398.311 L1630.030,361.244 A1680.000,1680.000 0.000 0,0 905.590,725.375 Z" style="stroke-width:2.0;stroke:rgb(255,255,255);stroke-linecap:round;fill:rgb(22,118,50);" />
<text x="1201.1" y="446.2" font-size="36.4px" font-family="CMUBright-Roman" style="text-anchor:end;fill:rgb(0,0,0);" transform="rotate(63.3,1201.1,446.2)" >Engineering-Disciplines</text>
<path d="M930.345,754.206 A1642.000,1642.000 40.000 0,1 1638.399,398.311 L1630.030,361.244 A1680.000,1680.000 0.000 0,0 905.590,725.375 Z" style="stroke-width:2.0;stroke:rgb(255,255,255);stroke-linecap:round;fill:none;" />
<path d="M1673.425,390.804 A1642.000,1642.000 40.000 0,1 1964.180,358.391 L1963.351,320.400 A1680.000,1680.000 0.000 0,0 1665.867,353.563 Z" style="stroke-width:2.0;stroke:rgb(255,255,255);stroke-linecap:round;fill:rgb(48,158,75);" />
<text x="1791.0" y="265.3" font-size="36.4px" font-family="CMUBright-Roman" style="text-anchor:end;fill:rgb(0,0,0);" transform="rotate(83.6,1791.0,265.3)" >Computer-Science-IT</text>
<path d="M1673.425,390.804 A1642.000,1642.000 40.000 0,1 1964.180,358.391 L1963.351,320.400 A1680.000,1680.000 0.000 0,0 1665.867,353.563 Z" style="stroke-width:2.0;stroke:rgb(255,255,255);stroke-linecap:round;fill:none;" />
</g>
<g id="track_0">
<path d="M 3001.414,3280.500 A 1625.580,1625.580 0.00 0,1 2985.0,3293.2 L 2985.0,3293.2 2939.6,3234.7 2892.2,3176.0 2843.1,3116.8 2792.5,3057.2 2740.5,2997.1 2687.3,2936.5 2633.2,2875.3 2578.2,2813.5 2522.5,2751.0 2466.3,2688.0 2409.7,2624.3 2352.8,2559.9 2295.7,2494.9 2238.6,2429.3 2181.5,2363.1 2124.6,2296.3 2067.9,2228.9 2011.6,2161.1 1955.5,2092.8 1900.0,2024.1 1844.9,1955.1 1790.3,1885.8 1736.3,1816.3 1682.8,1746.7 1630.0,1677.0 1577.7,1607.5 1526.1,1538.1 1475.0,1469.0 1424.6,1400.3 1374.6,1332.2 1325.2,1264.7 1276.2,1198.0 1227.7,1132.3 1179.5,1067.6 1131.6,1004.3 1083.9,942.3 1036.3,881.9 988.7,823.3 941.0,766.7  A 1625.580,1625.580 0.00 0,1 956.8,753.3 L 956.8,753.3 1004.0,810.7 1051.0,870.0 1098.0,931.1 1145.2,993.7 1192.6,1057.7 1240.2,1122.9 1288.3,1189.2 1336.7,1256.3 1385.7,1324.2 1435.2,1392.7 1485.2,1461.7 1535.9,1531.0 1587.2,1600.6 1639.1,1670.4 1691.6,1740.1 1744.8,1809.8 1798.7,1879.3 1853.1,1948.6 1908.1,2017.6 1963.6,2086.2 2019.6,2154.4 2076.0,2222.1 2132.7,2289.3 2189.8,2355.8 2247.0,2421.8 2304.4,2487.1 2361.7,2551.8 2418.9,2615.8 2476.0,2679.2 2532.6,2741.9 2588.8,2804.0 2644.3,2865.4 2699.1,2926.2 2752.9,2986.4 2805.6,3046.1 2857.0,3105.3 2906.9,3164.1 2955.1,3222.4 3001.4,3280.5  Z" style="stroke-width: 0.0;  fill: rgb(22,118,50);" />
<path d="M 2985.015,3293.157 A 1625.580,1625.580 0.00 0,1 2980.9,3296.3 L 2980.9,3296.3 2935.8,3237.9 2888.7,3179.3 2839.8,3120.2 2789.4,3060.8 2737.5,3000.8 2684.4,2940.3 2630.3,2879.3 2575.2,2817.6 2519.4,2755.4 2463.0,2692.6 2406.1,2629.1 2348.9,2565.0 2291.5,2500.3 2233.9,2435.0 2176.4,2369.2 2118.9,2302.7 2061.6,2235.8 2004.5,2168.4 1947.7,2100.6 1891.3,2032.5 1835.4,1964.0 1779.9,1895.3 1724.9,1826.5 1670.4,1757.6 1616.5,1688.7 1563.2,1619.9 1510.4,1551.4 1458.2,1483.1 1406.5,1415.4 1355.4,1348.2 1304.7,1281.7 1254.5,1216.1 1204.7,1151.5 1155.2,1088.0 1106.0,1025.8 1057.0,965.1 1008.2,906.0 959.4,848.8 910.5,793.5  A 1625.580,1625.580 0.00 0,1 914.4,790.1 L 914.4,790.1 963.1,845.5 1011.8,902.9 1060.5,962.2 1109.3,1023.1 1158.4,1085.4 1207.7,1149.0 1257.4,1213.8 1307.5,1279.5 1358.1,1346.1 1409.1,1413.4 1460.7,1481.2 1512.8,1549.5 1565.5,1618.1 1618.8,1687.0 1672.6,1755.9 1727.0,1824.8 1782.0,1893.7 1837.4,1962.4 1893.4,2030.8 1949.7,2099.0 2006.5,2166.8 2063.6,2234.1 2120.9,2301.0 2178.4,2367.3 2236.0,2433.1 2293.7,2498.4 2351.2,2563.0 2408.5,2627.0 2465.5,2690.4 2522.0,2753.1 2577.9,2815.3 2633.1,2876.8 2687.4,2937.7 2740.6,2998.1 2792.7,3058.0 2843.3,3117.4 2892.4,3176.3 2939.7,3234.9 2985.0,3293.2  Z" style="stroke-width: 0.0;  fill: rgb(165,120,208);" />
<path d="M 2980.891,3296.289 A 1625.580,1625.580 0.00 0,1 2964.3,3308.7 L 2964.3,3308.7 2920.2,3250.3 2874.1,3191.5 2826.1,3132.4 2776.4,3072.8 2725.2,3012.8 2672.6,2952.3 2618.8,2891.3 2564.1,2829.7 2508.4,2767.5 2452.1,2704.8 2395.1,2641.5 2337.7,2577.6 2279.9,2513.2 2221.9,2448.3 2163.8,2382.8 2105.6,2316.9 2047.5,2250.5 1989.5,2183.7 1931.7,2116.6 1874.1,2049.2 1816.9,1981.6 1760.0,1913.9 1703.6,1846.1 1647.5,1778.3 1592.0,1710.6 1536.9,1643.2 1482.3,1576.0 1428.3,1509.3 1374.7,1443.2 1321.5,1377.7 1268.8,1313.0 1216.6,1249.3 1164.7,1186.6 1113.2,1125.3 1061.9,1065.3 1010.9,1006.8 960.0,950.2 909.2,895.4 858.4,842.7  A 1625.580,1625.580 0.00 0,1 873.2,828.3 L 873.2,828.3 923.6,881.8 973.9,937.3 1024.3,994.7 1074.8,1053.8 1125.6,1114.4 1176.6,1176.4 1228.0,1239.6 1279.8,1303.8 1332.1,1369.0 1384.8,1434.8 1438.0,1501.4 1491.8,1568.4 1546.0,1635.8 1600.8,1703.5 1656.1,1771.3 1711.9,1839.2 1768.2,1907.1 1824.9,1974.9 1882.1,2042.5 1939.6,2109.8 1997.4,2176.8 2055.5,2243.5 2113.7,2309.7 2172.1,2375.5 2230.4,2440.7 2288.7,2505.4 2346.7,2569.5 2404.5,2633.1 2461.9,2696.1 2518.7,2758.5 2574.9,2820.3 2630.2,2881.5 2684.5,2942.1 2737.8,3002.3 2789.7,3061.9 2840.2,3121.1 2889.0,3179.8 2936.0,3238.2 2980.9,3296.3  Z" style="stroke-width: 0.0;  fill: rgb(140,92,188);" />
<path d="M 2964.292,3308.683 A 1625.580,1625.580 0.00 0,1 2900.7,3353.3 L 2900.7,3353.3 2861.1,3295.7 2819.0,3237.9 2774.5,3179.9 2727.7,3121.6 2678.9,3063.0 2628.1,3004.2 2575.6,2945.1 2521.4,2885.7 2465.7,2826.1 2408.7,2766.3 2350.3,2706.3 2290.9,2646.2 2230.4,2585.9 2169.1,2525.5 2107.0,2465.1 2044.1,2404.7 1980.7,2344.4 1916.9,2284.2 1852.6,2224.1 1788.0,2164.4 1723.1,2104.9 1658.1,2045.9 1593.1,1987.4 1528.0,1929.4 1462.9,1872.2 1398.0,1815.7 1333.2,1760.1 1268.6,1705.5 1204.3,1652.0 1140.2,1599.7 1076.5,1548.8 1013.1,1499.4 950.2,1451.6 887.6,1405.6 825.4,1361.4 763.6,1319.3 702.3,1279.4 641.4,1241.9 581.0,1207.0  A 1625.580,1625.580 0.00 0,1 620.5,1140.1 L 620.5,1140.1 680.1,1178.4 740.0,1219.1 800.3,1262.0 861.0,1307.1 922.2,1354.0 983.8,1402.7 1045.8,1453.0 1108.2,1504.8 1171.0,1557.9 1234.2,1612.2 1297.8,1667.6 1361.7,1723.8 1425.9,1780.9 1490.3,1838.8 1555.0,1897.2 1619.8,1956.1 1684.8,2015.5 1749.8,2075.1 1814.8,2135.0 1879.7,2195.1 1944.5,2255.2 2009.0,2315.4 2073.2,2375.6 2137.0,2435.7 2200.3,2495.6 2262.9,2555.4 2324.8,2615.0 2385.9,2674.3 2446.0,2733.4 2505.0,2792.2 2562.8,2850.7 2619.3,2908.9 2674.3,2966.9 2727.6,3024.5 2779.2,3081.8 2828.8,3138.9 2876.3,3195.7 2921.5,3252.3 2964.3,3308.7  Z" style="stroke-width: 0.0;  fill: rgb(88,40,138);" />
<path d="M 2900.677,3353.252 A 1625.580,1625.580 0.00 0,1 2879.0,3367.4 L 2879.0,3367.4 2841.0,3310.5 2800.4,3253.3 2757.2,3196.0 2711.5,3138.6 2663.6,3081.0 2613.6,3023.3 2561.6,2965.4 2507.7,2907.5 2452.1,2849.5 2394.9,2791.5 2336.2,2733.5 2276.2,2675.6 2214.9,2617.7 2152.5,2560.0 2089.1,2502.5 2024.8,2445.3 1959.7,2388.4 1893.9,2331.8 1827.5,2275.7 1760.6,2220.1 1693.3,2165.1 1625.6,2110.8 1557.7,2057.3 1489.6,2004.6 1421.5,1952.8 1353.3,1902.0 1285.2,1852.4 1217.3,1804.0 1149.5,1757.0 1082.0,1711.4 1014.8,1667.4 948.0,1625.0 881.6,1584.5 815.6,1545.9 750.2,1509.4 685.4,1475.1 621.1,1443.1 557.5,1413.6 494.5,1386.7  A 1625.580,1625.580 0.00 0,1 504.5,1362.8 L 504.5,1362.8 567.3,1390.8 630.8,1421.4 694.9,1454.4 759.5,1489.8 824.7,1527.3 890.5,1566.8 956.7,1608.2 1023.4,1651.4 1090.4,1696.2 1157.8,1742.5 1225.4,1790.3 1293.3,1839.3 1361.3,1889.5 1429.4,1940.8 1497.6,1993.0 1565.7,2046.1 1633.7,2100.0 1701.4,2154.7 1768.9,2209.9 1836.1,2265.6 1902.7,2321.9 1968.8,2378.5 2034.3,2435.4 2099.0,2492.6 2162.9,2550.0 2225.8,2607.6 2287.6,2665.3 2348.2,2723.0 2407.6,2780.7 2465.5,2838.5 2521.8,2896.1 2576.5,2953.7 2629.4,3011.2 2680.3,3068.6 2729.1,3125.8 2775.7,3182.9 2820.0,3239.9 2861.7,3296.6 2900.7,3353.3  Z" style="stroke-width: 0.0;  fill: rgb(180,45,112);" />
<path d="M 2879.007,3367.427 A 1625.580,1625.580 0.00 0,1 2870.3,3373.0 L 2870.3,3373.0 2832.9,3316.1 2792.7,3259.1 2750.0,3201.9 2704.8,3144.6 2657.2,3087.2 2607.6,3029.7 2555.8,2972.1 2502.2,2914.5 2446.8,2856.8 2389.7,2799.2 2331.1,2741.7 2271.1,2684.3 2209.8,2627.0 2147.3,2570.0 2083.8,2513.2 2019.2,2456.7 1953.9,2400.6 1887.8,2345.0 1821.0,2289.9 1753.7,2235.4 1685.9,2181.5 1617.7,2128.4 1549.3,2076.1 1480.6,2024.8 1411.9,1974.4 1343.1,1925.2 1274.3,1877.1 1205.7,1830.4 1137.2,1785.0 1069.0,1741.2 1001.1,1698.9 933.6,1658.5 866.5,1619.8 799.9,1583.2 733.9,1548.7 668.4,1516.4 603.6,1486.4 539.4,1459.0 476.0,1434.3  A 1625.580,1625.580 0.00 0,1 479.7,1424.6 L 479.7,1424.6 543.0,1449.8 607.1,1477.6 671.9,1508.0 737.3,1540.7 803.3,1575.6 869.8,1612.6 936.8,1651.6 1004.3,1692.4 1072.2,1735.0 1140.3,1779.1 1208.8,1824.8 1277.4,1871.8 1346.1,1920.1 1414.9,1969.6 1483.7,2020.1 1552.4,2071.6 1620.8,2124.1 1689.1,2177.3 1756.9,2231.2 1824.4,2285.8 1891.2,2341.0 1957.5,2396.7 2023.0,2452.8 2087.7,2509.2 2151.4,2566.0 2214.1,2623.0 2275.7,2680.2 2335.9,2737.5 2394.8,2795.0 2452.2,2852.5 2507.9,2910.0 2561.9,2967.5 2613.9,3024.9 2664.0,3082.3 2711.9,3139.6 2757.4,3196.8 2800.6,3253.8 2841.2,3310.7 2879.0,3367.4  Z" style="stroke-width: 0.0;  fill: rgb(38,195,195);" />
<path d="M 2870.276,3373.000 A 1625.580,1625.580 0.00 0,1 2865.9,3375.8 L 2865.9,3375.8 2829.8,3320.8 2790.8,3265.8 2749.0,3210.9 2704.5,3156.1 2657.6,3101.5 2608.2,3047.1 2556.6,2993.1 2502.8,2939.3 2446.9,2886.0 2389.2,2833.1 2329.6,2780.7 2268.4,2728.8 2205.6,2677.6 2141.3,2627.0 2075.8,2577.2 2009.0,2528.3 1941.1,2480.1 1872.2,2433.0 1802.4,2386.8 1731.9,2341.7 1660.7,2297.8 1589.0,2255.1 1516.8,2213.6 1444.3,2173.6 1371.6,2135.0 1298.7,2097.9 1225.9,2062.4 1153.1,2028.6 1080.5,1996.5 1008.3,1966.3 936.4,1938.0 865.0,1911.8 794.3,1887.6 724.2,1865.6 654.9,1845.9 586.6,1828.6 519.2,1813.7 452.9,1801.4 387.8,1791.7  A 1625.580,1625.580 0.00 0,1 388.5,1786.5 L 388.5,1786.5 453.6,1796.4 519.9,1809.0 587.3,1824.1 655.7,1841.6 725.0,1861.5 795.1,1883.7 865.9,1908.1 937.2,1934.5 1009.1,1963.0 1081.4,1993.3 1154.0,2025.5 1226.8,2059.5 1299.7,2095.1 1372.6,2132.3 1445.4,2171.0 1517.9,2211.2 1590.2,2252.7 1662.0,2295.5 1733.2,2339.5 1803.8,2384.7 1873.7,2430.9 1942.7,2478.1 2010.7,2526.2 2077.6,2575.2 2143.3,2625.0 2207.7,2675.5 2270.6,2726.7 2332.0,2778.5 2391.7,2830.9 2449.6,2883.8 2505.6,2937.1 2559.6,2990.8 2611.4,3044.8 2661.0,3099.1 2708.1,3153.6 2752.7,3208.3 2794.7,3263.1 2834.0,3318.0 2870.3,3373.0  Z" style="stroke-width: 0.0;  fill: rgb(195,58,55);" />
<path d="M 2865.898,3375.766 A 1625.580,1625.580 0.00 0,1 2857.1,3381.3 L 2857.1,3381.3 2822.1,3327.3 2784.1,3273.5 2743.3,3220.0 2699.8,3166.8 2653.7,3114.0 2605.1,3061.6 2554.2,3009.8 2500.9,2958.6 2445.6,2908.0 2388.2,2858.2 2328.8,2809.3 2267.8,2761.2 2205.0,2714.1 2140.6,2668.0 2074.9,2622.9 2007.8,2579.1 1939.5,2536.5 1870.1,2495.2 1799.7,2455.2 1728.5,2416.7 1656.6,2379.6 1584.0,2344.2 1511.0,2310.3 1437.6,2278.1 1363.9,2247.7 1290.1,2219.0 1216.3,2192.3 1142.7,2167.4 1069.2,2144.6 996.1,2123.8 923.5,2105.1 851.6,2088.5 780.3,2074.2 709.9,2062.2 640.4,2052.5 572.1,2045.1 504.9,2040.3 439.2,2037.9 374.9,2038.1  A 1625.580,1625.580 0.00 0,1 374.7,2027.8 L 374.7,2027.8 439.1,2028.0 505.0,2030.7 572.2,2036.0 640.7,2043.7 710.2,2053.8 780.7,2066.2 852.1,2080.9 924.2,2097.8 996.9,2116.9 1070.1,2138.0 1143.7,2161.2 1217.5,2186.3 1291.4,2213.4 1365.3,2242.3 1439.1,2272.9 1512.7,2305.3 1585.9,2339.4 1658.7,2375.0 1730.8,2412.2 1802.2,2450.8 1872.8,2490.9 1942.4,2532.3 2011.0,2574.9 2078.4,2618.8 2144.4,2663.8 2209.0,2709.9 2272.1,2757.0 2333.5,2805.0 2393.2,2853.9 2450.9,2903.6 2506.6,2954.1 2560.2,3005.2 2611.6,3056.9 2660.5,3109.1 2707.0,3161.8 2750.9,3214.9 2792.1,3268.3 2830.5,3322.0 2865.9,3375.8  Z" style="stroke-width: 0.0;  fill: rgb(235,168,78);" />
<path d="M 2857.114,3381.255 A 1625.580,1625.580 0.00 0,1 2848.3,3386.7 L 2848.3,3386.7 2813.9,3333.0 2776.6,3279.5 2736.4,3226.4 2693.5,3173.6 2647.9,3121.2 2599.9,3069.4 2549.5,3018.3 2496.8,2967.8 2441.9,2918.1 2384.9,2869.3 2326.1,2821.4 2265.4,2774.5 2202.9,2728.7 2138.9,2684.0 2073.5,2640.6 2006.7,2598.5 1938.6,2557.7 1869.4,2518.4 1799.3,2480.5 1728.2,2444.2 1656.5,2409.6 1584.0,2376.6 1511.1,2345.3 1437.8,2315.9 1364.3,2288.3 1290.6,2262.6 1216.9,2238.9 1143.4,2217.1 1070.1,2197.5 997.1,2180.0 924.7,2164.6 852.9,2151.5 781.9,2140.6 711.8,2132.0 642.7,2125.8 574.7,2122.0 508.1,2120.6 442.9,2121.7 379.3,2125.2  A 1625.580,1625.580 0.00 0,1 378.5,2114.9 L 378.5,2114.9 442.3,2111.7 507.6,2111.0 574.4,2112.8 642.4,2117.1 711.7,2123.7 781.9,2132.6 853.0,2143.9 925.0,2157.4 997.5,2173.1 1070.6,2190.9 1144.0,2210.9 1217.8,2232.9 1291.6,2256.9 1365.4,2282.8 1439.2,2310.7 1512.7,2340.3 1585.8,2371.8 1658.4,2404.9 1730.4,2439.8 1801.7,2476.2 1872.1,2514.1 1941.5,2553.5 2009.8,2594.3 2076.9,2636.5 2142.7,2679.9 2207.0,2724.6 2269.7,2770.3 2330.7,2817.2 2389.9,2865.0 2447.2,2913.7 2502.5,2963.3 2555.6,3013.7 2606.4,3064.7 2654.8,3116.4 2700.7,3168.6 2744.0,3221.3 2784.6,3274.4 2822.3,3327.7 2857.1,3381.3  Z" style="stroke-width: 0.0;  fill: rgb(220,140,52);" />
<path d="M 2848.296,3386.688 A 1625.580,1625.580 0.00 0,1 2830.6,3397.4 L 2830.6,3397.4 2797.4,3344.2 2761.3,3291.3 2722.3,3238.8 2680.6,3186.8 2636.3,3135.4 2589.5,3084.7 2540.2,3034.7 2488.7,2985.7 2434.9,2937.7 2379.1,2890.7 2321.3,2844.9 2261.6,2800.4 2200.2,2757.2 2137.1,2715.4 2072.6,2675.0 2006.6,2636.2 1939.4,2599.1 1871.1,2563.6 1801.7,2529.9 1731.4,2497.9 1660.4,2467.9 1588.7,2439.8 1516.5,2413.6 1443.9,2389.5 1371.0,2367.4 1298.1,2347.4 1225.1,2329.6 1152.3,2314.0 1079.8,2300.5 1007.7,2289.4 936.1,2280.5 865.3,2273.9 795.3,2269.7 726.3,2267.8 658.4,2268.2 591.8,2271.0 526.7,2276.2 463.1,2283.9 401.2,2293.9  A 1625.580,1625.580 0.00 0,1 397.6,2273.5 L 397.6,2273.5 459.8,2264.2 523.7,2257.4 589.2,2252.9 656.2,2250.8 724.4,2251.1 793.7,2253.8 864.0,2258.8 935.2,2266.1 1007.1,2275.6 1079.6,2287.4 1152.5,2301.5 1225.7,2317.7 1299.0,2336.0 1372.4,2356.5 1445.7,2379.1 1518.7,2403.6 1591.4,2430.2 1663.6,2458.6 1735.2,2489.0 1806.0,2521.2 1875.9,2555.1 1944.8,2590.7 2012.6,2628.0 2079.2,2666.8 2144.4,2707.2 2208.1,2749.0 2270.2,2792.2 2330.6,2836.6 2389.1,2882.3 2445.7,2929.1 2500.2,2976.9 2552.5,3025.7 2602.5,3075.4 2650.1,3125.9 2695.2,3177.1 2737.7,3228.8 2777.4,3281.1 2814.3,3333.7 2848.3,3386.7  Z" style="stroke-width: 0.0;  fill: rgb(200,108,30);" />
<path d="M 2830.557,3397.385 A 1625.580,1625.580 0.00 0,1 2817.2,3405.3 L 2817.2,3405.3 2785.3,3353.2 2750.7,3301.6 2713.2,3250.6 2673.1,3200.3 2630.4,3150.8 2585.3,3102.4 2537.7,3055.0 2487.9,3008.9 2436.0,2964.1 2382.0,2920.8 2326.0,2879.1 2268.3,2839.0 2208.8,2800.6 2147.7,2764.1 2085.1,2729.5 2021.2,2696.9 1956.0,2666.3 1889.7,2637.9 1822.5,2611.6 1754.3,2587.6 1685.5,2565.8 1616.0,2546.4 1546.1,2529.2 1475.9,2514.5 1405.4,2502.2 1335.0,2492.3 1264.6,2484.8 1194.4,2479.7 1124.7,2477.1 1055.5,2477.0 986.9,2479.2 919.2,2483.8 852.5,2490.9 786.9,2500.3 722.6,2512.0 659.8,2526.0 598.7,2542.2 539.3,2560.6 481.8,2581.1  A 1625.580,1625.580 0.00 0,1 476.4,2566.6 L 476.4,2566.6 534.1,2546.5 593.9,2528.6 655.4,2512.9 718.5,2499.5 783.2,2488.3 849.1,2479.4 916.2,2472.9 984.3,2468.7 1053.2,2467.0 1122.8,2467.6 1192.9,2470.7 1263.5,2476.1 1334.3,2484.0 1405.2,2494.3 1476.1,2506.9 1546.7,2522.0 1617.1,2539.3 1687.0,2559.0 1756.4,2581.0 1825.0,2605.2 1892.8,2631.6 1959.6,2660.2 2025.3,2690.8 2089.7,2723.5 2152.9,2758.1 2214.5,2794.6 2274.6,2832.9 2332.9,2872.9 2389.4,2914.6 2444.0,2957.8 2496.6,3002.4 2547.0,3048.4 2595.1,3095.6 2640.9,3143.9 2684.1,3193.1 2724.9,3243.2 2762.9,3294.1 2798.2,3345.5 2830.6,3397.4  Z" style="stroke-width: 0.0;  fill: rgb(82,145,215);" />
<path d="M 2817.163,3405.260 A 1625.580,1625.580 0.00 0,1 2812.7,3407.9 L 2812.7,3407.9 2781.9,3357.2 2748.5,3307.1 2712.4,3257.8 2673.8,3209.4 2632.9,3162.2 2589.6,3116.3 2544.1,3071.9 2496.5,3029.0 2446.9,2987.9 2395.4,2948.6 2342.2,2911.4 2287.2,2876.2 2230.7,2843.2 2172.8,2812.5 2113.5,2784.2 2053.0,2758.3 1991.4,2734.9 1928.8,2714.1 1865.4,2696.0 1801.3,2680.4 1736.6,2667.6 1671.5,2657.5 1606.0,2650.1 1540.4,2645.4 1474.7,2643.5 1409.1,2644.3 1343.8,2647.8 1278.8,2653.9 1214.4,2662.7 1150.7,2674.0 1087.8,2687.9 1025.8,2704.3 965.1,2723.0 905.6,2744.0 847.6,2767.2 791.2,2792.6 736.6,2819.9 683.9,2849.2 633.3,2880.2  A 1625.580,1625.580 0.00 0,1 630.5,2875.8 L 630.5,2875.8 681.2,2845.0 734.0,2815.9 788.8,2788.7 845.4,2763.5 903.5,2740.4 963.2,2719.5 1024.1,2700.9 1086.2,2684.7 1149.2,2671.0 1213.2,2659.8 1277.7,2651.1 1342.9,2645.1 1408.4,2641.7 1474.2,2641.0 1540.0,2643.1 1605.8,2647.8 1671.5,2655.3 1736.8,2665.5 1801.7,2678.4 1866.0,2693.9 1929.6,2712.2 1992.4,2733.0 2054.2,2756.4 2114.9,2782.3 2174.4,2810.6 2232.5,2841.3 2289.3,2874.2 2344.4,2909.4 2397.9,2946.6 2449.6,2985.8 2499.4,3026.9 2547.2,3069.7 2592.9,3114.1 2636.4,3159.9 2677.5,3207.1 2716.3,3255.3 2752.6,3304.6 2786.2,3354.6 2817.2,3405.3  Z" style="stroke-width: 0.0;  fill: rgb(60,120,198);" />
<path d="M 2812.682,3407.856 A 1625.580,1625.580 0.00 0,1 2808.2,3410.4 L 2808.2,3410.4 2778.5,3361.0 2746.4,3312.4 2712.0,3264.7 2675.3,3218.3 2636.6,3173.2 2595.8,3129.7 2553.1,3088.0 2508.6,3048.2 2462.4,3010.6 2414.6,2975.2 2365.3,2942.2 2314.6,2911.8 2262.7,2883.9 2209.6,2858.8 2155.4,2836.5 2100.3,2817.1 2044.4,2800.7 1987.8,2787.2 1930.6,2776.9 1873.0,2769.5 1815.1,2765.3 1756.9,2764.2 1698.7,2766.1 1640.5,2771.2 1582.5,2779.2 1524.8,2790.2 1467.5,2804.2 1410.8,2821.1 1354.9,2840.7 1299.7,2863.0 1245.6,2887.9 1192.6,2915.3 1140.8,2945.0 1090.5,2976.9 1041.7,3010.8 994.6,3046.7 949.3,3084.2 906.1,3123.3 865.0,3163.7  A 1625.580,1625.580 0.00 0,1 861.3,3160.1 L 861.3,3160.1 902.5,3119.8 946.0,3080.8 991.4,3043.4 1038.6,3007.7 1087.6,2973.8 1138.2,2942.0 1190.1,2912.4 1243.3,2885.2 1297.7,2860.4 1353.0,2838.2 1409.2,2818.6 1466.1,2801.9 1523.5,2788.0 1581.5,2777.1 1639.7,2769.1 1698.1,2764.1 1756.6,2762.2 1815.0,2763.4 1873.1,2767.7 1931.0,2775.0 1988.4,2785.4 2045.2,2798.9 2101.4,2815.3 2156.7,2834.7 2211.1,2857.0 2264.4,2882.1 2316.6,2909.9 2367.5,2940.3 2417.0,2973.3 2465.1,3008.6 2511.5,3046.2 2556.2,3085.9 2599.1,3127.5 2640.1,3170.9 2679.0,3215.9 2715.9,3262.3 2750.5,3309.9 2782.8,3358.5 2812.7,3407.9  Z" style="stroke-width: 0.0;  fill: rgb(42,98,180);" />
<path d="M 2808.193,3410.438 A 1625.580,1625.580 0.00 0,1 2803.7,3413.0 L 2803.7,3413.0 2775.1,3364.9 2744.6,3317.7 2712.3,3271.6 2678.2,3226.9 2642.5,3183.8 2605.2,3142.6 2566.5,3103.4 2526.6,3066.6 2485.4,3032.2 2443.1,3000.4 2399.9,2971.4 2355.7,2945.3 2310.8,2922.3 2265.3,2902.4 2219.1,2885.8 2172.6,2872.5 2125.6,2862.6 2078.5,2856.1 2031.2,2853.0 1983.9,2853.4 1936.7,2857.3 1889.7,2864.7 1842.9,2875.4 1796.6,2889.5 1750.8,2907.0 1705.6,2927.7 1661.1,2951.5 1617.4,2978.3 1574.7,3008.1 1533.0,3040.6 1492.4,3075.7 1453.1,3113.3 1415.2,3153.1 1378.6,3195.0 1343.7,3238.7 1310.4,3284.0 1278.8,3330.7 1249.2,3378.5 1221.5,3427.0  A 1625.580,1625.580 0.00 0,1 1217.0,3424.6 L 1217.0,3424.6 1244.8,3376.0 1274.7,3328.3 1306.4,3281.7 1339.9,3236.5 1375.1,3192.9 1411.8,3151.0 1450.0,3111.3 1489.5,3073.8 1530.3,3038.7 1572.3,3006.3 1615.2,2976.6 1659.2,2949.8 1703.9,2926.0 1749.4,2905.4 1795.4,2888.0 1842.0,2873.8 1889.0,2863.1 1936.3,2855.8 1983.8,2851.9 2031.3,2851.5 2078.9,2854.5 2126.3,2861.0 2173.5,2870.9 2220.3,2884.2 2266.7,2900.8 2312.5,2920.6 2357.6,2943.6 2402.0,2969.6 2445.5,2998.5 2488.0,3030.2 2529.4,3064.6 2569.6,3101.4 2608.5,3140.4 2646.0,3181.6 2681.9,3224.6 2716.2,3269.2 2748.8,3315.3 2779.5,3362.4 2808.2,3410.4  Z" style="stroke-width: 0.0;  fill: rgb(28,75,160);" />
<path d="M 2803.696,3413.005 A 1625.580,1625.580 0.00 0,1 2776.5,3428.1 L 2776.5,3428.1 2750.7,3381.4 2724.2,3335.4 2697.2,3290.5 2670.0,3246.9 2642.6,3204.9 2615.1,3164.9 2587.8,3127.0 2560.7,3091.7 2533.9,3058.9 2507.6,3029.0 2481.8,3002.2 2456.7,2978.6 2432.3,2958.3 2408.8,2941.5 2386.2,2928.3 2364.6,2918.7 2344.0,2912.9 2324.6,2910.9 2306.3,2912.6 2289.2,2918.2 2273.4,2927.5 2258.9,2940.6 2245.7,2957.4 2233.8,2977.9 2223.3,3001.9 2214.2,3029.3 2206.4,3060.0 2200.0,3093.9 2194.9,3130.7 2191.2,3170.4 2188.8,3212.6 2187.7,3257.2 2187.9,3303.9 2189.2,3352.4 2191.7,3402.4 2195.3,3453.7 2200.0,3505.9 2205.6,3558.7 2212.2,3611.7  A 1625.580,1625.580 0.00 0,1 2181.3,3615.4 L 2181.3,3615.4 2175.8,3562.3 2171.3,3509.3 2167.9,3456.8 2165.5,3405.3 2164.3,3355.0 2164.4,3306.2 2165.7,3259.2 2168.3,3214.3 2172.2,3171.7 2177.5,3131.7 2184.2,3094.5 2192.3,3060.2 2201.7,3029.1 2212.6,3001.2 2224.8,2976.7 2238.4,2955.8 2253.3,2938.5 2269.6,2924.8 2287.2,2914.9 2306.0,2908.8 2326.0,2906.5 2347.2,2907.9 2369.5,2913.1 2392.8,2922.1 2417.1,2934.7 2442.2,2950.8 2468.2,2970.5 2494.9,2993.4 2522.2,3019.6 2550.0,3048.9 2578.2,3081.0 2606.8,3115.7 2635.5,3152.9 2664.2,3192.4 2692.9,3233.8 2721.3,3276.8 2749.3,3321.3 2776.9,3366.8 2803.7,3413.0  Z" style="stroke-width: 0.0;  fill: rgb(15,52,135);" />
</g>
<defs>
<pattern id="hline-sparse" width="10" height="10" patternTransform="rotate(0 0 0)" patternUnits="userSpaceOnUse"><line x1="0" y1="0" x2="10" y2="0" style="stroke:black;stroke-width:2" /></pattern>
<pattern id="hline" width="10" height="10" patternTransform="rotate(0 0 0)" patternUnits="userSpaceOnUse"><line x1="0" y1="0" x2="10" y2="0" style="stroke:black;stroke-width:5" /></pattern>
<pattern id="checker" width="10" height="10" patternTransform="rotate(45 0 0)" patternUnits="userSpaceOnUse"><line x1="0" y1="0" x2="10" y2="0" style="stroke:black;stroke-width:5" /><line x1="0" y1="0" x2="0" y2="10" style="stroke:black;stroke-width:4" /></pattern>
<pattern id="vline" width="10" height="10" patternTransform="rotate(0 0 0)" patternUnits="userSpaceOnUse"><line x1="0" y1="0" x2="0" y2="10" style="stroke:black;stroke-width:5" /></pattern>
<pattern id="checker" width="10" height="10" patternTransform="rotate(45 0 0)" patternUnits="userSpaceOnUse"><line x1="0" y1="0" x2="10" y2="0" style="stroke:black;stroke-width:2" /><line x1="0" y1="0" x2="0" y2="10" style="stroke:black;stroke-width:2" /></pattern>
<pattern id="vline-sparse" width="10" height="10" patternTransform="rotate(0 0 0)" patternUnits="userSpaceOnUse"><line x1="0" y1="0" x2="0" y2="10" style="stroke:black;stroke-width:2" /></pattern>
</defs>
</svg>
