<?xml version="1.0" encoding="utf-8" standalone="no"?>
<!DOCTYPE svg PUBLIC "-//W3C//DTD SVG 1.1//EN" "http://www.w3.org/Graphics/SVG/1.1/DTD/svg11.dtd">
<svg width="4000px" height="4000px" version="1.1" xmlns="http://www.w3.org/2000/svg" xmlns:xlink="http://www.w3.org/1999/xlink">
<g id="bg">
<rect x="0" y="0" width="4000px" height="4000px" style="fill:rgb(255,255,255);"/>
</g>
<g id="ideograms">
<path d="M2000.000,358.000 A1642.000,1642.000 40.000 0,1 2751.610,540.121 L2769.004,506.336 A1680.000,1680.000 0.000 0,0 2000.000,320.000 Z" style="stroke-width:2.0;stroke:rgb(255,255,255);stroke-linecap:round;fill:rgb(185,185,185);" />
<text x="2427.0" y="305.8" font-size="36.4px" font-family="CMUBright-Roman" style="text-anchor:start;fill:rgb(0,0,0);" transform="rotate(283.6,2427.0,305.8)" >Management-Operations</text>
<path d="M2000.000,358.000 A1642.000,1642.000 40.000 0,1 2751.610,540.121 L2769.004,506.336 A1680.000,1680.000 0.000 0,0 2000.000,320.000 Z" style="stroke-width:2.0;stroke:rgb(255,255,255);stroke-linecap:round;fill:none;" />
<path d="M2783.279,556.865 A1642.000,1642.000 40.000 0,1 3226.411,908.176 L3254.793,882.908 A1680.000,1680.000 0.000 0,0 2801.406,523.467 Z" style="stroke-width:2.0;stroke:rgb(255,255,255);stroke-linecap:round;fill:rgb(185,185,185);" />
<text x="3097.5" y="640.5" font-size="36.4px" font-family="CMUBright-Roman" style="text-anchor:start;fill:rgb(0,0,0);" transform="rotate(308.4,3097.5,640.5)" >Engineering</text>
<path d="M2783.279,556.865 A1642.000,1642.000 40.000 0,1 3226.411,908.176 L3254.793,882.908 A1680.000,1680.000 0.000 0,0 2801.406,523.467 Z" style="stroke-width:2.0;stroke:rgb(255,255,255);stroke-linecap:round;fill:none;" />
<path d="M3249.937,935.189 A1642.000,1642.000 40.000 0,1 3507.538,1349.236 L3542.426,1334.176 A1680.000,1680.000 0.000 0,0 3278.864,910.547 Z" style="stroke-width:2.0;stroke:rgb(255,255,255);stroke-linecap:round;fill:rgb(185,185,185);" />
<text x="3491.6" y="1090.2" font-size="36.4px" font-family="CMUBright-Roman" style="text-anchor:start;fill:rgb(0,0,0);" transform="rotate(328.1,3491.6,1090.2)" >Leadership-General</text>
<path d="M3249.937,935.189 A1642.000,1642.000 40.000 0,1 3507.538,1349.236 L3542.426,1334.176 A1680.000,1680.000 0.000 0,0 3278.864,910.547 Z" style="stroke-width:2.0;stroke:rgb(255,255,255);stroke-linecap:round;fill:none;" />
<path d="M3521.375,1382.278 A1642.000,1642.000 40.000 0,1 3633.192,1830.154 L3670.988,1826.223 A1680.000,1680.000 0.000 0,0 3556.584,1367.982 Z" style="stroke-width:2.0;stroke:rgb(255,255,255);stroke-linecap:round;fill:rgb(185,185,185);" />
<text x="3699.0" y="1592.3" font-size="36.4px" font-family="CMUBright-Roman" style="text-anchor:start;fill:rgb(0,0,0);" transform="rotate(346.0,3699.0,1592.3)" >Sales-Marketing</text>
<path d="M3521.375,1382.278 A1642.000,1642.000 40.000 0,1 3633.192,1830.154 L3670.988,1826.223 A1680.000,1680.000 0.000 0,0 3556.584,1367.982 Z" style="stroke-width:2.0;stroke:rgb(255,255,255);stroke-linecap:round;fill:none;" />
<path d="M3636.509,1865.822 A1642.000,1642.000 40.000 0,1 3610.774,2318.704 L3648.051,2326.079 A1680.000,1680.000 0.000 0,0 3674.381,1862.717 Z" style="stroke-width:2.0;stroke:rgb(255,255,255);stroke-linecap:round;fill:rgb(185,185,185);" />
<text x="3743.6" y="2111.6" font-size="36.4px" font-family="CMUBright-Roman" style="text-anchor:start;fill:rgb(0,0,0);" transform="rotate(3.3,3743.6,2111.6)" >Finance-Investment</text>
<path d="M3636.509,1865.822 A1642.000,1642.000 40.000 0,1 3610.774,2318.704 L3648.051,2326.079 A1680.000,1680.000 0.000 0,0 3674.381,1862.717 Z" style="stroke-width:2.0;stroke:rgb(255,255,255);stroke-linecap:round;fill:none;" />
<path d="M3603.438,2353.767 A1642.000,1642.000 40.000 0,1 3499.856,2668.278 L3534.566,2683.744 A1680.000,1680.000 0.000 0,0 3640.546,2361.954 Z" style="stroke-width:2.0;stroke:rgb(255,255,255);stroke-linecap:round;fill:rgb(185,185,185);" />
<text x="3655.6" y="2558.4" font-size="36.4px" font-family="CMUBright-Roman" style="text-anchor:start;fill:rgb(0,0,0);" transform="rotate(18.2,3655.6,2558.4)" >Software-Data</text>
<path d="M3603.438,2353.767 A1642.000,1642.000 40.000 0,1 3499.856,2668.278 L3534.566,2683.744 A1680.000,1680.000 0.000 0,0 3640.546,2361.954 Z" style="stroke-width:2.0;stroke:rgb(255,255,255);stroke-linecap:round;fill:none;" />
<path d="M3484.921,2700.839 A1642.000,1642.000 40.000 0,1 3330.895,2961.708 L3361.695,2983.964 A1680.000,1680.000 0.000 0,0 3519.285,2717.058 Z" style="stroke-width:2.0;stroke:rgb(255,255,255);stroke-linecap:round;fill:rgb(185,185,185);" />
<text x="3498.1" y="2899.1" font-size="36.4px" font-family="CMUBright-Roman" style="text-anchor:start;fill:rgb(0,0,0);" transform="rotate(30.6,3498.1,2899.1)" >Education</text>
<path d="M3484.921,2700.839 A1642.000,1642.000 40.000 0,1 3330.895,2961.708 L3361.695,2983.964 A1680.000,1680.000 0.000 0,0 3519.285,2717.058 Z" style="stroke-width:2.0;stroke:rgb(255,255,255);stroke-linecap:round;fill:none;" />
<path d="M3309.599,2990.512 A1642.000,1642.000 40.000 0,1 3129.055,3192.225 L3155.184,3219.816 A1680.000,1680.000 0.000 0,0 3339.906,3013.435 Z" style="stroke-width:2.0;stroke:rgb(255,255,255);stroke-linecap:round;fill:rgb(185,185,185);" />
<text x="3293.5" y="3174.5" font-size="36.4px" font-family="CMUBright-Roman" style="text-anchor:start;fill:rgb(0,0,0);" transform="rotate(41.8,3293.5,3174.5)" >Research-Science</text>
<path d="M3309.599,2990.512 A1642.000,1642.000 40.000 0,1 3129.055,3192.225 L3155.184,3219.816 A1680.000,1680.000 0.000 0,0 3339.906,3013.435 Z" style="stroke-width:2.0;stroke:rgb(255,255,255);stroke-linecap:round;fill:none;" />
<path d="M3102.778,3216.571 A1642.000,1642.000 40.000 0,1 2891.302,3379.038 L2911.929,3410.952 A1680.000,1680.000 0.000 0,0 3128.299,3244.726 Z" style="stroke-width:2.0;stroke:rgb(255,255,255);stroke-linecap:round;fill:rgb(185,185,185);" />
<text x="3054.5" y="3393.1" font-size="36.4px" font-family="CMUBright-Roman" style="text-anchor:start;fill:rgb(0,0,0);" transform="rotate(52.5,3054.5,3393.1)" >Clinical-Care</text>
<path d="M3102.778,3216.571 A1642.000,1642.000 40.000 0,1 2891.302,3379.038 L2911.929,3410.952 A1680.000,1680.000 0.000 0,0 3128.299,3244.726 Z" style="stroke-width:2.0;stroke:rgb(255,255,255);stroke-linecap:round;fill:none;" />
<path d="M2861.006,3398.153 A1642.000,1642.000 40.000 0,1 2640.127,3512.085 L2654.941,3547.079 A1680.000,1680.000 0.000 0,0 2880.932,3430.510 Z" style="stroke-width:2.0;stroke:rgb(255,255,255);stroke-linecap:round;fill:rgb(185,185,185);" />
<text x="2786.7" y="3560.1" font-size="36.4px" font-family="CMUBright-Roman" style="text-anchor:start;fill:rgb(0,0,0);" transform="rotate(62.7,2786.7,3560.1)" >Accounting-Audit</text>
<path d="M2861.006,3398.153 A1642.000,1642.000 40.000 0,1 2640.127,3512.085 L2654.941,3547.079 A1680.000,1680.000 0.000 0,0 2880.932,3430.510 Z" style="stroke-width:2.0;stroke:rgb(255,255,255);stroke-linecap:round;fill:none;" />
<path d="M2606.988,3525.690 A1642.000,1642.000 40.000 0,1 2452.002,3578.562 L2462.463,3615.094 A1680.000,1680.000 0.000 0,0 2621.036,3560.998 Z" style="stroke-width:2.0;stroke:rgb(255,255,255);stroke-linecap:round;fill:rgb(185,185,185);" />
<text x="2552.3" y="3657.6" font-size="36.4px" font-family="CMUBright-Roman" style="text-anchor:start;fill:rgb(0,0,0);" transform="rotate(71.2,2552.3,3657.6)" >Social-Service</text>
<path d="M2606.988,3525.690 A1642.000,1642.000 40.000 0,1 2452.002,3578.562 L2462.463,3615.094 A1680.000,1680.000 0.000 0,0 2621.036,3560.998 Z" style="stroke-width:2.0;stroke:rgb(255,255,255);stroke-linecap:round;fill:none;" />
<path d="M2417.459,3588.047 A1642.000,1642.000 40.000 0,1 2320.910,3610.336 L2328.336,3647.603 A1680.000,1680.000 0.000 0,0 2427.120,3624.798 Z" style="stroke-width:2.0;stroke:rgb(255,255,255);stroke-linecap:round;fill:rgb(185,185,185);" />
<text x="2380.8" y="3705.2" font-size="36.4px" font-family="CMUBright-Roman" style="text-anchor:start;fill:rgb(0,0,0);" transform="rotate(77.0,2380.8,3705.2)" >IT-Infrastructure</text>
<path d="M2417.459,3588.047 A1642.000,1642.000 40.000 0,1 2320.910,3610.336 L2328.336,3647.603 A1680.000,1680.000 0.000 0,0 2427.120,3624.798 Z" style="stroke-width:2.0;stroke:rgb(255,255,255);stroke-linecap:round;fill:none;" />
<path d="M2285.704,3616.953 A1642.000,1642.000 40.000 0,1 2189.660,3631.010 L2194.050,3668.755 A1680.000,1680.000 0.000 0,0 2292.316,3654.373 Z" style="stroke-width:2.0;stroke:rgb(255,255,255);stroke-linecap:round;fill:rgb(185,185,185);" />
<text x="2237.2" y="3731.0" font-size="36.4px" font-family="CMUBright-Roman" style="text-anchor:start;fill:rgb(0,0,0);" transform="rotate(81.7,2237.2,3731.0)" >Legal-Policy</text>
<path d="M2285.704,3616.953 A1642.000,1642.000 40.000 0,1 2189.660,3631.010 L2194.050,3668.755 A1680.000,1680.000 0.000 0,0 2292.316,3654.373 Z" style="stroke-width:2.0;stroke:rgb(255,255,255);stroke-linecap:round;fill:none;" />
<path d="M2154.035,3634.759 A1642.000,1642.000 40.000 0,1 1474.020,3555.477 L1461.848,3591.475 A1680.000,1680.000 0.000 0,0 2157.600,3672.592 Z" style="stroke-width:2.0;stroke:rgb(255,255,255);stroke-linecap:round;fill:rgb(15,52,135);" />
<text x="1813.6" y="3737.2" font-size="36.4px" font-family="CMUBright-Roman" style="text-anchor:end;fill:rgb(0,0,0);" transform="rotate(-83.3,1813.6,3737.2)" >Finance-Accounting</text>
<path d="M2154.035,3634.759 A1642.000,1642.000 40.000 0,1 1474.020,3555.477 L1461.848,3591.475 A1680.000,1680.000 0.000 0,0 2157.600,3672.592 Z" style="stroke-width:2.0;stroke:rgb(255,255,255);stroke-linecap:round;fill:none;" />
<path d="M1440.213,3543.633 A1642.000,1642.000 40.000 0,1 888.845,3208.925 L863.130,3236.902 A1680.000,1680.000 0.000 0,0 1427.258,3579.356 Z" style="stroke-width:2.0;stroke:rgb(255,255,255);stroke-linecap:round;fill:rgb(42,98,180);" />
<text x="1104.1" y="3500.0" font-size="36.4px" font-family="CMUBright-Roman" style="text-anchor:end;fill:rgb(0,0,0);" transform="rotate(-58.7,1104.1,3500.0)" >General-Business</text>
<path d="M1440.213,3543.633 A1642.000,1642.000 40.000 0,1 888.845,3208.925 L863.130,3236.902 A1680.000,1680.000 0.000 0,0 1427.258,3579.356 Z" style="stroke-width:2.0;stroke:rgb(255,255,255);stroke-linecap:round;fill:none;" />
<path d="M862.737,3184.397 A1642.000,1642.000 40.000 0,1 624.574,2896.866 L592.744,2917.622 A1680.000,1680.000 0.000 0,0 836.418,3211.807 Z" style="stroke-width:2.0;stroke:rgb(255,255,255);stroke-linecap:round;fill:rgb(28,75,160);" />
<text x="664.7" y="3126.8" font-size="36.4px" font-family="CMUBright-Roman" style="text-anchor:end;fill:rgb(0,0,0);" transform="rotate(-39.6,664.7,3126.8)" >Marketing-Communication</text>
<path d="M862.737,3184.397 A1642.000,1642.000 40.000 0,1 624.574,2896.866 L592.744,2917.622 A1680.000,1680.000 0.000 0,0 836.418,3211.807 Z" style="stroke-width:2.0;stroke:rgb(255,255,255);stroke-linecap:round;fill:none;" />
<path d="M605.337,2866.648 A1642.000,1642.000 40.000 0,1 476.558,2612.607 L441.301,2626.784 A1680.000,1680.000 0.000 0,0 573.061,2886.704 Z" style="stroke-width:2.0;stroke:rgb(255,255,255);stroke-linecap:round;fill:rgb(60,120,198);" />
<text x="448.7" y="2803.8" font-size="36.4px" font-family="CMUBright-Roman" style="text-anchor:end;fill:rgb(0,0,0);" transform="rotate(-26.9,448.7,2803.8)" >Operations-Analytics</text>
<path d="M605.337,2866.648 A1642.000,1642.000 40.000 0,1 476.558,2612.607 L441.301,2626.784 A1680.000,1680.000 0.000 0,0 573.061,2886.704 Z" style="stroke-width:2.0;stroke:rgb(255,255,255);stroke-linecap:round;fill:none;" />
<path d="M463.556,2579.227 A1642.000,1642.000 40.000 0,1 407.419,2399.813 L370.563,2409.066 A1680.000,1680.000 0.000 0,0 427.999,2592.632 Z" style="stroke-width:2.0;stroke:rgb(255,255,255);stroke-linecap:round;fill:rgb(82,145,215);" />
<text x="337.2" y="2536.5" font-size="36.4px" font-family="CMUBright-Roman" style="text-anchor:end;fill:rgb(0,0,0);" transform="rotate(-17.4,337.2,2536.5)" >Specialized-Business</text>
<path d="M463.556,2579.227 A1642.000,1642.000 40.000 0,1 407.419,2399.813 L370.563,2409.066 A1680.000,1680.000 0.000 0,0 427.999,2592.632 Z" style="stroke-width:2.0;stroke:rgb(255,255,255);stroke-linecap:round;fill:none;" />
<path d="M399.076,2364.976 A1642.000,1642.000 40.000 0,1 366.776,2169.540 L328.979,2173.464 A1680.000,1680.000 0.000 0,0 362.027,2373.422 Z" style="stroke-width:2.0;stroke:rgb(255,255,255);stroke-linecap:round;fill:rgb(200,108,30);" />
<text x="278.3" y="2297.2" font-size="36.4px" font-family="CMUBright-Roman" style="text-anchor:end;fill:rgb(0,0,0);" transform="rotate(-9.4,278.3,2297.2)" >Social-Sciences</text>
<path d="M399.076,2364.976 A1642.000,1642.000 40.000 0,1 366.776,2169.540 L328.979,2173.464 A1680.000,1680.000 0.000 0,0 362.027,2373.422 Z" style="stroke-width:2.0;stroke:rgb(255,255,255);stroke-linecap:round;fill:none;" />
<path d="M363.466,2133.872 A1642.000,1642.000 40.000 0,1 358.290,2030.870 L320.297,2031.584 A1680.000,1680.000 0.000 0,0 325.593,2136.970 Z" style="stroke-width:2.0;stroke:rgb(255,255,255);stroke-linecap:round;fill:rgb(108,170,228);" />
<text x="255.6" y="2099.7" font-size="36.4px" font-family="CMUBright-Roman" style="text-anchor:end;fill:rgb(0,0,0);" transform="rotate(-2.9,255.6,2099.7)" >Economics</text>
<path d="M363.466,2133.872 A1642.000,1642.000 40.000 0,1 358.290,2030.870 L320.297,2031.584 A1680.000,1680.000 0.000 0,0 325.593,2136.970 Z" style="stroke-width:2.0;stroke:rgb(255,255,255);stroke-linecap:round;fill:none;" />
<path d="M358.007,1995.049 A1642.000,1642.000 40.000 0,1 358.807,1948.539 L320.825,1947.348 A1680.000,1680.000 0.000 0,0 320.008,1994.934 Z" style="stroke-width:2.0;stroke:rgb(255,255,255);stroke-linecap:round;fill:rgb(220,140,52);" />
<text x="252.9" y="1982.5" font-size="36.4px" font-family="CMUBright-Roman" style="text-anchor:end;fill:rgb(0,0,0);" transform="rotate(1.0,252.9,1982.5)" >Humanities-Liberal-Arts</text>
<path d="M358.007,1995.049 A1642.000,1642.000 40.000 0,1 358.807,1948.539 L320.825,1947.348 A1680.000,1680.000 0.000 0,0 320.008,1994.934 Z" style="stroke-width:2.0;stroke:rgb(255,255,255);stroke-linecap:round;fill:none;" />
<path d="M360.320,1912.749 A1642.000,1642.000 40.000 0,1 361.133,1898.615 L323.205,1896.269 A1680.000,1680.000 0.000 0,0 322.373,1910.730 Z" style="stroke-width:2.0;stroke:rgb(255,255,255);stroke-linecap:round;fill:rgb(235,168,78);" />
<text x="255.0" y="1912.1" font-size="36.4px" font-family="CMUBright-Roman" style="text-anchor:end;fill:rgb(0,0,0);" transform="rotate(3.3,255.0,1912.1)" >International-Studies</text>
<path d="M360.320,1912.749 A1642.000,1642.000 40.000 0,1 361.133,1898.615 L323.205,1896.269 A1680.000,1680.000 0.000 0,0 322.373,1910.730 Z" style="stroke-width:2.0;stroke:rgb(255,255,255);stroke-linecap:round;fill:none;" />
<path d="M363.735,1862.887 A1642.000,1642.000 40.000 0,1 391.336,1670.812 L354.108,1663.193 A1680.000,1680.000 0.000 0,0 325.867,1859.714 Z" style="stroke-width:2.0;stroke:rgb(255,255,255);stroke-linecap:round;fill:rgb(195,58,55);" />
<text x="268.8" y="1763.9" font-size="36.4px" font-family="CMUBright-Roman" style="text-anchor:end;fill:rgb(0,0,0);" transform="rotate(8.2,268.8,1763.9)" >Social-Work</text>
<path d="M363.735,1862.887 A1642.000,1642.000 40.000 0,1 391.336,1670.812 L354.108,1663.193 A1680.000,1680.000 0.000 0,0 325.867,1859.714 Z" style="stroke-width:2.0;stroke:rgb(255,255,255);stroke-linecap:round;fill:none;" />
<path d="M398.900,1635.797 A1642.000,1642.000 40.000 0,1 428.981,1522.439 L392.624,1511.387 A1680.000,1680.000 0.000 0,0 361.847,1627.368 Z" style="stroke-width:2.0;stroke:rgb(255,255,255);stroke-linecap:round;fill:rgb(175,35,42);" />
<text x="308.1" y="1564.0" font-size="36.4px" font-family="CMUBright-Roman" style="text-anchor:end;fill:rgb(0,0,0);" transform="rotate(14.9,308.1,1564.0)" >Teacher-Education</text>
<path d="M398.900,1635.797 A1642.000,1642.000 40.000 0,1 428.981,1522.439 L392.624,1511.387 A1680.000,1680.000 0.000 0,0 361.847,1627.368 Z" style="stroke-width:2.0;stroke:rgb(255,255,255);stroke-linecap:round;fill:none;" />
<path d="M439.773,1488.281 A1642.000,1642.000 40.000 0,1 474.975,1391.343 L439.682,1377.257 A1680.000,1680.000 0.000 0,0 403.666,1476.439 Z" style="stroke-width:2.0;stroke:rgb(255,255,255);stroke-linecap:round;fill:rgb(215,82,72);" />
<text x="352.5" y="1418.2" font-size="36.4px" font-family="CMUBright-Roman" style="text-anchor:end;fill:rgb(0,0,0);" transform="rotate(20.0,352.5,1418.2)" >Special-Education</text>
<path d="M439.773,1488.281 A1642.000,1642.000 40.000 0,1 474.975,1391.343 L439.682,1377.257 A1680.000,1680.000 0.000 0,0 403.666,1476.439 Z" style="stroke-width:2.0;stroke:rgb(255,255,255);stroke-linecap:round;fill:none;" />
<path d="M488.616,1358.220 A1642.000,1642.000 40.000 0,1 509.092,1311.991 L474.588,1296.068 A1680.000,1680.000 0.000 0,0 453.639,1343.368 Z" style="stroke-width:2.0;stroke:rgb(255,255,255);stroke-linecap:round;fill:rgb(230,112,95);" />
<text x="396.3" y="1306.6" font-size="36.4px" font-family="CMUBright-Roman" style="text-anchor:end;fill:rgb(0,0,0);" transform="rotate(23.9,396.3,1306.6)" >Educational-Leadership</text>
<path d="M488.616,1358.220 A1642.000,1642.000 40.000 0,1 509.092,1311.991 L474.588,1296.068 A1680.000,1680.000 0.000 0,0 453.639,1343.368 Z" style="stroke-width:2.0;stroke:rgb(255,255,255);stroke-linecap:round;fill:none;" />
<path d="M524.455,1279.630 A1642.000,1642.000 40.000 0,1 553.988,1222.045 L520.524,1204.041 A1680.000,1680.000 0.000 0,0 490.308,1262.959 Z" style="stroke-width:2.0;stroke:rgb(255,255,255);stroke-linecap:round;fill:rgb(0,130,142);" />
<text x="439.7" y="1213.8" font-size="36.4px" font-family="CMUBright-Roman" style="text-anchor:end;fill:rgb(0,0,0);" transform="rotate(27.2,439.7,1213.8)" >Communication-Studies</text>
<path d="M524.455,1279.630 A1642.000,1642.000 40.000 0,1 553.988,1222.045 L520.524,1204.041 A1680.000,1680.000 0.000 0,0 490.308,1262.959 Z" style="stroke-width:2.0;stroke:rgb(255,255,255);stroke-linecap:round;fill:none;" />
<path d="M571.303,1190.686 A1642.000,1642.000 40.000 0,1 588.562,1160.949 L555.898,1141.531 A1680.000,1680.000 0.000 0,0 538.240,1171.956 Z" style="stroke-width:2.0;stroke:rgb(255,255,255);stroke-linecap:round;fill:rgb(0,165,172);" />
<text x="482.6" y="1133.8" font-size="36.4px" font-family="CMUBright-Roman" style="text-anchor:end;fill:rgb(0,0,0);" transform="rotate(30.1,482.6,1133.8)" >Journalism-Media</text>
<path d="M571.303,1190.686 A1642.000,1642.000 40.000 0,1 588.562,1160.949 L555.898,1141.531 A1680.000,1680.000 0.000 0,0 538.240,1171.956 Z" style="stroke-width:2.0;stroke:rgb(255,255,255);stroke-linecap:round;fill:none;" />
<path d="M607.202,1130.358 A1642.000,1642.000 40.000 0,1 613.667,1120.089 L581.583,1099.725 A1680.000,1680.000 0.000 0,0 574.969,1110.233 Z" style="stroke-width:2.0;stroke:rgb(255,255,255);stroke-linecap:round;fill:rgb(38,195,195);" />
<text x="512.9" y="1082.8" font-size="36.4px" font-family="CMUBright-Roman" style="text-anchor:end;fill:rgb(0,0,0);" transform="rotate(32.2,512.9,1082.8)" >Creative-Writing</text>
<path d="M607.202,1130.358 A1642.000,1642.000 40.000 0,1 613.667,1120.089 L581.583,1099.725 A1680.000,1680.000 0.000 0,0 574.969,1110.233 Z" style="stroke-width:2.0;stroke:rgb(255,255,255);stroke-linecap:round;fill:none;" />
<path d="M633.192,1090.055 A1642.000,1642.000 40.000 0,1 667.742,1040.182 L636.910,1017.969 A1680.000,1680.000 0.000 0,0 601.560,1068.997 Z" style="stroke-width:2.0;stroke:rgb(255,255,255);stroke-linecap:round;fill:rgb(180,45,112);" />
<text x="554.7" y="1018.2" font-size="36.4px" font-family="CMUBright-Roman" style="text-anchor:end;fill:rgb(0,0,0);" transform="rotate(34.7,554.7,1018.2)" >Arts-Theology</text>
<path d="M633.192,1090.055 A1642.000,1642.000 40.000 0,1 667.742,1040.182 L636.910,1017.969 A1680.000,1680.000 0.000 0,0 601.560,1068.997 Z" style="stroke-width:2.0;stroke:rgb(255,255,255);stroke-linecap:round;fill:none;" />
<path d="M688.997,1011.347 A1642.000,1642.000 40.000 0,1 698.803,998.477 L668.690,975.299 A1680.000,1680.000 0.000 0,0 658.657,988.467 Z" style="stroke-width:2.0;stroke:rgb(255,255,255);stroke-linecap:round;fill:rgb(205,75,142);" />
<text x="600.6" y="953.9" font-size="36.4px" font-family="CMUBright-Roman" style="text-anchor:end;fill:rgb(0,0,0);" transform="rotate(37.3,600.6,953.9)" >English-Writing</text>
<path d="M688.997,1011.347 A1642.000,1642.000 40.000 0,1 698.803,998.477 L668.690,975.299 A1680.000,1680.000 0.000 0,0 658.657,988.467 Z" style="stroke-width:2.0;stroke:rgb(255,255,255);stroke-linecap:round;fill:none;" />
<path d="M720.960,970.329 A1642.000,1642.000 40.000 0,1 724.774,965.610 L695.262,941.672 A1680.000,1680.000 0.000 0,0 691.360,946.500 Z" style="stroke-width:2.0;stroke:rgb(255,255,255);stroke-linecap:round;fill:rgb(225,110,168);" />
<text x="631.0" y="914.3" font-size="36.4px" font-family="CMUBright-Roman" style="text-anchor:end;fill:rgb(0,0,0);" transform="rotate(38.9,631.0,914.3)" >Languages</text>
<path d="M720.960,970.329 A1642.000,1642.000 40.000 0,1 724.774,965.610 L695.262,941.672 A1680.000,1680.000 0.000 0,0 691.360,946.500 Z" style="stroke-width:2.0;stroke:rgb(255,255,255);stroke-linecap:round;fill:none;" />
<path d="M747.643,938.037 A1642.000,1642.000 40.000 0,1 884.635,794.959 L858.822,767.071 A1680.000,1680.000 0.000 0,0 718.660,913.461 Z" style="stroke-width:2.0;stroke:rgb(255,255,255);stroke-linecap:round;fill:rgb(88,40,138);" />
<text x="727.0" y="803.3" font-size="36.4px" font-family="CMUBright-Roman" style="text-anchor:end;fill:rgb(0,0,0);" transform="rotate(43.8,727.0,803.3)" >Biological-Sciences</text>
<path d="M747.643,938.037 A1642.000,1642.000 40.000 0,1 884.635,794.959 L858.822,767.071 A1680.000,1680.000 0.000 0,0 718.660,913.461 Z" style="stroke-width:2.0;stroke:rgb(255,255,255);stroke-linecap:round;fill:none;" />
<path d="M911.188,770.914 A1642.000,1642.000 40.000 0,1 969.888,721.316 L946.049,691.724 A1680.000,1680.000 0.000 0,0 885.990,742.470 Z" style="stroke-width:2.0;stroke:rgb(255,255,255);stroke-linecap:round;fill:rgb(115,65,165);" />
<text x="862.8" y="673.5" font-size="36.4px" font-family="CMUBright-Roman" style="text-anchor:end;fill:rgb(0,0,0);" transform="rotate(49.8,862.8,673.5)" >Health-Wellness</text>
<path d="M911.188,770.914 A1642.000,1642.000 40.000 0,1 969.888,721.316 L946.049,691.724 A1680.000,1680.000 0.000 0,0 885.990,742.470 Z" style="stroke-width:2.0;stroke:rgb(255,255,255);stroke-linecap:round;fill:none;" />
<path d="M998.028,699.148 A1642.000,1642.000 40.000 0,1 1023.858,679.655 L1001.267,649.099 A1680.000,1680.000 0.000 0,0 974.840,669.043 Z" style="stroke-width:2.0;stroke:rgb(255,255,255);stroke-linecap:round;fill:rgb(140,92,188);" />
<text x="935.2" y="614.8" font-size="36.4px" font-family="CMUBright-Roman" style="text-anchor:end;fill:rgb(0,0,0);" transform="rotate(53.0,935.2,614.8)" >Physical-Sciences</text>
<path d="M998.028,699.148 A1642.000,1642.000 40.000 0,1 1023.858,679.655 L1001.267,649.099 A1680.000,1680.000 0.000 0,0 974.840,669.043 Z" style="stroke-width:2.0;stroke:rgb(255,255,255);stroke-linecap:round;fill:none;" />
<path d="M1052.893,658.675 A1642.000,1642.000 40.000 0,1 1064.493,650.559 L1042.843,619.329 A1680.000,1680.000 0.000 0,0 1030.975,627.633 Z" style="stroke-width:2.0;stroke:rgb(255,255,255);stroke-linecap:round;fill:rgb(165,120,208);" />
<text x="988.2" y="575.6" font-size="36.4px" font-family="CMUBright-Roman" style="text-anchor:end;fill:rgb(0,0,0);" transform="rotate(55.0,988.2,575.6)" >Environmental-Sciences</text>
<path d="M1052.893,658.675 A1642.000,1642.000 40.000 0,1 1064.493,650.559 L1042.843,619.329 A1680.000,1680.000 0.000 0,0 1030.975,627.633 Z" style="stroke-width:2.0;stroke:rgb(255,255,255);stroke-linecap:round;fill:none;" />
<path d="M1094.154,630.472 A1642.000,1642.000 40.000 0,1 1594.822,408.776 L1585.445,371.951 A1680.000,1680.000 0.000 0,0 1073.190,598.778 Z" style="stroke-width:2.0;stroke:rgb(255,255,255);stroke-linecap:round;fill:rgb(22,118,50);" />
<text x="1278.0" y="409.0" font-size="36.4px" font-family="CMUBright-Roman" style="text-anchor:end;fill:rgb(0,0,0);" transform="rotate(66.1,1278.0,409.0)" >Engineering-Disciplines</text>
<path d="M1094.154,630.472 A1642.000,1642.000 40.000 0,1 1594.822,408.776 L1585.445,371.951 A1680.000,1680.000 0.000 0,0 1073.190,598.778 Z" style="stroke-width:2.0;stroke:rgb(255,255,255);stroke-linecap:round;fill:none;" />
<path d="M1629.631,400.315 A1642.000,1642.000 40.000 0,1 1964.180,358.391 L1963.351,320.400 A1680.000,1680.000 0.000 0,0 1621.060,363.295 Z" style="stroke-width:2.0;stroke:rgb(255,255,255);stroke-linecap:round;fill:rgb(48,158,75);" />
<text x="1767.4" y="268.4" font-size="36.4px" font-family="CMUBright-Roman" style="text-anchor:end;fill:rgb(0,0,0);" transform="rotate(82.9,1767.4,268.4)" >Computer-Science-IT</text>
<path d="M1629.631,400.315 A1642.000,1642.000 40.000 0,1 1964.180,358.391 L1963.351,320.400 A1680.000,1680.000 0.000 0,0 1621.060,363.295 Z" style="stroke-width:2.0;stroke:rgb(255,255,255);stroke-linecap:round;fill:none;" />
</g>
<g id="track_0">
<path d="M 3296.503,2980.607 A 1625.580,1625.580 0.00 0,1 3291.7,2987.0 L 3291.7,2987.0 3238.6,2945.0 3185.7,2900.2 3132.9,2852.7 3080.2,2802.8 3027.7,2750.6 2975.3,2696.1 2923.1,2639.5 2871.1,2581.0 2819.3,2520.6 2767.7,2458.6 2716.4,2395.0 2665.5,2329.9 2614.9,2263.5 2564.7,2196.0 2514.9,2127.3 2465.7,2057.6 2417.0,1987.1 2368.8,1915.9 2321.4,1844.0 2274.7,1771.5 2228.7,1698.6 2183.6,1625.4 2139.5,1552.0 2096.3,1478.4 2054.3,1404.7 2013.4,1331.1 1973.8,1257.7 1935.5,1184.4 1898.7,1111.5 1863.5,1039.0 1829.8,966.9 1798.0,895.4 1767.9,824.5 1739.9,754.3 1713.9,684.9 1690.2,616.3 1668.7,548.7 1649.7,482.0 1633.3,416.3  A 1625.580,1625.580 0.00 0,1 1641.1,414.5 L 1641.1,414.5 1657.2,480.2 1675.9,546.8 1697.0,614.5 1720.4,683.1 1746.1,752.5 1773.8,822.7 1803.5,893.6 1835.2,965.1 1868.5,1037.2 1903.5,1109.7 1940.1,1182.6 1978.2,1255.9 2017.6,1329.3 2058.3,1402.9 2100.2,1476.5 2143.2,1550.0 2187.3,1623.4 2232.2,1696.6 2278.1,1769.4 2324.8,1841.7 2372.2,1913.5 2420.3,1984.7 2469.0,2055.0 2518.3,2124.5 2568.1,2193.1 2618.3,2260.5 2669.0,2326.7 2720.0,2391.5 2771.3,2454.9 2823.0,2516.7 2874.9,2576.9 2927.0,2635.1 2979.3,2691.5 3031.9,2745.7 3084.5,2797.7 3137.3,2847.3 3190.3,2894.4 3243.3,2938.9 3296.5,2980.6  Z" style="stroke-width: 0.0;  fill: rgb(48,158,75);" />
<path d="M 3291.656,2986.983 A 1625.580,1625.580 0.00 0,1 3278.2,3004.4 L 3278.2,3004.4 3222.6,2959.5 3166.9,2912.3 3111.0,2862.9 3054.9,2811.5 2998.5,2758.2 2941.8,2703.3 2884.8,2646.7 2827.5,2588.8 2769.8,2529.7 2711.9,2469.4 2653.5,2408.1 2594.9,2346.0 2535.9,2283.2 2476.7,2219.7 2417.2,2155.7 2357.5,2091.3 2297.7,2026.6 2237.7,1961.6 2177.7,1896.5 2117.6,1831.4 2057.6,1766.2 1997.8,1701.1 1938.2,1636.2 1878.8,1571.5 1819.9,1507.0 1761.5,1442.8 1703.6,1378.9 1646.5,1315.4 1590.2,1252.2 1534.9,1189.5 1480.6,1127.2 1427.6,1065.4 1375.9,1003.9 1325.7,943.0 1277.2,882.4 1230.6,822.3 1185.9,762.5 1143.4,703.2 1103.2,644.2  A 1625.580,1625.580 0.00 0,1 1121.7,632.1 L 1121.7,632.1 1160.9,691.5 1202.5,751.1 1246.3,811.2 1292.2,871.7 1339.9,932.5 1389.3,993.9 1440.3,1055.6 1492.7,1117.8 1546.4,1180.4 1601.2,1243.4 1657.0,1306.8 1713.6,1370.5 1771.1,1434.6 1829.2,1499.0 1887.8,1563.6 1946.9,1628.5 2006.3,1693.5 2066.0,1758.6 2125.9,1823.8 2185.9,1888.9 2246.0,1953.9 2306.0,2018.7 2365.9,2083.2 2425.8,2147.4 2485.4,2211.1 2544.8,2274.3 2604.0,2336.7 2663.0,2398.4 2721.6,2459.2 2779.9,2519.0 2837.9,2577.6 2895.6,2634.8 2953.0,2690.7 3010.1,2745.0 3066.9,2797.5 3123.4,2848.1 3179.7,2896.7 3235.7,2943.0 3291.7,2987.0  Z" style="stroke-width: 0.0;  fill: rgb(22,118,50);" />
<path d="M 3278.165,3004.393 A 1625.580,1625.580 0.00 0,1 3274.4,3009.1 L 3274.4,3009.1 3218.8,2963.9 3163.0,2916.3 3106.9,2866.6 3050.6,2814.9 2994.0,2761.5 2937.1,2706.4 2879.8,2649.8 2822.2,2591.9 2764.2,2532.8 2705.8,2472.7 2647.1,2411.6 2588.0,2349.7 2528.5,2287.2 2468.7,2224.1 2408.6,2160.6 2348.2,2096.7 2287.7,2032.6 2226.9,1968.3 2166.0,1903.9 2105.1,1839.5 2044.1,1775.2 1983.2,1711.0 1922.5,1647.0 1862.1,1583.2 1801.9,1519.7 1742.2,1456.5 1683.1,1393.7 1624.5,1331.3 1566.8,1269.3 1510.0,1207.7 1454.1,1146.5 1399.5,1085.8 1346.1,1025.5 1294.2,965.7 1244.0,906.2 1195.5,847.2 1148.9,788.5 1104.5,730.2 1062.4,672.1  A 1625.580,1625.580 0.00 0,1 1067.3,668.6 L 1067.3,668.6 1109.1,726.8 1153.3,785.2 1199.6,844.0 1247.9,903.2 1298.0,962.7 1349.7,1022.7 1402.9,1083.0 1457.3,1143.9 1513.0,1205.1 1569.7,1266.8 1627.3,1328.9 1685.7,1391.4 1744.8,1454.2 1804.4,1517.5 1864.4,1581.0 1924.9,1644.8 1985.5,1708.9 2046.4,1773.1 2107.3,1837.4 2168.2,1901.8 2229.1,1966.2 2289.9,2030.4 2350.5,2094.5 2410.9,2158.4 2471.1,2221.8 2530.9,2284.8 2590.5,2347.2 2649.7,2409.0 2708.5,2469.9 2767.0,2529.9 2825.1,2588.8 2882.8,2646.6 2940.2,2703.0 2997.2,2757.9 3053.9,2811.1 3110.3,2862.6 3166.5,2912.1 3222.4,2959.4 3278.2,3004.4  Z" style="stroke-width: 0.0;  fill: rgb(165,120,208);" />
<path d="M 3274.445,3009.109 A 1625.580,1625.580 0.00 0,1 3263.2,3023.2 L 3263.2,3023.2 3207.6,2977.0 3151.8,2928.6 3095.8,2878.2 3039.5,2825.8 2982.9,2771.8 2926.0,2716.2 2868.6,2659.2 2810.9,2601.0 2752.7,2541.8 2694.1,2481.5 2635.0,2420.5 2575.5,2358.8 2515.7,2296.5 2455.4,2233.7 2394.7,2170.6 2333.7,2107.3 2272.3,2043.8 2210.7,1980.2 2148.9,1916.6 2087.0,1853.1 2025.0,1789.8 1962.9,1726.7 1900.9,1663.8 1839.1,1601.3 1777.5,1539.1 1716.2,1477.2 1655.4,1415.8 1595.2,1354.9 1535.6,1294.3 1476.8,1234.3 1419.0,1174.7 1362.2,1115.5 1306.7,1056.8 1252.5,998.5 1199.9,940.6 1148.9,883.0 1099.9,825.8 1052.8,768.9 1008.0,712.2  A 1625.580,1625.580 0.00 0,1 1022.4,701.2 L 1022.4,701.2 1066.4,758.3 1112.7,815.5 1161.1,873.1 1211.4,930.9 1263.4,989.2 1317.0,1047.8 1372.0,1106.8 1428.3,1166.3 1485.7,1226.2 1544.0,1286.6 1603.2,1347.3 1663.2,1408.5 1723.7,1470.2 1784.7,1532.2 1846.1,1594.5 1907.7,1657.2 1969.6,1720.2 2031.6,1783.4 2093.6,1846.7 2155.5,1910.2 2217.3,1973.7 2279.0,2037.2 2340.4,2100.6 2401.6,2163.8 2462.4,2226.7 2522.9,2289.2 2583.0,2351.2 2642.8,2412.6 2702.1,2473.3 2761.0,2533.1 2819.5,2591.9 2877.5,2649.6 2935.2,2706.1 2992.5,2761.1 3049.5,2814.5 3106.1,2866.2 3162.4,2916.0 3218.5,2963.7 3274.4,3009.1  Z" style="stroke-width: 0.0;  fill: rgb(140,92,188);" />
<path d="M 3263.180,3023.175 A 1625.580,1625.580 0.00 0,1 3246.6,3043.3 L 3246.6,3043.3 3191.1,2995.7 3135.3,2946.1 3079.4,2894.5 3023.0,2841.2 2966.4,2786.4 2909.3,2730.2 2851.7,2672.7 2793.7,2614.2 2735.2,2554.8 2676.2,2494.6 2616.6,2433.8 2556.5,2372.4 2495.9,2310.7 2434.8,2248.7 2373.1,2186.5 2311.0,2124.2 2248.5,2061.9 2185.6,1999.7 2122.4,1937.7 2058.8,1875.9 1995.0,1814.5 1931.1,1753.3 1867.1,1692.6 1803.1,1632.3 1739.2,1572.4 1675.5,1513.0 1612.1,1454.2 1549.1,1395.8 1486.6,1338.0 1424.8,1280.7 1363.7,1223.9 1303.6,1167.5 1244.6,1111.6 1186.8,1056.1 1130.3,1001.0 1075.5,946.2 1022.4,891.7 971.2,837.4 922.1,783.2  A 1625.580,1625.580 0.00 0,1 941.7,766.1 L 941.7,766.1 989.7,820.8 1039.9,875.7 1092.1,930.7 1146.0,986.1 1201.6,1041.7 1258.6,1097.7 1316.9,1154.1 1376.3,1211.0 1436.8,1268.3 1498.0,1326.1 1560.0,1384.4 1622.6,1443.1 1685.6,1502.3 1749.0,1562.0 1812.7,1622.1 1876.5,1682.7 1940.4,1743.6 2004.2,1804.9 2068.0,1866.5 2131.6,1928.3 2194.9,1990.3 2258.0,2052.4 2320.7,2114.5 2383.0,2176.6 2444.9,2238.5 2506.3,2300.2 2567.3,2361.6 2627.8,2422.5 2687.8,2482.8 2747.2,2542.4 2806.2,2601.2 2864.7,2659.0 2922.8,2715.7 2980.4,2771.2 3037.6,2825.1 3094.4,2877.5 3150.9,2928.1 3207.1,2976.7 3263.2,3023.2  Z" style="stroke-width: 0.0;  fill: rgb(115,65,165);" />
<path d="M 3246.635,3043.270 A 1625.580,1625.580 0.00 0,1 3192.4,3104.9 L 3192.4,3104.9 3137.5,3055.0 3080.7,3005.1 3022.1,2955.1 2961.9,2905.0 2900.4,2854.5 2837.7,2803.8 2773.9,2752.6 2709.2,2700.9 2643.8,2648.8 2577.7,2596.1 2511.2,2542.8 2444.3,2488.9 2377.2,2434.3 2310.0,2379.2 2242.7,2323.4 2175.6,2267.0 2108.5,2210.1 2041.8,2152.5 1975.3,2094.4 1909.2,2035.8 1843.6,1976.8 1778.5,1917.4 1713.8,1857.7 1649.8,1797.8 1586.4,1737.7 1523.6,1677.6 1461.4,1617.5 1399.9,1557.5 1339.0,1497.9 1278.7,1438.6 1219.1,1379.9 1160.1,1321.9 1101.6,1264.7 1043.7,1208.5 986.2,1153.5 929.2,1099.8 872.6,1047.6 816.3,997.2 760.2,948.7  A 1625.580,1625.580 0.00 0,1 814.8,887.4 L 814.8,887.4 869.3,937.5 925.7,987.7 984.0,1037.9 1043.7,1088.3 1105.0,1139.0 1167.4,1190.1 1230.9,1241.5 1295.3,1293.4 1360.6,1345.8 1426.4,1398.7 1492.8,1452.2 1559.5,1506.3 1626.5,1561.0 1693.6,1616.3 1760.8,1672.2 1827.9,1728.8 1894.9,1785.8 1961.7,1843.5 2028.2,1901.6 2094.3,1960.2 2160.0,2019.3 2225.2,2078.6 2289.9,2138.3 2354.1,2198.2 2417.6,2258.2 2480.6,2318.2 2542.9,2378.2 2604.6,2437.9 2665.7,2497.4 2726.1,2556.4 2786.0,2614.9 2845.2,2672.6 2903.9,2729.5 2962.0,2785.4 3019.7,2840.1 3076.9,2893.4 3133.8,2945.2 3190.3,2995.2 3246.6,3043.3  Z" style="stroke-width: 0.0;  fill: rgb(88,40,138);" />
<path d="M 3192.381,3104.870 A 1625.580,1625.580 0.00 0,1 3185.6,3112.2 L 3185.6,3112.2 3131.8,3062.9 3075.9,3013.7 3018.0,2964.4 2958.4,2915.1 2897.1,2865.6 2834.4,2815.9 2770.4,2765.9 2705.3,2715.6 2639.1,2664.9 2572.1,2613.9 2504.3,2562.4 2436.0,2510.4 2367.1,2458.0 2297.9,2405.2 2228.4,2351.9 2158.7,2298.2 2089.0,2244.1 2019.3,2189.7 1949.6,2134.9 1880.2,2079.8 1810.9,2024.5 1742.0,1969.0 1673.4,1913.4 1605.3,1857.8 1537.6,1802.3 1470.3,1746.9 1403.6,1691.9 1337.5,1637.1 1271.9,1582.9 1206.9,1529.3 1142.5,1476.4 1078.6,1424.4 1015.4,1373.5 952.7,1323.8 890.5,1275.4 828.9,1228.6 767.8,1183.5 707.1,1140.3 646.9,1099.2  A 1625.580,1625.580 0.00 0,1 652.4,1090.8 L 652.4,1090.8 712.5,1132.4 773.1,1176.0 834.0,1221.5 895.5,1268.7 957.5,1317.4 1020.0,1367.5 1083.1,1418.7 1146.8,1471.0 1211.0,1524.1 1275.9,1577.9 1341.3,1632.4 1407.4,1687.3 1473.9,1742.6 1541.0,1798.0 1608.7,1853.7 1676.7,1909.4 1745.2,1965.0 1814.1,2020.5 1883.3,2075.8 1952.8,2130.9 2022.4,2185.7 2092.2,2240.1 2161.9,2294.1 2231.7,2347.7 2301.2,2400.8 2370.6,2453.5 2439.6,2505.8 2508.1,2557.5 2576.0,2608.8 2643.2,2659.7 2709.6,2710.2 2775.0,2760.3 2839.2,2810.0 2902.2,2859.5 2963.8,2908.8 3023.8,2957.8 3082.0,3006.8 3138.2,3055.8 3192.4,3104.9  Z" style="stroke-width: 0.0;  fill: rgb(180,45,112);" />
<path d="M 3185.554,3112.192 A 1625.580,1625.580 0.00 0,1 3182.8,3115.1 L 3182.8,3115.1 3129.4,3065.9 3073.8,3016.8 3016.2,2967.7 2956.7,2918.6 2895.6,2869.3 2832.9,2819.8 2768.9,2770.1 2703.7,2720.1 2637.4,2669.8 2570.2,2619.1 2502.2,2568.0 2433.6,2516.6 2364.4,2464.7 2294.7,2412.5 2224.7,2359.8 2154.5,2306.8 2084.2,2253.5 2013.8,2199.8 1943.5,2145.9 1873.3,2091.7 1803.2,2037.4 1733.4,1982.9 1664.0,1928.4 1594.9,1874.0 1526.2,1819.7 1458.0,1765.6 1390.3,1711.8 1323.1,1658.4 1256.4,1605.6 1190.3,1553.5 1124.8,1502.2 1059.9,1451.8 995.6,1402.5 931.8,1354.5 868.6,1307.9 806.0,1262.8 743.9,1219.6 682.3,1178.2 621.1,1139.1  A 1625.580,1625.580 0.00 0,1 623.3,1135.7 L 623.3,1135.7 684.4,1175.0 745.9,1216.5 808.0,1259.9 870.5,1305.1 933.7,1351.9 997.3,1400.1 1061.6,1449.5 1126.5,1500.0 1191.9,1551.4 1258.0,1603.6 1324.6,1656.5 1391.7,1709.9 1459.4,1763.8 1527.6,1817.9 1596.2,1872.3 1665.3,1926.8 1734.7,1981.3 1804.5,2035.7 1874.5,2090.1 1944.7,2144.3 2015.1,2198.2 2085.5,2251.8 2155.8,2305.2 2226.1,2358.1 2296.1,2410.7 2365.8,2462.9 2435.0,2514.7 2503.7,2566.1 2571.8,2617.1 2639.1,2667.7 2705.4,2717.9 2770.7,2767.9 2834.8,2817.5 2897.6,2866.9 2958.9,2916.0 3018.5,2965.1 3076.2,3014.1 3132.0,3063.1 3185.6,3112.2  Z" style="stroke-width: 0.0;  fill: rgb(38,195,195);" />
<path d="M 3182.811,3115.110 A 1625.580,1625.580 0.00 0,1 3180.1,3118.0 L 3180.1,3118.0 3127.5,3069.5 3072.6,3021.1 3015.5,2972.9 2956.4,2924.7 2895.4,2876.5 2832.8,2828.2 2768.6,2779.8 2703.0,2731.3 2636.2,2682.6 2568.2,2633.7 2499.2,2584.6 2429.4,2535.3 2358.8,2485.8 2287.6,2436.0 2215.9,2386.0 2143.8,2335.9 2071.3,2285.6 1998.6,2235.2 1925.8,2184.7 1853.0,2134.2 1780.2,2083.7 1707.5,2033.4 1635.0,1983.1 1562.8,1933.2 1490.8,1883.5 1419.3,1834.3 1348.1,1785.5 1277.4,1737.4 1207.3,1690.1 1137.7,1643.6 1068.6,1598.0 1000.2,1553.6 932.4,1510.5 865.2,1468.7 798.7,1428.5 732.8,1390.1 667.6,1353.5 603.1,1319.1 539.2,1286.8  A 1625.580,1625.580 0.00 0,1 541.0,1283.2 L 541.0,1283.2 604.8,1315.6 669.3,1350.3 734.5,1387.0 800.3,1425.6 866.8,1465.9 933.9,1507.8 1001.7,1551.1 1070.1,1595.6 1139.1,1641.3 1208.6,1687.9 1278.8,1735.4 1349.4,1783.5 1420.5,1832.3 1492.0,1881.6 1564.0,1931.4 1636.2,1981.4 1708.7,2031.6 1781.4,2082.1 1854.2,2132.5 1927.0,2183.1 1999.8,2233.5 2072.5,2283.9 2145.0,2334.2 2217.2,2384.3 2288.9,2434.2 2360.2,2483.9 2430.8,2533.4 2500.7,2582.7 2569.7,2631.7 2637.8,2680.5 2704.7,2729.1 2770.4,2777.6 2834.7,2825.9 2897.5,2874.1 2958.6,2922.2 3017.8,2970.3 3075.0,3018.4 3130.1,3066.7 3182.8,3115.1  Z" style="stroke-width: 0.0;  fill: rgb(0,130,142);" />
<path d="M 3180.060,3118.020 A 1625.580,1625.580 0.00 0,1 3177.3,3120.9 L 3177.3,3120.9 3127.4,3075.0 3074.8,3029.7 3019.6,2984.8 2962.0,2940.5 2902.0,2896.6 2840.0,2853.2 2775.9,2810.3 2709.9,2767.9 2642.2,2725.9 2572.8,2684.5 2502.0,2643.5 2429.7,2603.0 2356.3,2563.1 2281.7,2523.7 2206.2,2484.9 2129.7,2446.7 2052.5,2409.1 1974.7,2372.3 1896.3,2336.1 1817.6,2300.7 1738.5,2266.1 1659.2,2232.4 1579.9,2199.7 1500.6,2167.9 1421.4,2137.2 1342.4,2107.6 1263.7,2079.2 1185.5,2052.1 1107.9,2026.3 1030.8,2002.0 954.4,1979.3 878.9,1958.1 804.3,1938.7 730.6,1921.1 658.0,1905.4 586.6,1891.8 516.4,1880.3 447.6,1871.1 380.1,1864.3  A 1625.580,1625.580 0.00 0,1 380.4,1860.3 L 380.4,1860.3 447.9,1867.3 516.8,1876.6 587.0,1888.3 658.5,1902.1 731.1,1917.9 804.7,1935.6 879.4,1955.2 955.0,1976.5 1031.3,1999.4 1108.4,2023.8 1186.1,2049.7 1264.3,2076.9 1343.0,2105.4 1422.0,2135.1 1501.2,2165.8 1580.6,2197.7 1660.0,2230.5 1739.3,2264.2 1818.4,2298.8 1897.2,2334.3 1975.6,2370.4 2053.5,2407.3 2130.8,2444.9 2207.3,2483.0 2282.9,2521.8 2357.5,2561.2 2431.1,2601.1 2503.4,2641.5 2574.3,2682.4 2643.8,2723.8 2711.6,2765.7 2777.7,2808.0 2841.9,2850.9 2904.1,2894.2 2964.2,2937.9 3021.9,2982.2 3077.2,3026.9 3130.0,3072.2 3180.1,3118.0  Z" style="stroke-width: 0.0;  fill: rgb(195,58,55);" />
<path d="M 3177.302,3120.924 A 1625.580,1625.580 0.00 0,1 3174.5,3123.8 L 3174.5,3123.8 3125.0,3078.0 3072.7,3032.8 3017.8,2988.1 2960.4,2944.0 2900.7,2900.4 2838.9,2857.3 2775.0,2814.8 2709.1,2772.8 2641.5,2731.3 2572.3,2690.3 2501.5,2650.0 2429.4,2610.2 2355.9,2571.0 2281.3,2532.4 2205.7,2494.5 2129.2,2457.2 2051.9,2420.7 1974.0,2384.9 1895.5,2349.9 1816.6,2315.8 1737.3,2282.5 1657.9,2250.2 1578.3,2218.9 1498.8,2188.7 1419.4,2159.5 1340.2,2131.6 1261.3,2104.9 1182.9,2079.6 1105.0,2055.7 1027.8,2033.2 951.2,2012.4 875.5,1993.2 800.8,1975.8 727.0,1960.2 654.4,1946.5 582.9,1935.0 512.8,1925.5 444.0,1918.4 376.7,1913.6  A 1625.580,1625.580 0.00 0,1 376.9,1909.6 L 376.9,1909.6 444.3,1914.6 513.1,1921.9 583.3,1931.5 654.7,1943.2 727.4,1957.0 801.2,1972.7 876.0,1990.3 951.7,2009.6 1028.2,2030.6 1105.5,2053.1 1183.4,2077.2 1261.9,2102.6 1340.7,2129.4 1420.0,2157.4 1499.4,2186.6 1579.0,2216.9 1658.6,2248.3 1738.1,2280.6 1817.3,2313.9 1896.3,2348.1 1974.9,2383.1 2052.9,2418.8 2130.2,2455.4 2206.8,2492.6 2282.5,2530.5 2357.2,2569.0 2430.7,2608.2 2502.9,2648.0 2573.8,2688.3 2643.2,2729.1 2710.9,2770.6 2776.8,2812.5 2840.8,2855.0 2902.8,2898.0 2962.6,2941.5 3020.1,2985.5 3075.1,3030.1 3127.6,3075.2 3177.3,3120.9  Z" style="stroke-width: 0.0;  fill: rgb(235,168,78);" />
<path d="M 3174.537,3123.820 A 1625.580,1625.580 0.00 0,1 3171.8,3126.7 L 3171.8,3126.7 3122.7,3081.2 3070.8,3036.3 3016.3,2992.0 2959.3,2948.2 2900.0,2905.1 2838.4,2862.6 2774.8,2820.8 2709.2,2779.5 2641.8,2738.9 2572.7,2698.9 2502.0,2659.6 2429.9,2621.0 2356.5,2583.1 2281.9,2545.9 2206.2,2509.5 2129.6,2473.9 2052.2,2439.1 1974.1,2405.2 1895.5,2372.3 1816.3,2340.2 1736.8,2309.2 1657.1,2279.3 1577.3,2250.5 1497.5,2222.8 1417.8,2196.4 1338.4,2171.2 1259.3,2147.4 1180.6,2125.0 1102.5,2104.1 1025.0,2084.8 948.3,2067.2 872.5,2051.2 797.6,2037.1 723.8,2024.8 651.2,2014.5 579.9,2006.3 509.9,2000.3 441.4,1996.5 374.4,1995.1  A 1625.580,1625.580 0.00 0,1 374.4,1991.1 L 374.4,1991.1 441.4,1992.7 510.0,1996.6 580.0,2002.8 651.4,2011.2 724.0,2021.6 797.8,2034.0 872.7,2048.3 948.6,2064.4 1025.3,2082.2 1102.8,2101.6 1181.0,2122.6 1259.7,2145.1 1338.8,2169.0 1418.3,2194.2 1498.1,2220.7 1577.9,2248.4 1657.8,2277.3 1737.5,2307.3 1817.0,2338.4 1896.2,2370.4 1975.0,2403.4 2053.1,2437.3 2130.6,2472.0 2207.3,2507.6 2283.0,2544.0 2357.7,2581.1 2431.2,2619.0 2503.4,2657.6 2574.2,2696.8 2643.4,2736.7 2710.9,2777.3 2776.6,2818.5 2840.4,2860.3 2902.1,2902.7 2961.5,2945.7 3018.7,2989.3 3073.3,3033.5 3125.3,3078.4 3174.5,3123.8  Z" style="stroke-width: 0.0;  fill: rgb(220,140,52);" />
<path d="M 3171.765,3126.711 A 1625.580,1625.580 0.00 0,1 3169.0,3129.6 L 3169.0,3129.6 3120.6,3084.6 3069.4,3040.2 3015.5,2996.6 2959.1,2953.7 2900.3,2911.5 2839.3,2870.0 2776.1,2829.4 2710.9,2789.5 2643.8,2750.4 2575.0,2712.1 2504.6,2674.7 2432.6,2638.1 2359.4,2602.5 2284.9,2567.8 2209.3,2534.1 2132.7,2501.3 2055.2,2469.6 1977.1,2439.0 1898.3,2409.5 1819.0,2381.2 1739.4,2354.1 1659.5,2328.2 1579.6,2303.6 1499.6,2280.4 1419.7,2258.5 1340.1,2238.1 1260.9,2219.2 1182.1,2201.9 1103.9,2186.2 1026.4,2172.2 949.7,2159.9 874.0,2149.4 799.4,2140.8 725.9,2134.2 653.7,2129.5 582.8,2127.0 513.5,2126.6 445.8,2128.4 379.8,2132.5  A 1625.580,1625.580 0.00 0,1 379.5,2128.5 L 379.5,2128.5 445.5,2124.6 513.3,2122.9 582.7,2123.4 653.5,2126.2 725.8,2130.9 799.4,2137.7 874.1,2146.5 949.8,2157.1 1026.5,2169.5 1104.0,2183.6 1182.3,2199.5 1261.1,2216.9 1340.4,2235.9 1420.1,2256.4 1500.0,2278.3 1580.0,2301.6 1660.1,2326.2 1740.0,2352.1 1819.7,2379.3 1899.0,2407.7 1977.8,2437.2 2056.1,2467.8 2133.6,2499.5 2210.3,2532.2 2286.0,2565.9 2360.6,2600.6 2433.9,2636.2 2506.0,2672.7 2576.5,2710.0 2645.4,2748.2 2712.6,2787.2 2777.9,2827.1 2841.2,2867.7 2902.4,2909.0 2961.3,2951.1 3017.9,2994.0 3071.9,3037.5 3123.2,3081.8 3171.8,3126.7  Z" style="stroke-width: 0.0;  fill: rgb(108,170,228);" />
<path d="M 3168.986,3129.594 A 1625.580,1625.580 0.00 0,1 3157.8,3141.1 L 3157.8,3141.1 3110.8,3096.6 3061.1,3053.0 3008.6,3010.2 2953.6,2968.4 2896.1,2927.4 2836.3,2887.5 2774.3,2848.5 2710.3,2810.6 2644.3,2773.8 2576.6,2738.1 2507.2,2703.6 2436.3,2670.3 2363.9,2638.2 2290.3,2607.4 2215.6,2578.0 2139.8,2549.9 2063.1,2523.1 1985.7,2497.8 1907.7,2474.0 1829.1,2451.7 1750.2,2430.9 1671.1,2411.7 1591.8,2394.1 1512.6,2378.1 1433.5,2363.9 1354.7,2351.3 1276.3,2340.5 1198.5,2331.6 1121.3,2324.4 1044.9,2319.1 969.5,2315.7 895.1,2314.3 821.9,2314.8 750.1,2317.3 679.6,2321.9 610.8,2328.6 543.7,2337.3 478.4,2348.2 415.1,2361.3  A 1625.580,1625.580 0.00 0,1 411.6,2345.7 L 411.6,2345.7 475.2,2333.2 540.8,2322.8 608.2,2314.7 677.3,2308.6 748.0,2304.6 820.2,2302.6 893.6,2302.6 968.3,2304.6 1044.0,2308.4 1120.6,2314.2 1198.1,2321.8 1276.2,2331.2 1354.9,2342.3 1433.9,2355.2 1513.3,2369.7 1592.9,2385.9 1672.4,2403.8 1751.9,2423.2 1831.1,2444.1 1910.0,2466.5 1988.4,2490.4 2066.2,2515.7 2143.2,2542.4 2219.4,2570.5 2294.6,2599.9 2368.6,2630.5 2441.3,2662.4 2512.7,2695.5 2582.6,2729.8 2650.8,2765.2 2717.2,2801.8 2781.7,2839.4 2844.2,2878.0 2904.5,2917.6 2962.5,2958.2 3018.1,2999.8 3071.1,3042.2 3121.5,3085.5 3169.0,3129.6  Z" style="stroke-width: 0.0;  fill: rgb(200,108,30);" />
<path d="M 3157.799,3141.058 A 1625.580,1625.580 0.00 0,1 3153.6,3145.3 L 3153.6,3145.3 3107.7,3101.7 3059.0,3058.9 3007.6,3017.2 2953.7,2976.5 2897.4,2937.0 2838.7,2898.7 2777.9,2861.6 2715.1,2825.8 2650.3,2791.4 2583.8,2758.4 2515.6,2726.9 2445.9,2696.9 2374.8,2668.4 2302.4,2641.5 2229.0,2616.3 2154.5,2592.7 2079.2,2570.9 2003.1,2550.8 1926.5,2532.5 1849.4,2516.0 1771.9,2501.4 1694.3,2488.6 1616.6,2477.7 1539.0,2468.8 1461.7,2461.7 1384.7,2456.7 1308.1,2453.6 1232.2,2452.5 1157.1,2453.4 1082.9,2456.3 1009.7,2461.2 937.8,2468.1 867.1,2477.1 797.9,2488.1 730.3,2501.1 664.5,2516.2 600.6,2533.3 538.7,2552.3 478.9,2573.4  A 1625.580,1625.580 0.00 0,1 476.8,2567.8 L 476.8,2567.8 536.7,2546.9 598.7,2528.0 662.8,2511.2 728.8,2496.3 796.5,2483.5 865.8,2472.7 936.6,2463.9 1008.7,2457.1 1082.0,2452.4 1156.4,2449.6 1231.6,2448.9 1307.6,2450.1 1384.3,2453.4 1461.5,2458.5 1539.0,2465.7 1616.7,2474.7 1694.5,2485.7 1772.3,2498.5 1849.9,2513.2 1927.1,2529.7 2003.9,2548.0 2080.2,2568.1 2155.7,2590.0 2230.3,2613.5 2303.9,2638.7 2376.5,2665.5 2447.7,2693.9 2517.6,2723.9 2586.0,2755.3 2652.7,2788.2 2717.7,2822.5 2780.7,2858.2 2841.7,2895.2 2900.6,2933.4 2957.1,2972.8 3011.2,3013.3 3062.8,3054.9 3111.7,3097.5 3157.8,3141.1  Z" style="stroke-width: 0.0;  fill: rgb(82,145,215);" />
<path d="M 3153.574,3145.328 A 1625.580,1625.580 0.00 0,1 3147.9,3151.0 L 3147.9,3151.0 3103.5,3108.4 3056.4,3066.8 3006.7,3026.5 2954.5,2987.5 2900.0,2949.9 2843.3,2913.7 2784.6,2879.1 2723.9,2846.2 2661.4,2815.1 2597.2,2785.7 2531.5,2758.2 2464.4,2732.6 2396.0,2709.1 2326.5,2687.5 2255.9,2668.0 2184.5,2650.7 2112.4,2635.5 2039.6,2622.6 1966.4,2611.8 1892.8,2603.3 1819.1,2597.0 1745.3,2593.0 1671.6,2591.3 1598.1,2591.8 1524.9,2594.6 1452.3,2599.7 1380.3,2607.0 1309.2,2616.6 1238.9,2628.3 1169.7,2642.2 1101.8,2658.3 1035.2,2676.4 970.1,2696.6 906.6,2718.9 845.0,2743.0 785.3,2769.1 727.7,2797.0 672.3,2826.6 619.3,2858.0  A 1625.580,1625.580 0.00 0,1 615.1,2851.2 L 615.1,2851.2 668.3,2820.0 723.9,2790.6 781.7,2762.9 841.7,2737.1 903.5,2713.2 967.2,2691.2 1032.5,2671.2 1099.4,2653.2 1167.6,2637.4 1237.0,2623.6 1307.5,2612.1 1378.9,2602.7 1451.1,2595.5 1524.0,2590.6 1597.4,2587.9 1671.1,2587.5 1745.1,2589.3 1819.1,2593.4 1893.1,2599.7 1966.9,2608.2 2040.4,2619.0 2113.4,2632.0 2185.8,2647.1 2257.5,2664.4 2328.3,2683.8 2398.1,2705.3 2466.8,2728.8 2534.2,2754.2 2600.2,2781.6 2664.6,2810.8 2727.4,2841.9 2788.3,2874.6 2847.4,2909.0 2904.3,2945.0 2959.1,2982.5 3011.5,3021.3 3061.5,3061.5 3108.9,3102.9 3153.6,3145.3  Z" style="stroke-width: 0.0;  fill: rgb(60,120,198);" />
<path d="M 3147.917,3150.998 A 1625.580,1625.580 0.00 0,1 3142.2,3156.6 L 3142.2,3156.6 3099.5,3115.3 3054.3,3075.1 3006.8,3036.4 2957.1,2999.2 2905.3,2963.7 2851.5,2930.0 2796.0,2898.3 2738.8,2868.6 2680.0,2841.0 2619.9,2815.7 2558.5,2792.8 2496.0,2772.2 2432.5,2754.2 2368.2,2738.6 2303.1,2725.7 2237.4,2715.4 2171.3,2707.7 2104.9,2702.8 2038.2,2700.5 1971.6,2701.0 1905.0,2704.2 1838.6,2710.1 1772.6,2718.6 1707.1,2729.9 1642.2,2743.7 1578.1,2760.2 1514.9,2779.1 1452.6,2800.5 1391.6,2824.4 1331.8,2850.5 1273.5,2878.9 1216.7,2909.4 1161.6,2941.9 1108.3,2976.3 1057.0,3012.5 1007.8,3050.4 960.9,3089.8 916.2,3130.6 874.1,3172.6  A 1625.580,1625.580 0.00 0,1 868.3,3167.0 L 868.3,3167.0 910.7,3125.2 955.6,3084.6 1002.9,3045.3 1052.4,3007.6 1103.9,2971.6 1157.5,2937.3 1212.9,2905.0 1269.9,2874.6 1328.6,2846.4 1388.6,2820.4 1450.0,2796.7 1512.5,2775.4 1576.1,2756.5 1640.5,2740.2 1705.7,2726.4 1771.5,2715.2 1837.8,2706.7 1904.5,2700.9 1971.4,2697.7 2038.4,2697.2 2105.3,2699.5 2172.1,2704.4 2238.5,2712.0 2304.5,2722.2 2369.8,2735.1 2434.5,2750.5 2498.3,2768.5 2561.1,2788.9 2622.8,2811.7 2683.2,2836.9 2742.3,2864.3 2799.8,2893.8 2855.6,2925.4 2909.6,2958.9 2961.7,2994.2 3011.7,3031.2 3059.5,3069.8 3104.9,3109.8 3147.9,3151.0  Z" style="stroke-width: 0.0;  fill: rgb(28,75,160);" />
<path d="M 3142.232,3156.640 A 1625.580,1625.580 0.00 0,1 3135.1,3163.7 L 3135.1,3163.7 3094.8,3124.0 3052.7,3085.6 3008.9,3048.9 2963.5,3013.9 2916.8,2980.8 2868.8,2949.9 2819.8,2921.4 2769.8,2895.3 2719.1,2871.8 2667.8,2851.1 2615.9,2833.3 2563.7,2818.4 2511.3,2806.6 2458.9,2797.9 2406.4,2792.4 2354.2,2790.2 2302.2,2791.2 2250.7,2795.5 2199.7,2803.1 2149.3,2813.9 2099.7,2828.1 2051.0,2845.4 2003.2,2865.9 1956.5,2889.5 1911.0,2916.1 1866.8,2945.7 1823.9,2978.1 1782.5,3013.1 1742.7,3050.7 1704.4,3090.8 1667.9,3133.1 1633.1,3177.4 1600.2,3223.7 1569.3,3271.6 1540.3,3321.0 1513.4,3371.6 1488.7,3423.2 1466.1,3475.5 1445.8,3528.2  A 1625.580,1625.580 0.00 0,1 1436.4,3524.8 L 1436.4,3524.8 1457.1,3472.1 1480.0,3419.8 1505.2,3368.3 1532.5,3317.8 1561.8,3268.5 1593.2,3220.6 1626.5,3174.4 1661.7,3130.1 1698.7,3087.9 1737.4,3047.9 1777.8,3010.3 1819.7,2975.2 1863.0,2942.9 1907.7,2913.3 1953.7,2886.7 2000.9,2863.0 2049.1,2842.5 2098.3,2825.1 2148.4,2810.8 2199.2,2799.9 2250.7,2792.2 2302.7,2787.7 2355.1,2786.6 2407.8,2788.7 2460.7,2794.0 2513.6,2802.5 2566.5,2814.1 2619.1,2828.7 2671.3,2846.4 2723.1,2866.8 2774.2,2890.1 2824.6,2915.9 2874.0,2944.2 2922.3,2974.9 2969.4,3007.7 3015.1,3042.5 3059.2,3079.0 3101.7,3117.2 3142.2,3156.6  Z" style="stroke-width: 0.0;  fill: rgb(42,98,180);" />
<path d="M 3135.087,3163.652 A 1625.580,1625.580 0.00 0,1 3126.5,3172.0 L 3126.5,3172.0 3088.3,3133.4 3049.1,3095.9 3009.1,3059.8 2968.5,3025.4 2927.5,2992.9 2886.3,2962.6 2845.0,2934.5 2803.8,2909.0 2762.9,2886.2 2722.4,2866.3 2682.5,2849.4 2643.4,2835.5 2605.0,2824.9 2567.7,2817.6 2531.4,2813.7 2496.4,2813.2 2462.6,2816.2 2430.3,2822.7 2399.4,2832.7 2370.0,2846.1 2342.3,2863.0 2316.3,2883.3 2292.0,2906.9 2269.5,2933.8 2248.8,2963.8 2229.9,2996.8 2213.0,3032.8 2197.9,3071.5 2184.7,3112.8 2173.3,3156.5 2163.9,3202.3 2156.3,3250.2 2150.6,3299.8 2146.7,3350.8 2144.5,3403.1 2144.1,3456.3 2145.3,3510.2 2148.1,3564.3 2152.5,3618.4  A 1625.580,1625.580 0.00 0,1 2140.5,3619.5 L 2140.5,3619.5 2136.6,3565.3 2134.2,3511.1 2133.4,3457.1 2134.4,3403.8 2137.0,3351.4 2141.5,3300.2 2147.8,3250.5 2155.9,3202.5 2165.9,3156.5 2177.8,3112.7 2191.6,3071.2 2207.3,3032.3 2224.9,2996.2 2244.4,2962.9 2265.7,2932.7 2288.8,2905.6 2313.7,2881.7 2340.4,2861.2 2368.7,2844.0 2398.7,2830.3 2430.2,2820.0 2463.1,2813.2 2497.5,2809.9 2533.1,2810.1 2569.9,2813.7 2607.8,2820.7 2646.7,2830.9 2686.4,2844.4 2726.8,2861.0 2767.8,2880.6 2809.2,2903.1 2850.8,2928.3 2892.6,2956.0 2934.3,2986.0 2975.7,3018.2 3016.7,3052.3 3057.1,3088.1 3096.6,3125.3 3135.1,3163.7  Z" style="stroke-width: 0.0;  fill: rgb(15,52,135);" />
</g>
<defs>
<pattern id="vline" width="10" height="10" patternTransform="rotate(0 0 0)" patternUnits="userSpaceOnUse"><line x1="0" y1="0" x2="0" y2="10" style="stroke:black;stroke-width:5" /></pattern>
<pattern id="vline-sparse" width="10" height="10" patternTransform="rotate(0 0 0)" patternUnits="userSpaceOnUse"><line x1="0" y1="0" x2="0" y2="10" style="stroke:black;stroke-width:2" /></pattern>
<pattern id="checker" width="10" height="10" patternTransform="rotate(45 0 0)" patternUnits="userSpaceOnUse"><line x1="0" y1="0" x2="10" y2="0" style="stroke:black;stroke-width:2" /><line x1="0" y1="0" x2="0" y2="10" style="stroke:black;stroke-width:2" /></pattern>
<pattern id="hline-sparse" width="10" height="10" patternTransform="rotate(0 0 0)" patternUnits="userSpaceOnUse"><line x1="0" y1="0" x2="10" y2="0" style="stroke:black;stroke-width:2" /></pattern>
<pattern id="checker" width="10" height="10" patternTransform="rotate(45 0 0)" patternUnits="userSpaceOnUse"><line x1="0" y1="0" x2="10" y2="0" style="stroke:black;stroke-width:5" /><line x1="0" y1="0" x2="0" y2="10" style="stroke:black;stroke-width:4" /></pattern>
<pattern id="hline" width="10" height="10" patternTransform="rotate(0 0 0)" patternUnits="userSpaceOnUse"><line x1="0" y1="0" x2="10" y2="0" style="stroke:black;stroke-width:5" /></pattern>
</defs>
</svg>
