<?xml version="1.0" encoding="utf-8" standalone="no"?>
<!DOCTYPE svg PUBLIC "-//W3C//DTD SVG 1.1//EN" "http://www.w3.org/Graphics/SVG/1.1/DTD/svg11.dtd">
<svg width="4000px" height="4000px" version="1.1" xmlns="http://www.w3.org/2000/svg" xmlns:xlink="http://www.w3.org/1999/xlink">
<g id="bg">
<rect x="0" y="0" width="4000px" height="4000px" style="fill:rgb(255,255,255);"/>
</g>
<g id="ideograms">
<path d="M2000.000,358.000 A1642.000,1642.000 40.000 0,1 2727.139,527.779 L2743.967,493.709 A1680.000,1680.000 0.000 0,0 2000.000,320.000 Z" style="stroke-width:2.0;stroke:rgb(255,255,255);stroke-linecap:round;fill:rgb(185,185,185);" />
<text x="2412.3" y="302.2" font-size="36.4px" font-family="CMUBright-Roman" style="text-anchor:start;fill:rgb(0,0,0);" transform="rotate(283.1,2412.3,302.2)" >Engineering</text>
<path d="M2000.000,358.000 A1642.000,1642.000 40.000 0,1 2727.139,527.779 L2743.967,493.709 A1680.000,1680.000 0.000 0,0 2000.000,320.000 Z" style="stroke-width:2.0;stroke:rgb(255,255,255);stroke-linecap:round;fill:none;" />
<path d="M2759.082,543.992 A1642.000,1642.000 40.000 0,1 3284.099,976.646 L3313.816,952.963 A1680.000,1680.000 0.000 0,0 2776.649,510.297 Z" style="stroke-width:2.0;stroke:rgb(255,255,255);stroke-linecap:round;fill:rgb(185,185,185);" />
<text x="3120.8" y="659.6" font-size="36.4px" font-family="CMUBright-Roman" style="text-anchor:start;fill:rgb(0,0,0);" transform="rotate(309.5,3120.8,659.6)" >Finance-Investment</text>
<path d="M2759.082,543.992 A1642.000,1642.000 40.000 0,1 3284.099,976.646 L3313.816,952.963 A1680.000,1680.000 0.000 0,0 2776.649,510.297 Z" style="stroke-width:2.0;stroke:rgb(255,255,255);stroke-linecap:round;fill:none;" />
<path d="M3306.118,1004.902 A1642.000,1642.000 40.000 0,1 3557.132,1478.938 L3593.167,1466.879 A1680.000,1680.000 0.000 0,0 3336.345,981.873 Z" style="stroke-width:2.0;stroke:rgb(255,255,255);stroke-linecap:round;fill:rgb(185,185,185);" />
<text x="3551.5" y="1196.5" font-size="36.4px" font-family="CMUBright-Roman" style="text-anchor:start;fill:rgb(0,0,0);" transform="rotate(332.1,3551.5,1196.5)" >Management-Operations</text>
<path d="M3306.118,1004.902 A1642.000,1642.000 40.000 0,1 3557.132,1478.938 L3593.167,1466.879 A1680.000,1680.000 0.000 0,0 3336.345,981.873 Z" style="stroke-width:2.0;stroke:rgb(255,255,255);stroke-linecap:round;fill:none;" />
<path d="M3568.128,1513.031 A1642.000,1642.000 40.000 0,1 3640.479,1929.339 L3678.444,1927.703 A1680.000,1680.000 0.000 0,0 3604.418,1501.761 Z" style="stroke-width:2.0;stroke:rgb(255,255,255);stroke-linecap:round;fill:rgb(185,185,185);" />
<text x="3723.5" y="1713.2" font-size="36.4px" font-family="CMUBright-Roman" style="text-anchor:start;fill:rgb(0,0,0);" transform="rotate(350.1,3723.5,1713.2)" >Software-Data</text>
<path d="M3568.128,1513.031 A1642.000,1642.000 40.000 0,1 3640.479,1929.339 L3678.444,1927.703 A1680.000,1680.000 0.000 0,0 3604.418,1501.761 Z" style="stroke-width:2.0;stroke:rgb(255,255,255);stroke-linecap:round;fill:none;" />
<path d="M3641.630,1965.142 A1642.000,1642.000 40.000 0,1 3597.388,2380.151 L3634.356,2388.948 A1680.000,1680.000 0.000 0,0 3679.621,1964.336 Z" style="stroke-width:2.0;stroke:rgb(255,255,255);stroke-linecap:round;fill:rgb(185,185,185);" />
<text x="3735.6" y="2201.1" font-size="36.4px" font-family="CMUBright-Roman" style="text-anchor:start;fill:rgb(0,0,0);" transform="rotate(6.1,3735.6,2201.1)" >Sales-Marketing</text>
<path d="M3641.630,1965.142 A1642.000,1642.000 40.000 0,1 3597.388,2380.151 L3634.356,2388.948 A1680.000,1680.000 0.000 0,0 3679.621,1964.336 Z" style="stroke-width:2.0;stroke:rgb(255,255,255);stroke-linecap:round;fill:none;" />
<path d="M3588.715,2414.907 A1642.000,1642.000 40.000 0,1 3447.858,2774.513 L3481.365,2792.437 A1680.000,1680.000 0.000 0,0 3625.482,2424.509 Z" style="stroke-width:2.0;stroke:rgb(255,255,255);stroke-linecap:round;fill:rgb(185,185,185);" />
<text x="3620.9" y="2652.1" font-size="36.4px" font-family="CMUBright-Roman" style="text-anchor:start;fill:rgb(0,0,0);" transform="rotate(21.4,3620.9,2652.1)" >Accounting-Audit</text>
<path d="M3588.715,2414.907 A1642.000,1642.000 40.000 0,1 3447.858,2774.513 L3481.365,2792.437 A1680.000,1680.000 0.000 0,0 3625.482,2424.509 Z" style="stroke-width:2.0;stroke:rgb(255,255,255);stroke-linecap:round;fill:none;" />
<path d="M3430.618,2805.914 A1642.000,1642.000 40.000 0,1 3261.549,3051.027 L3290.745,3075.350 A1680.000,1680.000 0.000 0,0 3463.726,2824.565 Z" style="stroke-width:2.0;stroke:rgb(255,255,255);stroke-linecap:round;fill:rgb(185,185,185);" />
<text x="3429.4" y="3004.8" font-size="36.4px" font-family="CMUBright-Roman" style="text-anchor:start;fill:rgb(0,0,0);" transform="rotate(34.6,3429.4,3004.8)" >Leadership-General</text>
<path d="M3430.618,2805.914 A1642.000,1642.000 40.000 0,1 3261.549,3051.027 L3290.745,3075.350 A1680.000,1680.000 0.000 0,0 3463.726,2824.565 Z" style="stroke-width:2.0;stroke:rgb(255,255,255);stroke-linecap:round;fill:none;" />
<path d="M3238.321,3078.297 A1642.000,1642.000 40.000 0,1 3039.505,3271.060 L3063.562,3300.476 A1680.000,1680.000 0.000 0,0 3266.979,3103.252 Z" style="stroke-width:2.0;stroke:rgb(255,255,255);stroke-linecap:round;fill:rgb(185,185,185);" />
<text x="3207.2" y="3263.1" font-size="36.4px" font-family="CMUBright-Roman" style="text-anchor:start;fill:rgb(0,0,0);" transform="rotate(45.9,3207.2,3263.1)" >Clinical-Care</text>
<path d="M3238.321,3078.297 A1642.000,1642.000 40.000 0,1 3039.505,3271.060 L3063.562,3300.476 A1680.000,1680.000 0.000 0,0 3266.979,3103.252 Z" style="stroke-width:2.0;stroke:rgb(255,255,255);stroke-linecap:round;fill:none;" />
<path d="M3011.529,3293.434 A1642.000,1642.000 40.000 0,1 2784.385,3442.534 L2802.537,3475.918 A1680.000,1680.000 0.000 0,0 3034.939,3323.368 Z" style="stroke-width:2.0;stroke:rgb(255,255,255);stroke-linecap:round;fill:rgb(185,185,185);" />
<text x="2948.3" y="3467.5" font-size="36.4px" font-family="CMUBright-Roman" style="text-anchor:start;fill:rgb(0,0,0);" transform="rotate(56.7,2948.3,3467.5)" >Research-Science</text>
<path d="M3011.529,3293.434 A1642.000,1642.000 40.000 0,1 2784.385,3442.534 L2802.537,3475.918 A1680.000,1680.000 0.000 0,0 3034.939,3323.368 Z" style="stroke-width:2.0;stroke:rgb(255,255,255);stroke-linecap:round;fill:none;" />
<path d="M2752.729,3459.302 A1642.000,1642.000 40.000 0,1 2556.245,3544.913 L2569.118,3580.666 A1680.000,1680.000 0.000 0,0 2770.149,3493.074 Z" style="stroke-width:2.0;stroke:rgb(255,255,255);stroke-linecap:round;fill:rgb(185,185,185);" />
<text x="2686.4" y="3606.7" font-size="36.4px" font-family="CMUBright-Roman" style="text-anchor:start;fill:rgb(0,0,0);" transform="rotate(66.5,2686.4,3606.7)" >Education</text>
<path d="M2752.729,3459.302 A1642.000,1642.000 40.000 0,1 2556.245,3544.913 L2569.118,3580.666 A1680.000,1680.000 0.000 0,0 2770.149,3493.074 Z" style="stroke-width:2.0;stroke:rgb(255,255,255);stroke-linecap:round;fill:none;" />
<path d="M2522.411,3556.679 A1642.000,1642.000 40.000 0,1 2417.174,3588.121 L2426.829,3624.875 A1680.000,1680.000 0.000 0,0 2534.501,3592.705 Z" style="stroke-width:2.0;stroke:rgb(255,255,255);stroke-linecap:round;fill:rgb(185,185,185);" />
<text x="2488.2" y="3677.6" font-size="36.4px" font-family="CMUBright-Roman" style="text-anchor:start;fill:rgb(0,0,0);" transform="rotate(73.4,2488.2,3677.6)" >IT-Infrastructure</text>
<path d="M2522.411,3556.679 A1642.000,1642.000 40.000 0,1 2417.174,3588.121 L2426.829,3624.875 A1680.000,1680.000 0.000 0,0 2534.501,3592.705 Z" style="stroke-width:2.0;stroke:rgb(255,255,255);stroke-linecap:round;fill:none;" />
<path d="M2382.430,3596.844 A1642.000,1642.000 40.000 0,1 2321.118,3610.294 L2328.550,3647.560 A1680.000,1680.000 0.000 0,0 2391.281,3633.799 Z" style="stroke-width:2.0;stroke:rgb(255,255,255);stroke-linecap:round;fill:rgb(185,185,185);" />
<text x="2358.7" y="3710.0" font-size="36.4px" font-family="CMUBright-Roman" style="text-anchor:start;fill:rgb(0,0,0);" transform="rotate(77.6,2358.7,3710.0)" >Legal-Policy</text>
<path d="M2382.430,3596.844 A1642.000,1642.000 40.000 0,1 2321.118,3610.294 L2328.550,3647.560 A1680.000,1680.000 0.000 0,0 2391.281,3633.799 Z" style="stroke-width:2.0;stroke:rgb(255,255,255);stroke-linecap:round;fill:none;" />
<path d="M2285.913,3616.916 A1642.000,1642.000 40.000 0,1 2249.787,3622.890 L2255.567,3660.447 A1680.000,1680.000 0.000 0,0 2292.530,3654.336 Z" style="stroke-width:2.0;stroke:rgb(255,255,255);stroke-linecap:round;fill:rgb(185,185,185);" />
<text x="2272.7" y="3725.8" font-size="36.4px" font-family="CMUBright-Roman" style="text-anchor:start;fill:rgb(0,0,0);" transform="rotate(80.6,2272.7,3725.8)" >Social-Service</text>
<path d="M2285.913,3616.916 A1642.000,1642.000 40.000 0,1 2249.787,3622.890 L2255.567,3660.447 A1680.000,1680.000 0.000 0,0 2292.530,3654.336 Z" style="stroke-width:2.0;stroke:rgb(255,255,255);stroke-linecap:round;fill:none;" />
<path d="M2214.324,3627.952 A1642.000,1642.000 40.000 0,1 1245.263,3458.265 L1227.797,3492.013 A1680.000,1680.000 0.000 0,0 2219.284,3665.627 Z" style="stroke-width:2.0;stroke:rgb(255,255,255);stroke-linecap:round;fill:rgb(15,52,135);" />
<text x="1714.4" y="3723.7" font-size="36.4px" font-family="CMUBright-Roman" style="text-anchor:end;fill:rgb(0,0,0);" transform="rotate(-80.1,1714.4,3723.7)" >Finance-Accounting</text>
<path d="M2214.324,3627.952 A1642.000,1642.000 40.000 0,1 1245.263,3458.265 L1227.797,3492.013 A1680.000,1680.000 0.000 0,0 2219.284,3665.627 Z" style="stroke-width:2.0;stroke:rgb(255,255,255);stroke-linecap:round;fill:none;" />
<path d="M1213.631,3441.453 A1642.000,1642.000 40.000 0,1 879.437,3200.209 L853.504,3227.985 A1680.000,1680.000 0.000 0,0 1195.432,3474.812 Z" style="stroke-width:2.0;stroke:rgb(255,255,255);stroke-linecap:round;fill:rgb(28,75,160);" />
<text x="990.4" y="3426.0" font-size="36.4px" font-family="CMUBright-Roman" style="text-anchor:end;fill:rgb(0,0,0);" transform="rotate(-54.2,990.4,3426.0)" >Marketing-Communication</text>
<path d="M1213.631,3441.453 A1642.000,1642.000 40.000 0,1 879.437,3200.209 L853.504,3227.985 A1680.000,1680.000 0.000 0,0 1195.432,3474.812 Z" style="stroke-width:2.0;stroke:rgb(255,255,255);stroke-linecap:round;fill:none;" />
<path d="M853.521,3175.478 A1642.000,1642.000 40.000 0,1 639.254,2918.986 L607.763,2940.253 A1680.000,1680.000 0.000 0,0 826.988,3202.682 Z" style="stroke-width:2.0;stroke:rgb(255,255,255);stroke-linecap:round;fill:rgb(42,98,180);" />
<text x="667.2" y="3129.7" font-size="36.4px" font-family="CMUBright-Roman" style="text-anchor:end;fill:rgb(0,0,0);" transform="rotate(-39.9,667.2,3129.7)" >General-Business</text>
<path d="M853.521,3175.478 A1642.000,1642.000 40.000 0,1 639.254,2918.986 L607.763,2940.253 A1680.000,1680.000 0.000 0,0 826.988,3202.682 Z" style="stroke-width:2.0;stroke:rgb(255,255,255);stroke-linecap:round;fill:none;" />
<path d="M619.530,2889.082 A1642.000,1642.000 40.000 0,1 479.680,2620.315 L444.496,2634.671 A1680.000,1680.000 0.000 0,0 587.583,2909.658 Z" style="stroke-width:2.0;stroke:rgb(255,255,255);stroke-linecap:round;fill:rgb(60,120,198);" />
<text x="457.3" y="2820.2" font-size="36.4px" font-family="CMUBright-Roman" style="text-anchor:end;fill:rgb(0,0,0);" transform="rotate(-27.5,457.3,2820.2)" >Operations-Analytics</text>
<path d="M619.530,2889.082 A1642.000,1642.000 40.000 0,1 479.680,2620.315 L444.496,2634.671 A1680.000,1680.000 0.000 0,0 587.583,2909.658 Z" style="stroke-width:2.0;stroke:rgb(255,255,255);stroke-linecap:round;fill:none;" />
<path d="M466.510,2587.002 A1642.000,1642.000 40.000 0,1 421.749,2453.087 L385.224,2463.573 A1680.000,1680.000 0.000 0,0 431.021,2600.587 Z" style="stroke-width:2.0;stroke:rgb(255,255,255);stroke-linecap:round;fill:rgb(82,145,215);" />
<text x="347.9" y="2568.6" font-size="36.4px" font-family="CMUBright-Roman" style="text-anchor:end;fill:rgb(0,0,0);" transform="rotate(-18.5,347.9,2568.6)" >Specialized-Business</text>
<path d="M466.510,2587.002 A1642.000,1642.000 40.000 0,1 421.749,2453.087 L385.224,2463.573 A1680.000,1680.000 0.000 0,0 431.021,2600.587 Z" style="stroke-width:2.0;stroke:rgb(255,255,255);stroke-linecap:round;fill:none;" />
<path d="M412.241,2418.550 A1642.000,1642.000 40.000 0,1 391.911,2331.987 L354.696,2339.670 A1680.000,1680.000 0.000 0,0 375.496,2428.236 Z" style="stroke-width:2.0;stroke:rgb(255,255,255);stroke-linecap:round;fill:rgb(108,170,228);" />
<text x="301.9" y="2411.1" font-size="36.4px" font-family="CMUBright-Roman" style="text-anchor:end;fill:rgb(0,0,0);" transform="rotate(-13.2,301.9,2411.1)" >Economics</text>
<path d="M412.241,2418.550 A1642.000,1642.000 40.000 0,1 391.911,2331.987 L354.696,2339.670 A1680.000,1680.000 0.000 0,0 375.496,2428.236 Z" style="stroke-width:2.0;stroke:rgb(255,255,255);stroke-linecap:round;fill:none;" />
<path d="M385.052,2296.827 A1642.000,1642.000 40.000 0,1 366.030,2162.194 L328.216,2165.947 A1680.000,1680.000 0.000 0,0 347.678,2303.697 Z" style="stroke-width:2.0;stroke:rgb(255,255,255);stroke-linecap:round;fill:rgb(200,108,30);" />
<text x="271.8" y="2256.8" font-size="36.4px" font-family="CMUBright-Roman" style="text-anchor:end;fill:rgb(0,0,0);" transform="rotate(-8.0,271.8,2256.8)" >Social-Sciences</text>
<path d="M385.052,2296.827 A1642.000,1642.000 40.000 0,1 366.030,2162.194 L328.216,2165.947 A1680.000,1680.000 0.000 0,0 347.678,2303.697 Z" style="stroke-width:2.0;stroke:rgb(255,255,255);stroke-linecap:round;fill:none;" />
<path d="M362.881,2126.510 A1642.000,1642.000 40.000 0,1 359.682,2074.299 L321.721,2076.018 A1680.000,1680.000 0.000 0,0 324.994,2129.438 Z" style="stroke-width:2.0;stroke:rgb(255,255,255);stroke-linecap:round;fill:rgb(220,140,52);" />
<text x="256.9" y="2119.3" font-size="36.4px" font-family="CMUBright-Roman" style="text-anchor:end;fill:rgb(0,0,0);" transform="rotate(-3.5,256.9,2119.3)" >Humanities-Liberal-Arts</text>
<path d="M362.881,2126.510 A1642.000,1642.000 40.000 0,1 359.682,2074.299 L321.721,2076.018 A1680.000,1680.000 0.000 0,0 324.994,2129.438 Z" style="stroke-width:2.0;stroke:rgb(255,255,255);stroke-linecap:round;fill:none;" />
<path d="M358.451,2038.498 A1642.000,1642.000 40.000 0,1 358.158,2022.807 L320.162,2023.335 A1680.000,1680.000 0.000 0,0 320.462,2039.389 Z" style="stroke-width:2.0;stroke:rgb(255,255,255);stroke-linecap:round;fill:rgb(235,168,78);" />
<text x="253.4" y="2045.1" font-size="36.4px" font-family="CMUBright-Roman" style="text-anchor:end;fill:rgb(0,0,0);" transform="rotate(-1.1,253.4,2045.1)" >International-Studies</text>
<path d="M358.451,2038.498 A1642.000,1642.000 40.000 0,1 358.158,2022.807 L320.162,2023.335 A1680.000,1680.000 0.000 0,0 320.462,2039.389 Z" style="stroke-width:2.0;stroke:rgb(255,255,255);stroke-linecap:round;fill:none;" />
<path d="M358.052,1986.985 A1642.000,1642.000 40.000 0,1 367.336,1825.152 L329.552,1821.105 A1680.000,1680.000 0.000 0,0 320.053,1986.684 Z" style="stroke-width:2.0;stroke:rgb(255,255,255);stroke-linecap:round;fill:rgb(175,35,42);" />
<text x="255.0" y="1912.4" font-size="36.4px" font-family="CMUBright-Roman" style="text-anchor:end;fill:rgb(0,0,0);" transform="rotate(3.3,255.0,1912.4)" >Teacher-Education</text>
<path d="M358.052,1986.985 A1642.000,1642.000 40.000 0,1 367.336,1825.152 L329.552,1821.105 A1680.000,1680.000 0.000 0,0 320.053,1986.684 Z" style="stroke-width:2.0;stroke:rgb(255,255,255);stroke-linecap:round;fill:none;" />
<path d="M371.539,1789.577 A1642.000,1642.000 40.000 0,1 376.636,1753.316 L339.067,1747.607 A1680.000,1680.000 0.000 0,0 333.852,1784.707 Z" style="stroke-width:2.0;stroke:rgb(255,255,255);stroke-linecap:round;fill:rgb(195,58,55);" />
<text x="268.1" y="1769.2" font-size="36.4px" font-family="CMUBright-Roman" style="text-anchor:end;fill:rgb(0,0,0);" transform="rotate(8.0,268.1,1769.2)" >Social-Work</text>
<path d="M371.539,1789.577 A1642.000,1642.000 40.000 0,1 376.636,1753.316 L339.067,1747.607 A1680.000,1680.000 0.000 0,0 333.852,1784.707 Z" style="stroke-width:2.0;stroke:rgb(255,255,255);stroke-linecap:round;fill:none;" />
<path d="M382.404,1717.961 A1642.000,1642.000 40.000 0,1 388.090,1687.094 L350.786,1679.853 A1680.000,1680.000 0.000 0,0 344.968,1711.434 Z" style="stroke-width:2.0;stroke:rgb(255,255,255);stroke-linecap:round;fill:rgb(215,82,72);" />
<text x="279.0" y="1698.7" font-size="36.4px" font-family="CMUBright-Roman" style="text-anchor:end;fill:rgb(0,0,0);" transform="rotate(10.4,279.0,1698.7)" >Special-Education</text>
<path d="M382.404,1717.961 A1642.000,1642.000 40.000 0,1 388.090,1687.094 L350.786,1679.853 A1680.000,1680.000 0.000 0,0 344.968,1711.434 Z" style="stroke-width:2.0;stroke:rgb(255,255,255);stroke-linecap:round;fill:none;" />
<path d="M395.300,1652.005 A1642.000,1642.000 40.000 0,1 396.416,1646.895 L359.305,1638.723 A1680.000,1680.000 0.000 0,0 358.163,1643.952 Z" style="stroke-width:2.0;stroke:rgb(255,255,255);stroke-linecap:round;fill:rgb(230,112,95);" />
<text x="289.8" y="1642.1" font-size="36.4px" font-family="CMUBright-Roman" style="text-anchor:end;fill:rgb(0,0,0);" transform="rotate(12.3,289.8,1642.1)" >Educational-Leadership</text>
<path d="M395.300,1652.005 A1642.000,1642.000 40.000 0,1 396.416,1646.895 L359.305,1638.723 A1680.000,1680.000 0.000 0,0 358.163,1643.952 Z" style="stroke-width:2.0;stroke:rgb(255,255,255);stroke-linecap:round;fill:none;" />
<path d="M404.501,1611.997 A1642.000,1642.000 40.000 0,1 423.388,1541.244 L386.901,1530.627 A1680.000,1680.000 0.000 0,0 367.577,1603.017 Z" style="stroke-width:2.0;stroke:rgb(255,255,255);stroke-linecap:round;fill:rgb(0,130,142);" />
<text x="308.7" y="1561.5" font-size="36.4px" font-family="CMUBright-Roman" style="text-anchor:end;fill:rgb(0,0,0);" transform="rotate(14.9,308.7,1561.5)" >Communication-Studies</text>
<path d="M404.501,1611.997 A1642.000,1642.000 40.000 0,1 423.388,1541.244 L386.901,1530.627 A1680.000,1680.000 0.000 0,0 367.577,1603.017 Z" style="stroke-width:2.0;stroke:rgb(255,255,255);stroke-linecap:round;fill:none;" />
<path d="M433.770,1506.960 A1642.000,1642.000 40.000 0,1 448.549,1462.261 L412.644,1449.816 A1680.000,1680.000 0.000 0,0 397.524,1495.549 Z" style="stroke-width:2.0;stroke:rgb(255,255,255);stroke-linecap:round;fill:rgb(0,165,172);" />
<text x="337.2" y="1463.4" font-size="36.4px" font-family="CMUBright-Roman" style="text-anchor:end;fill:rgb(0,0,0);" transform="rotate(18.3,337.2,1463.4)" >Journalism-Media</text>
<path d="M433.770,1506.960 A1642.000,1642.000 40.000 0,1 448.549,1462.261 L412.644,1449.816 A1680.000,1680.000 0.000 0,0 397.524,1495.549 Z" style="stroke-width:2.0;stroke:rgb(255,255,255);stroke-linecap:round;fill:none;" />
<path d="M460.649,1428.544 A1642.000,1642.000 40.000 0,1 466.181,1413.858 L430.684,1400.293 A1680.000,1680.000 0.000 0,0 425.024,1415.319 Z" style="stroke-width:2.0;stroke:rgb(255,255,255);stroke-linecap:round;fill:rgb(38,195,195);" />
<text x="359.4" y="1399.1" font-size="36.4px" font-family="CMUBright-Roman" style="text-anchor:end;fill:rgb(0,0,0);" transform="rotate(20.6,359.4,1399.1)" >Creative-Writing</text>
<path d="M460.649,1428.544 A1642.000,1642.000 40.000 0,1 466.181,1413.858 L430.684,1400.293 A1680.000,1680.000 0.000 0,0 425.024,1415.319 Z" style="stroke-width:2.0;stroke:rgb(255,255,255);stroke-linecap:round;fill:none;" />
<path d="M479.332,1380.537 A1642.000,1642.000 40.000 0,1 510.660,1308.603 L476.193,1292.602 A1680.000,1680.000 0.000 0,0 444.140,1366.201 Z" style="stroke-width:2.0;stroke:rgb(255,255,255);stroke-linecap:round;fill:rgb(180,45,112);" />
<text x="391.8" y="1317.1" font-size="36.4px" font-family="CMUBright-Roman" style="text-anchor:end;fill:rgb(0,0,0);" transform="rotate(23.5,391.8,1317.1)" >Arts-Theology</text>
<path d="M479.332,1380.537 A1642.000,1642.000 40.000 0,1 510.660,1308.603 L476.193,1292.602 A1680.000,1680.000 0.000 0,0 444.140,1366.201 Z" style="stroke-width:2.0;stroke:rgb(255,255,255);stroke-linecap:round;fill:none;" />
<path d="M526.097,1276.278 A1642.000,1642.000 40.000 0,1 530.738,1266.901 L496.736,1249.936 A1680.000,1680.000 0.000 0,0 491.987,1259.529 Z" style="stroke-width:2.0;stroke:rgb(255,255,255);stroke-linecap:round;fill:rgb(205,75,142);" />
<text x="427.1" y="1239.3" font-size="36.4px" font-family="CMUBright-Roman" style="text-anchor:end;fill:rgb(0,0,0);" transform="rotate(26.3,427.1,1239.3)" >English-Writing</text>
<path d="M526.097,1276.278 A1642.000,1642.000 40.000 0,1 530.738,1266.901 L496.736,1249.936 A1680.000,1680.000 0.000 0,0 491.987,1259.529 Z" style="stroke-width:2.0;stroke:rgb(255,255,255);stroke-linecap:round;fill:none;" />
<path d="M547.080,1235.024 A1642.000,1642.000 40.000 0,1 549.525,1230.399 L515.957,1212.589 A1680.000,1680.000 0.000 0,0 513.456,1217.321 Z" style="stroke-width:2.0;stroke:rgb(255,255,255);stroke-linecap:round;fill:rgb(225,110,168);" />
<text x="447.9" y="1197.7" font-size="36.4px" font-family="CMUBright-Roman" style="text-anchor:end;fill:rgb(0,0,0);" transform="rotate(27.9,447.9,1197.7)" >Languages</text>
<path d="M547.080,1235.024 A1642.000,1642.000 40.000 0,1 549.525,1230.399 L515.957,1212.589 A1680.000,1680.000 0.000 0,0 513.456,1217.321 Z" style="stroke-width:2.0;stroke:rgb(255,255,255);stroke-linecap:round;fill:none;" />
<path d="M566.659,1198.940 A1642.000,1642.000 40.000 0,1 748.337,937.219 L719.370,912.624 A1680.000,1680.000 0.000 0,0 533.488,1180.402 Z" style="stroke-width:2.0;stroke:rgb(255,255,255);stroke-linecap:round;fill:rgb(88,40,138);" />
<text x="555.7" y="1016.9" font-size="36.4px" font-family="CMUBright-Roman" style="text-anchor:end;fill:rgb(0,0,0);" transform="rotate(34.8,555.7,1016.9)" >Biological-Sciences</text>
<path d="M566.659,1198.940 A1642.000,1642.000 40.000 0,1 748.337,937.219 L719.370,912.624 A1680.000,1680.000 0.000 0,0 533.488,1180.402 Z" style="stroke-width:2.0;stroke:rgb(255,255,255);stroke-linecap:round;fill:none;" />
<path d="M771.819,910.167 A1642.000,1642.000 40.000 0,1 821.633,856.490 L794.362,830.027 A1680.000,1680.000 0.000 0,0 743.396,884.946 Z" style="stroke-width:2.0;stroke:rgb(255,255,255);stroke-linecap:round;fill:rgb(115,65,165);" />
<text x="710.8" y="820.7" font-size="36.4px" font-family="CMUBright-Roman" style="text-anchor:end;fill:rgb(0,0,0);" transform="rotate(42.9,710.8,820.7)" >Health-Wellness</text>
<path d="M771.819,910.167 A1642.000,1642.000 40.000 0,1 821.633,856.490 L794.362,830.027 A1680.000,1680.000 0.000 0,0 743.396,884.946 Z" style="stroke-width:2.0;stroke:rgb(255,255,255);stroke-linecap:round;fill:none;" />
<path d="M846.858,831.057 A1642.000,1642.000 40.000 0,1 873.212,805.633 L847.135,777.993 A1680.000,1680.000 0.000 0,0 820.172,804.004 Z" style="stroke-width:2.0;stroke:rgb(255,255,255);stroke-linecap:round;fill:rgb(140,92,188);" />
<text x="775.8" y="753.4" font-size="36.4px" font-family="CMUBright-Roman" style="text-anchor:end;fill:rgb(0,0,0);" transform="rotate(46.0,775.8,753.4)" >Physical-Sciences</text>
<path d="M846.858,831.057 A1642.000,1642.000 40.000 0,1 873.212,805.633 L847.135,777.993 A1680.000,1680.000 0.000 0,0 820.172,804.004 Z" style="stroke-width:2.0;stroke:rgb(255,255,255);stroke-linecap:round;fill:none;" />
<path d="M899.535,781.337 A1642.000,1642.000 40.000 0,1 903.423,777.837 L878.045,749.553 A1680.000,1680.000 0.000 0,0 874.067,753.134 Z" style="stroke-width:2.0;stroke:rgb(255,255,255);stroke-linecap:round;fill:rgb(165,120,208);" />
<text x="821.8" y="709.8" font-size="36.4px" font-family="CMUBright-Roman" style="text-anchor:end;fill:rgb(0,0,0);" transform="rotate(48.0,821.8,709.8)" >Environmental-Sciences</text>
<path d="M899.535,781.337 A1642.000,1642.000 40.000 0,1 903.423,777.837 L878.045,749.553 A1680.000,1680.000 0.000 0,0 874.067,753.134 Z" style="stroke-width:2.0;stroke:rgb(255,255,255);stroke-linecap:round;fill:none;" />
<path d="M930.345,754.206 A1642.000,1642.000 40.000 0,1 1638.399,398.311 L1630.030,361.244 A1680.000,1680.000 0.000 0,0 905.590,725.375 Z" style="stroke-width:2.0;stroke:rgb(255,255,255);stroke-linecap:round;fill:rgb(22,118,50);" />
<text x="1201.1" y="446.2" font-size="36.4px" font-family="CMUBright-Roman" style="text-anchor:end;fill:rgb(0,0,0);" transform="rotate(63.3,1201.1,446.2)" >Engineering-Disciplines</text>
<path d="M930.345,754.206 A1642.000,1642.000 40.000 0,1 1638.399,398.311 L1630.030,361.244 A1680.000,1680.000 0.000 0,0 905.590,725.375 Z" style="stroke-width:2.0;stroke:rgb(255,255,255);stroke-linecap:round;fill:none;" />
<path d="M1673.425,390.804 A1642.000,1642.000 40.000 0,1 1964.180,358.391 L1963.351,320.400 A1680.000,1680.000 0.000 0,0 1665.867,353.563 Z" style="stroke-width:2.0;stroke:rgb(255,255,255);stroke-linecap:round;fill:rgb(48,158,75);" />
<text x="1791.0" y="265.3" font-size="36.4px" font-family="CMUBright-Roman" style="text-anchor:end;fill:rgb(0,0,0);" transform="rotate(83.6,1791.0,265.3)" >Computer-Science-IT</text>
<path d="M1673.425,390.804 A1642.000,1642.000 40.000 0,1 1964.180,358.391 L1963.351,320.400 A1680.000,1680.000 0.000 0,0 1665.867,353.563 Z" style="stroke-width:2.0;stroke:rgb(255,255,255);stroke-linecap:round;fill:none;" />
</g>
<g id="track_0">
<path d="M 3293.057,1014.853 A 1625.580,1625.580 0.00 0,1 3299.3,1023.1 L 3299.3,1023.1 3253.4,1056.2 3205.9,1087.7 3157.0,1117.4 3106.7,1145.1 3055.4,1170.6 3003.2,1193.8 2950.3,1214.6 2896.9,1232.8 2843.0,1248.2 2789.0,1260.9 2734.9,1270.6 2680.9,1277.4 2627.2,1281.1 2573.8,1281.7 2520.9,1279.2 2468.7,1273.5 2417.3,1264.6 2366.8,1252.5 2317.3,1237.3 2269.0,1218.9 2221.8,1197.4 2176.1,1172.9 2131.7,1145.5 2088.9,1115.1 2047.7,1081.9 2008.2,1046.0 1970.4,1007.6 1934.5,966.7 1900.5,923.5 1868.5,878.1 1838.5,830.8 1810.6,781.8 1784.8,731.1 1761.2,679.1 1739.8,625.9 1720.6,571.9 1703.7,517.2 1689.0,462.1 1676.7,406.9  A 1625.580,1625.580 0.00 0,1 1686.8,404.9 L 1686.8,404.9 1698.8,460.1 1713.1,515.2 1729.6,569.9 1748.3,623.9 1769.3,677.1 1792.5,729.1 1817.8,779.7 1845.3,828.8 1874.8,876.1 1906.3,921.4 1939.8,964.5 1975.2,1005.4 2012.5,1043.7 2051.5,1079.5 2092.2,1112.6 2134.6,1142.9 2178.4,1170.2 2223.7,1194.6 2270.4,1215.9 2318.3,1234.1 2367.3,1249.1 2417.4,1261.0 2468.3,1269.6 2520.1,1275.1 2572.5,1277.4 2625.4,1276.5 2678.8,1272.5 2732.4,1265.5 2786.1,1255.5 2839.7,1242.5 2893.2,1226.8 2946.3,1208.3 2998.8,1187.2 3050.7,1163.7 3101.7,1137.9 3151.6,1109.9 3200.2,1079.9 3247.5,1048.2 3293.1,1014.9  Z" style="stroke-width: 0.0;  fill: rgb(48,158,75);" />
<path d="M 3299.307,1023.112 A 1625.580,1625.580 0.00 0,1 3305.5,1031.4 L 3305.5,1031.4 3256.3,1066.2 3204.8,1099.5 3151.0,1131.0 3095.2,1160.8 3037.5,1188.7 2978.0,1214.5 2916.8,1238.3 2854.2,1260.0 2790.2,1279.4 2725.1,1296.5 2658.9,1311.3 2591.8,1323.7 2524.0,1333.6 2455.5,1341.1 2386.6,1346.0 2317.3,1348.5 2247.9,1348.3 2178.3,1345.7 2108.9,1340.5 2039.7,1332.7 1970.8,1322.4 1902.4,1309.7 1834.6,1294.4 1767.6,1276.7 1701.5,1256.7 1636.4,1234.2 1572.4,1209.6 1509.7,1182.6 1448.4,1153.6 1388.7,1122.5 1330.6,1089.4 1274.3,1054.4 1220.0,1017.7 1167.7,979.3 1117.5,939.4 1069.6,898.0 1024.2,855.3 981.3,811.5 941.0,766.7  A 1625.580,1625.580 0.00 0,1 948.9,759.9 L 948.9,759.9 988.8,805.0 1031.4,849.0 1076.4,891.8 1123.9,933.4 1173.7,973.5 1225.7,1012.1 1279.6,1049.0 1335.5,1084.2 1393.2,1117.4 1452.6,1148.7 1513.5,1177.9 1575.8,1204.9 1639.3,1229.7 1704.1,1252.2 1769.8,1272.3 1836.4,1290.1 1903.8,1305.3 1971.8,1318.1 2040.3,1328.4 2109.2,1336.1 2178.3,1341.2 2247.4,1343.8 2316.5,1343.8 2385.4,1341.3 2454.0,1336.2 2522.1,1328.5 2589.6,1318.4 2656.3,1305.8 2722.2,1290.8 2786.9,1273.5 2850.6,1253.8 2912.8,1231.9 2973.7,1207.8 3032.8,1181.7 3090.3,1153.6 3145.8,1123.5 3199.2,1091.7 3250.4,1058.2 3299.3,1023.1  Z" style="stroke-width: 0.0;  fill: rgb(22,118,50);" />
<path d="M 3305.505,1031.410 A 1625.580,1625.580 0.00 0,1 3308.6,1035.6 L 3308.6,1035.6 3258.8,1070.6 3206.6,1104.0 3152.1,1135.9 3095.5,1165.9 3036.8,1194.2 2976.3,1220.5 2914.1,1244.9 2850.4,1267.2 2785.2,1287.4 2718.7,1305.3 2651.1,1321.1 2582.5,1334.6 2513.0,1345.7 2442.8,1354.6 2372.1,1361.0 2300.9,1365.0 2229.4,1366.7 2157.8,1365.9 2086.1,1362.6 2014.6,1357.0 1943.3,1349.0 1872.5,1338.6 1802.1,1325.8 1732.4,1310.6 1663.6,1293.2 1595.6,1273.5 1528.8,1251.7 1463.1,1227.6 1398.8,1201.5 1336.0,1173.3 1274.7,1143.2 1215.2,1111.2 1157.6,1077.4 1102.0,1041.9 1048.5,1004.9 997.2,966.3 948.4,926.3 902.1,885.1 858.4,842.7  A 1625.580,1625.580 0.00 0,1 862.1,839.1 L 862.1,839.1 905.6,881.6 951.7,922.9 1000.4,963.0 1051.5,1001.6 1104.8,1038.8 1160.2,1074.4 1217.7,1108.3 1277.0,1140.4 1338.0,1170.6 1400.7,1198.9 1464.8,1225.1 1530.3,1249.2 1597.0,1271.1 1664.7,1290.9 1733.4,1308.3 1802.9,1323.5 1873.1,1336.3 1943.8,1346.7 2014.9,1354.8 2086.2,1360.4 2157.7,1363.6 2229.2,1364.3 2300.5,1362.6 2371.5,1358.6 2442.1,1352.0 2512.1,1343.2 2581.4,1331.9 2649.8,1318.3 2717.2,1302.5 2783.5,1284.4 2848.6,1264.1 2912.2,1241.7 2974.2,1217.2 3034.6,1190.7 3093.0,1162.3 3149.5,1132.1 3203.8,1100.1 3255.9,1066.5 3305.5,1031.4  Z" style="stroke-width: 0.0;  fill: rgb(140,92,188);" />
<path d="M 3308.584,1035.574 A 1625.580,1625.580 0.00 0,1 3317.7,1048.1 L 3317.7,1048.1 3267.1,1083.0 3214.0,1116.4 3158.5,1148.2 3100.9,1178.3 3041.1,1206.6 2979.5,1233.1 2916.1,1257.7 2851.0,1280.3 2784.5,1300.9 2716.5,1319.5 2647.4,1335.9 2577.2,1350.2 2506.1,1362.3 2434.2,1372.2 2361.6,1379.9 2288.6,1385.3 2215.1,1388.4 2141.4,1389.3 2067.7,1387.9 1993.9,1384.2 1920.4,1378.2 1847.2,1370.0 1774.4,1359.5 1702.2,1346.8 1630.8,1331.9 1560.2,1314.9 1490.7,1295.7 1422.3,1274.5 1355.1,1251.2 1289.4,1225.9 1225.3,1198.8 1162.8,1169.8 1102.1,1138.9 1043.5,1106.4 986.9,1072.3 932.5,1036.6 880.5,999.4 831.0,960.9 784.1,921.1  A 1625.580,1625.580 0.00 0,1 794.5,909.5 L 794.5,909.5 840.8,949.6 889.8,988.5 941.3,1026.0 995.2,1062.1 1051.3,1096.6 1109.4,1129.5 1169.6,1160.6 1231.5,1190.0 1295.2,1217.4 1360.4,1243.0 1427.0,1266.5 1494.9,1288.0 1563.9,1307.4 1634.0,1324.6 1704.9,1339.6 1776.5,1352.4 1848.8,1363.0 1921.5,1371.3 1994.5,1377.2 2067.7,1380.9 2141.0,1382.3 2214.2,1381.3 2287.1,1378.0 2359.7,1372.5 2431.8,1364.6 2503.2,1354.5 2573.8,1342.1 2643.5,1327.5 2712.2,1310.8 2779.6,1291.9 2845.7,1270.9 2910.2,1247.9 2973.2,1222.9 3034.3,1196.0 3093.6,1167.3 3150.8,1136.8 3205.8,1104.6 3258.4,1070.9 3308.6,1035.6  Z" style="stroke-width: 0.0;  fill: rgb(115,65,165);" />
<path d="M 3317.742,1048.125 A 1625.580,1625.580 0.00 0,1 3326.8,1060.8 L 3326.8,1060.8 3274.2,1096.4 3219.0,1130.6 3161.3,1163.4 3101.3,1194.7 3039.0,1224.6 2974.7,1252.9 2908.4,1279.6 2840.3,1304.8 2770.6,1328.3 2699.3,1350.2 2626.7,1370.4 2552.7,1388.9 2477.7,1405.7 2401.6,1420.7 2324.7,1433.9 2247.1,1445.4 2168.9,1455.1 2090.3,1463.0 2011.4,1469.0 1932.3,1473.2 1853.2,1475.6 1774.2,1476.1 1695.4,1474.8 1617.0,1471.6 1539.1,1466.6 1461.9,1459.7 1385.5,1451.0 1310.0,1440.5 1235.6,1428.1 1162.4,1413.9 1090.6,1398.0 1020.2,1380.2 951.5,1360.6 884.5,1339.3 819.5,1316.2 756.4,1291.4 695.6,1264.9 637.1,1236.8 581.0,1207.0  A 1625.580,1625.580 0.00 0,1 588.6,1193.4 L 588.6,1193.4 644.3,1223.7 702.4,1252.3 762.8,1279.2 825.4,1304.5 890.0,1328.0 956.6,1349.8 1024.9,1369.8 1094.9,1388.0 1166.3,1404.3 1239.1,1418.9 1313.1,1431.6 1388.2,1442.4 1464.2,1451.4 1541.0,1458.5 1618.4,1463.8 1696.4,1467.1 1774.8,1468.6 1853.4,1468.1 1932.1,1465.8 2010.8,1461.6 2089.3,1455.6 2167.5,1447.6 2245.3,1437.9 2322.5,1426.3 2398.9,1412.9 2474.6,1397.6 2549.2,1380.6 2622.7,1361.9 2694.9,1341.4 2765.7,1319.2 2835.0,1295.3 2902.7,1269.8 2968.5,1242.7 3032.3,1213.9 3094.1,1183.7 3153.7,1151.9 3210.9,1118.7 3265.6,1084.1 3317.7,1048.1  Z" style="stroke-width: 0.0;  fill: rgb(88,40,138);" />
<path d="M 3326.779,1060.763 A 1625.580,1625.580 0.00 0,1 3329.8,1065.0 L 3329.8,1065.0 3276.9,1100.6 3221.3,1134.8 3163.3,1167.6 3102.9,1199.0 3040.3,1228.9 2975.6,1257.4 2909.0,1284.3 2840.5,1309.7 2770.4,1333.5 2698.7,1355.6 2625.6,1376.2 2551.3,1395.1 2475.8,1412.4 2399.3,1427.9 2321.9,1441.8 2243.9,1453.9 2165.2,1464.3 2086.0,1472.9 2006.6,1479.8 1927.0,1484.9 1847.3,1488.3 1767.7,1489.8 1688.3,1489.6 1609.3,1487.5 1530.8,1483.7 1453.0,1478.0 1375.9,1470.6 1299.7,1461.3 1224.6,1450.3 1150.7,1437.4 1078.1,1422.8 1007.0,1406.4 937.4,1388.2 869.7,1368.3 803.7,1346.6 739.8,1323.2 678.1,1298.0 618.6,1271.2 561.6,1242.7  A 1625.580,1625.580 0.00 0,1 564.0,1238.1 L 564.0,1238.1 620.9,1266.8 680.2,1293.8 741.8,1319.1 805.6,1342.6 871.4,1364.5 939.0,1384.6 1008.4,1402.9 1079.4,1419.4 1151.9,1434.2 1225.7,1447.1 1300.7,1458.3 1376.7,1467.7 1453.7,1475.2 1531.4,1481.0 1609.8,1484.9 1688.6,1487.0 1767.9,1487.3 1847.3,1485.8 1926.9,1482.5 2006.4,1477.4 2085.7,1470.5 2164.7,1461.8 2243.2,1451.4 2321.2,1439.2 2398.4,1425.3 2474.8,1409.7 2550.1,1392.4 2624.3,1373.4 2697.3,1352.7 2768.8,1330.4 2838.8,1306.5 2907.1,1281.0 2973.6,1254.0 3038.1,1225.4 3100.6,1195.3 3160.8,1163.8 3218.7,1130.8 3274.0,1096.5 3326.8,1060.8  Z" style="stroke-width: 0.0;  fill: rgb(225,110,168);" />
<path d="M 3329.765,1064.994 A 1625.580,1625.580 0.00 0,1 3335.7,1073.5 L 3335.7,1073.5 3281.8,1109.3 3225.2,1143.8 3166.1,1177.1 3104.7,1209.0 3041.0,1239.6 2975.1,1268.9 2907.4,1296.8 2837.7,1323.4 2766.4,1348.5 2693.5,1372.3 2619.1,1394.6 2543.4,1415.6 2466.6,1435.0 2388.7,1453.1 2309.9,1469.6 2230.3,1484.7 2150.1,1498.2 2069.4,1510.3 1988.3,1520.8 1907.0,1529.7 1825.6,1537.2 1744.2,1543.0 1662.9,1547.2 1582.0,1549.9 1501.5,1550.9 1421.6,1550.3 1342.3,1548.0 1263.9,1544.0 1186.4,1538.4 1110.1,1531.1 1035.0,1522.1 961.2,1511.4 889.0,1498.9 818.4,1484.7 749.5,1468.7 682.6,1450.9 617.7,1431.3 555.0,1409.9 494.5,1386.7  A 1625.580,1625.580 0.00 0,1 498.5,1377.2 L 498.5,1377.2 558.6,1400.7 621.1,1422.4 685.8,1442.3 752.5,1460.4 821.1,1476.8 891.5,1491.3 963.5,1504.1 1037.0,1515.1 1111.9,1524.4 1188.0,1532.0 1265.2,1537.9 1343.4,1542.0 1422.5,1544.5 1502.2,1545.3 1582.5,1544.4 1663.2,1541.9 1744.2,1537.8 1825.4,1532.1 1906.6,1524.7 1987.6,1515.8 2068.5,1505.2 2149.0,1493.2 2228.9,1479.6 2308.3,1464.4 2386.8,1447.8 2464.4,1429.6 2541.0,1410.0 2616.4,1388.9 2690.5,1366.4 2763.2,1342.4 2834.2,1317.0 2903.6,1290.2 2971.1,1262.0 3036.6,1232.5 3100.0,1201.6 3161.2,1169.4 3219.9,1135.9 3276.2,1101.1 3329.8,1065.0  Z" style="stroke-width: 0.0;  fill: rgb(180,45,112);" />
<path d="M 3335.695,1073.486 A 1625.580,1625.580 0.00 0,1 3350.3,1094.9 L 3350.3,1094.9 3295.0,1130.4 3237.2,1164.7 3176.8,1197.7 3114.0,1229.6 3049.1,1260.2 2982.0,1289.6 2912.9,1317.8 2842.0,1344.8 2769.5,1370.6 2695.3,1395.2 2619.7,1418.5 2542.8,1440.6 2464.7,1461.5 2385.6,1481.1 2305.6,1499.5 2224.7,1516.6 2143.3,1532.4 2061.3,1546.9 1978.9,1560.1 1896.3,1572.0 1813.6,1582.6 1730.8,1591.7 1648.2,1599.5 1565.8,1605.8 1483.9,1610.8 1402.4,1614.2 1321.6,1616.2 1241.6,1616.6 1162.5,1615.5 1084.4,1612.8 1007.5,1608.5 931.9,1602.6 857.7,1595.0 785.0,1585.7 714.1,1574.6 644.9,1561.7 577.6,1547.0 512.4,1530.4 449.4,1511.9  A 1625.580,1625.580 0.00 0,1 457.4,1487.3 L 457.4,1487.3 519.8,1506.7 584.4,1524.1 651.1,1539.7 719.8,1553.5 790.2,1565.5 862.4,1575.6 936.1,1584.1 1011.2,1590.8 1087.6,1595.8 1165.2,1599.2 1243.9,1600.9 1323.4,1601.0 1403.8,1599.6 1484.7,1596.6 1566.2,1592.1 1648.1,1586.1 1730.2,1578.6 1812.5,1569.7 1894.7,1559.3 1976.9,1547.5 2058.7,1534.3 2140.1,1519.7 2221.1,1503.7 2301.3,1486.4 2380.8,1467.8 2459.3,1447.9 2536.8,1426.6 2613.1,1404.1 2688.0,1380.3 2761.5,1355.2 2833.5,1328.8 2903.7,1301.2 2972.0,1272.4 3038.4,1242.3 3102.6,1211.0 3164.6,1178.4 3224.2,1144.7 3281.3,1109.7 3335.7,1073.5  Z" style="stroke-width: 0.0;  fill: rgb(0,165,172);" />
<path d="M 3350.284,1094.879 A 1625.580,1625.580 0.00 0,1 3370.1,1125.2 L 3370.1,1125.2 3313.4,1160.0 3254.1,1193.5 3192.3,1225.9 3128.2,1257.2 3061.8,1287.3 2993.4,1316.4 2923.1,1344.3 2851.0,1371.1 2777.2,1396.9 2701.8,1421.6 2625.1,1445.3 2547.0,1467.9 2467.8,1489.5 2387.6,1510.0 2306.5,1529.4 2224.7,1547.7 2142.2,1565.0 2059.2,1581.1 1975.8,1596.2 1892.2,1610.1 1808.4,1622.9 1724.6,1634.4 1641.0,1644.8 1557.6,1654.0 1474.6,1661.8 1392.1,1668.4 1310.2,1673.7 1229.0,1677.5 1148.7,1680.0 1069.5,1681.0 991.3,1680.5 914.3,1678.4 838.8,1674.8 764.6,1669.5 692.1,1662.4 621.3,1653.6 552.4,1642.9 485.4,1630.4 420.5,1615.9  A 1625.580,1625.580 0.00 0,1 429.4,1580.7 L 429.4,1580.7 493.6,1596.6 559.9,1610.4 628.1,1622.4 698.3,1632.5 770.1,1640.8 843.6,1647.3 918.6,1652.2 995.0,1655.3 1072.6,1656.9 1151.3,1656.9 1231.0,1655.3 1311.6,1652.3 1392.9,1647.8 1474.9,1641.9 1557.3,1634.6 1640.1,1625.9 1723.2,1616.0 1806.3,1604.7 1889.5,1592.1 1972.5,1578.3 2055.2,1563.3 2137.6,1547.0 2219.4,1529.6 2300.6,1511.0 2380.9,1491.2 2460.4,1470.2 2538.8,1448.2 2616.0,1424.9 2691.9,1400.6 2766.4,1375.1 2839.3,1348.5 2910.6,1320.8 2979.9,1292.0 3047.4,1262.0 3112.7,1230.9 3175.8,1198.6 3236.5,1165.2 3294.7,1130.6 3350.3,1094.9  Z" style="stroke-width: 0.0;  fill: rgb(0,130,142);" />
<path d="M 3370.131,1125.214 A 1625.580,1625.580 0.00 0,1 3372.9,1129.6 L 3372.9,1129.6 3315.2,1164.8 3254.8,1198.9 3192.1,1232.1 3127.1,1264.2 3059.8,1295.4 2990.6,1325.6 2919.5,1355.0 2846.6,1383.5 2772.1,1411.2 2696.0,1438.0 2618.6,1464.0 2540.0,1489.3 2460.2,1513.7 2379.4,1537.3 2297.8,1560.2 2215.4,1582.2 2132.4,1603.4 2048.9,1623.8 1965.0,1643.3 1880.9,1662.0 1796.6,1679.7 1712.3,1696.6 1628.1,1712.5 1544.2,1727.3 1460.5,1741.1 1377.3,1753.9 1294.7,1765.5 1212.8,1775.9 1131.6,1785.0 1051.4,1792.8 972.1,1799.3 894.0,1804.2 817.2,1807.7 741.6,1809.6 667.5,1809.7 595.0,1808.1 524.1,1804.6 455.0,1799.2 387.8,1791.7  A 1625.580,1625.580 0.00 0,1 388.5,1786.5 L 388.5,1786.5 455.6,1794.2 524.7,1799.9 595.4,1803.6 667.9,1805.4 741.9,1805.4 817.4,1803.7 894.2,1800.5 972.2,1795.6 1051.4,1789.3 1131.6,1781.7 1212.7,1772.7 1294.6,1762.4 1377.2,1750.9 1460.3,1738.3 1543.9,1724.5 1627.8,1709.7 1711.9,1693.9 1796.1,1677.1 1880.4,1659.4 1964.4,1640.8 2048.2,1621.2 2131.7,1600.8 2214.6,1579.6 2296.9,1557.5 2378.4,1534.6 2459.1,1510.9 2538.8,1486.4 2617.3,1461.1 2694.6,1435.0 2770.6,1408.0 2845.0,1380.3 2917.7,1351.6 2988.7,1322.1 3057.8,1291.7 3124.9,1260.4 3189.8,1228.1 3252.4,1194.9 3312.5,1160.6 3370.1,1125.2  Z" style="stroke-width: 0.0;  fill: rgb(195,58,55);" />
<path d="M 3372.911,1129.584 A 1625.580,1625.580 0.00 0,1 3375.7,1134.0 L 3375.7,1134.0 3316.1,1170.2 3254.1,1205.6 3189.8,1240.3 3123.3,1274.2 3054.9,1307.5 2984.5,1340.3 2912.4,1372.6 2838.7,1404.4 2763.5,1435.7 2687.0,1466.7 2609.2,1497.3 2530.3,1527.6 2450.5,1557.6 2369.7,1587.2 2288.3,1616.6 2206.2,1645.6 2123.5,1674.3 2040.5,1702.7 1957.2,1730.7 1873.7,1758.3 1790.1,1785.5 1706.6,1812.2 1623.1,1838.5 1539.9,1864.1 1457.0,1889.1 1374.6,1913.5 1292.6,1937.1 1211.2,1959.8 1130.5,1981.6 1050.6,2002.4 971.5,2022.1 893.4,2040.5 816.3,2057.6 740.3,2073.3 665.4,2087.3 591.8,2099.7 519.6,2110.3 448.7,2118.8 379.3,2125.2  A 1625.580,1625.580 0.00 0,1 378.9,2120.1 L 378.9,2120.1 448.3,2113.9 519.1,2105.5 591.3,2095.2 664.9,2083.0 739.7,2069.2 815.7,2053.7 892.8,2036.8 970.9,2018.5 1050.0,1999.0 1129.9,1978.3 1210.6,1956.7 1291.9,1934.1 1373.9,1910.6 1456.4,1886.4 1539.2,1861.4 1622.4,1835.8 1705.8,1809.6 1789.4,1782.9 1872.9,1755.8 1956.4,1728.2 2039.6,1700.1 2122.6,1671.8 2205.2,1643.0 2287.2,1614.0 2368.6,1584.6 2449.3,1554.8 2529.1,1524.8 2607.8,1494.4 2685.5,1463.7 2762.0,1432.6 2837.1,1401.1 2910.7,1369.2 2982.6,1336.8 3052.9,1303.9 3121.2,1270.4 3187.5,1236.3 3251.7,1201.5 3313.5,1166.0 3372.9,1129.6  Z" style="stroke-width: 0.0;  fill: rgb(220,140,52);" />
<path d="M 3375.677,1133.962 A 1625.580,1625.580 0.00 0,1 3389.3,1156.0 L 3389.3,1156.0 3328.2,1192.0 3264.7,1227.2 3199.1,1261.9 3131.5,1295.9 3061.9,1329.5 2990.7,1362.7 2917.8,1395.6 2843.4,1428.2 2767.7,1460.6 2690.8,1492.9 2612.8,1525.0 2533.8,1557.0 2454.0,1589.0 2373.4,1620.9 2292.2,1652.7 2210.5,1684.6 2128.4,1716.3 2046.0,1748.0 1963.4,1779.6 1880.7,1811.1 1798.0,1842.5 1715.4,1873.6 1633.0,1904.5 1550.8,1935.1 1469.0,1965.3 1387.6,1995.1 1306.7,2024.3 1226.5,2052.9 1146.9,2080.8 1068.0,2107.9 989.9,2134.1 912.7,2159.2 836.4,2183.1 761.1,2205.7 686.8,2226.8 613.6,2246.4 541.6,2264.2 470.8,2280.1 401.2,2293.9  A 1625.580,1625.580 0.00 0,1 396.7,2268.4 L 396.7,2268.4 466.2,2255.7 537.0,2241.0 608.9,2224.2 682.1,2205.7 756.3,2185.6 831.7,2163.9 908.0,2140.9 985.2,2116.6 1063.3,2091.3 1142.3,2064.9 1221.9,2037.7 1302.2,2009.6 1383.1,1980.9 1464.5,1951.6 1546.3,1921.8 1628.5,1891.6 1710.9,1860.9 1793.4,1829.9 1876.1,1798.7 1958.7,1767.3 2041.1,1735.6 2123.4,1703.8 2205.3,1671.9 2286.8,1639.9 2367.7,1607.7 2448.0,1575.4 2527.4,1543.1 2606.1,1510.6 2683.6,1477.9 2760.1,1445.1 2835.3,1412.1 2909.1,1378.8 2981.4,1345.3 3052.1,1311.3 3120.9,1277.0 3187.9,1242.2 3252.7,1206.8 3315.4,1170.7 3375.7,1134.0  Z" style="stroke-width: 0.0;  fill: rgb(200,108,30);" />
<path d="M 3389.298,1155.984 A 1625.580,1625.580 0.00 0,1 3394.6,1164.9 L 3394.6,1164.9 3332.6,1200.9 3268.3,1236.4 3202.0,1271.2 3133.7,1305.7 3063.7,1339.8 2992.0,1373.6 2918.8,1407.2 2844.3,1440.7 2768.5,1474.1 2691.6,1507.5 2613.8,1541.0 2535.0,1574.5 2455.6,1608.1 2375.5,1641.9 2294.8,1675.7 2213.8,1709.8 2132.4,1743.9 2050.8,1778.2 1969.1,1812.5 1887.4,1846.9 1805.8,1881.4 1724.3,1915.8 1643.0,1950.2 1562.0,1984.4 1481.5,2018.4 1401.3,2052.2 1321.8,2085.5 1242.8,2118.4 1164.4,2150.8 1086.8,2182.4 1009.9,2213.3 933.9,2243.2 858.7,2272.1 784.5,2299.8 711.2,2326.1 638.8,2350.9 567.5,2374.0 497.3,2395.2 428.1,2414.4  A 1625.580,1625.580 0.00 0,1 425.5,2404.3 L 425.5,2404.3 494.7,2385.6 564.9,2364.8 636.2,2342.2 708.6,2317.8 781.9,2291.9 856.2,2264.6 931.5,2236.1 1007.6,2206.5 1084.5,2176.0 1162.1,2144.6 1240.5,2112.5 1319.6,2079.8 1399.2,2046.7 1479.3,2013.1 1559.9,1979.2 1640.9,1945.1 1722.2,1910.8 1803.7,1876.5 1885.4,1842.1 1967.1,1807.6 2048.7,1773.3 2130.3,1739.0 2211.6,1704.7 2292.6,1670.6 2373.1,1636.6 2453.1,1602.7 2532.5,1568.9 2611.1,1535.2 2688.8,1501.5 2765.5,1467.9 2841.1,1434.2 2915.4,1400.4 2988.4,1366.6 3059.8,1332.5 3129.6,1298.1 3197.6,1263.3 3263.6,1228.1 3327.6,1192.4 3389.3,1156.0  Z" style="stroke-width: 0.0;  fill: rgb(108,170,228);" />
<path d="M 3394.647,1164.854 A 1625.580,1625.580 0.00 0,1 3410.4,1191.7 L 3410.4,1191.7 3346.6,1227.3 3280.7,1262.3 3213.0,1297.0 3143.5,1331.3 3072.5,1365.4 3000.0,1399.4 2926.2,1433.4 2851.2,1467.5 2775.1,1501.8 2698.2,1536.2 2620.5,1570.9 2542.1,1605.9 2463.1,1641.2 2383.7,1677.0 2303.9,1713.1 2223.9,1749.6 2143.7,1786.5 2063.5,1823.8 1983.3,1861.4 1903.2,1899.4 1823.3,1937.7 1743.7,1976.3 1664.4,2015.0 1585.5,2053.9 1507.1,2092.9 1429.2,2131.8 1351.9,2170.6 1275.2,2209.2 1199.1,2247.4 1123.8,2285.3 1049.2,2322.5 975.4,2359.0 902.3,2394.7 830.1,2429.3 758.8,2462.8 688.2,2494.9 618.6,2525.4 549.8,2554.3 481.8,2581.1  A 1625.580,1625.580 0.00 0,1 471.0,2552.0 L 471.0,2552.0 539.1,2526.5 608.0,2499.1 677.9,2469.8 748.6,2439.0 820.3,2406.7 892.7,2373.2 966.0,2338.5 1040.1,2303.0 1115.0,2266.6 1190.6,2229.6 1267.0,2192.1 1343.9,2154.2 1421.5,2115.9 1499.6,2077.5 1578.2,2038.9 1657.3,2000.4 1736.7,1961.9 1816.5,1923.5 1896.5,1885.2 1976.6,1847.2 2056.8,1809.4 2137.0,1772.0 2217.0,1734.8 2296.9,1698.0 2376.5,1661.4 2455.7,1625.2 2534.4,1589.3 2612.4,1553.7 2689.8,1518.3 2766.3,1483.2 2841.8,1448.2 2916.2,1413.3 2989.4,1378.4 3061.2,1343.5 3131.5,1308.4 3200.1,1273.1 3267.0,1237.5 3331.9,1201.5 3394.6,1164.9  Z" style="stroke-width: 0.0;  fill: rgb(82,145,215);" />
<path d="M 3410.355,1191.663 A 1625.580,1625.580 0.00 0,1 3468.0,1301.8 L 3468.0,1301.8 3402.1,1334.0 3335.5,1368.1 3268.2,1404.0 3200.2,1441.5 3131.3,1480.4 3061.8,1520.4 2991.5,1561.4 2920.4,1603.3 2848.7,1645.9 2776.2,1689.1 2703.0,1732.7 2629.2,1776.7 2554.8,1820.8 2479.8,1865.0 2404.3,1909.2 2328.2,1953.4 2251.8,1997.3 2174.9,2041.1 2097.8,2084.5 2020.4,2127.6 1942.8,2170.3 1865.2,2212.6 1787.5,2254.5 1710.0,2295.9 1632.6,2336.8 1555.5,2377.3 1478.8,2417.3 1402.5,2456.9 1326.9,2496.1 1252.1,2535.0 1178.0,2573.5 1105.0,2611.9 1033.1,2650.0 962.4,2688.1 893.2,2726.1 825.5,2764.2 759.5,2802.5 695.4,2841.2 633.3,2880.2  A 1625.580,1625.580 0.00 0,1 570.1,2773.2 L 570.1,2773.2 635.2,2737.2 700.9,2699.4 767.2,2660.1 834.2,2619.3 902.0,2577.4 970.4,2534.5 1039.6,2490.7 1109.6,2446.3 1180.2,2401.4 1251.6,2356.2 1323.7,2310.7 1396.5,2265.2 1470.0,2219.6 1544.1,2174.2 1618.8,2129.1 1694.1,2084.2 1769.9,2039.8 1846.2,1995.8 1922.9,1952.3 2000.0,1909.4 2077.4,1867.0 2155.0,1825.3 2232.7,1784.3 2310.5,1743.9 2388.2,1704.2 2465.8,1665.1 2543.2,1626.6 2620.3,1588.7 2696.9,1551.4 2773.0,1514.5 2848.3,1478.1 2922.9,1442.0 2996.5,1406.3 3069.1,1370.7 3140.4,1335.2 3210.3,1299.6 3278.8,1264.0 3345.5,1228.0 3410.4,1191.7  Z" style="stroke-width: 0.0;  fill: rgb(60,120,198);" />
<path d="M 3467.980,1301.756 A 1625.580,1625.580 0.00 0,1 3499.7,1372.7 L 3499.7,1372.7 3435.0,1400.8 3369.5,1431.3 3303.3,1464.1 3236.4,1498.8 3168.7,1535.4 3100.4,1573.7 3031.5,1613.6 2961.9,1654.9 2891.7,1697.5 2821.0,1741.2 2749.7,1786.0 2678.0,1831.7 2605.9,1878.3 2533.5,1925.5 2460.8,1973.4 2387.8,2021.7 2314.7,2070.5 2241.6,2119.7 2168.4,2169.2 2095.3,2218.8 2022.4,2268.7 1949.8,2318.6 1877.5,2368.6 1805.7,2418.7 1734.5,2468.7 1663.9,2518.7 1594.1,2568.6 1525.2,2618.4 1457.4,2668.2 1390.7,2717.9 1325.2,2767.5 1261.2,2817.0 1198.8,2866.4 1138.0,2915.9 1079.1,2965.3 1022.2,3014.7 967.4,3064.3 915.0,3113.9 865.0,3163.7  A 1625.580,1625.580 0.00 0,1 810.7,3108.2 L 810.7,3108.2 863.7,3060.1 919.0,3012.2 976.4,2964.5 1035.9,2916.8 1097.3,2869.1 1160.3,2821.4 1224.9,2773.6 1290.9,2725.6 1358.2,2677.5 1426.6,2629.2 1495.9,2580.7 1566.2,2532.0 1637.2,2483.1 1708.9,2434.0 1781.0,2384.7 1853.6,2335.2 1926.5,2285.6 1999.6,2235.9 2072.9,2186.1 2146.2,2136.2 2219.5,2086.4 2292.6,2036.7 2365.6,1987.2 2438.3,1937.9 2510.7,1888.9 2582.7,1840.4 2654.3,1792.3 2725.4,1744.9 2796.1,1698.3 2866.1,1652.4 2935.6,1607.6 3004.5,1563.9 3072.7,1521.4 3140.3,1480.3 3207.2,1440.8 3273.4,1403.0 3338.9,1367.1 3403.8,1333.3 3468.0,1301.8  Z" style="stroke-width: 0.0;  fill: rgb(42,98,180);" />
<path d="M 3499.659,1372.677 A 1625.580,1625.580 0.00 0,1 3536.6,1469.4 L 3536.6,1469.4 3473.4,1492.5 3409.6,1518.3 3345.1,1546.7 3279.9,1577.5 3214.3,1610.7 3148.1,1646.1 3081.4,1683.6 3014.4,1723.1 2947.1,1764.4 2879.6,1807.6 2812.0,1852.4 2744.2,1898.7 2676.4,1946.5 2608.8,1995.6 2541.3,2046.0 2474.0,2097.6 2407.0,2150.2 2340.5,2203.8 2274.5,2258.3 2209.1,2313.6 2144.4,2369.6 2080.5,2426.3 2017.5,2483.6 1955.4,2541.4 1894.5,2599.6 1834.8,2658.2 1776.4,2717.0 1719.5,2776.1 1664.1,2835.4 1610.3,2894.8 1558.4,2954.3 1508.3,3013.8 1460.2,3073.3 1414.3,3132.7 1370.7,3191.9 1329.5,3251.1 1290.8,3310.0 1254.7,3368.6 1221.5,3427.0  A 1625.580,1625.580 0.00 0,1 1132.2,3374.6 L 1132.2,3374.6 1169.7,3317.3 1209.9,3259.8 1252.7,3202.2 1297.8,3144.3 1345.3,3086.3 1394.8,3028.2 1446.4,2969.9 1499.8,2911.5 1554.9,2853.0 1611.6,2794.5 1669.8,2736.0 1729.3,2677.6 1790.1,2619.2 1852.0,2561.0 1914.9,2502.9 1978.7,2445.1 2043.3,2387.6 2108.7,2330.5 2174.6,2273.8 2241.0,2217.7 2307.9,2162.1 2375.1,2107.2 2442.5,2053.0 2510.1,1999.7 2577.8,1947.3 2645.5,1895.9 2713.1,1845.7 2780.7,1796.7 2848.0,1749.0 2915.1,1702.8 2981.9,1658.2 3048.4,1615.2 3114.4,1574.1 3180.0,1534.9 3245.1,1497.7 3309.6,1462.8 3373.6,1430.2 3436.9,1400.1 3499.7,1372.7  Z" style="stroke-width: 0.0;  fill: rgb(28,75,160);" />
<path d="M 3536.560,1469.439 A 1625.580,1625.580 0.00 0,1 3541.6,1484.1 L 3541.6,1484.1 3483.9,1504.9 3426.1,1528.5 3368.2,1554.9 3310.5,1584.1 3253.0,1616.1 3195.9,1650.6 3139.5,1687.7 3083.6,1727.3 3028.7,1769.2 2974.6,1813.5 2921.6,1860.0 2869.9,1908.6 2819.4,1959.2 2770.3,2011.8 2722.7,2066.2 2676.7,2122.3 2632.4,2180.1 2589.8,2239.4 2549.2,2300.1 2510.4,2362.0 2473.7,2425.2 2439.1,2489.4 2406.6,2554.6 2376.3,2620.5 2348.3,2687.1 2322.5,2754.3 2299.2,2821.9 2278.2,2889.8 2259.6,2957.7 2243.5,3025.7 2229.9,3093.5 2218.8,3161.0 2210.3,3228.1 2204.2,3294.5 2200.7,3360.1 2199.8,3424.8 2201.4,3488.4 2205.5,3550.8 2212.2,3611.7  A 1625.580,1625.580 0.00 0,1 2196.8,3613.6 L 2196.8,3613.6 2190.7,3552.5 2187.1,3490.0 2186.1,3426.1 2187.6,3361.2 2191.7,3295.3 2198.3,3228.7 2207.5,3161.4 2219.1,3093.7 2233.3,3025.6 2249.9,2957.4 2269.0,2889.1 2290.4,2821.0 2314.3,2753.1 2340.4,2685.6 2368.9,2618.6 2399.6,2552.3 2432.4,2486.8 2467.4,2422.1 2504.4,2358.6 2543.4,2296.2 2584.3,2235.0 2627.1,2175.3 2671.6,2117.0 2717.7,2060.4 2765.4,2005.4 2814.6,1952.3 2865.2,1901.1 2917.0,1852.0 2970.0,1804.9 3024.1,1760.0 3079.0,1717.5 3134.8,1677.3 3191.3,1639.6 3248.3,1604.4 3305.7,1571.9 3363.4,1542.1 3421.2,1515.0 3479.0,1490.8 3536.6,1469.4  Z" style="stroke-width: 0.0;  fill: rgb(15,52,135);" />
</g>
<defs>
<pattern id="checker" width="10" height="10" patternTransform="rotate(45 0 0)" patternUnits="userSpaceOnUse"><line x1="0" y1="0" x2="10" y2="0" style="stroke:black;stroke-width:5" /><line x1="0" y1="0" x2="0" y2="10" style="stroke:black;stroke-width:4" /></pattern>
<pattern id="vline-sparse" width="10" height="10" patternTransform="rotate(0 0 0)" patternUnits="userSpaceOnUse"><line x1="0" y1="0" x2="0" y2="10" style="stroke:black;stroke-width:2" /></pattern>
<pattern id="hline-sparse" width="10" height="10" patternTransform="rotate(0 0 0)" patternUnits="userSpaceOnUse"><line x1="0" y1="0" x2="10" y2="0" style="stroke:black;stroke-width:2" /></pattern>
<pattern id="hline" width="10" height="10" patternTransform="rotate(0 0 0)" patternUnits="userSpaceOnUse"><line x1="0" y1="0" x2="10" y2="0" style="stroke:black;stroke-width:5" /></pattern>
<pattern id="vline" width="10" height="10" patternTransform="rotate(0 0 0)" patternUnits="userSpaceOnUse"><line x1="0" y1="0" x2="0" y2="10" style="stroke:black;stroke-width:5" /></pattern>
<pattern id="checker" width="10" height="10" patternTransform="rotate(45 0 0)" patternUnits="userSpaceOnUse"><line x1="0" y1="0" x2="10" y2="0" style="stroke:black;stroke-width:2" /><line x1="0" y1="0" x2="0" y2="10" style="stroke:black;stroke-width:2" /></pattern>
</defs>
</svg>
