<?xml version="1.0" encoding="utf-8" standalone="no"?>
<!DOCTYPE svg PUBLIC "-//W3C//DTD SVG 1.1//EN" "http://www.w3.org/Graphics/SVG/1.1/DTD/svg11.dtd">
<svg width="4000px" height="4000px" version="1.1" xmlns="http://www.w3.org/2000/svg" xmlns:xlink="http://www.w3.org/1999/xlink">
<g id="bg">
<rect x="0" y="0" width="4000px" height="4000px" style="fill:rgb(255,255,255);"/>
</g>
<g id="ideograms">
<path d="M2000.000,358.000 A1642.000,1642.000 40.000 0,1 2751.610,540.121 L2769.004,506.336 A1680.000,1680.000 0.000 0,0 2000.000,320.000 Z" style="stroke-width:2.0;stroke:rgb(255,255,255);stroke-linecap:round;fill:rgb(185,185,185);" />
<text x="2427.0" y="305.8" font-size="36.4px" font-family="CMUBright-Roman" style="text-anchor:start;fill:rgb(0,0,0);" transform="rotate(283.6,2427.0,305.8)" >Management-Operations</text>
<path d="M2000.000,358.000 A1642.000,1642.000 40.000 0,1 2751.610,540.121 L2769.004,506.336 A1680.000,1680.000 0.000 0,0 2000.000,320.000 Z" style="stroke-width:2.0;stroke:rgb(255,255,255);stroke-linecap:round;fill:none;" />
<path d="M2783.279,556.865 A1642.000,1642.000 40.000 0,1 3226.411,908.176 L3254.793,882.908 A1680.000,1680.000 0.000 0,0 2801.406,523.467 Z" style="stroke-width:2.0;stroke:rgb(255,255,255);stroke-linecap:round;fill:rgb(185,185,185);" />
<text x="3097.5" y="640.5" font-size="36.4px" font-family="CMUBright-Roman" style="text-anchor:start;fill:rgb(0,0,0);" transform="rotate(308.4,3097.5,640.5)" >Engineering</text>
<path d="M2783.279,556.865 A1642.000,1642.000 40.000 0,1 3226.411,908.176 L3254.793,882.908 A1680.000,1680.000 0.000 0,0 2801.406,523.467 Z" style="stroke-width:2.0;stroke:rgb(255,255,255);stroke-linecap:round;fill:none;" />
<path d="M3249.937,935.189 A1642.000,1642.000 40.000 0,1 3507.538,1349.236 L3542.426,1334.176 A1680.000,1680.000 0.000 0,0 3278.864,910.547 Z" style="stroke-width:2.0;stroke:rgb(255,255,255);stroke-linecap:round;fill:rgb(185,185,185);" />
<text x="3491.6" y="1090.2" font-size="36.4px" font-family="CMUBright-Roman" style="text-anchor:start;fill:rgb(0,0,0);" transform="rotate(328.1,3491.6,1090.2)" >Leadership-General</text>
<path d="M3249.937,935.189 A1642.000,1642.000 40.000 0,1 3507.538,1349.236 L3542.426,1334.176 A1680.000,1680.000 0.000 0,0 3278.864,910.547 Z" style="stroke-width:2.0;stroke:rgb(255,255,255);stroke-linecap:round;fill:none;" />
<path d="M3521.375,1382.278 A1642.000,1642.000 40.000 0,1 3633.192,1830.154 L3670.988,1826.223 A1680.000,1680.000 0.000 0,0 3556.584,1367.982 Z" style="stroke-width:2.0;stroke:rgb(255,255,255);stroke-linecap:round;fill:rgb(185,185,185);" />
<text x="3699.0" y="1592.3" font-size="36.4px" font-family="CMUBright-Roman" style="text-anchor:start;fill:rgb(0,0,0);" transform="rotate(346.0,3699.0,1592.3)" >Sales-Marketing</text>
<path d="M3521.375,1382.278 A1642.000,1642.000 40.000 0,1 3633.192,1830.154 L3670.988,1826.223 A1680.000,1680.000 0.000 0,0 3556.584,1367.982 Z" style="stroke-width:2.0;stroke:rgb(255,255,255);stroke-linecap:round;fill:none;" />
<path d="M3636.509,1865.822 A1642.000,1642.000 40.000 0,1 3610.774,2318.704 L3648.051,2326.079 A1680.000,1680.000 0.000 0,0 3674.381,1862.717 Z" style="stroke-width:2.0;stroke:rgb(255,255,255);stroke-linecap:round;fill:rgb(185,185,185);" />
<text x="3743.6" y="2111.6" font-size="36.4px" font-family="CMUBright-Roman" style="text-anchor:start;fill:rgb(0,0,0);" transform="rotate(3.3,3743.6,2111.6)" >Finance-Investment</text>
<path d="M3636.509,1865.822 A1642.000,1642.000 40.000 0,1 3610.774,2318.704 L3648.051,2326.079 A1680.000,1680.000 0.000 0,0 3674.381,1862.717 Z" style="stroke-width:2.0;stroke:rgb(255,255,255);stroke-linecap:round;fill:none;" />
<path d="M3603.438,2353.767 A1642.000,1642.000 40.000 0,1 3499.856,2668.278 L3534.566,2683.744 A1680.000,1680.000 0.000 0,0 3640.546,2361.954 Z" style="stroke-width:2.0;stroke:rgb(255,255,255);stroke-linecap:round;fill:rgb(185,185,185);" />
<text x="3655.6" y="2558.4" font-size="36.4px" font-family="CMUBright-Roman" style="text-anchor:start;fill:rgb(0,0,0);" transform="rotate(18.2,3655.6,2558.4)" >Software-Data</text>
<path d="M3603.438,2353.767 A1642.000,1642.000 40.000 0,1 3499.856,2668.278 L3534.566,2683.744 A1680.000,1680.000 0.000 0,0 3640.546,2361.954 Z" style="stroke-width:2.0;stroke:rgb(255,255,255);stroke-linecap:round;fill:none;" />
<path d="M3484.921,2700.839 A1642.000,1642.000 40.000 0,1 3330.895,2961.708 L3361.695,2983.964 A1680.000,1680.000 0.000 0,0 3519.285,2717.058 Z" style="stroke-width:2.0;stroke:rgb(255,255,255);stroke-linecap:round;fill:rgb(185,185,185);" />
<text x="3498.1" y="2899.1" font-size="36.4px" font-family="CMUBright-Roman" style="text-anchor:start;fill:rgb(0,0,0);" transform="rotate(30.6,3498.1,2899.1)" >Education</text>
<path d="M3484.921,2700.839 A1642.000,1642.000 40.000 0,1 3330.895,2961.708 L3361.695,2983.964 A1680.000,1680.000 0.000 0,0 3519.285,2717.058 Z" style="stroke-width:2.0;stroke:rgb(255,255,255);stroke-linecap:round;fill:none;" />
<path d="M3309.599,2990.512 A1642.000,1642.000 40.000 0,1 3129.055,3192.225 L3155.184,3219.816 A1680.000,1680.000 0.000 0,0 3339.906,3013.435 Z" style="stroke-width:2.0;stroke:rgb(255,255,255);stroke-linecap:round;fill:rgb(185,185,185);" />
<text x="3293.5" y="3174.5" font-size="36.4px" font-family="CMUBright-Roman" style="text-anchor:start;fill:rgb(0,0,0);" transform="rotate(41.8,3293.5,3174.5)" >Research-Science</text>
<path d="M3309.599,2990.512 A1642.000,1642.000 40.000 0,1 3129.055,3192.225 L3155.184,3219.816 A1680.000,1680.000 0.000 0,0 3339.906,3013.435 Z" style="stroke-width:2.0;stroke:rgb(255,255,255);stroke-linecap:round;fill:none;" />
<path d="M3102.778,3216.571 A1642.000,1642.000 40.000 0,1 2891.302,3379.038 L2911.929,3410.952 A1680.000,1680.000 0.000 0,0 3128.299,3244.726 Z" style="stroke-width:2.0;stroke:rgb(255,255,255);stroke-linecap:round;fill:rgb(185,185,185);" />
<text x="3054.5" y="3393.1" font-size="36.4px" font-family="CMUBright-Roman" style="text-anchor:start;fill:rgb(0,0,0);" transform="rotate(52.5,3054.5,3393.1)" >Clinical-Care</text>
<path d="M3102.778,3216.571 A1642.000,1642.000 40.000 0,1 2891.302,3379.038 L2911.929,3410.952 A1680.000,1680.000 0.000 0,0 3128.299,3244.726 Z" style="stroke-width:2.0;stroke:rgb(255,255,255);stroke-linecap:round;fill:none;" />
<path d="M2861.006,3398.153 A1642.000,1642.000 40.000 0,1 2640.127,3512.085 L2654.941,3547.079 A1680.000,1680.000 0.000 0,0 2880.932,3430.510 Z" style="stroke-width:2.0;stroke:rgb(255,255,255);stroke-linecap:round;fill:rgb(185,185,185);" />
<text x="2786.7" y="3560.1" font-size="36.4px" font-family="CMUBright-Roman" style="text-anchor:start;fill:rgb(0,0,0);" transform="rotate(62.7,2786.7,3560.1)" >Accounting-Audit</text>
<path d="M2861.006,3398.153 A1642.000,1642.000 40.000 0,1 2640.127,3512.085 L2654.941,3547.079 A1680.000,1680.000 0.000 0,0 2880.932,3430.510 Z" style="stroke-width:2.0;stroke:rgb(255,255,255);stroke-linecap:round;fill:none;" />
<path d="M2606.988,3525.690 A1642.000,1642.000 40.000 0,1 2452.002,3578.562 L2462.463,3615.094 A1680.000,1680.000 0.000 0,0 2621.036,3560.998 Z" style="stroke-width:2.0;stroke:rgb(255,255,255);stroke-linecap:round;fill:rgb(185,185,185);" />
<text x="2552.3" y="3657.6" font-size="36.4px" font-family="CMUBright-Roman" style="text-anchor:start;fill:rgb(0,0,0);" transform="rotate(71.2,2552.3,3657.6)" >Social-Service</text>
<path d="M2606.988,3525.690 A1642.000,1642.000 40.000 0,1 2452.002,3578.562 L2462.463,3615.094 A1680.000,1680.000 0.000 0,0 2621.036,3560.998 Z" style="stroke-width:2.0;stroke:rgb(255,255,255);stroke-linecap:round;fill:none;" />
<path d="M2417.459,3588.047 A1642.000,1642.000 40.000 0,1 2320.910,3610.336 L2328.336,3647.603 A1680.000,1680.000 0.000 0,0 2427.120,3624.798 Z" style="stroke-width:2.0;stroke:rgb(255,255,255);stroke-linecap:round;fill:rgb(185,185,185);" />
<text x="2380.8" y="3705.2" font-size="36.4px" font-family="CMUBright-Roman" style="text-anchor:start;fill:rgb(0,0,0);" transform="rotate(77.0,2380.8,3705.2)" >IT-Infrastructure</text>
<path d="M2417.459,3588.047 A1642.000,1642.000 40.000 0,1 2320.910,3610.336 L2328.336,3647.603 A1680.000,1680.000 0.000 0,0 2427.120,3624.798 Z" style="stroke-width:2.0;stroke:rgb(255,255,255);stroke-linecap:round;fill:none;" />
<path d="M2285.704,3616.953 A1642.000,1642.000 40.000 0,1 2189.660,3631.010 L2194.050,3668.755 A1680.000,1680.000 0.000 0,0 2292.316,3654.373 Z" style="stroke-width:2.0;stroke:rgb(255,255,255);stroke-linecap:round;fill:rgb(185,185,185);" />
<text x="2237.2" y="3731.0" font-size="36.4px" font-family="CMUBright-Roman" style="text-anchor:start;fill:rgb(0,0,0);" transform="rotate(81.7,2237.2,3731.0)" >Legal-Policy</text>
<path d="M2285.704,3616.953 A1642.000,1642.000 40.000 0,1 2189.660,3631.010 L2194.050,3668.755 A1680.000,1680.000 0.000 0,0 2292.316,3654.373 Z" style="stroke-width:2.0;stroke:rgb(255,255,255);stroke-linecap:round;fill:none;" />
<path d="M2154.035,3634.759 A1642.000,1642.000 40.000 0,1 1474.020,3555.477 L1461.848,3591.475 A1680.000,1680.000 0.000 0,0 2157.600,3672.592 Z" style="stroke-width:2.0;stroke:rgb(255,255,255);stroke-linecap:round;fill:rgb(15,52,135);" />
<text x="1813.6" y="3737.2" font-size="36.4px" font-family="CMUBright-Roman" style="text-anchor:end;fill:rgb(0,0,0);" transform="rotate(-83.3,1813.6,3737.2)" >Finance-Accounting</text>
<path d="M2154.035,3634.759 A1642.000,1642.000 40.000 0,1 1474.020,3555.477 L1461.848,3591.475 A1680.000,1680.000 0.000 0,0 2157.600,3672.592 Z" style="stroke-width:2.0;stroke:rgb(255,255,255);stroke-linecap:round;fill:none;" />
<path d="M1440.213,3543.633 A1642.000,1642.000 40.000 0,1 888.845,3208.925 L863.130,3236.902 A1680.000,1680.000 0.000 0,0 1427.258,3579.356 Z" style="stroke-width:2.0;stroke:rgb(255,255,255);stroke-linecap:round;fill:rgb(42,98,180);" />
<text x="1104.1" y="3500.0" font-size="36.4px" font-family="CMUBright-Roman" style="text-anchor:end;fill:rgb(0,0,0);" transform="rotate(-58.7,1104.1,3500.0)" >General-Business</text>
<path d="M1440.213,3543.633 A1642.000,1642.000 40.000 0,1 888.845,3208.925 L863.130,3236.902 A1680.000,1680.000 0.000 0,0 1427.258,3579.356 Z" style="stroke-width:2.0;stroke:rgb(255,255,255);stroke-linecap:round;fill:none;" />
<path d="M862.737,3184.397 A1642.000,1642.000 40.000 0,1 624.574,2896.866 L592.744,2917.622 A1680.000,1680.000 0.000 0,0 836.418,3211.807 Z" style="stroke-width:2.0;stroke:rgb(255,255,255);stroke-linecap:round;fill:rgb(28,75,160);" />
<text x="664.7" y="3126.8" font-size="36.4px" font-family="CMUBright-Roman" style="text-anchor:end;fill:rgb(0,0,0);" transform="rotate(-39.6,664.7,3126.8)" >Marketing-Communication</text>
<path d="M862.737,3184.397 A1642.000,1642.000 40.000 0,1 624.574,2896.866 L592.744,2917.622 A1680.000,1680.000 0.000 0,0 836.418,3211.807 Z" style="stroke-width:2.0;stroke:rgb(255,255,255);stroke-linecap:round;fill:none;" />
<path d="M605.337,2866.648 A1642.000,1642.000 40.000 0,1 476.558,2612.607 L441.301,2626.784 A1680.000,1680.000 0.000 0,0 573.061,2886.704 Z" style="stroke-width:2.0;stroke:rgb(255,255,255);stroke-linecap:round;fill:rgb(60,120,198);" />
<text x="448.7" y="2803.8" font-size="36.4px" font-family="CMUBright-Roman" style="text-anchor:end;fill:rgb(0,0,0);" transform="rotate(-26.9,448.7,2803.8)" >Operations-Analytics</text>
<path d="M605.337,2866.648 A1642.000,1642.000 40.000 0,1 476.558,2612.607 L441.301,2626.784 A1680.000,1680.000 0.000 0,0 573.061,2886.704 Z" style="stroke-width:2.0;stroke:rgb(255,255,255);stroke-linecap:round;fill:none;" />
<path d="M463.556,2579.227 A1642.000,1642.000 40.000 0,1 407.419,2399.813 L370.563,2409.066 A1680.000,1680.000 0.000 0,0 427.999,2592.632 Z" style="stroke-width:2.0;stroke:rgb(255,255,255);stroke-linecap:round;fill:rgb(82,145,215);" />
<text x="337.2" y="2536.5" font-size="36.4px" font-family="CMUBright-Roman" style="text-anchor:end;fill:rgb(0,0,0);" transform="rotate(-17.4,337.2,2536.5)" >Specialized-Business</text>
<path d="M463.556,2579.227 A1642.000,1642.000 40.000 0,1 407.419,2399.813 L370.563,2409.066 A1680.000,1680.000 0.000 0,0 427.999,2592.632 Z" style="stroke-width:2.0;stroke:rgb(255,255,255);stroke-linecap:round;fill:none;" />
<path d="M399.076,2364.976 A1642.000,1642.000 40.000 0,1 366.776,2169.540 L328.979,2173.464 A1680.000,1680.000 0.000 0,0 362.027,2373.422 Z" style="stroke-width:2.0;stroke:rgb(255,255,255);stroke-linecap:round;fill:rgb(200,108,30);" />
<text x="278.3" y="2297.2" font-size="36.4px" font-family="CMUBright-Roman" style="text-anchor:end;fill:rgb(0,0,0);" transform="rotate(-9.4,278.3,2297.2)" >Social-Sciences</text>
<path d="M399.076,2364.976 A1642.000,1642.000 40.000 0,1 366.776,2169.540 L328.979,2173.464 A1680.000,1680.000 0.000 0,0 362.027,2373.422 Z" style="stroke-width:2.0;stroke:rgb(255,255,255);stroke-linecap:round;fill:none;" />
<path d="M363.466,2133.872 A1642.000,1642.000 40.000 0,1 358.290,2030.870 L320.297,2031.584 A1680.000,1680.000 0.000 0,0 325.593,2136.970 Z" style="stroke-width:2.0;stroke:rgb(255,255,255);stroke-linecap:round;fill:rgb(108,170,228);" />
<text x="255.6" y="2099.7" font-size="36.4px" font-family="CMUBright-Roman" style="text-anchor:end;fill:rgb(0,0,0);" transform="rotate(-2.9,255.6,2099.7)" >Economics</text>
<path d="M363.466,2133.872 A1642.000,1642.000 40.000 0,1 358.290,2030.870 L320.297,2031.584 A1680.000,1680.000 0.000 0,0 325.593,2136.970 Z" style="stroke-width:2.0;stroke:rgb(255,255,255);stroke-linecap:round;fill:none;" />
<path d="M358.007,1995.049 A1642.000,1642.000 40.000 0,1 358.807,1948.539 L320.825,1947.348 A1680.000,1680.000 0.000 0,0 320.008,1994.934 Z" style="stroke-width:2.0;stroke:rgb(255,255,255);stroke-linecap:round;fill:rgb(220,140,52);" />
<text x="252.9" y="1982.5" font-size="36.4px" font-family="CMUBright-Roman" style="text-anchor:end;fill:rgb(0,0,0);" transform="rotate(1.0,252.9,1982.5)" >Humanities-Liberal-Arts</text>
<path d="M358.007,1995.049 A1642.000,1642.000 40.000 0,1 358.807,1948.539 L320.825,1947.348 A1680.000,1680.000 0.000 0,0 320.008,1994.934 Z" style="stroke-width:2.0;stroke:rgb(255,255,255);stroke-linecap:round;fill:none;" />
<path d="M360.320,1912.749 A1642.000,1642.000 40.000 0,1 361.133,1898.615 L323.205,1896.269 A1680.000,1680.000 0.000 0,0 322.373,1910.730 Z" style="stroke-width:2.0;stroke:rgb(255,255,255);stroke-linecap:round;fill:rgb(235,168,78);" />
<text x="255.0" y="1912.1" font-size="36.4px" font-family="CMUBright-Roman" style="text-anchor:end;fill:rgb(0,0,0);" transform="rotate(3.3,255.0,1912.1)" >International-Studies</text>
<path d="M360.320,1912.749 A1642.000,1642.000 40.000 0,1 361.133,1898.615 L323.205,1896.269 A1680.000,1680.000 0.000 0,0 322.373,1910.730 Z" style="stroke-width:2.0;stroke:rgb(255,255,255);stroke-linecap:round;fill:none;" />
<path d="M363.735,1862.887 A1642.000,1642.000 40.000 0,1 391.336,1670.812 L354.108,1663.193 A1680.000,1680.000 0.000 0,0 325.867,1859.714 Z" style="stroke-width:2.0;stroke:rgb(255,255,255);stroke-linecap:round;fill:rgb(195,58,55);" />
<text x="268.8" y="1763.9" font-size="36.4px" font-family="CMUBright-Roman" style="text-anchor:end;fill:rgb(0,0,0);" transform="rotate(8.2,268.8,1763.9)" >Social-Work</text>
<path d="M363.735,1862.887 A1642.000,1642.000 40.000 0,1 391.336,1670.812 L354.108,1663.193 A1680.000,1680.000 0.000 0,0 325.867,1859.714 Z" style="stroke-width:2.0;stroke:rgb(255,255,255);stroke-linecap:round;fill:none;" />
<path d="M398.900,1635.797 A1642.000,1642.000 40.000 0,1 428.981,1522.439 L392.624,1511.387 A1680.000,1680.000 0.000 0,0 361.847,1627.368 Z" style="stroke-width:2.0;stroke:rgb(255,255,255);stroke-linecap:round;fill:rgb(175,35,42);" />
<text x="308.1" y="1564.0" font-size="36.4px" font-family="CMUBright-Roman" style="text-anchor:end;fill:rgb(0,0,0);" transform="rotate(14.9,308.1,1564.0)" >Teacher-Education</text>
<path d="M398.900,1635.797 A1642.000,1642.000 40.000 0,1 428.981,1522.439 L392.624,1511.387 A1680.000,1680.000 0.000 0,0 361.847,1627.368 Z" style="stroke-width:2.0;stroke:rgb(255,255,255);stroke-linecap:round;fill:none;" />
<path d="M439.773,1488.281 A1642.000,1642.000 40.000 0,1 474.975,1391.343 L439.682,1377.257 A1680.000,1680.000 0.000 0,0 403.666,1476.439 Z" style="stroke-width:2.0;stroke:rgb(255,255,255);stroke-linecap:round;fill:rgb(215,82,72);" />
<text x="352.5" y="1418.2" font-size="36.4px" font-family="CMUBright-Roman" style="text-anchor:end;fill:rgb(0,0,0);" transform="rotate(20.0,352.5,1418.2)" >Special-Education</text>
<path d="M439.773,1488.281 A1642.000,1642.000 40.000 0,1 474.975,1391.343 L439.682,1377.257 A1680.000,1680.000 0.000 0,0 403.666,1476.439 Z" style="stroke-width:2.0;stroke:rgb(255,255,255);stroke-linecap:round;fill:none;" />
<path d="M488.616,1358.220 A1642.000,1642.000 40.000 0,1 509.092,1311.991 L474.588,1296.068 A1680.000,1680.000 0.000 0,0 453.639,1343.368 Z" style="stroke-width:2.0;stroke:rgb(255,255,255);stroke-linecap:round;fill:rgb(230,112,95);" />
<text x="396.3" y="1306.6" font-size="36.4px" font-family="CMUBright-Roman" style="text-anchor:end;fill:rgb(0,0,0);" transform="rotate(23.9,396.3,1306.6)" >Educational-Leadership</text>
<path d="M488.616,1358.220 A1642.000,1642.000 40.000 0,1 509.092,1311.991 L474.588,1296.068 A1680.000,1680.000 0.000 0,0 453.639,1343.368 Z" style="stroke-width:2.0;stroke:rgb(255,255,255);stroke-linecap:round;fill:none;" />
<path d="M524.455,1279.630 A1642.000,1642.000 40.000 0,1 553.988,1222.045 L520.524,1204.041 A1680.000,1680.000 0.000 0,0 490.308,1262.959 Z" style="stroke-width:2.0;stroke:rgb(255,255,255);stroke-linecap:round;fill:rgb(0,130,142);" />
<text x="439.7" y="1213.8" font-size="36.4px" font-family="CMUBright-Roman" style="text-anchor:end;fill:rgb(0,0,0);" transform="rotate(27.2,439.7,1213.8)" >Communication-Studies</text>
<path d="M524.455,1279.630 A1642.000,1642.000 40.000 0,1 553.988,1222.045 L520.524,1204.041 A1680.000,1680.000 0.000 0,0 490.308,1262.959 Z" style="stroke-width:2.0;stroke:rgb(255,255,255);stroke-linecap:round;fill:none;" />
<path d="M571.303,1190.686 A1642.000,1642.000 40.000 0,1 588.562,1160.949 L555.898,1141.531 A1680.000,1680.000 0.000 0,0 538.240,1171.956 Z" style="stroke-width:2.0;stroke:rgb(255,255,255);stroke-linecap:round;fill:rgb(0,165,172);" />
<text x="482.6" y="1133.8" font-size="36.4px" font-family="CMUBright-Roman" style="text-anchor:end;fill:rgb(0,0,0);" transform="rotate(30.1,482.6,1133.8)" >Journalism-Media</text>
<path d="M571.303,1190.686 A1642.000,1642.000 40.000 0,1 588.562,1160.949 L555.898,1141.531 A1680.000,1680.000 0.000 0,0 538.240,1171.956 Z" style="stroke-width:2.0;stroke:rgb(255,255,255);stroke-linecap:round;fill:none;" />
<path d="M607.202,1130.358 A1642.000,1642.000 40.000 0,1 613.667,1120.089 L581.583,1099.725 A1680.000,1680.000 0.000 0,0 574.969,1110.233 Z" style="stroke-width:2.0;stroke:rgb(255,255,255);stroke-linecap:round;fill:rgb(38,195,195);" />
<text x="512.9" y="1082.8" font-size="36.4px" font-family="CMUBright-Roman" style="text-anchor:end;fill:rgb(0,0,0);" transform="rotate(32.2,512.9,1082.8)" >Creative-Writing</text>
<path d="M607.202,1130.358 A1642.000,1642.000 40.000 0,1 613.667,1120.089 L581.583,1099.725 A1680.000,1680.000 0.000 0,0 574.969,1110.233 Z" style="stroke-width:2.0;stroke:rgb(255,255,255);stroke-linecap:round;fill:none;" />
<path d="M633.192,1090.055 A1642.000,1642.000 40.000 0,1 667.742,1040.182 L636.910,1017.969 A1680.000,1680.000 0.000 0,0 601.560,1068.997 Z" style="stroke-width:2.0;stroke:rgb(255,255,255);stroke-linecap:round;fill:rgb(180,45,112);" />
<text x="554.7" y="1018.2" font-size="36.4px" font-family="CMUBright-Roman" style="text-anchor:end;fill:rgb(0,0,0);" transform="rotate(34.7,554.7,1018.2)" >Arts-Theology</text>
<path d="M633.192,1090.055 A1642.000,1642.000 40.000 0,1 667.742,1040.182 L636.910,1017.969 A1680.000,1680.000 0.000 0,0 601.560,1068.997 Z" style="stroke-width:2.0;stroke:rgb(255,255,255);stroke-linecap:round;fill:none;" />
<path d="M688.997,1011.347 A1642.000,1642.000 40.000 0,1 698.803,998.477 L668.690,975.299 A1680.000,1680.000 0.000 0,0 658.657,988.467 Z" style="stroke-width:2.0;stroke:rgb(255,255,255);stroke-linecap:round;fill:rgb(205,75,142);" />
<text x="600.6" y="953.9" font-size="36.4px" font-family="CMUBright-Roman" style="text-anchor:end;fill:rgb(0,0,0);" transform="rotate(37.3,600.6,953.9)" >English-Writing</text>
<path d="M688.997,1011.347 A1642.000,1642.000 40.000 0,1 698.803,998.477 L668.690,975.299 A1680.000,1680.000 0.000 0,0 658.657,988.467 Z" style="stroke-width:2.0;stroke:rgb(255,255,255);stroke-linecap:round;fill:none;" />
<path d="M720.960,970.329 A1642.000,1642.000 40.000 0,1 724.774,965.610 L695.262,941.672 A1680.000,1680.000 0.000 0,0 691.360,946.500 Z" style="stroke-width:2.0;stroke:rgb(255,255,255);stroke-linecap:round;fill:rgb(225,110,168);" />
<text x="631.0" y="914.3" font-size="36.4px" font-family="CMUBright-Roman" style="text-anchor:end;fill:rgb(0,0,0);" transform="rotate(38.9,631.0,914.3)" >Languages</text>
<path d="M720.960,970.329 A1642.000,1642.000 40.000 0,1 724.774,965.610 L695.262,941.672 A1680.000,1680.000 0.000 0,0 691.360,946.500 Z" style="stroke-width:2.0;stroke:rgb(255,255,255);stroke-linecap:round;fill:none;" />
<path d="M747.643,938.037 A1642.000,1642.000 40.000 0,1 884.635,794.959 L858.822,767.071 A1680.000,1680.000 0.000 0,0 718.660,913.461 Z" style="stroke-width:2.0;stroke:rgb(255,255,255);stroke-linecap:round;fill:rgb(88,40,138);" />
<text x="727.0" y="803.3" font-size="36.4px" font-family="CMUBright-Roman" style="text-anchor:end;fill:rgb(0,0,0);" transform="rotate(43.8,727.0,803.3)" >Biological-Sciences</text>
<path d="M747.643,938.037 A1642.000,1642.000 40.000 0,1 884.635,794.959 L858.822,767.071 A1680.000,1680.000 0.000 0,0 718.660,913.461 Z" style="stroke-width:2.0;stroke:rgb(255,255,255);stroke-linecap:round;fill:none;" />
<path d="M911.188,770.914 A1642.000,1642.000 40.000 0,1 969.888,721.316 L946.049,691.724 A1680.000,1680.000 0.000 0,0 885.990,742.470 Z" style="stroke-width:2.0;stroke:rgb(255,255,255);stroke-linecap:round;fill:rgb(115,65,165);" />
<text x="862.8" y="673.5" font-size="36.4px" font-family="CMUBright-Roman" style="text-anchor:end;fill:rgb(0,0,0);" transform="rotate(49.8,862.8,673.5)" >Health-Wellness</text>
<path d="M911.188,770.914 A1642.000,1642.000 40.000 0,1 969.888,721.316 L946.049,691.724 A1680.000,1680.000 0.000 0,0 885.990,742.470 Z" style="stroke-width:2.0;stroke:rgb(255,255,255);stroke-linecap:round;fill:none;" />
<path d="M998.028,699.148 A1642.000,1642.000 40.000 0,1 1023.858,679.655 L1001.267,649.099 A1680.000,1680.000 0.000 0,0 974.840,669.043 Z" style="stroke-width:2.0;stroke:rgb(255,255,255);stroke-linecap:round;fill:rgb(140,92,188);" />
<text x="935.2" y="614.8" font-size="36.4px" font-family="CMUBright-Roman" style="text-anchor:end;fill:rgb(0,0,0);" transform="rotate(53.0,935.2,614.8)" >Physical-Sciences</text>
<path d="M998.028,699.148 A1642.000,1642.000 40.000 0,1 1023.858,679.655 L1001.267,649.099 A1680.000,1680.000 0.000 0,0 974.840,669.043 Z" style="stroke-width:2.0;stroke:rgb(255,255,255);stroke-linecap:round;fill:none;" />
<path d="M1052.893,658.675 A1642.000,1642.000 40.000 0,1 1064.493,650.559 L1042.843,619.329 A1680.000,1680.000 0.000 0,0 1030.975,627.633 Z" style="stroke-width:2.0;stroke:rgb(255,255,255);stroke-linecap:round;fill:rgb(165,120,208);" />
<text x="988.2" y="575.6" font-size="36.4px" font-family="CMUBright-Roman" style="text-anchor:end;fill:rgb(0,0,0);" transform="rotate(55.0,988.2,575.6)" >Environmental-Sciences</text>
<path d="M1052.893,658.675 A1642.000,1642.000 40.000 0,1 1064.493,650.559 L1042.843,619.329 A1680.000,1680.000 0.000 0,0 1030.975,627.633 Z" style="stroke-width:2.0;stroke:rgb(255,255,255);stroke-linecap:round;fill:none;" />
<path d="M1094.154,630.472 A1642.000,1642.000 40.000 0,1 1594.822,408.776 L1585.445,371.951 A1680.000,1680.000 0.000 0,0 1073.190,598.778 Z" style="stroke-width:2.0;stroke:rgb(255,255,255);stroke-linecap:round;fill:rgb(22,118,50);" />
<text x="1278.0" y="409.0" font-size="36.4px" font-family="CMUBright-Roman" style="text-anchor:end;fill:rgb(0,0,0);" transform="rotate(66.1,1278.0,409.0)" >Engineering-Disciplines</text>
<path d="M1094.154,630.472 A1642.000,1642.000 40.000 0,1 1594.822,408.776 L1585.445,371.951 A1680.000,1680.000 0.000 0,0 1073.190,598.778 Z" style="stroke-width:2.0;stroke:rgb(255,255,255);stroke-linecap:round;fill:none;" />
<path d="M1629.631,400.315 A1642.000,1642.000 40.000 0,1 1964.180,358.391 L1963.351,320.400 A1680.000,1680.000 0.000 0,0 1621.060,363.295 Z" style="stroke-width:2.0;stroke:rgb(255,255,255);stroke-linecap:round;fill:rgb(48,158,75);" />
<text x="1767.4" y="268.4" font-size="36.4px" font-family="CMUBright-Roman" style="text-anchor:end;fill:rgb(0,0,0);" transform="rotate(82.9,1767.4,268.4)" >Computer-Science-IT</text>
<path d="M1629.631,400.315 A1642.000,1642.000 40.000 0,1 1964.180,358.391 L1963.351,320.400 A1680.000,1680.000 0.000 0,0 1621.060,363.295 Z" style="stroke-width:2.0;stroke:rgb(255,255,255);stroke-linecap:round;fill:none;" />
</g>
<g id="track_0">
<path d="M 2000.000,374.420 A 1625.580,1625.580 0.00 0,1 2024.0,374.6 L 2024.0,374.6 2023.0,427.7 2021.3,480.5 2019.1,532.5 2016.3,583.4 2012.8,632.9 2008.8,680.5 2004.1,726.1 1998.9,769.4 1993.0,810.1 1986.5,847.9 1979.4,882.7 1971.8,914.2 1963.5,942.4 1954.7,967.0 1945.3,987.8 1935.4,1005.0 1925.0,1018.2 1914.1,1027.4 1902.7,1032.7 1890.9,1034.0 1878.6,1031.2 1866.0,1024.5 1853.0,1013.7 1839.7,999.1 1826.2,980.7 1812.4,958.5 1798.3,932.7 1784.2,903.5 1769.9,871.0 1755.6,835.4 1741.3,796.9 1727.0,755.7 1712.8,712.1 1698.8,666.4 1685.0,618.8 1671.5,569.6 1658.3,519.3 1645.6,468.0 1633.3,416.3  A 1625.580,1625.580 0.00 0,1 1656.8,411.1 L 1656.8,411.1 1668.2,462.9 1680.1,514.3 1692.3,564.9 1704.9,614.2 1717.6,662.0 1730.5,707.9 1743.6,751.7 1756.7,793.1 1769.8,831.8 1782.9,867.6 1795.8,900.3 1808.7,929.7 1821.3,955.7 1833.8,978.0 1846.0,996.7 1857.8,1011.5 1869.4,1022.4 1880.6,1029.3 1891.4,1032.2 1901.8,1031.1 1911.8,1026.0 1921.2,1016.8 1930.2,1003.8 1938.7,986.8 1946.7,966.0 1954.2,941.5 1961.0,913.5 1967.4,882.0 1973.2,847.3 1978.4,809.5 1983.0,768.9 1987.1,725.7 1990.6,680.1 1993.5,632.5 1995.9,583.1 1997.7,532.2 1999.0,480.3 1999.8,427.5 2000.0,374.4  Z" style="stroke-width: 0.0;  fill: rgb(48,158,75);" />
<path d="M 2024.027,374.598 A 1625.580,1625.580 0.00 0,1 2038.0,374.9 L 2038.0,374.9 2036.1,428.9 2032.8,482.7 2028.0,536.0 2021.8,588.4 2014.1,639.6 2005.0,689.3 1994.4,737.3 1982.3,783.2 1968.7,826.8 1953.6,868.0 1937.1,906.5 1919.1,942.1 1899.8,974.6 1879.0,1004.0 1856.9,1030.0 1833.4,1052.6 1808.7,1071.7 1782.8,1087.2 1755.7,1099.0 1727.5,1107.1 1698.3,1111.5 1668.1,1112.2 1637.0,1109.2 1605.2,1102.6 1572.6,1092.3 1539.4,1078.5 1505.6,1061.2 1471.5,1040.6 1437.0,1016.8 1402.4,990.0 1367.7,960.2 1333.0,927.8 1298.5,892.8 1264.3,855.6 1230.6,816.3 1197.4,775.2 1165.1,732.7 1133.6,688.9 1103.2,644.2  A 1625.580,1625.580 0.00 0,1 1114.9,636.5 L 1114.9,636.5 1144.9,681.4 1175.9,725.4 1207.8,768.3 1240.4,809.6 1273.6,849.2 1307.2,886.7 1341.1,921.9 1375.2,954.7 1409.2,984.7 1443.2,1011.9 1477.0,1035.9 1510.5,1056.8 1543.5,1074.4 1576.0,1088.4 1607.9,1099.0 1639.0,1105.9 1669.3,1109.2 1698.7,1108.7 1727.2,1104.6 1754.6,1096.7 1780.9,1085.1 1806.1,1069.8 1830.0,1050.9 1852.7,1028.5 1874.1,1002.6 1894.1,973.4 1912.7,940.9 1929.9,905.5 1945.7,867.1 1960.1,826.0 1973.0,782.5 1984.4,736.6 1994.4,688.7 2002.9,639.1 2009.9,587.9 2015.5,535.6 2019.7,482.3 2022.6,428.6 2024.0,374.6  Z" style="stroke-width: 0.0;  fill: rgb(22,118,50);" />
<path d="M 2038.040,374.865 A 1625.580,1625.580 0.00 0,1 2040.0,374.9 L 2040.0,374.9 2038.0,429.0 2034.5,483.0 2029.5,536.4 2023.0,589.0 2015.0,640.4 2005.4,690.4 1994.3,738.6 1981.6,784.9 1967.4,828.9 1951.6,870.5 1934.4,909.4 1915.6,945.5 1895.3,978.6 1873.6,1008.6 1850.4,1035.2 1825.9,1058.5 1800.1,1078.3 1773.0,1094.5 1744.7,1107.1 1715.2,1116.1 1684.7,1121.4 1653.1,1123.0 1620.7,1120.9 1587.3,1115.2 1553.3,1105.9 1518.6,1093.1 1483.3,1076.9 1447.6,1057.4 1411.6,1034.6 1375.4,1008.9 1339.1,980.2 1302.8,948.8 1266.7,914.9 1230.9,878.7 1195.7,840.5 1161.0,800.4 1127.1,758.8 1094.2,715.9 1062.4,672.1  A 1625.580,1625.580 0.00 0,1 1064.0,670.9 L 1064.0,670.9 1095.8,714.8 1128.6,757.7 1162.4,799.4 1197.0,839.5 1232.2,877.8 1267.9,914.0 1303.9,947.9 1340.1,979.4 1376.3,1008.1 1412.5,1033.9 1448.4,1056.7 1484.0,1076.2 1519.1,1092.5 1553.8,1105.3 1587.7,1114.7 1620.9,1120.4 1653.3,1122.5 1684.7,1120.9 1715.2,1115.7 1744.5,1106.8 1772.7,1094.2 1799.7,1078.0 1825.4,1058.2 1849.8,1035.0 1872.9,1008.3 1894.5,978.4 1914.7,945.3 1933.3,909.3 1950.5,870.3 1966.2,828.8 1980.3,784.8 1992.9,738.5 2003.9,690.3 2013.4,640.3 2021.3,588.9 2027.7,536.4 2032.6,482.9 2036.1,429.0 2038.0,374.9  Z" style="stroke-width: 0.0;  fill: rgb(165,120,208);" />
<path d="M 2040.042,374.913 A 1625.580,1625.580 0.00 0,1 2042.0,375.0 L 2042.0,375.0 2039.9,429.2 2036.2,483.4 2030.9,537.0 2024.0,589.9 2015.5,641.6 2005.4,692.0 1993.7,740.6 1980.3,787.3 1965.2,831.9 1948.6,874.0 1930.3,913.6 1910.4,950.4 1889.0,984.3 1866.1,1015.1 1841.6,1042.6 1815.7,1066.9 1788.4,1087.7 1759.8,1105.0 1729.8,1118.7 1698.7,1128.9 1666.4,1135.4 1633.1,1138.3 1598.8,1137.6 1563.5,1133.3 1527.5,1125.5 1490.9,1114.1 1453.6,1099.4 1415.8,1081.4 1377.8,1060.2 1339.4,1036.0 1301.0,1008.8 1262.7,979.0 1224.5,946.6 1186.7,911.9 1149.3,875.1 1112.6,836.5 1076.7,796.3 1041.8,754.7 1008.0,712.2  A 1625.580,1625.580 0.00 0,1 1009.6,710.9 L 1009.6,710.9 1043.3,753.5 1078.2,795.1 1114.0,835.4 1150.6,874.1 1187.9,910.9 1225.7,945.6 1263.8,978.1 1302.0,1007.9 1340.4,1035.1 1378.6,1059.4 1416.6,1080.6 1454.2,1098.7 1491.4,1113.5 1528.0,1124.8 1563.9,1132.7 1599.0,1137.1 1633.2,1137.8 1666.5,1135.0 1698.6,1128.5 1729.7,1118.4 1759.5,1104.7 1788.0,1087.4 1815.2,1066.6 1841.0,1042.4 1865.3,1014.8 1888.2,984.1 1909.5,950.2 1929.3,913.4 1947.4,873.9 1964.0,831.7 1978.9,787.2 1992.2,740.5 2003.9,691.9 2013.9,641.5 2022.3,589.8 2029.1,537.0 2034.3,483.3 2037.9,429.2 2040.0,374.9  Z" style="stroke-width: 0.0;  fill: rgb(140,92,188);" />
<path d="M 2042.044,374.964 A 1625.580,1625.580 0.00 0,1 2052.1,375.3 L 2052.1,375.3 2049.5,429.8 2045.2,484.3 2039.2,538.4 2031.5,591.7 2022.0,644.0 2010.8,694.9 1997.7,744.3 1982.9,791.8 1966.3,837.3 1948.0,880.5 1927.9,921.2 1906.1,959.3 1882.6,994.5 1857.4,1026.7 1830.7,1055.9 1802.3,1081.8 1772.5,1104.4 1741.2,1123.6 1708.5,1139.4 1674.5,1151.7 1639.3,1160.4 1603.0,1165.6 1565.6,1167.3 1527.2,1165.4 1488.0,1160.1 1448.0,1151.4 1407.4,1139.3 1366.3,1123.9 1324.9,1105.5 1283.2,1084.0 1241.4,1059.6 1199.6,1032.5 1158.0,1002.8 1116.8,970.8 1076.1,936.6 1036.1,900.5 997.0,862.7 958.9,823.5 922.1,783.2  A 1625.580,1625.580 0.00 0,1 929.6,776.6 L 929.6,776.6 966.1,817.1 1003.9,856.5 1042.7,894.5 1082.4,930.8 1122.7,965.2 1163.5,997.5 1204.7,1027.4 1246.1,1054.8 1287.5,1079.4 1328.7,1101.2 1369.8,1119.9 1410.4,1135.5 1450.5,1147.8 1490.0,1156.8 1528.7,1162.4 1566.6,1164.4 1603.5,1163.0 1639.3,1158.0 1674.0,1149.5 1707.5,1137.4 1739.6,1121.8 1770.4,1102.7 1799.7,1080.3 1827.5,1054.5 1853.8,1025.5 1878.4,993.4 1901.4,958.2 1922.7,920.3 1942.3,879.7 1960.2,836.6 1976.3,791.2 1990.6,743.7 2003.2,694.4 2014.0,643.5 2023.0,591.2 2030.3,538.0 2035.9,483.9 2039.8,429.5 2042.0,375.0  Z" style="stroke-width: 0.0;  fill: rgb(115,65,165);" />
<path d="M 2052.051,375.254 A 1625.580,1625.580 0.00 0,1 2062.1,375.6 L 2062.1,375.6 2059.0,430.8 2054.0,486.1 2047.0,541.1 2037.9,595.5 2026.9,649.1 2013.8,701.6 1998.7,752.6 1981.6,802.1 1962.4,849.7 1941.2,895.3 1918.0,938.7 1892.8,979.6 1865.7,1018.0 1836.8,1053.7 1806.0,1086.5 1773.4,1116.4 1739.1,1143.2 1703.1,1166.8 1665.6,1187.3 1626.5,1204.5 1586.1,1218.3 1544.4,1228.9 1501.4,1236.1 1457.4,1239.9 1412.4,1240.5 1366.5,1237.8 1319.9,1231.8 1272.7,1222.7 1225.1,1210.5 1177.1,1195.4 1129.0,1177.3 1081.0,1156.6 1033.1,1133.2 985.6,1107.5 938.6,1079.4 892.4,1049.3 847.1,1017.3 803.0,983.7 760.2,948.7  A 1625.580,1625.580 0.00 0,1 766.7,941.0 L 766.7,941.0 809.2,976.3 853.1,1010.2 898.1,1042.4 944.0,1072.8 990.6,1101.1 1037.8,1127.2 1085.3,1150.8 1133.0,1171.9 1180.7,1190.2 1228.2,1205.6 1275.5,1218.1 1322.3,1227.5 1368.4,1233.7 1413.9,1236.7 1458.4,1236.4 1502.0,1232.8 1544.5,1225.9 1585.8,1215.6 1625.7,1201.9 1664.2,1185.0 1701.3,1164.7 1736.8,1141.2 1770.6,1114.6 1802.7,1084.9 1833.0,1052.2 1861.5,1016.7 1888.1,978.4 1912.7,937.6 1935.4,894.4 1956.2,848.9 1974.9,801.3 1991.6,751.9 2006.2,700.9 2018.9,648.5 2029.5,595.0 2038.1,540.6 2044.7,485.7 2049.3,430.4 2052.1,375.3  Z" style="stroke-width: 0.0;  fill: rgb(88,40,138);" />
<path d="M 2062.056,375.605 A 1625.580,1625.580 0.00 0,1 2066.1,375.8 L 2066.1,375.8 2062.8,431.1 2057.6,486.6 2050.3,541.7 2041.0,596.4 2029.6,650.2 2016.2,702.9 2000.6,754.3 1983.0,804.2 1963.3,852.2 1941.5,898.3 1917.7,942.1 1891.9,983.6 1864.2,1022.6 1834.5,1058.9 1803.0,1092.5 1769.6,1123.1 1734.5,1150.7 1697.7,1175.2 1659.3,1196.5 1619.4,1214.7 1578.0,1229.5 1535.4,1241.1 1491.5,1249.3 1446.5,1254.3 1400.5,1256.0 1353.6,1254.4 1306.0,1249.7 1257.7,1241.7 1209.1,1230.8 1160.1,1216.9 1110.9,1200.1 1061.8,1180.5 1012.9,1158.4 964.3,1133.8 916.3,1107.0 869.1,1078.0 822.7,1047.2 777.6,1014.6 733.8,980.6  A 1625.580,1625.580 0.00 0,1 736.3,977.5 L 736.3,977.5 780.0,1011.6 825.0,1044.3 871.2,1075.2 918.4,1104.3 966.3,1131.3 1014.7,1155.9 1063.5,1178.2 1112.5,1197.8 1161.4,1214.7 1210.3,1228.8 1258.8,1239.9 1306.9,1247.9 1354.3,1252.8 1401.0,1254.4 1446.9,1252.9 1491.7,1248.0 1535.4,1239.8 1577.9,1228.4 1619.0,1213.6 1658.8,1195.6 1697.0,1174.3 1733.6,1149.9 1768.5,1122.4 1801.6,1091.8 1833.0,1058.3 1862.5,1022.1 1890.0,983.1 1915.6,941.7 1939.2,897.9 1960.8,851.8 1980.3,803.8 1997.8,754.0 2013.1,702.7 2026.4,650.0 2037.6,596.2 2046.8,541.5 2053.9,486.4 2059.0,431.0 2062.1,375.6  Z" style="stroke-width: 0.0;  fill: rgb(225,110,168);" />
<path d="M 2066.058,375.763 A 1625.580,1625.580 0.00 0,1 2070.1,375.9 L 2070.1,375.9 2066.7,431.5 2061.2,487.1 2053.7,542.5 2044.0,597.4 2032.2,651.6 2018.3,704.7 2002.3,756.5 1984.1,806.8 1963.8,855.3 1941.4,902.0 1917.0,946.5 1890.4,988.7 1861.9,1028.4 1831.4,1065.6 1799.0,1100.0 1764.8,1131.6 1728.7,1160.2 1690.9,1185.8 1651.6,1208.3 1610.6,1227.6 1568.2,1243.7 1524.4,1256.6 1479.4,1266.2 1433.3,1272.5 1386.1,1275.7 1338.0,1275.6 1289.2,1272.3 1239.8,1265.9 1189.9,1256.5 1139.6,1244.1 1089.3,1228.9 1038.9,1210.9 988.7,1190.4 938.9,1167.3 889.6,1142.0 841.1,1114.5 793.5,1085.1 747.1,1053.9 702.1,1021.2  A 1625.580,1625.580 0.00 0,1 704.5,1018.0 L 704.5,1018.0 749.4,1050.8 795.7,1082.1 843.2,1111.6 891.6,1139.2 940.7,1164.7 990.4,1187.8 1040.5,1208.5 1090.7,1226.6 1140.9,1242.0 1191.0,1254.5 1240.8,1264.0 1290.1,1270.5 1338.7,1273.9 1386.6,1274.1 1433.6,1271.1 1479.6,1264.8 1524.4,1255.3 1568.0,1242.5 1610.2,1226.5 1651.0,1207.3 1690.2,1184.9 1727.7,1159.4 1763.6,1130.8 1797.7,1099.3 1829.9,1065.0 1860.2,1027.9 1888.5,988.2 1914.8,946.0 1939.1,901.5 1961.3,855.0 1981.4,806.4 1999.4,756.2 2015.3,704.4 2029.0,651.3 2040.6,597.2 2050.1,542.3 2057.5,486.9 2062.8,431.3 2066.1,375.8  Z" style="stroke-width: 0.0;  fill: rgb(205,75,142);" />
<path d="M 2070.059,375.930 A 1625.580,1625.580 0.00 0,1 2078.1,376.3 L 2078.1,376.3 2074.3,432.2 2068.4,488.2 2060.3,544.0 2050.1,599.5 2037.6,654.2 2022.9,708.0 2005.9,760.6 1986.8,811.8 1965.4,861.4 1941.8,909.1 1916.1,954.9 1888.3,998.4 1858.4,1039.6 1826.4,1078.4 1792.5,1114.5 1756.7,1147.9 1719.0,1178.5 1679.5,1206.1 1638.3,1230.8 1595.6,1252.4 1551.3,1270.9 1505.6,1286.3 1458.6,1298.4 1410.5,1307.5 1361.3,1313.3 1311.1,1316.1 1260.2,1315.7 1208.6,1312.2 1156.5,1305.8 1104.1,1296.4 1051.6,1284.1 999.0,1269.2 946.6,1251.6 894.6,1231.5 843.1,1209.1 792.4,1184.5 742.6,1157.8 694.0,1129.3 646.9,1099.2  A 1625.580,1625.580 0.00 0,1 651.3,1092.5 L 651.3,1092.5 698.3,1122.9 746.7,1151.6 796.2,1178.5 846.7,1203.3 897.9,1226.0 949.7,1246.3 1001.9,1264.2 1054.2,1279.4 1106.5,1291.9 1158.6,1301.5 1210.4,1308.2 1261.6,1311.9 1312.3,1312.5 1362.1,1310.1 1411.0,1304.4 1458.8,1295.6 1505.4,1283.6 1550.8,1268.5 1594.7,1250.2 1637.1,1228.8 1677.9,1204.3 1717.0,1176.8 1754.3,1146.4 1789.8,1113.1 1823.3,1077.1 1854.9,1038.5 1884.4,997.4 1911.9,953.9 1937.2,908.2 1960.4,860.6 1981.4,811.1 2000.2,760.0 2016.8,707.4 2031.1,653.7 2043.3,599.0 2053.2,543.6 2061.0,487.7 2066.6,431.8 2070.1,375.9  Z" style="stroke-width: 0.0;  fill: rgb(180,45,112);" />
<path d="M 2078.059,376.295 A 1625.580,1625.580 0.00 0,1 2088.1,376.8 L 2088.1,376.8 2083.9,433.1 2077.5,489.6 2068.7,546.1 2057.7,602.2 2044.4,657.7 2028.7,712.4 2010.7,766.0 1990.4,818.3 1967.8,869.2 1942.9,918.3 1915.8,965.6 1886.5,1010.9 1855.0,1054.0 1821.4,1094.8 1785.7,1133.1 1748.1,1168.8 1708.5,1201.8 1667.2,1232.1 1624.0,1259.5 1579.2,1284.1 1532.9,1305.6 1485.0,1324.1 1435.9,1339.6 1385.5,1352.0 1334.0,1361.4 1281.6,1367.7 1228.3,1371.0 1174.4,1371.3 1119.9,1368.6 1065.1,1363.0 1010.1,1354.6 955.1,1343.5 900.2,1329.7 845.7,1313.5 791.7,1294.8 738.5,1273.8 686.3,1250.7 635.2,1225.6 585.6,1198.8  A 1625.580,1625.580 0.00 0,1 590.6,1190.1 L 590.6,1190.1 640.0,1217.2 690.8,1242.6 742.8,1266.0 795.7,1287.2 849.4,1306.3 903.6,1322.9 958.2,1337.0 1012.9,1348.4 1067.6,1357.2 1122.1,1363.1 1176.2,1366.1 1229.8,1366.1 1282.7,1363.1 1334.7,1357.1 1385.8,1348.1 1435.8,1335.9 1484.6,1320.7 1532.0,1302.4 1577.9,1281.2 1622.3,1256.9 1665.0,1229.7 1705.9,1199.6 1745.0,1166.7 1782.2,1131.2 1817.4,1093.1 1850.5,1052.5 1881.6,1009.5 1910.4,964.4 1937.1,917.2 1961.5,868.1 1983.7,817.3 2003.5,765.1 2021.1,711.5 2036.3,656.9 2049.2,601.5 2059.9,545.4 2068.2,489.0 2074.3,432.5 2078.1,376.3  Z" style="stroke-width: 0.0;  fill: rgb(0,165,172);" />
<path d="M 2088.058,376.807 A 1625.580,1625.580 0.00 0,1 2110.0,378.1 L 2110.0,378.1 2105.0,434.8 2097.7,491.8 2087.9,548.8 2075.7,605.4 2061.2,661.6 2044.2,717.1 2024.9,771.5 2003.1,824.9 1979.0,876.8 1952.6,927.2 1923.9,975.8 1892.9,1022.5 1859.7,1067.2 1824.3,1109.7 1786.9,1149.9 1747.4,1187.6 1706.0,1222.8 1662.7,1255.4 1617.7,1285.2 1570.9,1312.2 1522.6,1336.4 1472.8,1357.7 1421.7,1376.1 1369.3,1391.5 1315.8,1403.9 1261.4,1413.3 1206.1,1419.8 1150.1,1423.4 1093.6,1424.1 1036.8,1421.9 979.7,1416.9 922.7,1409.1 865.8,1398.7 809.3,1385.8 753.3,1370.4 698.1,1352.7 643.9,1332.8 590.9,1310.8 539.2,1286.8  A 1625.580,1625.580 0.00 0,1 549.0,1267.1 L 549.0,1267.1 600.2,1291.7 652.7,1314.3 706.4,1335.0 761.1,1353.4 816.5,1369.5 872.4,1383.2 928.7,1394.4 985.1,1402.8 1041.5,1408.6 1097.6,1411.5 1153.4,1411.6 1208.6,1408.8 1263.2,1403.0 1316.8,1394.2 1369.5,1382.5 1421.1,1367.7 1471.4,1350.0 1520.3,1329.3 1567.7,1305.6 1613.6,1279.1 1657.7,1249.8 1700.0,1217.7 1740.5,1182.9 1779.0,1145.6 1815.4,1105.8 1849.8,1063.6 1882.0,1019.2 1912.0,972.8 1939.8,924.4 1965.2,874.2 1988.3,822.5 2009.1,769.4 2027.5,715.0 2043.5,659.7 2057.2,603.7 2068.4,547.1 2077.3,490.2 2083.8,433.4 2088.1,376.8  Z" style="stroke-width: 0.0;  fill: rgb(0,130,142);" />
<path d="M 2110.042,378.149 A 1625.580,1625.580 0.00 0,1 2118.0,378.7 L 2118.0,378.7 2112.7,435.7 2104.9,493.1 2094.7,550.5 2082.0,607.7 2066.8,664.5 2049.2,720.7 2029.1,775.9 2006.6,830.1 1981.7,883.0 1954.4,934.5 1924.8,984.3 1892.8,1032.4 1858.7,1078.5 1822.3,1122.6 1783.8,1164.4 1743.2,1203.9 1700.7,1241.0 1656.3,1275.6 1610.0,1307.6 1562.1,1336.9 1512.5,1363.4 1461.5,1387.1 1409.0,1408.1 1355.4,1426.1 1300.6,1441.2 1244.8,1453.5 1188.1,1462.8 1130.8,1469.3 1072.9,1472.9 1014.6,1473.7 956.2,1471.7 897.7,1466.9 839.4,1459.5 781.4,1449.6 723.9,1437.1 667.2,1422.3 611.5,1405.2 556.9,1385.9 503.7,1364.6  A 1625.580,1625.580 0.00 0,1 506.9,1357.3 L 506.9,1357.3 559.9,1378.8 614.3,1398.3 669.9,1415.7 726.4,1430.8 783.6,1443.5 841.4,1453.8 899.6,1461.4 957.8,1466.4 1016.1,1468.7 1074.1,1468.2 1131.7,1464.9 1188.8,1458.7 1245.2,1449.6 1300.7,1437.6 1355.3,1422.7 1408.7,1404.9 1460.8,1384.3 1511.5,1360.7 1560.8,1334.4 1608.4,1305.3 1654.3,1273.5 1698.4,1239.1 1740.6,1202.2 1780.9,1162.8 1819.0,1121.1 1855.0,1077.2 1888.9,1031.1 1920.4,983.2 1949.7,933.4 1976.7,882.0 2001.2,829.2 2023.4,775.1 2043.1,719.8 2060.4,663.8 2075.2,607.0 2087.6,549.8 2097.5,492.5 2105.0,435.1 2110.0,378.1  Z" style="stroke-width: 0.0;  fill: rgb(230,112,95);" />
<path d="M 2118.031,378.711 A 1625.580,1625.580 0.00 0,1 2122.0,379.0 L 2122.0,379.0 2116.2,438.3 2107.7,498.3 2096.6,558.8 2082.7,619.6 2066.1,680.4 2046.9,741.1 2025.1,801.6 2000.6,861.6 1973.6,921.0 1944.1,979.6 1912.1,1037.3 1877.7,1093.9 1841.0,1149.3 1801.9,1203.4 1760.6,1256.0 1717.2,1307.1 1671.7,1356.4 1624.2,1403.9 1574.8,1449.5 1523.7,1493.2 1470.8,1534.7 1416.4,1574.1 1360.5,1611.2 1303.2,1646.0 1244.7,1678.5 1185.2,1708.5 1124.6,1736.0 1063.3,1761.0 1001.3,1783.5 938.7,1803.4 875.8,1820.7 812.7,1835.3 749.5,1847.3 686.5,1856.7 623.8,1863.4 561.7,1867.5 500.2,1869.0 439.6,1867.9 380.1,1864.3  A 1625.580,1625.580 0.00 0,1 380.4,1860.3 L 380.4,1860.3 439.9,1864.1 500.4,1865.3 561.9,1864.0 624.0,1860.0 686.6,1853.5 749.6,1844.2 812.7,1832.4 875.7,1817.9 938.6,1800.8 1001.1,1781.0 1063.0,1758.7 1124.3,1733.9 1184.7,1706.5 1244.2,1676.6 1302.6,1644.3 1359.8,1609.6 1415.6,1572.6 1469.9,1533.3 1522.7,1491.9 1573.7,1448.3 1623.0,1402.8 1670.3,1355.4 1715.7,1306.1 1759.0,1255.2 1800.1,1202.6 1839.0,1148.6 1875.6,1093.2 1909.9,1036.7 1941.7,979.0 1971.1,920.4 1997.9,861.1 2022.2,801.1 2043.9,740.7 2062.9,680.0 2079.3,619.2 2093.0,558.4 2104.1,498.0 2112.4,438.0 2118.0,378.7  Z" style="stroke-width: 0.0;  fill: rgb(195,58,55);" />
<path d="M 2122.025,379.006 A 1625.580,1625.580 0.00 0,1 2124.0,379.2 L 2124.0,379.2 2118.1,439.1 2109.4,499.9 2098.0,561.2 2083.9,622.9 2067.1,684.8 2047.7,746.7 2025.6,808.5 2000.9,870.1 1973.6,931.1 1943.9,991.6 1911.6,1051.4 1877.0,1110.2 1840.1,1168.0 1800.8,1224.7 1759.4,1280.1 1715.8,1334.0 1670.2,1386.5 1622.6,1437.4 1573.2,1486.5 1522.0,1533.8 1469.1,1579.2 1414.6,1622.6 1358.7,1663.9 1301.4,1703.1 1242.9,1740.0 1183.3,1774.6 1122.7,1806.9 1061.3,1836.7 999.2,1864.1 936.6,1888.9 873.6,1911.3 810.3,1931.0 746.9,1948.1 683.6,1962.6 620.6,1974.5 557.9,1983.6 495.9,1990.1 434.7,1993.9 374.4,1995.1  A 1625.580,1625.580 0.00 0,1 374.4,1993.1 L 374.4,1993.1 434.7,1992.0 495.9,1988.3 557.9,1981.8 620.5,1972.8 683.5,1961.0 746.8,1946.6 810.1,1929.5 873.4,1909.9 936.4,1887.6 999.0,1862.8 1061.1,1835.5 1122.5,1805.8 1183.0,1773.6 1242.6,1739.0 1301.0,1702.2 1358.3,1663.1 1414.2,1621.9 1468.6,1578.5 1521.4,1533.2 1572.6,1485.9 1622.0,1436.8 1669.5,1386.0 1715.1,1333.6 1758.6,1279.6 1799.9,1224.3 1839.1,1167.6 1876.0,1109.8 1910.5,1051.0 1942.7,991.3 1972.3,930.9 1999.5,869.8 2024.1,808.3 2046.1,746.5 2065.5,684.6 2082.2,622.7 2096.3,561.0 2107.6,499.7 2116.2,439.0 2122.0,379.0  Z" style="stroke-width: 0.0;  fill: rgb(220,140,52);" />
<path d="M 2124.022,379.158 A 1625.580,1625.580 0.00 0,1 2136.0,380.1 L 2136.0,380.1 2129.6,440.8 2120.3,502.3 2108.4,564.5 2093.7,627.2 2076.3,690.3 2056.3,753.5 2033.6,816.7 2008.4,879.8 1980.6,942.6 1950.4,1005.0 1917.8,1066.8 1882.8,1127.9 1845.5,1188.1 1805.9,1247.4 1764.2,1305.7 1720.5,1362.7 1674.7,1418.4 1627.1,1472.7 1577.6,1525.4 1526.3,1576.5 1473.5,1625.9 1419.1,1673.5 1363.3,1719.1 1306.2,1762.8 1247.9,1804.3 1188.5,1843.7 1128.1,1880.9 1066.9,1915.8 1005.1,1948.3 942.6,1978.4 879.8,2006.0 816.6,2031.1 753.4,2053.6 690.1,2073.5 627.0,2090.7 564.3,2105.3 502.1,2117.1 440.5,2126.2 379.8,2132.5  A 1625.580,1625.580 0.00 0,1 378.9,2120.6 L 378.9,2120.6 439.5,2114.7 501.0,2106.1 563.1,2094.7 625.8,2080.7 688.8,2063.9 752.0,2044.5 815.1,2022.4 878.2,1997.8 940.9,1970.6 1003.3,1941.0 1065.0,1908.9 1126.0,1874.5 1186.2,1837.7 1245.4,1798.7 1303.6,1757.5 1360.5,1714.3 1416.0,1669.0 1470.2,1621.7 1522.7,1572.7 1573.7,1521.8 1622.9,1469.4 1670.2,1415.3 1715.6,1359.9 1759.0,1303.0 1800.3,1245.0 1839.5,1185.9 1876.3,1125.8 1910.9,1064.8 1943.1,1003.1 1972.9,940.9 2000.2,878.2 2025.0,815.2 2047.1,752.1 2066.7,688.9 2083.6,626.0 2097.8,563.4 2109.3,501.2 2118.0,439.8 2124.0,379.2  Z" style="stroke-width: 0.0;  fill: rgb(108,170,228);" />
<path d="M 2135.997,380.119 A 1625.580,1625.580 0.00 0,1 2150.0,381.4 L 2150.0,381.4 2142.9,443.3 2133.0,506.2 2120.4,569.9 2105.1,634.3 2087.1,699.3 2066.5,764.6 2043.4,830.2 2017.8,895.9 1989.8,961.6 1959.3,1027.1 1926.6,1092.4 1891.6,1157.3 1854.4,1221.6 1815.2,1285.3 1773.8,1348.2 1730.6,1410.2 1685.4,1471.3 1638.5,1531.2 1589.8,1589.9 1539.6,1647.3 1487.8,1703.2 1434.5,1757.6 1379.9,1810.4 1324.1,1861.4 1267.2,1910.7 1209.2,1958.0 1150.3,2003.3 1090.6,2046.5 1030.2,2087.5 969.3,2126.3 907.8,2162.7 846.0,2196.7 784.1,2228.3 722.0,2257.2 660.0,2283.6 598.1,2307.2 536.6,2328.1 475.6,2346.2 415.1,2361.3  A 1625.580,1625.580 0.00 0,1 412.0,2347.6 L 412.0,2347.6 472.5,2333.0 533.5,2315.5 595.0,2295.2 656.9,2272.1 718.9,2246.4 780.9,2217.9 842.9,2187.0 904.6,2153.5 966.0,2117.6 1026.9,2079.3 1087.3,2038.8 1146.9,1996.0 1205.7,1951.2 1263.5,1904.3 1320.3,1855.5 1375.9,1804.9 1430.3,1752.5 1483.3,1698.4 1534.8,1642.8 1584.8,1585.8 1633.2,1527.4 1679.8,1467.7 1724.6,1407.0 1767.5,1345.2 1808.4,1282.4 1847.2,1219.0 1884.0,1154.8 1918.5,1090.1 1950.8,1025.0 1980.7,959.5 2008.2,894.0 2033.3,828.4 2055.9,762.9 2075.9,697.6 2093.3,632.8 2108.1,568.4 2120.1,504.8 2129.5,442.0 2136.0,380.1  Z" style="stroke-width: 0.0;  fill: rgb(200,108,30);" />
<path d="M 2149.959,381.352 A 1625.580,1625.580 0.00 0,1 2225.5,390.1 L 2225.5,390.1 2215.3,453.3 2202.4,517.5 2186.7,582.6 2168.4,648.5 2147.5,715.0 2124.2,782.1 2098.4,849.6 2070.3,917.4 2039.9,985.3 2007.3,1053.4 1972.6,1121.4 1935.8,1189.3 1897.1,1257.0 1856.5,1324.2 1814.1,1391.0 1770.0,1457.2 1724.2,1522.6 1676.9,1587.3 1628.1,1651.1 1577.9,1713.8 1526.5,1775.4 1473.7,1835.8 1419.9,1894.8 1365.0,1952.3 1309.2,2008.4 1252.5,2062.7 1195.0,2115.4 1136.9,2166.1 1078.1,2214.9 1018.8,2261.6 959.2,2306.2 899.2,2348.5 839.0,2388.5 778.7,2426.0 718.4,2461.0 658.2,2493.3 598.1,2522.9 538.3,2549.6 478.9,2573.4  A 1625.580,1625.580 0.00 0,1 453.8,2501.6 L 453.8,2501.6 513.4,2480.9 573.5,2457.2 633.8,2430.7 694.4,2401.4 755.0,2369.4 815.6,2334.8 876.0,2297.7 936.1,2258.2 995.9,2216.4 1055.2,2172.3 1113.9,2126.1 1171.9,2077.8 1229.1,2027.5 1285.4,1975.4 1340.7,1921.5 1394.9,1865.9 1448.0,1808.8 1499.8,1750.2 1550.2,1690.3 1599.1,1629.1 1646.5,1566.8 1692.3,1503.4 1736.4,1439.1 1778.7,1374.0 1819.1,1308.2 1857.6,1241.9 1894.1,1175.0 1928.5,1107.8 1960.7,1040.4 1990.7,972.9 2018.4,905.4 2043.7,838.0 2066.6,771.0 2087.1,704.3 2105.0,638.1 2120.3,572.6 2132.9,507.9 2142.8,444.1 2150.0,381.4  Z" style="stroke-width: 0.0;  fill: rgb(82,145,215);" />
<path d="M 2225.530,390.141 A 1625.580,1625.580 0.00 0,1 2339.9,410.3 L 2339.9,410.3 2324.7,475.2 2307.0,541.0 2286.6,607.8 2263.8,675.4 2238.7,743.8 2211.3,812.9 2181.8,882.6 2150.3,952.9 2116.8,1023.6 2081.5,1094.6 2044.4,1165.9 2005.7,1237.4 1965.5,1308.9 1923.8,1380.5 1880.7,1451.9 1836.3,1523.1 1790.7,1594.0 1743.9,1664.6 1696.1,1734.6 1647.4,1803.9 1597.7,1872.6 1547.2,1940.5 1495.9,2007.4 1443.9,2073.3 1391.3,2138.0 1338.1,2201.5 1284.4,2263.6 1230.2,2324.2 1175.6,2383.2 1120.8,2440.5 1065.6,2495.9 1010.2,2549.3 954.5,2600.7 898.8,2649.9 842.9,2696.7 787.0,2741.0 731.1,2782.8 675.2,2821.8 619.3,2858.0  A 1625.580,1625.580 0.00 0,1 561.6,2757.2 L 561.6,2757.2 618.6,2725.7 675.8,2691.3 733.1,2654.1 790.3,2614.2 847.5,2571.7 904.5,2526.7 961.3,2479.4 1017.8,2429.9 1074.0,2378.3 1129.8,2324.6 1185.0,2269.0 1239.7,2211.7 1293.8,2152.7 1347.2,2092.1 1399.7,2030.1 1451.4,1966.7 1502.2,1902.2 1552.0,1836.5 1600.6,1769.8 1648.1,1702.2 1694.4,1633.8 1739.4,1564.7 1783.0,1495.1 1825.1,1425.0 1865.6,1354.5 1904.6,1283.8 1941.8,1213.0 1977.2,1142.1 2010.8,1071.3 2042.4,1000.7 2072.0,930.3 2099.5,860.3 2124.8,790.9 2147.7,722.0 2168.4,653.8 2186.6,586.4 2202.2,520.0 2215.2,454.5 2225.5,390.1  Z" style="stroke-width: 0.0;  fill: rgb(60,120,198);" />
<path d="M 2339.866,410.346 A 1625.580,1625.580 0.00 0,1 2462.1,441.5 L 2462.1,441.5 2441.2,508.1 2418.0,575.7 2392.6,644.2 2365.1,713.7 2335.6,784.0 2304.4,855.2 2271.6,927.1 2237.3,999.7 2201.6,1073.0 2164.6,1146.9 2126.5,1221.4 2087.4,1296.3 2047.3,1371.7 2006.4,1447.4 1964.7,1523.4 1922.4,1599.5 1879.5,1675.8 1836.1,1752.1 1792.3,1828.3 1748.0,1904.4 1703.5,1980.2 1658.7,2055.7 1613.6,2130.7 1568.3,2205.1 1522.9,2278.9 1477.4,2351.9 1431.7,2424.0 1385.9,2495.1 1340.1,2565.1 1294.1,2633.8 1248.1,2701.0 1201.9,2766.8 1155.7,2830.9 1109.3,2893.2 1062.7,2953.6 1015.9,3011.8 969.0,3067.9 921.7,3121.5 874.1,3172.6  A 1625.580,1625.580 0.00 0,1 786.6,3081.7 L 786.6,3081.7 836.8,3035.5 886.7,2986.5 936.3,2934.9 985.7,2881.0 1034.9,2824.7 1083.9,2766.3 1132.6,2705.9 1181.0,2643.6 1229.3,2579.6 1277.2,2514.0 1324.9,2446.9 1372.3,2378.4 1419.3,2308.8 1466.0,2238.0 1512.3,2166.2 1558.1,2093.6 1603.5,2020.1 1648.3,1946.1 1692.6,1871.5 1736.2,1796.4 1779.2,1721.0 1821.3,1645.4 1862.7,1569.7 1903.2,1493.9 1942.7,1418.2 1981.1,1342.6 2018.4,1267.2 2054.4,1192.2 2089.1,1117.6 2122.4,1043.4 2154.2,969.9 2184.4,896.9 2212.8,824.7 2239.3,753.3 2263.9,682.7 2286.4,613.1 2306.6,544.4 2324.5,476.8 2339.9,410.3  Z" style="stroke-width: 0.0;  fill: rgb(28,75,160);" />
<path d="M 2462.077,441.477 A 1625.580,1625.580 0.00 0,1 2626.1,499.8 L 2626.1,499.8 2598.2,568.5 2571.0,639.0 2544.3,711.2 2518.0,785.0 2491.9,860.1 2465.9,936.5 2439.9,1014.0 2413.8,1092.5 2387.4,1171.9 2360.8,1252.1 2333.7,1333.0 2306.3,1414.4 2278.3,1496.2 2249.8,1578.3 2220.8,1660.8 2191.1,1743.3 2160.8,1825.9 2129.9,1908.5 2098.4,1991.0 2066.4,2073.3 2033.7,2155.3 2000.6,2237.0 1967.0,2318.3 1933.0,2399.2 1898.6,2479.5 1864.0,2559.3 1829.2,2638.4 1794.3,2717.0 1759.5,2794.8 1724.9,2871.8 1690.5,2948.1 1656.6,3023.6 1623.3,3098.3 1590.8,3172.1 1559.2,3245.1 1528.7,3317.2 1499.5,3388.4 1471.8,3458.8 1445.8,3528.2  A 1625.580,1625.580 0.00 0,1 1285.5,3460.2 L 1285.5,3460.2 1316.9,3394.3 1347.5,3326.4 1377.5,3256.6 1407.1,3185.1 1436.4,3112.0 1465.4,3037.5 1494.4,2961.6 1523.3,2884.5 1552.3,2806.4 1581.4,2727.3 1610.7,2647.4 1640.2,2566.8 1670.0,2485.6 1700.1,2403.9 1730.6,2321.8 1761.4,2239.4 1792.6,2156.8 1824.1,2074.1 1856.0,1991.5 1888.2,1908.8 1920.7,1826.4 1953.4,1744.2 1986.3,1662.3 2019.4,1580.8 2052.5,1499.7 2085.6,1419.2 2118.6,1339.2 2151.5,1259.9 2184.0,1181.3 2216.1,1103.3 2247.6,1026.2 2278.5,949.9 2308.5,874.4 2337.5,799.9 2365.4,726.2 2392.0,653.6 2417.1,581.9 2440.6,511.2 2462.1,441.5  Z" style="stroke-width: 0.0;  fill: rgb(42,98,180);" />
<path d="M 2626.120,499.839 A 1625.580,1625.580 0.00 0,1 2726.2,545.7 L 2726.2,545.7 2696.4,607.9 2667.7,672.5 2640.1,739.4 2613.6,808.3 2587.9,879.3 2563.2,952.2 2539.2,1026.7 2516.1,1102.9 2493.6,1180.6 2471.8,1259.6 2450.7,1339.9 2430.2,1421.3 2410.2,1503.7 2390.8,1586.9 2372.0,1670.9 2353.7,1755.5 2336.0,1840.6 2318.8,1926.1 2302.2,2011.9 2286.1,2097.9 2270.7,2183.9 2255.8,2269.9 2241.7,2355.7 2228.2,2441.2 2215.4,2526.3 2203.5,2610.9 2192.3,2694.9 2182.1,2778.2 2172.9,2860.7 2164.7,2942.3 2157.6,3022.8 2151.7,3102.3 2147.1,3180.5 2143.9,3257.3 2142.2,3332.8 2142.1,3406.7 2143.7,3479.0 2147.1,3549.6 2152.5,3618.4  A 1625.580,1625.580 0.00 0,1 2042.6,3625.0 L 2042.6,3625.0 2041.8,3554.7 2042.8,3482.6 2045.6,3409.0 2049.9,3334.0 2055.8,3257.5 2062.9,3179.6 2071.2,3100.6 2080.7,3020.3 2091.1,2939.0 2102.3,2856.8 2114.4,2773.6 2127.2,2689.7 2140.6,2605.0 2154.5,2519.8 2169.0,2434.0 2183.8,2347.9 2199.1,2261.4 2214.7,2174.7 2230.6,2088.0 2246.8,2001.2 2263.3,1914.5 2280.0,1828.0 2297.0,1741.9 2314.2,1656.2 2331.7,1571.0 2349.4,1486.5 2367.5,1402.7 2385.9,1319.8 2404.6,1237.9 2423.8,1157.1 2443.4,1077.5 2463.6,999.3 2484.3,922.6 2505.8,847.4 2528.0,773.9 2551.0,702.3 2574.9,632.7 2600.0,565.2 2626.1,499.8  Z" style="stroke-width: 0.0;  fill: rgb(15,52,135);" />
</g>
<defs>
<pattern id="vline" width="10" height="10" patternTransform="rotate(0 0 0)" patternUnits="userSpaceOnUse"><line x1="0" y1="0" x2="0" y2="10" style="stroke:black;stroke-width:5" /></pattern>
<pattern id="checker" width="10" height="10" patternTransform="rotate(45 0 0)" patternUnits="userSpaceOnUse"><line x1="0" y1="0" x2="10" y2="0" style="stroke:black;stroke-width:2" /><line x1="0" y1="0" x2="0" y2="10" style="stroke:black;stroke-width:2" /></pattern>
<pattern id="hline-sparse" width="10" height="10" patternTransform="rotate(0 0 0)" patternUnits="userSpaceOnUse"><line x1="0" y1="0" x2="10" y2="0" style="stroke:black;stroke-width:2" /></pattern>
<pattern id="hline" width="10" height="10" patternTransform="rotate(0 0 0)" patternUnits="userSpaceOnUse"><line x1="0" y1="0" x2="10" y2="0" style="stroke:black;stroke-width:5" /></pattern>
<pattern id="vline-sparse" width="10" height="10" patternTransform="rotate(0 0 0)" patternUnits="userSpaceOnUse"><line x1="0" y1="0" x2="0" y2="10" style="stroke:black;stroke-width:2" /></pattern>
<pattern id="checker" width="10" height="10" patternTransform="rotate(45 0 0)" patternUnits="userSpaceOnUse"><line x1="0" y1="0" x2="10" y2="0" style="stroke:black;stroke-width:5" /><line x1="0" y1="0" x2="0" y2="10" style="stroke:black;stroke-width:4" /></pattern>
</defs>
</svg>
