<?xml version="1.0" encoding="utf-8" standalone="no"?>
<!DOCTYPE svg PUBLIC "-//W3C//DTD SVG 1.1//EN" "http://www.w3.org/Graphics/SVG/1.1/DTD/svg11.dtd">
<svg width="4000px" height="4000px" version="1.1" xmlns="http://www.w3.org/2000/svg" xmlns:xlink="http://www.w3.org/1999/xlink">
<g id="bg">
<rect x="0" y="0" width="4000px" height="4000px" style="fill:rgb(255,255,255);"/>
</g>
<g id="ideograms">
<path d="M2000.000,358.000 A1642.000,1642.000 40.000 0,1 2751.610,540.121 L2769.004,506.336 A1680.000,1680.000 0.000 0,0 2000.000,320.000 Z" style="stroke-width:2.0;stroke:rgb(255,255,255);stroke-linecap:round;fill:rgb(185,185,185);" />
<text x="2427.0" y="305.8" font-size="36.4px" font-family="CMUBright-Roman" style="text-anchor:start;fill:rgb(0,0,0);" transform="rotate(283.6,2427.0,305.8)" >Management-Operations</text>
<path d="M2000.000,358.000 A1642.000,1642.000 40.000 0,1 2751.610,540.121 L2769.004,506.336 A1680.000,1680.000 0.000 0,0 2000.000,320.000 Z" style="stroke-width:2.0;stroke:rgb(255,255,255);stroke-linecap:round;fill:none;" />
<path d="M2783.279,556.865 A1642.000,1642.000 40.000 0,1 3226.411,908.176 L3254.793,882.908 A1680.000,1680.000 0.000 0,0 2801.406,523.467 Z" style="stroke-width:2.0;stroke:rgb(255,255,255);stroke-linecap:round;fill:rgb(185,185,185);" />
<text x="3097.5" y="640.5" font-size="36.4px" font-family="CMUBright-Roman" style="text-anchor:start;fill:rgb(0,0,0);" transform="rotate(308.4,3097.5,640.5)" >Engineering</text>
<path d="M2783.279,556.865 A1642.000,1642.000 40.000 0,1 3226.411,908.176 L3254.793,882.908 A1680.000,1680.000 0.000 0,0 2801.406,523.467 Z" style="stroke-width:2.0;stroke:rgb(255,255,255);stroke-linecap:round;fill:none;" />
<path d="M3249.937,935.189 A1642.000,1642.000 40.000 0,1 3507.538,1349.236 L3542.426,1334.176 A1680.000,1680.000 0.000 0,0 3278.864,910.547 Z" style="stroke-width:2.0;stroke:rgb(255,255,255);stroke-linecap:round;fill:rgb(185,185,185);" />
<text x="3491.6" y="1090.2" font-size="36.4px" font-family="CMUBright-Roman" style="text-anchor:start;fill:rgb(0,0,0);" transform="rotate(328.1,3491.6,1090.2)" >Leadership-General</text>
<path d="M3249.937,935.189 A1642.000,1642.000 40.000 0,1 3507.538,1349.236 L3542.426,1334.176 A1680.000,1680.000 0.000 0,0 3278.864,910.547 Z" style="stroke-width:2.0;stroke:rgb(255,255,255);stroke-linecap:round;fill:none;" />
<path d="M3521.375,1382.278 A1642.000,1642.000 40.000 0,1 3633.192,1830.154 L3670.988,1826.223 A1680.000,1680.000 0.000 0,0 3556.584,1367.982 Z" style="stroke-width:2.0;stroke:rgb(255,255,255);stroke-linecap:round;fill:rgb(185,185,185);" />
<text x="3699.0" y="1592.3" font-size="36.4px" font-family="CMUBright-Roman" style="text-anchor:start;fill:rgb(0,0,0);" transform="rotate(346.0,3699.0,1592.3)" >Sales-Marketing</text>
<path d="M3521.375,1382.278 A1642.000,1642.000 40.000 0,1 3633.192,1830.154 L3670.988,1826.223 A1680.000,1680.000 0.000 0,0 3556.584,1367.982 Z" style="stroke-width:2.0;stroke:rgb(255,255,255);stroke-linecap:round;fill:none;" />
<path d="M3636.509,1865.822 A1642.000,1642.000 40.000 0,1 3610.774,2318.704 L3648.051,2326.079 A1680.000,1680.000 0.000 0,0 3674.381,1862.717 Z" style="stroke-width:2.0;stroke:rgb(255,255,255);stroke-linecap:round;fill:rgb(185,185,185);" />
<text x="3743.6" y="2111.6" font-size="36.4px" font-family="CMUBright-Roman" style="text-anchor:start;fill:rgb(0,0,0);" transform="rotate(3.3,3743.6,2111.6)" >Finance-Investment</text>
<path d="M3636.509,1865.822 A1642.000,1642.000 40.000 0,1 3610.774,2318.704 L3648.051,2326.079 A1680.000,1680.000 0.000 0,0 3674.381,1862.717 Z" style="stroke-width:2.0;stroke:rgb(255,255,255);stroke-linecap:round;fill:none;" />
<path d="M3603.438,2353.767 A1642.000,1642.000 40.000 0,1 3499.856,2668.278 L3534.566,2683.744 A1680.000,1680.000 0.000 0,0 3640.546,2361.954 Z" style="stroke-width:2.0;stroke:rgb(255,255,255);stroke-linecap:round;fill:rgb(185,185,185);" />
<text x="3655.6" y="2558.4" font-size="36.4px" font-family="CMUBright-Roman" style="text-anchor:start;fill:rgb(0,0,0);" transform="rotate(18.2,3655.6,2558.4)" >Software-Data</text>
<path d="M3603.438,2353.767 A1642.000,1642.000 40.000 0,1 3499.856,2668.278 L3534.566,2683.744 A1680.000,1680.000 0.000 0,0 3640.546,2361.954 Z" style="stroke-width:2.0;stroke:rgb(255,255,255);stroke-linecap:round;fill:none;" />
<path d="M3484.921,2700.839 A1642.000,1642.000 40.000 0,1 3330.895,2961.708 L3361.695,2983.964 A1680.000,1680.000 0.000 0,0 3519.285,2717.058 Z" style="stroke-width:2.0;stroke:rgb(255,255,255);stroke-linecap:round;fill:rgb(185,185,185);" />
<text x="3498.1" y="2899.1" font-size="36.4px" font-family="CMUBright-Roman" style="text-anchor:start;fill:rgb(0,0,0);" transform="rotate(30.6,3498.1,2899.1)" >Education</text>
<path d="M3484.921,2700.839 A1642.000,1642.000 40.000 0,1 3330.895,2961.708 L3361.695,2983.964 A1680.000,1680.000 0.000 0,0 3519.285,2717.058 Z" style="stroke-width:2.0;stroke:rgb(255,255,255);stroke-linecap:round;fill:none;" />
<path d="M3309.599,2990.512 A1642.000,1642.000 40.000 0,1 3129.055,3192.225 L3155.184,3219.816 A1680.000,1680.000 0.000 0,0 3339.906,3013.435 Z" style="stroke-width:2.0;stroke:rgb(255,255,255);stroke-linecap:round;fill:rgb(185,185,185);" />
<text x="3293.5" y="3174.5" font-size="36.4px" font-family="CMUBright-Roman" style="text-anchor:start;fill:rgb(0,0,0);" transform="rotate(41.8,3293.5,3174.5)" >Research-Science</text>
<path d="M3309.599,2990.512 A1642.000,1642.000 40.000 0,1 3129.055,3192.225 L3155.184,3219.816 A1680.000,1680.000 0.000 0,0 3339.906,3013.435 Z" style="stroke-width:2.0;stroke:rgb(255,255,255);stroke-linecap:round;fill:none;" />
<path d="M3102.778,3216.571 A1642.000,1642.000 40.000 0,1 2891.302,3379.038 L2911.929,3410.952 A1680.000,1680.000 0.000 0,0 3128.299,3244.726 Z" style="stroke-width:2.0;stroke:rgb(255,255,255);stroke-linecap:round;fill:rgb(185,185,185);" />
<text x="3054.5" y="3393.1" font-size="36.4px" font-family="CMUBright-Roman" style="text-anchor:start;fill:rgb(0,0,0);" transform="rotate(52.5,3054.5,3393.1)" >Clinical-Care</text>
<path d="M3102.778,3216.571 A1642.000,1642.000 40.000 0,1 2891.302,3379.038 L2911.929,3410.952 A1680.000,1680.000 0.000 0,0 3128.299,3244.726 Z" style="stroke-width:2.0;stroke:rgb(255,255,255);stroke-linecap:round;fill:none;" />
<path d="M2861.006,3398.153 A1642.000,1642.000 40.000 0,1 2640.127,3512.085 L2654.941,3547.079 A1680.000,1680.000 0.000 0,0 2880.932,3430.510 Z" style="stroke-width:2.0;stroke:rgb(255,255,255);stroke-linecap:round;fill:rgb(185,185,185);" />
<text x="2786.7" y="3560.1" font-size="36.4px" font-family="CMUBright-Roman" style="text-anchor:start;fill:rgb(0,0,0);" transform="rotate(62.7,2786.7,3560.1)" >Accounting-Audit</text>
<path d="M2861.006,3398.153 A1642.000,1642.000 40.000 0,1 2640.127,3512.085 L2654.941,3547.079 A1680.000,1680.000 0.000 0,0 2880.932,3430.510 Z" style="stroke-width:2.0;stroke:rgb(255,255,255);stroke-linecap:round;fill:none;" />
<path d="M2606.988,3525.690 A1642.000,1642.000 40.000 0,1 2452.002,3578.562 L2462.463,3615.094 A1680.000,1680.000 0.000 0,0 2621.036,3560.998 Z" style="stroke-width:2.0;stroke:rgb(255,255,255);stroke-linecap:round;fill:rgb(185,185,185);" />
<text x="2552.3" y="3657.6" font-size="36.4px" font-family="CMUBright-Roman" style="text-anchor:start;fill:rgb(0,0,0);" transform="rotate(71.2,2552.3,3657.6)" >Social-Service</text>
<path d="M2606.988,3525.690 A1642.000,1642.000 40.000 0,1 2452.002,3578.562 L2462.463,3615.094 A1680.000,1680.000 0.000 0,0 2621.036,3560.998 Z" style="stroke-width:2.0;stroke:rgb(255,255,255);stroke-linecap:round;fill:none;" />
<path d="M2417.459,3588.047 A1642.000,1642.000 40.000 0,1 2320.910,3610.336 L2328.336,3647.603 A1680.000,1680.000 0.000 0,0 2427.120,3624.798 Z" style="stroke-width:2.0;stroke:rgb(255,255,255);stroke-linecap:round;fill:rgb(185,185,185);" />
<text x="2380.8" y="3705.2" font-size="36.4px" font-family="CMUBright-Roman" style="text-anchor:start;fill:rgb(0,0,0);" transform="rotate(77.0,2380.8,3705.2)" >IT-Infrastructure</text>
<path d="M2417.459,3588.047 A1642.000,1642.000 40.000 0,1 2320.910,3610.336 L2328.336,3647.603 A1680.000,1680.000 0.000 0,0 2427.120,3624.798 Z" style="stroke-width:2.0;stroke:rgb(255,255,255);stroke-linecap:round;fill:none;" />
<path d="M2285.704,3616.953 A1642.000,1642.000 40.000 0,1 2189.660,3631.010 L2194.050,3668.755 A1680.000,1680.000 0.000 0,0 2292.316,3654.373 Z" style="stroke-width:2.0;stroke:rgb(255,255,255);stroke-linecap:round;fill:rgb(185,185,185);" />
<text x="2237.2" y="3731.0" font-size="36.4px" font-family="CMUBright-Roman" style="text-anchor:start;fill:rgb(0,0,0);" transform="rotate(81.7,2237.2,3731.0)" >Legal-Policy</text>
<path d="M2285.704,3616.953 A1642.000,1642.000 40.000 0,1 2189.660,3631.010 L2194.050,3668.755 A1680.000,1680.000 0.000 0,0 2292.316,3654.373 Z" style="stroke-width:2.0;stroke:rgb(255,255,255);stroke-linecap:round;fill:none;" />
<path d="M2154.035,3634.759 A1642.000,1642.000 40.000 0,1 1474.020,3555.477 L1461.848,3591.475 A1680.000,1680.000 0.000 0,0 2157.600,3672.592 Z" style="stroke-width:2.0;stroke:rgb(255,255,255);stroke-linecap:round;fill:rgb(15,52,135);" />
<text x="1813.6" y="3737.2" font-size="36.4px" font-family="CMUBright-Roman" style="text-anchor:end;fill:rgb(0,0,0);" transform="rotate(-83.3,1813.6,3737.2)" >Finance-Accounting</text>
<path d="M2154.035,3634.759 A1642.000,1642.000 40.000 0,1 1474.020,3555.477 L1461.848,3591.475 A1680.000,1680.000 0.000 0,0 2157.600,3672.592 Z" style="stroke-width:2.0;stroke:rgb(255,255,255);stroke-linecap:round;fill:none;" />
<path d="M1440.213,3543.633 A1642.000,1642.000 40.000 0,1 888.845,3208.925 L863.130,3236.902 A1680.000,1680.000 0.000 0,0 1427.258,3579.356 Z" style="stroke-width:2.0;stroke:rgb(255,255,255);stroke-linecap:round;fill:rgb(42,98,180);" />
<text x="1104.1" y="3500.0" font-size="36.4px" font-family="CMUBright-Roman" style="text-anchor:end;fill:rgb(0,0,0);" transform="rotate(-58.7,1104.1,3500.0)" >General-Business</text>
<path d="M1440.213,3543.633 A1642.000,1642.000 40.000 0,1 888.845,3208.925 L863.130,3236.902 A1680.000,1680.000 0.000 0,0 1427.258,3579.356 Z" style="stroke-width:2.0;stroke:rgb(255,255,255);stroke-linecap:round;fill:none;" />
<path d="M862.737,3184.397 A1642.000,1642.000 40.000 0,1 624.574,2896.866 L592.744,2917.622 A1680.000,1680.000 0.000 0,0 836.418,3211.807 Z" style="stroke-width:2.0;stroke:rgb(255,255,255);stroke-linecap:round;fill:rgb(28,75,160);" />
<text x="664.7" y="3126.8" font-size="36.4px" font-family="CMUBright-Roman" style="text-anchor:end;fill:rgb(0,0,0);" transform="rotate(-39.6,664.7,3126.8)" >Marketing-Communication</text>
<path d="M862.737,3184.397 A1642.000,1642.000 40.000 0,1 624.574,2896.866 L592.744,2917.622 A1680.000,1680.000 0.000 0,0 836.418,3211.807 Z" style="stroke-width:2.0;stroke:rgb(255,255,255);stroke-linecap:round;fill:none;" />
<path d="M605.337,2866.648 A1642.000,1642.000 40.000 0,1 476.558,2612.607 L441.301,2626.784 A1680.000,1680.000 0.000 0,0 573.061,2886.704 Z" style="stroke-width:2.0;stroke:rgb(255,255,255);stroke-linecap:round;fill:rgb(60,120,198);" />
<text x="448.7" y="2803.8" font-size="36.4px" font-family="CMUBright-Roman" style="text-anchor:end;fill:rgb(0,0,0);" transform="rotate(-26.9,448.7,2803.8)" >Operations-Analytics</text>
<path d="M605.337,2866.648 A1642.000,1642.000 40.000 0,1 476.558,2612.607 L441.301,2626.784 A1680.000,1680.000 0.000 0,0 573.061,2886.704 Z" style="stroke-width:2.0;stroke:rgb(255,255,255);stroke-linecap:round;fill:none;" />
<path d="M463.556,2579.227 A1642.000,1642.000 40.000 0,1 407.419,2399.813 L370.563,2409.066 A1680.000,1680.000 0.000 0,0 427.999,2592.632 Z" style="stroke-width:2.0;stroke:rgb(255,255,255);stroke-linecap:round;fill:rgb(82,145,215);" />
<text x="337.2" y="2536.5" font-size="36.4px" font-family="CMUBright-Roman" style="text-anchor:end;fill:rgb(0,0,0);" transform="rotate(-17.4,337.2,2536.5)" >Specialized-Business</text>
<path d="M463.556,2579.227 A1642.000,1642.000 40.000 0,1 407.419,2399.813 L370.563,2409.066 A1680.000,1680.000 0.000 0,0 427.999,2592.632 Z" style="stroke-width:2.0;stroke:rgb(255,255,255);stroke-linecap:round;fill:none;" />
<path d="M399.076,2364.976 A1642.000,1642.000 40.000 0,1 366.776,2169.540 L328.979,2173.464 A1680.000,1680.000 0.000 0,0 362.027,2373.422 Z" style="stroke-width:2.0;stroke:rgb(255,255,255);stroke-linecap:round;fill:rgb(200,108,30);" />
<text x="278.3" y="2297.2" font-size="36.4px" font-family="CMUBright-Roman" style="text-anchor:end;fill:rgb(0,0,0);" transform="rotate(-9.4,278.3,2297.2)" >Social-Sciences</text>
<path d="M399.076,2364.976 A1642.000,1642.000 40.000 0,1 366.776,2169.540 L328.979,2173.464 A1680.000,1680.000 0.000 0,0 362.027,2373.422 Z" style="stroke-width:2.0;stroke:rgb(255,255,255);stroke-linecap:round;fill:none;" />
<path d="M363.466,2133.872 A1642.000,1642.000 40.000 0,1 358.290,2030.870 L320.297,2031.584 A1680.000,1680.000 0.000 0,0 325.593,2136.970 Z" style="stroke-width:2.0;stroke:rgb(255,255,255);stroke-linecap:round;fill:rgb(108,170,228);" />
<text x="255.6" y="2099.7" font-size="36.4px" font-family="CMUBright-Roman" style="text-anchor:end;fill:rgb(0,0,0);" transform="rotate(-2.9,255.6,2099.7)" >Economics</text>
<path d="M363.466,2133.872 A1642.000,1642.000 40.000 0,1 358.290,2030.870 L320.297,2031.584 A1680.000,1680.000 0.000 0,0 325.593,2136.970 Z" style="stroke-width:2.0;stroke:rgb(255,255,255);stroke-linecap:round;fill:none;" />
<path d="M358.007,1995.049 A1642.000,1642.000 40.000 0,1 358.807,1948.539 L320.825,1947.348 A1680.000,1680.000 0.000 0,0 320.008,1994.934 Z" style="stroke-width:2.0;stroke:rgb(255,255,255);stroke-linecap:round;fill:rgb(220,140,52);" />
<text x="252.9" y="1982.5" font-size="36.4px" font-family="CMUBright-Roman" style="text-anchor:end;fill:rgb(0,0,0);" transform="rotate(1.0,252.9,1982.5)" >Humanities-Liberal-Arts</text>
<path d="M358.007,1995.049 A1642.000,1642.000 40.000 0,1 358.807,1948.539 L320.825,1947.348 A1680.000,1680.000 0.000 0,0 320.008,1994.934 Z" style="stroke-width:2.0;stroke:rgb(255,255,255);stroke-linecap:round;fill:none;" />
<path d="M360.320,1912.749 A1642.000,1642.000 40.000 0,1 361.133,1898.615 L323.205,1896.269 A1680.000,1680.000 0.000 0,0 322.373,1910.730 Z" style="stroke-width:2.0;stroke:rgb(255,255,255);stroke-linecap:round;fill:rgb(235,168,78);" />
<text x="255.0" y="1912.1" font-size="36.4px" font-family="CMUBright-Roman" style="text-anchor:end;fill:rgb(0,0,0);" transform="rotate(3.3,255.0,1912.1)" >International-Studies</text>
<path d="M360.320,1912.749 A1642.000,1642.000 40.000 0,1 361.133,1898.615 L323.205,1896.269 A1680.000,1680.000 0.000 0,0 322.373,1910.730 Z" style="stroke-width:2.0;stroke:rgb(255,255,255);stroke-linecap:round;fill:none;" />
<path d="M363.735,1862.887 A1642.000,1642.000 40.000 0,1 391.336,1670.812 L354.108,1663.193 A1680.000,1680.000 0.000 0,0 325.867,1859.714 Z" style="stroke-width:2.0;stroke:rgb(255,255,255);stroke-linecap:round;fill:rgb(195,58,55);" />
<text x="268.8" y="1763.9" font-size="36.4px" font-family="CMUBright-Roman" style="text-anchor:end;fill:rgb(0,0,0);" transform="rotate(8.2,268.8,1763.9)" >Social-Work</text>
<path d="M363.735,1862.887 A1642.000,1642.000 40.000 0,1 391.336,1670.812 L354.108,1663.193 A1680.000,1680.000 0.000 0,0 325.867,1859.714 Z" style="stroke-width:2.0;stroke:rgb(255,255,255);stroke-linecap:round;fill:none;" />
<path d="M398.900,1635.797 A1642.000,1642.000 40.000 0,1 428.981,1522.439 L392.624,1511.387 A1680.000,1680.000 0.000 0,0 361.847,1627.368 Z" style="stroke-width:2.0;stroke:rgb(255,255,255);stroke-linecap:round;fill:rgb(175,35,42);" />
<text x="308.1" y="1564.0" font-size="36.4px" font-family="CMUBright-Roman" style="text-anchor:end;fill:rgb(0,0,0);" transform="rotate(14.9,308.1,1564.0)" >Teacher-Education</text>
<path d="M398.900,1635.797 A1642.000,1642.000 40.000 0,1 428.981,1522.439 L392.624,1511.387 A1680.000,1680.000 0.000 0,0 361.847,1627.368 Z" style="stroke-width:2.0;stroke:rgb(255,255,255);stroke-linecap:round;fill:none;" />
<path d="M439.773,1488.281 A1642.000,1642.000 40.000 0,1 474.975,1391.343 L439.682,1377.257 A1680.000,1680.000 0.000 0,0 403.666,1476.439 Z" style="stroke-width:2.0;stroke:rgb(255,255,255);stroke-linecap:round;fill:rgb(215,82,72);" />
<text x="352.5" y="1418.2" font-size="36.4px" font-family="CMUBright-Roman" style="text-anchor:end;fill:rgb(0,0,0);" transform="rotate(20.0,352.5,1418.2)" >Special-Education</text>
<path d="M439.773,1488.281 A1642.000,1642.000 40.000 0,1 474.975,1391.343 L439.682,1377.257 A1680.000,1680.000 0.000 0,0 403.666,1476.439 Z" style="stroke-width:2.0;stroke:rgb(255,255,255);stroke-linecap:round;fill:none;" />
<path d="M488.616,1358.220 A1642.000,1642.000 40.000 0,1 509.092,1311.991 L474.588,1296.068 A1680.000,1680.000 0.000 0,0 453.639,1343.368 Z" style="stroke-width:2.0;stroke:rgb(255,255,255);stroke-linecap:round;fill:rgb(230,112,95);" />
<text x="396.3" y="1306.6" font-size="36.4px" font-family="CMUBright-Roman" style="text-anchor:end;fill:rgb(0,0,0);" transform="rotate(23.9,396.3,1306.6)" >Educational-Leadership</text>
<path d="M488.616,1358.220 A1642.000,1642.000 40.000 0,1 509.092,1311.991 L474.588,1296.068 A1680.000,1680.000 0.000 0,0 453.639,1343.368 Z" style="stroke-width:2.0;stroke:rgb(255,255,255);stroke-linecap:round;fill:none;" />
<path d="M524.455,1279.630 A1642.000,1642.000 40.000 0,1 553.988,1222.045 L520.524,1204.041 A1680.000,1680.000 0.000 0,0 490.308,1262.959 Z" style="stroke-width:2.0;stroke:rgb(255,255,255);stroke-linecap:round;fill:rgb(0,130,142);" />
<text x="439.7" y="1213.8" font-size="36.4px" font-family="CMUBright-Roman" style="text-anchor:end;fill:rgb(0,0,0);" transform="rotate(27.2,439.7,1213.8)" >Communication-Studies</text>
<path d="M524.455,1279.630 A1642.000,1642.000 40.000 0,1 553.988,1222.045 L520.524,1204.041 A1680.000,1680.000 0.000 0,0 490.308,1262.959 Z" style="stroke-width:2.0;stroke:rgb(255,255,255);stroke-linecap:round;fill:none;" />
<path d="M571.303,1190.686 A1642.000,1642.000 40.000 0,1 588.562,1160.949 L555.898,1141.531 A1680.000,1680.000 0.000 0,0 538.240,1171.956 Z" style="stroke-width:2.0;stroke:rgb(255,255,255);stroke-linecap:round;fill:rgb(0,165,172);" />
<text x="482.6" y="1133.8" font-size="36.4px" font-family="CMUBright-Roman" style="text-anchor:end;fill:rgb(0,0,0);" transform="rotate(30.1,482.6,1133.8)" >Journalism-Media</text>
<path d="M571.303,1190.686 A1642.000,1642.000 40.000 0,1 588.562,1160.949 L555.898,1141.531 A1680.000,1680.000 0.000 0,0 538.240,1171.956 Z" style="stroke-width:2.0;stroke:rgb(255,255,255);stroke-linecap:round;fill:none;" />
<path d="M607.202,1130.358 A1642.000,1642.000 40.000 0,1 613.667,1120.089 L581.583,1099.725 A1680.000,1680.000 0.000 0,0 574.969,1110.233 Z" style="stroke-width:2.0;stroke:rgb(255,255,255);stroke-linecap:round;fill:rgb(38,195,195);" />
<text x="512.9" y="1082.8" font-size="36.4px" font-family="CMUBright-Roman" style="text-anchor:end;fill:rgb(0,0,0);" transform="rotate(32.2,512.9,1082.8)" >Creative-Writing</text>
<path d="M607.202,1130.358 A1642.000,1642.000 40.000 0,1 613.667,1120.089 L581.583,1099.725 A1680.000,1680.000 0.000 0,0 574.969,1110.233 Z" style="stroke-width:2.0;stroke:rgb(255,255,255);stroke-linecap:round;fill:none;" />
<path d="M633.192,1090.055 A1642.000,1642.000 40.000 0,1 667.742,1040.182 L636.910,1017.969 A1680.000,1680.000 0.000 0,0 601.560,1068.997 Z" style="stroke-width:2.0;stroke:rgb(255,255,255);stroke-linecap:round;fill:rgb(180,45,112);" />
<text x="554.7" y="1018.2" font-size="36.4px" font-family="CMUBright-Roman" style="text-anchor:end;fill:rgb(0,0,0);" transform="rotate(34.7,554.7,1018.2)" >Arts-Theology</text>
<path d="M633.192,1090.055 A1642.000,1642.000 40.000 0,1 667.742,1040.182 L636.910,1017.969 A1680.000,1680.000 0.000 0,0 601.560,1068.997 Z" style="stroke-width:2.0;stroke:rgb(255,255,255);stroke-linecap:round;fill:none;" />
<path d="M688.997,1011.347 A1642.000,1642.000 40.000 0,1 698.803,998.477 L668.690,975.299 A1680.000,1680.000 0.000 0,0 658.657,988.467 Z" style="stroke-width:2.0;stroke:rgb(255,255,255);stroke-linecap:round;fill:rgb(205,75,142);" />
<text x="600.6" y="953.9" font-size="36.4px" font-family="CMUBright-Roman" style="text-anchor:end;fill:rgb(0,0,0);" transform="rotate(37.3,600.6,953.9)" >English-Writing</text>
<path d="M688.997,1011.347 A1642.000,1642.000 40.000 0,1 698.803,998.477 L668.690,975.299 A1680.000,1680.000 0.000 0,0 658.657,988.467 Z" style="stroke-width:2.0;stroke:rgb(255,255,255);stroke-linecap:round;fill:none;" />
<path d="M720.960,970.329 A1642.000,1642.000 40.000 0,1 724.774,965.610 L695.262,941.672 A1680.000,1680.000 0.000 0,0 691.360,946.500 Z" style="stroke-width:2.0;stroke:rgb(255,255,255);stroke-linecap:round;fill:rgb(225,110,168);" />
<text x="631.0" y="914.3" font-size="36.4px" font-family="CMUBright-Roman" style="text-anchor:end;fill:rgb(0,0,0);" transform="rotate(38.9,631.0,914.3)" >Languages</text>
<path d="M720.960,970.329 A1642.000,1642.000 40.000 0,1 724.774,965.610 L695.262,941.672 A1680.000,1680.000 0.000 0,0 691.360,946.500 Z" style="stroke-width:2.0;stroke:rgb(255,255,255);stroke-linecap:round;fill:none;" />
<path d="M747.643,938.037 A1642.000,1642.000 40.000 0,1 884.635,794.959 L858.822,767.071 A1680.000,1680.000 0.000 0,0 718.660,913.461 Z" style="stroke-width:2.0;stroke:rgb(255,255,255);stroke-linecap:round;fill:rgb(88,40,138);" />
<text x="727.0" y="803.3" font-size="36.4px" font-family="CMUBright-Roman" style="text-anchor:end;fill:rgb(0,0,0);" transform="rotate(43.8,727.0,803.3)" >Biological-Sciences</text>
<path d="M747.643,938.037 A1642.000,1642.000 40.000 0,1 884.635,794.959 L858.822,767.071 A1680.000,1680.000 0.000 0,0 718.660,913.461 Z" style="stroke-width:2.0;stroke:rgb(255,255,255);stroke-linecap:round;fill:none;" />
<path d="M911.188,770.914 A1642.000,1642.000 40.000 0,1 969.888,721.316 L946.049,691.724 A1680.000,1680.000 0.000 0,0 885.990,742.470 Z" style="stroke-width:2.0;stroke:rgb(255,255,255);stroke-linecap:round;fill:rgb(115,65,165);" />
<text x="862.8" y="673.5" font-size="36.4px" font-family="CMUBright-Roman" style="text-anchor:end;fill:rgb(0,0,0);" transform="rotate(49.8,862.8,673.5)" >Health-Wellness</text>
<path d="M911.188,770.914 A1642.000,1642.000 40.000 0,1 969.888,721.316 L946.049,691.724 A1680.000,1680.000 0.000 0,0 885.990,742.470 Z" style="stroke-width:2.0;stroke:rgb(255,255,255);stroke-linecap:round;fill:none;" />
<path d="M998.028,699.148 A1642.000,1642.000 40.000 0,1 1023.858,679.655 L1001.267,649.099 A1680.000,1680.000 0.000 0,0 974.840,669.043 Z" style="stroke-width:2.0;stroke:rgb(255,255,255);stroke-linecap:round;fill:rgb(140,92,188);" />
<text x="935.2" y="614.8" font-size="36.4px" font-family="CMUBright-Roman" style="text-anchor:end;fill:rgb(0,0,0);" transform="rotate(53.0,935.2,614.8)" >Physical-Sciences</text>
<path d="M998.028,699.148 A1642.000,1642.000 40.000 0,1 1023.858,679.655 L1001.267,649.099 A1680.000,1680.000 0.000 0,0 974.840,669.043 Z" style="stroke-width:2.0;stroke:rgb(255,255,255);stroke-linecap:round;fill:none;" />
<path d="M1052.893,658.675 A1642.000,1642.000 40.000 0,1 1064.493,650.559 L1042.843,619.329 A1680.000,1680.000 0.000 0,0 1030.975,627.633 Z" style="stroke-width:2.0;stroke:rgb(255,255,255);stroke-linecap:round;fill:rgb(165,120,208);" />
<text x="988.2" y="575.6" font-size="36.4px" font-family="CMUBright-Roman" style="text-anchor:end;fill:rgb(0,0,0);" transform="rotate(55.0,988.2,575.6)" >Environmental-Sciences</text>
<path d="M1052.893,658.675 A1642.000,1642.000 40.000 0,1 1064.493,650.559 L1042.843,619.329 A1680.000,1680.000 0.000 0,0 1030.975,627.633 Z" style="stroke-width:2.0;stroke:rgb(255,255,255);stroke-linecap:round;fill:none;" />
<path d="M1094.154,630.472 A1642.000,1642.000 40.000 0,1 1594.822,408.776 L1585.445,371.951 A1680.000,1680.000 0.000 0,0 1073.190,598.778 Z" style="stroke-width:2.0;stroke:rgb(255,255,255);stroke-linecap:round;fill:rgb(22,118,50);" />
<text x="1278.0" y="409.0" font-size="36.4px" font-family="CMUBright-Roman" style="text-anchor:end;fill:rgb(0,0,0);" transform="rotate(66.1,1278.0,409.0)" >Engineering-Disciplines</text>
<path d="M1094.154,630.472 A1642.000,1642.000 40.000 0,1 1594.822,408.776 L1585.445,371.951 A1680.000,1680.000 0.000 0,0 1073.190,598.778 Z" style="stroke-width:2.0;stroke:rgb(255,255,255);stroke-linecap:round;fill:none;" />
<path d="M1629.631,400.315 A1642.000,1642.000 40.000 0,1 1964.180,358.391 L1963.351,320.400 A1680.000,1680.000 0.000 0,0 1621.060,363.295 Z" style="stroke-width:2.0;stroke:rgb(255,255,255);stroke-linecap:round;fill:rgb(48,158,75);" />
<text x="1767.4" y="268.4" font-size="36.4px" font-family="CMUBright-Roman" style="text-anchor:end;fill:rgb(0,0,0);" transform="rotate(82.9,1767.4,268.4)" >Computer-Science-IT</text>
<path d="M1629.631,400.315 A1642.000,1642.000 40.000 0,1 1964.180,358.391 L1963.351,320.400 A1680.000,1680.000 0.000 0,0 1621.060,363.295 Z" style="stroke-width:2.0;stroke:rgb(255,255,255);stroke-linecap:round;fill:none;" />
</g>
<g id="track_0">
<path d="M 3091.750,3204.405 A 1625.580,1625.580 0.00 0,1 3090.3,3205.7 L 3090.3,3205.7 3041.8,3151.0 2993.5,3094.1 2945.2,3035.3 2896.8,2974.7 2848.3,2912.6 2799.6,2849.0 2750.6,2784.1 2701.2,2718.1 2651.5,2651.2 2601.4,2583.4 2550.9,2514.9 2499.9,2445.8 2448.4,2376.2 2396.5,2306.3 2344.1,2236.1 2291.3,2165.8 2238.1,2095.5 2184.4,2025.1 2130.4,1954.9 2076.1,1884.9 2021.5,1815.1 1966.7,1745.7 1911.8,1676.6 1856.8,1607.9 1801.9,1539.8 1747.1,1472.1 1692.5,1405.0 1638.3,1338.4 1584.5,1272.4 1531.3,1207.0 1478.8,1142.2 1427.1,1078.0 1376.5,1014.4 1327.0,951.4 1278.9,889.0 1232.2,827.0 1187.3,765.6 1144.2,704.7 1103.2,644.2  A 1625.580,1625.580 0.00 0,1 1104.9,643.1 L 1104.9,643.1 1145.8,703.6 1188.8,764.6 1233.7,826.0 1280.2,888.0 1328.3,950.5 1377.7,1013.5 1428.3,1077.1 1479.9,1141.4 1532.3,1206.2 1585.5,1271.6 1639.2,1337.6 1693.4,1404.2 1748.0,1471.4 1802.8,1539.1 1857.7,1607.3 1912.6,1675.9 1967.5,1745.0 2022.3,1814.5 2076.9,1884.3 2131.2,1954.3 2185.2,2024.5 2238.9,2094.9 2292.2,2165.2 2345.0,2235.5 2397.4,2305.7 2449.3,2375.5 2500.8,2445.1 2551.9,2514.1 2602.4,2582.6 2652.6,2650.4 2702.3,2717.3 2751.7,2783.2 2800.8,2848.0 2849.6,2911.6 2898.1,2973.7 2946.6,3034.2 2994.9,3092.9 3043.3,3149.7 3091.7,3204.4  Z" style="stroke-width: 0.0;  fill: rgb(22,118,50);" />
<path d="M 3090.266,3205.749 A 1625.580,1625.580 0.00 0,1 3076.8,3217.8 L 3076.8,3217.8 3026.9,3162.3 2975.1,3106.7 2921.7,3050.8 2866.8,2994.5 2810.7,2937.7 2753.5,2880.5 2695.4,2822.7 2636.5,2764.4 2577.0,2705.4 2517.1,2645.8 2456.9,2585.5 2396.5,2524.5 2336.0,2462.8 2275.5,2400.5 2215.2,2337.4 2155.2,2273.8 2095.4,2209.5 2036.0,2144.5 1977.1,2079.1 1918.7,2013.1 1860.9,1946.7 1803.7,1879.9 1747.1,1812.7 1691.2,1745.4 1636.0,1677.9 1581.4,1610.3 1527.6,1542.7 1474.4,1475.4 1421.8,1408.3 1369.9,1341.5 1318.6,1275.3 1267.8,1209.8 1217.6,1145.1 1167.7,1081.4 1118.2,1018.8 1069.0,957.5 1020.0,897.7 971.0,839.5 922.1,783.2  A 1625.580,1625.580 0.00 0,1 935.6,771.3 L 935.6,771.3 984.9,827.1 1036.0,883.1 1088.8,939.4 1143.1,996.0 1198.7,1053.1 1255.4,1110.7 1313.1,1168.8 1371.5,1227.5 1430.6,1286.9 1490.2,1346.8 1550.1,1407.4 1610.3,1468.7 1670.6,1530.6 1730.8,1593.2 1791.0,1656.4 1851.0,1720.3 1910.7,1784.8 1970.1,1849.8 2029.0,1915.4 2087.5,1981.5 2145.4,2047.9 2202.8,2114.8 2259.5,2181.9 2315.6,2249.2 2371.1,2316.6 2425.9,2384.0 2480.0,2451.4 2533.6,2518.5 2586.4,2585.4 2638.7,2651.8 2690.4,2717.7 2741.6,2782.8 2792.2,2847.1 2842.5,2910.4 2892.4,2972.5 2942.1,3033.3 2991.5,3092.5 3040.9,3150.1 3090.3,3205.7  Z" style="stroke-width: 0.0;  fill: rgb(115,65,165);" />
<path d="M 3076.832,3217.761 A 1625.580,1625.580 0.00 0,1 3034.2,3254.2 L 3034.2,3254.2 2987.2,3198.5 2938.1,3142.7 2887.0,3086.6 2834.1,3030.2 2779.7,2973.4 2723.8,2916.3 2666.6,2858.7 2608.3,2800.7 2549.0,2742.1 2488.9,2683.1 2428.1,2623.6 2366.7,2563.6 2304.9,2503.1 2242.7,2442.2 2180.3,2380.7 2117.8,2318.9 2055.2,2256.6 1992.6,2194.1 1930.2,2131.2 1867.9,2068.0 1805.9,2004.7 1744.1,1941.3 1682.8,1877.9 1621.8,1814.5 1561.2,1751.2 1501.1,1688.2 1441.5,1625.6 1382.3,1563.4 1323.7,1501.8 1265.5,1440.8 1207.8,1380.8 1150.5,1321.7 1093.8,1263.7 1037.4,1207.0 981.4,1151.8 925.7,1098.1 870.3,1046.3 815.2,996.4 760.2,948.7  A 1625.580,1625.580 0.00 0,1 797.2,906.5 L 797.2,906.5 851.0,956.6 905.0,1008.6 959.2,1062.6 1013.7,1118.1 1068.5,1175.2 1123.8,1233.6 1179.4,1293.1 1235.5,1353.7 1292.2,1415.1 1349.3,1477.2 1407.1,1539.8 1465.3,1602.9 1524.2,1666.4 1583.6,1730.0 1643.5,1793.8 1703.9,1857.6 1764.9,1921.3 1826.3,1984.9 1888.1,2048.2 1950.3,2111.2 2012.7,2173.9 2075.4,2236.2 2138.3,2298.0 2201.3,2359.3 2264.2,2420.1 2327.0,2480.4 2389.7,2540.1 2452.0,2599.2 2513.8,2657.8 2575.1,2715.8 2635.7,2773.3 2695.5,2830.2 2754.3,2886.7 2811.9,2942.7 2868.2,2998.3 2923.1,3053.5 2976.2,3108.5 3027.5,3163.2 3076.8,3217.8  Z" style="stroke-width: 0.0;  fill: rgb(88,40,138);" />
<path d="M 3034.201,3254.168 A 1625.580,1625.580 0.00 0,1 3032.7,3255.4 L 3032.7,3255.4 2985.9,3200.0 2937.0,3144.3 2886.0,3088.4 2833.2,3032.2 2778.8,2975.7 2722.9,2918.8 2665.6,2861.5 2607.2,2803.8 2547.7,2745.6 2487.4,2686.9 2426.3,2627.8 2364.6,2568.2 2302.3,2508.2 2239.7,2447.7 2176.8,2386.9 2113.7,2325.6 2050.4,2264.0 1987.2,2202.0 1924.0,2139.8 1861.0,2077.5 1798.1,2014.9 1735.5,1952.4 1673.2,1889.8 1611.3,1827.3 1549.8,1765.0 1488.6,1703.0 1428.0,1641.4 1367.7,1580.3 1308.0,1519.9 1248.7,1460.1 1189.9,1401.3 1131.6,1343.5 1073.7,1286.8 1016.2,1231.5 959.1,1177.7 902.3,1125.5 845.9,1075.1 789.7,1026.8 733.8,980.6  A 1625.580,1625.580 0.00 0,1 735.0,979.1 L 735.0,979.1 790.9,1025.3 847.1,1073.7 903.5,1124.2 960.2,1176.4 1017.2,1230.3 1074.7,1285.7 1132.5,1342.4 1190.9,1400.3 1249.6,1459.2 1308.9,1519.0 1368.6,1579.5 1428.8,1640.6 1489.4,1702.2 1550.5,1764.2 1612.1,1826.6 1674.0,1889.0 1736.3,1951.6 1798.8,2014.2 1861.7,2076.7 1924.7,2139.1 1987.9,2201.3 2051.2,2263.2 2114.4,2324.8 2177.5,2386.1 2240.5,2447.0 2303.1,2507.4 2365.4,2567.4 2427.2,2626.9 2488.3,2686.0 2548.7,2744.6 2608.2,2802.8 2666.7,2860.5 2724.0,2917.7 2780.0,2974.6 2834.5,3031.1 2887.3,3087.2 2938.3,3143.1 2987.4,3198.7 3034.2,3254.2  Z" style="stroke-width: 0.0;  fill: rgb(225,110,168);" />
<path d="M 3032.656,3255.441 A 1625.580,1625.580 0.00 0,1 3029.6,3258.0 L 3029.6,3258.0 2983.5,3203.1 2935.1,3148.2 2884.5,3093.1 2832.0,3037.7 2777.6,2982.1 2721.5,2926.3 2664.0,2870.1 2605.1,2813.6 2545.0,2756.7 2483.8,2699.5 2421.7,2642.0 2358.7,2584.1 2295.1,2525.9 2230.8,2467.4 2166.1,2408.6 2101.0,2349.6 2035.6,2290.4 1970.1,2231.0 1904.4,2171.5 1838.7,2112.0 1773.1,2052.5 1707.5,1993.1 1642.2,1933.9 1577.0,1874.9 1512.2,1816.3 1447.6,1758.1 1383.4,1700.5 1319.7,1643.5 1256.3,1587.3 1193.3,1532.1 1130.9,1477.9 1068.8,1424.8 1007.3,1373.1 946.1,1322.8 885.5,1274.1 825.2,1227.3 765.4,1182.4 706.0,1139.6 646.9,1099.2  A 1625.580,1625.580 0.00 0,1 649.1,1095.8 L 649.1,1095.8 708.1,1136.4 767.5,1179.4 827.3,1224.4 887.5,1271.5 948.1,1320.2 1009.1,1370.6 1070.6,1422.5 1132.6,1475.7 1195.0,1530.0 1257.9,1585.4 1321.2,1641.6 1385.0,1698.7 1449.1,1756.4 1513.6,1814.6 1578.4,1873.3 1643.6,1932.3 1708.9,1991.5 1774.4,2051.0 1840.1,2110.5 1905.8,2170.0 1971.5,2229.5 2037.0,2288.9 2102.4,2348.1 2167.6,2407.0 2232.3,2465.8 2296.6,2524.3 2360.4,2582.4 2423.4,2640.2 2485.6,2697.7 2546.9,2754.8 2607.1,2811.6 2666.1,2868.1 2723.8,2924.2 2779.9,2980.0 2834.4,3035.5 2887.1,3090.8 2937.9,3145.8 2986.4,3200.7 3032.7,3255.4  Z" style="stroke-width: 0.0;  fill: rgb(180,45,112);" />
<path d="M 3029.560,3257.981 A 1625.580,1625.580 0.00 0,1 3026.5,3260.5 L 3026.5,3260.5 2981.0,3206.2 2933.0,3151.8 2882.8,3097.3 2830.5,3042.6 2776.2,2987.8 2720.2,2932.7 2662.5,2877.4 2603.3,2821.9 2542.8,2766.2 2481.0,2710.2 2418.2,2653.9 2354.4,2597.5 2289.8,2540.8 2224.4,2484.0 2158.4,2427.0 2092.0,2369.9 2025.1,2312.7 1957.8,2255.5 1890.4,2198.3 1822.8,2141.2 1755.2,2084.3 1687.5,2027.6 1620.0,1971.2 1552.5,1915.2 1485.3,1859.7 1418.3,1804.8 1351.7,1750.5 1285.3,1697.1 1219.4,1644.5 1153.9,1593.0 1088.8,1542.6 1024.1,1493.6 960.0,1445.9 896.3,1399.9 833.2,1355.6 770.6,1313.1 708.4,1272.7 646.8,1234.6 585.6,1198.8  A 1625.580,1625.580 0.00 0,1 587.6,1195.3 L 587.6,1195.3 648.7,1231.2 710.3,1269.6 772.4,1310.1 835.0,1352.7 898.1,1397.2 961.7,1443.4 1025.8,1491.2 1090.4,1540.3 1155.4,1590.8 1220.9,1642.4 1286.8,1695.1 1353.1,1748.6 1419.7,1802.9 1486.7,1857.9 1553.9,1913.5 1621.3,1969.5 1688.8,2026.0 1756.5,2082.7 1824.1,2139.6 1891.7,2196.7 1959.2,2253.9 2026.4,2311.1 2093.4,2368.3 2159.9,2425.4 2225.9,2482.3 2291.3,2539.2 2356.0,2595.8 2419.9,2652.2 2482.8,2708.4 2544.7,2764.3 2605.3,2820.0 2664.6,2875.4 2722.4,2930.6 2778.6,2985.6 2833.0,3040.4 2885.4,3095.0 2935.8,3149.4 2983.9,3203.7 3029.6,3258.0  Z" style="stroke-width: 0.0;  fill: rgb(0,165,172);" />
<path d="M 3026.458,3260.514 A 1625.580,1625.580 0.00 0,1 3023.3,3263.0 L 3023.3,3263.0 2978.4,3209.1 2930.8,3155.2 2881.0,3101.2 2828.9,3047.1 2774.8,2992.9 2718.8,2938.5 2661.0,2884.0 2601.7,2829.4 2540.9,2774.6 2478.7,2719.7 2415.4,2664.6 2351.0,2609.4 2285.6,2554.1 2219.4,2498.7 2152.5,2443.3 2085.0,2387.9 2016.9,2332.5 1948.5,2277.2 1879.7,2222.1 1810.6,2167.2 1741.5,2112.5 1672.2,2058.3 1602.9,2004.4 1533.8,1951.0 1464.7,1898.3 1395.9,1846.3 1327.3,1795.0 1259.0,1744.7 1191.1,1695.3 1123.6,1647.2 1056.6,1600.2 990.0,1554.7 923.9,1510.7 858.3,1468.3 793.4,1427.8 728.9,1389.2 665.1,1352.7 601.9,1318.6 539.2,1286.8  A 1625.580,1625.580 0.00 0,1 541.0,1283.2 L 541.0,1283.2 603.6,1315.1 666.8,1349.5 730.6,1386.1 795.0,1424.8 859.9,1465.5 925.4,1508.0 991.5,1552.2 1058.0,1597.8 1125.0,1644.9 1192.5,1693.2 1260.4,1742.6 1328.6,1793.0 1397.2,1844.4 1466.0,1896.5 1535.0,1949.3 1604.2,2002.7 1673.5,2056.6 1742.7,2110.9 1811.9,2165.6 1881.0,2220.5 1949.8,2275.6 2018.3,2330.9 2086.4,2386.3 2154.0,2441.7 2220.9,2497.1 2287.2,2552.4 2352.6,2607.7 2417.1,2662.8 2480.5,2717.8 2542.8,2772.7 2603.7,2827.5 2663.1,2882.0 2721.0,2936.4 2777.1,2990.7 2831.4,3044.9 2883.6,3098.9 2933.6,3152.8 2981.3,3206.7 3026.5,3260.5  Z" style="stroke-width: 0.0;  fill: rgb(0,130,142);" />
<path d="M 3023.349,3263.039 A 1625.580,1625.580 0.00 0,1 3018.7,3266.8 L 3018.7,3266.8 2975.2,3214.7 2929.0,3162.7 2880.2,3110.8 2829.0,3059.2 2775.3,3007.7 2719.5,2956.4 2661.7,2905.2 2601.9,2854.3 2540.3,2803.6 2477.1,2753.2 2412.3,2703.1 2346.2,2653.2 2278.7,2603.7 2210.0,2554.6 2140.3,2505.9 2069.7,2457.7 1998.2,2410.0 1926.1,2362.8 1853.3,2316.3 1780.0,2270.5 1706.3,2225.5 1632.3,2181.2 1558.1,2137.9 1483.8,2095.5 1409.5,2054.2 1335.2,2014.0 1261.2,1975.1 1187.4,1937.4 1113.9,1901.2 1040.8,1866.4 968.3,1833.3 896.3,1801.9 825.0,1772.3 754.5,1744.6 684.7,1719.0 615.8,1695.5 547.8,1674.4 480.8,1655.6 414.9,1639.4  A 1625.580,1625.580 0.00 0,1 416.3,1633.6 L 416.3,1633.6 482.2,1650.0 549.2,1669.0 617.1,1690.4 686.1,1714.1 755.8,1740.0 826.4,1767.9 897.7,1797.7 969.6,1829.3 1042.2,1862.7 1115.2,1897.6 1188.7,1934.0 1262.5,1971.8 1336.6,2010.9 1410.8,2051.2 1485.2,2092.6 1559.5,2135.1 1633.8,2178.5 1707.8,2222.8 1781.6,2267.9 1854.9,2313.8 1927.8,2360.3 2000.0,2407.4 2071.6,2455.1 2142.3,2503.3 2212.2,2552.0 2280.9,2601.1 2348.5,2650.5 2414.8,2700.3 2479.8,2750.4 2543.2,2800.8 2604.9,2851.4 2664.9,2902.2 2722.9,2953.2 2778.9,3004.4 2832.7,3055.8 2884.2,3107.4 2933.3,3159.1 2979.7,3211.0 3023.3,3263.0  Z" style="stroke-width: 0.0;  fill: rgb(175,35,42);" />
<path d="M 3018.675,3266.812 A 1625.580,1625.580 0.00 0,1 2961.5,3310.7 L 2961.5,3310.7 2921.4,3258.2 2878.5,3205.9 2832.8,3153.8 2784.4,3102.1 2733.6,3050.6 2680.5,2999.5 2625.0,2948.8 2567.5,2898.6 2508.0,2848.8 2446.6,2799.6 2383.5,2750.9 2318.8,2702.9 2252.6,2655.5 2185.0,2608.8 2116.2,2563.0 2046.2,2517.9 1975.2,2473.8 1903.3,2430.6 1830.6,2388.4 1757.2,2347.3 1683.3,2307.3 1608.9,2268.5 1534.1,2231.0 1459.2,2194.8 1384.1,2160.1 1309.1,2126.8 1234.1,2095.0 1159.3,2064.9 1084.9,2036.5 1010.8,2009.9 937.3,1985.1 864.4,1962.3 792.3,1941.5 720.9,1922.8 650.5,1906.3 581.1,1892.2 512.9,1880.4 445.8,1871.0 380.1,1864.3  A 1625.580,1625.580 0.00 0,1 387.7,1792.6 L 387.7,1792.6 453.9,1802.3 521.4,1814.6 590.0,1829.3 659.8,1846.4 730.5,1865.6 802.2,1887.0 874.6,1910.4 947.8,1935.7 1021.7,1962.8 1096.1,1991.6 1171.0,2022.1 1246.2,2054.2 1321.7,2087.7 1397.3,2122.6 1473.0,2158.8 1548.7,2196.3 1624.2,2234.9 1699.5,2274.7 1774.4,2315.4 1848.8,2357.1 1922.7,2399.7 1995.8,2443.2 2068.2,2487.4 2139.7,2532.4 2210.1,2578.0 2279.3,2624.3 2347.3,2671.2 2414.0,2718.6 2479.0,2766.6 2542.5,2815.0 2604.2,2863.8 2664.0,2913.0 2721.8,2962.6 2777.4,3012.6 2830.8,3062.8 2881.7,3113.4 2930.1,3164.3 2975.8,3215.4 3018.7,3266.8  Z" style="stroke-width: 0.0;  fill: rgb(195,58,55);" />
<path d="M 2961.518,3310.722 A 1625.580,1625.580 0.00 0,1 2955.0,3315.4 L 2955.0,3315.4 2915.7,3263.4 2873.4,3211.7 2828.4,3160.3 2780.6,3109.2 2730.4,3058.6 2677.7,3008.5 2622.8,2958.9 2565.6,2909.9 2506.5,2861.5 2445.4,2813.9 2382.5,2766.9 2317.9,2720.8 2251.8,2675.5 2184.2,2631.2 2115.3,2587.8 2045.3,2545.4 1974.1,2504.1 1902.0,2463.9 1829.0,2425.0 1755.4,2387.3 1681.1,2350.9 1606.3,2315.9 1531.2,2282.4 1455.9,2250.4 1380.4,2219.9 1304.8,2191.0 1229.4,2163.9 1154.3,2138.5 1079.4,2115.0 1005.0,2093.3 931.1,2073.6 858.0,2056.0 785.6,2040.4 714.2,2027.0 643.7,2015.9 574.4,2007.0 506.4,2000.6 439.7,1996.6 374.4,1995.1  A 1625.580,1625.580 0.00 0,1 374.5,1987.1 L 374.5,1987.1 439.8,1988.9 506.6,1993.2 574.7,2000.0 644.1,2009.1 714.6,2020.6 786.1,2034.3 858.5,2050.1 931.8,2068.1 1005.7,2088.0 1080.2,2109.9 1155.1,2133.7 1230.4,2159.3 1305.9,2186.6 1381.5,2215.7 1457.1,2246.3 1532.6,2278.5 1607.8,2312.2 1682.7,2347.3 1757.1,2383.7 1830.9,2421.5 1904.0,2460.5 1976.3,2500.7 2047.6,2542.0 2117.9,2584.4 2187.0,2627.8 2254.7,2672.1 2321.1,2717.3 2385.9,2763.4 2449.0,2810.3 2510.4,2857.9 2569.8,2906.1 2627.2,2955.0 2682.4,3004.5 2735.4,3054.5 2785.9,3105.0 2833.9,3155.9 2879.3,3207.2 2921.8,3258.8 2961.5,3310.7  Z" style="stroke-width: 0.0;  fill: rgb(220,140,52);" />
<path d="M 2955.049,3315.444 A 1625.580,1625.580 0.00 0,1 2894.1,3357.6 L 2894.1,3357.6 2858.5,3306.0 2820.0,3254.8 2778.6,3204.1 2734.6,3154.0 2687.9,3104.6 2638.8,3056.1 2587.2,3008.4 2533.5,2961.8 2477.5,2916.2 2419.5,2871.8 2359.7,2828.6 2298.0,2786.8 2234.6,2746.3 2169.7,2707.3 2103.3,2669.9 2035.6,2634.1 1966.7,2599.9 1896.8,2567.5 1825.9,2536.8 1754.2,2508.0 1681.8,2481.1 1608.9,2456.1 1535.5,2433.1 1461.9,2412.1 1388.0,2393.2 1314.2,2376.4 1240.5,2361.8 1167.0,2349.3 1093.9,2339.0 1021.3,2331.0 949.4,2325.2 878.2,2321.6 808.1,2320.4 739.0,2321.4 671.2,2324.8 604.7,2330.4 539.8,2338.4 476.5,2348.7 415.1,2361.3  A 1625.580,1625.580 0.00 0,1 400.3,2288.7 L 400.3,2288.7 463.0,2278.8 527.6,2271.2 593.8,2265.9 661.5,2262.9 730.6,2262.2 800.9,2263.8 872.3,2267.6 944.7,2273.6 1017.9,2281.8 1091.8,2292.1 1166.3,2304.5 1241.2,2319.0 1316.4,2335.6 1391.7,2354.1 1467.1,2374.6 1542.4,2397.0 1617.4,2421.2 1692.1,2447.3 1766.3,2475.1 1839.9,2504.7 1912.7,2535.9 1984.7,2568.8 2055.7,2603.2 2125.5,2639.1 2194.1,2676.5 2261.3,2715.3 2327.0,2755.4 2391.1,2796.7 2453.5,2839.3 2514.0,2883.0 2572.5,2927.8 2628.9,2973.5 2683.1,3020.2 2735.0,3067.7 2784.4,3116.0 2831.2,3165.0 2875.3,3214.7 2916.6,3264.8 2955.0,3315.4  Z" style="stroke-width: 0.0;  fill: rgb(200,108,30);" />
<path d="M 2894.127,3357.589 A 1625.580,1625.580 0.00 0,1 2890.8,3359.8 L 2890.8,3359.8 2856.0,3309.1 2818.3,3258.9 2777.8,3209.5 2734.7,3160.8 2689.0,3113.0 2640.9,3066.2 2590.5,3020.6 2537.8,2976.2 2483.0,2933.2 2426.2,2891.6 2367.5,2851.5 2307.0,2813.1 2244.9,2776.4 2181.3,2741.5 2116.3,2708.4 2049.9,2677.2 1982.5,2648.1 1913.9,2620.9 1844.5,2595.9 1774.3,2573.0 1703.5,2552.3 1632.2,2533.9 1560.5,2517.7 1488.5,2503.7 1416.5,2492.1 1344.5,2482.8 1272.7,2475.9 1201.2,2471.3 1130.2,2469.1 1059.8,2469.2 990.2,2471.6 921.5,2476.4 853.8,2483.5 787.4,2493.0 722.3,2504.6 658.8,2518.6 596.9,2534.7 536.9,2553.0 478.9,2573.4  A 1625.580,1625.580 0.00 0,1 477.5,2569.7 L 477.5,2569.7 535.6,2549.4 595.7,2531.2 657.6,2515.2 721.3,2501.4 786.4,2489.9 852.9,2480.6 920.7,2473.6 989.5,2468.9 1059.2,2466.6 1129.7,2466.6 1200.8,2468.9 1272.4,2473.6 1344.3,2480.7 1416.4,2490.1 1488.6,2501.8 1560.6,2515.8 1632.4,2532.0 1703.9,2550.6 1774.8,2571.3 1845.2,2594.2 1914.7,2619.3 1983.3,2646.4 2050.9,2675.6 2117.4,2706.8 2182.6,2739.8 2246.4,2774.8 2308.6,2811.5 2369.2,2849.9 2428.0,2889.9 2485.0,2931.4 2539.9,2974.4 2592.8,3018.8 2643.4,3064.3 2691.6,3111.0 2737.5,3158.8 2780.7,3207.4 2821.3,3256.9 2859.2,3307.0 2894.1,3357.6  Z" style="stroke-width: 0.0;  fill: rgb(82,145,215);" />
<path d="M 2890.780,3359.787 A 1625.580,1625.580 0.00 0,1 2887.4,3362.0 L 2887.4,3362.0 2854.7,3314.1 2819.6,3267.1 2782.2,3221.1 2742.5,3176.4 2700.8,3133.2 2657.0,3091.6 2611.4,3051.9 2563.9,3014.2 2514.8,2978.5 2464.2,2945.2 2412.1,2914.2 2358.7,2885.8 2304.2,2860.0 2248.5,2836.8 2191.9,2816.5 2134.4,2799.0 2076.2,2784.4 2017.4,2772.8 1958.2,2764.2 1898.6,2758.6 1838.7,2756.0 1778.8,2756.5 1718.9,2759.9 1659.2,2766.4 1599.8,2775.8 1540.8,2788.1 1482.3,2803.3 1424.6,2821.3 1367.6,2842.0 1311.7,2865.3 1256.8,2891.2 1203.2,2919.4 1150.9,2949.9 1100.2,2982.6 1051.1,3017.3 1003.8,3053.8 958.4,3091.9 915.1,3131.6 874.1,3172.6  A 1625.580,1625.580 0.00 0,1 871.2,3169.8 L 871.2,3169.8 912.4,3128.9 955.8,3089.3 1001.3,3051.2 1048.7,3014.8 1097.9,2980.3 1148.8,2947.7 1201.2,2917.2 1255.0,2889.1 1310.1,2863.3 1366.2,2840.1 1423.3,2819.5 1481.2,2801.5 1539.8,2786.4 1599.0,2774.1 1658.6,2764.8 1718.5,2758.3 1778.5,2754.9 1838.6,2754.5 1898.6,2757.1 1958.4,2762.7 2017.8,2771.4 2076.8,2783.0 2135.1,2797.5 2192.8,2815.0 2249.6,2835.3 2305.4,2858.4 2360.2,2884.2 2413.8,2912.6 2466.0,2943.6 2516.8,2976.9 2566.1,3012.4 2613.7,3050.1 2659.5,3089.8 2703.4,3131.3 2745.3,3174.5 2785.1,3219.1 2822.7,3265.0 2858.0,3312.0 2890.8,3359.8  Z" style="stroke-width: 0.0;  fill: rgb(28,75,160);" />
<path d="M 2887.428,3361.978 A 1625.580,1625.580 0.00 0,1 2885.7,3363.1 L 2885.7,3363.1 2854.7,3317.1 2822.0,3272.2 2787.7,3228.5 2751.9,3186.3 2714.7,3145.8 2676.4,3107.4 2636.9,3071.2 2596.5,3037.4 2555.2,3006.2 2513.2,2977.8 2470.6,2952.3 2427.5,2929.9 2384.0,2910.6 2340.3,2894.6 2296.4,2882.0 2252.4,2872.8 2208.5,2867.1 2164.7,2865.0 2121.2,2866.4 2078.1,2871.3 2035.4,2879.8 1993.2,2891.8 1951.7,2907.3 1911.0,2926.2 1871.1,2948.4 1832.1,2973.9 1794.1,3002.5 1757.2,3034.1 1721.5,3068.6 1687.0,3105.8 1653.8,3145.5 1622.1,3187.6 1591.9,3231.8 1563.2,3277.9 1536.2,3325.7 1510.9,3374.9 1487.3,3425.2 1465.6,3476.4 1445.8,3528.2  A 1625.580,1625.580 0.00 0,1 1443.9,3527.5 L 1443.9,3527.5 1463.8,3475.8 1485.6,3424.6 1509.2,3374.2 1534.6,3325.1 1561.7,3277.3 1590.5,3231.2 1620.8,3187.0 1652.6,3144.9 1685.9,3105.2 1720.4,3068.1 1756.2,3033.6 1793.2,3002.0 1831.3,2973.4 1870.4,2947.9 1910.5,2925.7 1951.3,2906.8 1992.9,2891.3 2035.2,2879.3 2077.9,2870.8 2121.2,2865.8 2164.8,2864.4 2208.7,2866.6 2252.7,2872.2 2296.8,2881.4 2340.8,2894.0 2384.6,2909.9 2428.2,2929.2 2471.4,2951.6 2514.1,2977.0 2556.2,3005.4 2597.5,3036.6 2638.1,3070.3 2677.6,3106.5 2716.0,3144.9 2753.3,3185.3 2789.1,3227.5 2823.5,3271.1 2856.4,3316.1 2887.4,3362.0  Z" style="stroke-width: 0.0;  fill: rgb(42,98,180);" />
<path d="M 2885.749,3363.070 A 1625.580,1625.580 0.00 0,1 2884.1,3364.2 L 2884.1,3364.2 2854.4,3319.4 2824.0,3275.5 2792.9,3232.8 2761.3,3191.5 2729.5,3151.9 2697.4,3114.3 2665.4,3079.0 2633.4,3046.1 2601.8,3015.9 2570.5,2988.6 2539.7,2964.4 2509.5,2943.3 2480.0,2925.5 2451.3,2911.2 2423.5,2900.5 2396.7,2893.3 2371.0,2889.8 2346.4,2890.0 2323.1,2894.0 2301.0,2901.7 2280.2,2913.1 2260.8,2928.1 2242.8,2946.8 2226.2,2969.0 2211.1,2994.7 2197.5,3023.7 2185.3,3055.9 2174.7,3091.2 2165.6,3129.3 2158.0,3170.2 2151.9,3213.5 2147.2,3259.1 2144.0,3306.7 2142.1,3356.0 2141.7,3406.8 2142.5,3458.8 2144.7,3511.6 2148.0,3564.9 2152.5,3618.4  A 1625.580,1625.580 0.00 0,1 2150.5,3618.6 L 2150.5,3618.6 2146.1,3565.1 2142.8,3511.8 2140.8,3459.0 2140.0,3407.0 2140.5,3356.1 2142.4,3306.8 2145.8,3259.1 2150.5,3213.5 2156.8,3170.2 2164.5,3129.3 2173.7,3091.2 2184.4,3055.9 2196.7,3023.6 2210.4,2994.6 2225.6,2968.9 2242.3,2946.6 2260.4,2927.9 2279.9,2912.8 2300.8,2901.4 2323.0,2893.7 2346.5,2889.7 2371.2,2889.4 2397.0,2892.9 2423.9,2900.0 2451.8,2910.7 2480.6,2925.0 2510.2,2942.7 2540.5,2963.7 2571.4,2987.9 2602.8,3015.2 2634.5,3045.3 2666.5,3078.2 2698.7,3113.4 2730.8,3151.0 2762.7,3190.5 2794.4,3231.8 2825.5,3274.5 2856.0,3318.4 2885.7,3363.1  Z" style="stroke-width: 0.0;  fill: rgb(15,52,135);" />
</g>
<defs>
<pattern id="vline" width="10" height="10" patternTransform="rotate(0 0 0)" patternUnits="userSpaceOnUse"><line x1="0" y1="0" x2="0" y2="10" style="stroke:black;stroke-width:5" /></pattern>
<pattern id="checker" width="10" height="10" patternTransform="rotate(45 0 0)" patternUnits="userSpaceOnUse"><line x1="0" y1="0" x2="10" y2="0" style="stroke:black;stroke-width:5" /><line x1="0" y1="0" x2="0" y2="10" style="stroke:black;stroke-width:4" /></pattern>
<pattern id="hline-sparse" width="10" height="10" patternTransform="rotate(0 0 0)" patternUnits="userSpaceOnUse"><line x1="0" y1="0" x2="10" y2="0" style="stroke:black;stroke-width:2" /></pattern>
<pattern id="hline" width="10" height="10" patternTransform="rotate(0 0 0)" patternUnits="userSpaceOnUse"><line x1="0" y1="0" x2="10" y2="0" style="stroke:black;stroke-width:5" /></pattern>
<pattern id="checker" width="10" height="10" patternTransform="rotate(45 0 0)" patternUnits="userSpaceOnUse"><line x1="0" y1="0" x2="10" y2="0" style="stroke:black;stroke-width:2" /><line x1="0" y1="0" x2="0" y2="10" style="stroke:black;stroke-width:2" /></pattern>
<pattern id="vline-sparse" width="10" height="10" patternTransform="rotate(0 0 0)" patternUnits="userSpaceOnUse"><line x1="0" y1="0" x2="0" y2="10" style="stroke:black;stroke-width:2" /></pattern>
</defs>
</svg>
