<?xml version="1.0" encoding="utf-8" standalone="no"?>
<!DOCTYPE svg PUBLIC "-//W3C//DTD SVG 1.1//EN" "http://www.w3.org/Graphics/SVG/1.1/DTD/svg11.dtd">
<svg width="4000px" height="4000px" version="1.1" xmlns="http://www.w3.org/2000/svg" xmlns:xlink="http://www.w3.org/1999/xlink">
<g id="bg">
<rect x="0" y="0" width="4000px" height="4000px" style="fill:rgb(255,255,255);"/>
</g>
<g id="ideograms">
<path d="M2000.000,358.000 A1642.000,1642.000 40.000 0,1 2727.139,527.779 L2743.967,493.709 A1680.000,1680.000 0.000 0,0 2000.000,320.000 Z" style="stroke-width:2.0;stroke:rgb(255,255,255);stroke-linecap:round;fill:rgb(185,185,185);" />
<text x="2412.3" y="302.2" font-size="36.4px" font-family="CMUBright-Roman" style="text-anchor:start;fill:rgb(0,0,0);" transform="rotate(283.1,2412.3,302.2)" >Engineering</text>
<path d="M2000.000,358.000 A1642.000,1642.000 40.000 0,1 2727.139,527.779 L2743.967,493.709 A1680.000,1680.000 0.000 0,0 2000.000,320.000 Z" style="stroke-width:2.0;stroke:rgb(255,255,255);stroke-linecap:round;fill:none;" />
<path d="M2759.082,543.992 A1642.000,1642.000 40.000 0,1 3284.099,976.646 L3313.816,952.963 A1680.000,1680.000 0.000 0,0 2776.649,510.297 Z" style="stroke-width:2.0;stroke:rgb(255,255,255);stroke-linecap:round;fill:rgb(185,185,185);" />
<text x="3120.8" y="659.6" font-size="36.4px" font-family="CMUBright-Roman" style="text-anchor:start;fill:rgb(0,0,0);" transform="rotate(309.5,3120.8,659.6)" >Finance-Investment</text>
<path d="M2759.082,543.992 A1642.000,1642.000 40.000 0,1 3284.099,976.646 L3313.816,952.963 A1680.000,1680.000 0.000 0,0 2776.649,510.297 Z" style="stroke-width:2.0;stroke:rgb(255,255,255);stroke-linecap:round;fill:none;" />
<path d="M3306.118,1004.902 A1642.000,1642.000 40.000 0,1 3557.132,1478.938 L3593.167,1466.879 A1680.000,1680.000 0.000 0,0 3336.345,981.873 Z" style="stroke-width:2.0;stroke:rgb(255,255,255);stroke-linecap:round;fill:rgb(185,185,185);" />
<text x="3551.5" y="1196.5" font-size="36.4px" font-family="CMUBright-Roman" style="text-anchor:start;fill:rgb(0,0,0);" transform="rotate(332.1,3551.5,1196.5)" >Management-Operations</text>
<path d="M3306.118,1004.902 A1642.000,1642.000 40.000 0,1 3557.132,1478.938 L3593.167,1466.879 A1680.000,1680.000 0.000 0,0 3336.345,981.873 Z" style="stroke-width:2.0;stroke:rgb(255,255,255);stroke-linecap:round;fill:none;" />
<path d="M3568.128,1513.031 A1642.000,1642.000 40.000 0,1 3640.479,1929.339 L3678.444,1927.703 A1680.000,1680.000 0.000 0,0 3604.418,1501.761 Z" style="stroke-width:2.0;stroke:rgb(255,255,255);stroke-linecap:round;fill:rgb(185,185,185);" />
<text x="3723.5" y="1713.2" font-size="36.4px" font-family="CMUBright-Roman" style="text-anchor:start;fill:rgb(0,0,0);" transform="rotate(350.1,3723.5,1713.2)" >Software-Data</text>
<path d="M3568.128,1513.031 A1642.000,1642.000 40.000 0,1 3640.479,1929.339 L3678.444,1927.703 A1680.000,1680.000 0.000 0,0 3604.418,1501.761 Z" style="stroke-width:2.0;stroke:rgb(255,255,255);stroke-linecap:round;fill:none;" />
<path d="M3641.630,1965.142 A1642.000,1642.000 40.000 0,1 3597.388,2380.151 L3634.356,2388.948 A1680.000,1680.000 0.000 0,0 3679.621,1964.336 Z" style="stroke-width:2.0;stroke:rgb(255,255,255);stroke-linecap:round;fill:rgb(185,185,185);" />
<text x="3735.6" y="2201.1" font-size="36.4px" font-family="CMUBright-Roman" style="text-anchor:start;fill:rgb(0,0,0);" transform="rotate(6.1,3735.6,2201.1)" >Sales-Marketing</text>
<path d="M3641.630,1965.142 A1642.000,1642.000 40.000 0,1 3597.388,2380.151 L3634.356,2388.948 A1680.000,1680.000 0.000 0,0 3679.621,1964.336 Z" style="stroke-width:2.0;stroke:rgb(255,255,255);stroke-linecap:round;fill:none;" />
<path d="M3588.715,2414.907 A1642.000,1642.000 40.000 0,1 3447.858,2774.513 L3481.365,2792.437 A1680.000,1680.000 0.000 0,0 3625.482,2424.509 Z" style="stroke-width:2.0;stroke:rgb(255,255,255);stroke-linecap:round;fill:rgb(185,185,185);" />
<text x="3620.9" y="2652.1" font-size="36.4px" font-family="CMUBright-Roman" style="text-anchor:start;fill:rgb(0,0,0);" transform="rotate(21.4,3620.9,2652.1)" >Accounting-Audit</text>
<path d="M3588.715,2414.907 A1642.000,1642.000 40.000 0,1 3447.858,2774.513 L3481.365,2792.437 A1680.000,1680.000 0.000 0,0 3625.482,2424.509 Z" style="stroke-width:2.0;stroke:rgb(255,255,255);stroke-linecap:round;fill:none;" />
<path d="M3430.618,2805.914 A1642.000,1642.000 40.000 0,1 3261.549,3051.027 L3290.745,3075.350 A1680.000,1680.000 0.000 0,0 3463.726,2824.565 Z" style="stroke-width:2.0;stroke:rgb(255,255,255);stroke-linecap:round;fill:rgb(185,185,185);" />
<text x="3429.4" y="3004.8" font-size="36.4px" font-family="CMUBright-Roman" style="text-anchor:start;fill:rgb(0,0,0);" transform="rotate(34.6,3429.4,3004.8)" >Leadership-General</text>
<path d="M3430.618,2805.914 A1642.000,1642.000 40.000 0,1 3261.549,3051.027 L3290.745,3075.350 A1680.000,1680.000 0.000 0,0 3463.726,2824.565 Z" style="stroke-width:2.0;stroke:rgb(255,255,255);stroke-linecap:round;fill:none;" />
<path d="M3238.321,3078.297 A1642.000,1642.000 40.000 0,1 3039.505,3271.060 L3063.562,3300.476 A1680.000,1680.000 0.000 0,0 3266.979,3103.252 Z" style="stroke-width:2.0;stroke:rgb(255,255,255);stroke-linecap:round;fill:rgb(185,185,185);" />
<text x="3207.2" y="3263.1" font-size="36.4px" font-family="CMUBright-Roman" style="text-anchor:start;fill:rgb(0,0,0);" transform="rotate(45.9,3207.2,3263.1)" >Clinical-Care</text>
<path d="M3238.321,3078.297 A1642.000,1642.000 40.000 0,1 3039.505,3271.060 L3063.562,3300.476 A1680.000,1680.000 0.000 0,0 3266.979,3103.252 Z" style="stroke-width:2.0;stroke:rgb(255,255,255);stroke-linecap:round;fill:none;" />
<path d="M3011.529,3293.434 A1642.000,1642.000 40.000 0,1 2784.385,3442.534 L2802.537,3475.918 A1680.000,1680.000 0.000 0,0 3034.939,3323.368 Z" style="stroke-width:2.0;stroke:rgb(255,255,255);stroke-linecap:round;fill:rgb(185,185,185);" />
<text x="2948.3" y="3467.5" font-size="36.4px" font-family="CMUBright-Roman" style="text-anchor:start;fill:rgb(0,0,0);" transform="rotate(56.7,2948.3,3467.5)" >Research-Science</text>
<path d="M3011.529,3293.434 A1642.000,1642.000 40.000 0,1 2784.385,3442.534 L2802.537,3475.918 A1680.000,1680.000 0.000 0,0 3034.939,3323.368 Z" style="stroke-width:2.0;stroke:rgb(255,255,255);stroke-linecap:round;fill:none;" />
<path d="M2752.729,3459.302 A1642.000,1642.000 40.000 0,1 2556.245,3544.913 L2569.118,3580.666 A1680.000,1680.000 0.000 0,0 2770.149,3493.074 Z" style="stroke-width:2.0;stroke:rgb(255,255,255);stroke-linecap:round;fill:rgb(185,185,185);" />
<text x="2686.4" y="3606.7" font-size="36.4px" font-family="CMUBright-Roman" style="text-anchor:start;fill:rgb(0,0,0);" transform="rotate(66.5,2686.4,3606.7)" >Education</text>
<path d="M2752.729,3459.302 A1642.000,1642.000 40.000 0,1 2556.245,3544.913 L2569.118,3580.666 A1680.000,1680.000 0.000 0,0 2770.149,3493.074 Z" style="stroke-width:2.0;stroke:rgb(255,255,255);stroke-linecap:round;fill:none;" />
<path d="M2522.411,3556.679 A1642.000,1642.000 40.000 0,1 2417.174,3588.121 L2426.829,3624.875 A1680.000,1680.000 0.000 0,0 2534.501,3592.705 Z" style="stroke-width:2.0;stroke:rgb(255,255,255);stroke-linecap:round;fill:rgb(185,185,185);" />
<text x="2488.2" y="3677.6" font-size="36.4px" font-family="CMUBright-Roman" style="text-anchor:start;fill:rgb(0,0,0);" transform="rotate(73.4,2488.2,3677.6)" >IT-Infrastructure</text>
<path d="M2522.411,3556.679 A1642.000,1642.000 40.000 0,1 2417.174,3588.121 L2426.829,3624.875 A1680.000,1680.000 0.000 0,0 2534.501,3592.705 Z" style="stroke-width:2.0;stroke:rgb(255,255,255);stroke-linecap:round;fill:none;" />
<path d="M2382.430,3596.844 A1642.000,1642.000 40.000 0,1 2321.118,3610.294 L2328.550,3647.560 A1680.000,1680.000 0.000 0,0 2391.281,3633.799 Z" style="stroke-width:2.0;stroke:rgb(255,255,255);stroke-linecap:round;fill:rgb(185,185,185);" />
<text x="2358.7" y="3710.0" font-size="36.4px" font-family="CMUBright-Roman" style="text-anchor:start;fill:rgb(0,0,0);" transform="rotate(77.6,2358.7,3710.0)" >Legal-Policy</text>
<path d="M2382.430,3596.844 A1642.000,1642.000 40.000 0,1 2321.118,3610.294 L2328.550,3647.560 A1680.000,1680.000 0.000 0,0 2391.281,3633.799 Z" style="stroke-width:2.0;stroke:rgb(255,255,255);stroke-linecap:round;fill:none;" />
<path d="M2285.913,3616.916 A1642.000,1642.000 40.000 0,1 2249.787,3622.890 L2255.567,3660.447 A1680.000,1680.000 0.000 0,0 2292.530,3654.336 Z" style="stroke-width:2.0;stroke:rgb(255,255,255);stroke-linecap:round;fill:rgb(185,185,185);" />
<text x="2272.7" y="3725.8" font-size="36.4px" font-family="CMUBright-Roman" style="text-anchor:start;fill:rgb(0,0,0);" transform="rotate(80.6,2272.7,3725.8)" >Social-Service</text>
<path d="M2285.913,3616.916 A1642.000,1642.000 40.000 0,1 2249.787,3622.890 L2255.567,3660.447 A1680.000,1680.000 0.000 0,0 2292.530,3654.336 Z" style="stroke-width:2.0;stroke:rgb(255,255,255);stroke-linecap:round;fill:none;" />
<path d="M2214.324,3627.952 A1642.000,1642.000 40.000 0,1 1245.263,3458.265 L1227.797,3492.013 A1680.000,1680.000 0.000 0,0 2219.284,3665.627 Z" style="stroke-width:2.0;stroke:rgb(255,255,255);stroke-linecap:round;fill:rgb(15,52,135);" />
<text x="1714.4" y="3723.7" font-size="36.4px" font-family="CMUBright-Roman" style="text-anchor:end;fill:rgb(0,0,0);" transform="rotate(-80.1,1714.4,3723.7)" >Finance-Accounting</text>
<path d="M2214.324,3627.952 A1642.000,1642.000 40.000 0,1 1245.263,3458.265 L1227.797,3492.013 A1680.000,1680.000 0.000 0,0 2219.284,3665.627 Z" style="stroke-width:2.0;stroke:rgb(255,255,255);stroke-linecap:round;fill:none;" />
<path d="M1213.631,3441.453 A1642.000,1642.000 40.000 0,1 879.437,3200.209 L853.504,3227.985 A1680.000,1680.000 0.000 0,0 1195.432,3474.812 Z" style="stroke-width:2.0;stroke:rgb(255,255,255);stroke-linecap:round;fill:rgb(28,75,160);" />
<text x="990.4" y="3426.0" font-size="36.4px" font-family="CMUBright-Roman" style="text-anchor:end;fill:rgb(0,0,0);" transform="rotate(-54.2,990.4,3426.0)" >Marketing-Communication</text>
<path d="M1213.631,3441.453 A1642.000,1642.000 40.000 0,1 879.437,3200.209 L853.504,3227.985 A1680.000,1680.000 0.000 0,0 1195.432,3474.812 Z" style="stroke-width:2.0;stroke:rgb(255,255,255);stroke-linecap:round;fill:none;" />
<path d="M853.521,3175.478 A1642.000,1642.000 40.000 0,1 639.254,2918.986 L607.763,2940.253 A1680.000,1680.000 0.000 0,0 826.988,3202.682 Z" style="stroke-width:2.0;stroke:rgb(255,255,255);stroke-linecap:round;fill:rgb(42,98,180);" />
<text x="667.2" y="3129.7" font-size="36.4px" font-family="CMUBright-Roman" style="text-anchor:end;fill:rgb(0,0,0);" transform="rotate(-39.9,667.2,3129.7)" >General-Business</text>
<path d="M853.521,3175.478 A1642.000,1642.000 40.000 0,1 639.254,2918.986 L607.763,2940.253 A1680.000,1680.000 0.000 0,0 826.988,3202.682 Z" style="stroke-width:2.0;stroke:rgb(255,255,255);stroke-linecap:round;fill:none;" />
<path d="M619.530,2889.082 A1642.000,1642.000 40.000 0,1 479.680,2620.315 L444.496,2634.671 A1680.000,1680.000 0.000 0,0 587.583,2909.658 Z" style="stroke-width:2.0;stroke:rgb(255,255,255);stroke-linecap:round;fill:rgb(60,120,198);" />
<text x="457.3" y="2820.2" font-size="36.4px" font-family="CMUBright-Roman" style="text-anchor:end;fill:rgb(0,0,0);" transform="rotate(-27.5,457.3,2820.2)" >Operations-Analytics</text>
<path d="M619.530,2889.082 A1642.000,1642.000 40.000 0,1 479.680,2620.315 L444.496,2634.671 A1680.000,1680.000 0.000 0,0 587.583,2909.658 Z" style="stroke-width:2.0;stroke:rgb(255,255,255);stroke-linecap:round;fill:none;" />
<path d="M466.510,2587.002 A1642.000,1642.000 40.000 0,1 421.749,2453.087 L385.224,2463.573 A1680.000,1680.000 0.000 0,0 431.021,2600.587 Z" style="stroke-width:2.0;stroke:rgb(255,255,255);stroke-linecap:round;fill:rgb(82,145,215);" />
<text x="347.9" y="2568.6" font-size="36.4px" font-family="CMUBright-Roman" style="text-anchor:end;fill:rgb(0,0,0);" transform="rotate(-18.5,347.9,2568.6)" >Specialized-Business</text>
<path d="M466.510,2587.002 A1642.000,1642.000 40.000 0,1 421.749,2453.087 L385.224,2463.573 A1680.000,1680.000 0.000 0,0 431.021,2600.587 Z" style="stroke-width:2.0;stroke:rgb(255,255,255);stroke-linecap:round;fill:none;" />
<path d="M412.241,2418.550 A1642.000,1642.000 40.000 0,1 391.911,2331.987 L354.696,2339.670 A1680.000,1680.000 0.000 0,0 375.496,2428.236 Z" style="stroke-width:2.0;stroke:rgb(255,255,255);stroke-linecap:round;fill:rgb(108,170,228);" />
<text x="301.9" y="2411.1" font-size="36.4px" font-family="CMUBright-Roman" style="text-anchor:end;fill:rgb(0,0,0);" transform="rotate(-13.2,301.9,2411.1)" >Economics</text>
<path d="M412.241,2418.550 A1642.000,1642.000 40.000 0,1 391.911,2331.987 L354.696,2339.670 A1680.000,1680.000 0.000 0,0 375.496,2428.236 Z" style="stroke-width:2.0;stroke:rgb(255,255,255);stroke-linecap:round;fill:none;" />
<path d="M385.052,2296.827 A1642.000,1642.000 40.000 0,1 366.030,2162.194 L328.216,2165.947 A1680.000,1680.000 0.000 0,0 347.678,2303.697 Z" style="stroke-width:2.0;stroke:rgb(255,255,255);stroke-linecap:round;fill:rgb(200,108,30);" />
<text x="271.8" y="2256.8" font-size="36.4px" font-family="CMUBright-Roman" style="text-anchor:end;fill:rgb(0,0,0);" transform="rotate(-8.0,271.8,2256.8)" >Social-Sciences</text>
<path d="M385.052,2296.827 A1642.000,1642.000 40.000 0,1 366.030,2162.194 L328.216,2165.947 A1680.000,1680.000 0.000 0,0 347.678,2303.697 Z" style="stroke-width:2.0;stroke:rgb(255,255,255);stroke-linecap:round;fill:none;" />
<path d="M362.881,2126.510 A1642.000,1642.000 40.000 0,1 359.682,2074.299 L321.721,2076.018 A1680.000,1680.000 0.000 0,0 324.994,2129.438 Z" style="stroke-width:2.0;stroke:rgb(255,255,255);stroke-linecap:round;fill:rgb(220,140,52);" />
<text x="256.9" y="2119.3" font-size="36.4px" font-family="CMUBright-Roman" style="text-anchor:end;fill:rgb(0,0,0);" transform="rotate(-3.5,256.9,2119.3)" >Humanities-Liberal-Arts</text>
<path d="M362.881,2126.510 A1642.000,1642.000 40.000 0,1 359.682,2074.299 L321.721,2076.018 A1680.000,1680.000 0.000 0,0 324.994,2129.438 Z" style="stroke-width:2.0;stroke:rgb(255,255,255);stroke-linecap:round;fill:none;" />
<path d="M358.451,2038.498 A1642.000,1642.000 40.000 0,1 358.158,2022.807 L320.162,2023.335 A1680.000,1680.000 0.000 0,0 320.462,2039.389 Z" style="stroke-width:2.0;stroke:rgb(255,255,255);stroke-linecap:round;fill:rgb(235,168,78);" />
<text x="253.4" y="2045.1" font-size="36.4px" font-family="CMUBright-Roman" style="text-anchor:end;fill:rgb(0,0,0);" transform="rotate(-1.1,253.4,2045.1)" >International-Studies</text>
<path d="M358.451,2038.498 A1642.000,1642.000 40.000 0,1 358.158,2022.807 L320.162,2023.335 A1680.000,1680.000 0.000 0,0 320.462,2039.389 Z" style="stroke-width:2.0;stroke:rgb(255,255,255);stroke-linecap:round;fill:none;" />
<path d="M358.052,1986.985 A1642.000,1642.000 40.000 0,1 367.336,1825.152 L329.552,1821.105 A1680.000,1680.000 0.000 0,0 320.053,1986.684 Z" style="stroke-width:2.0;stroke:rgb(255,255,255);stroke-linecap:round;fill:rgb(175,35,42);" />
<text x="255.0" y="1912.4" font-size="36.4px" font-family="CMUBright-Roman" style="text-anchor:end;fill:rgb(0,0,0);" transform="rotate(3.3,255.0,1912.4)" >Teacher-Education</text>
<path d="M358.052,1986.985 A1642.000,1642.000 40.000 0,1 367.336,1825.152 L329.552,1821.105 A1680.000,1680.000 0.000 0,0 320.053,1986.684 Z" style="stroke-width:2.0;stroke:rgb(255,255,255);stroke-linecap:round;fill:none;" />
<path d="M371.539,1789.577 A1642.000,1642.000 40.000 0,1 376.636,1753.316 L339.067,1747.607 A1680.000,1680.000 0.000 0,0 333.852,1784.707 Z" style="stroke-width:2.0;stroke:rgb(255,255,255);stroke-linecap:round;fill:rgb(195,58,55);" />
<text x="268.1" y="1769.2" font-size="36.4px" font-family="CMUBright-Roman" style="text-anchor:end;fill:rgb(0,0,0);" transform="rotate(8.0,268.1,1769.2)" >Social-Work</text>
<path d="M371.539,1789.577 A1642.000,1642.000 40.000 0,1 376.636,1753.316 L339.067,1747.607 A1680.000,1680.000 0.000 0,0 333.852,1784.707 Z" style="stroke-width:2.0;stroke:rgb(255,255,255);stroke-linecap:round;fill:none;" />
<path d="M382.404,1717.961 A1642.000,1642.000 40.000 0,1 388.090,1687.094 L350.786,1679.853 A1680.000,1680.000 0.000 0,0 344.968,1711.434 Z" style="stroke-width:2.0;stroke:rgb(255,255,255);stroke-linecap:round;fill:rgb(215,82,72);" />
<text x="279.0" y="1698.7" font-size="36.4px" font-family="CMUBright-Roman" style="text-anchor:end;fill:rgb(0,0,0);" transform="rotate(10.4,279.0,1698.7)" >Special-Education</text>
<path d="M382.404,1717.961 A1642.000,1642.000 40.000 0,1 388.090,1687.094 L350.786,1679.853 A1680.000,1680.000 0.000 0,0 344.968,1711.434 Z" style="stroke-width:2.0;stroke:rgb(255,255,255);stroke-linecap:round;fill:none;" />
<path d="M395.300,1652.005 A1642.000,1642.000 40.000 0,1 396.416,1646.895 L359.305,1638.723 A1680.000,1680.000 0.000 0,0 358.163,1643.952 Z" style="stroke-width:2.0;stroke:rgb(255,255,255);stroke-linecap:round;fill:rgb(230,112,95);" />
<text x="289.8" y="1642.1" font-size="36.4px" font-family="CMUBright-Roman" style="text-anchor:end;fill:rgb(0,0,0);" transform="rotate(12.3,289.8,1642.1)" >Educational-Leadership</text>
<path d="M395.300,1652.005 A1642.000,1642.000 40.000 0,1 396.416,1646.895 L359.305,1638.723 A1680.000,1680.000 0.000 0,0 358.163,1643.952 Z" style="stroke-width:2.0;stroke:rgb(255,255,255);stroke-linecap:round;fill:none;" />
<path d="M404.501,1611.997 A1642.000,1642.000 40.000 0,1 423.388,1541.244 L386.901,1530.627 A1680.000,1680.000 0.000 0,0 367.577,1603.017 Z" style="stroke-width:2.0;stroke:rgb(255,255,255);stroke-linecap:round;fill:rgb(0,130,142);" />
<text x="308.7" y="1561.5" font-size="36.4px" font-family="CMUBright-Roman" style="text-anchor:end;fill:rgb(0,0,0);" transform="rotate(14.9,308.7,1561.5)" >Communication-Studies</text>
<path d="M404.501,1611.997 A1642.000,1642.000 40.000 0,1 423.388,1541.244 L386.901,1530.627 A1680.000,1680.000 0.000 0,0 367.577,1603.017 Z" style="stroke-width:2.0;stroke:rgb(255,255,255);stroke-linecap:round;fill:none;" />
<path d="M433.770,1506.960 A1642.000,1642.000 40.000 0,1 448.549,1462.261 L412.644,1449.816 A1680.000,1680.000 0.000 0,0 397.524,1495.549 Z" style="stroke-width:2.0;stroke:rgb(255,255,255);stroke-linecap:round;fill:rgb(0,165,172);" />
<text x="337.2" y="1463.4" font-size="36.4px" font-family="CMUBright-Roman" style="text-anchor:end;fill:rgb(0,0,0);" transform="rotate(18.3,337.2,1463.4)" >Journalism-Media</text>
<path d="M433.770,1506.960 A1642.000,1642.000 40.000 0,1 448.549,1462.261 L412.644,1449.816 A1680.000,1680.000 0.000 0,0 397.524,1495.549 Z" style="stroke-width:2.0;stroke:rgb(255,255,255);stroke-linecap:round;fill:none;" />
<path d="M460.649,1428.544 A1642.000,1642.000 40.000 0,1 466.181,1413.858 L430.684,1400.293 A1680.000,1680.000 0.000 0,0 425.024,1415.319 Z" style="stroke-width:2.0;stroke:rgb(255,255,255);stroke-linecap:round;fill:rgb(38,195,195);" />
<text x="359.4" y="1399.1" font-size="36.4px" font-family="CMUBright-Roman" style="text-anchor:end;fill:rgb(0,0,0);" transform="rotate(20.6,359.4,1399.1)" >Creative-Writing</text>
<path d="M460.649,1428.544 A1642.000,1642.000 40.000 0,1 466.181,1413.858 L430.684,1400.293 A1680.000,1680.000 0.000 0,0 425.024,1415.319 Z" style="stroke-width:2.0;stroke:rgb(255,255,255);stroke-linecap:round;fill:none;" />
<path d="M479.332,1380.537 A1642.000,1642.000 40.000 0,1 510.660,1308.603 L476.193,1292.602 A1680.000,1680.000 0.000 0,0 444.140,1366.201 Z" style="stroke-width:2.0;stroke:rgb(255,255,255);stroke-linecap:round;fill:rgb(180,45,112);" />
<text x="391.8" y="1317.1" font-size="36.4px" font-family="CMUBright-Roman" style="text-anchor:end;fill:rgb(0,0,0);" transform="rotate(23.5,391.8,1317.1)" >Arts-Theology</text>
<path d="M479.332,1380.537 A1642.000,1642.000 40.000 0,1 510.660,1308.603 L476.193,1292.602 A1680.000,1680.000 0.000 0,0 444.140,1366.201 Z" style="stroke-width:2.0;stroke:rgb(255,255,255);stroke-linecap:round;fill:none;" />
<path d="M526.097,1276.278 A1642.000,1642.000 40.000 0,1 530.738,1266.901 L496.736,1249.936 A1680.000,1680.000 0.000 0,0 491.987,1259.529 Z" style="stroke-width:2.0;stroke:rgb(255,255,255);stroke-linecap:round;fill:rgb(205,75,142);" />
<text x="427.1" y="1239.3" font-size="36.4px" font-family="CMUBright-Roman" style="text-anchor:end;fill:rgb(0,0,0);" transform="rotate(26.3,427.1,1239.3)" >English-Writing</text>
<path d="M526.097,1276.278 A1642.000,1642.000 40.000 0,1 530.738,1266.901 L496.736,1249.936 A1680.000,1680.000 0.000 0,0 491.987,1259.529 Z" style="stroke-width:2.0;stroke:rgb(255,255,255);stroke-linecap:round;fill:none;" />
<path d="M547.080,1235.024 A1642.000,1642.000 40.000 0,1 549.525,1230.399 L515.957,1212.589 A1680.000,1680.000 0.000 0,0 513.456,1217.321 Z" style="stroke-width:2.0;stroke:rgb(255,255,255);stroke-linecap:round;fill:rgb(225,110,168);" />
<text x="447.9" y="1197.7" font-size="36.4px" font-family="CMUBright-Roman" style="text-anchor:end;fill:rgb(0,0,0);" transform="rotate(27.9,447.9,1197.7)" >Languages</text>
<path d="M547.080,1235.024 A1642.000,1642.000 40.000 0,1 549.525,1230.399 L515.957,1212.589 A1680.000,1680.000 0.000 0,0 513.456,1217.321 Z" style="stroke-width:2.0;stroke:rgb(255,255,255);stroke-linecap:round;fill:none;" />
<path d="M566.659,1198.940 A1642.000,1642.000 40.000 0,1 748.337,937.219 L719.370,912.624 A1680.000,1680.000 0.000 0,0 533.488,1180.402 Z" style="stroke-width:2.0;stroke:rgb(255,255,255);stroke-linecap:round;fill:rgb(88,40,138);" />
<text x="555.7" y="1016.9" font-size="36.4px" font-family="CMUBright-Roman" style="text-anchor:end;fill:rgb(0,0,0);" transform="rotate(34.8,555.7,1016.9)" >Biological-Sciences</text>
<path d="M566.659,1198.940 A1642.000,1642.000 40.000 0,1 748.337,937.219 L719.370,912.624 A1680.000,1680.000 0.000 0,0 533.488,1180.402 Z" style="stroke-width:2.0;stroke:rgb(255,255,255);stroke-linecap:round;fill:none;" />
<path d="M771.819,910.167 A1642.000,1642.000 40.000 0,1 821.633,856.490 L794.362,830.027 A1680.000,1680.000 0.000 0,0 743.396,884.946 Z" style="stroke-width:2.0;stroke:rgb(255,255,255);stroke-linecap:round;fill:rgb(115,65,165);" />
<text x="710.8" y="820.7" font-size="36.4px" font-family="CMUBright-Roman" style="text-anchor:end;fill:rgb(0,0,0);" transform="rotate(42.9,710.8,820.7)" >Health-Wellness</text>
<path d="M771.819,910.167 A1642.000,1642.000 40.000 0,1 821.633,856.490 L794.362,830.027 A1680.000,1680.000 0.000 0,0 743.396,884.946 Z" style="stroke-width:2.0;stroke:rgb(255,255,255);stroke-linecap:round;fill:none;" />
<path d="M846.858,831.057 A1642.000,1642.000 40.000 0,1 873.212,805.633 L847.135,777.993 A1680.000,1680.000 0.000 0,0 820.172,804.004 Z" style="stroke-width:2.0;stroke:rgb(255,255,255);stroke-linecap:round;fill:rgb(140,92,188);" />
<text x="775.8" y="753.4" font-size="36.4px" font-family="CMUBright-Roman" style="text-anchor:end;fill:rgb(0,0,0);" transform="rotate(46.0,775.8,753.4)" >Physical-Sciences</text>
<path d="M846.858,831.057 A1642.000,1642.000 40.000 0,1 873.212,805.633 L847.135,777.993 A1680.000,1680.000 0.000 0,0 820.172,804.004 Z" style="stroke-width:2.0;stroke:rgb(255,255,255);stroke-linecap:round;fill:none;" />
<path d="M899.535,781.337 A1642.000,1642.000 40.000 0,1 903.423,777.837 L878.045,749.553 A1680.000,1680.000 0.000 0,0 874.067,753.134 Z" style="stroke-width:2.0;stroke:rgb(255,255,255);stroke-linecap:round;fill:rgb(165,120,208);" />
<text x="821.8" y="709.8" font-size="36.4px" font-family="CMUBright-Roman" style="text-anchor:end;fill:rgb(0,0,0);" transform="rotate(48.0,821.8,709.8)" >Environmental-Sciences</text>
<path d="M899.535,781.337 A1642.000,1642.000 40.000 0,1 903.423,777.837 L878.045,749.553 A1680.000,1680.000 0.000 0,0 874.067,753.134 Z" style="stroke-width:2.0;stroke:rgb(255,255,255);stroke-linecap:round;fill:none;" />
<path d="M930.345,754.206 A1642.000,1642.000 40.000 0,1 1638.399,398.311 L1630.030,361.244 A1680.000,1680.000 0.000 0,0 905.590,725.375 Z" style="stroke-width:2.0;stroke:rgb(255,255,255);stroke-linecap:round;fill:rgb(22,118,50);" />
<text x="1201.1" y="446.2" font-size="36.4px" font-family="CMUBright-Roman" style="text-anchor:end;fill:rgb(0,0,0);" transform="rotate(63.3,1201.1,446.2)" >Engineering-Disciplines</text>
<path d="M930.345,754.206 A1642.000,1642.000 40.000 0,1 1638.399,398.311 L1630.030,361.244 A1680.000,1680.000 0.000 0,0 905.590,725.375 Z" style="stroke-width:2.0;stroke:rgb(255,255,255);stroke-linecap:round;fill:none;" />
<path d="M1673.425,390.804 A1642.000,1642.000 40.000 0,1 1964.180,358.391 L1963.351,320.400 A1680.000,1680.000 0.000 0,0 1665.867,353.563 Z" style="stroke-width:2.0;stroke:rgb(255,255,255);stroke-linecap:round;fill:rgb(48,158,75);" />
<text x="1791.0" y="265.3" font-size="36.4px" font-family="CMUBright-Roman" style="text-anchor:end;fill:rgb(0,0,0);" transform="rotate(83.6,1791.0,265.3)" >Computer-Science-IT</text>
<path d="M1673.425,390.804 A1642.000,1642.000 40.000 0,1 1964.180,358.391 L1963.351,320.400 A1680.000,1680.000 0.000 0,0 1665.867,353.563 Z" style="stroke-width:2.0;stroke:rgb(255,255,255);stroke-linecap:round;fill:none;" />
</g>
<g id="track_0">
<path d="M 3225.938,3067.514 A 1625.580,1625.580 0.00 0,1 3222.5,3071.4 L 3222.5,3071.4 3168.0,3022.6 3113.4,2971.6 3058.5,2918.8 3003.3,2864.2 2947.8,2808.1 2892.0,2750.6 2835.7,2691.9 2778.9,2632.2 2721.6,2571.5 2663.9,2510.1 2605.6,2448.0 2546.8,2385.4 2487.4,2322.4 2427.6,2259.2 2367.2,2195.8 2306.4,2132.3 2245.1,2068.8 2183.4,2005.4 2121.4,1942.2 2059.0,1879.2 1996.5,1816.5 1933.7,1754.2 1870.8,1692.3 1808.0,1630.8 1745.2,1569.8 1682.5,1509.3 1620.2,1449.4 1558.2,1389.9 1496.7,1331.0 1435.9,1272.6 1375.8,1214.7 1316.6,1157.4 1258.5,1100.5 1201.5,1044.0 1146.0,987.9 1092.0,932.2 1039.7,876.8 989.3,821.7 941.0,766.7  A 1625.580,1625.580 0.00 0,1 945.0,763.3 L 945.0,763.3 993.0,818.4 1043.2,873.7 1095.3,929.2 1149.1,985.0 1204.5,1041.2 1261.3,1097.7 1319.3,1154.7 1378.3,1212.2 1438.3,1270.2 1499.0,1328.7 1560.4,1387.7 1622.3,1447.2 1684.6,1507.2 1747.1,1567.8 1809.9,1628.9 1872.7,1690.4 1935.6,1752.3 1998.3,1814.7 2060.9,1877.4 2123.3,1940.3 2185.3,2003.6 2247.0,2066.9 2308.3,2130.4 2369.2,2193.9 2429.6,2257.2 2489.5,2320.4 2549.0,2383.3 2607.9,2445.8 2666.2,2507.8 2724.1,2569.1 2781.4,2629.7 2838.3,2689.3 2894.7,2747.8 2950.7,2805.2 3006.3,2861.1 3061.6,2915.5 3116.6,2968.1 3171.3,3018.9 3225.9,3067.5  Z" style="stroke-width: 0.0;  fill: rgb(22,118,50);" />
<path d="M 3222.531,3071.414 A 1625.580,1625.580 0.00 0,1 3208.8,3086.9 L 3208.8,3086.9 3152.9,3037.6 3095.1,2988.3 3035.7,2938.8 2974.8,2889.2 2912.5,2839.3 2849.1,2789.1 2784.8,2738.4 2719.6,2687.2 2653.7,2635.5 2587.3,2583.2 2520.5,2530.2 2453.5,2476.6 2386.2,2422.4 2318.9,2367.5 2251.7,2311.9 2184.6,2255.6 2117.7,2198.6 2051.2,2141.1 1985.0,2082.9 1919.3,2024.2 1854.1,1965.0 1789.4,1905.3 1725.3,1845.3 1661.8,1785.0 1599.0,1724.4 1536.9,1663.7 1475.4,1603.0 1414.6,1542.4 1354.5,1481.9 1295.1,1421.9 1236.3,1362.2 1178.1,1303.2 1120.5,1245.0 1063.4,1187.6 1006.8,1131.4 950.7,1076.4 894.9,1022.9 839.4,971.1 784.1,921.1  A 1625.580,1625.580 0.00 0,1 797.9,905.7 L 797.9,905.7 853.5,955.2 910.8,1004.8 969.9,1054.5 1030.6,1104.4 1092.5,1154.5 1155.6,1205.0 1219.7,1256.0 1284.7,1307.4 1350.3,1359.3 1416.5,1411.9 1483.2,1465.0 1550.1,1518.8 1617.3,1573.2 1684.5,1628.3 1751.6,1684.0 1818.7,1740.4 1885.5,1797.5 1952.1,1855.1 2018.3,1913.3 2084.1,1972.1 2149.4,2031.3 2214.1,2091.0 2278.3,2151.0 2341.9,2211.3 2404.8,2271.7 2467.1,2332.3 2528.7,2392.9 2589.7,2453.4 2650.0,2513.6 2709.6,2573.5 2768.6,2632.9 2827.0,2691.7 2884.9,2749.7 2942.1,2806.7 2998.9,2862.6 3055.3,2917.2 3111.3,2970.4 3167.0,3021.8 3222.5,3071.4  Z" style="stroke-width: 0.0;  fill: rgb(115,65,165);" />
<path d="M 3208.779,3086.906 A 1625.580,1625.580 0.00 0,1 3114.7,3183.2 L 3114.7,3183.2 3065.0,3131.8 3012.9,3080.4 2958.6,3029.0 2902.4,2977.5 2844.3,2926.0 2784.4,2874.2 2723.1,2822.3 2660.4,2770.2 2596.4,2717.8 2531.3,2665.1 2465.2,2612.2 2398.3,2559.0 2330.6,2505.6 2262.3,2451.9 2193.5,2398.0 2124.3,2343.9 2054.8,2289.6 1985.1,2235.2 1915.3,2180.7 1845.4,2126.2 1775.5,2071.7 1705.8,2017.3 1636.2,1963.1 1566.9,1909.2 1497.8,1855.6 1429.1,1802.4 1360.8,1749.8 1292.9,1697.9 1225.5,1646.7 1158.6,1596.3 1092.2,1547.0 1026.4,1498.9 961.1,1452.0 896.3,1406.6 832.2,1362.8 768.5,1320.8 705.5,1280.7 643.0,1242.7 581.0,1207.0  A 1625.580,1625.580 0.00 0,1 651.5,1092.3 L 651.5,1092.3 711.7,1133.8 772.4,1177.4 833.6,1222.9 895.2,1270.0 957.4,1318.6 1020.2,1368.6 1083.5,1419.6 1147.4,1471.7 1211.9,1524.6 1277.0,1578.2 1342.7,1632.3 1409.0,1686.9 1475.9,1741.8 1543.4,1796.9 1611.3,1852.1 1679.7,1907.3 1748.6,1962.5 1817.9,2017.5 1887.4,2072.3 1957.3,2126.8 2027.4,2180.9 2097.6,2234.7 2167.9,2288.1 2238.1,2341.0 2308.2,2393.4 2378.0,2445.4 2447.6,2496.9 2516.7,2547.9 2585.2,2598.5 2653.0,2648.6 2720.0,2698.3 2786.1,2747.6 2851.0,2796.6 2914.7,2845.3 2977.0,2893.8 3037.8,2942.1 3096.7,2990.3 3153.8,3038.6 3208.8,3086.9  Z" style="stroke-width: 0.0;  fill: rgb(88,40,138);" />
<path d="M 3114.707,3183.190 A 1625.580,1625.580 0.00 0,1 3107.1,3190.3 L 3107.1,3190.3 3058.6,3139.5 3007.5,3089.0 2954.0,3038.5 2898.4,2988.1 2840.7,2937.7 2781.1,2887.2 2719.8,2836.8 2656.8,2786.3 2592.4,2735.8 2526.7,2685.2 2459.8,2634.5 2391.8,2583.8 2322.8,2533.1 2253.0,2482.4 2182.5,2431.6 2111.3,2380.9 2039.7,2330.3 1967.6,2279.8 1895.2,2229.4 1822.6,2179.3 1749.9,2129.5 1677.1,2080.0 1604.4,2030.9 1531.7,1982.4 1459.3,1934.4 1387.1,1887.2 1315.2,1840.7 1243.7,1795.0 1172.6,1750.4 1102.0,1706.9 1031.9,1664.6 962.4,1623.6 893.5,1584.2 825.2,1546.3 757.6,1510.3 690.8,1476.1 624.6,1444.0 559.2,1414.2 494.5,1386.7  A 1625.580,1625.580 0.00 0,1 498.5,1377.2 L 498.5,1377.2 563.1,1405.0 628.4,1435.3 694.5,1467.8 761.3,1502.4 828.8,1538.9 897.0,1577.1 965.8,1616.9 1035.2,1658.2 1105.2,1700.8 1175.8,1744.6 1246.8,1789.5 1318.3,1835.3 1390.1,1882.0 1462.3,1929.5 1534.7,1977.6 1607.3,2026.3 1680.1,2075.5 1752.9,2125.0 1825.6,2174.9 1898.3,2225.1 1970.7,2275.4 2042.9,2325.9 2114.6,2376.5 2185.9,2427.2 2256.5,2477.8 2326.5,2528.5 2395.7,2579.1 2463.9,2629.7 2531.0,2680.2 2597.0,2730.6 2661.6,2780.9 2724.9,2831.2 2786.5,2881.5 2846.4,2931.7 2904.4,2981.8 2960.4,3032.0 3014.2,3082.3 3065.7,3132.7 3114.7,3183.2  Z" style="stroke-width: 0.0;  fill: rgb(180,45,112);" />
<path d="M 3107.145,3190.269 A 1625.580,1625.580 0.00 0,1 3099.5,3197.3 L 3099.5,3197.3 3051.8,3147.0 3001.5,3096.8 2948.8,3046.9 2893.7,2997.1 2836.5,2947.4 2777.2,2897.8 2716.1,2848.3 2653.2,2798.9 2588.8,2749.5 2522.9,2700.3 2455.7,2651.1 2387.2,2602.1 2317.7,2553.2 2247.2,2504.4 2175.8,2455.8 2103.7,2407.5 2031.0,2359.3 1957.7,2311.5 1884.0,2264.1 1810.0,2217.0 1735.8,2170.4 1661.4,2124.3 1587.0,2078.9 1512.6,2034.1 1438.4,1990.1 1364.3,1946.9 1290.5,1904.6 1217.1,1863.4 1144.1,1823.4 1071.5,1784.6 999.5,1747.1 928.1,1711.2 857.4,1676.8 787.3,1644.2 718.1,1613.4 649.6,1584.7 582.0,1558.0 515.2,1533.7 449.4,1511.9  A 1625.580,1625.580 0.00 0,1 452.6,1502.0 L 452.6,1502.0 518.4,1524.3 585.1,1549.1 652.7,1576.1 721.1,1605.3 790.3,1636.4 860.3,1669.4 931.0,1704.2 1002.3,1740.5 1074.3,1778.2 1146.8,1817.3 1219.8,1857.7 1293.2,1899.1 1367.0,1941.6 1441.0,1984.9 1515.3,2029.1 1589.7,2074.1 1664.1,2119.7 1738.5,2165.8 1812.8,2212.5 1886.9,2259.6 1960.7,2307.1 2034.0,2354.9 2106.9,2403.0 2179.1,2451.3 2250.7,2499.8 2321.3,2548.5 2391.1,2597.3 2459.7,2646.2 2527.2,2695.2 2593.4,2744.3 2658.1,2793.5 2721.2,2842.7 2782.6,2892.0 2842.2,2941.4 2899.8,2990.9 2955.2,3040.5 3008.4,3090.2 3059.0,3140.1 3107.1,3190.3  Z" style="stroke-width: 0.0;  fill: rgb(0,165,172);" />
<path d="M 3099.539,3197.299 A 1625.580,1625.580 0.00 0,1 3095.7,3200.8 L 3095.7,3200.8 3048.6,3150.8 2998.8,3101.2 2946.5,3051.7 2891.9,3002.5 2834.9,2953.5 2775.9,2904.7 2714.9,2856.1 2652.1,2807.6 2587.6,2759.4 2521.6,2711.4 2454.1,2663.6 2385.3,2616.0 2315.4,2568.7 2244.4,2521.7 2172.4,2475.1 2099.7,2428.7 2026.2,2382.8 1952.1,2337.3 1877.5,2292.3 1802.5,2247.9 1727.2,2204.1 1651.7,2161.0 1576.1,2118.6 1500.5,2077.0 1425.0,2036.3 1349.7,1996.6 1274.6,1958.0 1199.8,1920.5 1125.5,1884.3 1051.7,1849.4 978.4,1816.1 905.7,1784.2 833.8,1754.1 762.6,1725.8 692.3,1699.4 622.9,1675.1 554.4,1653.0 486.9,1633.2 420.5,1615.9  A 1625.580,1625.580 0.00 0,1 421.7,1610.8 L 421.7,1610.8 488.1,1628.4 555.6,1648.4 624.1,1670.7 693.5,1695.2 763.9,1721.8 835.0,1750.3 906.9,1780.6 979.6,1812.6 1052.8,1846.2 1126.7,1881.2 1201.0,1917.5 1275.8,1955.1 1350.9,1993.9 1426.2,2033.7 1501.7,2074.5 1577.3,2116.1 1653.0,2158.6 1728.5,2201.8 1803.8,2245.6 1878.8,2290.1 1953.5,2335.1 2027.6,2380.6 2101.2,2426.5 2174.1,2472.8 2246.1,2519.4 2317.2,2566.4 2387.3,2613.6 2456.2,2661.1 2523.7,2708.9 2589.9,2756.8 2654.5,2804.9 2717.5,2853.3 2778.6,2901.8 2837.8,2950.5 2894.9,2999.4 2949.8,3048.5 3002.3,3097.9 3052.2,3147.5 3099.5,3197.3  Z" style="stroke-width: 0.0;  fill: rgb(0,130,142);" />
<path d="M 3095.719,3200.796 A 1625.580,1625.580 0.00 0,1 3091.9,3204.3 L 3091.9,3204.3 3045.7,3155.1 2996.7,3106.2 2945.1,3057.7 2891.0,3009.6 2834.5,2961.8 2775.8,2914.4 2715.1,2867.3 2652.4,2820.7 2587.9,2774.4 2521.8,2728.6 2454.1,2683.2 2384.9,2638.3 2314.5,2593.8 2242.8,2549.9 2170.1,2506.6 2096.5,2463.9 2022.0,2421.8 1946.8,2380.4 1871.1,2339.8 1794.8,2299.9 1718.1,2260.9 1641.2,2222.9 1564.2,2185.8 1487.0,2149.7 1409.9,2114.8 1333.0,2081.1 1256.2,2048.7 1179.9,2017.6 1103.9,1987.9 1028.5,1959.8 953.7,1933.3 879.6,1908.5 806.3,1885.5 733.9,1864.4 662.4,1845.4 592.0,1828.5 522.7,1813.8 454.6,1801.5 387.8,1791.7  A 1625.580,1625.580 0.00 0,1 388.5,1786.5 L 388.5,1786.5 455.3,1796.6 523.4,1809.1 592.8,1824.0 663.2,1841.1 734.7,1860.3 807.1,1881.6 880.4,1904.8 954.5,1929.7 1029.4,1956.4 1104.8,1984.7 1180.8,2014.5 1257.2,2045.7 1333.9,2078.3 1410.9,2112.1 1488.0,2147.1 1565.2,2183.3 1642.3,2220.4 1719.3,2258.5 1796.0,2297.6 1872.3,2337.4 1948.1,2378.1 2023.4,2419.5 2098.0,2461.6 2171.7,2504.3 2244.5,2547.6 2316.2,2591.5 2386.8,2635.8 2456.1,2680.7 2523.9,2726.0 2590.2,2771.8 2654.9,2818.0 2717.7,2864.6 2778.6,2911.5 2837.4,2958.8 2894.0,3006.5 2948.3,3054.5 3000.1,3102.9 3049.3,3151.7 3095.7,3200.8  Z" style="stroke-width: 0.0;  fill: rgb(195,58,55);" />
<path d="M 3091.888,3204.281 A 1625.580,1625.580 0.00 0,1 3084.2,3211.2 L 3084.2,3211.2 3039.1,3162.7 2991.1,3114.6 2940.5,3067.0 2887.2,3019.9 2831.6,2973.4 2773.6,2927.4 2713.5,2882.0 2651.3,2837.2 2587.2,2793.0 2521.3,2749.5 2453.7,2706.6 2384.6,2664.5 2314.2,2623.2 2242.4,2582.7 2169.4,2543.0 2095.5,2504.2 2020.6,2466.4 1944.9,2429.5 1868.5,2393.7 1791.5,2358.9 1714.2,2325.3 1636.5,2292.9 1558.6,2261.7 1480.5,2231.8 1402.6,2203.3 1324.7,2176.2 1247.1,2150.7 1169.8,2126.7 1093.1,2104.3 1016.8,2083.6 941.3,2064.7 866.6,2047.7 792.7,2032.6 719.9,2019.5 648.2,2008.5 577.7,1999.7 508.5,1993.1 440.7,1988.9 374.5,1987.1  A 1625.580,1625.580 0.00 0,1 374.6,1976.8 L 374.6,1976.8 441.0,1978.9 508.8,1983.6 578.1,1990.5 648.7,1999.8 720.5,2011.2 793.4,2024.6 867.3,2040.1 942.2,2057.5 1017.8,2076.7 1094.1,2097.7 1170.9,2120.4 1248.3,2144.7 1326.0,2170.5 1403.9,2197.8 1482.1,2226.5 1560.2,2256.5 1638.2,2287.9 1716.1,2320.4 1793.6,2354.1 1870.7,2389.0 1947.3,2424.9 2023.1,2461.8 2098.2,2499.6 2172.4,2538.4 2245.6,2578.0 2317.6,2618.4 2388.4,2659.7 2457.7,2701.7 2525.5,2744.4 2591.7,2787.7 2656.1,2831.8 2718.6,2876.4 2779.1,2921.6 2837.4,2967.5 2893.4,3013.8 2947.0,3060.7 2998.0,3108.1 3046.4,3155.9 3091.9,3204.3  Z" style="stroke-width: 0.0;  fill: rgb(175,35,42);" />
<path d="M 3084.192,3211.213 A 1625.580,1625.580 0.00 0,1 3068.7,3224.9 L 3068.7,3224.9 3024.8,3176.6 2978.0,3128.7 2928.5,3081.4 2876.3,3034.8 2821.7,2988.7 2764.7,2943.4 2705.5,2898.8 2644.2,2854.9 2580.9,2811.8 2515.8,2769.6 2449.0,2728.2 2380.5,2687.8 2310.6,2648.4 2239.3,2609.9 2166.8,2572.5 2093.2,2536.3 2018.7,2501.1 1943.2,2467.2 1867.1,2434.5 1790.4,2403.2 1713.1,2373.1 1635.6,2344.5 1557.8,2317.3 1479.8,2291.6 1401.9,2267.5 1324.1,2245.0 1246.6,2224.2 1169.4,2205.0 1092.8,2187.7 1016.7,2172.2 941.4,2158.6 866.9,2146.9 793.4,2137.3 720.9,2129.7 649.7,2124.3 579.8,2121.1 511.4,2120.1 444.5,2121.5 379.3,2125.2  A 1625.580,1625.580 0.00 0,1 377.8,2104.6 L 377.8,2104.6 443.3,2101.6 510.5,2101.1 579.2,2102.8 649.3,2106.9 720.8,2113.1 793.4,2121.4 867.2,2131.7 941.9,2144.1 1017.5,2158.4 1093.8,2174.5 1170.7,2192.4 1248.1,2212.1 1325.9,2233.4 1404.0,2256.4 1482.2,2280.9 1560.4,2306.9 1638.6,2334.4 1716.5,2363.3 1794.1,2393.6 1871.2,2425.1 1947.7,2457.9 2023.6,2491.9 2098.6,2527.0 2172.7,2563.2 2245.6,2600.5 2317.4,2638.8 2387.9,2678.1 2456.9,2718.3 2524.4,2759.4 2590.1,2801.4 2654.0,2844.2 2716.0,2887.7 2775.9,2932.0 2833.5,2976.9 2888.9,3022.6 2941.7,3068.9 2992.0,3115.8 3039.5,3163.2 3084.2,3211.2  Z" style="stroke-width: 0.0;  fill: rgb(220,140,52);" />
<path d="M 3068.670,3224.931 A 1625.580,1625.580 0.00 0,1 3045.1,3245.1 L 3045.1,3245.1 3002.8,3196.8 2957.7,3149.2 2909.8,3102.1 2859.2,3055.8 2806.1,3010.3 2750.7,2965.6 2692.9,2921.8 2633.0,2878.9 2571.1,2837.1 2507.3,2796.3 2441.7,2756.7 2374.4,2718.2 2305.7,2680.9 2235.5,2644.9 2164.0,2610.2 2091.4,2576.9 2017.8,2545.1 1943.3,2514.7 1868.1,2485.8 1792.2,2458.5 1715.8,2432.8 1639.0,2408.7 1561.9,2386.4 1484.8,2365.8 1407.6,2347.0 1330.6,2330.1 1253.8,2315.0 1177.5,2301.8 1101.7,2290.6 1026.5,2281.3 952.1,2274.1 878.6,2269.0 806.2,2266.0 735.0,2265.1 665.1,2266.4 596.6,2269.8 529.7,2275.6 464.5,2283.6 401.2,2293.9  A 1625.580,1625.580 0.00 0,1 395.9,2263.2 L 395.9,2263.2 459.7,2254.1 525.4,2247.2 592.8,2242.7 661.8,2240.3 732.2,2240.2 803.9,2242.2 876.8,2246.3 950.7,2252.4 1025.6,2260.6 1101.3,2270.8 1177.6,2282.9 1254.5,2296.9 1331.7,2312.7 1409.3,2330.3 1487.0,2349.8 1564.8,2370.9 1642.4,2393.7 1719.9,2418.1 1796.9,2444.1 1873.5,2471.7 1949.5,2500.8 2024.8,2531.2 2099.1,2563.1 2172.5,2596.4 2244.8,2631.0 2315.8,2666.8 2385.5,2703.8 2453.7,2742.0 2520.2,2781.3 2585.0,2821.7 2647.9,2863.1 2708.8,2905.4 2767.6,2948.7 2824.2,2992.9 2878.3,3037.8 2930.0,3083.6 2979.0,3130.1 3025.3,3177.2 3068.7,3224.9  Z" style="stroke-width: 0.0;  fill: rgb(200,108,30);" />
<path d="M 3045.061,3245.133 A 1625.580,1625.580 0.00 0,1 3037.1,3251.8 L 3037.1,3251.8 2996.3,3204.6 2952.5,3158.1 2906.1,3112.5 2857.1,3067.9 2805.5,3024.3 2751.6,2981.8 2695.4,2940.6 2637.1,2900.6 2576.8,2862.0 2514.6,2824.9 2450.7,2789.3 2385.1,2755.2 2318.0,2722.8 2249.5,2692.1 2179.8,2663.1 2109.0,2636.0 2037.1,2610.7 1964.4,2587.4 1891.0,2566.0 1817.0,2546.5 1742.5,2529.1 1667.7,2513.8 1592.8,2500.5 1517.7,2489.4 1442.8,2480.4 1368.1,2473.5 1293.7,2468.8 1219.8,2466.2 1146.6,2465.9 1074.2,2467.7 1002.7,2471.7 932.3,2477.8 863.1,2486.2 795.3,2496.7 729.0,2509.4 664.3,2524.2 601.5,2541.1 540.6,2560.1 481.8,2581.1  A 1625.580,1625.580 0.00 0,1 478.2,2571.4 L 478.2,2571.4 537.2,2550.7 598.3,2532.1 661.4,2515.5 726.3,2501.1 792.8,2488.7 860.9,2478.6 930.3,2470.5 1000.9,2464.7 1072.7,2461.0 1145.3,2459.4 1218.8,2460.1 1292.9,2462.9 1367.5,2467.8 1442.5,2474.9 1517.7,2484.1 1593.0,2495.5 1668.2,2508.9 1743.3,2524.4 1818.1,2541.9 1892.4,2561.4 1966.1,2582.8 2039.1,2606.2 2111.2,2631.5 2182.4,2658.6 2252.4,2687.5 2321.2,2718.2 2388.7,2750.5 2454.6,2784.4 2518.9,2819.9 2581.5,2857.0 2642.1,2895.4 2700.8,2935.2 2757.3,2976.3 2811.6,3018.6 2863.5,3062.0 2912.9,3106.4 2959.8,3151.8 3003.8,3198.1 3045.1,3245.1  Z" style="stroke-width: 0.0;  fill: rgb(82,145,215);" />
<path d="M 3037.107,3251.767 A 1625.580,1625.580 0.00 0,1 3029.1,3258.3 L 3029.1,3258.3 2992.2,3215.0 2953.2,3172.9 2912.2,3132.1 2869.5,3092.9 2825.1,3055.5 2779.1,3020.2 2731.8,2987.0 2683.2,2956.1 2633.4,2927.7 2582.7,2902.0 2531.1,2879.0 2478.7,2858.8 2425.8,2841.6 2372.3,2827.4 2318.5,2816.3 2264.5,2808.4 2210.3,2803.7 2156.2,2802.2 2102.2,2804.0 2048.4,2809.0 1995.0,2817.3 1942.0,2828.8 1889.7,2843.4 1838.0,2861.2 1787.2,2882.0 1737.3,2905.8 1688.4,2932.6 1640.7,2962.0 1594.3,2994.2 1549.2,3028.9 1505.5,3066.0 1463.5,3105.3 1423.1,3146.7 1384.5,3190.0 1347.8,3234.9 1313.0,3281.3 1280.3,3329.0 1249.8,3377.6 1221.5,3427.0  A 1625.580,1625.580 0.00 0,1 1212.4,3422.0 L 1212.4,3422.0 1241.0,3372.8 1272.0,3324.2 1305.0,3276.7 1340.2,3230.4 1377.4,3185.6 1416.4,3142.5 1457.2,3101.2 1499.7,3062.0 1543.8,3025.0 1589.4,2990.4 1636.3,2958.4 1684.5,2929.0 1733.8,2902.3 1784.2,2878.5 1835.5,2857.7 1887.6,2840.0 1940.5,2825.4 1993.9,2813.9 2047.8,2805.6 2102.1,2800.5 2156.6,2798.7 2211.2,2800.1 2265.9,2804.7 2320.4,2812.5 2374.7,2823.4 2428.6,2837.5 2482.0,2854.5 2534.8,2874.5 2586.8,2897.4 2638.0,2922.9 2688.2,2951.1 2737.2,2981.8 2784.9,3014.8 2831.3,3049.9 2876.1,3087.1 2919.2,3126.1 2960.5,3166.7 2999.9,3208.6 3037.1,3251.8  Z" style="stroke-width: 0.0;  fill: rgb(28,75,160);" />
</g>
<defs>
<pattern id="vline-sparse" width="10" height="10" patternTransform="rotate(0 0 0)" patternUnits="userSpaceOnUse"><line x1="0" y1="0" x2="0" y2="10" style="stroke:black;stroke-width:2" /></pattern>
<pattern id="checker" width="10" height="10" patternTransform="rotate(45 0 0)" patternUnits="userSpaceOnUse"><line x1="0" y1="0" x2="10" y2="0" style="stroke:black;stroke-width:5" /><line x1="0" y1="0" x2="0" y2="10" style="stroke:black;stroke-width:4" /></pattern>
<pattern id="vline" width="10" height="10" patternTransform="rotate(0 0 0)" patternUnits="userSpaceOnUse"><line x1="0" y1="0" x2="0" y2="10" style="stroke:black;stroke-width:5" /></pattern>
<pattern id="hline" width="10" height="10" patternTransform="rotate(0 0 0)" patternUnits="userSpaceOnUse"><line x1="0" y1="0" x2="10" y2="0" style="stroke:black;stroke-width:5" /></pattern>
<pattern id="checker" width="10" height="10" patternTransform="rotate(45 0 0)" patternUnits="userSpaceOnUse"><line x1="0" y1="0" x2="10" y2="0" style="stroke:black;stroke-width:2" /><line x1="0" y1="0" x2="0" y2="10" style="stroke:black;stroke-width:2" /></pattern>
<pattern id="hline-sparse" width="10" height="10" patternTransform="rotate(0 0 0)" patternUnits="userSpaceOnUse"><line x1="0" y1="0" x2="10" y2="0" style="stroke:black;stroke-width:2" /></pattern>
</defs>
</svg>
