<?xml version="1.0" encoding="utf-8" standalone="no"?>
<!DOCTYPE svg PUBLIC "-//W3C//DTD SVG 1.1//EN" "http://www.w3.org/Graphics/SVG/1.1/DTD/svg11.dtd">
<svg width="4000px" height="4000px" version="1.1" xmlns="http://www.w3.org/2000/svg" xmlns:xlink="http://www.w3.org/1999/xlink">
<g id="bg">
<rect x="0" y="0" width="4000px" height="4000px" style="fill:rgb(255,255,255);"/>
</g>
<g id="ideograms">
<path d="M2000.000,358.000 A1642.000,1642.000 40.000 0,1 2751.610,540.121 L2769.004,506.336 A1680.000,1680.000 0.000 0,0 2000.000,320.000 Z" style="stroke-width:2.0;stroke:rgb(255,255,255);stroke-linecap:round;fill:rgb(185,185,185);" />
<text x="2427.0" y="305.8" font-size="36.4px" font-family="CMUBright-Roman" style="text-anchor:start;fill:rgb(0,0,0);" transform="rotate(283.6,2427.0,305.8)" >Management-Operations</text>
<path d="M2000.000,358.000 A1642.000,1642.000 40.000 0,1 2751.610,540.121 L2769.004,506.336 A1680.000,1680.000 0.000 0,0 2000.000,320.000 Z" style="stroke-width:2.0;stroke:rgb(255,255,255);stroke-linecap:round;fill:none;" />
<path d="M2783.279,556.865 A1642.000,1642.000 40.000 0,1 3226.411,908.176 L3254.793,882.908 A1680.000,1680.000 0.000 0,0 2801.406,523.467 Z" style="stroke-width:2.0;stroke:rgb(255,255,255);stroke-linecap:round;fill:rgb(185,185,185);" />
<text x="3097.5" y="640.5" font-size="36.4px" font-family="CMUBright-Roman" style="text-anchor:start;fill:rgb(0,0,0);" transform="rotate(308.4,3097.5,640.5)" >Engineering</text>
<path d="M2783.279,556.865 A1642.000,1642.000 40.000 0,1 3226.411,908.176 L3254.793,882.908 A1680.000,1680.000 0.000 0,0 2801.406,523.467 Z" style="stroke-width:2.0;stroke:rgb(255,255,255);stroke-linecap:round;fill:none;" />
<path d="M3249.937,935.189 A1642.000,1642.000 40.000 0,1 3507.538,1349.236 L3542.426,1334.176 A1680.000,1680.000 0.000 0,0 3278.864,910.547 Z" style="stroke-width:2.0;stroke:rgb(255,255,255);stroke-linecap:round;fill:rgb(185,185,185);" />
<text x="3491.6" y="1090.2" font-size="36.4px" font-family="CMUBright-Roman" style="text-anchor:start;fill:rgb(0,0,0);" transform="rotate(328.1,3491.6,1090.2)" >Leadership-General</text>
<path d="M3249.937,935.189 A1642.000,1642.000 40.000 0,1 3507.538,1349.236 L3542.426,1334.176 A1680.000,1680.000 0.000 0,0 3278.864,910.547 Z" style="stroke-width:2.0;stroke:rgb(255,255,255);stroke-linecap:round;fill:none;" />
<path d="M3521.375,1382.278 A1642.000,1642.000 40.000 0,1 3633.192,1830.154 L3670.988,1826.223 A1680.000,1680.000 0.000 0,0 3556.584,1367.982 Z" style="stroke-width:2.0;stroke:rgb(255,255,255);stroke-linecap:round;fill:rgb(185,185,185);" />
<text x="3699.0" y="1592.3" font-size="36.4px" font-family="CMUBright-Roman" style="text-anchor:start;fill:rgb(0,0,0);" transform="rotate(346.0,3699.0,1592.3)" >Sales-Marketing</text>
<path d="M3521.375,1382.278 A1642.000,1642.000 40.000 0,1 3633.192,1830.154 L3670.988,1826.223 A1680.000,1680.000 0.000 0,0 3556.584,1367.982 Z" style="stroke-width:2.0;stroke:rgb(255,255,255);stroke-linecap:round;fill:none;" />
<path d="M3636.509,1865.822 A1642.000,1642.000 40.000 0,1 3610.774,2318.704 L3648.051,2326.079 A1680.000,1680.000 0.000 0,0 3674.381,1862.717 Z" style="stroke-width:2.0;stroke:rgb(255,255,255);stroke-linecap:round;fill:rgb(185,185,185);" />
<text x="3743.6" y="2111.6" font-size="36.4px" font-family="CMUBright-Roman" style="text-anchor:start;fill:rgb(0,0,0);" transform="rotate(3.3,3743.6,2111.6)" >Finance-Investment</text>
<path d="M3636.509,1865.822 A1642.000,1642.000 40.000 0,1 3610.774,2318.704 L3648.051,2326.079 A1680.000,1680.000 0.000 0,0 3674.381,1862.717 Z" style="stroke-width:2.0;stroke:rgb(255,255,255);stroke-linecap:round;fill:none;" />
<path d="M3603.438,2353.767 A1642.000,1642.000 40.000 0,1 3499.856,2668.278 L3534.566,2683.744 A1680.000,1680.000 0.000 0,0 3640.546,2361.954 Z" style="stroke-width:2.0;stroke:rgb(255,255,255);stroke-linecap:round;fill:rgb(185,185,185);" />
<text x="3655.6" y="2558.4" font-size="36.4px" font-family="CMUBright-Roman" style="text-anchor:start;fill:rgb(0,0,0);" transform="rotate(18.2,3655.6,2558.4)" >Software-Data</text>
<path d="M3603.438,2353.767 A1642.000,1642.000 40.000 0,1 3499.856,2668.278 L3534.566,2683.744 A1680.000,1680.000 0.000 0,0 3640.546,2361.954 Z" style="stroke-width:2.0;stroke:rgb(255,255,255);stroke-linecap:round;fill:none;" />
<path d="M3484.921,2700.839 A1642.000,1642.000 40.000 0,1 3330.895,2961.708 L3361.695,2983.964 A1680.000,1680.000 0.000 0,0 3519.285,2717.058 Z" style="stroke-width:2.0;stroke:rgb(255,255,255);stroke-linecap:round;fill:rgb(185,185,185);" />
<text x="3498.1" y="2899.1" font-size="36.4px" font-family="CMUBright-Roman" style="text-anchor:start;fill:rgb(0,0,0);" transform="rotate(30.6,3498.1,2899.1)" >Education</text>
<path d="M3484.921,2700.839 A1642.000,1642.000 40.000 0,1 3330.895,2961.708 L3361.695,2983.964 A1680.000,1680.000 0.000 0,0 3519.285,2717.058 Z" style="stroke-width:2.0;stroke:rgb(255,255,255);stroke-linecap:round;fill:none;" />
<path d="M3309.599,2990.512 A1642.000,1642.000 40.000 0,1 3129.055,3192.225 L3155.184,3219.816 A1680.000,1680.000 0.000 0,0 3339.906,3013.435 Z" style="stroke-width:2.0;stroke:rgb(255,255,255);stroke-linecap:round;fill:rgb(185,185,185);" />
<text x="3293.5" y="3174.5" font-size="36.4px" font-family="CMUBright-Roman" style="text-anchor:start;fill:rgb(0,0,0);" transform="rotate(41.8,3293.5,3174.5)" >Research-Science</text>
<path d="M3309.599,2990.512 A1642.000,1642.000 40.000 0,1 3129.055,3192.225 L3155.184,3219.816 A1680.000,1680.000 0.000 0,0 3339.906,3013.435 Z" style="stroke-width:2.0;stroke:rgb(255,255,255);stroke-linecap:round;fill:none;" />
<path d="M3102.778,3216.571 A1642.000,1642.000 40.000 0,1 2891.302,3379.038 L2911.929,3410.952 A1680.000,1680.000 0.000 0,0 3128.299,3244.726 Z" style="stroke-width:2.0;stroke:rgb(255,255,255);stroke-linecap:round;fill:rgb(185,185,185);" />
<text x="3054.5" y="3393.1" font-size="36.4px" font-family="CMUBright-Roman" style="text-anchor:start;fill:rgb(0,0,0);" transform="rotate(52.5,3054.5,3393.1)" >Clinical-Care</text>
<path d="M3102.778,3216.571 A1642.000,1642.000 40.000 0,1 2891.302,3379.038 L2911.929,3410.952 A1680.000,1680.000 0.000 0,0 3128.299,3244.726 Z" style="stroke-width:2.0;stroke:rgb(255,255,255);stroke-linecap:round;fill:none;" />
<path d="M2861.006,3398.153 A1642.000,1642.000 40.000 0,1 2640.127,3512.085 L2654.941,3547.079 A1680.000,1680.000 0.000 0,0 2880.932,3430.510 Z" style="stroke-width:2.0;stroke:rgb(255,255,255);stroke-linecap:round;fill:rgb(185,185,185);" />
<text x="2786.7" y="3560.1" font-size="36.4px" font-family="CMUBright-Roman" style="text-anchor:start;fill:rgb(0,0,0);" transform="rotate(62.7,2786.7,3560.1)" >Accounting-Audit</text>
<path d="M2861.006,3398.153 A1642.000,1642.000 40.000 0,1 2640.127,3512.085 L2654.941,3547.079 A1680.000,1680.000 0.000 0,0 2880.932,3430.510 Z" style="stroke-width:2.0;stroke:rgb(255,255,255);stroke-linecap:round;fill:none;" />
<path d="M2606.988,3525.690 A1642.000,1642.000 40.000 0,1 2452.002,3578.562 L2462.463,3615.094 A1680.000,1680.000 0.000 0,0 2621.036,3560.998 Z" style="stroke-width:2.0;stroke:rgb(255,255,255);stroke-linecap:round;fill:rgb(185,185,185);" />
<text x="2552.3" y="3657.6" font-size="36.4px" font-family="CMUBright-Roman" style="text-anchor:start;fill:rgb(0,0,0);" transform="rotate(71.2,2552.3,3657.6)" >Social-Service</text>
<path d="M2606.988,3525.690 A1642.000,1642.000 40.000 0,1 2452.002,3578.562 L2462.463,3615.094 A1680.000,1680.000 0.000 0,0 2621.036,3560.998 Z" style="stroke-width:2.0;stroke:rgb(255,255,255);stroke-linecap:round;fill:none;" />
<path d="M2417.459,3588.047 A1642.000,1642.000 40.000 0,1 2320.910,3610.336 L2328.336,3647.603 A1680.000,1680.000 0.000 0,0 2427.120,3624.798 Z" style="stroke-width:2.0;stroke:rgb(255,255,255);stroke-linecap:round;fill:rgb(185,185,185);" />
<text x="2380.8" y="3705.2" font-size="36.4px" font-family="CMUBright-Roman" style="text-anchor:start;fill:rgb(0,0,0);" transform="rotate(77.0,2380.8,3705.2)" >IT-Infrastructure</text>
<path d="M2417.459,3588.047 A1642.000,1642.000 40.000 0,1 2320.910,3610.336 L2328.336,3647.603 A1680.000,1680.000 0.000 0,0 2427.120,3624.798 Z" style="stroke-width:2.0;stroke:rgb(255,255,255);stroke-linecap:round;fill:none;" />
<path d="M2285.704,3616.953 A1642.000,1642.000 40.000 0,1 2189.660,3631.010 L2194.050,3668.755 A1680.000,1680.000 0.000 0,0 2292.316,3654.373 Z" style="stroke-width:2.0;stroke:rgb(255,255,255);stroke-linecap:round;fill:rgb(185,185,185);" />
<text x="2237.2" y="3731.0" font-size="36.4px" font-family="CMUBright-Roman" style="text-anchor:start;fill:rgb(0,0,0);" transform="rotate(81.7,2237.2,3731.0)" >Legal-Policy</text>
<path d="M2285.704,3616.953 A1642.000,1642.000 40.000 0,1 2189.660,3631.010 L2194.050,3668.755 A1680.000,1680.000 0.000 0,0 2292.316,3654.373 Z" style="stroke-width:2.0;stroke:rgb(255,255,255);stroke-linecap:round;fill:none;" />
<path d="M2154.035,3634.759 A1642.000,1642.000 40.000 0,1 1474.020,3555.477 L1461.848,3591.475 A1680.000,1680.000 0.000 0,0 2157.600,3672.592 Z" style="stroke-width:2.0;stroke:rgb(255,255,255);stroke-linecap:round;fill:rgb(15,52,135);" />
<text x="1813.6" y="3737.2" font-size="36.4px" font-family="CMUBright-Roman" style="text-anchor:end;fill:rgb(0,0,0);" transform="rotate(-83.3,1813.6,3737.2)" >Finance-Accounting</text>
<path d="M2154.035,3634.759 A1642.000,1642.000 40.000 0,1 1474.020,3555.477 L1461.848,3591.475 A1680.000,1680.000 0.000 0,0 2157.600,3672.592 Z" style="stroke-width:2.0;stroke:rgb(255,255,255);stroke-linecap:round;fill:none;" />
<path d="M1440.213,3543.633 A1642.000,1642.000 40.000 0,1 888.845,3208.925 L863.130,3236.902 A1680.000,1680.000 0.000 0,0 1427.258,3579.356 Z" style="stroke-width:2.0;stroke:rgb(255,255,255);stroke-linecap:round;fill:rgb(42,98,180);" />
<text x="1104.1" y="3500.0" font-size="36.4px" font-family="CMUBright-Roman" style="text-anchor:end;fill:rgb(0,0,0);" transform="rotate(-58.7,1104.1,3500.0)" >General-Business</text>
<path d="M1440.213,3543.633 A1642.000,1642.000 40.000 0,1 888.845,3208.925 L863.130,3236.902 A1680.000,1680.000 0.000 0,0 1427.258,3579.356 Z" style="stroke-width:2.0;stroke:rgb(255,255,255);stroke-linecap:round;fill:none;" />
<path d="M862.737,3184.397 A1642.000,1642.000 40.000 0,1 624.574,2896.866 L592.744,2917.622 A1680.000,1680.000 0.000 0,0 836.418,3211.807 Z" style="stroke-width:2.0;stroke:rgb(255,255,255);stroke-linecap:round;fill:rgb(28,75,160);" />
<text x="664.7" y="3126.8" font-size="36.4px" font-family="CMUBright-Roman" style="text-anchor:end;fill:rgb(0,0,0);" transform="rotate(-39.6,664.7,3126.8)" >Marketing-Communication</text>
<path d="M862.737,3184.397 A1642.000,1642.000 40.000 0,1 624.574,2896.866 L592.744,2917.622 A1680.000,1680.000 0.000 0,0 836.418,3211.807 Z" style="stroke-width:2.0;stroke:rgb(255,255,255);stroke-linecap:round;fill:none;" />
<path d="M605.337,2866.648 A1642.000,1642.000 40.000 0,1 476.558,2612.607 L441.301,2626.784 A1680.000,1680.000 0.000 0,0 573.061,2886.704 Z" style="stroke-width:2.0;stroke:rgb(255,255,255);stroke-linecap:round;fill:rgb(60,120,198);" />
<text x="448.7" y="2803.8" font-size="36.4px" font-family="CMUBright-Roman" style="text-anchor:end;fill:rgb(0,0,0);" transform="rotate(-26.9,448.7,2803.8)" >Operations-Analytics</text>
<path d="M605.337,2866.648 A1642.000,1642.000 40.000 0,1 476.558,2612.607 L441.301,2626.784 A1680.000,1680.000 0.000 0,0 573.061,2886.704 Z" style="stroke-width:2.0;stroke:rgb(255,255,255);stroke-linecap:round;fill:none;" />
<path d="M463.556,2579.227 A1642.000,1642.000 40.000 0,1 407.419,2399.813 L370.563,2409.066 A1680.000,1680.000 0.000 0,0 427.999,2592.632 Z" style="stroke-width:2.0;stroke:rgb(255,255,255);stroke-linecap:round;fill:rgb(82,145,215);" />
<text x="337.2" y="2536.5" font-size="36.4px" font-family="CMUBright-Roman" style="text-anchor:end;fill:rgb(0,0,0);" transform="rotate(-17.4,337.2,2536.5)" >Specialized-Business</text>
<path d="M463.556,2579.227 A1642.000,1642.000 40.000 0,1 407.419,2399.813 L370.563,2409.066 A1680.000,1680.000 0.000 0,0 427.999,2592.632 Z" style="stroke-width:2.0;stroke:rgb(255,255,255);stroke-linecap:round;fill:none;" />
<path d="M399.076,2364.976 A1642.000,1642.000 40.000 0,1 366.776,2169.540 L328.979,2173.464 A1680.000,1680.000 0.000 0,0 362.027,2373.422 Z" style="stroke-width:2.0;stroke:rgb(255,255,255);stroke-linecap:round;fill:rgb(200,108,30);" />
<text x="278.3" y="2297.2" font-size="36.4px" font-family="CMUBright-Roman" style="text-anchor:end;fill:rgb(0,0,0);" transform="rotate(-9.4,278.3,2297.2)" >Social-Sciences</text>
<path d="M399.076,2364.976 A1642.000,1642.000 40.000 0,1 366.776,2169.540 L328.979,2173.464 A1680.000,1680.000 0.000 0,0 362.027,2373.422 Z" style="stroke-width:2.0;stroke:rgb(255,255,255);stroke-linecap:round;fill:none;" />
<path d="M363.466,2133.872 A1642.000,1642.000 40.000 0,1 358.290,2030.870 L320.297,2031.584 A1680.000,1680.000 0.000 0,0 325.593,2136.970 Z" style="stroke-width:2.0;stroke:rgb(255,255,255);stroke-linecap:round;fill:rgb(108,170,228);" />
<text x="255.6" y="2099.7" font-size="36.4px" font-family="CMUBright-Roman" style="text-anchor:end;fill:rgb(0,0,0);" transform="rotate(-2.9,255.6,2099.7)" >Economics</text>
<path d="M363.466,2133.872 A1642.000,1642.000 40.000 0,1 358.290,2030.870 L320.297,2031.584 A1680.000,1680.000 0.000 0,0 325.593,2136.970 Z" style="stroke-width:2.0;stroke:rgb(255,255,255);stroke-linecap:round;fill:none;" />
<path d="M358.007,1995.049 A1642.000,1642.000 40.000 0,1 358.807,1948.539 L320.825,1947.348 A1680.000,1680.000 0.000 0,0 320.008,1994.934 Z" style="stroke-width:2.0;stroke:rgb(255,255,255);stroke-linecap:round;fill:rgb(220,140,52);" />
<text x="252.9" y="1982.5" font-size="36.4px" font-family="CMUBright-Roman" style="text-anchor:end;fill:rgb(0,0,0);" transform="rotate(1.0,252.9,1982.5)" >Humanities-Liberal-Arts</text>
<path d="M358.007,1995.049 A1642.000,1642.000 40.000 0,1 358.807,1948.539 L320.825,1947.348 A1680.000,1680.000 0.000 0,0 320.008,1994.934 Z" style="stroke-width:2.0;stroke:rgb(255,255,255);stroke-linecap:round;fill:none;" />
<path d="M360.320,1912.749 A1642.000,1642.000 40.000 0,1 361.133,1898.615 L323.205,1896.269 A1680.000,1680.000 0.000 0,0 322.373,1910.730 Z" style="stroke-width:2.0;stroke:rgb(255,255,255);stroke-linecap:round;fill:rgb(235,168,78);" />
<text x="255.0" y="1912.1" font-size="36.4px" font-family="CMUBright-Roman" style="text-anchor:end;fill:rgb(0,0,0);" transform="rotate(3.3,255.0,1912.1)" >International-Studies</text>
<path d="M360.320,1912.749 A1642.000,1642.000 40.000 0,1 361.133,1898.615 L323.205,1896.269 A1680.000,1680.000 0.000 0,0 322.373,1910.730 Z" style="stroke-width:2.0;stroke:rgb(255,255,255);stroke-linecap:round;fill:none;" />
<path d="M363.735,1862.887 A1642.000,1642.000 40.000 0,1 391.336,1670.812 L354.108,1663.193 A1680.000,1680.000 0.000 0,0 325.867,1859.714 Z" style="stroke-width:2.0;stroke:rgb(255,255,255);stroke-linecap:round;fill:rgb(195,58,55);" />
<text x="268.8" y="1763.9" font-size="36.4px" font-family="CMUBright-Roman" style="text-anchor:end;fill:rgb(0,0,0);" transform="rotate(8.2,268.8,1763.9)" >Social-Work</text>
<path d="M363.735,1862.887 A1642.000,1642.000 40.000 0,1 391.336,1670.812 L354.108,1663.193 A1680.000,1680.000 0.000 0,0 325.867,1859.714 Z" style="stroke-width:2.0;stroke:rgb(255,255,255);stroke-linecap:round;fill:none;" />
<path d="M398.900,1635.797 A1642.000,1642.000 40.000 0,1 428.981,1522.439 L392.624,1511.387 A1680.000,1680.000 0.000 0,0 361.847,1627.368 Z" style="stroke-width:2.0;stroke:rgb(255,255,255);stroke-linecap:round;fill:rgb(175,35,42);" />
<text x="308.1" y="1564.0" font-size="36.4px" font-family="CMUBright-Roman" style="text-anchor:end;fill:rgb(0,0,0);" transform="rotate(14.9,308.1,1564.0)" >Teacher-Education</text>
<path d="M398.900,1635.797 A1642.000,1642.000 40.000 0,1 428.981,1522.439 L392.624,1511.387 A1680.000,1680.000 0.000 0,0 361.847,1627.368 Z" style="stroke-width:2.0;stroke:rgb(255,255,255);stroke-linecap:round;fill:none;" />
<path d="M439.773,1488.281 A1642.000,1642.000 40.000 0,1 474.975,1391.343 L439.682,1377.257 A1680.000,1680.000 0.000 0,0 403.666,1476.439 Z" style="stroke-width:2.0;stroke:rgb(255,255,255);stroke-linecap:round;fill:rgb(215,82,72);" />
<text x="352.5" y="1418.2" font-size="36.4px" font-family="CMUBright-Roman" style="text-anchor:end;fill:rgb(0,0,0);" transform="rotate(20.0,352.5,1418.2)" >Special-Education</text>
<path d="M439.773,1488.281 A1642.000,1642.000 40.000 0,1 474.975,1391.343 L439.682,1377.257 A1680.000,1680.000 0.000 0,0 403.666,1476.439 Z" style="stroke-width:2.0;stroke:rgb(255,255,255);stroke-linecap:round;fill:none;" />
<path d="M488.616,1358.220 A1642.000,1642.000 40.000 0,1 509.092,1311.991 L474.588,1296.068 A1680.000,1680.000 0.000 0,0 453.639,1343.368 Z" style="stroke-width:2.0;stroke:rgb(255,255,255);stroke-linecap:round;fill:rgb(230,112,95);" />
<text x="396.3" y="1306.6" font-size="36.4px" font-family="CMUBright-Roman" style="text-anchor:end;fill:rgb(0,0,0);" transform="rotate(23.9,396.3,1306.6)" >Educational-Leadership</text>
<path d="M488.616,1358.220 A1642.000,1642.000 40.000 0,1 509.092,1311.991 L474.588,1296.068 A1680.000,1680.000 0.000 0,0 453.639,1343.368 Z" style="stroke-width:2.0;stroke:rgb(255,255,255);stroke-linecap:round;fill:none;" />
<path d="M524.455,1279.630 A1642.000,1642.000 40.000 0,1 553.988,1222.045 L520.524,1204.041 A1680.000,1680.000 0.000 0,0 490.308,1262.959 Z" style="stroke-width:2.0;stroke:rgb(255,255,255);stroke-linecap:round;fill:rgb(0,130,142);" />
<text x="439.7" y="1213.8" font-size="36.4px" font-family="CMUBright-Roman" style="text-anchor:end;fill:rgb(0,0,0);" transform="rotate(27.2,439.7,1213.8)" >Communication-Studies</text>
<path d="M524.455,1279.630 A1642.000,1642.000 40.000 0,1 553.988,1222.045 L520.524,1204.041 A1680.000,1680.000 0.000 0,0 490.308,1262.959 Z" style="stroke-width:2.0;stroke:rgb(255,255,255);stroke-linecap:round;fill:none;" />
<path d="M571.303,1190.686 A1642.000,1642.000 40.000 0,1 588.562,1160.949 L555.898,1141.531 A1680.000,1680.000 0.000 0,0 538.240,1171.956 Z" style="stroke-width:2.0;stroke:rgb(255,255,255);stroke-linecap:round;fill:rgb(0,165,172);" />
<text x="482.6" y="1133.8" font-size="36.4px" font-family="CMUBright-Roman" style="text-anchor:end;fill:rgb(0,0,0);" transform="rotate(30.1,482.6,1133.8)" >Journalism-Media</text>
<path d="M571.303,1190.686 A1642.000,1642.000 40.000 0,1 588.562,1160.949 L555.898,1141.531 A1680.000,1680.000 0.000 0,0 538.240,1171.956 Z" style="stroke-width:2.0;stroke:rgb(255,255,255);stroke-linecap:round;fill:none;" />
<path d="M607.202,1130.358 A1642.000,1642.000 40.000 0,1 613.667,1120.089 L581.583,1099.725 A1680.000,1680.000 0.000 0,0 574.969,1110.233 Z" style="stroke-width:2.0;stroke:rgb(255,255,255);stroke-linecap:round;fill:rgb(38,195,195);" />
<text x="512.9" y="1082.8" font-size="36.4px" font-family="CMUBright-Roman" style="text-anchor:end;fill:rgb(0,0,0);" transform="rotate(32.2,512.9,1082.8)" >Creative-Writing</text>
<path d="M607.202,1130.358 A1642.000,1642.000 40.000 0,1 613.667,1120.089 L581.583,1099.725 A1680.000,1680.000 0.000 0,0 574.969,1110.233 Z" style="stroke-width:2.0;stroke:rgb(255,255,255);stroke-linecap:round;fill:none;" />
<path d="M633.192,1090.055 A1642.000,1642.000 40.000 0,1 667.742,1040.182 L636.910,1017.969 A1680.000,1680.000 0.000 0,0 601.560,1068.997 Z" style="stroke-width:2.0;stroke:rgb(255,255,255);stroke-linecap:round;fill:rgb(180,45,112);" />
<text x="554.7" y="1018.2" font-size="36.4px" font-family="CMUBright-Roman" style="text-anchor:end;fill:rgb(0,0,0);" transform="rotate(34.7,554.7,1018.2)" >Arts-Theology</text>
<path d="M633.192,1090.055 A1642.000,1642.000 40.000 0,1 667.742,1040.182 L636.910,1017.969 A1680.000,1680.000 0.000 0,0 601.560,1068.997 Z" style="stroke-width:2.0;stroke:rgb(255,255,255);stroke-linecap:round;fill:none;" />
<path d="M688.997,1011.347 A1642.000,1642.000 40.000 0,1 698.803,998.477 L668.690,975.299 A1680.000,1680.000 0.000 0,0 658.657,988.467 Z" style="stroke-width:2.0;stroke:rgb(255,255,255);stroke-linecap:round;fill:rgb(205,75,142);" />
<text x="600.6" y="953.9" font-size="36.4px" font-family="CMUBright-Roman" style="text-anchor:end;fill:rgb(0,0,0);" transform="rotate(37.3,600.6,953.9)" >English-Writing</text>
<path d="M688.997,1011.347 A1642.000,1642.000 40.000 0,1 698.803,998.477 L668.690,975.299 A1680.000,1680.000 0.000 0,0 658.657,988.467 Z" style="stroke-width:2.0;stroke:rgb(255,255,255);stroke-linecap:round;fill:none;" />
<path d="M720.960,970.329 A1642.000,1642.000 40.000 0,1 724.774,965.610 L695.262,941.672 A1680.000,1680.000 0.000 0,0 691.360,946.500 Z" style="stroke-width:2.0;stroke:rgb(255,255,255);stroke-linecap:round;fill:rgb(225,110,168);" />
<text x="631.0" y="914.3" font-size="36.4px" font-family="CMUBright-Roman" style="text-anchor:end;fill:rgb(0,0,0);" transform="rotate(38.9,631.0,914.3)" >Languages</text>
<path d="M720.960,970.329 A1642.000,1642.000 40.000 0,1 724.774,965.610 L695.262,941.672 A1680.000,1680.000 0.000 0,0 691.360,946.500 Z" style="stroke-width:2.0;stroke:rgb(255,255,255);stroke-linecap:round;fill:none;" />
<path d="M747.643,938.037 A1642.000,1642.000 40.000 0,1 884.635,794.959 L858.822,767.071 A1680.000,1680.000 0.000 0,0 718.660,913.461 Z" style="stroke-width:2.0;stroke:rgb(255,255,255);stroke-linecap:round;fill:rgb(88,40,138);" />
<text x="727.0" y="803.3" font-size="36.4px" font-family="CMUBright-Roman" style="text-anchor:end;fill:rgb(0,0,0);" transform="rotate(43.8,727.0,803.3)" >Biological-Sciences</text>
<path d="M747.643,938.037 A1642.000,1642.000 40.000 0,1 884.635,794.959 L858.822,767.071 A1680.000,1680.000 0.000 0,0 718.660,913.461 Z" style="stroke-width:2.0;stroke:rgb(255,255,255);stroke-linecap:round;fill:none;" />
<path d="M911.188,770.914 A1642.000,1642.000 40.000 0,1 969.888,721.316 L946.049,691.724 A1680.000,1680.000 0.000 0,0 885.990,742.470 Z" style="stroke-width:2.0;stroke:rgb(255,255,255);stroke-linecap:round;fill:rgb(115,65,165);" />
<text x="862.8" y="673.5" font-size="36.4px" font-family="CMUBright-Roman" style="text-anchor:end;fill:rgb(0,0,0);" transform="rotate(49.8,862.8,673.5)" >Health-Wellness</text>
<path d="M911.188,770.914 A1642.000,1642.000 40.000 0,1 969.888,721.316 L946.049,691.724 A1680.000,1680.000 0.000 0,0 885.990,742.470 Z" style="stroke-width:2.0;stroke:rgb(255,255,255);stroke-linecap:round;fill:none;" />
<path d="M998.028,699.148 A1642.000,1642.000 40.000 0,1 1023.858,679.655 L1001.267,649.099 A1680.000,1680.000 0.000 0,0 974.840,669.043 Z" style="stroke-width:2.0;stroke:rgb(255,255,255);stroke-linecap:round;fill:rgb(140,92,188);" />
<text x="935.2" y="614.8" font-size="36.4px" font-family="CMUBright-Roman" style="text-anchor:end;fill:rgb(0,0,0);" transform="rotate(53.0,935.2,614.8)" >Physical-Sciences</text>
<path d="M998.028,699.148 A1642.000,1642.000 40.000 0,1 1023.858,679.655 L1001.267,649.099 A1680.000,1680.000 0.000 0,0 974.840,669.043 Z" style="stroke-width:2.0;stroke:rgb(255,255,255);stroke-linecap:round;fill:none;" />
<path d="M1052.893,658.675 A1642.000,1642.000 40.000 0,1 1064.493,650.559 L1042.843,619.329 A1680.000,1680.000 0.000 0,0 1030.975,627.633 Z" style="stroke-width:2.0;stroke:rgb(255,255,255);stroke-linecap:round;fill:rgb(165,120,208);" />
<text x="988.2" y="575.6" font-size="36.4px" font-family="CMUBright-Roman" style="text-anchor:end;fill:rgb(0,0,0);" transform="rotate(55.0,988.2,575.6)" >Environmental-Sciences</text>
<path d="M1052.893,658.675 A1642.000,1642.000 40.000 0,1 1064.493,650.559 L1042.843,619.329 A1680.000,1680.000 0.000 0,0 1030.975,627.633 Z" style="stroke-width:2.0;stroke:rgb(255,255,255);stroke-linecap:round;fill:none;" />
<path d="M1094.154,630.472 A1642.000,1642.000 40.000 0,1 1594.822,408.776 L1585.445,371.951 A1680.000,1680.000 0.000 0,0 1073.190,598.778 Z" style="stroke-width:2.0;stroke:rgb(255,255,255);stroke-linecap:round;fill:rgb(22,118,50);" />
<text x="1278.0" y="409.0" font-size="36.4px" font-family="CMUBright-Roman" style="text-anchor:end;fill:rgb(0,0,0);" transform="rotate(66.1,1278.0,409.0)" >Engineering-Disciplines</text>
<path d="M1094.154,630.472 A1642.000,1642.000 40.000 0,1 1594.822,408.776 L1585.445,371.951 A1680.000,1680.000 0.000 0,0 1073.190,598.778 Z" style="stroke-width:2.0;stroke:rgb(255,255,255);stroke-linecap:round;fill:none;" />
<path d="M1629.631,400.315 A1642.000,1642.000 40.000 0,1 1964.180,358.391 L1963.351,320.400 A1680.000,1680.000 0.000 0,0 1621.060,363.295 Z" style="stroke-width:2.0;stroke:rgb(255,255,255);stroke-linecap:round;fill:rgb(48,158,75);" />
<text x="1767.4" y="268.4" font-size="36.4px" font-family="CMUBright-Roman" style="text-anchor:end;fill:rgb(0,0,0);" transform="rotate(82.9,1767.4,268.4)" >Computer-Science-IT</text>
<path d="M1629.631,400.315 A1642.000,1642.000 40.000 0,1 1964.180,358.391 L1963.351,320.400 A1680.000,1680.000 0.000 0,0 1621.060,363.295 Z" style="stroke-width:2.0;stroke:rgb(255,255,255);stroke-linecap:round;fill:none;" />
</g>
<g id="track_0">
<path d="M 621.130,1139.055 A 1625.580,1625.580 0.00 0,1 622.2,1137.4 L 622.2,1137.4 677.7,1173.6 733.1,1212.6 788.6,1254.5 844.0,1298.9 899.3,1345.8 954.4,1395.1 1009.3,1446.7 1064.0,1500.4 1118.3,1556.0 1172.3,1613.6 1225.9,1672.9 1279.0,1733.8 1331.6,1796.3 1383.7,1860.2 1435.0,1925.3 1485.7,1991.7 1535.6,2059.1 1584.6,2127.5 1632.8,2196.7 1679.9,2266.6 1726.0,2337.2 1771.0,2408.3 1814.8,2479.9 1857.3,2551.7 1898.4,2623.8 1938.1,2696.0 1976.3,2768.2 2012.9,2840.3 2047.7,2912.2 2080.8,2983.8 2112.1,3055.1 2141.3,3125.9 2168.5,3196.1 2193.5,3265.7 2216.3,3334.6 2236.7,3402.6 2254.7,3469.7 2270.1,3535.8 2282.8,3600.8  A 1625.580,1625.580 0.00 0,1 2280.9,3601.1 L 2280.9,3601.1 2268.2,3536.1 2252.9,3470.1 2235.0,3403.0 2214.6,3335.0 2191.9,3266.1 2167.0,3196.5 2139.9,3126.3 2110.7,3055.5 2079.6,2984.2 2046.5,2912.6 2011.7,2840.7 1975.2,2768.6 1937.1,2696.4 1897.4,2624.2 1856.3,2552.2 1813.9,2480.3 1770.1,2408.8 1725.2,2337.7 1679.1,2267.2 1631.9,2197.3 1583.8,2128.1 1534.8,2059.7 1484.9,1992.4 1434.2,1926.1 1382.9,1860.9 1330.9,1797.1 1278.2,1734.7 1225.1,1673.8 1171.5,1614.6 1117.5,1557.1 1063.1,1501.5 1008.4,1447.9 953.5,1396.4 898.3,1347.2 843.0,1300.3 787.6,1255.9 732.1,1214.2 676.6,1175.2 621.1,1139.1  Z" style="stroke-width: 0.0;  fill: rgb(38,195,195);" />
<path d="M 622.191,1137.357 A 1625.580,1625.580 0.00 0,1 623.3,1135.7 L 623.3,1135.7 680.4,1172.9 737.8,1212.9 795.4,1255.5 853.1,1300.4 911.0,1347.7 969.0,1397.1 1027.1,1448.6 1085.3,1501.9 1143.5,1557.0 1201.7,1613.7 1259.9,1671.9 1318.1,1731.5 1376.1,1792.3 1433.9,1854.3 1491.5,1917.4 1548.9,1981.4 1605.8,2046.2 1662.4,2111.7 1718.5,2177.9 1774.1,2244.6 1829.0,2311.8 1883.2,2379.3 1936.7,2447.1 1989.2,2515.0 2040.8,2583.1 2091.3,2651.2 2140.7,2719.3 2188.8,2787.2 2235.5,2855.0 2280.7,2922.5 2324.3,2989.8 2366.2,3056.6 2406.3,3123.1 2444.4,3189.1 2480.5,3254.6 2514.2,3319.5 2545.7,3383.8 2574.6,3447.4 2600.9,3510.4  A 1625.580,1625.580 0.00 0,1 2599.1,3511.2 L 2599.1,3511.2 2572.8,3448.2 2544.0,3384.5 2512.6,3320.2 2478.9,3255.2 2443.0,3189.8 2404.9,3123.8 2364.9,3057.3 2323.1,2990.4 2279.5,2923.2 2234.3,2855.6 2187.7,2787.9 2139.7,2719.9 2090.3,2651.8 2039.9,2583.7 1988.3,2515.6 1935.8,2447.7 1882.4,2379.9 1828.2,2312.4 1773.3,2245.3 1717.8,2178.6 1661.7,2112.4 1605.1,2046.9 1548.1,1982.1 1490.8,1918.2 1433.1,1855.2 1375.3,1793.2 1317.3,1732.4 1259.1,1672.8 1200.9,1614.7 1142.6,1558.0 1084.4,1503.0 1026.2,1449.8 968.1,1398.4 910.0,1349.0 852.1,1301.8 794.4,1256.9 736.8,1214.4 679.4,1174.5 622.2,1137.4  Z" style="stroke-width: 0.0;  fill: rgb(38,195,195);" />
<path d="M 623.255,1135.661 A 1625.580,1625.580 0.00 0,1 625.4,1132.3 L 625.4,1132.3 687.4,1172.3 749.8,1214.2 812.8,1258.0 876.4,1303.2 940.5,1349.8 1005.3,1397.6 1070.7,1446.3 1136.8,1496.0 1203.6,1546.3 1271.0,1597.1 1339.1,1648.4 1407.8,1699.9 1477.2,1751.6 1547.1,1803.4 1617.7,1855.1 1688.7,1906.7 1760.3,1958.1 1832.3,2009.2 1904.7,2060.0 1977.5,2110.3 2050.5,2160.2 2123.7,2209.6 2197.0,2258.4 2270.3,2306.8 2343.6,2354.5 2416.7,2401.8 2489.5,2448.4 2562.0,2494.6 2633.9,2540.2 2705.3,2585.4 2775.9,2630.2 2845.6,2674.5 2914.3,2718.6 2981.9,2762.4 3048.1,2806.0 3112.8,2849.5 3175.9,2893.1 3237.2,2936.7 3296.5,2980.6  A 1625.580,1625.580 0.00 0,1 3294.1,2983.8 L 3294.1,2983.8 3234.9,2939.8 3173.8,2896.0 3110.8,2852.4 3046.2,2808.7 2980.1,2765.0 2912.7,2721.1 2844.0,2676.9 2774.4,2632.5 2703.9,2587.6 2632.6,2542.4 2560.7,2496.6 2488.3,2450.4 2415.5,2403.7 2342.4,2356.4 2269.2,2308.5 2195.8,2260.2 2122.5,2211.3 2049.3,2161.8 1976.3,2111.9 1903.6,2061.6 1831.2,2010.9 1759.1,1959.8 1687.5,1908.4 1616.4,1856.9 1545.8,1805.2 1475.8,1753.4 1406.4,1701.8 1337.6,1650.3 1269.5,1599.1 1202.0,1548.4 1135.2,1498.2 1069.0,1448.7 1003.5,1400.0 938.7,1352.4 874.5,1305.9 810.8,1260.8 747.8,1217.3 685.3,1175.5 623.3,1135.7  Z" style="stroke-width: 0.0;  fill: rgb(38,195,195);" />
<path d="M 625.388,1132.272 A 1625.580,1625.580 0.00 0,1 626.5,1130.6 L 626.5,1130.6 682.2,1164.3 740.5,1196.7 801.3,1227.8 864.4,1257.5 929.7,1285.8 997.1,1312.8 1066.4,1338.4 1137.5,1362.7 1210.2,1385.6 1284.5,1407.1 1360.2,1427.3 1437.2,1446.0 1515.2,1463.4 1594.3,1479.3 1674.2,1493.9 1754.9,1507.0 1836.2,1518.7 1917.9,1529.0 1999.9,1537.8 2082.2,1545.2 2164.5,1551.1 2246.7,1555.5 2328.8,1558.4 2410.5,1559.8 2491.7,1559.7 2572.4,1558.0 2652.3,1554.8 2731.4,1550.0 2809.4,1543.7 2886.4,1535.7 2962.0,1526.1 3036.3,1514.8 3109.1,1501.9 3180.2,1487.3 3249.5,1471.1 3316.8,1453.0 3382.2,1433.3 3445.3,1411.8 3506.2,1388.5  A 1625.580,1625.580 0.00 0,1 3506.9,1390.3 L 3506.9,1390.3 3446.0,1413.6 3382.8,1435.0 3317.5,1454.7 3250.0,1472.6 3180.7,1488.9 3109.5,1503.4 3036.7,1516.2 2962.4,1527.4 2886.7,1537.0 2809.7,1544.9 2731.6,1551.2 2652.5,1556.0 2572.6,1559.2 2491.9,1560.8 2410.6,1560.9 2328.8,1559.4 2246.8,1556.5 2164.5,1552.1 2082.1,1546.2 1999.8,1538.8 1917.7,1530.0 1836.0,1519.7 1754.7,1508.0 1674.0,1494.9 1594.0,1480.4 1514.9,1464.4 1436.7,1447.1 1359.7,1428.4 1284.0,1408.3 1209.7,1386.8 1136.9,1364.0 1065.7,1339.7 996.4,1314.2 928.9,1287.2 863.6,1258.9 800.4,1229.3 739.6,1198.3 681.2,1166.0 625.4,1132.3  Z" style="stroke-width: 0.0;  fill: rgb(38,195,195);" />
<path d="M 626.458,1130.579 A 1625.580,1625.580 0.00 0,1 627.5,1128.9 L 627.5,1128.9 680.7,1161.1 736.4,1191.6 794.4,1220.5 854.6,1247.7 916.8,1273.0 980.8,1296.5 1046.7,1318.1 1114.1,1337.8 1183.0,1355.6 1253.2,1371.3 1324.6,1385.0 1397.0,1396.6 1470.3,1406.1 1544.4,1413.6 1619.1,1418.9 1694.3,1422.1 1769.8,1423.2 1845.5,1422.2 1921.2,1419.0 1996.9,1413.7 2072.4,1406.3 2147.5,1396.7 2222.1,1385.1 2296.1,1371.4 2369.3,1355.7 2441.6,1338.0 2512.9,1318.3 2583.0,1296.7 2651.7,1273.2 2719.1,1247.8 2784.8,1220.7 2848.8,1191.7 2911.0,1161.1 2971.1,1128.9 3029.2,1095.1 3085.0,1059.9 3138.4,1023.2 3189.2,985.1 3237.4,945.8  A 1625.580,1625.580 0.00 0,1 3238.7,947.4 L 3238.7,947.4 3190.5,986.6 3139.5,1024.6 3086.1,1061.2 3030.2,1096.5 2972.1,1130.2 2911.9,1162.4 2849.7,1192.9 2785.6,1221.8 2719.8,1248.9 2652.4,1274.3 2583.6,1297.8 2513.4,1319.4 2442.1,1339.0 2369.7,1356.7 2296.4,1372.4 2222.4,1386.1 2147.7,1397.7 2072.5,1407.2 1997.0,1414.6 1921.3,1419.9 1845.4,1423.1 1769.7,1424.2 1694.1,1423.1 1618.9,1419.9 1544.1,1414.6 1470.0,1407.2 1396.6,1397.7 1324.1,1386.1 1252.7,1372.4 1182.4,1356.8 1113.5,1339.1 1046.0,1319.5 980.1,1297.9 916.0,1274.4 853.7,1249.1 793.5,1222.0 735.5,1193.2 679.7,1162.7 626.5,1130.6  Z" style="stroke-width: 0.0;  fill: rgb(38,195,195);" />
</g>
<defs>
<pattern id="checker" width="10" height="10" patternTransform="rotate(45 0 0)" patternUnits="userSpaceOnUse"><line x1="0" y1="0" x2="10" y2="0" style="stroke:black;stroke-width:2" /><line x1="0" y1="0" x2="0" y2="10" style="stroke:black;stroke-width:2" /></pattern>
<pattern id="hline" width="10" height="10" patternTransform="rotate(0 0 0)" patternUnits="userSpaceOnUse"><line x1="0" y1="0" x2="10" y2="0" style="stroke:black;stroke-width:5" /></pattern>
<pattern id="hline-sparse" width="10" height="10" patternTransform="rotate(0 0 0)" patternUnits="userSpaceOnUse"><line x1="0" y1="0" x2="10" y2="0" style="stroke:black;stroke-width:2" /></pattern>
<pattern id="checker" width="10" height="10" patternTransform="rotate(45 0 0)" patternUnits="userSpaceOnUse"><line x1="0" y1="0" x2="10" y2="0" style="stroke:black;stroke-width:5" /><line x1="0" y1="0" x2="0" y2="10" style="stroke:black;stroke-width:4" /></pattern>
<pattern id="vline" width="10" height="10" patternTransform="rotate(0 0 0)" patternUnits="userSpaceOnUse"><line x1="0" y1="0" x2="0" y2="10" style="stroke:black;stroke-width:5" /></pattern>
<pattern id="vline-sparse" width="10" height="10" patternTransform="rotate(0 0 0)" patternUnits="userSpaceOnUse"><line x1="0" y1="0" x2="0" y2="10" style="stroke:black;stroke-width:2" /></pattern>
</defs>
</svg>
