<?xml version="1.0" encoding="utf-8" standalone="no"?>
<!DOCTYPE svg PUBLIC "-//W3C//DTD SVG 1.1//EN" "http://www.w3.org/Graphics/SVG/1.1/DTD/svg11.dtd">
<svg width="4000px" height="4000px" version="1.1" xmlns="http://www.w3.org/2000/svg" xmlns:xlink="http://www.w3.org/1999/xlink">
<g id="bg">
<rect x="0" y="0" width="4000px" height="4000px" style="fill:rgb(255,255,255);"/>
</g>
<g id="ideograms">
<path d="M2000.000,358.000 A1642.000,1642.000 40.000 0,1 2727.139,527.779 L2743.967,493.709 A1680.000,1680.000 0.000 0,0 2000.000,320.000 Z" style="stroke-width:2.0;stroke:rgb(255,255,255);stroke-linecap:round;fill:rgb(185,185,185);" />
<text x="2412.3" y="302.2" font-size="36.4px" font-family="CMUBright-Roman" style="text-anchor:start;fill:rgb(0,0,0);" transform="rotate(283.1,2412.3,302.2)" >Engineering</text>
<path d="M2000.000,358.000 A1642.000,1642.000 40.000 0,1 2727.139,527.779 L2743.967,493.709 A1680.000,1680.000 0.000 0,0 2000.000,320.000 Z" style="stroke-width:2.0;stroke:rgb(255,255,255);stroke-linecap:round;fill:none;" />
<path d="M2759.082,543.992 A1642.000,1642.000 40.000 0,1 3284.099,976.646 L3313.816,952.963 A1680.000,1680.000 0.000 0,0 2776.649,510.297 Z" style="stroke-width:2.0;stroke:rgb(255,255,255);stroke-linecap:round;fill:rgb(185,185,185);" />
<text x="3120.8" y="659.6" font-size="36.4px" font-family="CMUBright-Roman" style="text-anchor:start;fill:rgb(0,0,0);" transform="rotate(309.5,3120.8,659.6)" >Finance-Investment</text>
<path d="M2759.082,543.992 A1642.000,1642.000 40.000 0,1 3284.099,976.646 L3313.816,952.963 A1680.000,1680.000 0.000 0,0 2776.649,510.297 Z" style="stroke-width:2.0;stroke:rgb(255,255,255);stroke-linecap:round;fill:none;" />
<path d="M3306.118,1004.902 A1642.000,1642.000 40.000 0,1 3557.132,1478.938 L3593.167,1466.879 A1680.000,1680.000 0.000 0,0 3336.345,981.873 Z" style="stroke-width:2.0;stroke:rgb(255,255,255);stroke-linecap:round;fill:rgb(185,185,185);" />
<text x="3551.5" y="1196.5" font-size="36.4px" font-family="CMUBright-Roman" style="text-anchor:start;fill:rgb(0,0,0);" transform="rotate(332.1,3551.5,1196.5)" >Management-Operations</text>
<path d="M3306.118,1004.902 A1642.000,1642.000 40.000 0,1 3557.132,1478.938 L3593.167,1466.879 A1680.000,1680.000 0.000 0,0 3336.345,981.873 Z" style="stroke-width:2.0;stroke:rgb(255,255,255);stroke-linecap:round;fill:none;" />
<path d="M3568.128,1513.031 A1642.000,1642.000 40.000 0,1 3640.479,1929.339 L3678.444,1927.703 A1680.000,1680.000 0.000 0,0 3604.418,1501.761 Z" style="stroke-width:2.0;stroke:rgb(255,255,255);stroke-linecap:round;fill:rgb(185,185,185);" />
<text x="3723.5" y="1713.2" font-size="36.4px" font-family="CMUBright-Roman" style="text-anchor:start;fill:rgb(0,0,0);" transform="rotate(350.1,3723.5,1713.2)" >Software-Data</text>
<path d="M3568.128,1513.031 A1642.000,1642.000 40.000 0,1 3640.479,1929.339 L3678.444,1927.703 A1680.000,1680.000 0.000 0,0 3604.418,1501.761 Z" style="stroke-width:2.0;stroke:rgb(255,255,255);stroke-linecap:round;fill:none;" />
<path d="M3641.630,1965.142 A1642.000,1642.000 40.000 0,1 3597.388,2380.151 L3634.356,2388.948 A1680.000,1680.000 0.000 0,0 3679.621,1964.336 Z" style="stroke-width:2.0;stroke:rgb(255,255,255);stroke-linecap:round;fill:rgb(185,185,185);" />
<text x="3735.6" y="2201.1" font-size="36.4px" font-family="CMUBright-Roman" style="text-anchor:start;fill:rgb(0,0,0);" transform="rotate(6.1,3735.6,2201.1)" >Sales-Marketing</text>
<path d="M3641.630,1965.142 A1642.000,1642.000 40.000 0,1 3597.388,2380.151 L3634.356,2388.948 A1680.000,1680.000 0.000 0,0 3679.621,1964.336 Z" style="stroke-width:2.0;stroke:rgb(255,255,255);stroke-linecap:round;fill:none;" />
<path d="M3588.715,2414.907 A1642.000,1642.000 40.000 0,1 3447.858,2774.513 L3481.365,2792.437 A1680.000,1680.000 0.000 0,0 3625.482,2424.509 Z" style="stroke-width:2.0;stroke:rgb(255,255,255);stroke-linecap:round;fill:rgb(185,185,185);" />
<text x="3620.9" y="2652.1" font-size="36.4px" font-family="CMUBright-Roman" style="text-anchor:start;fill:rgb(0,0,0);" transform="rotate(21.4,3620.9,2652.1)" >Accounting-Audit</text>
<path d="M3588.715,2414.907 A1642.000,1642.000 40.000 0,1 3447.858,2774.513 L3481.365,2792.437 A1680.000,1680.000 0.000 0,0 3625.482,2424.509 Z" style="stroke-width:2.0;stroke:rgb(255,255,255);stroke-linecap:round;fill:none;" />
<path d="M3430.618,2805.914 A1642.000,1642.000 40.000 0,1 3261.549,3051.027 L3290.745,3075.350 A1680.000,1680.000 0.000 0,0 3463.726,2824.565 Z" style="stroke-width:2.0;stroke:rgb(255,255,255);stroke-linecap:round;fill:rgb(185,185,185);" />
<text x="3429.4" y="3004.8" font-size="36.4px" font-family="CMUBright-Roman" style="text-anchor:start;fill:rgb(0,0,0);" transform="rotate(34.6,3429.4,3004.8)" >Leadership-General</text>
<path d="M3430.618,2805.914 A1642.000,1642.000 40.000 0,1 3261.549,3051.027 L3290.745,3075.350 A1680.000,1680.000 0.000 0,0 3463.726,2824.565 Z" style="stroke-width:2.0;stroke:rgb(255,255,255);stroke-linecap:round;fill:none;" />
<path d="M3238.321,3078.297 A1642.000,1642.000 40.000 0,1 3039.505,3271.060 L3063.562,3300.476 A1680.000,1680.000 0.000 0,0 3266.979,3103.252 Z" style="stroke-width:2.0;stroke:rgb(255,255,255);stroke-linecap:round;fill:rgb(185,185,185);" />
<text x="3207.2" y="3263.1" font-size="36.4px" font-family="CMUBright-Roman" style="text-anchor:start;fill:rgb(0,0,0);" transform="rotate(45.9,3207.2,3263.1)" >Clinical-Care</text>
<path d="M3238.321,3078.297 A1642.000,1642.000 40.000 0,1 3039.505,3271.060 L3063.562,3300.476 A1680.000,1680.000 0.000 0,0 3266.979,3103.252 Z" style="stroke-width:2.0;stroke:rgb(255,255,255);stroke-linecap:round;fill:none;" />
<path d="M3011.529,3293.434 A1642.000,1642.000 40.000 0,1 2784.385,3442.534 L2802.537,3475.918 A1680.000,1680.000 0.000 0,0 3034.939,3323.368 Z" style="stroke-width:2.0;stroke:rgb(255,255,255);stroke-linecap:round;fill:rgb(185,185,185);" />
<text x="2948.3" y="3467.5" font-size="36.4px" font-family="CMUBright-Roman" style="text-anchor:start;fill:rgb(0,0,0);" transform="rotate(56.7,2948.3,3467.5)" >Research-Science</text>
<path d="M3011.529,3293.434 A1642.000,1642.000 40.000 0,1 2784.385,3442.534 L2802.537,3475.918 A1680.000,1680.000 0.000 0,0 3034.939,3323.368 Z" style="stroke-width:2.0;stroke:rgb(255,255,255);stroke-linecap:round;fill:none;" />
<path d="M2752.729,3459.302 A1642.000,1642.000 40.000 0,1 2556.245,3544.913 L2569.118,3580.666 A1680.000,1680.000 0.000 0,0 2770.149,3493.074 Z" style="stroke-width:2.0;stroke:rgb(255,255,255);stroke-linecap:round;fill:rgb(185,185,185);" />
<text x="2686.4" y="3606.7" font-size="36.4px" font-family="CMUBright-Roman" style="text-anchor:start;fill:rgb(0,0,0);" transform="rotate(66.5,2686.4,3606.7)" >Education</text>
<path d="M2752.729,3459.302 A1642.000,1642.000 40.000 0,1 2556.245,3544.913 L2569.118,3580.666 A1680.000,1680.000 0.000 0,0 2770.149,3493.074 Z" style="stroke-width:2.0;stroke:rgb(255,255,255);stroke-linecap:round;fill:none;" />
<path d="M2522.411,3556.679 A1642.000,1642.000 40.000 0,1 2417.174,3588.121 L2426.829,3624.875 A1680.000,1680.000 0.000 0,0 2534.501,3592.705 Z" style="stroke-width:2.0;stroke:rgb(255,255,255);stroke-linecap:round;fill:rgb(185,185,185);" />
<text x="2488.2" y="3677.6" font-size="36.4px" font-family="CMUBright-Roman" style="text-anchor:start;fill:rgb(0,0,0);" transform="rotate(73.4,2488.2,3677.6)" >IT-Infrastructure</text>
<path d="M2522.411,3556.679 A1642.000,1642.000 40.000 0,1 2417.174,3588.121 L2426.829,3624.875 A1680.000,1680.000 0.000 0,0 2534.501,3592.705 Z" style="stroke-width:2.0;stroke:rgb(255,255,255);stroke-linecap:round;fill:none;" />
<path d="M2382.430,3596.844 A1642.000,1642.000 40.000 0,1 2321.118,3610.294 L2328.550,3647.560 A1680.000,1680.000 0.000 0,0 2391.281,3633.799 Z" style="stroke-width:2.0;stroke:rgb(255,255,255);stroke-linecap:round;fill:rgb(185,185,185);" />
<text x="2358.7" y="3710.0" font-size="36.4px" font-family="CMUBright-Roman" style="text-anchor:start;fill:rgb(0,0,0);" transform="rotate(77.6,2358.7,3710.0)" >Legal-Policy</text>
<path d="M2382.430,3596.844 A1642.000,1642.000 40.000 0,1 2321.118,3610.294 L2328.550,3647.560 A1680.000,1680.000 0.000 0,0 2391.281,3633.799 Z" style="stroke-width:2.0;stroke:rgb(255,255,255);stroke-linecap:round;fill:none;" />
<path d="M2285.913,3616.916 A1642.000,1642.000 40.000 0,1 2249.787,3622.890 L2255.567,3660.447 A1680.000,1680.000 0.000 0,0 2292.530,3654.336 Z" style="stroke-width:2.0;stroke:rgb(255,255,255);stroke-linecap:round;fill:rgb(185,185,185);" />
<text x="2272.7" y="3725.8" font-size="36.4px" font-family="CMUBright-Roman" style="text-anchor:start;fill:rgb(0,0,0);" transform="rotate(80.6,2272.7,3725.8)" >Social-Service</text>
<path d="M2285.913,3616.916 A1642.000,1642.000 40.000 0,1 2249.787,3622.890 L2255.567,3660.447 A1680.000,1680.000 0.000 0,0 2292.530,3654.336 Z" style="stroke-width:2.0;stroke:rgb(255,255,255);stroke-linecap:round;fill:none;" />
<path d="M2214.324,3627.952 A1642.000,1642.000 40.000 0,1 1245.263,3458.265 L1227.797,3492.013 A1680.000,1680.000 0.000 0,0 2219.284,3665.627 Z" style="stroke-width:2.0;stroke:rgb(255,255,255);stroke-linecap:round;fill:rgb(15,52,135);" />
<text x="1714.4" y="3723.7" font-size="36.4px" font-family="CMUBright-Roman" style="text-anchor:end;fill:rgb(0,0,0);" transform="rotate(-80.1,1714.4,3723.7)" >Finance-Accounting</text>
<path d="M2214.324,3627.952 A1642.000,1642.000 40.000 0,1 1245.263,3458.265 L1227.797,3492.013 A1680.000,1680.000 0.000 0,0 2219.284,3665.627 Z" style="stroke-width:2.0;stroke:rgb(255,255,255);stroke-linecap:round;fill:none;" />
<path d="M1213.631,3441.453 A1642.000,1642.000 40.000 0,1 879.437,3200.209 L853.504,3227.985 A1680.000,1680.000 0.000 0,0 1195.432,3474.812 Z" style="stroke-width:2.0;stroke:rgb(255,255,255);stroke-linecap:round;fill:rgb(28,75,160);" />
<text x="990.4" y="3426.0" font-size="36.4px" font-family="CMUBright-Roman" style="text-anchor:end;fill:rgb(0,0,0);" transform="rotate(-54.2,990.4,3426.0)" >Marketing-Communication</text>
<path d="M1213.631,3441.453 A1642.000,1642.000 40.000 0,1 879.437,3200.209 L853.504,3227.985 A1680.000,1680.000 0.000 0,0 1195.432,3474.812 Z" style="stroke-width:2.0;stroke:rgb(255,255,255);stroke-linecap:round;fill:none;" />
<path d="M853.521,3175.478 A1642.000,1642.000 40.000 0,1 639.254,2918.986 L607.763,2940.253 A1680.000,1680.000 0.000 0,0 826.988,3202.682 Z" style="stroke-width:2.0;stroke:rgb(255,255,255);stroke-linecap:round;fill:rgb(42,98,180);" />
<text x="667.2" y="3129.7" font-size="36.4px" font-family="CMUBright-Roman" style="text-anchor:end;fill:rgb(0,0,0);" transform="rotate(-39.9,667.2,3129.7)" >General-Business</text>
<path d="M853.521,3175.478 A1642.000,1642.000 40.000 0,1 639.254,2918.986 L607.763,2940.253 A1680.000,1680.000 0.000 0,0 826.988,3202.682 Z" style="stroke-width:2.0;stroke:rgb(255,255,255);stroke-linecap:round;fill:none;" />
<path d="M619.530,2889.082 A1642.000,1642.000 40.000 0,1 479.680,2620.315 L444.496,2634.671 A1680.000,1680.000 0.000 0,0 587.583,2909.658 Z" style="stroke-width:2.0;stroke:rgb(255,255,255);stroke-linecap:round;fill:rgb(60,120,198);" />
<text x="457.3" y="2820.2" font-size="36.4px" font-family="CMUBright-Roman" style="text-anchor:end;fill:rgb(0,0,0);" transform="rotate(-27.5,457.3,2820.2)" >Operations-Analytics</text>
<path d="M619.530,2889.082 A1642.000,1642.000 40.000 0,1 479.680,2620.315 L444.496,2634.671 A1680.000,1680.000 0.000 0,0 587.583,2909.658 Z" style="stroke-width:2.0;stroke:rgb(255,255,255);stroke-linecap:round;fill:none;" />
<path d="M466.510,2587.002 A1642.000,1642.000 40.000 0,1 421.749,2453.087 L385.224,2463.573 A1680.000,1680.000 0.000 0,0 431.021,2600.587 Z" style="stroke-width:2.0;stroke:rgb(255,255,255);stroke-linecap:round;fill:rgb(82,145,215);" />
<text x="347.9" y="2568.6" font-size="36.4px" font-family="CMUBright-Roman" style="text-anchor:end;fill:rgb(0,0,0);" transform="rotate(-18.5,347.9,2568.6)" >Specialized-Business</text>
<path d="M466.510,2587.002 A1642.000,1642.000 40.000 0,1 421.749,2453.087 L385.224,2463.573 A1680.000,1680.000 0.000 0,0 431.021,2600.587 Z" style="stroke-width:2.0;stroke:rgb(255,255,255);stroke-linecap:round;fill:none;" />
<path d="M412.241,2418.550 A1642.000,1642.000 40.000 0,1 391.911,2331.987 L354.696,2339.670 A1680.000,1680.000 0.000 0,0 375.496,2428.236 Z" style="stroke-width:2.0;stroke:rgb(255,255,255);stroke-linecap:round;fill:rgb(108,170,228);" />
<text x="301.9" y="2411.1" font-size="36.4px" font-family="CMUBright-Roman" style="text-anchor:end;fill:rgb(0,0,0);" transform="rotate(-13.2,301.9,2411.1)" >Economics</text>
<path d="M412.241,2418.550 A1642.000,1642.000 40.000 0,1 391.911,2331.987 L354.696,2339.670 A1680.000,1680.000 0.000 0,0 375.496,2428.236 Z" style="stroke-width:2.0;stroke:rgb(255,255,255);stroke-linecap:round;fill:none;" />
<path d="M385.052,2296.827 A1642.000,1642.000 40.000 0,1 366.030,2162.194 L328.216,2165.947 A1680.000,1680.000 0.000 0,0 347.678,2303.697 Z" style="stroke-width:2.0;stroke:rgb(255,255,255);stroke-linecap:round;fill:rgb(200,108,30);" />
<text x="271.8" y="2256.8" font-size="36.4px" font-family="CMUBright-Roman" style="text-anchor:end;fill:rgb(0,0,0);" transform="rotate(-8.0,271.8,2256.8)" >Social-Sciences</text>
<path d="M385.052,2296.827 A1642.000,1642.000 40.000 0,1 366.030,2162.194 L328.216,2165.947 A1680.000,1680.000 0.000 0,0 347.678,2303.697 Z" style="stroke-width:2.0;stroke:rgb(255,255,255);stroke-linecap:round;fill:none;" />
<path d="M362.881,2126.510 A1642.000,1642.000 40.000 0,1 359.682,2074.299 L321.721,2076.018 A1680.000,1680.000 0.000 0,0 324.994,2129.438 Z" style="stroke-width:2.0;stroke:rgb(255,255,255);stroke-linecap:round;fill:rgb(220,140,52);" />
<text x="256.9" y="2119.3" font-size="36.4px" font-family="CMUBright-Roman" style="text-anchor:end;fill:rgb(0,0,0);" transform="rotate(-3.5,256.9,2119.3)" >Humanities-Liberal-Arts</text>
<path d="M362.881,2126.510 A1642.000,1642.000 40.000 0,1 359.682,2074.299 L321.721,2076.018 A1680.000,1680.000 0.000 0,0 324.994,2129.438 Z" style="stroke-width:2.0;stroke:rgb(255,255,255);stroke-linecap:round;fill:none;" />
<path d="M358.451,2038.498 A1642.000,1642.000 40.000 0,1 358.158,2022.807 L320.162,2023.335 A1680.000,1680.000 0.000 0,0 320.462,2039.389 Z" style="stroke-width:2.0;stroke:rgb(255,255,255);stroke-linecap:round;fill:rgb(235,168,78);" />
<text x="253.4" y="2045.1" font-size="36.4px" font-family="CMUBright-Roman" style="text-anchor:end;fill:rgb(0,0,0);" transform="rotate(-1.1,253.4,2045.1)" >International-Studies</text>
<path d="M358.451,2038.498 A1642.000,1642.000 40.000 0,1 358.158,2022.807 L320.162,2023.335 A1680.000,1680.000 0.000 0,0 320.462,2039.389 Z" style="stroke-width:2.0;stroke:rgb(255,255,255);stroke-linecap:round;fill:none;" />
<path d="M358.052,1986.985 A1642.000,1642.000 40.000 0,1 367.336,1825.152 L329.552,1821.105 A1680.000,1680.000 0.000 0,0 320.053,1986.684 Z" style="stroke-width:2.0;stroke:rgb(255,255,255);stroke-linecap:round;fill:rgb(175,35,42);" />
<text x="255.0" y="1912.4" font-size="36.4px" font-family="CMUBright-Roman" style="text-anchor:end;fill:rgb(0,0,0);" transform="rotate(3.3,255.0,1912.4)" >Teacher-Education</text>
<path d="M358.052,1986.985 A1642.000,1642.000 40.000 0,1 367.336,1825.152 L329.552,1821.105 A1680.000,1680.000 0.000 0,0 320.053,1986.684 Z" style="stroke-width:2.0;stroke:rgb(255,255,255);stroke-linecap:round;fill:none;" />
<path d="M371.539,1789.577 A1642.000,1642.000 40.000 0,1 376.636,1753.316 L339.067,1747.607 A1680.000,1680.000 0.000 0,0 333.852,1784.707 Z" style="stroke-width:2.0;stroke:rgb(255,255,255);stroke-linecap:round;fill:rgb(195,58,55);" />
<text x="268.1" y="1769.2" font-size="36.4px" font-family="CMUBright-Roman" style="text-anchor:end;fill:rgb(0,0,0);" transform="rotate(8.0,268.1,1769.2)" >Social-Work</text>
<path d="M371.539,1789.577 A1642.000,1642.000 40.000 0,1 376.636,1753.316 L339.067,1747.607 A1680.000,1680.000 0.000 0,0 333.852,1784.707 Z" style="stroke-width:2.0;stroke:rgb(255,255,255);stroke-linecap:round;fill:none;" />
<path d="M382.404,1717.961 A1642.000,1642.000 40.000 0,1 388.090,1687.094 L350.786,1679.853 A1680.000,1680.000 0.000 0,0 344.968,1711.434 Z" style="stroke-width:2.0;stroke:rgb(255,255,255);stroke-linecap:round;fill:rgb(215,82,72);" />
<text x="279.0" y="1698.7" font-size="36.4px" font-family="CMUBright-Roman" style="text-anchor:end;fill:rgb(0,0,0);" transform="rotate(10.4,279.0,1698.7)" >Special-Education</text>
<path d="M382.404,1717.961 A1642.000,1642.000 40.000 0,1 388.090,1687.094 L350.786,1679.853 A1680.000,1680.000 0.000 0,0 344.968,1711.434 Z" style="stroke-width:2.0;stroke:rgb(255,255,255);stroke-linecap:round;fill:none;" />
<path d="M395.300,1652.005 A1642.000,1642.000 40.000 0,1 396.416,1646.895 L359.305,1638.723 A1680.000,1680.000 0.000 0,0 358.163,1643.952 Z" style="stroke-width:2.0;stroke:rgb(255,255,255);stroke-linecap:round;fill:rgb(230,112,95);" />
<text x="289.8" y="1642.1" font-size="36.4px" font-family="CMUBright-Roman" style="text-anchor:end;fill:rgb(0,0,0);" transform="rotate(12.3,289.8,1642.1)" >Educational-Leadership</text>
<path d="M395.300,1652.005 A1642.000,1642.000 40.000 0,1 396.416,1646.895 L359.305,1638.723 A1680.000,1680.000 0.000 0,0 358.163,1643.952 Z" style="stroke-width:2.0;stroke:rgb(255,255,255);stroke-linecap:round;fill:none;" />
<path d="M404.501,1611.997 A1642.000,1642.000 40.000 0,1 423.388,1541.244 L386.901,1530.627 A1680.000,1680.000 0.000 0,0 367.577,1603.017 Z" style="stroke-width:2.0;stroke:rgb(255,255,255);stroke-linecap:round;fill:rgb(0,130,142);" />
<text x="308.7" y="1561.5" font-size="36.4px" font-family="CMUBright-Roman" style="text-anchor:end;fill:rgb(0,0,0);" transform="rotate(14.9,308.7,1561.5)" >Communication-Studies</text>
<path d="M404.501,1611.997 A1642.000,1642.000 40.000 0,1 423.388,1541.244 L386.901,1530.627 A1680.000,1680.000 0.000 0,0 367.577,1603.017 Z" style="stroke-width:2.0;stroke:rgb(255,255,255);stroke-linecap:round;fill:none;" />
<path d="M433.770,1506.960 A1642.000,1642.000 40.000 0,1 448.549,1462.261 L412.644,1449.816 A1680.000,1680.000 0.000 0,0 397.524,1495.549 Z" style="stroke-width:2.0;stroke:rgb(255,255,255);stroke-linecap:round;fill:rgb(0,165,172);" />
<text x="337.2" y="1463.4" font-size="36.4px" font-family="CMUBright-Roman" style="text-anchor:end;fill:rgb(0,0,0);" transform="rotate(18.3,337.2,1463.4)" >Journalism-Media</text>
<path d="M433.770,1506.960 A1642.000,1642.000 40.000 0,1 448.549,1462.261 L412.644,1449.816 A1680.000,1680.000 0.000 0,0 397.524,1495.549 Z" style="stroke-width:2.0;stroke:rgb(255,255,255);stroke-linecap:round;fill:none;" />
<path d="M460.649,1428.544 A1642.000,1642.000 40.000 0,1 466.181,1413.858 L430.684,1400.293 A1680.000,1680.000 0.000 0,0 425.024,1415.319 Z" style="stroke-width:2.0;stroke:rgb(255,255,255);stroke-linecap:round;fill:rgb(38,195,195);" />
<text x="359.4" y="1399.1" font-size="36.4px" font-family="CMUBright-Roman" style="text-anchor:end;fill:rgb(0,0,0);" transform="rotate(20.6,359.4,1399.1)" >Creative-Writing</text>
<path d="M460.649,1428.544 A1642.000,1642.000 40.000 0,1 466.181,1413.858 L430.684,1400.293 A1680.000,1680.000 0.000 0,0 425.024,1415.319 Z" style="stroke-width:2.0;stroke:rgb(255,255,255);stroke-linecap:round;fill:none;" />
<path d="M479.332,1380.537 A1642.000,1642.000 40.000 0,1 510.660,1308.603 L476.193,1292.602 A1680.000,1680.000 0.000 0,0 444.140,1366.201 Z" style="stroke-width:2.0;stroke:rgb(255,255,255);stroke-linecap:round;fill:rgb(180,45,112);" />
<text x="391.8" y="1317.1" font-size="36.4px" font-family="CMUBright-Roman" style="text-anchor:end;fill:rgb(0,0,0);" transform="rotate(23.5,391.8,1317.1)" >Arts-Theology</text>
<path d="M479.332,1380.537 A1642.000,1642.000 40.000 0,1 510.660,1308.603 L476.193,1292.602 A1680.000,1680.000 0.000 0,0 444.140,1366.201 Z" style="stroke-width:2.0;stroke:rgb(255,255,255);stroke-linecap:round;fill:none;" />
<path d="M526.097,1276.278 A1642.000,1642.000 40.000 0,1 530.738,1266.901 L496.736,1249.936 A1680.000,1680.000 0.000 0,0 491.987,1259.529 Z" style="stroke-width:2.0;stroke:rgb(255,255,255);stroke-linecap:round;fill:rgb(205,75,142);" />
<text x="427.1" y="1239.3" font-size="36.4px" font-family="CMUBright-Roman" style="text-anchor:end;fill:rgb(0,0,0);" transform="rotate(26.3,427.1,1239.3)" >English-Writing</text>
<path d="M526.097,1276.278 A1642.000,1642.000 40.000 0,1 530.738,1266.901 L496.736,1249.936 A1680.000,1680.000 0.000 0,0 491.987,1259.529 Z" style="stroke-width:2.0;stroke:rgb(255,255,255);stroke-linecap:round;fill:none;" />
<path d="M547.080,1235.024 A1642.000,1642.000 40.000 0,1 549.525,1230.399 L515.957,1212.589 A1680.000,1680.000 0.000 0,0 513.456,1217.321 Z" style="stroke-width:2.0;stroke:rgb(255,255,255);stroke-linecap:round;fill:rgb(225,110,168);" />
<text x="447.9" y="1197.7" font-size="36.4px" font-family="CMUBright-Roman" style="text-anchor:end;fill:rgb(0,0,0);" transform="rotate(27.9,447.9,1197.7)" >Languages</text>
<path d="M547.080,1235.024 A1642.000,1642.000 40.000 0,1 549.525,1230.399 L515.957,1212.589 A1680.000,1680.000 0.000 0,0 513.456,1217.321 Z" style="stroke-width:2.0;stroke:rgb(255,255,255);stroke-linecap:round;fill:none;" />
<path d="M566.659,1198.940 A1642.000,1642.000 40.000 0,1 748.337,937.219 L719.370,912.624 A1680.000,1680.000 0.000 0,0 533.488,1180.402 Z" style="stroke-width:2.0;stroke:rgb(255,255,255);stroke-linecap:round;fill:rgb(88,40,138);" />
<text x="555.7" y="1016.9" font-size="36.4px" font-family="CMUBright-Roman" style="text-anchor:end;fill:rgb(0,0,0);" transform="rotate(34.8,555.7,1016.9)" >Biological-Sciences</text>
<path d="M566.659,1198.940 A1642.000,1642.000 40.000 0,1 748.337,937.219 L719.370,912.624 A1680.000,1680.000 0.000 0,0 533.488,1180.402 Z" style="stroke-width:2.0;stroke:rgb(255,255,255);stroke-linecap:round;fill:none;" />
<path d="M771.819,910.167 A1642.000,1642.000 40.000 0,1 821.633,856.490 L794.362,830.027 A1680.000,1680.000 0.000 0,0 743.396,884.946 Z" style="stroke-width:2.0;stroke:rgb(255,255,255);stroke-linecap:round;fill:rgb(115,65,165);" />
<text x="710.8" y="820.7" font-size="36.4px" font-family="CMUBright-Roman" style="text-anchor:end;fill:rgb(0,0,0);" transform="rotate(42.9,710.8,820.7)" >Health-Wellness</text>
<path d="M771.819,910.167 A1642.000,1642.000 40.000 0,1 821.633,856.490 L794.362,830.027 A1680.000,1680.000 0.000 0,0 743.396,884.946 Z" style="stroke-width:2.0;stroke:rgb(255,255,255);stroke-linecap:round;fill:none;" />
<path d="M846.858,831.057 A1642.000,1642.000 40.000 0,1 873.212,805.633 L847.135,777.993 A1680.000,1680.000 0.000 0,0 820.172,804.004 Z" style="stroke-width:2.0;stroke:rgb(255,255,255);stroke-linecap:round;fill:rgb(140,92,188);" />
<text x="775.8" y="753.4" font-size="36.4px" font-family="CMUBright-Roman" style="text-anchor:end;fill:rgb(0,0,0);" transform="rotate(46.0,775.8,753.4)" >Physical-Sciences</text>
<path d="M846.858,831.057 A1642.000,1642.000 40.000 0,1 873.212,805.633 L847.135,777.993 A1680.000,1680.000 0.000 0,0 820.172,804.004 Z" style="stroke-width:2.0;stroke:rgb(255,255,255);stroke-linecap:round;fill:none;" />
<path d="M899.535,781.337 A1642.000,1642.000 40.000 0,1 903.423,777.837 L878.045,749.553 A1680.000,1680.000 0.000 0,0 874.067,753.134 Z" style="stroke-width:2.0;stroke:rgb(255,255,255);stroke-linecap:round;fill:rgb(165,120,208);" />
<text x="821.8" y="709.8" font-size="36.4px" font-family="CMUBright-Roman" style="text-anchor:end;fill:rgb(0,0,0);" transform="rotate(48.0,821.8,709.8)" >Environmental-Sciences</text>
<path d="M899.535,781.337 A1642.000,1642.000 40.000 0,1 903.423,777.837 L878.045,749.553 A1680.000,1680.000 0.000 0,0 874.067,753.134 Z" style="stroke-width:2.0;stroke:rgb(255,255,255);stroke-linecap:round;fill:none;" />
<path d="M930.345,754.206 A1642.000,1642.000 40.000 0,1 1638.399,398.311 L1630.030,361.244 A1680.000,1680.000 0.000 0,0 905.590,725.375 Z" style="stroke-width:2.0;stroke:rgb(255,255,255);stroke-linecap:round;fill:rgb(22,118,50);" />
<text x="1201.1" y="446.2" font-size="36.4px" font-family="CMUBright-Roman" style="text-anchor:end;fill:rgb(0,0,0);" transform="rotate(63.3,1201.1,446.2)" >Engineering-Disciplines</text>
<path d="M930.345,754.206 A1642.000,1642.000 40.000 0,1 1638.399,398.311 L1630.030,361.244 A1680.000,1680.000 0.000 0,0 905.590,725.375 Z" style="stroke-width:2.0;stroke:rgb(255,255,255);stroke-linecap:round;fill:none;" />
<path d="M1673.425,390.804 A1642.000,1642.000 40.000 0,1 1964.180,358.391 L1963.351,320.400 A1680.000,1680.000 0.000 0,0 1665.867,353.563 Z" style="stroke-width:2.0;stroke:rgb(255,255,255);stroke-linecap:round;fill:rgb(48,158,75);" />
<text x="1791.0" y="265.3" font-size="36.4px" font-family="CMUBright-Roman" style="text-anchor:end;fill:rgb(0,0,0);" transform="rotate(83.6,1791.0,265.3)" >Computer-Science-IT</text>
<path d="M1673.425,390.804 A1642.000,1642.000 40.000 0,1 1964.180,358.391 L1963.351,320.400 A1680.000,1680.000 0.000 0,0 1665.867,353.563 Z" style="stroke-width:2.0;stroke:rgb(255,255,255);stroke-linecap:round;fill:none;" />
</g>
<g id="track_0">
<path d="M 3625.214,1965.491 A 1625.580,1625.580 0.00 0,1 3625.3,1970.7 L 3625.3,1970.7 3559.5,1970.6 3492.1,1968.1 3423.3,1963.2 3353.1,1956.0 3281.7,1946.7 3209.1,1935.1 3135.6,1921.6 3061.1,1906.0 2985.9,1888.6 2910.0,1869.2 2833.5,1848.2 2756.5,1825.3 2679.2,1800.9 2601.7,1774.9 2524.1,1747.3 2446.5,1718.3 2369.0,1687.9 2291.8,1656.1 2214.9,1623.1 2138.5,1588.8 2062.7,1553.4 1987.7,1516.8 1913.4,1479.2 1840.2,1440.5 1768.0,1400.9 1697.0,1360.3 1627.3,1318.9 1559.1,1276.6 1492.5,1233.5 1427.6,1189.6 1364.5,1145.0 1303.4,1099.8 1244.3,1053.8 1187.5,1007.3 1133.0,960.2 1081.0,912.6 1031.6,864.4 984.9,815.8 941.0,766.7  A 1625.580,1625.580 0.00 0,1 945.0,763.3 L 945.0,763.3 988.6,812.5 1035.1,861.2 1084.3,909.5 1136.2,957.2 1190.5,1004.4 1247.2,1051.0 1306.0,1097.0 1367.0,1142.4 1429.9,1187.0 1494.7,1231.0 1561.2,1274.1 1629.2,1316.5 1698.8,1358.0 1769.6,1398.6 1841.7,1438.2 1914.8,1476.9 1989.0,1514.5 2063.9,1551.1 2139.6,1586.5 2215.9,1620.7 2292.7,1653.7 2369.9,1685.4 2447.3,1715.7 2524.8,1744.7 2602.4,1772.1 2679.8,1798.0 2757.0,1822.3 2833.9,1845.0 2910.4,1865.9 2986.3,1885.1 3061.5,1902.4 3135.9,1917.8 3209.4,1931.2 3281.9,1942.5 3353.2,1951.7 3423.3,1958.6 3492.1,1963.3 3559.5,1965.6 3625.2,1965.5  Z" style="stroke-width: 0.0;  fill: rgb(22,118,50);" />
<path d="M 3625.315,1970.669 A 1625.580,1625.580 0.00 0,1 3625.4,1975.8 L 3625.4,1975.8 3558.9,1975.6 3490.8,1973.0 3421.2,1968.1 3350.2,1961.0 3277.9,1951.7 3204.5,1940.5 3130.0,1927.3 3054.5,1912.2 2978.2,1895.4 2901.1,1876.8 2823.3,1856.6 2745.1,1834.8 2666.4,1811.5 2587.4,1786.8 2508.2,1760.7 2428.9,1733.2 2349.7,1704.6 2270.6,1674.7 2191.7,1643.7 2113.3,1611.5 2035.3,1578.3 1958.0,1544.2 1881.4,1509.0 1805.6,1473.0 1730.9,1436.0 1657.2,1398.2 1584.8,1359.7 1513.7,1320.3 1444.2,1280.2 1376.2,1239.3 1310.0,1197.8 1245.6,1155.6 1183.2,1112.8 1123.0,1069.3 1065.0,1025.2 1009.4,980.4 956.4,935.1 906.0,889.2 858.4,842.7  A 1625.580,1625.580 0.00 0,1 862.1,839.1 L 862.1,839.1 909.5,885.7 959.7,931.7 1012.6,977.1 1068.0,1022.0 1125.8,1066.2 1185.8,1109.8 1248.1,1152.7 1312.3,1195.0 1378.4,1236.6 1446.2,1277.5 1515.6,1317.7 1586.6,1357.2 1658.9,1395.8 1732.4,1433.6 1807.0,1470.6 1882.7,1506.7 1959.2,1541.8 2036.4,1576.0 2114.3,1609.1 2192.7,1641.2 2271.4,1672.2 2350.5,1702.0 2429.7,1730.6 2508.9,1758.0 2588.0,1784.0 2666.9,1808.6 2745.6,1831.8 2823.8,1853.4 2901.5,1873.5 2978.5,1891.9 3054.8,1908.6 3130.2,1923.5 3204.7,1936.5 3278.1,1947.6 3350.3,1956.6 3421.3,1963.5 3490.8,1968.2 3558.9,1970.6 3625.3,1970.7  Z" style="stroke-width: 0.0;  fill: rgb(140,92,188);" />
<path d="M 3625.401,1975.847 A 1625.580,1625.580 0.00 0,1 3625.5,1986.2 L 3625.5,1986.2 3558.3,1985.6 3489.4,1982.6 3419.1,1977.5 3347.4,1970.2 3274.3,1960.9 3200.0,1949.8 3124.6,1936.7 3048.2,1922.0 2970.9,1905.5 2892.8,1887.5 2813.9,1868.0 2734.5,1847.1 2654.6,1824.8 2574.3,1801.3 2493.7,1776.5 2413.0,1750.5 2332.2,1723.4 2251.5,1695.3 2170.9,1666.2 2090.6,1636.1 2010.8,1605.1 1931.5,1573.2 1852.8,1540.5 1774.9,1507.0 1697.9,1472.7 1621.8,1437.7 1547.0,1402.0 1473.4,1365.5 1401.1,1328.4 1330.4,1290.6 1261.4,1252.1 1194.1,1213.0 1128.7,1173.3 1065.4,1132.9 1004.2,1091.9 945.4,1050.2 889.0,1007.8 835.2,964.8 784.1,921.1  A 1625.580,1625.580 0.00 0,1 791.0,913.3 L 791.0,913.3 841.7,957.3 895.2,1000.6 951.2,1043.2 1009.7,1085.1 1070.5,1126.4 1133.6,1167.0 1198.6,1207.0 1265.6,1246.3 1334.4,1284.9 1404.9,1322.9 1476.8,1360.2 1550.2,1396.7 1624.9,1432.6 1700.7,1467.7 1777.5,1502.1 1855.2,1535.6 1933.7,1568.4 2012.9,1600.2 2092.6,1631.2 2172.7,1661.2 2253.1,1690.3 2333.7,1718.3 2414.4,1745.2 2495.0,1771.0 2575.5,1795.7 2655.7,1819.0 2735.5,1841.1 2814.8,1861.7 2893.6,1880.9 2971.6,1898.6 3048.9,1914.7 3125.2,1929.2 3200.5,1941.8 3274.7,1952.6 3347.7,1961.5 3419.3,1968.4 3489.6,1973.1 3558.3,1975.6 3625.4,1975.8  Z" style="stroke-width: 0.0;  fill: rgb(115,65,165);" />
<path d="M 3625.521,1986.204 A 1625.580,1625.580 0.00 0,1 3625.6,2001.7 L 3625.6,2001.7 3556.1,2000.6 3485.0,1997.4 3412.4,1992.3 3338.3,1985.4 3262.8,1976.9 3186.1,1966.8 3108.2,1955.4 3029.1,1942.6 2949.1,1928.7 2868.1,1913.6 2786.2,1897.5 2703.6,1880.5 2620.4,1862.6 2536.6,1844.0 2452.4,1824.6 2367.8,1804.6 2283.0,1784.0 2198.0,1762.8 2113.0,1741.1 2028.0,1718.9 1943.2,1696.3 1858.7,1673.2 1774.7,1649.7 1691.1,1625.9 1608.1,1601.6 1525.9,1576.9 1444.6,1551.8 1364.2,1526.3 1284.9,1500.3 1206.9,1473.9 1130.2,1446.9 1055.0,1419.4 981.4,1391.3 909.6,1362.6 839.6,1333.1 771.6,1302.9 705.8,1271.9 642.2,1239.9 581.0,1207.0  A 1625.580,1625.580 0.00 0,1 588.6,1193.4 L 588.6,1193.4 649.3,1226.9 712.5,1259.3 777.9,1290.8 845.5,1321.5 915.1,1351.4 986.5,1380.6 1059.8,1409.1 1134.7,1437.0 1211.0,1464.3 1288.8,1491.1 1367.8,1517.4 1447.9,1543.2 1529.0,1568.5 1611.0,1593.4 1693.8,1617.9 1777.2,1641.9 1861.1,1665.5 1945.4,1688.6 2030.1,1711.2 2114.9,1733.4 2199.8,1755.0 2284.7,1776.1 2369.4,1796.5 2453.9,1816.3 2538.1,1835.4 2621.8,1853.8 2704.9,1871.3 2787.4,1888.0 2869.2,1903.7 2950.1,1918.3 3030.1,1931.8 3109.1,1944.1 3186.9,1955.0 3263.5,1964.5 3338.9,1972.4 3412.8,1978.7 3485.3,1983.2 3556.2,1985.7 3625.5,1986.2  Z" style="stroke-width: 0.0;  fill: rgb(88,40,138);" />
<path d="M 3625.579,2001.740 A 1625.580,1625.580 0.00 0,1 3625.5,2012.1 L 3625.5,2012.1 3553.9,2010.6 3480.8,2007.4 3406.1,2002.7 3330.0,1996.5 3252.6,1989.0 3174.0,1980.5 3094.1,1970.9 3013.2,1960.5 2931.2,1949.4 2848.2,1937.7 2764.4,1925.4 2679.9,1912.7 2594.6,1899.7 2508.7,1886.4 2422.4,1872.9 2335.6,1859.2 2248.4,1845.5 2161.1,1831.7 2073.5,1817.9 1986.0,1804.1 1898.4,1790.4 1811.1,1776.6 1723.9,1762.9 1637.1,1749.2 1550.8,1735.5 1465.0,1721.8 1379.9,1708.0 1295.5,1694.1 1212.0,1680.0 1129.5,1665.7 1048.0,1651.0 967.8,1636.0 888.9,1620.6 811.4,1604.5 735.4,1587.8 661.1,1570.3 588.6,1551.9 518.0,1532.5 449.4,1511.9  A 1625.580,1625.580 0.00 0,1 452.6,1502.0 L 452.6,1502.0 520.9,1523.0 591.3,1542.9 663.6,1561.6 737.7,1579.5 813.4,1596.5 890.7,1612.9 969.5,1628.7 1049.6,1644.0 1130.9,1658.9 1213.3,1673.5 1296.8,1687.8 1381.0,1702.0 1466.1,1716.0 1551.8,1729.9 1638.1,1743.7 1724.9,1757.5 1812.0,1771.3 1899.3,1785.1 1986.8,1798.9 2074.4,1812.7 2161.9,1826.5 2249.2,1840.2 2336.3,1853.8 2423.1,1867.3 2509.5,1880.7 2595.4,1893.8 2680.6,1906.6 2765.2,1919.1 2848.9,1931.1 2931.8,1942.5 3013.8,1953.4 3094.7,1963.4 3174.5,1972.6 3253.1,1980.8 3330.5,1987.8 3406.5,1993.6 3481.0,1998.0 3554.1,2000.7 3625.6,2001.7  Z" style="stroke-width: 0.0;  fill: rgb(0,165,172);" />
<path d="M 3625.535,2012.098 A 1625.580,1625.580 0.00 0,1 3625.1,2038.0 L 3625.1,2038.0 3552.7,2035.4 3478.8,2031.2 3403.5,2025.6 3326.8,2018.7 3248.8,2010.6 3169.6,2001.6 3089.3,1991.8 3007.9,1981.3 2925.5,1970.2 2842.2,1958.7 2758.0,1946.9 2673.1,1934.8 2587.5,1922.6 2501.3,1910.3 2414.6,1898.0 2327.5,1885.8 2240.1,1873.7 2152.4,1861.7 2064.5,1849.9 1976.6,1838.4 1888.6,1827.0 1800.8,1815.8 1713.2,1804.9 1625.9,1794.1 1539.0,1783.6 1452.6,1773.1 1366.7,1762.8 1281.6,1752.4 1197.3,1742.1 1113.8,1731.6 1031.4,1720.9 950.0,1710.0 869.9,1698.7 791.0,1686.9 713.6,1674.5 637.7,1661.3 563.5,1647.2 491.1,1632.2 420.5,1615.9  A 1625.580,1625.580 0.00 0,1 426.8,1590.8 L 426.8,1590.8 496.8,1608.1 568.7,1624.2 642.5,1639.2 717.9,1653.3 794.9,1666.6 873.4,1679.3 953.2,1691.5 1034.3,1703.2 1116.5,1714.6 1199.8,1725.8 1283.9,1736.8 1368.9,1747.6 1454.6,1758.5 1540.9,1769.4 1627.8,1780.3 1715.0,1791.4 1802.6,1802.6 1890.4,1813.9 1978.3,1825.3 2066.2,1836.9 2154.1,1848.6 2241.8,1860.4 2329.3,1872.3 2416.4,1884.2 2503.1,1896.1 2589.3,1908.0 2674.9,1919.7 2759.8,1931.2 2844.0,1942.3 2927.3,1953.1 3009.6,1963.4 3091.0,1973.1 3171.2,1982.0 3250.3,1990.1 3328.1,1997.1 3404.6,2003.0 3479.8,2007.6 3553.4,2010.7 3625.5,2012.1  Z" style="stroke-width: 0.0;  fill: rgb(0,130,142);" />
<path d="M 3625.136,2037.988 A 1625.580,1625.580 0.00 0,1 3625.0,2043.2 L 3625.0,2043.2 3550.9,2041.9 3475.3,2042.0 3398.4,2043.1 3320.2,2045.2 3240.7,2047.9 3160.1,2051.2 3078.4,2055.0 2995.8,2058.9 2912.2,2063.0 2827.8,2067.1 2742.6,2071.1 2656.8,2074.9 2570.4,2078.4 2483.5,2081.5 2396.2,2084.2 2308.5,2086.4 2220.5,2088.0 2132.3,2089.1 2044.0,2089.5 1955.7,2089.4 1867.4,2088.7 1779.2,2087.3 1691.3,2085.4 1603.6,2083.0 1516.2,2080.0 1429.3,2076.6 1342.9,2072.9 1257.1,2068.8 1172.0,2064.6 1087.6,2060.2 1004.1,2055.8 921.4,2051.6 839.8,2047.6 759.2,2044.1 679.7,2041.1 601.5,2038.8 524.5,2037.4 449.0,2037.1 374.9,2038.1  A 1625.580,1625.580 0.00 0,1 374.8,2032.9 L 374.8,2032.9 448.9,2032.2 524.5,2032.7 601.5,2034.3 679.8,2036.8 759.3,2040.0 839.9,2043.7 921.6,2047.9 1004.2,2052.3 1087.8,2056.8 1172.2,2061.3 1257.3,2065.7 1343.1,2069.9 1429.5,2073.7 1516.4,2077.2 1603.7,2080.2 1691.4,2082.7 1779.3,2084.7 1867.5,2086.0 1955.7,2086.8 2044.0,2086.9 2132.3,2086.5 2220.4,2085.4 2308.4,2083.7 2396.1,2081.4 2483.4,2078.7 2570.3,2075.5 2656.7,2071.9 2742.5,2068.0 2827.6,2063.9 2912.0,2059.6 2995.6,2055.4 3078.3,2051.2 3159.9,2047.3 3240.6,2043.8 3320.1,2040.9 3398.4,2038.6 3475.4,2037.3 3551.0,2037.0 3625.1,2038.0  Z" style="stroke-width: 0.0;  fill: rgb(235,168,78);" />
<path d="M 3625.007,2043.166 A 1625.580,1625.580 0.00 0,1 3624.7,2053.5 L 3624.7,2053.5 3551.2,2051.9 3476.2,2051.6 3399.8,2052.5 3322.0,2054.5 3242.9,2057.2 3162.6,2060.7 3081.2,2064.6 2998.8,2069.0 2915.4,2073.6 2831.1,2078.3 2746.0,2083.1 2660.3,2087.8 2573.9,2092.3 2486.9,2096.7 2399.5,2100.7 2311.7,2104.4 2223.6,2107.7 2135.2,2110.5 2046.8,2113.0 1958.3,2114.9 1869.8,2116.4 1781.4,2117.5 1693.2,2118.1 1605.4,2118.3 1517.8,2118.1 1430.8,2117.6 1344.3,2116.9 1258.4,2116.0 1173.2,2115.0 1088.8,2113.9 1005.3,2113.0 922.7,2112.3 841.2,2112.0 760.9,2112.1 681.7,2112.8 603.9,2114.3 527.5,2116.8 452.6,2120.4 379.3,2125.2  A 1625.580,1625.580 0.00 0,1 378.5,2114.9 L 378.5,2114.9 452.0,2110.5 527.0,2107.3 603.6,2105.3 681.5,2104.2 760.7,2103.9 841.1,2104.1 922.7,2104.9 1005.3,2105.9 1088.8,2107.1 1173.2,2108.4 1258.4,2109.7 1344.3,2110.8 1430.9,2111.8 1517.9,2112.4 1605.4,2112.7 1693.2,2112.7 1781.4,2112.1 1869.7,2111.2 1958.2,2109.7 2046.6,2107.8 2135.1,2105.3 2223.4,2102.4 2311.4,2099.0 2399.2,2095.2 2486.6,2091.0 2573.5,2086.5 2659.9,2081.7 2745.7,2076.8 2830.7,2071.8 2915.0,2066.7 2998.4,2061.8 3080.9,2057.2 3162.3,2052.8 3242.7,2049.0 3321.8,2045.9 3399.7,2043.5 3476.3,2042.2 3551.4,2042.0 3625.0,2043.2  Z" style="stroke-width: 0.0;  fill: rgb(220,140,52);" />
<path d="M 3624.699,2053.519 A 1625.580,1625.580 0.00 0,1 3624.5,2058.7 L 3624.5,2058.7 3552.9,2057.0 3479.6,2057.0 3404.8,2058.5 3328.5,2061.4 3250.8,2065.4 3171.8,2070.5 3091.6,2076.5 3010.2,2083.3 2927.8,2090.8 2844.4,2098.9 2760.1,2107.4 2675.1,2116.3 2589.3,2125.5 2502.9,2134.9 2416.0,2144.5 2328.7,2154.3 2241.0,2164.1 2153.1,2173.9 2065.0,2183.7 1976.9,2193.5 1888.9,2203.3 1800.9,2213.0 1713.3,2222.7 1625.9,2232.5 1539.0,2242.2 1452.7,2252.0 1367.0,2261.8 1282.1,2271.9 1198.0,2282.1 1114.9,2292.5 1032.8,2303.4 951.9,2314.6 872.4,2326.4 794.2,2338.8 717.5,2351.9 642.4,2365.9 569.1,2380.9 497.6,2397.0 428.1,2414.4  A 1625.580,1625.580 0.00 0,1 426.8,2409.4 L 426.8,2409.4 496.4,2392.2 568.0,2376.3 641.4,2361.5 716.6,2347.7 793.4,2334.7 871.6,2322.5 951.3,2310.9 1032.2,2299.8 1114.3,2289.1 1197.5,2278.8 1281.6,2268.7 1366.6,2258.8 1452.3,2249.0 1538.7,2239.4 1625.6,2229.7 1712.9,2220.0 1800.6,2210.4 1888.6,2200.6 1976.6,2190.9 2064.8,2181.1 2152.8,2171.2 2240.7,2161.4 2328.4,2151.5 2415.8,2141.8 2502.7,2132.1 2589.1,2122.6 2674.8,2113.2 2759.9,2104.2 2844.2,2095.6 2927.6,2087.4 3010.0,2079.7 3091.4,2072.8 3171.7,2066.6 3250.7,2061.3 3328.4,2057.1 3404.8,2054.0 3479.7,2052.3 3553.0,2052.1 3624.7,2053.5  Z" style="stroke-width: 0.0;  fill: rgb(108,170,228);" />
<path d="M 3624.520,2058.694 A 1625.580,1625.580 0.00 0,1 3623.6,2079.4 L 3623.6,2079.4 3553.2,2077.0 3481.2,2076.4 3407.4,2077.4 3332.2,2080.1 3255.5,2084.1 3177.5,2089.4 3098.2,2095.8 3017.7,2103.3 2936.1,2111.8 2853.6,2121.1 2770.1,2131.1 2685.8,2141.8 2600.8,2153.1 2515.2,2164.9 2429.1,2177.2 2342.6,2189.8 2255.7,2202.9 2168.6,2216.3 2081.4,2229.9 1994.2,2243.8 1907.1,2258.0 1820.2,2272.4 1733.6,2287.1 1647.4,2302.0 1561.8,2317.2 1476.7,2332.6 1392.5,2348.3 1309.0,2364.4 1226.6,2380.9 1145.2,2397.8 1065.1,2415.2 986.3,2433.1 908.9,2451.7 833.1,2470.9 759.0,2491.0 686.7,2511.9 616.3,2533.9 548.0,2556.9 481.8,2581.1  A 1625.580,1625.580 0.00 0,1 474.6,2561.7 L 474.6,2561.7 541.2,2538.2 610.1,2515.9 680.9,2494.7 753.7,2474.5 828.2,2455.1 904.4,2436.5 982.1,2418.6 1061.3,2401.2 1141.7,2384.4 1223.3,2368.0 1306.0,2352.0 1389.6,2336.4 1474.1,2321.0 1559.3,2305.9 1645.2,2291.0 1731.5,2276.3 1818.3,2261.8 1905.3,2247.5 1992.5,2233.4 2079.8,2219.4 2167.1,2205.7 2254.3,2192.2 2341.2,2179.0 2427.8,2166.0 2514.0,2153.4 2599.7,2141.3 2684.8,2129.5 2769.1,2118.4 2852.7,2107.8 2935.3,2098.0 3017.0,2088.9 3097.6,2080.7 3177.1,2073.6 3255.3,2067.5 3332.1,2062.7 3407.6,2059.3 3481.5,2057.4 3553.8,2057.1 3624.5,2058.7  Z" style="stroke-width: 0.0;  fill: rgb(82,145,215);" />
<path d="M 3623.640,2079.391 A 1625.580,1625.580 0.00 0,1 3622.5,2100.1 L 3622.5,2100.1 3554.3,2097.0 3484.4,2096.1 3412.9,2097.1 3339.8,2100.0 3265.2,2104.7 3189.3,2111.1 3112.1,2119.1 3033.8,2128.5 2954.4,2139.4 2874.1,2151.5 2792.9,2165.0 2711.0,2179.6 2628.4,2195.2 2545.3,2212.0 2461.7,2229.7 2377.9,2248.3 2293.9,2267.9 2209.7,2288.2 2125.6,2309.4 2041.6,2331.3 1957.9,2353.9 1874.5,2377.3 1791.7,2401.3 1709.4,2426.0 1627.9,2451.4 1547.2,2477.4 1467.5,2504.1 1388.8,2531.4 1311.5,2559.4 1235.4,2588.0 1160.9,2617.3 1087.9,2647.4 1016.7,2678.1 947.3,2709.7 880.0,2742.0 814.8,2775.2 751.8,2809.2 691.3,2844.2 633.3,2880.2  A 1625.580,1625.580 0.00 0,1 622.2,2862.7 L 622.2,2862.7 680.9,2827.3 742.0,2792.9 805.6,2759.5 871.4,2726.9 939.3,2695.1 1009.2,2664.1 1080.9,2633.9 1154.3,2604.4 1229.3,2575.5 1305.8,2547.3 1383.6,2519.7 1462.6,2492.8 1542.7,2466.4 1623.7,2440.7 1705.5,2415.5 1788.1,2391.0 1871.2,2367.1 1954.9,2343.8 2038.8,2321.1 2123.0,2299.1 2207.4,2277.9 2291.7,2257.3 2375.9,2237.6 2460.0,2218.6 2543.7,2200.6 2627.0,2183.5 2709.7,2167.3 2791.8,2152.2 2873.1,2138.3 2953.6,2125.5 3033.2,2114.0 3111.7,2103.9 3189.0,2095.2 3265.1,2088.1 3339.9,2082.6 3413.2,2078.9 3485.0,2077.1 3555.2,2077.2 3623.6,2079.4  Z" style="stroke-width: 0.0;  fill: rgb(60,120,198);" />
<path d="M 3622.497,2100.075 A 1625.580,1625.580 0.00 0,1 3619.0,2146.5 L 3619.0,2146.5 3553.4,2141.9 3486.1,2139.6 3417.2,2139.5 3346.8,2141.6 3275.0,2145.9 3201.9,2152.2 3127.7,2160.5 3052.4,2170.7 2976.2,2182.8 2899.3,2196.7 2821.6,2212.4 2743.4,2229.7 2664.7,2248.7 2585.7,2269.3 2506.5,2291.4 2427.2,2314.9 2348.0,2339.9 2268.9,2366.3 2190.1,2394.0 2111.6,2422.9 2033.8,2453.1 1956.5,2484.5 1880.1,2517.0 1804.5,2550.7 1729.9,2585.4 1656.5,2621.1 1584.4,2657.8 1513.7,2695.4 1444.5,2734.0 1377.0,2773.5 1311.2,2813.8 1247.4,2854.9 1185.6,2896.9 1125.9,2939.6 1068.6,2983.0 1013.7,3027.2 961.4,3072.0 911.8,3117.6 865.0,3163.7  A 1625.580,1625.580 0.00 0,1 832.1,3130.7 L 832.1,3130.7 880.6,3085.5 931.9,3041.0 985.8,2997.1 1042.3,2953.9 1101.1,2911.4 1162.2,2869.7 1225.5,2828.6 1290.7,2788.3 1357.8,2748.8 1426.6,2710.1 1497.1,2672.1 1569.0,2635.0 1642.3,2598.8 1716.7,2563.4 1792.3,2529.0 1868.9,2495.5 1946.3,2463.0 2024.4,2431.6 2103.2,2401.2 2182.4,2372.0 2262.0,2343.9 2341.8,2317.0 2421.7,2291.3 2501.7,2267.0 2581.5,2244.0 2661.1,2222.5 2740.3,2202.4 2819.1,2183.8 2897.3,2166.9 2974.8,2151.6 3051.5,2138.0 3127.2,2126.2 3201.9,2116.3 3275.5,2108.3 3347.9,2102.3 3418.8,2098.5 3488.3,2096.7 3556.3,2097.2 3622.5,2100.1  Z" style="stroke-width: 0.0;  fill: rgb(42,98,180);" />
<path d="M 3618.961,2146.548 A 1625.580,1625.580 0.00 0,1 3591.6,2330.9 L 3591.6,2330.9 3530.5,2319.5 3467.6,2310.6 3403.2,2304.0 3337.4,2299.9 3270.3,2298.1 3202.2,2298.8 3133.0,2301.8 3063.1,2307.2 2992.5,2315.0 2921.3,2325.1 2849.8,2337.5 2778.1,2352.2 2706.2,2369.2 2634.5,2388.5 2562.8,2409.9 2491.5,2433.6 2420.7,2459.3 2350.4,2487.1 2280.8,2516.9 2212.1,2548.7 2144.3,2582.4 2077.6,2618.0 2012.1,2655.3 1947.9,2694.3 1885.2,2735.0 1824.0,2777.3 1764.6,2821.0 1706.9,2866.1 1651.1,2912.6 1597.3,2960.2 1545.7,3009.0 1496.3,3058.8 1449.2,3109.5 1404.6,3161.1 1362.5,3213.3 1323.0,3266.2 1286.3,3319.5 1252.4,3373.1 1221.5,3427.0  A 1625.580,1625.580 0.00 0,1 1063.3,3328.6 L 1063.3,3328.6 1101.4,3276.8 1142.4,3225.5 1186.2,3174.5 1232.7,3124.0 1281.8,3074.1 1333.4,3024.8 1387.3,2976.2 1443.4,2928.3 1501.6,2881.3 1561.8,2835.1 1623.8,2789.9 1687.6,2745.7 1753.1,2702.6 1820.0,2660.6 1888.3,2619.8 1957.8,2580.2 2028.5,2542.0 2100.2,2505.2 2172.8,2469.8 2246.1,2435.8 2320.1,2403.5 2394.6,2372.7 2469.5,2343.6 2544.6,2316.2 2620.0,2290.6 2695.3,2266.8 2770.5,2244.9 2845.5,2224.9 2920.1,2206.9 2994.3,2190.9 3067.8,2177.0 3140.6,2165.2 3212.6,2155.6 3283.5,2148.3 3353.4,2143.2 3422.0,2140.4 3489.2,2140.0 3554.9,2142.1 3619.0,2146.5  Z" style="stroke-width: 0.0;  fill: rgb(28,75,160);" />
<path d="M 3591.554,2330.857 A 1625.580,1625.580 0.00 0,1 3581.4,2376.3 L 3581.4,2376.3 3525.7,2364.3 3468.9,2354.4 3411.4,2346.8 3353.4,2341.6 3295.2,2338.9 3236.9,2338.7 3178.7,2341.1 3121.0,2346.1 3063.7,2353.8 3007.3,2364.2 2951.7,2377.3 2897.3,2393.1 2844.1,2411.6 2792.3,2432.9 2742.1,2456.8 2693.5,2483.4 2646.7,2512.6 2601.9,2544.4 2559.0,2578.7 2518.3,2615.4 2479.8,2654.5 2443.6,2695.9 2409.7,2739.4 2378.3,2785.0 2349.3,2832.5 2322.9,2881.9 2299.0,2932.9 2277.7,2985.4 2258.9,3039.3 2242.8,3094.4 2229.3,3150.5 2218.4,3207.5 2210.1,3265.1 2204.3,3323.1 2201.0,3381.3 2200.3,3439.5 2201.9,3497.5 2205.9,3555.0 2212.2,3611.7  A 1625.580,1625.580 0.00 0,1 2165.9,3617.1 L 2165.9,3617.1 2161.2,3559.9 2158.9,3501.8 2159.0,3443.3 2161.6,3384.5 2166.8,3325.7 2174.4,3267.0 2184.7,3208.8 2197.5,3151.1 2212.9,3094.2 2231.0,3038.2 2251.6,2983.5 2274.9,2930.0 2300.7,2878.0 2329.0,2827.5 2359.8,2778.9 2393.0,2732.1 2428.6,2687.3 2466.5,2644.6 2506.7,2604.2 2549.0,2566.0 2593.4,2530.2 2639.7,2496.8 2687.9,2466.0 2737.9,2437.7 2789.4,2412.1 2842.5,2389.1 2896.9,2368.8 2952.5,2351.2 3009.1,2336.3 3066.6,2324.0 3124.8,2314.5 3183.4,2307.7 3242.5,2303.4 3301.6,2301.8 3360.7,2302.8 3419.4,2306.2 3477.6,2312.1 3535.1,2320.3 3591.6,2330.9  Z" style="stroke-width: 0.0;  fill: rgb(15,52,135);" />
</g>
<defs>
<pattern id="hline" width="10" height="10" patternTransform="rotate(0 0 0)" patternUnits="userSpaceOnUse"><line x1="0" y1="0" x2="10" y2="0" style="stroke:black;stroke-width:5" /></pattern>
<pattern id="checker" width="10" height="10" patternTransform="rotate(45 0 0)" patternUnits="userSpaceOnUse"><line x1="0" y1="0" x2="10" y2="0" style="stroke:black;stroke-width:5" /><line x1="0" y1="0" x2="0" y2="10" style="stroke:black;stroke-width:4" /></pattern>
<pattern id="hline-sparse" width="10" height="10" patternTransform="rotate(0 0 0)" patternUnits="userSpaceOnUse"><line x1="0" y1="0" x2="10" y2="0" style="stroke:black;stroke-width:2" /></pattern>
<pattern id="vline-sparse" width="10" height="10" patternTransform="rotate(0 0 0)" patternUnits="userSpaceOnUse"><line x1="0" y1="0" x2="0" y2="10" style="stroke:black;stroke-width:2" /></pattern>
<pattern id="vline" width="10" height="10" patternTransform="rotate(0 0 0)" patternUnits="userSpaceOnUse"><line x1="0" y1="0" x2="0" y2="10" style="stroke:black;stroke-width:5" /></pattern>
<pattern id="checker" width="10" height="10" patternTransform="rotate(45 0 0)" patternUnits="userSpaceOnUse"><line x1="0" y1="0" x2="10" y2="0" style="stroke:black;stroke-width:2" /><line x1="0" y1="0" x2="0" y2="10" style="stroke:black;stroke-width:2" /></pattern>
</defs>
</svg>
