<?xml version="1.0" encoding="utf-8" standalone="no"?>
<!DOCTYPE svg PUBLIC "-//W3C//DTD SVG 1.1//EN" "http://www.w3.org/Graphics/SVG/1.1/DTD/svg11.dtd">
<svg width="4000px" height="4000px" version="1.1" xmlns="http://www.w3.org/2000/svg" xmlns:xlink="http://www.w3.org/1999/xlink">
<g id="bg">
<rect x="0" y="0" width="4000px" height="4000px" style="fill:rgb(255,255,255);"/>
</g>
<g id="ideograms">
<path d="M2000.000,358.000 A1642.000,1642.000 40.000 0,1 2751.610,540.121 L2769.004,506.336 A1680.000,1680.000 0.000 0,0 2000.000,320.000 Z" style="stroke-width:2.0;stroke:rgb(255,255,255);stroke-linecap:round;fill:rgb(185,185,185);" />
<text x="2427.0" y="305.8" font-size="36.4px" font-family="CMUBright-Roman" style="text-anchor:start;fill:rgb(0,0,0);" transform="rotate(283.6,2427.0,305.8)" >Management-Operations</text>
<path d="M2000.000,358.000 A1642.000,1642.000 40.000 0,1 2751.610,540.121 L2769.004,506.336 A1680.000,1680.000 0.000 0,0 2000.000,320.000 Z" style="stroke-width:2.0;stroke:rgb(255,255,255);stroke-linecap:round;fill:none;" />
<path d="M2783.279,556.865 A1642.000,1642.000 40.000 0,1 3226.411,908.176 L3254.793,882.908 A1680.000,1680.000 0.000 0,0 2801.406,523.467 Z" style="stroke-width:2.0;stroke:rgb(255,255,255);stroke-linecap:round;fill:rgb(185,185,185);" />
<text x="3097.5" y="640.5" font-size="36.4px" font-family="CMUBright-Roman" style="text-anchor:start;fill:rgb(0,0,0);" transform="rotate(308.4,3097.5,640.5)" >Engineering</text>
<path d="M2783.279,556.865 A1642.000,1642.000 40.000 0,1 3226.411,908.176 L3254.793,882.908 A1680.000,1680.000 0.000 0,0 2801.406,523.467 Z" style="stroke-width:2.0;stroke:rgb(255,255,255);stroke-linecap:round;fill:none;" />
<path d="M3249.937,935.189 A1642.000,1642.000 40.000 0,1 3507.538,1349.236 L3542.426,1334.176 A1680.000,1680.000 0.000 0,0 3278.864,910.547 Z" style="stroke-width:2.0;stroke:rgb(255,255,255);stroke-linecap:round;fill:rgb(185,185,185);" />
<text x="3491.6" y="1090.2" font-size="36.4px" font-family="CMUBright-Roman" style="text-anchor:start;fill:rgb(0,0,0);" transform="rotate(328.1,3491.6,1090.2)" >Leadership-General</text>
<path d="M3249.937,935.189 A1642.000,1642.000 40.000 0,1 3507.538,1349.236 L3542.426,1334.176 A1680.000,1680.000 0.000 0,0 3278.864,910.547 Z" style="stroke-width:2.0;stroke:rgb(255,255,255);stroke-linecap:round;fill:none;" />
<path d="M3521.375,1382.278 A1642.000,1642.000 40.000 0,1 3633.192,1830.154 L3670.988,1826.223 A1680.000,1680.000 0.000 0,0 3556.584,1367.982 Z" style="stroke-width:2.0;stroke:rgb(255,255,255);stroke-linecap:round;fill:rgb(185,185,185);" />
<text x="3699.0" y="1592.3" font-size="36.4px" font-family="CMUBright-Roman" style="text-anchor:start;fill:rgb(0,0,0);" transform="rotate(346.0,3699.0,1592.3)" >Sales-Marketing</text>
<path d="M3521.375,1382.278 A1642.000,1642.000 40.000 0,1 3633.192,1830.154 L3670.988,1826.223 A1680.000,1680.000 0.000 0,0 3556.584,1367.982 Z" style="stroke-width:2.0;stroke:rgb(255,255,255);stroke-linecap:round;fill:none;" />
<path d="M3636.509,1865.822 A1642.000,1642.000 40.000 0,1 3610.774,2318.704 L3648.051,2326.079 A1680.000,1680.000 0.000 0,0 3674.381,1862.717 Z" style="stroke-width:2.0;stroke:rgb(255,255,255);stroke-linecap:round;fill:rgb(185,185,185);" />
<text x="3743.6" y="2111.6" font-size="36.4px" font-family="CMUBright-Roman" style="text-anchor:start;fill:rgb(0,0,0);" transform="rotate(3.3,3743.6,2111.6)" >Finance-Investment</text>
<path d="M3636.509,1865.822 A1642.000,1642.000 40.000 0,1 3610.774,2318.704 L3648.051,2326.079 A1680.000,1680.000 0.000 0,0 3674.381,1862.717 Z" style="stroke-width:2.0;stroke:rgb(255,255,255);stroke-linecap:round;fill:none;" />
<path d="M3603.438,2353.767 A1642.000,1642.000 40.000 0,1 3499.856,2668.278 L3534.566,2683.744 A1680.000,1680.000 0.000 0,0 3640.546,2361.954 Z" style="stroke-width:2.0;stroke:rgb(255,255,255);stroke-linecap:round;fill:rgb(185,185,185);" />
<text x="3655.6" y="2558.4" font-size="36.4px" font-family="CMUBright-Roman" style="text-anchor:start;fill:rgb(0,0,0);" transform="rotate(18.2,3655.6,2558.4)" >Software-Data</text>
<path d="M3603.438,2353.767 A1642.000,1642.000 40.000 0,1 3499.856,2668.278 L3534.566,2683.744 A1680.000,1680.000 0.000 0,0 3640.546,2361.954 Z" style="stroke-width:2.0;stroke:rgb(255,255,255);stroke-linecap:round;fill:none;" />
<path d="M3484.921,2700.839 A1642.000,1642.000 40.000 0,1 3330.895,2961.708 L3361.695,2983.964 A1680.000,1680.000 0.000 0,0 3519.285,2717.058 Z" style="stroke-width:2.0;stroke:rgb(255,255,255);stroke-linecap:round;fill:rgb(185,185,185);" />
<text x="3498.1" y="2899.1" font-size="36.4px" font-family="CMUBright-Roman" style="text-anchor:start;fill:rgb(0,0,0);" transform="rotate(30.6,3498.1,2899.1)" >Education</text>
<path d="M3484.921,2700.839 A1642.000,1642.000 40.000 0,1 3330.895,2961.708 L3361.695,2983.964 A1680.000,1680.000 0.000 0,0 3519.285,2717.058 Z" style="stroke-width:2.0;stroke:rgb(255,255,255);stroke-linecap:round;fill:none;" />
<path d="M3309.599,2990.512 A1642.000,1642.000 40.000 0,1 3129.055,3192.225 L3155.184,3219.816 A1680.000,1680.000 0.000 0,0 3339.906,3013.435 Z" style="stroke-width:2.0;stroke:rgb(255,255,255);stroke-linecap:round;fill:rgb(185,185,185);" />
<text x="3293.5" y="3174.5" font-size="36.4px" font-family="CMUBright-Roman" style="text-anchor:start;fill:rgb(0,0,0);" transform="rotate(41.8,3293.5,3174.5)" >Research-Science</text>
<path d="M3309.599,2990.512 A1642.000,1642.000 40.000 0,1 3129.055,3192.225 L3155.184,3219.816 A1680.000,1680.000 0.000 0,0 3339.906,3013.435 Z" style="stroke-width:2.0;stroke:rgb(255,255,255);stroke-linecap:round;fill:none;" />
<path d="M3102.778,3216.571 A1642.000,1642.000 40.000 0,1 2891.302,3379.038 L2911.929,3410.952 A1680.000,1680.000 0.000 0,0 3128.299,3244.726 Z" style="stroke-width:2.0;stroke:rgb(255,255,255);stroke-linecap:round;fill:rgb(185,185,185);" />
<text x="3054.5" y="3393.1" font-size="36.4px" font-family="CMUBright-Roman" style="text-anchor:start;fill:rgb(0,0,0);" transform="rotate(52.5,3054.5,3393.1)" >Clinical-Care</text>
<path d="M3102.778,3216.571 A1642.000,1642.000 40.000 0,1 2891.302,3379.038 L2911.929,3410.952 A1680.000,1680.000 0.000 0,0 3128.299,3244.726 Z" style="stroke-width:2.0;stroke:rgb(255,255,255);stroke-linecap:round;fill:none;" />
<path d="M2861.006,3398.153 A1642.000,1642.000 40.000 0,1 2640.127,3512.085 L2654.941,3547.079 A1680.000,1680.000 0.000 0,0 2880.932,3430.510 Z" style="stroke-width:2.0;stroke:rgb(255,255,255);stroke-linecap:round;fill:rgb(185,185,185);" />
<text x="2786.7" y="3560.1" font-size="36.4px" font-family="CMUBright-Roman" style="text-anchor:start;fill:rgb(0,0,0);" transform="rotate(62.7,2786.7,3560.1)" >Accounting-Audit</text>
<path d="M2861.006,3398.153 A1642.000,1642.000 40.000 0,1 2640.127,3512.085 L2654.941,3547.079 A1680.000,1680.000 0.000 0,0 2880.932,3430.510 Z" style="stroke-width:2.0;stroke:rgb(255,255,255);stroke-linecap:round;fill:none;" />
<path d="M2606.988,3525.690 A1642.000,1642.000 40.000 0,1 2452.002,3578.562 L2462.463,3615.094 A1680.000,1680.000 0.000 0,0 2621.036,3560.998 Z" style="stroke-width:2.0;stroke:rgb(255,255,255);stroke-linecap:round;fill:rgb(185,185,185);" />
<text x="2552.3" y="3657.6" font-size="36.4px" font-family="CMUBright-Roman" style="text-anchor:start;fill:rgb(0,0,0);" transform="rotate(71.2,2552.3,3657.6)" >Social-Service</text>
<path d="M2606.988,3525.690 A1642.000,1642.000 40.000 0,1 2452.002,3578.562 L2462.463,3615.094 A1680.000,1680.000 0.000 0,0 2621.036,3560.998 Z" style="stroke-width:2.0;stroke:rgb(255,255,255);stroke-linecap:round;fill:none;" />
<path d="M2417.459,3588.047 A1642.000,1642.000 40.000 0,1 2320.910,3610.336 L2328.336,3647.603 A1680.000,1680.000 0.000 0,0 2427.120,3624.798 Z" style="stroke-width:2.0;stroke:rgb(255,255,255);stroke-linecap:round;fill:rgb(185,185,185);" />
<text x="2380.8" y="3705.2" font-size="36.4px" font-family="CMUBright-Roman" style="text-anchor:start;fill:rgb(0,0,0);" transform="rotate(77.0,2380.8,3705.2)" >IT-Infrastructure</text>
<path d="M2417.459,3588.047 A1642.000,1642.000 40.000 0,1 2320.910,3610.336 L2328.336,3647.603 A1680.000,1680.000 0.000 0,0 2427.120,3624.798 Z" style="stroke-width:2.0;stroke:rgb(255,255,255);stroke-linecap:round;fill:none;" />
<path d="M2285.704,3616.953 A1642.000,1642.000 40.000 0,1 2189.660,3631.010 L2194.050,3668.755 A1680.000,1680.000 0.000 0,0 2292.316,3654.373 Z" style="stroke-width:2.0;stroke:rgb(255,255,255);stroke-linecap:round;fill:rgb(185,185,185);" />
<text x="2237.2" y="3731.0" font-size="36.4px" font-family="CMUBright-Roman" style="text-anchor:start;fill:rgb(0,0,0);" transform="rotate(81.7,2237.2,3731.0)" >Legal-Policy</text>
<path d="M2285.704,3616.953 A1642.000,1642.000 40.000 0,1 2189.660,3631.010 L2194.050,3668.755 A1680.000,1680.000 0.000 0,0 2292.316,3654.373 Z" style="stroke-width:2.0;stroke:rgb(255,255,255);stroke-linecap:round;fill:none;" />
<path d="M2154.035,3634.759 A1642.000,1642.000 40.000 0,1 1474.020,3555.477 L1461.848,3591.475 A1680.000,1680.000 0.000 0,0 2157.600,3672.592 Z" style="stroke-width:2.0;stroke:rgb(255,255,255);stroke-linecap:round;fill:rgb(15,52,135);" />
<text x="1813.6" y="3737.2" font-size="36.4px" font-family="CMUBright-Roman" style="text-anchor:end;fill:rgb(0,0,0);" transform="rotate(-83.3,1813.6,3737.2)" >Finance-Accounting</text>
<path d="M2154.035,3634.759 A1642.000,1642.000 40.000 0,1 1474.020,3555.477 L1461.848,3591.475 A1680.000,1680.000 0.000 0,0 2157.600,3672.592 Z" style="stroke-width:2.0;stroke:rgb(255,255,255);stroke-linecap:round;fill:none;" />
<path d="M1440.213,3543.633 A1642.000,1642.000 40.000 0,1 888.845,3208.925 L863.130,3236.902 A1680.000,1680.000 0.000 0,0 1427.258,3579.356 Z" style="stroke-width:2.0;stroke:rgb(255,255,255);stroke-linecap:round;fill:rgb(42,98,180);" />
<text x="1104.1" y="3500.0" font-size="36.4px" font-family="CMUBright-Roman" style="text-anchor:end;fill:rgb(0,0,0);" transform="rotate(-58.7,1104.1,3500.0)" >General-Business</text>
<path d="M1440.213,3543.633 A1642.000,1642.000 40.000 0,1 888.845,3208.925 L863.130,3236.902 A1680.000,1680.000 0.000 0,0 1427.258,3579.356 Z" style="stroke-width:2.0;stroke:rgb(255,255,255);stroke-linecap:round;fill:none;" />
<path d="M862.737,3184.397 A1642.000,1642.000 40.000 0,1 624.574,2896.866 L592.744,2917.622 A1680.000,1680.000 0.000 0,0 836.418,3211.807 Z" style="stroke-width:2.0;stroke:rgb(255,255,255);stroke-linecap:round;fill:rgb(28,75,160);" />
<text x="664.7" y="3126.8" font-size="36.4px" font-family="CMUBright-Roman" style="text-anchor:end;fill:rgb(0,0,0);" transform="rotate(-39.6,664.7,3126.8)" >Marketing-Communication</text>
<path d="M862.737,3184.397 A1642.000,1642.000 40.000 0,1 624.574,2896.866 L592.744,2917.622 A1680.000,1680.000 0.000 0,0 836.418,3211.807 Z" style="stroke-width:2.0;stroke:rgb(255,255,255);stroke-linecap:round;fill:none;" />
<path d="M605.337,2866.648 A1642.000,1642.000 40.000 0,1 476.558,2612.607 L441.301,2626.784 A1680.000,1680.000 0.000 0,0 573.061,2886.704 Z" style="stroke-width:2.0;stroke:rgb(255,255,255);stroke-linecap:round;fill:rgb(60,120,198);" />
<text x="448.7" y="2803.8" font-size="36.4px" font-family="CMUBright-Roman" style="text-anchor:end;fill:rgb(0,0,0);" transform="rotate(-26.9,448.7,2803.8)" >Operations-Analytics</text>
<path d="M605.337,2866.648 A1642.000,1642.000 40.000 0,1 476.558,2612.607 L441.301,2626.784 A1680.000,1680.000 0.000 0,0 573.061,2886.704 Z" style="stroke-width:2.0;stroke:rgb(255,255,255);stroke-linecap:round;fill:none;" />
<path d="M463.556,2579.227 A1642.000,1642.000 40.000 0,1 407.419,2399.813 L370.563,2409.066 A1680.000,1680.000 0.000 0,0 427.999,2592.632 Z" style="stroke-width:2.0;stroke:rgb(255,255,255);stroke-linecap:round;fill:rgb(82,145,215);" />
<text x="337.2" y="2536.5" font-size="36.4px" font-family="CMUBright-Roman" style="text-anchor:end;fill:rgb(0,0,0);" transform="rotate(-17.4,337.2,2536.5)" >Specialized-Business</text>
<path d="M463.556,2579.227 A1642.000,1642.000 40.000 0,1 407.419,2399.813 L370.563,2409.066 A1680.000,1680.000 0.000 0,0 427.999,2592.632 Z" style="stroke-width:2.0;stroke:rgb(255,255,255);stroke-linecap:round;fill:none;" />
<path d="M399.076,2364.976 A1642.000,1642.000 40.000 0,1 366.776,2169.540 L328.979,2173.464 A1680.000,1680.000 0.000 0,0 362.027,2373.422 Z" style="stroke-width:2.0;stroke:rgb(255,255,255);stroke-linecap:round;fill:rgb(200,108,30);" />
<text x="278.3" y="2297.2" font-size="36.4px" font-family="CMUBright-Roman" style="text-anchor:end;fill:rgb(0,0,0);" transform="rotate(-9.4,278.3,2297.2)" >Social-Sciences</text>
<path d="M399.076,2364.976 A1642.000,1642.000 40.000 0,1 366.776,2169.540 L328.979,2173.464 A1680.000,1680.000 0.000 0,0 362.027,2373.422 Z" style="stroke-width:2.0;stroke:rgb(255,255,255);stroke-linecap:round;fill:none;" />
<path d="M363.466,2133.872 A1642.000,1642.000 40.000 0,1 358.290,2030.870 L320.297,2031.584 A1680.000,1680.000 0.000 0,0 325.593,2136.970 Z" style="stroke-width:2.0;stroke:rgb(255,255,255);stroke-linecap:round;fill:rgb(108,170,228);" />
<text x="255.6" y="2099.7" font-size="36.4px" font-family="CMUBright-Roman" style="text-anchor:end;fill:rgb(0,0,0);" transform="rotate(-2.9,255.6,2099.7)" >Economics</text>
<path d="M363.466,2133.872 A1642.000,1642.000 40.000 0,1 358.290,2030.870 L320.297,2031.584 A1680.000,1680.000 0.000 0,0 325.593,2136.970 Z" style="stroke-width:2.0;stroke:rgb(255,255,255);stroke-linecap:round;fill:none;" />
<path d="M358.007,1995.049 A1642.000,1642.000 40.000 0,1 358.807,1948.539 L320.825,1947.348 A1680.000,1680.000 0.000 0,0 320.008,1994.934 Z" style="stroke-width:2.0;stroke:rgb(255,255,255);stroke-linecap:round;fill:rgb(220,140,52);" />
<text x="252.9" y="1982.5" font-size="36.4px" font-family="CMUBright-Roman" style="text-anchor:end;fill:rgb(0,0,0);" transform="rotate(1.0,252.9,1982.5)" >Humanities-Liberal-Arts</text>
<path d="M358.007,1995.049 A1642.000,1642.000 40.000 0,1 358.807,1948.539 L320.825,1947.348 A1680.000,1680.000 0.000 0,0 320.008,1994.934 Z" style="stroke-width:2.0;stroke:rgb(255,255,255);stroke-linecap:round;fill:none;" />
<path d="M360.320,1912.749 A1642.000,1642.000 40.000 0,1 361.133,1898.615 L323.205,1896.269 A1680.000,1680.000 0.000 0,0 322.373,1910.730 Z" style="stroke-width:2.0;stroke:rgb(255,255,255);stroke-linecap:round;fill:rgb(235,168,78);" />
<text x="255.0" y="1912.1" font-size="36.4px" font-family="CMUBright-Roman" style="text-anchor:end;fill:rgb(0,0,0);" transform="rotate(3.3,255.0,1912.1)" >International-Studies</text>
<path d="M360.320,1912.749 A1642.000,1642.000 40.000 0,1 361.133,1898.615 L323.205,1896.269 A1680.000,1680.000 0.000 0,0 322.373,1910.730 Z" style="stroke-width:2.0;stroke:rgb(255,255,255);stroke-linecap:round;fill:none;" />
<path d="M363.735,1862.887 A1642.000,1642.000 40.000 0,1 391.336,1670.812 L354.108,1663.193 A1680.000,1680.000 0.000 0,0 325.867,1859.714 Z" style="stroke-width:2.0;stroke:rgb(255,255,255);stroke-linecap:round;fill:rgb(195,58,55);" />
<text x="268.8" y="1763.9" font-size="36.4px" font-family="CMUBright-Roman" style="text-anchor:end;fill:rgb(0,0,0);" transform="rotate(8.2,268.8,1763.9)" >Social-Work</text>
<path d="M363.735,1862.887 A1642.000,1642.000 40.000 0,1 391.336,1670.812 L354.108,1663.193 A1680.000,1680.000 0.000 0,0 325.867,1859.714 Z" style="stroke-width:2.0;stroke:rgb(255,255,255);stroke-linecap:round;fill:none;" />
<path d="M398.900,1635.797 A1642.000,1642.000 40.000 0,1 428.981,1522.439 L392.624,1511.387 A1680.000,1680.000 0.000 0,0 361.847,1627.368 Z" style="stroke-width:2.0;stroke:rgb(255,255,255);stroke-linecap:round;fill:rgb(175,35,42);" />
<text x="308.1" y="1564.0" font-size="36.4px" font-family="CMUBright-Roman" style="text-anchor:end;fill:rgb(0,0,0);" transform="rotate(14.9,308.1,1564.0)" >Teacher-Education</text>
<path d="M398.900,1635.797 A1642.000,1642.000 40.000 0,1 428.981,1522.439 L392.624,1511.387 A1680.000,1680.000 0.000 0,0 361.847,1627.368 Z" style="stroke-width:2.0;stroke:rgb(255,255,255);stroke-linecap:round;fill:none;" />
<path d="M439.773,1488.281 A1642.000,1642.000 40.000 0,1 474.975,1391.343 L439.682,1377.257 A1680.000,1680.000 0.000 0,0 403.666,1476.439 Z" style="stroke-width:2.0;stroke:rgb(255,255,255);stroke-linecap:round;fill:rgb(215,82,72);" />
<text x="352.5" y="1418.2" font-size="36.4px" font-family="CMUBright-Roman" style="text-anchor:end;fill:rgb(0,0,0);" transform="rotate(20.0,352.5,1418.2)" >Special-Education</text>
<path d="M439.773,1488.281 A1642.000,1642.000 40.000 0,1 474.975,1391.343 L439.682,1377.257 A1680.000,1680.000 0.000 0,0 403.666,1476.439 Z" style="stroke-width:2.0;stroke:rgb(255,255,255);stroke-linecap:round;fill:none;" />
<path d="M488.616,1358.220 A1642.000,1642.000 40.000 0,1 509.092,1311.991 L474.588,1296.068 A1680.000,1680.000 0.000 0,0 453.639,1343.368 Z" style="stroke-width:2.0;stroke:rgb(255,255,255);stroke-linecap:round;fill:rgb(230,112,95);" />
<text x="396.3" y="1306.6" font-size="36.4px" font-family="CMUBright-Roman" style="text-anchor:end;fill:rgb(0,0,0);" transform="rotate(23.9,396.3,1306.6)" >Educational-Leadership</text>
<path d="M488.616,1358.220 A1642.000,1642.000 40.000 0,1 509.092,1311.991 L474.588,1296.068 A1680.000,1680.000 0.000 0,0 453.639,1343.368 Z" style="stroke-width:2.0;stroke:rgb(255,255,255);stroke-linecap:round;fill:none;" />
<path d="M524.455,1279.630 A1642.000,1642.000 40.000 0,1 553.988,1222.045 L520.524,1204.041 A1680.000,1680.000 0.000 0,0 490.308,1262.959 Z" style="stroke-width:2.0;stroke:rgb(255,255,255);stroke-linecap:round;fill:rgb(0,130,142);" />
<text x="439.7" y="1213.8" font-size="36.4px" font-family="CMUBright-Roman" style="text-anchor:end;fill:rgb(0,0,0);" transform="rotate(27.2,439.7,1213.8)" >Communication-Studies</text>
<path d="M524.455,1279.630 A1642.000,1642.000 40.000 0,1 553.988,1222.045 L520.524,1204.041 A1680.000,1680.000 0.000 0,0 490.308,1262.959 Z" style="stroke-width:2.0;stroke:rgb(255,255,255);stroke-linecap:round;fill:none;" />
<path d="M571.303,1190.686 A1642.000,1642.000 40.000 0,1 588.562,1160.949 L555.898,1141.531 A1680.000,1680.000 0.000 0,0 538.240,1171.956 Z" style="stroke-width:2.0;stroke:rgb(255,255,255);stroke-linecap:round;fill:rgb(0,165,172);" />
<text x="482.6" y="1133.8" font-size="36.4px" font-family="CMUBright-Roman" style="text-anchor:end;fill:rgb(0,0,0);" transform="rotate(30.1,482.6,1133.8)" >Journalism-Media</text>
<path d="M571.303,1190.686 A1642.000,1642.000 40.000 0,1 588.562,1160.949 L555.898,1141.531 A1680.000,1680.000 0.000 0,0 538.240,1171.956 Z" style="stroke-width:2.0;stroke:rgb(255,255,255);stroke-linecap:round;fill:none;" />
<path d="M607.202,1130.358 A1642.000,1642.000 40.000 0,1 613.667,1120.089 L581.583,1099.725 A1680.000,1680.000 0.000 0,0 574.969,1110.233 Z" style="stroke-width:2.0;stroke:rgb(255,255,255);stroke-linecap:round;fill:rgb(38,195,195);" />
<text x="512.9" y="1082.8" font-size="36.4px" font-family="CMUBright-Roman" style="text-anchor:end;fill:rgb(0,0,0);" transform="rotate(32.2,512.9,1082.8)" >Creative-Writing</text>
<path d="M607.202,1130.358 A1642.000,1642.000 40.000 0,1 613.667,1120.089 L581.583,1099.725 A1680.000,1680.000 0.000 0,0 574.969,1110.233 Z" style="stroke-width:2.0;stroke:rgb(255,255,255);stroke-linecap:round;fill:none;" />
<path d="M633.192,1090.055 A1642.000,1642.000 40.000 0,1 667.742,1040.182 L636.910,1017.969 A1680.000,1680.000 0.000 0,0 601.560,1068.997 Z" style="stroke-width:2.0;stroke:rgb(255,255,255);stroke-linecap:round;fill:rgb(180,45,112);" />
<text x="554.7" y="1018.2" font-size="36.4px" font-family="CMUBright-Roman" style="text-anchor:end;fill:rgb(0,0,0);" transform="rotate(34.7,554.7,1018.2)" >Arts-Theology</text>
<path d="M633.192,1090.055 A1642.000,1642.000 40.000 0,1 667.742,1040.182 L636.910,1017.969 A1680.000,1680.000 0.000 0,0 601.560,1068.997 Z" style="stroke-width:2.0;stroke:rgb(255,255,255);stroke-linecap:round;fill:none;" />
<path d="M688.997,1011.347 A1642.000,1642.000 40.000 0,1 698.803,998.477 L668.690,975.299 A1680.000,1680.000 0.000 0,0 658.657,988.467 Z" style="stroke-width:2.0;stroke:rgb(255,255,255);stroke-linecap:round;fill:rgb(205,75,142);" />
<text x="600.6" y="953.9" font-size="36.4px" font-family="CMUBright-Roman" style="text-anchor:end;fill:rgb(0,0,0);" transform="rotate(37.3,600.6,953.9)" >English-Writing</text>
<path d="M688.997,1011.347 A1642.000,1642.000 40.000 0,1 698.803,998.477 L668.690,975.299 A1680.000,1680.000 0.000 0,0 658.657,988.467 Z" style="stroke-width:2.0;stroke:rgb(255,255,255);stroke-linecap:round;fill:none;" />
<path d="M720.960,970.329 A1642.000,1642.000 40.000 0,1 724.774,965.610 L695.262,941.672 A1680.000,1680.000 0.000 0,0 691.360,946.500 Z" style="stroke-width:2.0;stroke:rgb(255,255,255);stroke-linecap:round;fill:rgb(225,110,168);" />
<text x="631.0" y="914.3" font-size="36.4px" font-family="CMUBright-Roman" style="text-anchor:end;fill:rgb(0,0,0);" transform="rotate(38.9,631.0,914.3)" >Languages</text>
<path d="M720.960,970.329 A1642.000,1642.000 40.000 0,1 724.774,965.610 L695.262,941.672 A1680.000,1680.000 0.000 0,0 691.360,946.500 Z" style="stroke-width:2.0;stroke:rgb(255,255,255);stroke-linecap:round;fill:none;" />
<path d="M747.643,938.037 A1642.000,1642.000 40.000 0,1 884.635,794.959 L858.822,767.071 A1680.000,1680.000 0.000 0,0 718.660,913.461 Z" style="stroke-width:2.0;stroke:rgb(255,255,255);stroke-linecap:round;fill:rgb(88,40,138);" />
<text x="727.0" y="803.3" font-size="36.4px" font-family="CMUBright-Roman" style="text-anchor:end;fill:rgb(0,0,0);" transform="rotate(43.8,727.0,803.3)" >Biological-Sciences</text>
<path d="M747.643,938.037 A1642.000,1642.000 40.000 0,1 884.635,794.959 L858.822,767.071 A1680.000,1680.000 0.000 0,0 718.660,913.461 Z" style="stroke-width:2.0;stroke:rgb(255,255,255);stroke-linecap:round;fill:none;" />
<path d="M911.188,770.914 A1642.000,1642.000 40.000 0,1 969.888,721.316 L946.049,691.724 A1680.000,1680.000 0.000 0,0 885.990,742.470 Z" style="stroke-width:2.0;stroke:rgb(255,255,255);stroke-linecap:round;fill:rgb(115,65,165);" />
<text x="862.8" y="673.5" font-size="36.4px" font-family="CMUBright-Roman" style="text-anchor:end;fill:rgb(0,0,0);" transform="rotate(49.8,862.8,673.5)" >Health-Wellness</text>
<path d="M911.188,770.914 A1642.000,1642.000 40.000 0,1 969.888,721.316 L946.049,691.724 A1680.000,1680.000 0.000 0,0 885.990,742.470 Z" style="stroke-width:2.0;stroke:rgb(255,255,255);stroke-linecap:round;fill:none;" />
<path d="M998.028,699.148 A1642.000,1642.000 40.000 0,1 1023.858,679.655 L1001.267,649.099 A1680.000,1680.000 0.000 0,0 974.840,669.043 Z" style="stroke-width:2.0;stroke:rgb(255,255,255);stroke-linecap:round;fill:rgb(140,92,188);" />
<text x="935.2" y="614.8" font-size="36.4px" font-family="CMUBright-Roman" style="text-anchor:end;fill:rgb(0,0,0);" transform="rotate(53.0,935.2,614.8)" >Physical-Sciences</text>
<path d="M998.028,699.148 A1642.000,1642.000 40.000 0,1 1023.858,679.655 L1001.267,649.099 A1680.000,1680.000 0.000 0,0 974.840,669.043 Z" style="stroke-width:2.0;stroke:rgb(255,255,255);stroke-linecap:round;fill:none;" />
<path d="M1052.893,658.675 A1642.000,1642.000 40.000 0,1 1064.493,650.559 L1042.843,619.329 A1680.000,1680.000 0.000 0,0 1030.975,627.633 Z" style="stroke-width:2.0;stroke:rgb(255,255,255);stroke-linecap:round;fill:rgb(165,120,208);" />
<text x="988.2" y="575.6" font-size="36.4px" font-family="CMUBright-Roman" style="text-anchor:end;fill:rgb(0,0,0);" transform="rotate(55.0,988.2,575.6)" >Environmental-Sciences</text>
<path d="M1052.893,658.675 A1642.000,1642.000 40.000 0,1 1064.493,650.559 L1042.843,619.329 A1680.000,1680.000 0.000 0,0 1030.975,627.633 Z" style="stroke-width:2.0;stroke:rgb(255,255,255);stroke-linecap:round;fill:none;" />
<path d="M1094.154,630.472 A1642.000,1642.000 40.000 0,1 1594.822,408.776 L1585.445,371.951 A1680.000,1680.000 0.000 0,0 1073.190,598.778 Z" style="stroke-width:2.0;stroke:rgb(255,255,255);stroke-linecap:round;fill:rgb(22,118,50);" />
<text x="1278.0" y="409.0" font-size="36.4px" font-family="CMUBright-Roman" style="text-anchor:end;fill:rgb(0,0,0);" transform="rotate(66.1,1278.0,409.0)" >Engineering-Disciplines</text>
<path d="M1094.154,630.472 A1642.000,1642.000 40.000 0,1 1594.822,408.776 L1585.445,371.951 A1680.000,1680.000 0.000 0,0 1073.190,598.778 Z" style="stroke-width:2.0;stroke:rgb(255,255,255);stroke-linecap:round;fill:none;" />
<path d="M1629.631,400.315 A1642.000,1642.000 40.000 0,1 1964.180,358.391 L1963.351,320.400 A1680.000,1680.000 0.000 0,0 1621.060,363.295 Z" style="stroke-width:2.0;stroke:rgb(255,255,255);stroke-linecap:round;fill:rgb(48,158,75);" />
<text x="1767.4" y="268.4" font-size="36.4px" font-family="CMUBright-Roman" style="text-anchor:end;fill:rgb(0,0,0);" transform="rotate(82.9,1767.4,268.4)" >Computer-Science-IT</text>
<path d="M1629.631,400.315 A1642.000,1642.000 40.000 0,1 1964.180,358.391 L1963.351,320.400 A1680.000,1680.000 0.000 0,0 1621.060,363.295 Z" style="stroke-width:2.0;stroke:rgb(255,255,255);stroke-linecap:round;fill:none;" />
</g>
<g id="track_0">
<path d="M 3506.162,1388.455 A 1625.580,1625.580 0.00 0,1 3506.9,1390.3 L 3506.9,1390.3 3452.2,1411.1 3395.9,1429.7 3338.3,1446.1 3279.4,1460.2 3219.4,1471.9 3158.7,1481.1 3097.3,1487.8 3035.5,1491.8 2973.3,1493.2 2911.0,1491.8 2848.8,1487.8 2786.8,1480.9 2725.1,1471.2 2663.9,1458.8 2603.3,1443.6 2543.6,1425.6 2484.7,1404.8 2426.9,1381.4 2370.3,1355.2 2315.0,1326.5 2261.1,1295.2 2208.7,1261.3 2157.9,1225.1 2108.8,1186.5 2061.6,1145.7 2016.2,1102.8 1972.9,1057.8 1931.7,1011.0 1892.6,962.4 1855.7,912.2 1821.1,860.5 1788.9,807.6 1759.0,753.5 1731.7,698.5 1706.8,642.7 1684.5,586.4 1664.8,529.8 1647.8,473.0 1633.3,416.3  A 1625.580,1625.580 0.00 0,1 1635.3,415.9 L 1635.3,415.9 1649.6,472.5 1666.6,529.3 1686.3,586.0 1708.5,642.3 1733.2,698.1 1760.5,753.1 1790.2,807.1 1822.4,860.1 1856.9,911.7 1893.7,961.9 1932.7,1010.5 1973.9,1057.3 2017.1,1102.3 2062.4,1145.2 2109.5,1186.0 2158.5,1224.5 2209.2,1260.7 2261.5,1294.5 2315.4,1325.8 2370.6,1354.5 2427.2,1380.6 2484.9,1404.1 2543.7,1424.8 2603.4,1442.7 2663.9,1457.9 2725.0,1470.2 2786.6,1479.8 2848.6,1486.6 2910.8,1490.7 2973.0,1491.9 3035.1,1490.5 3096.9,1486.4 3158.2,1479.7 3218.9,1470.4 3278.8,1458.6 3337.6,1444.5 3395.3,1428.0 3451.5,1409.3 3506.2,1388.5  Z" style="stroke-width: 0.0;  fill: rgb(48,158,75);" />
<path d="M 3506.914,1390.310 A 1625.580,1625.580 0.00 0,1 3509.2,1395.9 L 3509.2,1395.9 3451.7,1417.4 3392.2,1436.9 3330.9,1454.2 3267.8,1469.3 3203.2,1482.3 3137.2,1492.9 3069.9,1501.3 3001.6,1507.3 2932.3,1511.0 2862.2,1512.4 2791.5,1511.4 2720.3,1508.0 2648.8,1502.2 2577.0,1494.1 2505.2,1483.7 2433.5,1470.9 2361.9,1455.7 2290.8,1438.3 2220.1,1418.7 2150.0,1396.8 2080.7,1372.7 2012.3,1346.5 1944.9,1318.2 1878.6,1287.9 1813.6,1255.6 1750.0,1221.4 1687.9,1185.4 1627.5,1147.6 1568.7,1108.2 1511.9,1067.2 1457.1,1024.7 1404.3,980.9 1353.8,935.7 1305.6,889.4 1259.8,842.0 1216.6,793.6 1176.0,744.4 1138.2,694.6 1103.2,644.2  A 1625.580,1625.580 0.00 0,1 1108.2,640.9 L 1108.2,640.9 1143.0,691.4 1180.6,741.3 1220.9,790.5 1263.9,839.0 1309.5,886.5 1357.4,932.9 1407.8,978.1 1460.3,1022.1 1514.9,1064.6 1571.5,1105.7 1630.0,1145.1 1690.2,1182.9 1752.1,1219.0 1815.5,1253.2 1880.3,1285.5 1946.4,1315.8 2013.6,1344.0 2081.8,1370.2 2150.9,1394.2 2220.8,1416.1 2291.3,1435.7 2362.3,1453.0 2433.6,1468.0 2505.2,1480.7 2576.8,1491.0 2648.4,1499.0 2719.8,1504.6 2790.9,1507.8 2861.4,1508.7 2931.3,1507.2 3000.5,1503.3 3068.7,1497.1 3135.8,1488.5 3201.7,1477.7 3266.1,1464.5 3329.1,1449.2 3390.3,1431.7 3449.6,1412.0 3506.9,1390.3  Z" style="stroke-width: 0.0;  fill: rgb(22,118,50);" />
<path d="M 3509.156,1395.883 A 1625.580,1625.580 0.00 0,1 3509.9,1397.7 L 3509.9,1397.7 3451.8,1419.4 3391.7,1439.1 3329.6,1456.7 3265.7,1472.1 3200.1,1485.4 3133.1,1496.4 3064.8,1505.3 2995.2,1512.0 2924.6,1516.4 2853.2,1518.5 2780.9,1518.5 2708.1,1516.1 2634.8,1511.5 2561.2,1504.7 2487.4,1495.6 2413.6,1484.3 2339.8,1470.9 2266.3,1455.2 2193.2,1437.4 2120.6,1417.5 2048.6,1395.6 1977.4,1371.6 1907.1,1345.6 1837.8,1317.6 1769.7,1287.8 1702.9,1256.1 1637.5,1222.7 1573.6,1187.6 1511.5,1150.9 1451.1,1112.6 1392.6,1072.8 1336.2,1031.6 1281.9,989.1 1229.9,945.4 1180.3,900.6 1133.2,854.8 1088.7,808.0 1046.9,760.4 1008.0,712.2  A 1625.580,1625.580 0.00 0,1 1009.6,710.9 L 1009.6,710.9 1048.4,759.2 1090.1,806.8 1134.5,853.6 1181.6,899.5 1231.1,944.4 1283.0,988.1 1337.2,1030.6 1393.6,1071.8 1452.0,1111.6 1512.3,1150.0 1574.4,1186.7 1638.2,1221.9 1703.5,1255.3 1770.3,1286.9 1838.3,1316.8 1907.5,1344.7 1977.8,1370.7 2048.9,1394.7 2120.8,1416.7 2193.4,1436.5 2266.5,1454.3 2339.9,1469.9 2413.6,1483.4 2487.4,1494.6 2561.1,1503.7 2634.7,1510.4 2707.9,1515.0 2780.7,1517.3 2852.9,1517.3 2924.3,1515.1 2994.9,1510.6 3064.4,1503.9 3132.7,1495.0 3199.6,1483.8 3265.1,1470.5 3329.0,1455.0 3391.0,1437.4 3451.1,1417.7 3509.2,1395.9  Z" style="stroke-width: 0.0;  fill: rgb(140,92,188);" />
<path d="M 3509.899,1397.742 A 1625.580,1625.580 0.00 0,1 3512.1,1403.3 L 3512.1,1403.3 3453.4,1425.1 3392.5,1444.8 3329.6,1462.4 3264.9,1478.0 3198.4,1491.5 3130.4,1502.9 3061.0,1512.2 2990.3,1519.3 2918.5,1524.3 2845.7,1527.2 2772.0,1527.9 2697.7,1526.6 2622.8,1523.0 2547.4,1517.4 2471.8,1509.7 2396.1,1499.8 2320.3,1487.9 2244.7,1474.0 2169.4,1458.1 2094.4,1440.1 2020.0,1420.2 1946.3,1398.4 1873.4,1374.7 1801.4,1349.1 1730.5,1321.8 1660.8,1292.7 1592.4,1261.9 1525.5,1229.5 1460.2,1195.5 1396.6,1159.9 1334.8,1123.0 1275.0,1084.6 1217.3,1044.9 1161.8,1003.9 1108.7,961.8 1058.0,918.6 1010.0,874.3 964.6,829.2 922.1,783.2  A 1625.580,1625.580 0.00 0,1 926.6,779.2 L 926.6,779.2 968.9,825.3 1014.0,870.6 1061.9,914.9 1112.3,958.2 1165.3,1000.5 1220.5,1041.5 1278.0,1081.4 1337.6,1119.8 1399.2,1156.9 1462.6,1192.5 1527.7,1226.6 1594.4,1259.1 1662.6,1290.0 1732.1,1319.1 1802.9,1346.5 1874.6,1372.0 1947.4,1395.7 2020.9,1417.5 2095.2,1437.4 2169.9,1455.3 2245.1,1471.2 2320.6,1485.1 2396.2,1496.9 2471.7,1506.6 2547.2,1514.2 2622.4,1519.8 2697.1,1523.1 2771.3,1524.4 2844.8,1523.5 2917.5,1520.5 2989.2,1515.3 3059.7,1507.9 3129.0,1498.5 3196.9,1486.9 3263.2,1473.2 3327.8,1457.4 3390.6,1439.6 3451.3,1419.7 3509.9,1397.7  Z" style="stroke-width: 0.0;  fill: rgb(115,65,165);" />
<path d="M 3512.115,1403.326 A 1625.580,1625.580 0.00 0,1 3515.0,1410.8 L 3515.0,1410.8 3454.9,1432.7 3392.6,1452.8 3328.2,1470.8 3261.8,1487.0 3193.6,1501.3 3123.7,1513.6 3052.3,1524.0 2979.4,1532.5 2905.3,1539.1 2830.0,1543.9 2753.7,1546.8 2676.6,1547.8 2598.7,1546.9 2520.3,1544.3 2441.4,1539.8 2362.2,1533.5 2282.7,1525.4 2203.3,1515.6 2123.9,1504.1 2044.7,1490.8 1965.9,1475.8 1887.6,1459.2 1809.9,1440.9 1733.0,1420.9 1656.9,1399.4 1581.9,1376.4 1508.0,1351.7 1435.4,1325.6 1364.3,1298.0 1294.7,1269.0 1226.8,1238.5 1160.7,1206.7 1096.5,1173.5 1034.5,1139.1 974.7,1103.3 917.2,1066.4 862.2,1028.3 809.8,989.0 760.2,948.7  A 1625.580,1625.580 0.00 0,1 765.4,942.6 L 765.4,942.6 814.7,983.1 866.9,1022.6 921.6,1060.9 978.8,1098.0 1038.4,1133.9 1100.2,1168.5 1164.1,1201.9 1229.9,1233.9 1297.6,1264.5 1366.9,1293.7 1437.9,1321.4 1510.2,1347.6 1583.9,1372.3 1658.7,1395.5 1734.5,1417.1 1811.2,1437.1 1888.7,1455.4 1966.9,1472.0 2045.5,1487.0 2124.4,1500.2 2203.6,1511.8 2282.9,1521.5 2362.1,1529.5 2441.2,1535.6 2519.9,1540.0 2598.2,1542.5 2675.9,1543.2 2752.8,1542.0 2828.9,1538.9 2904.0,1534.0 2977.9,1527.1 3050.6,1518.4 3121.9,1507.7 3191.6,1495.1 3259.6,1480.6 3325.8,1464.2 3390.1,1445.8 3452.2,1425.5 3512.1,1403.3  Z" style="stroke-width: 0.0;  fill: rgb(88,40,138);" />
<path d="M 3515.036,1410.783 A 1625.580,1625.580 0.00 0,1 3516.5,1414.5 L 3516.5,1414.5 3455.8,1436.5 3392.9,1456.7 3327.9,1474.9 3260.8,1491.3 3191.9,1505.9 3121.3,1518.6 3049.1,1529.5 2975.4,1538.6 2900.4,1545.9 2824.3,1551.4 2747.1,1555.2 2668.9,1557.3 2590.0,1557.6 2510.4,1556.2 2430.4,1553.1 2349.9,1548.4 2269.2,1542.0 2188.4,1533.9 2107.6,1524.2 2027.0,1513.0 1946.6,1500.1 1866.7,1485.7 1787.3,1469.7 1708.6,1452.3 1630.8,1433.3 1553.9,1412.8 1478.1,1390.9 1403.5,1367.5 1330.3,1342.7 1258.5,1316.5 1188.4,1288.9 1120.1,1259.9 1053.6,1229.7 989.2,1198.1 926.9,1165.2 867.0,1131.0 809.4,1095.6 754.4,1059.0 702.1,1021.2  A 1625.580,1625.580 0.00 0,1 704.5,1018.0 L 704.5,1018.0 756.7,1055.9 811.6,1092.7 869.0,1128.1 928.8,1162.4 991.0,1195.4 1055.3,1227.1 1121.6,1257.4 1189.9,1286.5 1259.9,1314.1 1331.5,1340.4 1404.6,1365.3 1479.1,1388.7 1554.8,1410.7 1631.6,1431.3 1709.3,1450.3 1787.9,1467.8 1867.2,1483.8 1947.0,1498.2 2027.3,1511.0 2107.8,1522.3 2188.5,1531.9 2269.3,1540.0 2349.9,1546.3 2430.2,1551.0 2510.2,1554.0 2589.7,1555.4 2668.5,1555.0 2746.6,1552.8 2823.7,1548.9 2899.8,1543.3 2974.7,1535.9 3048.3,1526.7 3120.4,1515.6 3190.9,1502.8 3259.7,1488.1 3326.7,1471.6 3391.6,1453.2 3454.5,1432.9 3515.0,1410.8  Z" style="stroke-width: 0.0;  fill: rgb(205,75,142);" />
<path d="M 3516.483,1414.517 A 1625.580,1625.580 0.00 0,1 3517.9,1418.3 L 3517.9,1418.3 3456.7,1440.3 3393.1,1460.6 3327.5,1479.0 3259.8,1495.7 3190.2,1510.6 3118.9,1523.7 3045.9,1535.2 2971.5,1544.9 2895.6,1553.0 2818.6,1559.4 2740.5,1564.1 2661.4,1567.3 2581.5,1568.9 2500.9,1568.8 2419.7,1567.3 2338.1,1564.2 2256.2,1559.5 2174.1,1553.4 2092.0,1545.7 2010.0,1536.6 1928.2,1526.0 1846.8,1514.0 1765.8,1500.6 1685.5,1485.7 1606.0,1469.4 1527.4,1451.7 1449.7,1432.6 1373.3,1412.2 1298.1,1390.4 1224.4,1367.2 1152.2,1342.7 1081.7,1316.9 1013.0,1289.7 946.3,1261.2 881.7,1231.4 819.3,1200.3 759.3,1167.9 701.8,1134.2 646.9,1099.2  A 1625.580,1625.580 0.00 0,1 649.1,1095.8 L 649.1,1095.8 703.9,1130.9 761.3,1164.8 821.2,1197.3 883.4,1228.5 947.9,1258.4 1014.5,1287.0 1083.1,1314.3 1153.5,1340.2 1225.6,1364.8 1299.2,1388.1 1374.3,1409.9 1450.6,1430.5 1528.2,1449.6 1606.7,1467.3 1686.2,1483.6 1766.4,1498.6 1847.2,1512.0 1928.5,1524.1 2010.2,1534.7 2092.2,1543.8 2174.2,1551.4 2256.2,1557.5 2338.0,1562.1 2419.6,1565.2 2500.7,1566.7 2581.2,1566.6 2661.0,1565.0 2740.0,1561.7 2818.1,1556.9 2895.0,1550.4 2970.7,1542.2 3045.1,1532.3 3118.0,1520.8 3189.2,1507.5 3258.7,1492.5 3326.3,1475.7 3391.9,1457.1 3455.3,1436.7 3516.5,1414.5  Z" style="stroke-width: 0.0;  fill: rgb(180,45,112);" />
<path d="M 3517.921,1418.255 A 1625.580,1625.580 0.00 0,1 3518.6,1420.1 L 3518.6,1420.1 3457.1,1442.3 3393.3,1462.6 3327.3,1481.1 3259.3,1497.9 3189.3,1513.0 3117.7,1526.3 3044.3,1538.0 2969.5,1548.1 2893.3,1556.6 2815.9,1563.4 2737.4,1568.7 2657.8,1572.4 2577.5,1574.6 2496.4,1575.3 2414.7,1574.5 2332.5,1572.2 2250.1,1568.5 2167.4,1563.3 2084.7,1556.7 2002.1,1548.7 1919.6,1539.2 1837.5,1528.4 1755.9,1516.3 1674.8,1502.7 1594.5,1487.8 1515.1,1471.5 1436.6,1453.9 1359.3,1435.0 1283.2,1414.7 1208.5,1393.1 1135.4,1370.2 1063.9,1345.9 994.2,1320.4 926.4,1293.5 860.7,1265.2 797.2,1235.7 736.0,1204.8 677.3,1172.6 621.1,1139.1  A 1625.580,1625.580 0.00 0,1 622.2,1137.4 L 622.2,1137.4 678.3,1171.0 737.0,1203.2 798.1,1234.2 861.6,1263.8 927.2,1292.0 994.9,1319.0 1064.6,1344.6 1136.0,1368.9 1209.1,1391.9 1283.7,1413.5 1359.7,1433.9 1437.0,1452.8 1515.4,1470.5 1594.8,1486.8 1675.1,1501.7 1756.1,1515.3 1837.7,1527.4 1919.8,1538.3 2002.2,1547.7 2084.8,1555.7 2167.5,1562.3 2250.1,1567.4 2332.5,1571.2 2414.6,1573.4 2496.2,1574.2 2577.3,1573.5 2657.6,1571.2 2737.1,1567.5 2815.6,1562.1 2893.0,1555.3 2969.2,1546.8 3043.9,1536.6 3117.2,1524.9 3188.9,1511.4 3258.7,1496.3 3326.7,1479.4 3392.6,1460.8 3456.4,1440.5 3517.9,1418.3  Z" style="stroke-width: 0.0;  fill: rgb(38,195,195);" />
<path d="M 3518.636,1420.125 A 1625.580,1625.580 0.00 0,1 3522.9,1431.4 L 3522.9,1431.4 3460.7,1453.2 3396.3,1473.3 3329.7,1491.7 3261.1,1508.3 3190.5,1523.3 3118.2,1536.7 3044.3,1548.4 2968.8,1558.6 2892.0,1567.3 2813.9,1574.5 2734.6,1580.2 2654.4,1584.5 2573.3,1587.3 2491.5,1588.7 2409.0,1588.8 2326.1,1587.4 2242.8,1584.8 2159.3,1580.8 2075.7,1575.5 1992.1,1568.9 1908.7,1560.9 1825.6,1551.8 1742.9,1541.3 1660.8,1529.5 1579.4,1516.5 1498.8,1502.2 1419.1,1486.6 1340.6,1469.8 1263.2,1451.7 1187.2,1432.3 1112.7,1411.7 1039.8,1389.7 968.6,1366.4 899.3,1341.9 832.0,1316.0 766.9,1288.7 704.0,1260.1 643.5,1230.2 585.6,1198.8  A 1625.580,1625.580 0.00 0,1 591.6,1188.3 L 591.6,1188.3 649.1,1220.1 709.3,1250.4 771.8,1279.4 836.6,1306.9 903.6,1333.2 972.6,1358.1 1043.5,1381.7 1116.1,1403.9 1190.3,1424.9 1266.0,1444.5 1343.1,1462.9 1421.4,1479.9 1500.8,1495.7 1581.2,1510.2 1662.3,1523.3 1744.2,1535.2 1826.6,1545.7 1909.5,1555.0 1992.7,1562.9 2076.0,1569.5 2159.4,1574.8 2242.7,1578.7 2325.8,1581.2 2408.5,1582.4 2490.7,1582.2 2572.3,1580.5 2653.2,1577.5 2733.2,1573.0 2812.2,1567.0 2890.1,1559.5 2966.7,1550.5 3041.9,1539.9 3115.6,1527.8 3187.7,1514.1 3257.9,1498.7 3326.3,1481.6 3392.6,1462.9 3456.8,1442.4 3518.6,1420.1  Z" style="stroke-width: 0.0;  fill: rgb(0,165,172);" />
<path d="M 3522.880,1431.364 A 1625.580,1625.580 0.00 0,1 3532.5,1457.7 L 3532.5,1457.7 3469.2,1478.8 3403.7,1498.1 3336.1,1515.8 3266.4,1531.8 3194.9,1546.3 3121.6,1559.2 3046.6,1570.7 2970.2,1580.7 2892.3,1589.4 2813.2,1596.6 2732.9,1602.6 2651.7,1607.3 2569.5,1610.7 2486.6,1612.8 2403.0,1613.8 2319.0,1613.5 2234.6,1612.1 2149.9,1609.6 2065.0,1605.9 1980.2,1601.0 1895.5,1595.1 1811.1,1588.0 1727.1,1579.8 1643.5,1570.4 1560.6,1560.0 1478.5,1548.4 1397.3,1535.6 1317.0,1521.8 1238.0,1506.7 1160.2,1490.5 1083.8,1473.0 1009.0,1454.4 935.9,1434.5 864.5,1413.3 795.1,1390.7 727.7,1366.9 662.5,1341.6 599.6,1315.0 539.2,1286.8  A 1625.580,1625.580 0.00 0,1 551.7,1261.8 L 551.7,1261.8 611.4,1290.8 673.5,1318.3 737.9,1344.4 804.6,1369.1 873.3,1392.5 944.0,1414.5 1016.5,1435.2 1090.7,1454.6 1166.5,1472.8 1243.7,1489.7 1322.2,1505.3 1401.8,1519.7 1482.5,1532.9 1564.1,1544.9 1646.5,1555.7 1729.6,1565.3 1813.1,1573.7 1897.1,1581.0 1981.3,1587.0 2065.6,1591.8 2150.0,1595.4 2234.2,1597.8 2318.1,1598.9 2401.7,1598.8 2484.8,1597.5 2567.3,1594.9 2648.9,1590.9 2729.7,1585.7 2809.5,1579.0 2888.1,1571.1 2965.4,1561.7 3041.3,1550.8 3115.7,1538.5 3188.5,1524.7 3259.4,1509.3 3328.5,1492.3 3395.5,1473.7 3460.3,1453.4 3522.9,1431.4  Z" style="stroke-width: 0.0;  fill: rgb(0,130,142);" />
<path d="M 3532.459,1457.708 A 1625.580,1625.580 0.00 0,1 3533.1,1459.6 L 3533.1,1459.6 3469.4,1480.8 3403.4,1500.3 3335.2,1518.2 3265.0,1534.6 3193.0,1549.5 3119.1,1562.9 3043.7,1575.0 2966.7,1585.7 2888.3,1595.1 2808.6,1603.3 2727.7,1610.3 2645.9,1616.2 2563.1,1620.8 2479.6,1624.4 2395.4,1626.9 2310.7,1628.3 2225.5,1628.7 2140.1,1628.1 2054.6,1626.4 1969.0,1623.7 1883.4,1620.0 1798.2,1615.3 1713.2,1609.6 1628.8,1602.9 1544.9,1595.1 1461.7,1586.3 1379.4,1576.5 1298.1,1565.5 1217.9,1553.5 1138.8,1540.3 1061.2,1526.0 985.0,1510.4 910.4,1493.7 837.6,1475.6 766.6,1456.3 697.6,1435.5 630.7,1413.4 566.0,1389.8 503.7,1364.6  A 1625.580,1625.580 0.00 0,1 504.5,1362.8 L 504.5,1362.8 566.8,1388.0 631.4,1411.7 698.2,1433.9 767.2,1454.7 838.1,1474.1 910.9,1492.2 985.5,1509.0 1061.6,1524.6 1139.2,1539.0 1218.2,1552.2 1298.4,1564.3 1379.7,1575.3 1462.0,1585.2 1545.1,1594.0 1628.9,1601.8 1713.4,1608.6 1798.3,1614.3 1883.5,1619.0 1969.0,1622.7 2054.6,1625.4 2140.1,1627.1 2225.5,1627.7 2310.6,1627.3 2395.3,1625.8 2479.4,1623.3 2563.0,1619.7 2645.7,1615.0 2727.5,1609.1 2808.3,1602.1 2888.0,1593.8 2966.3,1584.3 3043.3,1573.5 3118.7,1561.4 3192.5,1547.9 3264.6,1533.0 3334.7,1516.5 3402.8,1498.6 3468.8,1479.0 3532.5,1457.7  Z" style="stroke-width: 0.0;  fill: rgb(230,112,95);" />
<path d="M 3533.126,1459.596 A 1625.580,1625.580 0.00 0,1 3533.8,1461.5 L 3533.8,1461.5 3466.8,1484.0 3397.6,1505.2 3326.5,1525.3 3253.5,1544.4 3178.6,1562.7 3102.2,1580.1 3024.2,1596.8 2944.8,1612.9 2864.2,1628.5 2782.3,1643.6 2699.4,1658.3 2615.5,1672.6 2530.8,1686.7 2445.4,1700.4 2359.3,1713.9 2272.8,1727.2 2185.8,1740.4 2098.6,1753.3 2011.1,1766.0 1923.6,1778.5 1836.1,1790.9 1748.8,1802.9 1661.6,1814.8 1574.8,1826.3 1488.4,1837.5 1402.6,1848.2 1317.3,1858.5 1232.8,1868.3 1149.1,1877.5 1066.3,1886.0 984.5,1893.7 903.8,1900.5 824.2,1906.3 746.0,1911.0 669.1,1914.5 593.6,1916.7 519.7,1917.4 447.3,1916.4 376.7,1913.6  A 1625.580,1625.580 0.00 0,1 376.8,1911.6 L 376.8,1911.6 447.4,1914.5 519.7,1915.5 593.6,1914.9 669.1,1912.9 746.0,1909.4 824.2,1904.8 903.7,1899.0 984.5,1892.3 1066.3,1884.6 1149.0,1876.2 1232.7,1867.1 1317.3,1857.4 1402.5,1847.1 1488.3,1836.4 1574.7,1825.2 1661.5,1813.7 1748.7,1801.9 1836.0,1789.8 1923.5,1777.5 2011.0,1765.0 2098.4,1752.3 2185.6,1739.3 2272.6,1726.2 2359.1,1712.9 2445.2,1699.3 2530.6,1685.5 2615.3,1671.5 2699.1,1657.1 2782.0,1642.3 2863.8,1627.2 2944.5,1611.6 3023.8,1595.4 3101.8,1578.6 3178.2,1561.1 3253.0,1542.8 3326.0,1523.6 3397.1,1503.5 3466.2,1482.1 3533.1,1459.6  Z" style="stroke-width: 0.0;  fill: rgb(235,168,78);" />
<path d="M 3533.790,1461.485 A 1625.580,1625.580 0.00 0,1 3535.8,1467.2 L 3535.8,1467.2 3468.2,1489.6 3398.5,1510.9 3326.9,1531.1 3253.4,1550.4 3178.2,1568.9 3101.4,1586.7 3023.1,1603.9 2943.4,1620.6 2862.5,1636.8 2780.5,1652.7 2697.5,1668.3 2613.5,1683.7 2528.7,1698.9 2443.3,1713.9 2357.3,1728.9 2270.8,1743.7 2183.9,1758.5 2096.8,1773.2 2009.5,1787.9 1922.1,1802.5 1834.8,1817.0 1747.6,1831.4 1660.6,1845.6 1574.0,1859.7 1487.8,1873.5 1402.1,1887.0 1317.0,1900.2 1232.6,1912.9 1149.0,1925.2 1066.3,1936.8 984.5,1947.7 903.7,1957.8 824.1,1967.0 745.7,1975.1 668.5,1982.1 592.8,1987.7 518.5,1991.8 445.6,1994.4 374.4,1995.1  A 1625.580,1625.580 0.00 0,1 374.5,1989.1 L 374.5,1989.1 445.6,1988.6 518.3,1986.3 592.6,1982.4 668.3,1977.0 745.4,1970.3 823.8,1962.4 903.4,1953.4 984.1,1943.5 1065.9,1932.8 1148.6,1921.3 1232.2,1909.3 1316.6,1896.7 1401.7,1883.6 1487.4,1870.2 1573.6,1856.5 1660.2,1842.5 1747.1,1828.3 1834.3,1813.9 1921.6,1799.4 2009.0,1784.9 2096.2,1770.2 2183.3,1755.4 2270.2,1740.6 2356.6,1725.7 2442.6,1710.7 2528.0,1695.5 2612.7,1680.2 2696.6,1664.7 2779.6,1649.0 2861.6,1632.9 2942.4,1616.5 3022.0,1599.6 3100.1,1582.3 3176.8,1564.3 3251.9,1545.6 3325.3,1526.1 3396.8,1505.6 3466.4,1484.1 3533.8,1461.5  Z" style="stroke-width: 0.0;  fill: rgb(220,140,52);" />
<path d="M 3535.770,1467.157 A 1625.580,1625.580 0.00 0,1 3538.4,1474.7 L 3538.4,1474.7 3469.8,1497.2 3399.3,1518.6 3326.9,1539.1 3252.7,1558.8 3176.9,1577.8 3099.6,1596.3 3020.9,1614.4 2940.9,1632.1 2859.8,1649.6 2777.6,1666.9 2694.5,1684.1 2610.6,1701.3 2525.9,1718.5 2440.6,1735.8 2354.8,1753.1 2268.7,1770.6 2182.2,1788.3 2095.5,1806.1 2008.7,1824.0 1921.8,1842.1 1835.1,1860.3 1748.5,1878.6 1662.1,1897.0 1576.1,1915.3 1490.5,1933.6 1405.4,1951.8 1321.0,1969.9 1237.1,1987.6 1154.1,2005.0 1071.8,2021.9 990.4,2038.3 910.0,2054.0 830.7,2068.8 752.4,2082.7 675.3,2095.5 599.4,2107.1 524.9,2117.2 451.6,2125.8 379.8,2132.5  A 1625.580,1625.580 0.00 0,1 379.2,2124.5 L 379.2,2124.5 450.9,2118.1 524.1,2109.9 598.6,2100.1 674.5,2088.9 751.5,2076.4 829.8,2062.8 909.1,2048.2 989.5,2032.8 1070.9,2016.7 1153.2,2000.0 1236.2,1982.8 1320.1,1965.2 1404.6,1947.4 1489.7,1929.3 1575.3,1911.1 1661.3,1892.8 1747.6,1874.5 1834.2,1856.3 1921.0,1838.1 2007.8,1820.0 2094.6,1802.1 2181.3,1784.2 2267.8,1766.5 2353.9,1748.9 2439.7,1731.4 2524.9,1714.0 2609.5,1696.7 2693.4,1679.3 2776.4,1661.9 2858.5,1644.4 2939.6,1626.7 3019.4,1608.7 3098.0,1590.4 3175.2,1571.7 3250.8,1552.4 3324.8,1532.4 3397.1,1511.6 3467.4,1489.9 3535.8,1467.2  Z" style="stroke-width: 0.0;  fill: rgb(108,170,228);" />
<path d="M 3538.376,1474.730 A 1625.580,1625.580 0.00 0,1 3543.5,1489.9 L 3543.5,1489.9 3473.3,1513.9 3402.1,1539.5 3330.0,1566.7 3257.0,1595.1 3183.1,1624.6 3108.3,1654.9 3032.7,1686.0 2956.2,1717.7 2878.9,1749.7 2800.8,1782.0 2722.0,1814.4 2642.4,1846.9 2562.2,1879.2 2481.5,1911.4 2400.1,1943.2 2318.2,1974.7 2235.9,2005.7 2153.3,2036.3 2070.3,2066.3 1987.0,2095.7 1903.6,2124.6 1820.1,2152.8 1736.6,2180.4 1653.1,2207.3 1569.8,2233.7 1486.8,2259.5 1404.1,2284.7 1321.9,2309.5 1240.2,2333.8 1159.1,2357.7 1078.9,2381.4 999.5,2404.9 921.1,2428.3 843.8,2451.6 767.8,2475.2 693.2,2499.0 620.1,2523.2 548.6,2547.9 478.9,2573.4  A 1625.580,1625.580 0.00 0,1 473.3,2558.4 L 473.3,2558.4 543.5,2533.5 615.3,2509.4 688.8,2485.7 763.7,2462.5 840.0,2439.5 917.6,2416.7 996.2,2393.8 1075.8,2370.8 1156.2,2347.6 1237.4,2324.1 1319.2,2300.2 1401.5,2275.8 1484.3,2250.8 1567.3,2225.3 1650.7,2199.2 1734.1,2172.4 1817.6,2145.0 1901.1,2116.9 1984.4,2088.2 2067.6,2058.8 2150.5,2028.8 2233.0,1998.1 2315.2,1967.0 2396.9,1935.4 2478.1,1903.3 2558.8,1870.9 2638.8,1838.3 2718.2,1805.5 2796.8,1772.7 2874.8,1740.0 2951.9,1707.5 3028.3,1675.3 3103.8,1643.7 3178.4,1612.8 3252.2,1582.7 3325.1,1553.6 3397.1,1525.8 3468.2,1499.4 3538.4,1474.7  Z" style="stroke-width: 0.0;  fill: rgb(82,145,215);" />
<path d="M 3543.477,1489.914 A 1625.580,1625.580 0.00 0,1 3550.8,1512.8 L 3550.8,1512.8 3482.4,1535.2 3412.9,1559.7 3342.4,1586.1 3271.0,1614.1 3198.7,1643.7 3125.5,1674.6 3051.4,1706.6 2976.5,1739.7 2900.8,1773.7 2824.4,1808.5 2747.3,1843.9 2669.5,1879.8 2591.1,1916.1 2512.2,1952.8 2432.9,1989.7 2353.1,2026.7 2273.0,2063.9 2192.7,2101.0 2112.1,2138.1 2031.5,2175.1 1950.9,2211.9 1870.4,2248.6 1790.0,2285.1 1709.9,2321.4 1630.2,2357.5 1550.9,2393.4 1472.3,2429.2 1394.3,2464.7 1317.2,2500.1 1241.0,2535.4 1165.9,2570.6 1091.9,2605.8 1019.3,2641.0 948.2,2676.4 878.6,2711.9 810.8,2747.8 744.9,2784.0 681.0,2820.7 619.3,2858.0  A 1625.580,1625.580 0.00 0,1 606.8,2837.5 L 606.8,2837.5 669.2,2800.9 733.9,2765.0 800.5,2729.5 869.0,2694.4 939.1,2659.5 1010.8,2624.8 1084.0,2590.3 1158.4,2555.7 1233.9,2521.1 1310.5,2486.3 1388.0,2451.4 1466.2,2416.4 1545.1,2381.1 1624.6,2345.5 1704.5,2309.7 1784.7,2273.6 1865.2,2237.3 1945.8,2200.7 2026.4,2164.0 2107.1,2127.0 2187.5,2089.8 2267.8,2052.5 2347.9,2015.2 2427.5,1977.9 2506.8,1940.7 2585.5,1903.7 2663.7,1866.9 2741.4,1830.4 2818.3,1794.4 2894.6,1759.0 2970.1,1724.3 3044.8,1690.5 3118.8,1657.6 3191.8,1625.8 3264.0,1595.4 3335.3,1566.4 3405.6,1539.0 3475.0,1513.4 3543.5,1489.9  Z" style="stroke-width: 0.0;  fill: rgb(60,120,198);" />
<path d="M 3550.848,1512.783 A 1625.580,1625.580 0.00 0,1 3591.3,1667.7 L 3591.3,1667.7 3524.4,1682.8 3456.3,1700.4 3387.2,1720.3 3317.1,1742.3 3246.1,1766.4 3174.1,1792.5 3101.3,1820.3 3027.8,1849.8 2953.6,1880.8 2878.7,1913.4 2803.4,1947.2 2727.6,1982.4 2651.4,2018.7 2575.0,2056.0 2498.3,2094.4 2421.6,2133.7 2344.8,2173.8 2268.2,2214.6 2191.7,2256.2 2115.5,2298.4 2039.7,2341.2 1964.4,2384.5 1889.6,2428.3 1815.6,2472.5 1742.5,2517.1 1670.2,2562.1 1599.0,2607.4 1529.0,2653.0 1460.3,2698.9 1393.1,2745.1 1327.4,2791.5 1263.4,2838.2 1201.2,2885.1 1140.9,2932.3 1082.8,2979.8 1026.9,3027.5 973.4,3075.5 922.4,3123.9 874.1,3172.6  A 1625.580,1625.580 0.00 0,1 764.2,3056.1 L 764.2,3056.1 818.5,3011.0 875.2,2966.4 934.3,2922.0 995.4,2877.9 1058.6,2834.1 1123.5,2790.4 1190.2,2746.8 1258.5,2703.3 1328.1,2659.8 1399.0,2616.4 1471.1,2573.0 1544.3,2529.7 1618.3,2486.3 1693.1,2442.9 1768.6,2399.6 1844.7,2356.3 1921.2,2313.1 1998.1,2270.0 2075.2,2227.0 2152.5,2184.2 2229.9,2141.6 2307.2,2099.3 2384.4,2057.4 2461.5,2015.9 2538.3,1974.9 2614.7,1934.4 2690.8,1894.7 2766.3,1855.7 2841.4,1817.6 2915.8,1780.5 2989.6,1744.5 3062.6,1709.8 3134.9,1676.4 3206.5,1644.5 3277.2,1614.2 3347.0,1585.8 3415.9,1559.3 3483.8,1534.9 3550.8,1512.8  Z" style="stroke-width: 0.0;  fill: rgb(28,75,160);" />
<path d="M 3591.257,1667.719 A 1625.580,1625.580 0.00 0,1 3610.1,1776.2 L 3610.1,1776.2 3547.0,1786.3 3483.0,1799.2 3418.0,1814.8 3352.3,1833.0 3285.9,1853.8 3219.0,1877.2 3151.7,1902.9 3084.2,1931.0 3016.4,1961.4 2948.6,1994.0 2880.8,2028.8 2813.3,2065.6 2746.0,2104.4 2679.1,2145.0 2612.7,2187.5 2546.9,2231.8 2481.8,2277.7 2417.6,2325.1 2354.3,2374.1 2292.1,2424.5 2231.1,2476.2 2171.2,2529.1 2112.8,2583.2 2055.8,2638.3 2000.4,2694.4 1946.7,2751.3 1894.8,2809.1 1844.7,2867.5 1796.6,2926.6 1750.6,2986.1 1706.8,3046.0 1665.2,3106.3 1626.0,3166.7 1589.3,3227.3 1555.1,3287.9 1523.6,3348.3 1494.8,3408.6 1468.8,3468.6 1445.8,3528.2  A 1625.580,1625.580 0.00 0,1 1343.6,3487.2 L 1343.6,3487.2 1371.1,3428.1 1401.5,3368.7 1434.7,3309.0 1470.6,3249.2 1509.0,3189.3 1549.9,3129.3 1593.2,3069.4 1638.7,3009.7 1686.4,2950.1 1736.1,2890.8 1787.7,2831.9 1841.2,2773.5 1896.3,2715.5 1953.1,2658.2 2011.4,2601.6 2071.0,2545.7 2132.0,2490.7 2194.1,2436.6 2257.4,2383.5 2321.5,2331.6 2386.6,2280.8 2452.4,2231.3 2519.0,2183.1 2586.0,2136.4 2653.5,2091.2 2721.4,2047.6 2789.6,2005.7 2857.9,1965.6 2926.3,1927.4 2994.6,1891.1 3062.8,1856.9 3130.7,1824.8 3198.3,1795.0 3265.5,1767.4 3332.1,1742.3 3398.1,1719.7 3463.3,1699.6 3527.8,1682.3 3591.3,1667.7  Z" style="stroke-width: 0.0;  fill: rgb(42,98,180);" />
<path d="M 3610.101,1776.200 A 1625.580,1625.580 0.00 0,1 3614.9,1813.9 L 3614.9,1813.9 3555.6,1822.1 3495.7,1833.0 3435.4,1846.6 3375.0,1863.0 3314.4,1882.0 3254.1,1903.7 3194.0,1928.0 3134.5,1954.9 3075.6,1984.3 3017.5,2016.3 2960.4,2050.6 2904.4,2087.3 2849.6,2126.4 2796.2,2167.6 2744.2,2211.1 2693.9,2256.6 2645.2,2304.1 2598.4,2353.5 2553.5,2404.7 2510.6,2457.7 2469.8,2512.2 2431.1,2568.3 2394.7,2625.7 2360.6,2684.4 2328.9,2744.2 2299.6,2805.0 2272.8,2866.7 2248.5,2929.1 2226.7,2992.1 2207.5,3055.5 2190.9,3119.2 2176.9,3183.1 2165.6,3246.8 2156.9,3310.4 2150.8,3373.5 2147.3,3436.1 2146.5,3497.9 2148.2,3558.7 2152.5,3618.4  A 1625.580,1625.580 0.00 0,1 2114.6,3621.5 L 2114.6,3621.5 2111.7,3561.4 2111.4,3500.1 2113.7,3437.8 2118.6,3374.8 2126.1,3311.2 2136.3,3247.1 2149.1,3182.9 2164.6,3118.5 2182.6,3054.2 2203.2,2990.2 2226.3,2926.5 2252.0,2863.4 2280.1,2801.0 2310.6,2739.3 2343.6,2678.7 2378.8,2619.1 2416.3,2560.7 2455.9,2503.7 2497.7,2448.1 2541.5,2394.1 2587.2,2341.7 2634.8,2291.1 2684.1,2242.3 2735.1,2195.5 2787.7,2150.8 2841.6,2108.1 2896.9,2067.7 2953.3,2029.5 3010.8,1993.7 3069.2,1960.3 3128.3,1929.3 3188.1,1900.9 3248.3,1875.0 3308.9,1851.8 3369.5,1831.2 3430.2,1813.3 3490.6,1798.2 3550.7,1785.8 3610.1,1776.2  Z" style="stroke-width: 0.0;  fill: rgb(15,52,135);" />
</g>
<defs>
<pattern id="checker" width="10" height="10" patternTransform="rotate(45 0 0)" patternUnits="userSpaceOnUse"><line x1="0" y1="0" x2="10" y2="0" style="stroke:black;stroke-width:5" /><line x1="0" y1="0" x2="0" y2="10" style="stroke:black;stroke-width:4" /></pattern>
<pattern id="vline" width="10" height="10" patternTransform="rotate(0 0 0)" patternUnits="userSpaceOnUse"><line x1="0" y1="0" x2="0" y2="10" style="stroke:black;stroke-width:5" /></pattern>
<pattern id="vline-sparse" width="10" height="10" patternTransform="rotate(0 0 0)" patternUnits="userSpaceOnUse"><line x1="0" y1="0" x2="0" y2="10" style="stroke:black;stroke-width:2" /></pattern>
<pattern id="hline-sparse" width="10" height="10" patternTransform="rotate(0 0 0)" patternUnits="userSpaceOnUse"><line x1="0" y1="0" x2="10" y2="0" style="stroke:black;stroke-width:2" /></pattern>
<pattern id="checker" width="10" height="10" patternTransform="rotate(45 0 0)" patternUnits="userSpaceOnUse"><line x1="0" y1="0" x2="10" y2="0" style="stroke:black;stroke-width:2" /><line x1="0" y1="0" x2="0" y2="10" style="stroke:black;stroke-width:2" /></pattern>
<pattern id="hline" width="10" height="10" patternTransform="rotate(0 0 0)" patternUnits="userSpaceOnUse"><line x1="0" y1="0" x2="10" y2="0" style="stroke:black;stroke-width:5" /></pattern>
</defs>
</svg>
