<?xml version="1.0" encoding="utf-8" standalone="no"?>
<!DOCTYPE svg PUBLIC "-//W3C//DTD SVG 1.1//EN" "http://www.w3.org/Graphics/SVG/1.1/DTD/svg11.dtd">
<svg width="4000px" height="4000px" version="1.1" xmlns="http://www.w3.org/2000/svg" xmlns:xlink="http://www.w3.org/1999/xlink">
<g id="bg">
<rect x="0" y="0" width="4000px" height="4000px" style="fill:rgb(255,255,255);"/>
</g>
<g id="ideograms">
<path d="M2000.000,358.000 A1642.000,1642.000 40.000 0,1 2751.610,540.121 L2769.004,506.336 A1680.000,1680.000 0.000 0,0 2000.000,320.000 Z" style="stroke-width:2.0;stroke:rgb(255,255,255);stroke-linecap:round;fill:rgb(185,185,185);" />
<text x="2427.0" y="305.8" font-size="36.4px" font-family="CMUBright-Roman" style="text-anchor:start;fill:rgb(0,0,0);" transform="rotate(283.6,2427.0,305.8)" >Management-Operations</text>
<path d="M2000.000,358.000 A1642.000,1642.000 40.000 0,1 2751.610,540.121 L2769.004,506.336 A1680.000,1680.000 0.000 0,0 2000.000,320.000 Z" style="stroke-width:2.0;stroke:rgb(255,255,255);stroke-linecap:round;fill:none;" />
<path d="M2783.279,556.865 A1642.000,1642.000 40.000 0,1 3226.411,908.176 L3254.793,882.908 A1680.000,1680.000 0.000 0,0 2801.406,523.467 Z" style="stroke-width:2.0;stroke:rgb(255,255,255);stroke-linecap:round;fill:rgb(185,185,185);" />
<text x="3097.5" y="640.5" font-size="36.4px" font-family="CMUBright-Roman" style="text-anchor:start;fill:rgb(0,0,0);" transform="rotate(308.4,3097.5,640.5)" >Engineering</text>
<path d="M2783.279,556.865 A1642.000,1642.000 40.000 0,1 3226.411,908.176 L3254.793,882.908 A1680.000,1680.000 0.000 0,0 2801.406,523.467 Z" style="stroke-width:2.0;stroke:rgb(255,255,255);stroke-linecap:round;fill:none;" />
<path d="M3249.937,935.189 A1642.000,1642.000 40.000 0,1 3507.538,1349.236 L3542.426,1334.176 A1680.000,1680.000 0.000 0,0 3278.864,910.547 Z" style="stroke-width:2.0;stroke:rgb(255,255,255);stroke-linecap:round;fill:rgb(185,185,185);" />
<text x="3491.6" y="1090.2" font-size="36.4px" font-family="CMUBright-Roman" style="text-anchor:start;fill:rgb(0,0,0);" transform="rotate(328.1,3491.6,1090.2)" >Leadership-General</text>
<path d="M3249.937,935.189 A1642.000,1642.000 40.000 0,1 3507.538,1349.236 L3542.426,1334.176 A1680.000,1680.000 0.000 0,0 3278.864,910.547 Z" style="stroke-width:2.0;stroke:rgb(255,255,255);stroke-linecap:round;fill:none;" />
<path d="M3521.375,1382.278 A1642.000,1642.000 40.000 0,1 3633.192,1830.154 L3670.988,1826.223 A1680.000,1680.000 0.000 0,0 3556.584,1367.982 Z" style="stroke-width:2.0;stroke:rgb(255,255,255);stroke-linecap:round;fill:rgb(185,185,185);" />
<text x="3699.0" y="1592.3" font-size="36.4px" font-family="CMUBright-Roman" style="text-anchor:start;fill:rgb(0,0,0);" transform="rotate(346.0,3699.0,1592.3)" >Sales-Marketing</text>
<path d="M3521.375,1382.278 A1642.000,1642.000 40.000 0,1 3633.192,1830.154 L3670.988,1826.223 A1680.000,1680.000 0.000 0,0 3556.584,1367.982 Z" style="stroke-width:2.0;stroke:rgb(255,255,255);stroke-linecap:round;fill:none;" />
<path d="M3636.509,1865.822 A1642.000,1642.000 40.000 0,1 3610.774,2318.704 L3648.051,2326.079 A1680.000,1680.000 0.000 0,0 3674.381,1862.717 Z" style="stroke-width:2.0;stroke:rgb(255,255,255);stroke-linecap:round;fill:rgb(185,185,185);" />
<text x="3743.6" y="2111.6" font-size="36.4px" font-family="CMUBright-Roman" style="text-anchor:start;fill:rgb(0,0,0);" transform="rotate(3.3,3743.6,2111.6)" >Finance-Investment</text>
<path d="M3636.509,1865.822 A1642.000,1642.000 40.000 0,1 3610.774,2318.704 L3648.051,2326.079 A1680.000,1680.000 0.000 0,0 3674.381,1862.717 Z" style="stroke-width:2.0;stroke:rgb(255,255,255);stroke-linecap:round;fill:none;" />
<path d="M3603.438,2353.767 A1642.000,1642.000 40.000 0,1 3499.856,2668.278 L3534.566,2683.744 A1680.000,1680.000 0.000 0,0 3640.546,2361.954 Z" style="stroke-width:2.0;stroke:rgb(255,255,255);stroke-linecap:round;fill:rgb(185,185,185);" />
<text x="3655.6" y="2558.4" font-size="36.4px" font-family="CMUBright-Roman" style="text-anchor:start;fill:rgb(0,0,0);" transform="rotate(18.2,3655.6,2558.4)" >Software-Data</text>
<path d="M3603.438,2353.767 A1642.000,1642.000 40.000 0,1 3499.856,2668.278 L3534.566,2683.744 A1680.000,1680.000 0.000 0,0 3640.546,2361.954 Z" style="stroke-width:2.0;stroke:rgb(255,255,255);stroke-linecap:round;fill:none;" />
<path d="M3484.921,2700.839 A1642.000,1642.000 40.000 0,1 3330.895,2961.708 L3361.695,2983.964 A1680.000,1680.000 0.000 0,0 3519.285,2717.058 Z" style="stroke-width:2.0;stroke:rgb(255,255,255);stroke-linecap:round;fill:rgb(185,185,185);" />
<text x="3498.1" y="2899.1" font-size="36.4px" font-family="CMUBright-Roman" style="text-anchor:start;fill:rgb(0,0,0);" transform="rotate(30.6,3498.1,2899.1)" >Education</text>
<path d="M3484.921,2700.839 A1642.000,1642.000 40.000 0,1 3330.895,2961.708 L3361.695,2983.964 A1680.000,1680.000 0.000 0,0 3519.285,2717.058 Z" style="stroke-width:2.0;stroke:rgb(255,255,255);stroke-linecap:round;fill:none;" />
<path d="M3309.599,2990.512 A1642.000,1642.000 40.000 0,1 3129.055,3192.225 L3155.184,3219.816 A1680.000,1680.000 0.000 0,0 3339.906,3013.435 Z" style="stroke-width:2.0;stroke:rgb(255,255,255);stroke-linecap:round;fill:rgb(185,185,185);" />
<text x="3293.5" y="3174.5" font-size="36.4px" font-family="CMUBright-Roman" style="text-anchor:start;fill:rgb(0,0,0);" transform="rotate(41.8,3293.5,3174.5)" >Research-Science</text>
<path d="M3309.599,2990.512 A1642.000,1642.000 40.000 0,1 3129.055,3192.225 L3155.184,3219.816 A1680.000,1680.000 0.000 0,0 3339.906,3013.435 Z" style="stroke-width:2.0;stroke:rgb(255,255,255);stroke-linecap:round;fill:none;" />
<path d="M3102.778,3216.571 A1642.000,1642.000 40.000 0,1 2891.302,3379.038 L2911.929,3410.952 A1680.000,1680.000 0.000 0,0 3128.299,3244.726 Z" style="stroke-width:2.0;stroke:rgb(255,255,255);stroke-linecap:round;fill:rgb(185,185,185);" />
<text x="3054.5" y="3393.1" font-size="36.4px" font-family="CMUBright-Roman" style="text-anchor:start;fill:rgb(0,0,0);" transform="rotate(52.5,3054.5,3393.1)" >Clinical-Care</text>
<path d="M3102.778,3216.571 A1642.000,1642.000 40.000 0,1 2891.302,3379.038 L2911.929,3410.952 A1680.000,1680.000 0.000 0,0 3128.299,3244.726 Z" style="stroke-width:2.0;stroke:rgb(255,255,255);stroke-linecap:round;fill:none;" />
<path d="M2861.006,3398.153 A1642.000,1642.000 40.000 0,1 2640.127,3512.085 L2654.941,3547.079 A1680.000,1680.000 0.000 0,0 2880.932,3430.510 Z" style="stroke-width:2.0;stroke:rgb(255,255,255);stroke-linecap:round;fill:rgb(185,185,185);" />
<text x="2786.7" y="3560.1" font-size="36.4px" font-family="CMUBright-Roman" style="text-anchor:start;fill:rgb(0,0,0);" transform="rotate(62.7,2786.7,3560.1)" >Accounting-Audit</text>
<path d="M2861.006,3398.153 A1642.000,1642.000 40.000 0,1 2640.127,3512.085 L2654.941,3547.079 A1680.000,1680.000 0.000 0,0 2880.932,3430.510 Z" style="stroke-width:2.0;stroke:rgb(255,255,255);stroke-linecap:round;fill:none;" />
<path d="M2606.988,3525.690 A1642.000,1642.000 40.000 0,1 2452.002,3578.562 L2462.463,3615.094 A1680.000,1680.000 0.000 0,0 2621.036,3560.998 Z" style="stroke-width:2.0;stroke:rgb(255,255,255);stroke-linecap:round;fill:rgb(185,185,185);" />
<text x="2552.3" y="3657.6" font-size="36.4px" font-family="CMUBright-Roman" style="text-anchor:start;fill:rgb(0,0,0);" transform="rotate(71.2,2552.3,3657.6)" >Social-Service</text>
<path d="M2606.988,3525.690 A1642.000,1642.000 40.000 0,1 2452.002,3578.562 L2462.463,3615.094 A1680.000,1680.000 0.000 0,0 2621.036,3560.998 Z" style="stroke-width:2.0;stroke:rgb(255,255,255);stroke-linecap:round;fill:none;" />
<path d="M2417.459,3588.047 A1642.000,1642.000 40.000 0,1 2320.910,3610.336 L2328.336,3647.603 A1680.000,1680.000 0.000 0,0 2427.120,3624.798 Z" style="stroke-width:2.0;stroke:rgb(255,255,255);stroke-linecap:round;fill:rgb(185,185,185);" />
<text x="2380.8" y="3705.2" font-size="36.4px" font-family="CMUBright-Roman" style="text-anchor:start;fill:rgb(0,0,0);" transform="rotate(77.0,2380.8,3705.2)" >IT-Infrastructure</text>
<path d="M2417.459,3588.047 A1642.000,1642.000 40.000 0,1 2320.910,3610.336 L2328.336,3647.603 A1680.000,1680.000 0.000 0,0 2427.120,3624.798 Z" style="stroke-width:2.0;stroke:rgb(255,255,255);stroke-linecap:round;fill:none;" />
<path d="M2285.704,3616.953 A1642.000,1642.000 40.000 0,1 2189.660,3631.010 L2194.050,3668.755 A1680.000,1680.000 0.000 0,0 2292.316,3654.373 Z" style="stroke-width:2.0;stroke:rgb(255,255,255);stroke-linecap:round;fill:rgb(185,185,185);" />
<text x="2237.2" y="3731.0" font-size="36.4px" font-family="CMUBright-Roman" style="text-anchor:start;fill:rgb(0,0,0);" transform="rotate(81.7,2237.2,3731.0)" >Legal-Policy</text>
<path d="M2285.704,3616.953 A1642.000,1642.000 40.000 0,1 2189.660,3631.010 L2194.050,3668.755 A1680.000,1680.000 0.000 0,0 2292.316,3654.373 Z" style="stroke-width:2.0;stroke:rgb(255,255,255);stroke-linecap:round;fill:none;" />
<path d="M2154.035,3634.759 A1642.000,1642.000 40.000 0,1 1474.020,3555.477 L1461.848,3591.475 A1680.000,1680.000 0.000 0,0 2157.600,3672.592 Z" style="stroke-width:2.0;stroke:rgb(255,255,255);stroke-linecap:round;fill:rgb(15,52,135);" />
<text x="1813.6" y="3737.2" font-size="36.4px" font-family="CMUBright-Roman" style="text-anchor:end;fill:rgb(0,0,0);" transform="rotate(-83.3,1813.6,3737.2)" >Finance-Accounting</text>
<path d="M2154.035,3634.759 A1642.000,1642.000 40.000 0,1 1474.020,3555.477 L1461.848,3591.475 A1680.000,1680.000 0.000 0,0 2157.600,3672.592 Z" style="stroke-width:2.0;stroke:rgb(255,255,255);stroke-linecap:round;fill:none;" />
<path d="M1440.213,3543.633 A1642.000,1642.000 40.000 0,1 888.845,3208.925 L863.130,3236.902 A1680.000,1680.000 0.000 0,0 1427.258,3579.356 Z" style="stroke-width:2.0;stroke:rgb(255,255,255);stroke-linecap:round;fill:rgb(42,98,180);" />
<text x="1104.1" y="3500.0" font-size="36.4px" font-family="CMUBright-Roman" style="text-anchor:end;fill:rgb(0,0,0);" transform="rotate(-58.7,1104.1,3500.0)" >General-Business</text>
<path d="M1440.213,3543.633 A1642.000,1642.000 40.000 0,1 888.845,3208.925 L863.130,3236.902 A1680.000,1680.000 0.000 0,0 1427.258,3579.356 Z" style="stroke-width:2.0;stroke:rgb(255,255,255);stroke-linecap:round;fill:none;" />
<path d="M862.737,3184.397 A1642.000,1642.000 40.000 0,1 624.574,2896.866 L592.744,2917.622 A1680.000,1680.000 0.000 0,0 836.418,3211.807 Z" style="stroke-width:2.0;stroke:rgb(255,255,255);stroke-linecap:round;fill:rgb(28,75,160);" />
<text x="664.7" y="3126.8" font-size="36.4px" font-family="CMUBright-Roman" style="text-anchor:end;fill:rgb(0,0,0);" transform="rotate(-39.6,664.7,3126.8)" >Marketing-Communication</text>
<path d="M862.737,3184.397 A1642.000,1642.000 40.000 0,1 624.574,2896.866 L592.744,2917.622 A1680.000,1680.000 0.000 0,0 836.418,3211.807 Z" style="stroke-width:2.0;stroke:rgb(255,255,255);stroke-linecap:round;fill:none;" />
<path d="M605.337,2866.648 A1642.000,1642.000 40.000 0,1 476.558,2612.607 L441.301,2626.784 A1680.000,1680.000 0.000 0,0 573.061,2886.704 Z" style="stroke-width:2.0;stroke:rgb(255,255,255);stroke-linecap:round;fill:rgb(60,120,198);" />
<text x="448.7" y="2803.8" font-size="36.4px" font-family="CMUBright-Roman" style="text-anchor:end;fill:rgb(0,0,0);" transform="rotate(-26.9,448.7,2803.8)" >Operations-Analytics</text>
<path d="M605.337,2866.648 A1642.000,1642.000 40.000 0,1 476.558,2612.607 L441.301,2626.784 A1680.000,1680.000 0.000 0,0 573.061,2886.704 Z" style="stroke-width:2.0;stroke:rgb(255,255,255);stroke-linecap:round;fill:none;" />
<path d="M463.556,2579.227 A1642.000,1642.000 40.000 0,1 407.419,2399.813 L370.563,2409.066 A1680.000,1680.000 0.000 0,0 427.999,2592.632 Z" style="stroke-width:2.0;stroke:rgb(255,255,255);stroke-linecap:round;fill:rgb(82,145,215);" />
<text x="337.2" y="2536.5" font-size="36.4px" font-family="CMUBright-Roman" style="text-anchor:end;fill:rgb(0,0,0);" transform="rotate(-17.4,337.2,2536.5)" >Specialized-Business</text>
<path d="M463.556,2579.227 A1642.000,1642.000 40.000 0,1 407.419,2399.813 L370.563,2409.066 A1680.000,1680.000 0.000 0,0 427.999,2592.632 Z" style="stroke-width:2.0;stroke:rgb(255,255,255);stroke-linecap:round;fill:none;" />
<path d="M399.076,2364.976 A1642.000,1642.000 40.000 0,1 366.776,2169.540 L328.979,2173.464 A1680.000,1680.000 0.000 0,0 362.027,2373.422 Z" style="stroke-width:2.0;stroke:rgb(255,255,255);stroke-linecap:round;fill:rgb(200,108,30);" />
<text x="278.3" y="2297.2" font-size="36.4px" font-family="CMUBright-Roman" style="text-anchor:end;fill:rgb(0,0,0);" transform="rotate(-9.4,278.3,2297.2)" >Social-Sciences</text>
<path d="M399.076,2364.976 A1642.000,1642.000 40.000 0,1 366.776,2169.540 L328.979,2173.464 A1680.000,1680.000 0.000 0,0 362.027,2373.422 Z" style="stroke-width:2.0;stroke:rgb(255,255,255);stroke-linecap:round;fill:none;" />
<path d="M363.466,2133.872 A1642.000,1642.000 40.000 0,1 358.290,2030.870 L320.297,2031.584 A1680.000,1680.000 0.000 0,0 325.593,2136.970 Z" style="stroke-width:2.0;stroke:rgb(255,255,255);stroke-linecap:round;fill:rgb(108,170,228);" />
<text x="255.6" y="2099.7" font-size="36.4px" font-family="CMUBright-Roman" style="text-anchor:end;fill:rgb(0,0,0);" transform="rotate(-2.9,255.6,2099.7)" >Economics</text>
<path d="M363.466,2133.872 A1642.000,1642.000 40.000 0,1 358.290,2030.870 L320.297,2031.584 A1680.000,1680.000 0.000 0,0 325.593,2136.970 Z" style="stroke-width:2.0;stroke:rgb(255,255,255);stroke-linecap:round;fill:none;" />
<path d="M358.007,1995.049 A1642.000,1642.000 40.000 0,1 358.807,1948.539 L320.825,1947.348 A1680.000,1680.000 0.000 0,0 320.008,1994.934 Z" style="stroke-width:2.0;stroke:rgb(255,255,255);stroke-linecap:round;fill:rgb(220,140,52);" />
<text x="252.9" y="1982.5" font-size="36.4px" font-family="CMUBright-Roman" style="text-anchor:end;fill:rgb(0,0,0);" transform="rotate(1.0,252.9,1982.5)" >Humanities-Liberal-Arts</text>
<path d="M358.007,1995.049 A1642.000,1642.000 40.000 0,1 358.807,1948.539 L320.825,1947.348 A1680.000,1680.000 0.000 0,0 320.008,1994.934 Z" style="stroke-width:2.0;stroke:rgb(255,255,255);stroke-linecap:round;fill:none;" />
<path d="M360.320,1912.749 A1642.000,1642.000 40.000 0,1 361.133,1898.615 L323.205,1896.269 A1680.000,1680.000 0.000 0,0 322.373,1910.730 Z" style="stroke-width:2.0;stroke:rgb(255,255,255);stroke-linecap:round;fill:rgb(235,168,78);" />
<text x="255.0" y="1912.1" font-size="36.4px" font-family="CMUBright-Roman" style="text-anchor:end;fill:rgb(0,0,0);" transform="rotate(3.3,255.0,1912.1)" >International-Studies</text>
<path d="M360.320,1912.749 A1642.000,1642.000 40.000 0,1 361.133,1898.615 L323.205,1896.269 A1680.000,1680.000 0.000 0,0 322.373,1910.730 Z" style="stroke-width:2.0;stroke:rgb(255,255,255);stroke-linecap:round;fill:none;" />
<path d="M363.735,1862.887 A1642.000,1642.000 40.000 0,1 391.336,1670.812 L354.108,1663.193 A1680.000,1680.000 0.000 0,0 325.867,1859.714 Z" style="stroke-width:2.0;stroke:rgb(255,255,255);stroke-linecap:round;fill:rgb(195,58,55);" />
<text x="268.8" y="1763.9" font-size="36.4px" font-family="CMUBright-Roman" style="text-anchor:end;fill:rgb(0,0,0);" transform="rotate(8.2,268.8,1763.9)" >Social-Work</text>
<path d="M363.735,1862.887 A1642.000,1642.000 40.000 0,1 391.336,1670.812 L354.108,1663.193 A1680.000,1680.000 0.000 0,0 325.867,1859.714 Z" style="stroke-width:2.0;stroke:rgb(255,255,255);stroke-linecap:round;fill:none;" />
<path d="M398.900,1635.797 A1642.000,1642.000 40.000 0,1 428.981,1522.439 L392.624,1511.387 A1680.000,1680.000 0.000 0,0 361.847,1627.368 Z" style="stroke-width:2.0;stroke:rgb(255,255,255);stroke-linecap:round;fill:rgb(175,35,42);" />
<text x="308.1" y="1564.0" font-size="36.4px" font-family="CMUBright-Roman" style="text-anchor:end;fill:rgb(0,0,0);" transform="rotate(14.9,308.1,1564.0)" >Teacher-Education</text>
<path d="M398.900,1635.797 A1642.000,1642.000 40.000 0,1 428.981,1522.439 L392.624,1511.387 A1680.000,1680.000 0.000 0,0 361.847,1627.368 Z" style="stroke-width:2.0;stroke:rgb(255,255,255);stroke-linecap:round;fill:none;" />
<path d="M439.773,1488.281 A1642.000,1642.000 40.000 0,1 474.975,1391.343 L439.682,1377.257 A1680.000,1680.000 0.000 0,0 403.666,1476.439 Z" style="stroke-width:2.0;stroke:rgb(255,255,255);stroke-linecap:round;fill:rgb(215,82,72);" />
<text x="352.5" y="1418.2" font-size="36.4px" font-family="CMUBright-Roman" style="text-anchor:end;fill:rgb(0,0,0);" transform="rotate(20.0,352.5,1418.2)" >Special-Education</text>
<path d="M439.773,1488.281 A1642.000,1642.000 40.000 0,1 474.975,1391.343 L439.682,1377.257 A1680.000,1680.000 0.000 0,0 403.666,1476.439 Z" style="stroke-width:2.0;stroke:rgb(255,255,255);stroke-linecap:round;fill:none;" />
<path d="M488.616,1358.220 A1642.000,1642.000 40.000 0,1 509.092,1311.991 L474.588,1296.068 A1680.000,1680.000 0.000 0,0 453.639,1343.368 Z" style="stroke-width:2.0;stroke:rgb(255,255,255);stroke-linecap:round;fill:rgb(230,112,95);" />
<text x="396.3" y="1306.6" font-size="36.4px" font-family="CMUBright-Roman" style="text-anchor:end;fill:rgb(0,0,0);" transform="rotate(23.9,396.3,1306.6)" >Educational-Leadership</text>
<path d="M488.616,1358.220 A1642.000,1642.000 40.000 0,1 509.092,1311.991 L474.588,1296.068 A1680.000,1680.000 0.000 0,0 453.639,1343.368 Z" style="stroke-width:2.0;stroke:rgb(255,255,255);stroke-linecap:round;fill:none;" />
<path d="M524.455,1279.630 A1642.000,1642.000 40.000 0,1 553.988,1222.045 L520.524,1204.041 A1680.000,1680.000 0.000 0,0 490.308,1262.959 Z" style="stroke-width:2.0;stroke:rgb(255,255,255);stroke-linecap:round;fill:rgb(0,130,142);" />
<text x="439.7" y="1213.8" font-size="36.4px" font-family="CMUBright-Roman" style="text-anchor:end;fill:rgb(0,0,0);" transform="rotate(27.2,439.7,1213.8)" >Communication-Studies</text>
<path d="M524.455,1279.630 A1642.000,1642.000 40.000 0,1 553.988,1222.045 L520.524,1204.041 A1680.000,1680.000 0.000 0,0 490.308,1262.959 Z" style="stroke-width:2.0;stroke:rgb(255,255,255);stroke-linecap:round;fill:none;" />
<path d="M571.303,1190.686 A1642.000,1642.000 40.000 0,1 588.562,1160.949 L555.898,1141.531 A1680.000,1680.000 0.000 0,0 538.240,1171.956 Z" style="stroke-width:2.0;stroke:rgb(255,255,255);stroke-linecap:round;fill:rgb(0,165,172);" />
<text x="482.6" y="1133.8" font-size="36.4px" font-family="CMUBright-Roman" style="text-anchor:end;fill:rgb(0,0,0);" transform="rotate(30.1,482.6,1133.8)" >Journalism-Media</text>
<path d="M571.303,1190.686 A1642.000,1642.000 40.000 0,1 588.562,1160.949 L555.898,1141.531 A1680.000,1680.000 0.000 0,0 538.240,1171.956 Z" style="stroke-width:2.0;stroke:rgb(255,255,255);stroke-linecap:round;fill:none;" />
<path d="M607.202,1130.358 A1642.000,1642.000 40.000 0,1 613.667,1120.089 L581.583,1099.725 A1680.000,1680.000 0.000 0,0 574.969,1110.233 Z" style="stroke-width:2.0;stroke:rgb(255,255,255);stroke-linecap:round;fill:rgb(38,195,195);" />
<text x="512.9" y="1082.8" font-size="36.4px" font-family="CMUBright-Roman" style="text-anchor:end;fill:rgb(0,0,0);" transform="rotate(32.2,512.9,1082.8)" >Creative-Writing</text>
<path d="M607.202,1130.358 A1642.000,1642.000 40.000 0,1 613.667,1120.089 L581.583,1099.725 A1680.000,1680.000 0.000 0,0 574.969,1110.233 Z" style="stroke-width:2.0;stroke:rgb(255,255,255);stroke-linecap:round;fill:none;" />
<path d="M633.192,1090.055 A1642.000,1642.000 40.000 0,1 667.742,1040.182 L636.910,1017.969 A1680.000,1680.000 0.000 0,0 601.560,1068.997 Z" style="stroke-width:2.0;stroke:rgb(255,255,255);stroke-linecap:round;fill:rgb(180,45,112);" />
<text x="554.7" y="1018.2" font-size="36.4px" font-family="CMUBright-Roman" style="text-anchor:end;fill:rgb(0,0,0);" transform="rotate(34.7,554.7,1018.2)" >Arts-Theology</text>
<path d="M633.192,1090.055 A1642.000,1642.000 40.000 0,1 667.742,1040.182 L636.910,1017.969 A1680.000,1680.000 0.000 0,0 601.560,1068.997 Z" style="stroke-width:2.0;stroke:rgb(255,255,255);stroke-linecap:round;fill:none;" />
<path d="M688.997,1011.347 A1642.000,1642.000 40.000 0,1 698.803,998.477 L668.690,975.299 A1680.000,1680.000 0.000 0,0 658.657,988.467 Z" style="stroke-width:2.0;stroke:rgb(255,255,255);stroke-linecap:round;fill:rgb(205,75,142);" />
<text x="600.6" y="953.9" font-size="36.4px" font-family="CMUBright-Roman" style="text-anchor:end;fill:rgb(0,0,0);" transform="rotate(37.3,600.6,953.9)" >English-Writing</text>
<path d="M688.997,1011.347 A1642.000,1642.000 40.000 0,1 698.803,998.477 L668.690,975.299 A1680.000,1680.000 0.000 0,0 658.657,988.467 Z" style="stroke-width:2.0;stroke:rgb(255,255,255);stroke-linecap:round;fill:none;" />
<path d="M720.960,970.329 A1642.000,1642.000 40.000 0,1 724.774,965.610 L695.262,941.672 A1680.000,1680.000 0.000 0,0 691.360,946.500 Z" style="stroke-width:2.0;stroke:rgb(255,255,255);stroke-linecap:round;fill:rgb(225,110,168);" />
<text x="631.0" y="914.3" font-size="36.4px" font-family="CMUBright-Roman" style="text-anchor:end;fill:rgb(0,0,0);" transform="rotate(38.9,631.0,914.3)" >Languages</text>
<path d="M720.960,970.329 A1642.000,1642.000 40.000 0,1 724.774,965.610 L695.262,941.672 A1680.000,1680.000 0.000 0,0 691.360,946.500 Z" style="stroke-width:2.0;stroke:rgb(255,255,255);stroke-linecap:round;fill:none;" />
<path d="M747.643,938.037 A1642.000,1642.000 40.000 0,1 884.635,794.959 L858.822,767.071 A1680.000,1680.000 0.000 0,0 718.660,913.461 Z" style="stroke-width:2.0;stroke:rgb(255,255,255);stroke-linecap:round;fill:rgb(88,40,138);" />
<text x="727.0" y="803.3" font-size="36.4px" font-family="CMUBright-Roman" style="text-anchor:end;fill:rgb(0,0,0);" transform="rotate(43.8,727.0,803.3)" >Biological-Sciences</text>
<path d="M747.643,938.037 A1642.000,1642.000 40.000 0,1 884.635,794.959 L858.822,767.071 A1680.000,1680.000 0.000 0,0 718.660,913.461 Z" style="stroke-width:2.0;stroke:rgb(255,255,255);stroke-linecap:round;fill:none;" />
<path d="M911.188,770.914 A1642.000,1642.000 40.000 0,1 969.888,721.316 L946.049,691.724 A1680.000,1680.000 0.000 0,0 885.990,742.470 Z" style="stroke-width:2.0;stroke:rgb(255,255,255);stroke-linecap:round;fill:rgb(115,65,165);" />
<text x="862.8" y="673.5" font-size="36.4px" font-family="CMUBright-Roman" style="text-anchor:end;fill:rgb(0,0,0);" transform="rotate(49.8,862.8,673.5)" >Health-Wellness</text>
<path d="M911.188,770.914 A1642.000,1642.000 40.000 0,1 969.888,721.316 L946.049,691.724 A1680.000,1680.000 0.000 0,0 885.990,742.470 Z" style="stroke-width:2.0;stroke:rgb(255,255,255);stroke-linecap:round;fill:none;" />
<path d="M998.028,699.148 A1642.000,1642.000 40.000 0,1 1023.858,679.655 L1001.267,649.099 A1680.000,1680.000 0.000 0,0 974.840,669.043 Z" style="stroke-width:2.0;stroke:rgb(255,255,255);stroke-linecap:round;fill:rgb(140,92,188);" />
<text x="935.2" y="614.8" font-size="36.4px" font-family="CMUBright-Roman" style="text-anchor:end;fill:rgb(0,0,0);" transform="rotate(53.0,935.2,614.8)" >Physical-Sciences</text>
<path d="M998.028,699.148 A1642.000,1642.000 40.000 0,1 1023.858,679.655 L1001.267,649.099 A1680.000,1680.000 0.000 0,0 974.840,669.043 Z" style="stroke-width:2.0;stroke:rgb(255,255,255);stroke-linecap:round;fill:none;" />
<path d="M1052.893,658.675 A1642.000,1642.000 40.000 0,1 1064.493,650.559 L1042.843,619.329 A1680.000,1680.000 0.000 0,0 1030.975,627.633 Z" style="stroke-width:2.0;stroke:rgb(255,255,255);stroke-linecap:round;fill:rgb(165,120,208);" />
<text x="988.2" y="575.6" font-size="36.4px" font-family="CMUBright-Roman" style="text-anchor:end;fill:rgb(0,0,0);" transform="rotate(55.0,988.2,575.6)" >Environmental-Sciences</text>
<path d="M1052.893,658.675 A1642.000,1642.000 40.000 0,1 1064.493,650.559 L1042.843,619.329 A1680.000,1680.000 0.000 0,0 1030.975,627.633 Z" style="stroke-width:2.0;stroke:rgb(255,255,255);stroke-linecap:round;fill:none;" />
<path d="M1094.154,630.472 A1642.000,1642.000 40.000 0,1 1594.822,408.776 L1585.445,371.951 A1680.000,1680.000 0.000 0,0 1073.190,598.778 Z" style="stroke-width:2.0;stroke:rgb(255,255,255);stroke-linecap:round;fill:rgb(22,118,50);" />
<text x="1278.0" y="409.0" font-size="36.4px" font-family="CMUBright-Roman" style="text-anchor:end;fill:rgb(0,0,0);" transform="rotate(66.1,1278.0,409.0)" >Engineering-Disciplines</text>
<path d="M1094.154,630.472 A1642.000,1642.000 40.000 0,1 1594.822,408.776 L1585.445,371.951 A1680.000,1680.000 0.000 0,0 1073.190,598.778 Z" style="stroke-width:2.0;stroke:rgb(255,255,255);stroke-linecap:round;fill:none;" />
<path d="M1629.631,400.315 A1642.000,1642.000 40.000 0,1 1964.180,358.391 L1963.351,320.400 A1680.000,1680.000 0.000 0,0 1621.060,363.295 Z" style="stroke-width:2.0;stroke:rgb(255,255,255);stroke-linecap:round;fill:rgb(48,158,75);" />
<text x="1767.4" y="268.4" font-size="36.4px" font-family="CMUBright-Roman" style="text-anchor:end;fill:rgb(0,0,0);" transform="rotate(82.9,1767.4,268.4)" >Computer-Science-IT</text>
<path d="M1629.631,400.315 A1642.000,1642.000 40.000 0,1 1964.180,358.391 L1963.351,320.400 A1680.000,1680.000 0.000 0,0 1621.060,363.295 Z" style="stroke-width:2.0;stroke:rgb(255,255,255);stroke-linecap:round;fill:none;" />
</g>
<g id="track_0">
<path d="M 3237.438,945.837 A 1625.580,1625.580 0.00 0,1 3246.5,956.5 L 3246.5,956.5 3202.5,991.9 3156.9,1025.7 3109.8,1057.9 3061.3,1088.1 3011.7,1116.2 2961.2,1142.0 2909.8,1165.4 2857.9,1186.3 2805.5,1204.4 2752.8,1219.8 2699.9,1232.2 2647.0,1241.6 2594.3,1247.9 2541.8,1251.1 2489.8,1251.2 2438.3,1248.0 2387.5,1241.5 2337.5,1231.9 2288.3,1219.0 2240.2,1202.8 2193.2,1183.6 2147.4,1161.1 2103.0,1135.7 2060.0,1107.2 2018.4,1075.9 1978.5,1041.7 1940.2,1004.9 1903.7,965.5 1869.0,923.8 1836.1,879.8 1805.2,833.7 1776.3,785.8 1749.4,736.2 1724.6,685.1 1702.0,632.8 1681.5,579.5 1663.2,525.5 1647.1,471.0 1633.3,416.3  A 1625.580,1625.580 0.00 0,1 1647.0,413.2 L 1647.0,413.2 1660.3,467.9 1675.8,522.4 1693.5,576.5 1713.5,629.8 1735.5,682.1 1759.7,733.2 1786.0,782.8 1814.2,830.8 1844.5,876.8 1876.7,920.8 1910.8,962.5 1946.6,1001.8 1984.2,1038.5 2023.5,1072.6 2064.4,1103.8 2106.7,1132.1 2150.5,1157.5 2195.6,1179.7 2241.9,1198.8 2289.4,1214.7 2337.9,1227.3 2387.3,1236.7 2437.5,1242.9 2488.3,1245.8 2539.8,1245.5 2591.6,1241.9 2643.8,1235.3 2696.1,1225.5 2748.4,1212.7 2800.6,1197.0 2852.5,1178.5 2903.9,1157.2 2954.7,1133.4 3004.8,1107.2 3053.9,1078.7 3101.9,1048.2 3148.7,1015.7 3193.9,981.5 3237.4,945.8  Z" style="stroke-width: 0.0;  fill: rgb(48,158,75);" />
<path d="M 3246.481,956.546 A 1625.580,1625.580 0.00 0,1 3252.9,964.2 L 3252.9,964.2 3206.7,1000.7 3158.3,1035.7 3107.8,1069.0 3055.4,1100.5 3001.2,1130.1 2945.4,1157.5 2888.1,1182.8 2829.5,1205.8 2769.7,1226.4 2708.9,1244.4 2647.2,1260.0 2584.8,1272.9 2521.7,1283.1 2458.2,1290.5 2394.4,1295.2 2330.4,1297.1 2266.4,1296.2 2202.5,1292.4 2138.7,1285.8 2075.4,1276.3 2012.5,1264.1 1950.2,1249.1 1888.7,1231.3 1828.0,1210.9 1768.3,1187.8 1709.8,1162.2 1652.4,1134.0 1596.5,1103.5 1542.0,1070.7 1489.1,1035.7 1437.9,998.6 1388.5,959.5 1341.1,918.7 1295.7,876.1 1252.4,832.1 1211.5,786.7 1172.9,740.1 1136.8,692.5 1103.2,644.2  A 1625.580,1625.580 0.00 0,1 1111.6,638.7 L 1111.6,638.7 1144.8,687.2 1180.5,734.9 1218.8,781.6 1259.3,827.1 1302.2,871.3 1347.2,914.0 1394.2,955.0 1443.2,994.2 1494.0,1031.4 1546.5,1066.5 1600.6,1099.5 1656.1,1130.1 1713.0,1158.3 1771.2,1183.9 1830.4,1207.1 1890.7,1227.5 1951.8,1245.3 2013.7,1260.3 2076.1,1272.5 2139.1,1281.8 2202.4,1288.4 2266.0,1292.0 2329.6,1292.9 2393.2,1290.8 2456.6,1286.0 2519.7,1278.4 2582.4,1268.0 2644.5,1254.9 2705.8,1239.2 2766.2,1220.8 2825.7,1200.0 2883.9,1176.8 2940.9,1151.3 2996.4,1123.6 3050.2,1093.8 3102.3,1062.1 3152.5,1028.5 3200.6,993.3 3246.5,956.5  Z" style="stroke-width: 0.0;  fill: rgb(22,118,50);" />
<path d="M 3252.883,964.242 A 1625.580,1625.580 0.00 0,1 3255.4,967.3 L 3255.4,967.3 3209.0,1003.9 3160.2,1038.9 3109.4,1072.3 3056.5,1103.8 3001.9,1133.5 2945.6,1161.0 2887.7,1186.4 2828.5,1209.6 2768.1,1230.4 2706.6,1248.7 2644.1,1264.5 2580.9,1277.8 2517.0,1288.4 2452.6,1296.3 2387.9,1301.5 2322.9,1303.9 2257.8,1303.6 2192.7,1300.4 2127.8,1294.5 2063.3,1285.8 1999.1,1274.4 1935.6,1260.2 1872.7,1243.3 1810.7,1223.8 1749.6,1201.6 1689.6,1177.0 1630.8,1149.9 1573.3,1120.4 1517.3,1088.6 1462.8,1054.7 1410.0,1018.6 1359.0,980.6 1310.0,940.8 1263.0,899.3 1218.1,856.3 1175.5,811.9 1135.3,766.3 1097.5,719.6 1062.4,672.1  A 1625.580,1625.580 0.00 0,1 1065.6,669.8 L 1065.6,669.8 1100.6,717.4 1138.2,764.1 1178.3,809.8 1220.8,854.3 1265.5,897.3 1312.4,938.9 1361.3,978.8 1412.1,1016.8 1464.7,1052.9 1519.0,1086.9 1574.9,1118.7 1632.2,1148.2 1690.8,1175.4 1750.7,1200.1 1811.6,1222.2 1873.5,1241.7 1936.2,1258.6 1999.6,1272.8 2063.6,1284.2 2128.0,1292.9 2192.7,1298.8 2257.6,1301.9 2322.5,1302.2 2387.4,1299.7 2452.0,1294.5 2516.2,1286.5 2580.0,1275.8 2643.1,1262.5 2705.4,1246.6 2766.7,1228.2 2827.0,1207.3 2886.1,1184.0 2943.8,1158.5 3000.0,1130.8 3054.5,1101.1 3107.2,1069.5 3157.9,1036.0 3206.5,1000.9 3252.9,964.2  Z" style="stroke-width: 0.0;  fill: rgb(165,120,208);" />
<path d="M 3255.431,967.332 A 1625.580,1625.580 0.00 0,1 3256.7,968.9 L 3256.7,968.9 3209.9,1005.6 3160.8,1040.7 3109.6,1074.3 3056.3,1106.0 3001.1,1135.9 2944.2,1163.8 2885.7,1189.5 2825.8,1213.0 2764.5,1234.2 2702.2,1253.1 2638.8,1269.4 2574.6,1283.3 2509.7,1294.5 2444.1,1303.2 2378.2,1309.2 2311.9,1312.5 2245.5,1313.1 2179.0,1311.0 2112.7,1306.1 2046.6,1298.6 1980.9,1288.3 1915.6,1275.4 1851.1,1259.9 1787.3,1241.7 1724.3,1221.0 1662.5,1197.8 1601.7,1172.2 1542.3,1144.2 1484.2,1114.0 1427.7,1081.6 1372.9,1047.1 1319.8,1010.7 1268.6,972.5 1219.4,932.5 1172.4,891.0 1127.6,848.0 1085.3,803.8 1045.3,758.4 1008.0,712.2  A 1625.580,1625.580 0.00 0,1 1009.6,710.9 L 1009.6,710.9 1046.9,757.2 1086.7,802.6 1129.0,846.9 1173.7,889.9 1220.7,931.4 1269.8,971.4 1320.9,1009.7 1373.9,1046.2 1428.7,1080.7 1485.1,1113.1 1543.0,1143.4 1602.4,1171.3 1663.1,1197.0 1724.9,1220.2 1787.7,1240.9 1851.4,1259.1 1915.9,1274.6 1981.1,1287.5 2046.7,1297.8 2112.8,1305.3 2179.0,1310.1 2245.4,1312.2 2311.7,1311.6 2377.9,1308.3 2443.8,1302.3 2509.3,1293.6 2574.1,1282.3 2638.3,1268.4 2701.6,1252.0 2763.9,1233.1 2825.0,1211.9 2884.9,1188.3 2943.3,1162.5 3000.1,1134.6 3055.2,1104.7 3108.5,1072.9 3159.7,1039.3 3208.7,1004.1 3255.4,967.3  Z" style="stroke-width: 0.0;  fill: rgb(140,92,188);" />
<path d="M 3256.702,968.879 A 1625.580,1625.580 0.00 0,1 3260.5,973.5 L 3260.5,973.5 3213.1,1010.4 3163.4,1045.8 3111.4,1079.5 3057.2,1111.6 3001.1,1141.8 2943.2,1170.0 2883.6,1196.3 2822.5,1220.4 2759.9,1242.3 2696.2,1261.9 2631.3,1279.1 2565.4,1294.0 2498.8,1306.4 2431.4,1316.3 2363.5,1323.6 2295.2,1328.4 2226.6,1330.6 2157.9,1330.2 2089.3,1327.3 2020.7,1321.7 1952.4,1313.5 1884.6,1302.8 1817.3,1289.5 1750.6,1273.7 1684.8,1255.5 1620.0,1234.8 1556.2,1211.8 1493.6,1186.5 1432.4,1159.0 1372.6,1129.3 1314.4,1097.6 1258.0,1064.0 1203.4,1028.4 1150.8,991.2 1100.4,952.3 1052.1,911.9 1006.2,870.2 962.9,827.2 922.1,783.2  A 1625.580,1625.580 0.00 0,1 926.6,779.2 L 926.6,779.2 967.2,823.4 1010.3,866.4 1056.0,908.3 1104.0,948.8 1154.3,987.8 1206.7,1025.2 1261.0,1060.8 1317.2,1094.6 1375.2,1126.4 1434.7,1156.1 1495.7,1183.7 1558.1,1209.1 1621.6,1232.2 1686.3,1252.9 1751.9,1271.2 1818.3,1287.0 1885.3,1300.3 1953.0,1311.0 2021.0,1319.2 2089.3,1324.7 2157.8,1327.7 2226.3,1328.0 2294.6,1325.8 2362.7,1320.9 2430.4,1313.5 2497.5,1303.5 2564.0,1291.0 2629.6,1276.0 2694.3,1258.6 2757.9,1238.9 2820.2,1216.9 2881.1,1192.6 2940.5,1166.3 2998.3,1137.9 3054.2,1107.5 3108.1,1075.3 3159.9,1041.4 3209.5,1005.9 3256.7,968.9  Z" style="stroke-width: 0.0;  fill: rgb(115,65,165);" />
<path d="M 3260.504,973.530 A 1625.580,1625.580 0.00 0,1 3261.8,975.1 L 3261.8,975.1 3213.4,1012.6 3162.5,1048.7 3109.3,1083.4 3053.7,1116.4 2996.0,1147.8 2936.3,1177.3 2874.8,1205.1 2811.6,1230.9 2746.8,1254.7 2680.6,1276.5 2613.1,1296.2 2544.4,1313.7 2474.7,1329.0 2404.2,1342.2 2332.9,1353.0 2261.0,1361.5 2188.6,1367.8 2115.9,1371.7 2043.1,1373.3 1970.2,1372.5 1897.4,1369.4 1824.8,1363.9 1752.6,1356.2 1680.9,1346.1 1609.8,1333.8 1539.6,1319.2 1470.2,1302.4 1401.9,1283.4 1334.8,1262.3 1269.1,1239.1 1204.8,1213.9 1142.2,1186.8 1081.2,1157.7 1022.2,1126.9 965.2,1094.3 910.4,1060.1 857.8,1024.4 807.7,987.2 760.2,948.7  A 1625.580,1625.580 0.00 0,1 761.5,947.1 L 761.5,947.1 808.9,985.7 859.0,1023.0 911.5,1058.8 966.2,1093.0 1023.2,1125.6 1082.1,1156.5 1143.0,1185.6 1205.6,1212.7 1269.8,1238.0 1335.5,1261.2 1402.5,1282.3 1470.7,1301.4 1540.0,1318.2 1610.2,1332.8 1681.2,1345.2 1752.8,1355.3 1825.0,1363.0 1897.5,1368.5 1970.2,1371.6 2043.1,1372.4 2115.8,1370.8 2188.5,1366.9 2260.7,1360.6 2332.6,1352.1 2403.8,1341.2 2474.3,1328.1 2543.9,1312.7 2612.5,1295.1 2680.0,1275.4 2746.1,1253.6 2810.9,1229.7 2874.0,1203.8 2935.5,1176.1 2995.1,1146.4 3052.7,1115.0 3108.2,1082.0 3161.4,1047.3 3212.2,1011.1 3260.5,973.5  Z" style="stroke-width: 0.0;  fill: rgb(88,40,138);" />
<path d="M 3261.767,975.083 A 1625.580,1625.580 0.00 0,1 3263.0,976.6 L 3263.0,976.6 3214.3,1014.4 3162.9,1050.8 3109.1,1085.8 3052.9,1119.2 2994.6,1151.0 2934.3,1181.2 2872.0,1209.5 2808.0,1236.1 2742.3,1260.7 2675.2,1283.4 2606.7,1304.1 2537.0,1322.8 2466.2,1339.4 2394.5,1353.9 2322.0,1366.2 2248.8,1376.3 2175.1,1384.3 2101.0,1390.1 2026.7,1393.6 1952.2,1394.9 1877.8,1393.9 1803.6,1390.8 1729.6,1385.4 1656.1,1377.8 1583.2,1368.0 1511.1,1356.0 1439.7,1341.9 1369.4,1325.7 1300.3,1307.3 1232.4,1287.0 1165.9,1264.7 1101.0,1240.4 1037.8,1214.2 976.4,1186.2 917.0,1156.4 859.8,1125.0 804.8,1091.9 752.2,1057.3 702.1,1021.2  A 1625.580,1625.580 0.00 0,1 703.3,1019.6 L 703.3,1019.6 753.3,1055.7 805.9,1090.4 860.8,1123.5 918.0,1155.0 977.3,1184.8 1038.6,1212.9 1101.8,1239.1 1166.6,1263.5 1233.0,1285.8 1300.8,1306.2 1369.9,1324.6 1440.2,1340.9 1511.5,1355.0 1583.6,1367.0 1656.4,1376.8 1729.8,1384.5 1803.7,1389.9 1877.9,1393.0 1952.2,1394.0 2026.6,1392.7 2100.9,1389.2 2174.9,1383.4 2248.6,1375.4 2321.7,1365.2 2394.1,1352.9 2465.8,1338.4 2536.5,1321.8 2606.2,1303.1 2674.6,1282.3 2741.7,1259.6 2807.2,1234.9 2871.2,1208.3 2933.4,1179.9 2993.7,1149.7 3051.9,1117.9 3108.0,1084.4 3161.7,1049.4 3213.1,1012.9 3261.8,975.1  Z" style="stroke-width: 0.0;  fill: rgb(205,75,142);" />
<path d="M 3263.029,976.638 A 1625.580,1625.580 0.00 0,1 3273.1,989.1 L 3273.1,989.1 3223.4,1026.8 3171.2,1063.1 3116.5,1098.1 3059.4,1131.5 3000.1,1163.4 2938.7,1193.7 2875.4,1222.3 2810.3,1249.1 2743.5,1274.2 2675.1,1297.5 2605.4,1318.9 2534.4,1338.4 2462.3,1355.9 2389.2,1371.4 2315.3,1385.0 2240.6,1396.5 2165.4,1405.9 2089.7,1413.3 2013.8,1418.6 1937.7,1421.7 1861.5,1422.8 1785.5,1421.8 1709.8,1418.7 1634.4,1413.5 1559.6,1406.2 1485.4,1396.8 1412.1,1385.4 1339.8,1371.9 1268.5,1356.4 1198.4,1339.0 1129.8,1319.5 1062.6,1298.2 997.1,1275.0 933.4,1250.0 871.7,1223.2 812.0,1194.6 754.6,1164.4 699.5,1132.6 646.9,1099.2  A 1625.580,1625.580 0.00 0,1 655.8,1085.9 L 655.8,1085.9 707.9,1119.7 762.5,1151.9 819.5,1182.6 878.7,1211.6 940.0,1238.8 1003.2,1264.3 1068.3,1287.9 1134.9,1309.6 1203.1,1329.4 1272.7,1347.2 1343.5,1363.0 1415.4,1376.8 1488.2,1388.5 1561.9,1398.1 1636.3,1405.6 1711.1,1411.0 1786.4,1414.3 1861.9,1415.4 1937.6,1414.4 2013.2,1411.2 2088.7,1405.9 2163.9,1398.5 2238.6,1388.9 2312.8,1377.3 2386.2,1363.6 2458.8,1347.9 2530.4,1330.1 2600.9,1310.4 2670.2,1288.7 2738.0,1265.1 2804.3,1239.7 2868.9,1212.5 2931.7,1183.5 2992.6,1152.8 3051.4,1120.6 3108.0,1086.7 3162.2,1051.4 3213.9,1014.7 3263.0,976.6  Z" style="stroke-width: 0.0;  fill: rgb(180,45,112);" />
<path d="M 3273.051,989.134 A 1625.580,1625.580 0.00 0,1 3274.3,990.7 L 3274.3,990.7 3224.4,1028.5 3171.9,1065.0 3116.9,1100.0 3059.5,1133.7 2999.9,1165.8 2938.1,1196.3 2874.5,1225.2 2808.9,1252.5 2741.7,1278.0 2673.0,1301.7 2602.8,1323.6 2531.3,1343.7 2458.7,1361.9 2385.1,1378.1 2310.6,1392.5 2235.4,1404.8 2159.5,1415.2 2083.2,1423.5 2006.6,1429.9 1929.8,1434.2 1853.0,1436.4 1776.3,1436.6 1699.8,1434.8 1623.6,1430.9 1548.0,1424.9 1473.0,1417.0 1398.8,1407.0 1325.6,1395.0 1253.4,1381.1 1182.4,1365.2 1112.8,1347.3 1044.6,1327.5 978.1,1305.9 913.4,1282.4 850.5,1257.2 789.7,1230.2 731.2,1201.4 674.9,1171.0 621.1,1139.1  A 1625.580,1625.580 0.00 0,1 622.2,1137.4 L 622.2,1137.4 675.9,1169.4 732.1,1199.8 790.6,1228.6 851.4,1255.7 914.1,1281.0 978.8,1304.5 1045.3,1326.2 1113.4,1346.0 1183.0,1363.9 1253.9,1379.9 1326.0,1393.9 1399.2,1405.9 1473.3,1415.9 1548.3,1423.9 1623.8,1429.9 1699.9,1433.8 1776.4,1435.7 1853.0,1435.5 1929.8,1433.2 2006.6,1428.9 2083.1,1422.6 2159.3,1414.2 2235.1,1403.9 2310.3,1391.5 2384.7,1377.2 2458.3,1360.9 2530.8,1342.7 2602.2,1322.6 2672.3,1300.6 2741.0,1276.8 2808.2,1251.3 2873.6,1224.0 2937.3,1195.0 2998.9,1164.4 3058.5,1132.3 3115.8,1098.6 3170.8,1063.5 3223.2,1027.0 3273.1,989.1  Z" style="stroke-width: 0.0;  fill: rgb(38,195,195);" />
<path d="M 3274.295,990.702 A 1625.580,1625.580 0.00 0,1 3276.8,993.8 L 3276.8,993.8 3226.5,1031.8 3173.5,1068.4 3118.1,1103.7 3060.2,1137.6 3000.1,1170.0 2937.8,1200.9 2873.6,1230.2 2807.5,1258.0 2739.7,1284.1 2670.3,1308.5 2599.5,1331.2 2527.3,1352.1 2454.0,1371.2 2379.6,1388.5 2304.3,1404.0 2228.3,1417.6 2151.6,1429.3 2074.5,1439.1 1997.0,1447.0 1919.2,1452.9 1841.4,1456.8 1763.7,1458.9 1686.1,1458.9 1608.9,1457.0 1532.2,1453.1 1456.0,1447.2 1380.7,1439.4 1306.2,1429.7 1232.7,1418.0 1160.4,1404.3 1089.4,1388.8 1019.9,1371.4 952.0,1352.1 885.8,1331.0 821.4,1308.0 759.1,1283.3 698.9,1256.8 641.0,1228.6 585.6,1198.8  A 1625.580,1625.580 0.00 0,1 587.6,1195.3 L 587.6,1195.3 642.9,1225.3 700.7,1253.6 760.7,1280.2 823.0,1305.0 887.2,1328.1 953.3,1349.3 1021.1,1368.7 1090.5,1386.2 1161.4,1401.9 1233.6,1415.6 1307.0,1427.4 1381.3,1437.2 1456.6,1445.1 1532.6,1451.0 1609.3,1455.0 1686.4,1456.9 1763.8,1456.9 1841.5,1454.9 1919.2,1451.0 1996.8,1445.1 2074.2,1437.2 2151.2,1427.4 2227.8,1415.7 2303.7,1402.1 2378.8,1386.6 2453.1,1369.2 2526.3,1350.0 2598.3,1329.0 2669.1,1306.3 2738.3,1281.8 2806.0,1255.6 2872.0,1227.8 2936.1,1198.3 2998.2,1167.3 3058.2,1134.8 3116.0,1100.8 3171.3,1065.4 3224.1,1028.7 3274.3,990.7  Z" style="stroke-width: 0.0;  fill: rgb(0,165,172);" />
<path d="M 3276.778,993.845 A 1625.580,1625.580 0.00 0,1 3279.3,997.0 L 3279.3,997.0 3228.4,1035.2 3174.9,1072.1 3118.8,1107.7 3060.4,1142.0 2999.6,1174.9 2936.7,1206.4 2871.7,1236.5 2804.9,1265.1 2736.3,1292.1 2666.1,1317.6 2594.5,1341.4 2521.4,1363.7 2447.2,1384.3 2371.9,1403.2 2295.7,1420.4 2218.6,1435.8 2140.9,1449.5 2062.6,1461.5 1984.0,1471.6 1905.1,1480.0 1826.1,1486.5 1747.1,1491.2 1668.2,1494.1 1589.6,1495.0 1511.5,1494.2 1433.9,1491.4 1357.0,1486.8 1280.9,1480.4 1205.8,1472.0 1131.9,1461.8 1059.2,1449.7 987.8,1435.8 918.0,1420.0 849.9,1402.3 783.6,1382.8 719.2,1361.5 657.0,1338.4 596.9,1313.5 539.2,1286.8  A 1625.580,1625.580 0.00 0,1 541.0,1283.2 L 541.0,1283.2 598.6,1310.0 658.5,1335.1 720.7,1358.3 785.0,1379.7 851.2,1399.3 919.2,1417.1 988.9,1433.0 1060.1,1447.1 1132.7,1459.3 1206.6,1469.6 1281.6,1478.0 1357.5,1484.6 1434.3,1489.3 1511.8,1492.1 1589.9,1493.0 1668.3,1492.1 1747.1,1489.2 1826.0,1484.6 1904.9,1478.1 1983.8,1469.7 2062.3,1459.6 2140.4,1447.6 2218.0,1433.9 2295.0,1418.4 2371.1,1401.2 2446.3,1382.2 2520.4,1361.6 2593.3,1339.3 2664.9,1315.3 2735.0,1289.8 2803.4,1262.7 2870.1,1234.0 2934.9,1203.9 2997.7,1172.3 3058.4,1139.3 3116.8,1104.9 3172.7,1069.1 3226.1,1032.1 3276.8,993.8  Z" style="stroke-width: 0.0;  fill: rgb(0,130,142);" />
<path d="M 3279.253,996.993 A 1625.580,1625.580 0.00 0,1 3289.1,1009.6 L 3289.1,1009.6 3237.4,1047.7 3183.1,1084.5 3126.2,1120.0 3066.8,1154.3 3005.2,1187.3 2941.4,1219.0 2875.6,1249.2 2807.9,1278.1 2738.4,1305.6 2667.3,1331.6 2594.7,1356.1 2520.8,1379.1 2445.6,1400.6 2369.4,1420.6 2292.2,1438.9 2214.1,1455.7 2135.4,1470.9 2056.1,1484.4 1976.4,1496.2 1896.5,1506.4 1816.3,1514.9 1736.2,1521.7 1656.2,1526.8 1576.5,1530.1 1497.1,1531.7 1418.3,1531.6 1340.1,1529.6 1262.8,1525.9 1186.4,1520.3 1111.0,1513.0 1036.9,1503.8 964.1,1492.9 892.8,1480.1 823.1,1465.4 755.2,1449.0 689.1,1430.6 625.1,1410.5 563.3,1388.5 503.7,1364.6  A 1625.580,1625.580 0.00 0,1 510.1,1349.9 L 510.1,1349.9 569.2,1374.3 630.6,1396.8 694.3,1417.5 759.9,1436.3 827.5,1453.3 896.8,1468.4 967.7,1481.7 1040.2,1493.1 1113.9,1502.7 1188.9,1510.4 1265.0,1516.4 1341.9,1520.5 1419.7,1522.7 1498.2,1523.2 1577.2,1521.8 1656.6,1518.7 1736.2,1513.8 1815.9,1507.2 1895.7,1498.7 1975.3,1488.6 2054.6,1476.7 2133.4,1463.2 2211.7,1448.0 2289.4,1431.1 2366.2,1412.6 2442.0,1392.4 2516.7,1370.7 2590.2,1347.5 2662.4,1322.7 2733.0,1296.3 2802.0,1268.6 2869.3,1239.3 2934.6,1208.7 2997.9,1176.7 3059.0,1143.3 3117.9,1108.6 3174.3,1072.6 3228.1,1035.4 3279.3,997.0  Z" style="stroke-width: 0.0;  fill: rgb(230,112,95);" />
<path d="M 3289.074,1009.647 A 1625.580,1625.580 0.00 0,1 3291.5,1012.8 L 3291.5,1012.8 3238.4,1051.8 3182.7,1089.7 3124.3,1126.7 3063.5,1162.5 3000.4,1197.3 2935.2,1231.1 2867.9,1263.8 2798.7,1295.5 2727.7,1326.1 2655.1,1355.6 2581.0,1384.1 2505.5,1411.4 2428.7,1437.6 2350.8,1462.7 2272.0,1486.6 2192.3,1509.4 2111.8,1530.9 2030.8,1551.3 1949.3,1570.4 1867.4,1588.2 1785.4,1604.7 1703.2,1619.9 1621.1,1633.8 1539.1,1646.2 1457.5,1657.3 1376.2,1666.9 1295.5,1675.0 1215.5,1681.5 1136.3,1686.5 1057.9,1689.8 980.7,1691.5 904.6,1691.5 829.8,1689.7 756.4,1686.2 684.5,1680.7 614.3,1673.4 545.9,1664.1 479.4,1652.8 414.9,1639.4  A 1625.580,1625.580 0.00 0,1 415.8,1635.5 L 415.8,1635.5 480.2,1649.1 546.6,1660.5 615.0,1669.9 685.1,1677.4 756.9,1683.0 830.2,1686.7 905.0,1688.6 981.0,1688.7 1058.2,1687.2 1136.5,1683.9 1215.6,1679.0 1295.6,1672.6 1376.2,1664.6 1457.4,1655.1 1539.0,1644.1 1620.9,1631.7 1702.9,1617.9 1785.0,1602.7 1867.0,1586.2 1948.8,1568.4 2030.3,1549.3 2111.2,1529.0 2191.6,1507.4 2271.2,1484.6 2350.0,1460.7 2427.7,1435.5 2504.4,1409.3 2579.8,1381.9 2653.8,1353.4 2726.3,1323.8 2797.2,1293.1 2866.3,1261.4 2933.5,1228.5 2998.6,1194.7 3061.6,1159.7 3122.3,1123.8 3180.5,1086.8 3236.1,1048.7 3289.1,1009.6  Z" style="stroke-width: 0.0;  fill: rgb(175,35,42);" />
<path d="M 3291.510,1012.826 A 1625.580,1625.580 0.00 0,1 3297.6,1020.8 L 3297.6,1020.8 3243.1,1060.4 3186.1,1099.0 3126.5,1136.8 3064.5,1173.8 3000.2,1209.9 2933.9,1245.2 2865.5,1279.7 2795.4,1313.4 2723.5,1346.3 2650.0,1378.5 2575.0,1409.9 2498.7,1440.5 2421.3,1470.3 2342.7,1499.3 2263.2,1527.5 2182.9,1554.9 2101.9,1581.4 2020.3,1607.1 1938.2,1631.8 1855.8,1655.7 1773.2,1678.5 1690.5,1700.4 1607.8,1721.2 1525.3,1740.9 1443.0,1759.4 1361.1,1776.8 1279.6,1792.9 1198.8,1807.8 1118.7,1821.2 1039.4,1833.2 961.0,1843.7 883.6,1852.7 807.4,1860.0 732.5,1865.5 658.9,1869.2 586.7,1871.1 516.1,1870.9 447.2,1868.7 380.1,1864.3  A 1625.580,1625.580 0.00 0,1 381.0,1854.3 L 381.0,1854.3 448.0,1859.1 516.7,1861.7 587.2,1862.3 659.2,1860.8 732.7,1857.5 807.5,1852.3 883.6,1845.3 960.9,1836.7 1039.1,1826.5 1118.4,1814.8 1198.4,1801.6 1279.1,1787.0 1360.5,1771.1 1442.3,1753.9 1524.4,1735.5 1606.9,1716.0 1689.4,1695.3 1772.0,1673.6 1854.5,1650.8 1936.7,1627.0 2018.6,1602.2 2100.1,1576.6 2180.9,1550.0 2261.1,1522.6 2340.4,1494.3 2418.7,1465.2 2496.0,1435.2 2572.1,1404.5 2646.8,1372.9 2720.0,1340.6 2791.7,1307.4 2861.6,1273.5 2929.7,1238.7 2995.8,1203.2 3059.7,1166.8 3121.4,1129.6 3180.7,1091.6 3237.4,1052.6 3291.5,1012.8  Z" style="stroke-width: 0.0;  fill: rgb(195,58,55);" />
<path d="M 3297.565,1020.799 A 1625.580,1625.580 0.00 0,1 3301.2,1025.6 L 3301.2,1025.6 3246.0,1065.5 3188.1,1104.6 3127.8,1142.9 3065.2,1180.5 3000.4,1217.3 2933.5,1253.5 2864.6,1289.0 2794.0,1323.9 2721.7,1358.2 2647.9,1391.9 2572.7,1425.0 2496.2,1457.5 2418.6,1489.3 2339.9,1520.6 2260.3,1551.3 2180.0,1581.3 2099.0,1610.7 2017.4,1639.4 1935.5,1667.4 1853.2,1694.6 1770.7,1721.1 1688.2,1746.8 1605.6,1771.6 1523.2,1795.4 1441.1,1818.3 1359.3,1840.2 1278.0,1861.0 1197.3,1880.6 1117.2,1899.0 1037.8,1916.0 959.4,1931.7 881.9,1945.8 805.5,1958.4 730.2,1969.3 656.2,1978.5 583.5,1985.7 512.3,1991.0 442.5,1994.2 374.4,1995.1  A 1625.580,1625.580 0.00 0,1 374.5,1989.1 L 374.5,1989.1 442.5,1988.4 512.2,1985.5 583.3,1980.4 656.0,1973.4 729.9,1964.5 805.2,1953.8 881.5,1941.4 959.0,1927.5 1037.4,1912.0 1116.7,1895.1 1196.7,1876.9 1277.4,1857.5 1358.7,1836.8 1440.5,1815.1 1522.6,1792.3 1604.9,1768.5 1687.4,1743.8 1769.9,1718.2 1852.3,1691.7 1934.5,1664.5 2016.4,1636.5 2097.8,1607.8 2178.8,1578.4 2259.0,1548.3 2338.5,1517.6 2417.0,1486.3 2494.6,1454.3 2570.9,1421.7 2646.0,1388.5 2719.7,1354.7 2791.8,1320.3 2862.3,1285.3 2931.0,1249.6 2997.7,1213.3 3062.4,1176.3 3124.8,1138.6 3184.9,1100.1 3242.6,1060.9 3297.6,1020.8  Z" style="stroke-width: 0.0;  fill: rgb(220,140,52);" />
<path d="M 3301.175,1025.600 A 1625.580,1625.580 0.00 0,1 3311.9,1040.1 L 3311.9,1040.1 3254.4,1080.9 3194.5,1121.1 3132.3,1160.9 3068.0,1200.2 3001.8,1239.1 2933.7,1277.7 2863.9,1316.1 2792.6,1354.2 2719.9,1392.2 2645.8,1430.0 2570.7,1467.7 2494.4,1505.4 2417.3,1542.9 2339.4,1580.4 2260.8,1617.7 2181.6,1655.0 2102.0,1692.1 2022.1,1729.2 1941.8,1766.0 1861.5,1802.7 1781.0,1839.1 1700.6,1875.2 1620.4,1911.0 1540.3,1946.3 1460.6,1981.2 1381.2,2015.5 1302.3,2049.1 1224.0,2082.0 1146.2,2114.0 1069.1,2145.1 992.7,2175.1 917.2,2204.0 842.5,2231.5 768.7,2257.6 695.8,2282.1 624.0,2304.9 553.3,2325.8 483.6,2344.7 415.1,2361.3  A 1625.580,1625.580 0.00 0,1 411.2,2343.7 L 411.2,2343.7 479.6,2327.9 549.3,2309.8 620.0,2289.6 691.9,2267.6 764.7,2243.8 838.6,2218.3 913.3,2191.4 988.9,2163.2 1065.3,2133.7 1142.5,2103.1 1220.3,2071.5 1298.7,2039.0 1377.6,2005.8 1457.0,1971.8 1536.7,1937.3 1616.8,1902.2 1697.0,1866.6 1777.3,1830.6 1857.7,1794.3 1938.0,1757.7 2018.1,1720.8 2097.9,1683.7 2177.4,1646.5 2256.3,1609.0 2334.7,1571.5 2412.4,1533.8 2489.3,1496.0 2565.2,1458.1 2640.0,1420.0 2713.7,1381.8 2786.1,1343.5 2857.0,1304.9 2926.3,1266.1 2993.9,1227.0 3059.6,1187.6 3123.4,1147.9 3185.0,1107.6 3244.3,1066.9 3301.2,1025.6  Z" style="stroke-width: 0.0;  fill: rgb(200,108,30);" />
<path d="M 3311.896,1040.084 A 1625.580,1625.580 0.00 0,1 3327.1,1061.2 L 3327.1,1061.2 3267.8,1102.1 3206.2,1142.5 3142.6,1182.6 3077.0,1222.3 3009.7,1261.9 2940.8,1301.4 2870.4,1340.9 2798.7,1380.4 2725.8,1420.0 2651.8,1459.7 2576.9,1499.5 2501.2,1539.5 2424.7,1579.8 2347.7,1620.3 2270.3,1661.0 2192.4,1701.9 2114.3,1743.0 2036.0,1784.3 1957.7,1825.8 1879.4,1867.4 1801.1,1909.0 1723.1,1950.7 1645.2,1992.4 1567.7,2034.0 1490.6,2075.3 1414.0,2116.5 1337.8,2157.2 1262.2,2197.5 1187.3,2237.2 1113.0,2276.3 1039.3,2314.5 966.4,2351.8 894.3,2388.0 823.0,2423.0 752.5,2456.5 682.8,2488.6 614.0,2518.8 546.0,2547.2 478.9,2573.4  A 1625.580,1625.580 0.00 0,1 469.9,2549.0 L 469.9,2549.0 537.1,2523.9 605.2,2496.7 674.2,2467.5 744.0,2436.5 814.7,2403.9 886.3,2369.9 958.6,2334.6 1031.7,2298.1 1105.5,2260.6 1180.0,2222.3 1255.2,2183.2 1331.0,2143.5 1407.3,2103.2 1484.1,2062.5 1561.3,2021.5 1638.9,1980.2 1716.8,1938.8 1794.9,1897.2 1873.2,1855.6 1951.5,1814.1 2029.8,1772.5 2107.9,1731.1 2185.9,1689.8 2263.5,1648.6 2340.8,1607.6 2417.5,1566.8 2493.6,1526.2 2569.0,1485.7 2643.5,1445.3 2717.0,1405.1 2789.4,1364.9 2860.5,1324.8 2930.3,1284.6 2998.6,1244.5 3065.2,1204.1 3130.0,1163.6 3192.8,1122.8 3253.5,1081.7 3311.9,1040.1  Z" style="stroke-width: 0.0;  fill: rgb(82,145,215);" />
<path d="M 3327.098,1061.213 A 1625.580,1625.580 0.00 0,1 3349.8,1094.2 L 3349.8,1094.2 3287.8,1135.0 3223.8,1175.5 3158.1,1215.8 3090.9,1256.1 3022.3,1296.4 2952.4,1336.9 2881.4,1377.6 2809.6,1418.7 2736.9,1460.2 2663.5,1502.2 2589.6,1544.6 2515.3,1587.6 2440.6,1631.2 2365.8,1675.5 2290.8,1720.3 2215.9,1765.8 2141.0,1811.9 2066.3,1858.7 1991.8,1906.0 1917.7,1953.9 1843.9,2002.3 1770.6,2051.2 1697.8,2100.5 1625.5,2150.1 1553.8,2200.0 1482.7,2250.0 1412.2,2300.1 1342.5,2350.2 1273.4,2400.1 1205.0,2449.7 1137.3,2498.9 1070.3,2547.6 1003.9,2595.5 938.3,2642.5 873.3,2688.5 808.9,2733.2 745.2,2776.5 682.0,2818.2 619.3,2858.0  A 1625.580,1625.580 0.00 0,1 598.6,2823.7 L 598.6,2823.7 661.8,2785.7 725.5,2745.7 789.9,2704.0 854.8,2660.8 920.4,2616.3 986.7,2570.6 1053.7,2523.9 1121.3,2476.4 1189.6,2428.3 1258.6,2379.6 1328.3,2330.5 1398.6,2281.2 1469.6,2231.7 1541.1,2182.2 1613.3,2132.7 1686.0,2083.4 1759.1,2034.3 1832.7,1985.5 1906.7,1937.1 1981.0,1889.1 2055.6,1841.6 2130.3,1794.5 2205.1,1748.0 2280.0,1702.1 2354.7,1656.6 2429.3,1611.8 2503.6,1567.4 2577.5,1523.6 2650.8,1480.3 2723.6,1437.4 2795.6,1394.9 2866.7,1352.8 2936.8,1311.0 3005.7,1269.3 3073.2,1227.8 3139.3,1186.4 3203.8,1144.9 3266.4,1103.2 3327.1,1061.2  Z" style="stroke-width: 0.0;  fill: rgb(60,120,198);" />
<path d="M 3349.820,1094.188 A 1625.580,1625.580 0.00 0,1 3372.8,1129.4 L 3372.8,1129.4 3312.3,1168.8 3251.4,1210.4 3190.0,1254.1 3128.1,1299.6 3065.8,1346.7 3002.8,1395.4 2939.4,1445.4 2875.4,1496.6 2810.9,1548.9 2745.8,1602.0 2680.2,1655.9 2614.1,1710.5 2547.6,1765.6 2480.6,1821.1 2413.2,1877.0 2345.4,1933.0 2277.3,1989.2 2209.0,2045.5 2140.5,2101.7 2071.8,2157.9 2003.1,2213.9 1934.4,2269.7 1865.8,2325.2 1797.4,2380.5 1729.3,2435.5 1661.5,2490.1 1594.3,2544.4 1527.7,2598.4 1461.8,2651.9 1396.8,2705.1 1332.8,2758.0 1269.9,2810.5 1208.3,2862.8 1148.1,2914.8 1089.5,2966.6 1032.6,3018.2 977.6,3069.7 924.7,3121.1 874.1,3172.6  A 1625.580,1625.580 0.00 0,1 844.2,3143.0 L 844.2,3143.0 896.5,3092.5 950.9,3042.0 1007.4,2991.5 1065.7,2940.8 1125.6,2890.0 1187.0,2839.0 1249.8,2787.6 1313.7,2735.9 1378.7,2683.9 1444.6,2631.4 1511.2,2578.6 1578.5,2525.3 1646.3,2471.7 1714.6,2417.5 1783.1,2363.0 1851.8,2308.1 1920.6,2252.8 1989.5,2197.2 2058.3,2141.3 2126.9,2085.2 2195.4,2028.9 2263.6,1972.4 2331.4,1916.0 2398.9,1859.5 2465.9,1803.2 2532.5,1747.1 2598.6,1691.3 2664.1,1635.9 2729.2,1581.1 2793.6,1526.9 2857.6,1473.6 2920.9,1421.2 2983.7,1369.8 3045.9,1319.8 3107.7,1271.1 3168.9,1224.1 3229.6,1178.8 3289.9,1135.4 3349.8,1094.2  Z" style="stroke-width: 0.0;  fill: rgb(28,75,160);" />
<path d="M 3372.796,1129.402 A 1625.580,1625.580 0.00 0,1 3466.8,1299.2 L 3466.8,1299.2 3407.0,1329.1 3346.9,1361.9 3286.4,1397.3 3225.6,1435.2 3164.6,1475.6 3103.4,1518.3 3042.0,1563.2 2980.6,1610.1 2919.1,1659.0 2857.7,1709.7 2796.4,1762.2 2735.2,1816.2 2674.3,1871.8 2613.7,1928.7 2553.4,1986.9 2493.6,2046.3 2434.3,2106.8 2375.7,2168.2 2317.7,2230.6 2260.5,2293.7 2204.1,2357.4 2148.7,2421.8 2094.3,2486.7 2041.0,2552.0 1989.0,2617.7 1938.2,2683.6 1888.9,2749.6 1841.1,2815.8 1794.9,2881.9 1750.4,2948.0 1707.7,3014.0 1667.0,3079.7 1628.3,3145.1 1591.8,3210.2 1557.6,3274.9 1525.7,3339.1 1496.4,3402.8 1469.7,3465.8 1445.8,3528.2  A 1625.580,1625.580 0.00 0,1 1267.6,3451.2 L 1267.6,3451.2 1299.8,3390.0 1334.5,3328.2 1371.7,3265.9 1411.1,3203.2 1452.7,3140.0 1496.3,3076.4 1541.7,3012.3 1588.8,2947.9 1637.5,2883.2 1687.7,2818.2 1739.2,2752.9 1792.0,2687.4 1845.8,2621.7 1900.7,2556.0 1956.4,2490.2 2013.0,2424.5 2070.2,2358.9 2128.1,2293.4 2186.5,2228.2 2245.3,2163.3 2304.5,2098.8 2364.0,2034.8 2423.7,1971.4 2483.6,1908.8 2543.7,1846.9 2603.7,1785.8 2663.8,1725.8 2723.8,1667.0 2783.8,1609.3 2843.6,1553.0 2903.3,1498.2 2962.7,1445.0 3022.0,1393.6 3081.1,1344.0 3139.9,1296.4 3198.5,1251.0 3256.9,1208.0 3315.0,1167.4 3372.8,1129.4  Z" style="stroke-width: 0.0;  fill: rgb(42,98,180);" />
<path d="M 3466.780,1299.239 A 1625.580,1625.580 0.00 0,1 3477.8,1322.8 L 3477.8,1322.8 3421.6,1350.1 3365.3,1380.3 3309.1,1413.4 3253.2,1449.2 3197.6,1487.7 3142.5,1528.8 3087.9,1572.4 3034.0,1618.4 2980.9,1666.7 2928.7,1717.2 2877.5,1769.7 2827.4,1824.3 2778.4,1880.7 2730.7,1938.9 2684.4,1998.7 2639.5,2060.1 2596.1,2123.0 2554.3,2187.2 2514.2,2252.5 2475.8,2319.0 2439.2,2386.4 2404.6,2454.7 2371.8,2523.7 2341.1,2593.3 2312.4,2663.4 2285.9,2733.8 2261.5,2804.4 2239.3,2875.1 2219.4,2945.7 2201.8,3016.2 2186.6,3086.3 2173.7,3155.9 2163.2,3225.0 2155.2,3293.3 2149.6,3360.7 2146.6,3427.1 2146.0,3492.2 2148.0,3556.1 2152.5,3618.4  A 1625.580,1625.580 0.00 0,1 2126.6,3620.6 L 2126.6,3620.6 2123.0,3557.9 2122.0,3493.8 2123.6,3428.3 2127.6,3361.6 2134.2,3293.8 2143.2,3225.2 2154.6,3155.8 2168.4,3085.8 2184.6,3015.3 2203.0,2944.5 2223.7,2873.5 2246.7,2802.3 2271.8,2731.3 2299.1,2660.4 2328.4,2589.8 2359.7,2519.7 2392.9,2450.2 2428.1,2381.3 2465.1,2313.2 2503.8,2246.1 2544.3,2180.1 2586.3,2115.2 2629.9,2051.6 2675.0,1989.4 2721.4,1928.8 2769.2,1869.7 2818.2,1812.4 2868.3,1757.0 2919.5,1703.5 2971.6,1652.1 3024.5,1602.9 3078.3,1555.9 3132.6,1511.3 3187.6,1469.2 3243.0,1429.7 3298.7,1392.8 3354.6,1358.7 3410.7,1327.5 3466.8,1299.2  Z" style="stroke-width: 0.0;  fill: rgb(15,52,135);" />
</g>
<defs>
<pattern id="checker" width="10" height="10" patternTransform="rotate(45 0 0)" patternUnits="userSpaceOnUse"><line x1="0" y1="0" x2="10" y2="0" style="stroke:black;stroke-width:5" /><line x1="0" y1="0" x2="0" y2="10" style="stroke:black;stroke-width:4" /></pattern>
<pattern id="vline-sparse" width="10" height="10" patternTransform="rotate(0 0 0)" patternUnits="userSpaceOnUse"><line x1="0" y1="0" x2="0" y2="10" style="stroke:black;stroke-width:2" /></pattern>
<pattern id="hline-sparse" width="10" height="10" patternTransform="rotate(0 0 0)" patternUnits="userSpaceOnUse"><line x1="0" y1="0" x2="10" y2="0" style="stroke:black;stroke-width:2" /></pattern>
<pattern id="vline" width="10" height="10" patternTransform="rotate(0 0 0)" patternUnits="userSpaceOnUse"><line x1="0" y1="0" x2="0" y2="10" style="stroke:black;stroke-width:5" /></pattern>
<pattern id="hline" width="10" height="10" patternTransform="rotate(0 0 0)" patternUnits="userSpaceOnUse"><line x1="0" y1="0" x2="10" y2="0" style="stroke:black;stroke-width:5" /></pattern>
<pattern id="checker" width="10" height="10" patternTransform="rotate(45 0 0)" patternUnits="userSpaceOnUse"><line x1="0" y1="0" x2="10" y2="0" style="stroke:black;stroke-width:2" /><line x1="0" y1="0" x2="0" y2="10" style="stroke:black;stroke-width:2" /></pattern>
</defs>
</svg>
