<?xml version="1.0" encoding="utf-8" standalone="no"?>
<!DOCTYPE svg PUBLIC "-//W3C//DTD SVG 1.1//EN" "http://www.w3.org/Graphics/SVG/1.1/DTD/svg11.dtd">
<svg width="4000px" height="4000px" version="1.1" xmlns="http://www.w3.org/2000/svg" xmlns:xlink="http://www.w3.org/1999/xlink">
<g id="bg">
<rect x="0" y="0" width="4000px" height="4000px" style="fill:rgb(255,255,255);"/>
</g>
<g id="ideograms">
<path d="M2000.000,358.000 A1642.000,1642.000 40.000 0,1 2727.139,527.779 L2743.967,493.709 A1680.000,1680.000 0.000 0,0 2000.000,320.000 Z" style="stroke-width:2.0;stroke:rgb(255,255,255);stroke-linecap:round;fill:rgb(185,185,185);" />
<text x="2412.3" y="302.2" font-size="36.4px" font-family="CMUBright-Roman" style="text-anchor:start;fill:rgb(0,0,0);" transform="rotate(283.1,2412.3,302.2)" >Engineering</text>
<path d="M2000.000,358.000 A1642.000,1642.000 40.000 0,1 2727.139,527.779 L2743.967,493.709 A1680.000,1680.000 0.000 0,0 2000.000,320.000 Z" style="stroke-width:2.0;stroke:rgb(255,255,255);stroke-linecap:round;fill:none;" />
<path d="M2759.082,543.992 A1642.000,1642.000 40.000 0,1 3284.099,976.646 L3313.816,952.963 A1680.000,1680.000 0.000 0,0 2776.649,510.297 Z" style="stroke-width:2.0;stroke:rgb(255,255,255);stroke-linecap:round;fill:rgb(185,185,185);" />
<text x="3120.8" y="659.6" font-size="36.4px" font-family="CMUBright-Roman" style="text-anchor:start;fill:rgb(0,0,0);" transform="rotate(309.5,3120.8,659.6)" >Finance-Investment</text>
<path d="M2759.082,543.992 A1642.000,1642.000 40.000 0,1 3284.099,976.646 L3313.816,952.963 A1680.000,1680.000 0.000 0,0 2776.649,510.297 Z" style="stroke-width:2.0;stroke:rgb(255,255,255);stroke-linecap:round;fill:none;" />
<path d="M3306.118,1004.902 A1642.000,1642.000 40.000 0,1 3557.132,1478.938 L3593.167,1466.879 A1680.000,1680.000 0.000 0,0 3336.345,981.873 Z" style="stroke-width:2.0;stroke:rgb(255,255,255);stroke-linecap:round;fill:rgb(185,185,185);" />
<text x="3551.5" y="1196.5" font-size="36.4px" font-family="CMUBright-Roman" style="text-anchor:start;fill:rgb(0,0,0);" transform="rotate(332.1,3551.5,1196.5)" >Management-Operations</text>
<path d="M3306.118,1004.902 A1642.000,1642.000 40.000 0,1 3557.132,1478.938 L3593.167,1466.879 A1680.000,1680.000 0.000 0,0 3336.345,981.873 Z" style="stroke-width:2.0;stroke:rgb(255,255,255);stroke-linecap:round;fill:none;" />
<path d="M3568.128,1513.031 A1642.000,1642.000 40.000 0,1 3640.479,1929.339 L3678.444,1927.703 A1680.000,1680.000 0.000 0,0 3604.418,1501.761 Z" style="stroke-width:2.0;stroke:rgb(255,255,255);stroke-linecap:round;fill:rgb(185,185,185);" />
<text x="3723.5" y="1713.2" font-size="36.4px" font-family="CMUBright-Roman" style="text-anchor:start;fill:rgb(0,0,0);" transform="rotate(350.1,3723.5,1713.2)" >Software-Data</text>
<path d="M3568.128,1513.031 A1642.000,1642.000 40.000 0,1 3640.479,1929.339 L3678.444,1927.703 A1680.000,1680.000 0.000 0,0 3604.418,1501.761 Z" style="stroke-width:2.0;stroke:rgb(255,255,255);stroke-linecap:round;fill:none;" />
<path d="M3641.630,1965.142 A1642.000,1642.000 40.000 0,1 3597.388,2380.151 L3634.356,2388.948 A1680.000,1680.000 0.000 0,0 3679.621,1964.336 Z" style="stroke-width:2.0;stroke:rgb(255,255,255);stroke-linecap:round;fill:rgb(185,185,185);" />
<text x="3735.6" y="2201.1" font-size="36.4px" font-family="CMUBright-Roman" style="text-anchor:start;fill:rgb(0,0,0);" transform="rotate(6.1,3735.6,2201.1)" >Sales-Marketing</text>
<path d="M3641.630,1965.142 A1642.000,1642.000 40.000 0,1 3597.388,2380.151 L3634.356,2388.948 A1680.000,1680.000 0.000 0,0 3679.621,1964.336 Z" style="stroke-width:2.0;stroke:rgb(255,255,255);stroke-linecap:round;fill:none;" />
<path d="M3588.715,2414.907 A1642.000,1642.000 40.000 0,1 3447.858,2774.513 L3481.365,2792.437 A1680.000,1680.000 0.000 0,0 3625.482,2424.509 Z" style="stroke-width:2.0;stroke:rgb(255,255,255);stroke-linecap:round;fill:rgb(185,185,185);" />
<text x="3620.9" y="2652.1" font-size="36.4px" font-family="CMUBright-Roman" style="text-anchor:start;fill:rgb(0,0,0);" transform="rotate(21.4,3620.9,2652.1)" >Accounting-Audit</text>
<path d="M3588.715,2414.907 A1642.000,1642.000 40.000 0,1 3447.858,2774.513 L3481.365,2792.437 A1680.000,1680.000 0.000 0,0 3625.482,2424.509 Z" style="stroke-width:2.0;stroke:rgb(255,255,255);stroke-linecap:round;fill:none;" />
<path d="M3430.618,2805.914 A1642.000,1642.000 40.000 0,1 3261.549,3051.027 L3290.745,3075.350 A1680.000,1680.000 0.000 0,0 3463.726,2824.565 Z" style="stroke-width:2.0;stroke:rgb(255,255,255);stroke-linecap:round;fill:rgb(185,185,185);" />
<text x="3429.4" y="3004.8" font-size="36.4px" font-family="CMUBright-Roman" style="text-anchor:start;fill:rgb(0,0,0);" transform="rotate(34.6,3429.4,3004.8)" >Leadership-General</text>
<path d="M3430.618,2805.914 A1642.000,1642.000 40.000 0,1 3261.549,3051.027 L3290.745,3075.350 A1680.000,1680.000 0.000 0,0 3463.726,2824.565 Z" style="stroke-width:2.0;stroke:rgb(255,255,255);stroke-linecap:round;fill:none;" />
<path d="M3238.321,3078.297 A1642.000,1642.000 40.000 0,1 3039.505,3271.060 L3063.562,3300.476 A1680.000,1680.000 0.000 0,0 3266.979,3103.252 Z" style="stroke-width:2.0;stroke:rgb(255,255,255);stroke-linecap:round;fill:rgb(185,185,185);" />
<text x="3207.2" y="3263.1" font-size="36.4px" font-family="CMUBright-Roman" style="text-anchor:start;fill:rgb(0,0,0);" transform="rotate(45.9,3207.2,3263.1)" >Clinical-Care</text>
<path d="M3238.321,3078.297 A1642.000,1642.000 40.000 0,1 3039.505,3271.060 L3063.562,3300.476 A1680.000,1680.000 0.000 0,0 3266.979,3103.252 Z" style="stroke-width:2.0;stroke:rgb(255,255,255);stroke-linecap:round;fill:none;" />
<path d="M3011.529,3293.434 A1642.000,1642.000 40.000 0,1 2784.385,3442.534 L2802.537,3475.918 A1680.000,1680.000 0.000 0,0 3034.939,3323.368 Z" style="stroke-width:2.0;stroke:rgb(255,255,255);stroke-linecap:round;fill:rgb(185,185,185);" />
<text x="2948.3" y="3467.5" font-size="36.4px" font-family="CMUBright-Roman" style="text-anchor:start;fill:rgb(0,0,0);" transform="rotate(56.7,2948.3,3467.5)" >Research-Science</text>
<path d="M3011.529,3293.434 A1642.000,1642.000 40.000 0,1 2784.385,3442.534 L2802.537,3475.918 A1680.000,1680.000 0.000 0,0 3034.939,3323.368 Z" style="stroke-width:2.0;stroke:rgb(255,255,255);stroke-linecap:round;fill:none;" />
<path d="M2752.729,3459.302 A1642.000,1642.000 40.000 0,1 2556.245,3544.913 L2569.118,3580.666 A1680.000,1680.000 0.000 0,0 2770.149,3493.074 Z" style="stroke-width:2.0;stroke:rgb(255,255,255);stroke-linecap:round;fill:rgb(185,185,185);" />
<text x="2686.4" y="3606.7" font-size="36.4px" font-family="CMUBright-Roman" style="text-anchor:start;fill:rgb(0,0,0);" transform="rotate(66.5,2686.4,3606.7)" >Education</text>
<path d="M2752.729,3459.302 A1642.000,1642.000 40.000 0,1 2556.245,3544.913 L2569.118,3580.666 A1680.000,1680.000 0.000 0,0 2770.149,3493.074 Z" style="stroke-width:2.0;stroke:rgb(255,255,255);stroke-linecap:round;fill:none;" />
<path d="M2522.411,3556.679 A1642.000,1642.000 40.000 0,1 2417.174,3588.121 L2426.829,3624.875 A1680.000,1680.000 0.000 0,0 2534.501,3592.705 Z" style="stroke-width:2.0;stroke:rgb(255,255,255);stroke-linecap:round;fill:rgb(185,185,185);" />
<text x="2488.2" y="3677.6" font-size="36.4px" font-family="CMUBright-Roman" style="text-anchor:start;fill:rgb(0,0,0);" transform="rotate(73.4,2488.2,3677.6)" >IT-Infrastructure</text>
<path d="M2522.411,3556.679 A1642.000,1642.000 40.000 0,1 2417.174,3588.121 L2426.829,3624.875 A1680.000,1680.000 0.000 0,0 2534.501,3592.705 Z" style="stroke-width:2.0;stroke:rgb(255,255,255);stroke-linecap:round;fill:none;" />
<path d="M2382.430,3596.844 A1642.000,1642.000 40.000 0,1 2321.118,3610.294 L2328.550,3647.560 A1680.000,1680.000 0.000 0,0 2391.281,3633.799 Z" style="stroke-width:2.0;stroke:rgb(255,255,255);stroke-linecap:round;fill:rgb(185,185,185);" />
<text x="2358.7" y="3710.0" font-size="36.4px" font-family="CMUBright-Roman" style="text-anchor:start;fill:rgb(0,0,0);" transform="rotate(77.6,2358.7,3710.0)" >Legal-Policy</text>
<path d="M2382.430,3596.844 A1642.000,1642.000 40.000 0,1 2321.118,3610.294 L2328.550,3647.560 A1680.000,1680.000 0.000 0,0 2391.281,3633.799 Z" style="stroke-width:2.0;stroke:rgb(255,255,255);stroke-linecap:round;fill:none;" />
<path d="M2285.913,3616.916 A1642.000,1642.000 40.000 0,1 2249.787,3622.890 L2255.567,3660.447 A1680.000,1680.000 0.000 0,0 2292.530,3654.336 Z" style="stroke-width:2.0;stroke:rgb(255,255,255);stroke-linecap:round;fill:rgb(185,185,185);" />
<text x="2272.7" y="3725.8" font-size="36.4px" font-family="CMUBright-Roman" style="text-anchor:start;fill:rgb(0,0,0);" transform="rotate(80.6,2272.7,3725.8)" >Social-Service</text>
<path d="M2285.913,3616.916 A1642.000,1642.000 40.000 0,1 2249.787,3622.890 L2255.567,3660.447 A1680.000,1680.000 0.000 0,0 2292.530,3654.336 Z" style="stroke-width:2.0;stroke:rgb(255,255,255);stroke-linecap:round;fill:none;" />
<path d="M2214.324,3627.952 A1642.000,1642.000 40.000 0,1 1245.263,3458.265 L1227.797,3492.013 A1680.000,1680.000 0.000 0,0 2219.284,3665.627 Z" style="stroke-width:2.0;stroke:rgb(255,255,255);stroke-linecap:round;fill:rgb(15,52,135);" />
<text x="1714.4" y="3723.7" font-size="36.4px" font-family="CMUBright-Roman" style="text-anchor:end;fill:rgb(0,0,0);" transform="rotate(-80.1,1714.4,3723.7)" >Finance-Accounting</text>
<path d="M2214.324,3627.952 A1642.000,1642.000 40.000 0,1 1245.263,3458.265 L1227.797,3492.013 A1680.000,1680.000 0.000 0,0 2219.284,3665.627 Z" style="stroke-width:2.0;stroke:rgb(255,255,255);stroke-linecap:round;fill:none;" />
<path d="M1213.631,3441.453 A1642.000,1642.000 40.000 0,1 879.437,3200.209 L853.504,3227.985 A1680.000,1680.000 0.000 0,0 1195.432,3474.812 Z" style="stroke-width:2.0;stroke:rgb(255,255,255);stroke-linecap:round;fill:rgb(28,75,160);" />
<text x="990.4" y="3426.0" font-size="36.4px" font-family="CMUBright-Roman" style="text-anchor:end;fill:rgb(0,0,0);" transform="rotate(-54.2,990.4,3426.0)" >Marketing-Communication</text>
<path d="M1213.631,3441.453 A1642.000,1642.000 40.000 0,1 879.437,3200.209 L853.504,3227.985 A1680.000,1680.000 0.000 0,0 1195.432,3474.812 Z" style="stroke-width:2.0;stroke:rgb(255,255,255);stroke-linecap:round;fill:none;" />
<path d="M853.521,3175.478 A1642.000,1642.000 40.000 0,1 639.254,2918.986 L607.763,2940.253 A1680.000,1680.000 0.000 0,0 826.988,3202.682 Z" style="stroke-width:2.0;stroke:rgb(255,255,255);stroke-linecap:round;fill:rgb(42,98,180);" />
<text x="667.2" y="3129.7" font-size="36.4px" font-family="CMUBright-Roman" style="text-anchor:end;fill:rgb(0,0,0);" transform="rotate(-39.9,667.2,3129.7)" >General-Business</text>
<path d="M853.521,3175.478 A1642.000,1642.000 40.000 0,1 639.254,2918.986 L607.763,2940.253 A1680.000,1680.000 0.000 0,0 826.988,3202.682 Z" style="stroke-width:2.0;stroke:rgb(255,255,255);stroke-linecap:round;fill:none;" />
<path d="M619.530,2889.082 A1642.000,1642.000 40.000 0,1 479.680,2620.315 L444.496,2634.671 A1680.000,1680.000 0.000 0,0 587.583,2909.658 Z" style="stroke-width:2.0;stroke:rgb(255,255,255);stroke-linecap:round;fill:rgb(60,120,198);" />
<text x="457.3" y="2820.2" font-size="36.4px" font-family="CMUBright-Roman" style="text-anchor:end;fill:rgb(0,0,0);" transform="rotate(-27.5,457.3,2820.2)" >Operations-Analytics</text>
<path d="M619.530,2889.082 A1642.000,1642.000 40.000 0,1 479.680,2620.315 L444.496,2634.671 A1680.000,1680.000 0.000 0,0 587.583,2909.658 Z" style="stroke-width:2.0;stroke:rgb(255,255,255);stroke-linecap:round;fill:none;" />
<path d="M466.510,2587.002 A1642.000,1642.000 40.000 0,1 421.749,2453.087 L385.224,2463.573 A1680.000,1680.000 0.000 0,0 431.021,2600.587 Z" style="stroke-width:2.0;stroke:rgb(255,255,255);stroke-linecap:round;fill:rgb(82,145,215);" />
<text x="347.9" y="2568.6" font-size="36.4px" font-family="CMUBright-Roman" style="text-anchor:end;fill:rgb(0,0,0);" transform="rotate(-18.5,347.9,2568.6)" >Specialized-Business</text>
<path d="M466.510,2587.002 A1642.000,1642.000 40.000 0,1 421.749,2453.087 L385.224,2463.573 A1680.000,1680.000 0.000 0,0 431.021,2600.587 Z" style="stroke-width:2.0;stroke:rgb(255,255,255);stroke-linecap:round;fill:none;" />
<path d="M412.241,2418.550 A1642.000,1642.000 40.000 0,1 391.911,2331.987 L354.696,2339.670 A1680.000,1680.000 0.000 0,0 375.496,2428.236 Z" style="stroke-width:2.0;stroke:rgb(255,255,255);stroke-linecap:round;fill:rgb(108,170,228);" />
<text x="301.9" y="2411.1" font-size="36.4px" font-family="CMUBright-Roman" style="text-anchor:end;fill:rgb(0,0,0);" transform="rotate(-13.2,301.9,2411.1)" >Economics</text>
<path d="M412.241,2418.550 A1642.000,1642.000 40.000 0,1 391.911,2331.987 L354.696,2339.670 A1680.000,1680.000 0.000 0,0 375.496,2428.236 Z" style="stroke-width:2.0;stroke:rgb(255,255,255);stroke-linecap:round;fill:none;" />
<path d="M385.052,2296.827 A1642.000,1642.000 40.000 0,1 366.030,2162.194 L328.216,2165.947 A1680.000,1680.000 0.000 0,0 347.678,2303.697 Z" style="stroke-width:2.0;stroke:rgb(255,255,255);stroke-linecap:round;fill:rgb(200,108,30);" />
<text x="271.8" y="2256.8" font-size="36.4px" font-family="CMUBright-Roman" style="text-anchor:end;fill:rgb(0,0,0);" transform="rotate(-8.0,271.8,2256.8)" >Social-Sciences</text>
<path d="M385.052,2296.827 A1642.000,1642.000 40.000 0,1 366.030,2162.194 L328.216,2165.947 A1680.000,1680.000 0.000 0,0 347.678,2303.697 Z" style="stroke-width:2.0;stroke:rgb(255,255,255);stroke-linecap:round;fill:none;" />
<path d="M362.881,2126.510 A1642.000,1642.000 40.000 0,1 359.682,2074.299 L321.721,2076.018 A1680.000,1680.000 0.000 0,0 324.994,2129.438 Z" style="stroke-width:2.0;stroke:rgb(255,255,255);stroke-linecap:round;fill:rgb(220,140,52);" />
<text x="256.9" y="2119.3" font-size="36.4px" font-family="CMUBright-Roman" style="text-anchor:end;fill:rgb(0,0,0);" transform="rotate(-3.5,256.9,2119.3)" >Humanities-Liberal-Arts</text>
<path d="M362.881,2126.510 A1642.000,1642.000 40.000 0,1 359.682,2074.299 L321.721,2076.018 A1680.000,1680.000 0.000 0,0 324.994,2129.438 Z" style="stroke-width:2.0;stroke:rgb(255,255,255);stroke-linecap:round;fill:none;" />
<path d="M358.451,2038.498 A1642.000,1642.000 40.000 0,1 358.158,2022.807 L320.162,2023.335 A1680.000,1680.000 0.000 0,0 320.462,2039.389 Z" style="stroke-width:2.0;stroke:rgb(255,255,255);stroke-linecap:round;fill:rgb(235,168,78);" />
<text x="253.4" y="2045.1" font-size="36.4px" font-family="CMUBright-Roman" style="text-anchor:end;fill:rgb(0,0,0);" transform="rotate(-1.1,253.4,2045.1)" >International-Studies</text>
<path d="M358.451,2038.498 A1642.000,1642.000 40.000 0,1 358.158,2022.807 L320.162,2023.335 A1680.000,1680.000 0.000 0,0 320.462,2039.389 Z" style="stroke-width:2.0;stroke:rgb(255,255,255);stroke-linecap:round;fill:none;" />
<path d="M358.052,1986.985 A1642.000,1642.000 40.000 0,1 367.336,1825.152 L329.552,1821.105 A1680.000,1680.000 0.000 0,0 320.053,1986.684 Z" style="stroke-width:2.0;stroke:rgb(255,255,255);stroke-linecap:round;fill:rgb(175,35,42);" />
<text x="255.0" y="1912.4" font-size="36.4px" font-family="CMUBright-Roman" style="text-anchor:end;fill:rgb(0,0,0);" transform="rotate(3.3,255.0,1912.4)" >Teacher-Education</text>
<path d="M358.052,1986.985 A1642.000,1642.000 40.000 0,1 367.336,1825.152 L329.552,1821.105 A1680.000,1680.000 0.000 0,0 320.053,1986.684 Z" style="stroke-width:2.0;stroke:rgb(255,255,255);stroke-linecap:round;fill:none;" />
<path d="M371.539,1789.577 A1642.000,1642.000 40.000 0,1 376.636,1753.316 L339.067,1747.607 A1680.000,1680.000 0.000 0,0 333.852,1784.707 Z" style="stroke-width:2.0;stroke:rgb(255,255,255);stroke-linecap:round;fill:rgb(195,58,55);" />
<text x="268.1" y="1769.2" font-size="36.4px" font-family="CMUBright-Roman" style="text-anchor:end;fill:rgb(0,0,0);" transform="rotate(8.0,268.1,1769.2)" >Social-Work</text>
<path d="M371.539,1789.577 A1642.000,1642.000 40.000 0,1 376.636,1753.316 L339.067,1747.607 A1680.000,1680.000 0.000 0,0 333.852,1784.707 Z" style="stroke-width:2.0;stroke:rgb(255,255,255);stroke-linecap:round;fill:none;" />
<path d="M382.404,1717.961 A1642.000,1642.000 40.000 0,1 388.090,1687.094 L350.786,1679.853 A1680.000,1680.000 0.000 0,0 344.968,1711.434 Z" style="stroke-width:2.0;stroke:rgb(255,255,255);stroke-linecap:round;fill:rgb(215,82,72);" />
<text x="279.0" y="1698.7" font-size="36.4px" font-family="CMUBright-Roman" style="text-anchor:end;fill:rgb(0,0,0);" transform="rotate(10.4,279.0,1698.7)" >Special-Education</text>
<path d="M382.404,1717.961 A1642.000,1642.000 40.000 0,1 388.090,1687.094 L350.786,1679.853 A1680.000,1680.000 0.000 0,0 344.968,1711.434 Z" style="stroke-width:2.0;stroke:rgb(255,255,255);stroke-linecap:round;fill:none;" />
<path d="M395.300,1652.005 A1642.000,1642.000 40.000 0,1 396.416,1646.895 L359.305,1638.723 A1680.000,1680.000 0.000 0,0 358.163,1643.952 Z" style="stroke-width:2.0;stroke:rgb(255,255,255);stroke-linecap:round;fill:rgb(230,112,95);" />
<text x="289.8" y="1642.1" font-size="36.4px" font-family="CMUBright-Roman" style="text-anchor:end;fill:rgb(0,0,0);" transform="rotate(12.3,289.8,1642.1)" >Educational-Leadership</text>
<path d="M395.300,1652.005 A1642.000,1642.000 40.000 0,1 396.416,1646.895 L359.305,1638.723 A1680.000,1680.000 0.000 0,0 358.163,1643.952 Z" style="stroke-width:2.0;stroke:rgb(255,255,255);stroke-linecap:round;fill:none;" />
<path d="M404.501,1611.997 A1642.000,1642.000 40.000 0,1 423.388,1541.244 L386.901,1530.627 A1680.000,1680.000 0.000 0,0 367.577,1603.017 Z" style="stroke-width:2.0;stroke:rgb(255,255,255);stroke-linecap:round;fill:rgb(0,130,142);" />
<text x="308.7" y="1561.5" font-size="36.4px" font-family="CMUBright-Roman" style="text-anchor:end;fill:rgb(0,0,0);" transform="rotate(14.9,308.7,1561.5)" >Communication-Studies</text>
<path d="M404.501,1611.997 A1642.000,1642.000 40.000 0,1 423.388,1541.244 L386.901,1530.627 A1680.000,1680.000 0.000 0,0 367.577,1603.017 Z" style="stroke-width:2.0;stroke:rgb(255,255,255);stroke-linecap:round;fill:none;" />
<path d="M433.770,1506.960 A1642.000,1642.000 40.000 0,1 448.549,1462.261 L412.644,1449.816 A1680.000,1680.000 0.000 0,0 397.524,1495.549 Z" style="stroke-width:2.0;stroke:rgb(255,255,255);stroke-linecap:round;fill:rgb(0,165,172);" />
<text x="337.2" y="1463.4" font-size="36.4px" font-family="CMUBright-Roman" style="text-anchor:end;fill:rgb(0,0,0);" transform="rotate(18.3,337.2,1463.4)" >Journalism-Media</text>
<path d="M433.770,1506.960 A1642.000,1642.000 40.000 0,1 448.549,1462.261 L412.644,1449.816 A1680.000,1680.000 0.000 0,0 397.524,1495.549 Z" style="stroke-width:2.0;stroke:rgb(255,255,255);stroke-linecap:round;fill:none;" />
<path d="M460.649,1428.544 A1642.000,1642.000 40.000 0,1 466.181,1413.858 L430.684,1400.293 A1680.000,1680.000 0.000 0,0 425.024,1415.319 Z" style="stroke-width:2.0;stroke:rgb(255,255,255);stroke-linecap:round;fill:rgb(38,195,195);" />
<text x="359.4" y="1399.1" font-size="36.4px" font-family="CMUBright-Roman" style="text-anchor:end;fill:rgb(0,0,0);" transform="rotate(20.6,359.4,1399.1)" >Creative-Writing</text>
<path d="M460.649,1428.544 A1642.000,1642.000 40.000 0,1 466.181,1413.858 L430.684,1400.293 A1680.000,1680.000 0.000 0,0 425.024,1415.319 Z" style="stroke-width:2.0;stroke:rgb(255,255,255);stroke-linecap:round;fill:none;" />
<path d="M479.332,1380.537 A1642.000,1642.000 40.000 0,1 510.660,1308.603 L476.193,1292.602 A1680.000,1680.000 0.000 0,0 444.140,1366.201 Z" style="stroke-width:2.0;stroke:rgb(255,255,255);stroke-linecap:round;fill:rgb(180,45,112);" />
<text x="391.8" y="1317.1" font-size="36.4px" font-family="CMUBright-Roman" style="text-anchor:end;fill:rgb(0,0,0);" transform="rotate(23.5,391.8,1317.1)" >Arts-Theology</text>
<path d="M479.332,1380.537 A1642.000,1642.000 40.000 0,1 510.660,1308.603 L476.193,1292.602 A1680.000,1680.000 0.000 0,0 444.140,1366.201 Z" style="stroke-width:2.0;stroke:rgb(255,255,255);stroke-linecap:round;fill:none;" />
<path d="M526.097,1276.278 A1642.000,1642.000 40.000 0,1 530.738,1266.901 L496.736,1249.936 A1680.000,1680.000 0.000 0,0 491.987,1259.529 Z" style="stroke-width:2.0;stroke:rgb(255,255,255);stroke-linecap:round;fill:rgb(205,75,142);" />
<text x="427.1" y="1239.3" font-size="36.4px" font-family="CMUBright-Roman" style="text-anchor:end;fill:rgb(0,0,0);" transform="rotate(26.3,427.1,1239.3)" >English-Writing</text>
<path d="M526.097,1276.278 A1642.000,1642.000 40.000 0,1 530.738,1266.901 L496.736,1249.936 A1680.000,1680.000 0.000 0,0 491.987,1259.529 Z" style="stroke-width:2.0;stroke:rgb(255,255,255);stroke-linecap:round;fill:none;" />
<path d="M547.080,1235.024 A1642.000,1642.000 40.000 0,1 549.525,1230.399 L515.957,1212.589 A1680.000,1680.000 0.000 0,0 513.456,1217.321 Z" style="stroke-width:2.0;stroke:rgb(255,255,255);stroke-linecap:round;fill:rgb(225,110,168);" />
<text x="447.9" y="1197.7" font-size="36.4px" font-family="CMUBright-Roman" style="text-anchor:end;fill:rgb(0,0,0);" transform="rotate(27.9,447.9,1197.7)" >Languages</text>
<path d="M547.080,1235.024 A1642.000,1642.000 40.000 0,1 549.525,1230.399 L515.957,1212.589 A1680.000,1680.000 0.000 0,0 513.456,1217.321 Z" style="stroke-width:2.0;stroke:rgb(255,255,255);stroke-linecap:round;fill:none;" />
<path d="M566.659,1198.940 A1642.000,1642.000 40.000 0,1 748.337,937.219 L719.370,912.624 A1680.000,1680.000 0.000 0,0 533.488,1180.402 Z" style="stroke-width:2.0;stroke:rgb(255,255,255);stroke-linecap:round;fill:rgb(88,40,138);" />
<text x="555.7" y="1016.9" font-size="36.4px" font-family="CMUBright-Roman" style="text-anchor:end;fill:rgb(0,0,0);" transform="rotate(34.8,555.7,1016.9)" >Biological-Sciences</text>
<path d="M566.659,1198.940 A1642.000,1642.000 40.000 0,1 748.337,937.219 L719.370,912.624 A1680.000,1680.000 0.000 0,0 533.488,1180.402 Z" style="stroke-width:2.0;stroke:rgb(255,255,255);stroke-linecap:round;fill:none;" />
<path d="M771.819,910.167 A1642.000,1642.000 40.000 0,1 821.633,856.490 L794.362,830.027 A1680.000,1680.000 0.000 0,0 743.396,884.946 Z" style="stroke-width:2.0;stroke:rgb(255,255,255);stroke-linecap:round;fill:rgb(115,65,165);" />
<text x="710.8" y="820.7" font-size="36.4px" font-family="CMUBright-Roman" style="text-anchor:end;fill:rgb(0,0,0);" transform="rotate(42.9,710.8,820.7)" >Health-Wellness</text>
<path d="M771.819,910.167 A1642.000,1642.000 40.000 0,1 821.633,856.490 L794.362,830.027 A1680.000,1680.000 0.000 0,0 743.396,884.946 Z" style="stroke-width:2.0;stroke:rgb(255,255,255);stroke-linecap:round;fill:none;" />
<path d="M846.858,831.057 A1642.000,1642.000 40.000 0,1 873.212,805.633 L847.135,777.993 A1680.000,1680.000 0.000 0,0 820.172,804.004 Z" style="stroke-width:2.0;stroke:rgb(255,255,255);stroke-linecap:round;fill:rgb(140,92,188);" />
<text x="775.8" y="753.4" font-size="36.4px" font-family="CMUBright-Roman" style="text-anchor:end;fill:rgb(0,0,0);" transform="rotate(46.0,775.8,753.4)" >Physical-Sciences</text>
<path d="M846.858,831.057 A1642.000,1642.000 40.000 0,1 873.212,805.633 L847.135,777.993 A1680.000,1680.000 0.000 0,0 820.172,804.004 Z" style="stroke-width:2.0;stroke:rgb(255,255,255);stroke-linecap:round;fill:none;" />
<path d="M899.535,781.337 A1642.000,1642.000 40.000 0,1 903.423,777.837 L878.045,749.553 A1680.000,1680.000 0.000 0,0 874.067,753.134 Z" style="stroke-width:2.0;stroke:rgb(255,255,255);stroke-linecap:round;fill:rgb(165,120,208);" />
<text x="821.8" y="709.8" font-size="36.4px" font-family="CMUBright-Roman" style="text-anchor:end;fill:rgb(0,0,0);" transform="rotate(48.0,821.8,709.8)" >Environmental-Sciences</text>
<path d="M899.535,781.337 A1642.000,1642.000 40.000 0,1 903.423,777.837 L878.045,749.553 A1680.000,1680.000 0.000 0,0 874.067,753.134 Z" style="stroke-width:2.0;stroke:rgb(255,255,255);stroke-linecap:round;fill:none;" />
<path d="M930.345,754.206 A1642.000,1642.000 40.000 0,1 1638.399,398.311 L1630.030,361.244 A1680.000,1680.000 0.000 0,0 905.590,725.375 Z" style="stroke-width:2.0;stroke:rgb(255,255,255);stroke-linecap:round;fill:rgb(22,118,50);" />
<text x="1201.1" y="446.2" font-size="36.4px" font-family="CMUBright-Roman" style="text-anchor:end;fill:rgb(0,0,0);" transform="rotate(63.3,1201.1,446.2)" >Engineering-Disciplines</text>
<path d="M930.345,754.206 A1642.000,1642.000 40.000 0,1 1638.399,398.311 L1630.030,361.244 A1680.000,1680.000 0.000 0,0 905.590,725.375 Z" style="stroke-width:2.0;stroke:rgb(255,255,255);stroke-linecap:round;fill:none;" />
<path d="M1673.425,390.804 A1642.000,1642.000 40.000 0,1 1964.180,358.391 L1963.351,320.400 A1680.000,1680.000 0.000 0,0 1665.867,353.563 Z" style="stroke-width:2.0;stroke:rgb(255,255,255);stroke-linecap:round;fill:rgb(48,158,75);" />
<text x="1791.0" y="265.3" font-size="36.4px" font-family="CMUBright-Roman" style="text-anchor:end;fill:rgb(0,0,0);" transform="rotate(83.6,1791.0,265.3)" >Computer-Science-IT</text>
<path d="M1673.425,390.804 A1642.000,1642.000 40.000 0,1 1964.180,358.391 L1963.351,320.400 A1680.000,1680.000 0.000 0,0 1665.867,353.563 Z" style="stroke-width:2.0;stroke:rgb(255,255,255);stroke-linecap:round;fill:none;" />
</g>
<g id="track_0">
<path d="M 3416.312,2797.855 A 1625.580,1625.580 0.00 0,1 3413.8,2802.4 L 3413.8,2802.4 3356.9,2768.7 3300.0,2732.1 3243.0,2692.8 3185.9,2650.8 3128.9,2606.3 3072.0,2559.4 3015.2,2510.3 2958.6,2459.0 2902.2,2405.7 2846.1,2350.5 2790.5,2293.5 2735.2,2234.8 2680.5,2174.6 2626.3,2112.9 2572.7,2049.8 2519.8,1985.6 2467.7,1920.2 2416.4,1853.8 2366.1,1786.5 2316.7,1718.4 2268.4,1649.6 2221.2,1580.3 2175.3,1510.4 2130.6,1440.2 2087.3,1369.7 2045.5,1299.0 2005.3,1228.2 1966.7,1157.5 1929.8,1086.8 1894.7,1016.4 1861.6,946.3 1830.4,876.5 1801.4,807.3 1774.5,738.6 1750.0,670.6 1727.8,603.3 1708.1,536.9 1691.1,471.4 1676.7,406.9  A 1625.580,1625.580 0.00 0,1 1681.8,405.9 L 1681.8,405.9 1695.9,470.3 1712.8,535.8 1732.2,602.2 1754.2,669.5 1778.5,737.5 1805.2,806.2 1834.1,875.4 1865.0,945.2 1898.0,1015.3 1932.9,1085.7 1969.6,1156.3 2008.1,1227.1 2048.2,1297.8 2089.9,1368.5 2133.1,1438.9 2177.6,1509.1 2223.5,1578.9 2270.6,1648.2 2318.8,1716.9 2368.1,1784.9 2418.5,1852.1 2469.7,1918.4 2521.8,1983.7 2574.6,2047.9 2628.2,2110.8 2682.4,2172.4 2737.2,2232.5 2792.5,2291.0 2848.2,2347.9 2904.3,2402.9 2960.7,2456.1 3017.3,2507.2 3074.2,2556.1 3131.2,2602.8 3188.2,2647.1 3245.3,2688.9 3302.4,2728.0 3359.4,2764.4 3416.3,2797.9  Z" style="stroke-width: 0.0;  fill: rgb(48,158,75);" />
<path d="M 3413.763,2802.363 A 1625.580,1625.580 0.00 0,1 3408.6,2811.4 L 3408.6,2811.4 3347.4,2775.0 3285.7,2736.3 3223.5,2695.4 3160.8,2652.5 3097.6,2607.8 3033.9,2561.4 2969.6,2513.5 2904.9,2464.3 2839.6,2413.8 2773.9,2362.2 2707.7,2309.6 2641.2,2256.2 2574.2,2202.1 2506.9,2147.4 2439.3,2092.1 2371.5,2036.4 2303.4,1980.4 2235.3,1924.2 2167.1,1867.8 2098.9,1811.3 2030.8,1754.7 1962.8,1698.2 1895.2,1641.8 1827.9,1585.5 1761.0,1529.3 1694.7,1473.4 1629.1,1417.6 1564.3,1362.1 1500.3,1306.9 1437.4,1251.9 1375.7,1197.2 1315.3,1142.7 1256.3,1088.5 1198.8,1034.4 1143.2,980.6 1089.4,927.0 1037.6,873.5 988.1,820.1 941.0,766.7  A 1625.580,1625.580 0.00 0,1 948.9,759.9 L 948.9,759.9 995.6,813.5 1044.7,867.2 1096.1,920.9 1149.5,974.7 1204.8,1028.7 1261.9,1082.9 1320.6,1137.4 1380.8,1192.0 1442.2,1246.9 1504.9,1302.1 1568.6,1357.5 1633.3,1413.1 1698.7,1469.0 1764.8,1525.0 1831.6,1581.3 1898.8,1637.6 1966.3,1694.1 2034.2,1750.7 2102.3,1807.2 2170.4,1863.7 2238.6,1920.1 2306.8,1976.2 2374.9,2032.1 2442.7,2087.7 2510.4,2142.8 2577.8,2197.4 2644.8,2251.3 2711.5,2304.5 2777.8,2356.8 2843.6,2408.1 2909.0,2458.3 2973.9,2507.3 3038.2,2554.8 3102.1,2600.9 3165.5,2645.2 3228.3,2687.7 3290.6,2728.2 3352.4,2766.4 3413.8,2802.4  Z" style="stroke-width: 0.0;  fill: rgb(22,118,50);" />
<path d="M 3408.621,2811.354 A 1625.580,1625.580 0.00 0,1 3406.0,2815.8 L 3406.0,2815.8 3343.7,2778.7 3280.8,2739.4 3217.3,2698.1 3153.3,2655.1 3088.6,2610.6 3023.4,2564.6 2957.5,2517.4 2891.0,2469.2 2823.9,2420.0 2756.2,2370.0 2687.9,2319.3 2619.1,2268.2 2549.7,2216.6 2479.8,2164.6 2409.4,2112.5 2338.7,2060.3 2267.5,2008.0 2196.1,1955.8 2124.4,1903.6 2052.5,1851.7 1980.5,1800.0 1908.5,1748.5 1836.5,1697.4 1764.7,1646.6 1693.1,1596.1 1621.9,1546.1 1551.1,1496.4 1480.9,1447.1 1411.4,1398.1 1342.7,1349.5 1274.9,1301.2 1208.2,1253.3 1142.7,1205.5 1078.6,1158.0 1016.0,1110.6 955.1,1063.3 896.0,1016.0 839.0,968.6 784.1,921.1  A 1625.580,1625.580 0.00 0,1 787.5,917.2 L 787.5,917.2 842.2,964.9 899.1,1012.4 958.0,1059.8 1018.7,1107.3 1081.2,1154.8 1145.1,1202.4 1210.5,1250.3 1277.0,1298.4 1344.7,1346.8 1413.3,1395.5 1482.8,1444.5 1552.9,1493.9 1623.6,1543.7 1694.8,1593.8 1766.3,1644.3 1838.1,1695.2 1910.0,1746.3 1982.0,1797.8 2054.0,1849.6 2125.9,1901.5 2197.6,1953.6 2269.1,2005.8 2340.3,2058.1 2411.1,2110.3 2481.5,2162.3 2551.4,2214.2 2620.9,2265.7 2689.8,2316.8 2758.1,2367.3 2825.9,2417.2 2893.1,2466.2 2959.6,2514.3 3025.6,2561.4 3090.9,2607.1 3155.6,2651.5 3219.7,2694.3 3283.2,2735.3 3346.2,2774.4 3408.6,2811.4  Z" style="stroke-width: 0.0;  fill: rgb(115,65,165);" />
<path d="M 3406.029,2815.838 A 1625.580,1625.580 0.00 0,1 3400.8,2824.8 L 3400.8,2824.8 3337.4,2788.4 3271.9,2752.5 3204.5,2717.0 3135.4,2681.7 3064.7,2646.7 2992.6,2611.7 2919.2,2576.7 2844.7,2541.6 2769.1,2506.3 2692.6,2470.8 2615.3,2435.0 2537.4,2398.9 2459.0,2362.4 2380.1,2325.4 2300.9,2288.1 2221.5,2250.4 2141.9,2212.3 2062.3,2173.7 1982.8,2134.8 1903.3,2095.5 1824.1,2055.8 1745.2,2015.9 1666.6,1975.8 1588.4,1935.6 1510.7,1895.2 1433.5,1854.9 1356.9,1814.7 1280.9,1774.7 1205.6,1735.0 1130.9,1695.8 1057.0,1657.1 983.9,1619.1 911.5,1582.0 840.0,1545.9 769.3,1511.0 699.3,1477.4 630.2,1445.4 562.0,1415.1 494.5,1386.7  A 1625.580,1625.580 0.00 0,1 498.5,1377.2 L 498.5,1377.2 565.9,1406.0 634.0,1436.7 703.1,1469.2 772.9,1503.1 843.5,1538.4 915.0,1574.9 987.2,1612.4 1060.3,1650.7 1134.1,1689.7 1208.6,1729.2 1283.8,1769.1 1359.7,1809.3 1436.2,1849.7 1513.3,1890.2 1590.9,1930.7 1669.1,1971.0 1747.6,2011.2 1826.5,2051.1 1905.7,2090.8 1985.1,2130.1 2064.6,2169.0 2144.2,2207.5 2223.8,2245.5 2303.3,2283.1 2382.5,2320.3 2461.5,2357.0 2540.0,2393.4 2618.0,2429.3 2695.4,2464.9 2772.0,2500.1 2847.8,2535.2 2922.5,2570.0 2996.1,2604.7 3068.5,2639.4 3139.4,2674.1 3208.8,2709.0 3276.4,2744.2 3342.2,2779.8 3406.0,2815.8  Z" style="stroke-width: 0.0;  fill: rgb(180,45,112);" />
<path d="M 3400.803,2824.780 A 1625.580,1625.580 0.00 0,1 3398.2,2829.2 L 3398.2,2829.2 3336.1,2793.5 3271.8,2758.4 3205.4,2724.0 3137.1,2690.0 3066.9,2656.4 2995.1,2623.1 2921.8,2590.0 2847.1,2557.0 2771.2,2524.2 2694.1,2491.4 2616.0,2458.6 2537.1,2425.8 2457.3,2392.9 2376.9,2359.9 2296.0,2326.8 2214.7,2293.6 2133.0,2260.4 2051.0,2227.0 1969.0,2193.6 1886.9,2160.1 1804.8,2126.7 1722.9,2093.3 1641.3,2060.0 1559.9,2026.8 1478.9,1993.9 1398.3,1961.3 1318.3,1929.2 1238.9,1897.4 1160.1,1866.3 1082.1,1835.9 1004.8,1806.3 928.4,1777.7 852.8,1750.1 778.2,1723.7 704.5,1698.8 631.9,1675.3 560.3,1653.6 489.8,1633.7 420.5,1615.9  A 1625.580,1625.580 0.00 0,1 421.7,1610.8 L 421.7,1610.8 491.1,1628.9 561.6,1649.0 633.1,1671.0 705.8,1694.6 779.4,1719.8 854.0,1746.3 929.5,1774.1 1006.0,1802.9 1083.2,1832.7 1161.2,1863.2 1240.0,1894.5 1319.4,1926.3 1399.4,1958.6 1479.9,1991.3 1560.9,2024.2 1642.2,2057.4 1723.9,2090.8 1805.8,2124.2 1887.9,2157.7 1970.0,2191.1 2052.1,2224.5 2134.0,2257.9 2215.7,2291.1 2297.1,2324.2 2378.1,2357.3 2458.5,2390.2 2538.3,2423.0 2617.3,2455.7 2695.5,2488.4 2772.7,2521.1 2848.7,2553.8 2923.5,2586.6 2996.9,2619.5 3068.8,2652.7 3139.1,2686.2 3207.6,2720.0 3274.1,2754.3 3338.6,2789.2 3400.8,2824.8  Z" style="stroke-width: 0.0;  fill: rgb(0,130,142);" />
<path d="M 3398.168,2829.239 A 1625.580,1625.580 0.00 0,1 3395.5,2833.7 L 3395.5,2833.7 3333.8,2797.9 3269.8,2762.9 3203.7,2728.4 3135.6,2694.5 3065.7,2660.9 2994.1,2627.8 2920.9,2594.9 2846.3,2562.1 2770.4,2529.6 2693.3,2497.1 2615.2,2464.7 2536.2,2432.3 2456.4,2399.9 2375.9,2367.4 2294.8,2335.0 2213.2,2302.5 2131.3,2269.9 2049.1,2237.3 1966.8,2204.8 1884.4,2172.2 1802.0,2139.8 1719.7,2107.4 1637.7,2075.2 1555.9,2043.2 1474.5,2011.6 1393.5,1980.2 1313.1,1949.4 1233.3,1919.1 1154.1,1889.4 1075.6,1860.5 998.0,1832.4 921.1,1805.3 845.2,1779.4 770.2,1754.7 696.3,1731.4 623.4,1709.6 551.5,1689.6 480.9,1671.5 411.3,1655.5  A 1625.580,1625.580 0.00 0,1 412.5,1650.4 L 412.5,1650.4 482.0,1666.7 552.7,1685.0 624.5,1705.3 697.4,1727.2 771.4,1750.7 846.3,1775.6 922.2,1801.7 999.0,1828.9 1076.7,1857.2 1155.1,1886.2 1234.3,1916.0 1314.1,1946.5 1394.5,1977.5 1475.5,2008.9 1556.9,2040.6 1638.6,2072.7 1720.7,2104.9 1802.9,2137.3 1885.3,2169.8 1967.8,2202.3 2050.1,2234.9 2132.3,2267.4 2214.3,2299.9 2295.9,2332.4 2377.0,2364.8 2457.6,2397.2 2537.5,2429.5 2616.5,2461.8 2694.7,2494.1 2771.9,2526.5 2847.8,2558.9 2922.6,2591.5 2995.8,2624.2 3067.6,2657.3 3137.6,2690.6 3205.9,2724.4 3272.1,2758.7 3336.3,2793.6 3398.2,2829.2  Z" style="stroke-width: 0.0;  fill: rgb(230,112,95);" />
<path d="M 3395.519,2833.689 A 1625.580,1625.580 0.00 0,1 3392.9,2838.1 L 3392.9,2838.1 3333.7,2803.9 3272.0,2770.6 3207.9,2738.4 3141.7,2707.1 3073.3,2676.6 3002.9,2647.0 2930.7,2618.2 2856.8,2590.2 2781.3,2562.9 2704.4,2536.2 2626.2,2510.3 2546.7,2485.0 2466.2,2460.4 2384.7,2436.4 2302.5,2413.0 2219.5,2390.3 2135.9,2368.3 2051.9,2346.9 1967.5,2326.1 1882.9,2306.1 1798.2,2286.9 1713.5,2268.3 1628.9,2250.6 1544.5,2233.7 1460.5,2217.8 1376.9,2202.7 1293.9,2188.7 1211.6,2175.7 1130.0,2163.8 1049.3,2153.1 969.6,2143.7 890.9,2135.7 813.5,2129.1 737.3,2124.1 662.5,2120.6 589.3,2118.9 517.5,2119.0 447.5,2121.1 379.3,2125.2  A 1625.580,1625.580 0.00 0,1 378.9,2120.1 L 378.9,2120.1 447.2,2116.2 517.3,2114.3 589.1,2114.4 662.4,2116.3 737.3,2119.9 813.5,2125.1 891.0,2131.9 969.7,2140.1 1049.4,2149.7 1130.2,2160.5 1211.8,2172.5 1294.2,2185.6 1377.2,2199.8 1460.9,2214.9 1544.9,2231.0 1629.3,2247.9 1714.0,2265.7 1798.7,2284.2 1883.5,2303.6 1968.2,2323.6 2052.6,2344.3 2136.7,2365.7 2220.3,2387.7 2303.4,2410.4 2385.7,2433.7 2467.3,2457.6 2547.9,2482.2 2627.4,2507.4 2705.7,2533.2 2782.8,2559.7 2858.4,2586.9 2932.4,2614.8 3004.7,2643.5 3075.2,2672.9 3143.7,2703.2 3210.1,2734.4 3274.3,2766.5 3336.2,2799.6 3395.5,2833.7  Z" style="stroke-width: 0.0;  fill: rgb(220,140,52);" />
<path d="M 3392.856,2838.130 A 1625.580,1625.580 0.00 0,1 3387.5,2847.0 L 3387.5,2847.0 3329.4,2813.0 3268.8,2780.1 3205.8,2748.3 3140.5,2717.7 3073.0,2688.0 3003.5,2659.4 2932.1,2631.8 2858.9,2605.1 2784.2,2579.4 2707.9,2554.6 2630.2,2530.7 2551.3,2507.8 2471.2,2485.7 2390.2,2464.5 2308.3,2444.3 2225.7,2424.9 2142.5,2406.5 2058.7,2388.9 1974.6,2372.4 1890.3,2356.7 1805.9,2342.1 1721.4,2328.5 1637.1,2315.9 1553.0,2304.4 1469.3,2294.0 1386.1,2284.7 1303.4,2276.6 1221.5,2269.8 1140.5,2264.3 1060.3,2260.1 981.3,2257.3 903.4,2256.0 826.9,2256.2 751.7,2258.1 678.1,2261.6 606.2,2266.8 535.9,2273.9 467.6,2282.9 401.2,2293.9  A 1625.580,1625.580 0.00 0,1 399.4,2283.7 L 399.4,2283.7 465.9,2273.1 534.5,2264.5 604.9,2257.8 677.0,2252.9 750.8,2249.8 826.1,2248.3 902.8,2248.5 980.7,2250.1 1059.9,2253.2 1140.2,2257.6 1221.4,2263.4 1303.4,2270.5 1386.1,2278.8 1469.5,2288.2 1553.3,2298.8 1637.6,2310.5 1722.0,2323.2 1806.6,2336.9 1891.2,2351.6 1975.7,2367.2 2059.9,2383.8 2143.8,2401.3 2227.2,2419.7 2310.0,2439.0 2392.1,2459.1 2473.3,2480.1 2553.5,2502.1 2632.6,2524.8 2710.5,2548.5 2787.0,2573.1 2862.1,2598.6 2935.5,2625.0 3007.1,2652.3 3076.9,2680.7 3144.6,2710.0 3210.3,2740.4 3273.6,2771.8 3334.5,2804.4 3392.9,2838.1  Z" style="stroke-width: 0.0;  fill: rgb(200,108,30);" />
<path d="M 3387.487,2846.988 A 1625.580,1625.580 0.00 0,1 3376.6,2864.6 L 3376.6,2864.6 3320.6,2830.9 3261.9,2798.6 3200.8,2767.6 3137.4,2737.9 3071.8,2709.5 3004.2,2682.5 2934.6,2656.8 2863.2,2632.4 2790.1,2609.3 2715.5,2587.6 2639.5,2567.2 2562.3,2548.1 2483.9,2530.4 2404.6,2514.0 2324.3,2499.0 2243.3,2485.4 2161.8,2473.1 2079.7,2462.2 1997.4,2452.7 1914.8,2444.6 1832.1,2438.0 1749.5,2432.7 1667.1,2429.0 1585.0,2426.6 1503.4,2425.8 1422.4,2426.5 1342.1,2428.6 1262.6,2432.4 1184.1,2437.6 1106.7,2444.5 1030.6,2452.9 955.8,2463.0 882.5,2474.7 810.9,2488.1 741.0,2503.2 673.1,2520.0 607.1,2538.6 543.3,2559.0 481.8,2581.1  A 1625.580,1625.580 0.00 0,1 474.6,2561.7 L 474.6,2561.7 536.6,2540.3 600.8,2520.6 667.3,2502.7 735.7,2486.6 806.0,2472.2 878.1,2459.4 951.7,2448.3 1026.9,2438.9 1103.5,2431.0 1181.3,2424.7 1260.2,2419.9 1340.0,2416.6 1420.8,2414.8 1502.2,2414.5 1584.2,2415.7 1666.7,2418.3 1749.5,2422.3 1832.5,2427.6 1915.6,2434.4 1998.6,2442.5 2081.4,2452.0 2163.8,2462.8 2245.8,2475.0 2327.2,2488.4 2407.9,2503.2 2487.8,2519.3 2566.6,2536.7 2644.3,2555.4 2720.8,2575.4 2795.9,2596.7 2869.4,2619.3 2941.4,2643.2 3011.5,2668.3 3079.7,2694.8 3145.9,2722.6 3209.9,2751.7 3271.6,2782.1 3330.8,2813.9 3387.5,2847.0  Z" style="stroke-width: 0.0;  fill: rgb(82,145,215);" />
<path d="M 3376.582,2864.600 A 1625.580,1625.580 0.00 0,1 3357.0,2895.1 L 3357.0,2895.1 3303.5,2861.4 3247.4,2829.2 3188.9,2798.5 3128.1,2769.4 3065.2,2741.9 3000.3,2716.0 2933.5,2691.9 2865.0,2669.4 2794.9,2648.6 2723.3,2629.7 2650.4,2612.5 2576.3,2597.1 2501.2,2583.5 2425.2,2571.8 2348.4,2562.0 2271.0,2554.0 2193.1,2547.9 2114.8,2543.6 2036.3,2541.3 1957.8,2540.9 1879.3,2542.4 1800.9,2545.7 1723.0,2551.0 1645.5,2558.1 1568.6,2567.1 1492.4,2578.0 1417.2,2590.8 1342.9,2605.3 1269.8,2621.7 1198.1,2639.9 1127.7,2659.9 1059.0,2681.6 991.9,2705.1 926.7,2730.2 863.5,2757.0 802.4,2785.5 743.6,2815.5 687.2,2847.1 633.3,2880.2  A 1625.580,1625.580 0.00 0,1 614.0,2849.5 L 614.0,2849.5 669.0,2817.4 726.5,2786.8 786.3,2757.8 848.4,2730.4 912.7,2704.5 978.9,2680.4 1046.9,2657.9 1116.7,2637.1 1188.0,2617.9 1260.8,2600.5 1334.8,2584.9 1410.1,2571.0 1486.3,2558.9 1563.4,2548.5 1641.2,2539.9 1719.7,2533.1 1798.6,2528.2 1877.9,2525.0 1957.4,2523.6 2036.9,2524.0 2116.3,2526.3 2195.6,2530.3 2274.4,2536.2 2352.8,2543.8 2430.6,2553.2 2507.6,2564.4 2583.7,2577.4 2658.7,2592.1 2732.6,2608.6 2805.2,2626.8 2876.3,2646.7 2945.8,2668.3 3013.6,2691.5 3079.6,2716.4 3143.5,2742.9 3205.3,2771.0 3264.9,2800.7 3322.0,2831.9 3376.6,2864.6  Z" style="stroke-width: 0.0;  fill: rgb(60,120,198);" />
<path d="M 3356.960,2895.082 A 1625.580,1625.580 0.00 0,1 3306.5,2967.2 L 3306.5,2967.2 3256.9,2932.1 3204.8,2898.6 3150.5,2866.7 3094.0,2836.6 3035.5,2808.3 2975.1,2781.9 2913.1,2757.5 2849.5,2735.1 2784.4,2714.9 2718.1,2696.9 2650.7,2681.2 2582.3,2667.7 2513.0,2656.5 2443.0,2647.7 2372.5,2641.3 2301.5,2637.4 2230.2,2635.8 2158.8,2636.7 2087.4,2640.0 2016.1,2645.7 1945.1,2653.9 1874.4,2664.4 1804.3,2677.4 1734.9,2692.7 1666.3,2710.3 1598.6,2730.1 1532.0,2752.2 1466.6,2776.5 1402.6,2802.8 1340.0,2831.2 1279.0,2861.5 1219.8,2893.7 1162.5,2927.8 1107.1,2963.5 1053.9,3000.8 1003.0,3039.6 954.4,3079.7 908.4,3121.2 865.0,3163.7  A 1625.580,1625.580 0.00 0,1 803.7,3100.6 L 803.7,3100.6 850.0,3059.8 899.0,3020.2 950.5,2982.0 1004.4,2945.1 1060.6,2909.7 1119.0,2875.8 1179.3,2843.6 1241.5,2813.1 1305.5,2784.4 1371.1,2757.5 1438.2,2732.5 1506.6,2709.5 1576.2,2688.5 1646.8,2669.6 1718.4,2652.7 1790.9,2638.0 1863.9,2625.4 1937.5,2615.0 2011.5,2606.8 2085.7,2600.8 2160.0,2597.1 2234.3,2595.6 2308.5,2596.3 2382.3,2599.3 2455.7,2604.5 2528.5,2611.9 2600.6,2621.5 2671.8,2633.3 2741.9,2647.2 2811.0,2663.2 2878.7,2681.3 2945.0,2701.5 3009.8,2723.6 3072.8,2747.7 3133.9,2773.7 3193.1,2801.5 3250.0,2831.0 3304.7,2862.2 3357.0,2895.1  Z" style="stroke-width: 0.0;  fill: rgb(42,98,180);" />
<path d="M 3306.517,2967.225 A 1625.580,1625.580 0.00 0,1 3262.1,3024.5 L 3262.1,3024.5 3216.0,2988.8 3167.9,2954.6 3117.8,2922.1 3065.8,2891.5 3012.3,2862.9 2957.3,2836.4 2900.9,2812.3 2843.4,2790.5 2784.9,2771.2 2725.5,2754.5 2665.3,2740.5 2604.7,2729.2 2543.5,2720.8 2482.1,2715.1 2420.5,2712.4 2359.0,2712.5 2297.5,2715.6 2236.3,2721.7 2175.5,2730.7 2115.1,2742.6 2055.5,2757.4 1996.5,2775.0 1938.5,2795.5 1881.5,2818.7 1825.6,2844.6 1770.9,2873.2 1717.6,2904.2 1665.7,2937.7 1615.4,2973.5 1566.8,3011.5 1520.0,3051.6 1475.0,3093.5 1432.1,3137.3 1391.2,3182.6 1352.5,3229.4 1316.1,3277.5 1282.1,3326.5 1250.5,3376.5 1221.5,3427.0  A 1625.580,1625.580 0.00 0,1 1158.6,3390.9 L 1158.6,3390.9 1190.3,3341.1 1224.5,3292.1 1261.3,3243.9 1300.5,3196.7 1342.0,3150.8 1385.8,3106.4 1431.7,3063.4 1479.6,3022.2 1529.4,2982.9 1581.1,2945.5 1634.4,2910.3 1689.3,2877.2 1745.7,2846.5 1803.5,2818.2 1862.4,2792.3 1922.5,2769.1 1983.6,2748.4 2045.5,2730.5 2108.2,2715.2 2171.5,2702.7 2235.3,2693.0 2299.4,2686.1 2363.7,2682.0 2428.1,2680.8 2492.5,2682.3 2556.7,2686.5 2620.5,2693.5 2683.9,2703.3 2746.6,2715.6 2808.5,2730.6 2869.6,2748.1 2929.6,2768.0 2988.3,2790.2 3045.7,2814.8 3101.6,2841.4 3155.7,2870.2 3208.1,2900.8 3258.4,2933.2 3306.5,2967.2  Z" style="stroke-width: 0.0;  fill: rgb(28,75,160);" />
<path d="M 3262.092,3024.517 A 1625.580,1625.580 0.00 0,1 3248.9,3040.5 L 3248.9,3040.5 3206.5,3006.2 3163.0,2973.2 3118.7,2941.8 3073.8,2912.1 3028.6,2884.5 2983.2,2859.0 2937.9,2835.9 2892.7,2815.4 2848.0,2797.5 2803.8,2782.5 2760.3,2770.4 2717.7,2761.4 2676.1,2755.5 2635.7,2752.8 2596.6,2753.4 2558.8,2757.3 2522.6,2764.5 2487.9,2775.1 2455.0,2789.0 2423.8,2806.1 2394.4,2826.6 2367.0,2850.2 2341.5,2877.0 2318.1,2906.8 2296.7,2939.6 2277.3,2975.2 2260.1,3013.5 2245.0,3054.3 2231.9,3097.5 2221.0,3142.9 2212.2,3190.3 2205.4,3239.4 2200.7,3290.1 2198.0,3342.1 2197.2,3395.1 2198.3,3448.8 2201.2,3503.1 2205.9,3557.5 2212.2,3611.7  A 1625.580,1625.580 0.00 0,1 2191.6,3614.2 L 2191.6,3614.2 2186.0,3559.8 2182.1,3505.3 2180.0,3450.8 2179.7,3396.8 2181.4,3343.6 2185.0,3291.4 2190.6,3240.4 2198.3,3191.0 2208.1,3143.3 2220.0,3097.6 2234.1,3054.1 2250.2,3012.9 2268.5,2974.2 2288.8,2938.2 2311.2,2905.0 2335.7,2874.7 2362.2,2847.4 2390.7,2823.3 2421.0,2802.3 2453.2,2784.6 2487.1,2770.1 2522.8,2759.0 2560.0,2751.2 2598.7,2746.7 2638.7,2745.4 2680.0,2747.5 2722.5,2752.7 2765.9,2761.1 2810.2,2772.5 2855.2,2786.8 2900.7,2804.0 2946.6,2823.9 2992.7,2846.4 3038.8,2871.2 3084.7,2898.3 3130.2,2927.4 3175.1,2958.2 3219.1,2990.7 3262.1,3024.5  Z" style="stroke-width: 0.0;  fill: rgb(15,52,135);" />
</g>
<defs>
<pattern id="checker" width="10" height="10" patternTransform="rotate(45 0 0)" patternUnits="userSpaceOnUse"><line x1="0" y1="0" x2="10" y2="0" style="stroke:black;stroke-width:5" /><line x1="0" y1="0" x2="0" y2="10" style="stroke:black;stroke-width:4" /></pattern>
<pattern id="hline" width="10" height="10" patternTransform="rotate(0 0 0)" patternUnits="userSpaceOnUse"><line x1="0" y1="0" x2="10" y2="0" style="stroke:black;stroke-width:5" /></pattern>
<pattern id="checker" width="10" height="10" patternTransform="rotate(45 0 0)" patternUnits="userSpaceOnUse"><line x1="0" y1="0" x2="10" y2="0" style="stroke:black;stroke-width:2" /><line x1="0" y1="0" x2="0" y2="10" style="stroke:black;stroke-width:2" /></pattern>
<pattern id="vline" width="10" height="10" patternTransform="rotate(0 0 0)" patternUnits="userSpaceOnUse"><line x1="0" y1="0" x2="0" y2="10" style="stroke:black;stroke-width:5" /></pattern>
<pattern id="vline-sparse" width="10" height="10" patternTransform="rotate(0 0 0)" patternUnits="userSpaceOnUse"><line x1="0" y1="0" x2="0" y2="10" style="stroke:black;stroke-width:2" /></pattern>
<pattern id="hline-sparse" width="10" height="10" patternTransform="rotate(0 0 0)" patternUnits="userSpaceOnUse"><line x1="0" y1="0" x2="10" y2="0" style="stroke:black;stroke-width:2" /></pattern>
</defs>
</svg>
