<?xml version="1.0" encoding="utf-8" standalone="no"?>
<!DOCTYPE svg PUBLIC "-//W3C//DTD SVG 1.1//EN" "http://www.w3.org/Graphics/SVG/1.1/DTD/svg11.dtd">
<svg width="4000px" height="4000px" version="1.1" xmlns="http://www.w3.org/2000/svg" xmlns:xlink="http://www.w3.org/1999/xlink">
<g id="bg">
<rect x="0" y="0" width="4000px" height="4000px" style="fill:rgb(255,255,255);"/>
</g>
<g id="ideograms">
<path d="M2000.000,358.000 A1642.000,1642.000 40.000 0,1 2751.610,540.121 L2769.004,506.336 A1680.000,1680.000 0.000 0,0 2000.000,320.000 Z" style="stroke-width:2.0;stroke:rgb(255,255,255);stroke-linecap:round;fill:rgb(185,185,185);" />
<text x="2427.0" y="305.8" font-size="36.4px" font-family="CMUBright-Roman" style="text-anchor:start;fill:rgb(0,0,0);" transform="rotate(283.6,2427.0,305.8)" >Management-Operations</text>
<path d="M2000.000,358.000 A1642.000,1642.000 40.000 0,1 2751.610,540.121 L2769.004,506.336 A1680.000,1680.000 0.000 0,0 2000.000,320.000 Z" style="stroke-width:2.0;stroke:rgb(255,255,255);stroke-linecap:round;fill:none;" />
<path d="M2783.279,556.865 A1642.000,1642.000 40.000 0,1 3226.411,908.176 L3254.793,882.908 A1680.000,1680.000 0.000 0,0 2801.406,523.467 Z" style="stroke-width:2.0;stroke:rgb(255,255,255);stroke-linecap:round;fill:rgb(185,185,185);" />
<text x="3097.5" y="640.5" font-size="36.4px" font-family="CMUBright-Roman" style="text-anchor:start;fill:rgb(0,0,0);" transform="rotate(308.4,3097.5,640.5)" >Engineering</text>
<path d="M2783.279,556.865 A1642.000,1642.000 40.000 0,1 3226.411,908.176 L3254.793,882.908 A1680.000,1680.000 0.000 0,0 2801.406,523.467 Z" style="stroke-width:2.0;stroke:rgb(255,255,255);stroke-linecap:round;fill:none;" />
<path d="M3249.937,935.189 A1642.000,1642.000 40.000 0,1 3507.538,1349.236 L3542.426,1334.176 A1680.000,1680.000 0.000 0,0 3278.864,910.547 Z" style="stroke-width:2.0;stroke:rgb(255,255,255);stroke-linecap:round;fill:rgb(185,185,185);" />
<text x="3491.6" y="1090.2" font-size="36.4px" font-family="CMUBright-Roman" style="text-anchor:start;fill:rgb(0,0,0);" transform="rotate(328.1,3491.6,1090.2)" >Leadership-General</text>
<path d="M3249.937,935.189 A1642.000,1642.000 40.000 0,1 3507.538,1349.236 L3542.426,1334.176 A1680.000,1680.000 0.000 0,0 3278.864,910.547 Z" style="stroke-width:2.0;stroke:rgb(255,255,255);stroke-linecap:round;fill:none;" />
<path d="M3521.375,1382.278 A1642.000,1642.000 40.000 0,1 3633.192,1830.154 L3670.988,1826.223 A1680.000,1680.000 0.000 0,0 3556.584,1367.982 Z" style="stroke-width:2.0;stroke:rgb(255,255,255);stroke-linecap:round;fill:rgb(185,185,185);" />
<text x="3699.0" y="1592.3" font-size="36.4px" font-family="CMUBright-Roman" style="text-anchor:start;fill:rgb(0,0,0);" transform="rotate(346.0,3699.0,1592.3)" >Sales-Marketing</text>
<path d="M3521.375,1382.278 A1642.000,1642.000 40.000 0,1 3633.192,1830.154 L3670.988,1826.223 A1680.000,1680.000 0.000 0,0 3556.584,1367.982 Z" style="stroke-width:2.0;stroke:rgb(255,255,255);stroke-linecap:round;fill:none;" />
<path d="M3636.509,1865.822 A1642.000,1642.000 40.000 0,1 3610.774,2318.704 L3648.051,2326.079 A1680.000,1680.000 0.000 0,0 3674.381,1862.717 Z" style="stroke-width:2.0;stroke:rgb(255,255,255);stroke-linecap:round;fill:rgb(185,185,185);" />
<text x="3743.6" y="2111.6" font-size="36.4px" font-family="CMUBright-Roman" style="text-anchor:start;fill:rgb(0,0,0);" transform="rotate(3.3,3743.6,2111.6)" >Finance-Investment</text>
<path d="M3636.509,1865.822 A1642.000,1642.000 40.000 0,1 3610.774,2318.704 L3648.051,2326.079 A1680.000,1680.000 0.000 0,0 3674.381,1862.717 Z" style="stroke-width:2.0;stroke:rgb(255,255,255);stroke-linecap:round;fill:none;" />
<path d="M3603.438,2353.767 A1642.000,1642.000 40.000 0,1 3499.856,2668.278 L3534.566,2683.744 A1680.000,1680.000 0.000 0,0 3640.546,2361.954 Z" style="stroke-width:2.0;stroke:rgb(255,255,255);stroke-linecap:round;fill:rgb(185,185,185);" />
<text x="3655.6" y="2558.4" font-size="36.4px" font-family="CMUBright-Roman" style="text-anchor:start;fill:rgb(0,0,0);" transform="rotate(18.2,3655.6,2558.4)" >Software-Data</text>
<path d="M3603.438,2353.767 A1642.000,1642.000 40.000 0,1 3499.856,2668.278 L3534.566,2683.744 A1680.000,1680.000 0.000 0,0 3640.546,2361.954 Z" style="stroke-width:2.0;stroke:rgb(255,255,255);stroke-linecap:round;fill:none;" />
<path d="M3484.921,2700.839 A1642.000,1642.000 40.000 0,1 3330.895,2961.708 L3361.695,2983.964 A1680.000,1680.000 0.000 0,0 3519.285,2717.058 Z" style="stroke-width:2.0;stroke:rgb(255,255,255);stroke-linecap:round;fill:rgb(185,185,185);" />
<text x="3498.1" y="2899.1" font-size="36.4px" font-family="CMUBright-Roman" style="text-anchor:start;fill:rgb(0,0,0);" transform="rotate(30.6,3498.1,2899.1)" >Education</text>
<path d="M3484.921,2700.839 A1642.000,1642.000 40.000 0,1 3330.895,2961.708 L3361.695,2983.964 A1680.000,1680.000 0.000 0,0 3519.285,2717.058 Z" style="stroke-width:2.0;stroke:rgb(255,255,255);stroke-linecap:round;fill:none;" />
<path d="M3309.599,2990.512 A1642.000,1642.000 40.000 0,1 3129.055,3192.225 L3155.184,3219.816 A1680.000,1680.000 0.000 0,0 3339.906,3013.435 Z" style="stroke-width:2.0;stroke:rgb(255,255,255);stroke-linecap:round;fill:rgb(185,185,185);" />
<text x="3293.5" y="3174.5" font-size="36.4px" font-family="CMUBright-Roman" style="text-anchor:start;fill:rgb(0,0,0);" transform="rotate(41.8,3293.5,3174.5)" >Research-Science</text>
<path d="M3309.599,2990.512 A1642.000,1642.000 40.000 0,1 3129.055,3192.225 L3155.184,3219.816 A1680.000,1680.000 0.000 0,0 3339.906,3013.435 Z" style="stroke-width:2.0;stroke:rgb(255,255,255);stroke-linecap:round;fill:none;" />
<path d="M3102.778,3216.571 A1642.000,1642.000 40.000 0,1 2891.302,3379.038 L2911.929,3410.952 A1680.000,1680.000 0.000 0,0 3128.299,3244.726 Z" style="stroke-width:2.0;stroke:rgb(255,255,255);stroke-linecap:round;fill:rgb(185,185,185);" />
<text x="3054.5" y="3393.1" font-size="36.4px" font-family="CMUBright-Roman" style="text-anchor:start;fill:rgb(0,0,0);" transform="rotate(52.5,3054.5,3393.1)" >Clinical-Care</text>
<path d="M3102.778,3216.571 A1642.000,1642.000 40.000 0,1 2891.302,3379.038 L2911.929,3410.952 A1680.000,1680.000 0.000 0,0 3128.299,3244.726 Z" style="stroke-width:2.0;stroke:rgb(255,255,255);stroke-linecap:round;fill:none;" />
<path d="M2861.006,3398.153 A1642.000,1642.000 40.000 0,1 2640.127,3512.085 L2654.941,3547.079 A1680.000,1680.000 0.000 0,0 2880.932,3430.510 Z" style="stroke-width:2.0;stroke:rgb(255,255,255);stroke-linecap:round;fill:rgb(185,185,185);" />
<text x="2786.7" y="3560.1" font-size="36.4px" font-family="CMUBright-Roman" style="text-anchor:start;fill:rgb(0,0,0);" transform="rotate(62.7,2786.7,3560.1)" >Accounting-Audit</text>
<path d="M2861.006,3398.153 A1642.000,1642.000 40.000 0,1 2640.127,3512.085 L2654.941,3547.079 A1680.000,1680.000 0.000 0,0 2880.932,3430.510 Z" style="stroke-width:2.0;stroke:rgb(255,255,255);stroke-linecap:round;fill:none;" />
<path d="M2606.988,3525.690 A1642.000,1642.000 40.000 0,1 2452.002,3578.562 L2462.463,3615.094 A1680.000,1680.000 0.000 0,0 2621.036,3560.998 Z" style="stroke-width:2.0;stroke:rgb(255,255,255);stroke-linecap:round;fill:rgb(185,185,185);" />
<text x="2552.3" y="3657.6" font-size="36.4px" font-family="CMUBright-Roman" style="text-anchor:start;fill:rgb(0,0,0);" transform="rotate(71.2,2552.3,3657.6)" >Social-Service</text>
<path d="M2606.988,3525.690 A1642.000,1642.000 40.000 0,1 2452.002,3578.562 L2462.463,3615.094 A1680.000,1680.000 0.000 0,0 2621.036,3560.998 Z" style="stroke-width:2.0;stroke:rgb(255,255,255);stroke-linecap:round;fill:none;" />
<path d="M2417.459,3588.047 A1642.000,1642.000 40.000 0,1 2320.910,3610.336 L2328.336,3647.603 A1680.000,1680.000 0.000 0,0 2427.120,3624.798 Z" style="stroke-width:2.0;stroke:rgb(255,255,255);stroke-linecap:round;fill:rgb(185,185,185);" />
<text x="2380.8" y="3705.2" font-size="36.4px" font-family="CMUBright-Roman" style="text-anchor:start;fill:rgb(0,0,0);" transform="rotate(77.0,2380.8,3705.2)" >IT-Infrastructure</text>
<path d="M2417.459,3588.047 A1642.000,1642.000 40.000 0,1 2320.910,3610.336 L2328.336,3647.603 A1680.000,1680.000 0.000 0,0 2427.120,3624.798 Z" style="stroke-width:2.0;stroke:rgb(255,255,255);stroke-linecap:round;fill:none;" />
<path d="M2285.704,3616.953 A1642.000,1642.000 40.000 0,1 2189.660,3631.010 L2194.050,3668.755 A1680.000,1680.000 0.000 0,0 2292.316,3654.373 Z" style="stroke-width:2.0;stroke:rgb(255,255,255);stroke-linecap:round;fill:rgb(185,185,185);" />
<text x="2237.2" y="3731.0" font-size="36.4px" font-family="CMUBright-Roman" style="text-anchor:start;fill:rgb(0,0,0);" transform="rotate(81.7,2237.2,3731.0)" >Legal-Policy</text>
<path d="M2285.704,3616.953 A1642.000,1642.000 40.000 0,1 2189.660,3631.010 L2194.050,3668.755 A1680.000,1680.000 0.000 0,0 2292.316,3654.373 Z" style="stroke-width:2.0;stroke:rgb(255,255,255);stroke-linecap:round;fill:none;" />
<path d="M2154.035,3634.759 A1642.000,1642.000 40.000 0,1 1474.020,3555.477 L1461.848,3591.475 A1680.000,1680.000 0.000 0,0 2157.600,3672.592 Z" style="stroke-width:2.0;stroke:rgb(255,255,255);stroke-linecap:round;fill:rgb(15,52,135);" />
<text x="1813.6" y="3737.2" font-size="36.4px" font-family="CMUBright-Roman" style="text-anchor:end;fill:rgb(0,0,0);" transform="rotate(-83.3,1813.6,3737.2)" >Finance-Accounting</text>
<path d="M2154.035,3634.759 A1642.000,1642.000 40.000 0,1 1474.020,3555.477 L1461.848,3591.475 A1680.000,1680.000 0.000 0,0 2157.600,3672.592 Z" style="stroke-width:2.0;stroke:rgb(255,255,255);stroke-linecap:round;fill:none;" />
<path d="M1440.213,3543.633 A1642.000,1642.000 40.000 0,1 888.845,3208.925 L863.130,3236.902 A1680.000,1680.000 0.000 0,0 1427.258,3579.356 Z" style="stroke-width:2.0;stroke:rgb(255,255,255);stroke-linecap:round;fill:rgb(42,98,180);" />
<text x="1104.1" y="3500.0" font-size="36.4px" font-family="CMUBright-Roman" style="text-anchor:end;fill:rgb(0,0,0);" transform="rotate(-58.7,1104.1,3500.0)" >General-Business</text>
<path d="M1440.213,3543.633 A1642.000,1642.000 40.000 0,1 888.845,3208.925 L863.130,3236.902 A1680.000,1680.000 0.000 0,0 1427.258,3579.356 Z" style="stroke-width:2.0;stroke:rgb(255,255,255);stroke-linecap:round;fill:none;" />
<path d="M862.737,3184.397 A1642.000,1642.000 40.000 0,1 624.574,2896.866 L592.744,2917.622 A1680.000,1680.000 0.000 0,0 836.418,3211.807 Z" style="stroke-width:2.0;stroke:rgb(255,255,255);stroke-linecap:round;fill:rgb(28,75,160);" />
<text x="664.7" y="3126.8" font-size="36.4px" font-family="CMUBright-Roman" style="text-anchor:end;fill:rgb(0,0,0);" transform="rotate(-39.6,664.7,3126.8)" >Marketing-Communication</text>
<path d="M862.737,3184.397 A1642.000,1642.000 40.000 0,1 624.574,2896.866 L592.744,2917.622 A1680.000,1680.000 0.000 0,0 836.418,3211.807 Z" style="stroke-width:2.0;stroke:rgb(255,255,255);stroke-linecap:round;fill:none;" />
<path d="M605.337,2866.648 A1642.000,1642.000 40.000 0,1 476.558,2612.607 L441.301,2626.784 A1680.000,1680.000 0.000 0,0 573.061,2886.704 Z" style="stroke-width:2.0;stroke:rgb(255,255,255);stroke-linecap:round;fill:rgb(60,120,198);" />
<text x="448.7" y="2803.8" font-size="36.4px" font-family="CMUBright-Roman" style="text-anchor:end;fill:rgb(0,0,0);" transform="rotate(-26.9,448.7,2803.8)" >Operations-Analytics</text>
<path d="M605.337,2866.648 A1642.000,1642.000 40.000 0,1 476.558,2612.607 L441.301,2626.784 A1680.000,1680.000 0.000 0,0 573.061,2886.704 Z" style="stroke-width:2.0;stroke:rgb(255,255,255);stroke-linecap:round;fill:none;" />
<path d="M463.556,2579.227 A1642.000,1642.000 40.000 0,1 407.419,2399.813 L370.563,2409.066 A1680.000,1680.000 0.000 0,0 427.999,2592.632 Z" style="stroke-width:2.0;stroke:rgb(255,255,255);stroke-linecap:round;fill:rgb(82,145,215);" />
<text x="337.2" y="2536.5" font-size="36.4px" font-family="CMUBright-Roman" style="text-anchor:end;fill:rgb(0,0,0);" transform="rotate(-17.4,337.2,2536.5)" >Specialized-Business</text>
<path d="M463.556,2579.227 A1642.000,1642.000 40.000 0,1 407.419,2399.813 L370.563,2409.066 A1680.000,1680.000 0.000 0,0 427.999,2592.632 Z" style="stroke-width:2.0;stroke:rgb(255,255,255);stroke-linecap:round;fill:none;" />
<path d="M399.076,2364.976 A1642.000,1642.000 40.000 0,1 366.776,2169.540 L328.979,2173.464 A1680.000,1680.000 0.000 0,0 362.027,2373.422 Z" style="stroke-width:2.0;stroke:rgb(255,255,255);stroke-linecap:round;fill:rgb(200,108,30);" />
<text x="278.3" y="2297.2" font-size="36.4px" font-family="CMUBright-Roman" style="text-anchor:end;fill:rgb(0,0,0);" transform="rotate(-9.4,278.3,2297.2)" >Social-Sciences</text>
<path d="M399.076,2364.976 A1642.000,1642.000 40.000 0,1 366.776,2169.540 L328.979,2173.464 A1680.000,1680.000 0.000 0,0 362.027,2373.422 Z" style="stroke-width:2.0;stroke:rgb(255,255,255);stroke-linecap:round;fill:none;" />
<path d="M363.466,2133.872 A1642.000,1642.000 40.000 0,1 358.290,2030.870 L320.297,2031.584 A1680.000,1680.000 0.000 0,0 325.593,2136.970 Z" style="stroke-width:2.0;stroke:rgb(255,255,255);stroke-linecap:round;fill:rgb(108,170,228);" />
<text x="255.6" y="2099.7" font-size="36.4px" font-family="CMUBright-Roman" style="text-anchor:end;fill:rgb(0,0,0);" transform="rotate(-2.9,255.6,2099.7)" >Economics</text>
<path d="M363.466,2133.872 A1642.000,1642.000 40.000 0,1 358.290,2030.870 L320.297,2031.584 A1680.000,1680.000 0.000 0,0 325.593,2136.970 Z" style="stroke-width:2.0;stroke:rgb(255,255,255);stroke-linecap:round;fill:none;" />
<path d="M358.007,1995.049 A1642.000,1642.000 40.000 0,1 358.807,1948.539 L320.825,1947.348 A1680.000,1680.000 0.000 0,0 320.008,1994.934 Z" style="stroke-width:2.0;stroke:rgb(255,255,255);stroke-linecap:round;fill:rgb(220,140,52);" />
<text x="252.9" y="1982.5" font-size="36.4px" font-family="CMUBright-Roman" style="text-anchor:end;fill:rgb(0,0,0);" transform="rotate(1.0,252.9,1982.5)" >Humanities-Liberal-Arts</text>
<path d="M358.007,1995.049 A1642.000,1642.000 40.000 0,1 358.807,1948.539 L320.825,1947.348 A1680.000,1680.000 0.000 0,0 320.008,1994.934 Z" style="stroke-width:2.0;stroke:rgb(255,255,255);stroke-linecap:round;fill:none;" />
<path d="M360.320,1912.749 A1642.000,1642.000 40.000 0,1 361.133,1898.615 L323.205,1896.269 A1680.000,1680.000 0.000 0,0 322.373,1910.730 Z" style="stroke-width:2.0;stroke:rgb(255,255,255);stroke-linecap:round;fill:rgb(235,168,78);" />
<text x="255.0" y="1912.1" font-size="36.4px" font-family="CMUBright-Roman" style="text-anchor:end;fill:rgb(0,0,0);" transform="rotate(3.3,255.0,1912.1)" >International-Studies</text>
<path d="M360.320,1912.749 A1642.000,1642.000 40.000 0,1 361.133,1898.615 L323.205,1896.269 A1680.000,1680.000 0.000 0,0 322.373,1910.730 Z" style="stroke-width:2.0;stroke:rgb(255,255,255);stroke-linecap:round;fill:none;" />
<path d="M363.735,1862.887 A1642.000,1642.000 40.000 0,1 391.336,1670.812 L354.108,1663.193 A1680.000,1680.000 0.000 0,0 325.867,1859.714 Z" style="stroke-width:2.0;stroke:rgb(255,255,255);stroke-linecap:round;fill:rgb(195,58,55);" />
<text x="268.8" y="1763.9" font-size="36.4px" font-family="CMUBright-Roman" style="text-anchor:end;fill:rgb(0,0,0);" transform="rotate(8.2,268.8,1763.9)" >Social-Work</text>
<path d="M363.735,1862.887 A1642.000,1642.000 40.000 0,1 391.336,1670.812 L354.108,1663.193 A1680.000,1680.000 0.000 0,0 325.867,1859.714 Z" style="stroke-width:2.0;stroke:rgb(255,255,255);stroke-linecap:round;fill:none;" />
<path d="M398.900,1635.797 A1642.000,1642.000 40.000 0,1 428.981,1522.439 L392.624,1511.387 A1680.000,1680.000 0.000 0,0 361.847,1627.368 Z" style="stroke-width:2.0;stroke:rgb(255,255,255);stroke-linecap:round;fill:rgb(175,35,42);" />
<text x="308.1" y="1564.0" font-size="36.4px" font-family="CMUBright-Roman" style="text-anchor:end;fill:rgb(0,0,0);" transform="rotate(14.9,308.1,1564.0)" >Teacher-Education</text>
<path d="M398.900,1635.797 A1642.000,1642.000 40.000 0,1 428.981,1522.439 L392.624,1511.387 A1680.000,1680.000 0.000 0,0 361.847,1627.368 Z" style="stroke-width:2.0;stroke:rgb(255,255,255);stroke-linecap:round;fill:none;" />
<path d="M439.773,1488.281 A1642.000,1642.000 40.000 0,1 474.975,1391.343 L439.682,1377.257 A1680.000,1680.000 0.000 0,0 403.666,1476.439 Z" style="stroke-width:2.0;stroke:rgb(255,255,255);stroke-linecap:round;fill:rgb(215,82,72);" />
<text x="352.5" y="1418.2" font-size="36.4px" font-family="CMUBright-Roman" style="text-anchor:end;fill:rgb(0,0,0);" transform="rotate(20.0,352.5,1418.2)" >Special-Education</text>
<path d="M439.773,1488.281 A1642.000,1642.000 40.000 0,1 474.975,1391.343 L439.682,1377.257 A1680.000,1680.000 0.000 0,0 403.666,1476.439 Z" style="stroke-width:2.0;stroke:rgb(255,255,255);stroke-linecap:round;fill:none;" />
<path d="M488.616,1358.220 A1642.000,1642.000 40.000 0,1 509.092,1311.991 L474.588,1296.068 A1680.000,1680.000 0.000 0,0 453.639,1343.368 Z" style="stroke-width:2.0;stroke:rgb(255,255,255);stroke-linecap:round;fill:rgb(230,112,95);" />
<text x="396.3" y="1306.6" font-size="36.4px" font-family="CMUBright-Roman" style="text-anchor:end;fill:rgb(0,0,0);" transform="rotate(23.9,396.3,1306.6)" >Educational-Leadership</text>
<path d="M488.616,1358.220 A1642.000,1642.000 40.000 0,1 509.092,1311.991 L474.588,1296.068 A1680.000,1680.000 0.000 0,0 453.639,1343.368 Z" style="stroke-width:2.0;stroke:rgb(255,255,255);stroke-linecap:round;fill:none;" />
<path d="M524.455,1279.630 A1642.000,1642.000 40.000 0,1 553.988,1222.045 L520.524,1204.041 A1680.000,1680.000 0.000 0,0 490.308,1262.959 Z" style="stroke-width:2.0;stroke:rgb(255,255,255);stroke-linecap:round;fill:rgb(0,130,142);" />
<text x="439.7" y="1213.8" font-size="36.4px" font-family="CMUBright-Roman" style="text-anchor:end;fill:rgb(0,0,0);" transform="rotate(27.2,439.7,1213.8)" >Communication-Studies</text>
<path d="M524.455,1279.630 A1642.000,1642.000 40.000 0,1 553.988,1222.045 L520.524,1204.041 A1680.000,1680.000 0.000 0,0 490.308,1262.959 Z" style="stroke-width:2.0;stroke:rgb(255,255,255);stroke-linecap:round;fill:none;" />
<path d="M571.303,1190.686 A1642.000,1642.000 40.000 0,1 588.562,1160.949 L555.898,1141.531 A1680.000,1680.000 0.000 0,0 538.240,1171.956 Z" style="stroke-width:2.0;stroke:rgb(255,255,255);stroke-linecap:round;fill:rgb(0,165,172);" />
<text x="482.6" y="1133.8" font-size="36.4px" font-family="CMUBright-Roman" style="text-anchor:end;fill:rgb(0,0,0);" transform="rotate(30.1,482.6,1133.8)" >Journalism-Media</text>
<path d="M571.303,1190.686 A1642.000,1642.000 40.000 0,1 588.562,1160.949 L555.898,1141.531 A1680.000,1680.000 0.000 0,0 538.240,1171.956 Z" style="stroke-width:2.0;stroke:rgb(255,255,255);stroke-linecap:round;fill:none;" />
<path d="M607.202,1130.358 A1642.000,1642.000 40.000 0,1 613.667,1120.089 L581.583,1099.725 A1680.000,1680.000 0.000 0,0 574.969,1110.233 Z" style="stroke-width:2.0;stroke:rgb(255,255,255);stroke-linecap:round;fill:rgb(38,195,195);" />
<text x="512.9" y="1082.8" font-size="36.4px" font-family="CMUBright-Roman" style="text-anchor:end;fill:rgb(0,0,0);" transform="rotate(32.2,512.9,1082.8)" >Creative-Writing</text>
<path d="M607.202,1130.358 A1642.000,1642.000 40.000 0,1 613.667,1120.089 L581.583,1099.725 A1680.000,1680.000 0.000 0,0 574.969,1110.233 Z" style="stroke-width:2.0;stroke:rgb(255,255,255);stroke-linecap:round;fill:none;" />
<path d="M633.192,1090.055 A1642.000,1642.000 40.000 0,1 667.742,1040.182 L636.910,1017.969 A1680.000,1680.000 0.000 0,0 601.560,1068.997 Z" style="stroke-width:2.0;stroke:rgb(255,255,255);stroke-linecap:round;fill:rgb(180,45,112);" />
<text x="554.7" y="1018.2" font-size="36.4px" font-family="CMUBright-Roman" style="text-anchor:end;fill:rgb(0,0,0);" transform="rotate(34.7,554.7,1018.2)" >Arts-Theology</text>
<path d="M633.192,1090.055 A1642.000,1642.000 40.000 0,1 667.742,1040.182 L636.910,1017.969 A1680.000,1680.000 0.000 0,0 601.560,1068.997 Z" style="stroke-width:2.0;stroke:rgb(255,255,255);stroke-linecap:round;fill:none;" />
<path d="M688.997,1011.347 A1642.000,1642.000 40.000 0,1 698.803,998.477 L668.690,975.299 A1680.000,1680.000 0.000 0,0 658.657,988.467 Z" style="stroke-width:2.0;stroke:rgb(255,255,255);stroke-linecap:round;fill:rgb(205,75,142);" />
<text x="600.6" y="953.9" font-size="36.4px" font-family="CMUBright-Roman" style="text-anchor:end;fill:rgb(0,0,0);" transform="rotate(37.3,600.6,953.9)" >English-Writing</text>
<path d="M688.997,1011.347 A1642.000,1642.000 40.000 0,1 698.803,998.477 L668.690,975.299 A1680.000,1680.000 0.000 0,0 658.657,988.467 Z" style="stroke-width:2.0;stroke:rgb(255,255,255);stroke-linecap:round;fill:none;" />
<path d="M720.960,970.329 A1642.000,1642.000 40.000 0,1 724.774,965.610 L695.262,941.672 A1680.000,1680.000 0.000 0,0 691.360,946.500 Z" style="stroke-width:2.0;stroke:rgb(255,255,255);stroke-linecap:round;fill:rgb(225,110,168);" />
<text x="631.0" y="914.3" font-size="36.4px" font-family="CMUBright-Roman" style="text-anchor:end;fill:rgb(0,0,0);" transform="rotate(38.9,631.0,914.3)" >Languages</text>
<path d="M720.960,970.329 A1642.000,1642.000 40.000 0,1 724.774,965.610 L695.262,941.672 A1680.000,1680.000 0.000 0,0 691.360,946.500 Z" style="stroke-width:2.0;stroke:rgb(255,255,255);stroke-linecap:round;fill:none;" />
<path d="M747.643,938.037 A1642.000,1642.000 40.000 0,1 884.635,794.959 L858.822,767.071 A1680.000,1680.000 0.000 0,0 718.660,913.461 Z" style="stroke-width:2.0;stroke:rgb(255,255,255);stroke-linecap:round;fill:rgb(88,40,138);" />
<text x="727.0" y="803.3" font-size="36.4px" font-family="CMUBright-Roman" style="text-anchor:end;fill:rgb(0,0,0);" transform="rotate(43.8,727.0,803.3)" >Biological-Sciences</text>
<path d="M747.643,938.037 A1642.000,1642.000 40.000 0,1 884.635,794.959 L858.822,767.071 A1680.000,1680.000 0.000 0,0 718.660,913.461 Z" style="stroke-width:2.0;stroke:rgb(255,255,255);stroke-linecap:round;fill:none;" />
<path d="M911.188,770.914 A1642.000,1642.000 40.000 0,1 969.888,721.316 L946.049,691.724 A1680.000,1680.000 0.000 0,0 885.990,742.470 Z" style="stroke-width:2.0;stroke:rgb(255,255,255);stroke-linecap:round;fill:rgb(115,65,165);" />
<text x="862.8" y="673.5" font-size="36.4px" font-family="CMUBright-Roman" style="text-anchor:end;fill:rgb(0,0,0);" transform="rotate(49.8,862.8,673.5)" >Health-Wellness</text>
<path d="M911.188,770.914 A1642.000,1642.000 40.000 0,1 969.888,721.316 L946.049,691.724 A1680.000,1680.000 0.000 0,0 885.990,742.470 Z" style="stroke-width:2.0;stroke:rgb(255,255,255);stroke-linecap:round;fill:none;" />
<path d="M998.028,699.148 A1642.000,1642.000 40.000 0,1 1023.858,679.655 L1001.267,649.099 A1680.000,1680.000 0.000 0,0 974.840,669.043 Z" style="stroke-width:2.0;stroke:rgb(255,255,255);stroke-linecap:round;fill:rgb(140,92,188);" />
<text x="935.2" y="614.8" font-size="36.4px" font-family="CMUBright-Roman" style="text-anchor:end;fill:rgb(0,0,0);" transform="rotate(53.0,935.2,614.8)" >Physical-Sciences</text>
<path d="M998.028,699.148 A1642.000,1642.000 40.000 0,1 1023.858,679.655 L1001.267,649.099 A1680.000,1680.000 0.000 0,0 974.840,669.043 Z" style="stroke-width:2.0;stroke:rgb(255,255,255);stroke-linecap:round;fill:none;" />
<path d="M1052.893,658.675 A1642.000,1642.000 40.000 0,1 1064.493,650.559 L1042.843,619.329 A1680.000,1680.000 0.000 0,0 1030.975,627.633 Z" style="stroke-width:2.0;stroke:rgb(255,255,255);stroke-linecap:round;fill:rgb(165,120,208);" />
<text x="988.2" y="575.6" font-size="36.4px" font-family="CMUBright-Roman" style="text-anchor:end;fill:rgb(0,0,0);" transform="rotate(55.0,988.2,575.6)" >Environmental-Sciences</text>
<path d="M1052.893,658.675 A1642.000,1642.000 40.000 0,1 1064.493,650.559 L1042.843,619.329 A1680.000,1680.000 0.000 0,0 1030.975,627.633 Z" style="stroke-width:2.0;stroke:rgb(255,255,255);stroke-linecap:round;fill:none;" />
<path d="M1094.154,630.472 A1642.000,1642.000 40.000 0,1 1594.822,408.776 L1585.445,371.951 A1680.000,1680.000 0.000 0,0 1073.190,598.778 Z" style="stroke-width:2.0;stroke:rgb(255,255,255);stroke-linecap:round;fill:rgb(22,118,50);" />
<text x="1278.0" y="409.0" font-size="36.4px" font-family="CMUBright-Roman" style="text-anchor:end;fill:rgb(0,0,0);" transform="rotate(66.1,1278.0,409.0)" >Engineering-Disciplines</text>
<path d="M1094.154,630.472 A1642.000,1642.000 40.000 0,1 1594.822,408.776 L1585.445,371.951 A1680.000,1680.000 0.000 0,0 1073.190,598.778 Z" style="stroke-width:2.0;stroke:rgb(255,255,255);stroke-linecap:round;fill:none;" />
<path d="M1629.631,400.315 A1642.000,1642.000 40.000 0,1 1964.180,358.391 L1963.351,320.400 A1680.000,1680.000 0.000 0,0 1621.060,363.295 Z" style="stroke-width:2.0;stroke:rgb(255,255,255);stroke-linecap:round;fill:rgb(48,158,75);" />
<text x="1767.4" y="268.4" font-size="36.4px" font-family="CMUBright-Roman" style="text-anchor:end;fill:rgb(0,0,0);" transform="rotate(82.9,1767.4,268.4)" >Computer-Science-IT</text>
<path d="M1629.631,400.315 A1642.000,1642.000 40.000 0,1 1964.180,358.391 L1963.351,320.400 A1680.000,1680.000 0.000 0,0 1621.060,363.295 Z" style="stroke-width:2.0;stroke:rgb(255,255,255);stroke-linecap:round;fill:none;" />
</g>
<g id="track_0">
<path d="M 380.097,1864.258 A 1625.580,1625.580 0.00 0,1 380.3,1862.3 L 380.3,1862.3 441.8,1868.8 504.2,1878.2 567.4,1890.3 631.2,1905.1 695.5,1922.6 760.1,1942.7 824.9,1965.4 889.8,1990.7 954.5,2018.4 1019.0,2048.5 1083.1,2081.0 1146.7,2115.8 1209.7,2152.8 1272.0,2192.0 1333.3,2233.2 1393.7,2276.5 1452.9,2321.7 1511.0,2368.8 1567.7,2417.6 1622.9,2468.1 1676.7,2520.2 1728.8,2573.8 1779.1,2628.7 1827.7,2685.0 1874.3,2742.4 1918.9,2800.8 1961.4,2860.2 2001.8,2920.4 2039.9,2981.4 2075.7,3042.9 2109.2,3104.9 2140.1,3167.2 2168.5,3229.7 2194.4,3292.2 2217.6,3354.7 2238.1,3416.9 2255.8,3478.8 2270.8,3540.1 2282.8,3600.8  A 1625.580,1625.580 0.00 0,1 2280.9,3601.1 L 2280.9,3601.1 2268.9,3540.5 2254.0,3479.2 2236.3,3417.3 2215.9,3355.1 2192.8,3292.6 2167.0,3230.1 2138.7,3167.6 2107.8,3105.3 2074.5,3043.3 2038.7,2981.8 2000.7,2920.9 1960.4,2860.7 1917.9,2801.3 1873.4,2742.8 1826.8,2685.5 1778.3,2629.3 1728.0,2574.4 1676.0,2520.8 1622.3,2468.8 1567.1,2418.3 1510.4,2369.6 1452.4,2322.5 1393.2,2277.4 1332.9,2234.1 1271.6,2192.9 1209.4,2153.8 1146.4,2116.8 1082.8,2082.1 1018.7,2049.7 954.2,2019.7 889.5,1992.0 824.7,1966.9 759.9,1944.3 695.3,1924.2 631.0,1906.8 567.2,1892.1 504.0,1880.0 441.6,1870.8 380.1,1864.3  Z" style="stroke-width: 0.0;  fill: rgb(195,58,55);" />
<path d="M 380.266,1862.263 A 1625.580,1625.580 0.00 0,1 380.6,1858.3 L 380.6,1858.3 442.8,1865.1 506.1,1874.6 570.2,1886.9 635.0,1901.9 700.4,1919.5 766.3,1939.7 832.4,1962.5 898.8,1987.7 965.2,2015.3 1031.5,2045.3 1097.6,2077.5 1163.4,2112.0 1228.7,2148.7 1293.4,2187.4 1357.4,2228.1 1420.7,2270.8 1482.9,2315.4 1544.2,2361.7 1604.3,2409.7 1663.1,2459.3 1720.6,2510.4 1776.5,2562.9 1831.0,2616.8 1883.7,2671.9 1934.7,2728.1 1983.8,2785.3 2030.9,2843.5 2076.0,2902.5 2119.0,2962.2 2159.8,3022.5 2198.2,3083.3 2234.3,3144.4 2267.8,3205.8 2298.9,3267.3 2327.3,3328.8 2353.0,3390.2 2376.0,3451.3 2396.1,3512.0 2413.3,3572.2  A 1625.580,1625.580 0.00 0,1 2409.4,3573.2 L 2409.4,3573.2 2392.4,3513.0 2372.4,3452.3 2349.6,3391.2 2324.1,3329.8 2295.8,3268.3 2264.9,3206.8 2231.5,3145.4 2195.6,3084.3 2157.3,3023.5 2116.7,2963.2 2073.9,2903.6 2028.9,2844.6 1981.9,2786.4 1932.9,2729.2 1882.0,2673.0 1829.4,2618.0 1775.1,2564.2 1719.2,2511.7 1661.8,2460.6 1603.1,2411.1 1543.1,2363.2 1481.9,2317.0 1419.7,2272.6 1356.6,2230.0 1292.6,2189.3 1227.9,2150.7 1162.7,2114.2 1096.9,2079.8 1030.9,2047.7 964.6,2017.9 898.2,1990.4 831.9,1965.4 765.8,1942.8 699.9,1922.7 634.5,1905.3 569.7,1890.5 505.7,1878.3 442.5,1868.9 380.3,1862.3  Z" style="stroke-width: 0.0;  fill: rgb(195,58,55);" />
<path d="M 380.610,1858.274 A 1625.580,1625.580 0.00 0,1 388.5,1786.6 L 388.5,1786.6 451.8,1796.3 516.2,1808.8 581.6,1824.0 647.7,1841.8 714.5,1862.2 781.9,1885.0 849.8,1910.2 918.0,1937.8 986.4,1967.6 1054.9,1999.6 1123.5,2033.7 1191.9,2069.9 1260.1,2107.9 1327.9,2147.9 1395.4,2189.7 1462.2,2233.1 1528.4,2278.2 1593.8,2324.9 1658.3,2373.0 1721.9,2422.5 1784.3,2473.3 1845.5,2525.3 1905.4,2578.5 1963.9,2632.7 2020.9,2687.8 2076.2,2743.9 2129.9,2800.7 2181.6,2858.2 2231.5,2916.3 2279.2,2974.9 2324.9,3034.0 2368.3,3093.4 2409.3,3153.0 2448.0,3212.8 2484.0,3272.6 2517.5,3332.3 2548.1,3392.0 2576.0,3451.4 2600.9,3510.4  A 1625.580,1625.580 0.00 0,1 2533.4,3535.6 L 2533.4,3535.6 2511.4,3476.3 2486.4,3416.5 2458.6,3356.6 2428.0,3296.4 2394.8,3236.3 2358.9,3176.2 2320.6,3116.3 2279.8,3056.7 2236.8,2997.5 2191.5,2938.8 2144.1,2880.7 2094.6,2823.2 2043.2,2766.6 1990.0,2710.9 1935.0,2656.2 1878.5,2602.6 1820.3,2550.2 1760.8,2499.0 1699.9,2449.2 1637.8,2400.8 1574.6,2354.0 1510.5,2308.7 1445.4,2265.2 1379.6,2223.4 1313.1,2183.5 1246.1,2145.5 1178.6,2109.5 1110.9,2075.6 1042.9,2043.9 974.9,2014.3 907.0,1987.0 839.2,1962.1 771.7,1939.6 704.7,1919.5 638.2,1902.0 572.5,1887.0 507.5,1874.7 443.5,1865.1 380.6,1858.3  Z" style="stroke-width: 0.0;  fill: rgb(195,58,55);" />
<path d="M 388.484,1786.628 A 1625.580,1625.580 0.00 0,1 388.7,1784.6 L 388.7,1784.6 453.7,1794.6 519.9,1807.2 587.2,1822.4 655.4,1840.1 724.5,1860.1 794.4,1882.4 865.0,1906.9 936.1,1933.5 1007.8,1962.2 1079.8,1992.7 1152.1,2025.2 1224.6,2059.4 1297.2,2095.3 1369.7,2132.8 1442.1,2171.8 1514.3,2212.3 1586.1,2254.1 1657.5,2297.3 1728.3,2341.7 1798.5,2387.2 1867.8,2433.8 1936.3,2481.5 2003.7,2530.0 2070.1,2579.5 2135.2,2629.8 2199.0,2680.8 2261.3,2732.4 2322.0,2784.7 2381.1,2837.6 2438.3,2891.0 2493.7,2944.7 2546.9,2998.9 2598.0,3053.4 2646.9,3108.2 2693.3,3163.2 2737.2,3218.3 2778.4,3273.5 2816.8,3328.9 2852.4,3384.2  A 1625.580,1625.580 0.00 0,1 2850.7,3385.2 L 2850.7,3385.2 2815.2,3329.9 2776.8,3274.5 2735.7,3219.3 2691.9,3164.1 2645.5,3109.1 2596.8,3054.3 2545.8,2999.8 2492.5,2945.6 2437.3,2891.8 2380.1,2838.4 2321.1,2785.6 2260.4,2733.2 2198.2,2681.5 2134.4,2630.5 2069.4,2580.3 2003.1,2530.8 1935.6,2482.3 1867.2,2434.6 1797.9,2388.0 1727.8,2342.5 1657.0,2298.2 1585.7,2255.0 1513.9,2213.2 1441.7,2172.8 1369.3,2133.8 1296.8,2096.3 1224.2,2060.5 1151.8,2026.3 1079.5,1994.0 1007.4,1963.5 935.8,1934.9 864.6,1908.3 794.1,1883.9 724.2,1861.7 655.1,1841.7 586.9,1824.1 519.6,1809.0 453.5,1796.5 388.5,1786.6  Z" style="stroke-width: 0.0;  fill: rgb(195,58,55);" />
<path d="M 388.748,1784.643 A 1625.580,1625.580 0.00 0,1 399.9,1713.4 L 399.9,1713.4 466.6,1726.6 534.5,1742.2 603.5,1760.1 673.6,1780.3 744.6,1802.6 816.6,1826.9 889.4,1853.1 962.9,1881.0 1037.1,1910.6 1111.9,1941.8 1187.2,1974.4 1262.9,2008.3 1339.0,2043.6 1415.2,2080.0 1491.7,2117.5 1568.2,2156.1 1644.6,2195.6 1721.0,2235.9 1797.0,2277.1 1872.8,2319.1 1948.0,2361.7 2022.7,2405.0 2096.8,2448.8 2170.0,2493.2 2242.4,2538.1 2313.7,2583.5 2384.0,2629.3 2452.9,2675.4 2520.5,2722.0 2586.6,2768.8 2651.0,2816.0 2713.7,2863.6 2774.5,2911.4 2833.2,2959.5 2889.8,3007.9 2944.1,3056.5 2996.0,3105.5 3045.2,3154.8 3091.7,3204.4  A 1625.580,1625.580 0.00 0,1 3037.3,3251.6 L 3037.3,3251.6 2993.5,3200.7 2947.0,3150.1 2897.7,3099.7 2846.0,3049.7 2791.8,3000.0 2735.4,2950.6 2676.9,2901.5 2616.3,2852.8 2553.9,2804.5 2489.8,2756.6 2424.1,2709.2 2356.8,2662.3 2288.2,2615.9 2218.4,2570.0 2147.4,2524.8 2075.4,2480.2 2002.5,2436.3 1928.9,2393.2 1854.6,2350.8 1779.7,2309.4 1704.4,2268.8 1628.8,2229.3 1552.9,2190.8 1477.0,2153.4 1401.0,2117.3 1325.0,2082.4 1249.3,2048.9 1173.8,2016.8 1098.8,1986.2 1024.2,1957.2 950.1,1929.9 876.7,1904.4 804.1,1880.8 732.3,1859.2 661.4,1839.7 591.5,1822.4 522.7,1807.3 455.1,1794.7 388.7,1784.6  Z" style="stroke-width: 0.0;  fill: rgb(195,58,55);" />
<path d="M 399.879,1713.431 A 1625.580,1625.580 0.00 0,1 400.6,1709.5 L 400.6,1709.5 469.2,1723.0 539.0,1738.8 610.0,1756.6 682.1,1776.4 755.3,1798.0 829.5,1821.2 904.6,1846.0 980.7,1872.1 1057.5,1899.6 1135.2,1928.2 1213.4,1957.8 1292.3,1988.4 1371.7,2019.9 1451.6,2052.1 1531.8,2085.1 1612.2,2118.6 1692.9,2152.7 1773.6,2187.3 1854.3,2222.3 1935.0,2257.7 2015.4,2293.4 2095.5,2329.4 2175.2,2365.7 2254.3,2402.2 2332.9,2439.0 2410.6,2475.9 2487.6,2513.1 2563.5,2550.4 2638.3,2588.0 2711.9,2625.7 2784.1,2663.7 2854.8,2702.0 2923.9,2740.5 2991.3,2779.4 3056.7,2818.7 3120.1,2858.4 3181.3,2898.6 3240.1,2939.3 3296.5,2980.6  A 1625.580,1625.580 0.00 0,1 3294.1,2983.8 L 3294.1,2983.8 3237.8,2942.4 3179.1,2901.5 3118.1,2861.3 3054.8,2821.5 2989.5,2782.1 2922.2,2743.1 2853.3,2704.5 2782.6,2666.1 2710.5,2628.0 2637.0,2590.2 2562.3,2552.5 2486.4,2515.1 2409.5,2477.9 2331.8,2440.9 2253.3,2404.2 2174.2,2367.6 2094.6,2331.3 2014.5,2295.3 1934.1,2259.6 1853.5,2224.2 1772.8,2189.2 1692.1,2154.7 1611.5,2120.6 1531.0,2087.1 1450.8,2054.2 1371.0,2022.1 1291.6,1990.7 1212.7,1960.2 1134.4,1930.6 1056.8,1902.1 979.9,1874.8 903.9,1848.8 828.7,1824.2 754.5,1801.1 681.3,1779.7 609.2,1760.1 538.2,1742.4 468.4,1726.8 399.9,1713.4  Z" style="stroke-width: 0.0;  fill: rgb(195,58,55);" />
<path d="M 400.589,1709.490 A 1625.580,1625.580 0.00 0,1 404.7,1687.8 L 404.7,1687.8 475.3,1702.6 547.1,1719.2 620.1,1737.6 694.2,1757.5 769.4,1778.8 845.6,1801.4 922.8,1825.0 1000.9,1849.5 1080.0,1874.8 1159.8,1900.8 1240.5,1927.4 1321.8,1954.4 1403.7,1981.7 1486.3,2009.3 1569.3,2037.0 1652.7,2064.8 1736.4,2092.7 1820.5,2120.6 1904.6,2148.3 1988.9,2176.0 2073.2,2203.5 2157.4,2230.9 2241.4,2258.0 2325.1,2285.0 2408.4,2311.9 2491.2,2338.6 2573.4,2365.1 2654.9,2391.6 2735.5,2417.9 2815.3,2444.3 2894.0,2470.7 2971.4,2497.3 3047.6,2524.0 3122.4,2551.0 3195.6,2578.4 3267.1,2606.3 3336.8,2634.7 3404.5,2663.9 3470.1,2693.8  A 1625.580,1625.580 0.00 0,1 3460.5,2713.7 L 3460.5,2713.7 3395.6,2683.0 3328.5,2653.1 3259.4,2623.9 3188.4,2595.3 3115.7,2567.3 3041.4,2539.6 2965.6,2512.2 2888.5,2485.0 2810.2,2458.0 2730.7,2431.1 2650.3,2404.3 2569.1,2377.4 2487.0,2350.4 2404.4,2323.4 2321.2,2296.3 2237.7,2269.0 2153.8,2241.7 2069.6,2214.2 1985.4,2186.6 1901.2,2159.0 1817.0,2131.3 1732.9,2103.6 1649.1,2075.9 1565.7,2048.3 1482.6,2020.9 1400.0,1993.7 1318.0,1966.8 1236.6,1940.3 1155.9,1914.3 1076.0,1888.9 996.9,1864.3 918.7,1840.4 841.4,1817.6 765.1,1795.9 689.9,1775.4 615.8,1756.4 542.9,1738.9 471.1,1723.2 400.6,1709.5  Z" style="stroke-width: 0.0;  fill: rgb(195,58,55);" />
<path d="M 404.672,1687.847 A 1625.580,1625.580 0.00 0,1 406.6,1678.0 L 406.6,1678.0 471.1,1689.8 537.6,1699.4 606.0,1706.9 676.0,1712.3 747.6,1715.8 820.8,1717.3 895.2,1717.0 970.9,1714.8 1047.7,1710.9 1125.5,1705.1 1204.1,1697.7 1283.5,1688.7 1363.5,1678.0 1443.9,1665.7 1524.7,1652.0 1605.7,1636.7 1686.9,1620.0 1768.0,1601.8 1848.9,1582.3 1929.6,1561.5 2009.9,1539.3 2089.6,1515.8 2168.7,1491.1 2246.9,1465.2 2324.3,1438.0 2400.6,1409.7 2475.7,1380.3 2549.5,1349.8 2621.9,1318.1 2692.7,1285.4 2761.7,1251.6 2829.0,1216.8 2894.3,1181.0 2957.5,1144.2 3018.5,1106.4 3077.1,1067.7 3133.2,1028.0 3186.7,987.4 3237.4,945.8  A 1625.580,1625.580 0.00 0,1 3243.9,953.5 L 3243.9,953.5 3192.8,994.8 3139.0,1035.2 3082.6,1074.6 3023.6,1113.1 2962.3,1150.7 2898.8,1187.3 2833.2,1222.8 2765.7,1257.4 2696.3,1291.0 2625.3,1323.5 2552.6,1355.0 2478.6,1385.4 2403.2,1414.8 2326.7,1443.0 2249.1,1470.0 2170.6,1495.9 2091.3,1520.6 2011.4,1544.0 1930.9,1566.2 1850.1,1587.2 1769.0,1606.8 1687.7,1625.0 1606.4,1641.8 1525.2,1657.3 1444.2,1671.2 1363.6,1683.7 1283.5,1694.6 1204.0,1703.9 1125.2,1711.5 1047.2,1717.5 970.3,1721.8 894.4,1724.3 819.8,1725.0 746.5,1723.8 674.7,1720.7 604.5,1715.6 536.0,1708.4 469.4,1699.2 404.7,1687.8  Z" style="stroke-width: 0.0;  fill: rgb(195,58,55);" />
<path d="M 406.625,1678.028 A 1625.580,1625.580 0.00 0,1 407.4,1674.1 L 407.4,1674.1 464.6,1684.5 523.0,1692.6 582.3,1698.3 642.2,1701.5 702.7,1702.1 763.4,1700.2 824.2,1695.6 884.9,1688.3 945.3,1678.4 1005.2,1665.8 1064.5,1650.5 1123.0,1632.5 1180.6,1611.8 1237.0,1588.4 1292.2,1562.4 1346.0,1533.8 1398.3,1502.6 1449.0,1469.0 1498.0,1432.9 1545.1,1394.5 1590.2,1353.8 1633.4,1310.8 1674.4,1265.8 1713.2,1218.8 1749.7,1170.0 1783.9,1119.4 1815.7,1067.1 1845.1,1013.4 1872.0,958.4 1896.4,902.2 1918.2,845.0 1937.5,787.0 1954.2,728.4 1968.2,669.3 1979.7,609.9 1988.6,550.6 1995.0,491.4 1998.7,432.6 2000.0,374.4  A 1625.580,1625.580 0.00 0,1 2004.0,374.4 L 2004.0,374.4 2002.6,432.6 1998.7,491.4 1992.2,550.7 1983.1,610.1 1971.5,669.5 1957.2,728.6 1940.4,787.3 1921.0,845.3 1899.0,902.6 1874.4,958.8 1847.4,1013.9 1817.8,1067.7 1785.8,1119.9 1751.5,1170.6 1714.8,1219.6 1675.8,1266.7 1634.7,1311.8 1591.4,1354.8 1546.1,1395.6 1498.9,1434.1 1449.8,1470.3 1399.0,1504.1 1346.5,1535.4 1292.6,1564.1 1237.3,1590.3 1180.8,1613.8 1123.1,1634.6 1064.5,1652.8 1005.1,1668.2 945.1,1681.0 884.6,1691.1 823.9,1698.5 763.0,1703.2 702.2,1705.3 641.7,1704.8 581.6,1701.8 522.3,1696.3 463.9,1688.3 406.6,1678.0  Z" style="stroke-width: 0.0;  fill: rgb(195,58,55);" />
</g>
<defs>
<pattern id="vline" width="10" height="10" patternTransform="rotate(0 0 0)" patternUnits="userSpaceOnUse"><line x1="0" y1="0" x2="0" y2="10" style="stroke:black;stroke-width:5" /></pattern>
<pattern id="hline-sparse" width="10" height="10" patternTransform="rotate(0 0 0)" patternUnits="userSpaceOnUse"><line x1="0" y1="0" x2="10" y2="0" style="stroke:black;stroke-width:2" /></pattern>
<pattern id="checker" width="10" height="10" patternTransform="rotate(45 0 0)" patternUnits="userSpaceOnUse"><line x1="0" y1="0" x2="10" y2="0" style="stroke:black;stroke-width:5" /><line x1="0" y1="0" x2="0" y2="10" style="stroke:black;stroke-width:4" /></pattern>
<pattern id="hline" width="10" height="10" patternTransform="rotate(0 0 0)" patternUnits="userSpaceOnUse"><line x1="0" y1="0" x2="10" y2="0" style="stroke:black;stroke-width:5" /></pattern>
<pattern id="vline-sparse" width="10" height="10" patternTransform="rotate(0 0 0)" patternUnits="userSpaceOnUse"><line x1="0" y1="0" x2="0" y2="10" style="stroke:black;stroke-width:2" /></pattern>
<pattern id="checker" width="10" height="10" patternTransform="rotate(45 0 0)" patternUnits="userSpaceOnUse"><line x1="0" y1="0" x2="10" y2="0" style="stroke:black;stroke-width:2" /><line x1="0" y1="0" x2="0" y2="10" style="stroke:black;stroke-width:2" /></pattern>
</defs>
</svg>
