<?xml version="1.0" encoding="utf-8" standalone="no"?>
<!DOCTYPE svg PUBLIC "-//W3C//DTD SVG 1.1//EN" "http://www.w3.org/Graphics/SVG/1.1/DTD/svg11.dtd">
<svg width="4000px" height="4000px" version="1.1" xmlns="http://www.w3.org/2000/svg" xmlns:xlink="http://www.w3.org/1999/xlink">
<g id="bg">
<rect x="0" y="0" width="4000px" height="4000px" style="fill:rgb(255,255,255);"/>
</g>
<g id="ideograms">
<path d="M2000.000,358.000 A1642.000,1642.000 40.000 0,1 2751.610,540.121 L2769.004,506.336 A1680.000,1680.000 0.000 0,0 2000.000,320.000 Z" style="stroke-width:2.0;stroke:rgb(255,255,255);stroke-linecap:round;fill:rgb(185,185,185);" />
<text x="2427.0" y="305.8" font-size="36.4px" font-family="CMUBright-Roman" style="text-anchor:start;fill:rgb(0,0,0);" transform="rotate(283.6,2427.0,305.8)" >Management-Operations</text>
<path d="M2000.000,358.000 A1642.000,1642.000 40.000 0,1 2751.610,540.121 L2769.004,506.336 A1680.000,1680.000 0.000 0,0 2000.000,320.000 Z" style="stroke-width:2.0;stroke:rgb(255,255,255);stroke-linecap:round;fill:none;" />
<path d="M2783.279,556.865 A1642.000,1642.000 40.000 0,1 3226.411,908.176 L3254.793,882.908 A1680.000,1680.000 0.000 0,0 2801.406,523.467 Z" style="stroke-width:2.0;stroke:rgb(255,255,255);stroke-linecap:round;fill:rgb(185,185,185);" />
<text x="3097.5" y="640.5" font-size="36.4px" font-family="CMUBright-Roman" style="text-anchor:start;fill:rgb(0,0,0);" transform="rotate(308.4,3097.5,640.5)" >Engineering</text>
<path d="M2783.279,556.865 A1642.000,1642.000 40.000 0,1 3226.411,908.176 L3254.793,882.908 A1680.000,1680.000 0.000 0,0 2801.406,523.467 Z" style="stroke-width:2.0;stroke:rgb(255,255,255);stroke-linecap:round;fill:none;" />
<path d="M3249.937,935.189 A1642.000,1642.000 40.000 0,1 3507.538,1349.236 L3542.426,1334.176 A1680.000,1680.000 0.000 0,0 3278.864,910.547 Z" style="stroke-width:2.0;stroke:rgb(255,255,255);stroke-linecap:round;fill:rgb(185,185,185);" />
<text x="3491.6" y="1090.2" font-size="36.4px" font-family="CMUBright-Roman" style="text-anchor:start;fill:rgb(0,0,0);" transform="rotate(328.1,3491.6,1090.2)" >Leadership-General</text>
<path d="M3249.937,935.189 A1642.000,1642.000 40.000 0,1 3507.538,1349.236 L3542.426,1334.176 A1680.000,1680.000 0.000 0,0 3278.864,910.547 Z" style="stroke-width:2.0;stroke:rgb(255,255,255);stroke-linecap:round;fill:none;" />
<path d="M3521.375,1382.278 A1642.000,1642.000 40.000 0,1 3633.192,1830.154 L3670.988,1826.223 A1680.000,1680.000 0.000 0,0 3556.584,1367.982 Z" style="stroke-width:2.0;stroke:rgb(255,255,255);stroke-linecap:round;fill:rgb(185,185,185);" />
<text x="3699.0" y="1592.3" font-size="36.4px" font-family="CMUBright-Roman" style="text-anchor:start;fill:rgb(0,0,0);" transform="rotate(346.0,3699.0,1592.3)" >Sales-Marketing</text>
<path d="M3521.375,1382.278 A1642.000,1642.000 40.000 0,1 3633.192,1830.154 L3670.988,1826.223 A1680.000,1680.000 0.000 0,0 3556.584,1367.982 Z" style="stroke-width:2.0;stroke:rgb(255,255,255);stroke-linecap:round;fill:none;" />
<path d="M3636.509,1865.822 A1642.000,1642.000 40.000 0,1 3610.774,2318.704 L3648.051,2326.079 A1680.000,1680.000 0.000 0,0 3674.381,1862.717 Z" style="stroke-width:2.0;stroke:rgb(255,255,255);stroke-linecap:round;fill:rgb(185,185,185);" />
<text x="3743.6" y="2111.6" font-size="36.4px" font-family="CMUBright-Roman" style="text-anchor:start;fill:rgb(0,0,0);" transform="rotate(3.3,3743.6,2111.6)" >Finance-Investment</text>
<path d="M3636.509,1865.822 A1642.000,1642.000 40.000 0,1 3610.774,2318.704 L3648.051,2326.079 A1680.000,1680.000 0.000 0,0 3674.381,1862.717 Z" style="stroke-width:2.0;stroke:rgb(255,255,255);stroke-linecap:round;fill:none;" />
<path d="M3603.438,2353.767 A1642.000,1642.000 40.000 0,1 3499.856,2668.278 L3534.566,2683.744 A1680.000,1680.000 0.000 0,0 3640.546,2361.954 Z" style="stroke-width:2.0;stroke:rgb(255,255,255);stroke-linecap:round;fill:rgb(185,185,185);" />
<text x="3655.6" y="2558.4" font-size="36.4px" font-family="CMUBright-Roman" style="text-anchor:start;fill:rgb(0,0,0);" transform="rotate(18.2,3655.6,2558.4)" >Software-Data</text>
<path d="M3603.438,2353.767 A1642.000,1642.000 40.000 0,1 3499.856,2668.278 L3534.566,2683.744 A1680.000,1680.000 0.000 0,0 3640.546,2361.954 Z" style="stroke-width:2.0;stroke:rgb(255,255,255);stroke-linecap:round;fill:none;" />
<path d="M3484.921,2700.839 A1642.000,1642.000 40.000 0,1 3330.895,2961.708 L3361.695,2983.964 A1680.000,1680.000 0.000 0,0 3519.285,2717.058 Z" style="stroke-width:2.0;stroke:rgb(255,255,255);stroke-linecap:round;fill:rgb(185,185,185);" />
<text x="3498.1" y="2899.1" font-size="36.4px" font-family="CMUBright-Roman" style="text-anchor:start;fill:rgb(0,0,0);" transform="rotate(30.6,3498.1,2899.1)" >Education</text>
<path d="M3484.921,2700.839 A1642.000,1642.000 40.000 0,1 3330.895,2961.708 L3361.695,2983.964 A1680.000,1680.000 0.000 0,0 3519.285,2717.058 Z" style="stroke-width:2.0;stroke:rgb(255,255,255);stroke-linecap:round;fill:none;" />
<path d="M3309.599,2990.512 A1642.000,1642.000 40.000 0,1 3129.055,3192.225 L3155.184,3219.816 A1680.000,1680.000 0.000 0,0 3339.906,3013.435 Z" style="stroke-width:2.0;stroke:rgb(255,255,255);stroke-linecap:round;fill:rgb(185,185,185);" />
<text x="3293.5" y="3174.5" font-size="36.4px" font-family="CMUBright-Roman" style="text-anchor:start;fill:rgb(0,0,0);" transform="rotate(41.8,3293.5,3174.5)" >Research-Science</text>
<path d="M3309.599,2990.512 A1642.000,1642.000 40.000 0,1 3129.055,3192.225 L3155.184,3219.816 A1680.000,1680.000 0.000 0,0 3339.906,3013.435 Z" style="stroke-width:2.0;stroke:rgb(255,255,255);stroke-linecap:round;fill:none;" />
<path d="M3102.778,3216.571 A1642.000,1642.000 40.000 0,1 2891.302,3379.038 L2911.929,3410.952 A1680.000,1680.000 0.000 0,0 3128.299,3244.726 Z" style="stroke-width:2.0;stroke:rgb(255,255,255);stroke-linecap:round;fill:rgb(185,185,185);" />
<text x="3054.5" y="3393.1" font-size="36.4px" font-family="CMUBright-Roman" style="text-anchor:start;fill:rgb(0,0,0);" transform="rotate(52.5,3054.5,3393.1)" >Clinical-Care</text>
<path d="M3102.778,3216.571 A1642.000,1642.000 40.000 0,1 2891.302,3379.038 L2911.929,3410.952 A1680.000,1680.000 0.000 0,0 3128.299,3244.726 Z" style="stroke-width:2.0;stroke:rgb(255,255,255);stroke-linecap:round;fill:none;" />
<path d="M2861.006,3398.153 A1642.000,1642.000 40.000 0,1 2640.127,3512.085 L2654.941,3547.079 A1680.000,1680.000 0.000 0,0 2880.932,3430.510 Z" style="stroke-width:2.0;stroke:rgb(255,255,255);stroke-linecap:round;fill:rgb(185,185,185);" />
<text x="2786.7" y="3560.1" font-size="36.4px" font-family="CMUBright-Roman" style="text-anchor:start;fill:rgb(0,0,0);" transform="rotate(62.7,2786.7,3560.1)" >Accounting-Audit</text>
<path d="M2861.006,3398.153 A1642.000,1642.000 40.000 0,1 2640.127,3512.085 L2654.941,3547.079 A1680.000,1680.000 0.000 0,0 2880.932,3430.510 Z" style="stroke-width:2.0;stroke:rgb(255,255,255);stroke-linecap:round;fill:none;" />
<path d="M2606.988,3525.690 A1642.000,1642.000 40.000 0,1 2452.002,3578.562 L2462.463,3615.094 A1680.000,1680.000 0.000 0,0 2621.036,3560.998 Z" style="stroke-width:2.0;stroke:rgb(255,255,255);stroke-linecap:round;fill:rgb(185,185,185);" />
<text x="2552.3" y="3657.6" font-size="36.4px" font-family="CMUBright-Roman" style="text-anchor:start;fill:rgb(0,0,0);" transform="rotate(71.2,2552.3,3657.6)" >Social-Service</text>
<path d="M2606.988,3525.690 A1642.000,1642.000 40.000 0,1 2452.002,3578.562 L2462.463,3615.094 A1680.000,1680.000 0.000 0,0 2621.036,3560.998 Z" style="stroke-width:2.0;stroke:rgb(255,255,255);stroke-linecap:round;fill:none;" />
<path d="M2417.459,3588.047 A1642.000,1642.000 40.000 0,1 2320.910,3610.336 L2328.336,3647.603 A1680.000,1680.000 0.000 0,0 2427.120,3624.798 Z" style="stroke-width:2.0;stroke:rgb(255,255,255);stroke-linecap:round;fill:rgb(185,185,185);" />
<text x="2380.8" y="3705.2" font-size="36.4px" font-family="CMUBright-Roman" style="text-anchor:start;fill:rgb(0,0,0);" transform="rotate(77.0,2380.8,3705.2)" >IT-Infrastructure</text>
<path d="M2417.459,3588.047 A1642.000,1642.000 40.000 0,1 2320.910,3610.336 L2328.336,3647.603 A1680.000,1680.000 0.000 0,0 2427.120,3624.798 Z" style="stroke-width:2.0;stroke:rgb(255,255,255);stroke-linecap:round;fill:none;" />
<path d="M2285.704,3616.953 A1642.000,1642.000 40.000 0,1 2189.660,3631.010 L2194.050,3668.755 A1680.000,1680.000 0.000 0,0 2292.316,3654.373 Z" style="stroke-width:2.0;stroke:rgb(255,255,255);stroke-linecap:round;fill:rgb(185,185,185);" />
<text x="2237.2" y="3731.0" font-size="36.4px" font-family="CMUBright-Roman" style="text-anchor:start;fill:rgb(0,0,0);" transform="rotate(81.7,2237.2,3731.0)" >Legal-Policy</text>
<path d="M2285.704,3616.953 A1642.000,1642.000 40.000 0,1 2189.660,3631.010 L2194.050,3668.755 A1680.000,1680.000 0.000 0,0 2292.316,3654.373 Z" style="stroke-width:2.0;stroke:rgb(255,255,255);stroke-linecap:round;fill:none;" />
<path d="M2154.035,3634.759 A1642.000,1642.000 40.000 0,1 1474.020,3555.477 L1461.848,3591.475 A1680.000,1680.000 0.000 0,0 2157.600,3672.592 Z" style="stroke-width:2.0;stroke:rgb(255,255,255);stroke-linecap:round;fill:rgb(15,52,135);" />
<text x="1813.6" y="3737.2" font-size="36.4px" font-family="CMUBright-Roman" style="text-anchor:end;fill:rgb(0,0,0);" transform="rotate(-83.3,1813.6,3737.2)" >Finance-Accounting</text>
<path d="M2154.035,3634.759 A1642.000,1642.000 40.000 0,1 1474.020,3555.477 L1461.848,3591.475 A1680.000,1680.000 0.000 0,0 2157.600,3672.592 Z" style="stroke-width:2.0;stroke:rgb(255,255,255);stroke-linecap:round;fill:none;" />
<path d="M1440.213,3543.633 A1642.000,1642.000 40.000 0,1 888.845,3208.925 L863.130,3236.902 A1680.000,1680.000 0.000 0,0 1427.258,3579.356 Z" style="stroke-width:2.0;stroke:rgb(255,255,255);stroke-linecap:round;fill:rgb(42,98,180);" />
<text x="1104.1" y="3500.0" font-size="36.4px" font-family="CMUBright-Roman" style="text-anchor:end;fill:rgb(0,0,0);" transform="rotate(-58.7,1104.1,3500.0)" >General-Business</text>
<path d="M1440.213,3543.633 A1642.000,1642.000 40.000 0,1 888.845,3208.925 L863.130,3236.902 A1680.000,1680.000 0.000 0,0 1427.258,3579.356 Z" style="stroke-width:2.0;stroke:rgb(255,255,255);stroke-linecap:round;fill:none;" />
<path d="M862.737,3184.397 A1642.000,1642.000 40.000 0,1 624.574,2896.866 L592.744,2917.622 A1680.000,1680.000 0.000 0,0 836.418,3211.807 Z" style="stroke-width:2.0;stroke:rgb(255,255,255);stroke-linecap:round;fill:rgb(28,75,160);" />
<text x="664.7" y="3126.8" font-size="36.4px" font-family="CMUBright-Roman" style="text-anchor:end;fill:rgb(0,0,0);" transform="rotate(-39.6,664.7,3126.8)" >Marketing-Communication</text>
<path d="M862.737,3184.397 A1642.000,1642.000 40.000 0,1 624.574,2896.866 L592.744,2917.622 A1680.000,1680.000 0.000 0,0 836.418,3211.807 Z" style="stroke-width:2.0;stroke:rgb(255,255,255);stroke-linecap:round;fill:none;" />
<path d="M605.337,2866.648 A1642.000,1642.000 40.000 0,1 476.558,2612.607 L441.301,2626.784 A1680.000,1680.000 0.000 0,0 573.061,2886.704 Z" style="stroke-width:2.0;stroke:rgb(255,255,255);stroke-linecap:round;fill:rgb(60,120,198);" />
<text x="448.7" y="2803.8" font-size="36.4px" font-family="CMUBright-Roman" style="text-anchor:end;fill:rgb(0,0,0);" transform="rotate(-26.9,448.7,2803.8)" >Operations-Analytics</text>
<path d="M605.337,2866.648 A1642.000,1642.000 40.000 0,1 476.558,2612.607 L441.301,2626.784 A1680.000,1680.000 0.000 0,0 573.061,2886.704 Z" style="stroke-width:2.0;stroke:rgb(255,255,255);stroke-linecap:round;fill:none;" />
<path d="M463.556,2579.227 A1642.000,1642.000 40.000 0,1 407.419,2399.813 L370.563,2409.066 A1680.000,1680.000 0.000 0,0 427.999,2592.632 Z" style="stroke-width:2.0;stroke:rgb(255,255,255);stroke-linecap:round;fill:rgb(82,145,215);" />
<text x="337.2" y="2536.5" font-size="36.4px" font-family="CMUBright-Roman" style="text-anchor:end;fill:rgb(0,0,0);" transform="rotate(-17.4,337.2,2536.5)" >Specialized-Business</text>
<path d="M463.556,2579.227 A1642.000,1642.000 40.000 0,1 407.419,2399.813 L370.563,2409.066 A1680.000,1680.000 0.000 0,0 427.999,2592.632 Z" style="stroke-width:2.0;stroke:rgb(255,255,255);stroke-linecap:round;fill:none;" />
<path d="M399.076,2364.976 A1642.000,1642.000 40.000 0,1 366.776,2169.540 L328.979,2173.464 A1680.000,1680.000 0.000 0,0 362.027,2373.422 Z" style="stroke-width:2.0;stroke:rgb(255,255,255);stroke-linecap:round;fill:rgb(200,108,30);" />
<text x="278.3" y="2297.2" font-size="36.4px" font-family="CMUBright-Roman" style="text-anchor:end;fill:rgb(0,0,0);" transform="rotate(-9.4,278.3,2297.2)" >Social-Sciences</text>
<path d="M399.076,2364.976 A1642.000,1642.000 40.000 0,1 366.776,2169.540 L328.979,2173.464 A1680.000,1680.000 0.000 0,0 362.027,2373.422 Z" style="stroke-width:2.0;stroke:rgb(255,255,255);stroke-linecap:round;fill:none;" />
<path d="M363.466,2133.872 A1642.000,1642.000 40.000 0,1 358.290,2030.870 L320.297,2031.584 A1680.000,1680.000 0.000 0,0 325.593,2136.970 Z" style="stroke-width:2.0;stroke:rgb(255,255,255);stroke-linecap:round;fill:rgb(108,170,228);" />
<text x="255.6" y="2099.7" font-size="36.4px" font-family="CMUBright-Roman" style="text-anchor:end;fill:rgb(0,0,0);" transform="rotate(-2.9,255.6,2099.7)" >Economics</text>
<path d="M363.466,2133.872 A1642.000,1642.000 40.000 0,1 358.290,2030.870 L320.297,2031.584 A1680.000,1680.000 0.000 0,0 325.593,2136.970 Z" style="stroke-width:2.0;stroke:rgb(255,255,255);stroke-linecap:round;fill:none;" />
<path d="M358.007,1995.049 A1642.000,1642.000 40.000 0,1 358.807,1948.539 L320.825,1947.348 A1680.000,1680.000 0.000 0,0 320.008,1994.934 Z" style="stroke-width:2.0;stroke:rgb(255,255,255);stroke-linecap:round;fill:rgb(220,140,52);" />
<text x="252.9" y="1982.5" font-size="36.4px" font-family="CMUBright-Roman" style="text-anchor:end;fill:rgb(0,0,0);" transform="rotate(1.0,252.9,1982.5)" >Humanities-Liberal-Arts</text>
<path d="M358.007,1995.049 A1642.000,1642.000 40.000 0,1 358.807,1948.539 L320.825,1947.348 A1680.000,1680.000 0.000 0,0 320.008,1994.934 Z" style="stroke-width:2.0;stroke:rgb(255,255,255);stroke-linecap:round;fill:none;" />
<path d="M360.320,1912.749 A1642.000,1642.000 40.000 0,1 361.133,1898.615 L323.205,1896.269 A1680.000,1680.000 0.000 0,0 322.373,1910.730 Z" style="stroke-width:2.0;stroke:rgb(255,255,255);stroke-linecap:round;fill:rgb(235,168,78);" />
<text x="255.0" y="1912.1" font-size="36.4px" font-family="CMUBright-Roman" style="text-anchor:end;fill:rgb(0,0,0);" transform="rotate(3.3,255.0,1912.1)" >International-Studies</text>
<path d="M360.320,1912.749 A1642.000,1642.000 40.000 0,1 361.133,1898.615 L323.205,1896.269 A1680.000,1680.000 0.000 0,0 322.373,1910.730 Z" style="stroke-width:2.0;stroke:rgb(255,255,255);stroke-linecap:round;fill:none;" />
<path d="M363.735,1862.887 A1642.000,1642.000 40.000 0,1 391.336,1670.812 L354.108,1663.193 A1680.000,1680.000 0.000 0,0 325.867,1859.714 Z" style="stroke-width:2.0;stroke:rgb(255,255,255);stroke-linecap:round;fill:rgb(195,58,55);" />
<text x="268.8" y="1763.9" font-size="36.4px" font-family="CMUBright-Roman" style="text-anchor:end;fill:rgb(0,0,0);" transform="rotate(8.2,268.8,1763.9)" >Social-Work</text>
<path d="M363.735,1862.887 A1642.000,1642.000 40.000 0,1 391.336,1670.812 L354.108,1663.193 A1680.000,1680.000 0.000 0,0 325.867,1859.714 Z" style="stroke-width:2.0;stroke:rgb(255,255,255);stroke-linecap:round;fill:none;" />
<path d="M398.900,1635.797 A1642.000,1642.000 40.000 0,1 428.981,1522.439 L392.624,1511.387 A1680.000,1680.000 0.000 0,0 361.847,1627.368 Z" style="stroke-width:2.0;stroke:rgb(255,255,255);stroke-linecap:round;fill:rgb(175,35,42);" />
<text x="308.1" y="1564.0" font-size="36.4px" font-family="CMUBright-Roman" style="text-anchor:end;fill:rgb(0,0,0);" transform="rotate(14.9,308.1,1564.0)" >Teacher-Education</text>
<path d="M398.900,1635.797 A1642.000,1642.000 40.000 0,1 428.981,1522.439 L392.624,1511.387 A1680.000,1680.000 0.000 0,0 361.847,1627.368 Z" style="stroke-width:2.0;stroke:rgb(255,255,255);stroke-linecap:round;fill:none;" />
<path d="M439.773,1488.281 A1642.000,1642.000 40.000 0,1 474.975,1391.343 L439.682,1377.257 A1680.000,1680.000 0.000 0,0 403.666,1476.439 Z" style="stroke-width:2.0;stroke:rgb(255,255,255);stroke-linecap:round;fill:rgb(215,82,72);" />
<text x="352.5" y="1418.2" font-size="36.4px" font-family="CMUBright-Roman" style="text-anchor:end;fill:rgb(0,0,0);" transform="rotate(20.0,352.5,1418.2)" >Special-Education</text>
<path d="M439.773,1488.281 A1642.000,1642.000 40.000 0,1 474.975,1391.343 L439.682,1377.257 A1680.000,1680.000 0.000 0,0 403.666,1476.439 Z" style="stroke-width:2.0;stroke:rgb(255,255,255);stroke-linecap:round;fill:none;" />
<path d="M488.616,1358.220 A1642.000,1642.000 40.000 0,1 509.092,1311.991 L474.588,1296.068 A1680.000,1680.000 0.000 0,0 453.639,1343.368 Z" style="stroke-width:2.0;stroke:rgb(255,255,255);stroke-linecap:round;fill:rgb(230,112,95);" />
<text x="396.3" y="1306.6" font-size="36.4px" font-family="CMUBright-Roman" style="text-anchor:end;fill:rgb(0,0,0);" transform="rotate(23.9,396.3,1306.6)" >Educational-Leadership</text>
<path d="M488.616,1358.220 A1642.000,1642.000 40.000 0,1 509.092,1311.991 L474.588,1296.068 A1680.000,1680.000 0.000 0,0 453.639,1343.368 Z" style="stroke-width:2.0;stroke:rgb(255,255,255);stroke-linecap:round;fill:none;" />
<path d="M524.455,1279.630 A1642.000,1642.000 40.000 0,1 553.988,1222.045 L520.524,1204.041 A1680.000,1680.000 0.000 0,0 490.308,1262.959 Z" style="stroke-width:2.0;stroke:rgb(255,255,255);stroke-linecap:round;fill:rgb(0,130,142);" />
<text x="439.7" y="1213.8" font-size="36.4px" font-family="CMUBright-Roman" style="text-anchor:end;fill:rgb(0,0,0);" transform="rotate(27.2,439.7,1213.8)" >Communication-Studies</text>
<path d="M524.455,1279.630 A1642.000,1642.000 40.000 0,1 553.988,1222.045 L520.524,1204.041 A1680.000,1680.000 0.000 0,0 490.308,1262.959 Z" style="stroke-width:2.0;stroke:rgb(255,255,255);stroke-linecap:round;fill:none;" />
<path d="M571.303,1190.686 A1642.000,1642.000 40.000 0,1 588.562,1160.949 L555.898,1141.531 A1680.000,1680.000 0.000 0,0 538.240,1171.956 Z" style="stroke-width:2.0;stroke:rgb(255,255,255);stroke-linecap:round;fill:rgb(0,165,172);" />
<text x="482.6" y="1133.8" font-size="36.4px" font-family="CMUBright-Roman" style="text-anchor:end;fill:rgb(0,0,0);" transform="rotate(30.1,482.6,1133.8)" >Journalism-Media</text>
<path d="M571.303,1190.686 A1642.000,1642.000 40.000 0,1 588.562,1160.949 L555.898,1141.531 A1680.000,1680.000 0.000 0,0 538.240,1171.956 Z" style="stroke-width:2.0;stroke:rgb(255,255,255);stroke-linecap:round;fill:none;" />
<path d="M607.202,1130.358 A1642.000,1642.000 40.000 0,1 613.667,1120.089 L581.583,1099.725 A1680.000,1680.000 0.000 0,0 574.969,1110.233 Z" style="stroke-width:2.0;stroke:rgb(255,255,255);stroke-linecap:round;fill:rgb(38,195,195);" />
<text x="512.9" y="1082.8" font-size="36.4px" font-family="CMUBright-Roman" style="text-anchor:end;fill:rgb(0,0,0);" transform="rotate(32.2,512.9,1082.8)" >Creative-Writing</text>
<path d="M607.202,1130.358 A1642.000,1642.000 40.000 0,1 613.667,1120.089 L581.583,1099.725 A1680.000,1680.000 0.000 0,0 574.969,1110.233 Z" style="stroke-width:2.0;stroke:rgb(255,255,255);stroke-linecap:round;fill:none;" />
<path d="M633.192,1090.055 A1642.000,1642.000 40.000 0,1 667.742,1040.182 L636.910,1017.969 A1680.000,1680.000 0.000 0,0 601.560,1068.997 Z" style="stroke-width:2.0;stroke:rgb(255,255,255);stroke-linecap:round;fill:rgb(180,45,112);" />
<text x="554.7" y="1018.2" font-size="36.4px" font-family="CMUBright-Roman" style="text-anchor:end;fill:rgb(0,0,0);" transform="rotate(34.7,554.7,1018.2)" >Arts-Theology</text>
<path d="M633.192,1090.055 A1642.000,1642.000 40.000 0,1 667.742,1040.182 L636.910,1017.969 A1680.000,1680.000 0.000 0,0 601.560,1068.997 Z" style="stroke-width:2.0;stroke:rgb(255,255,255);stroke-linecap:round;fill:none;" />
<path d="M688.997,1011.347 A1642.000,1642.000 40.000 0,1 698.803,998.477 L668.690,975.299 A1680.000,1680.000 0.000 0,0 658.657,988.467 Z" style="stroke-width:2.0;stroke:rgb(255,255,255);stroke-linecap:round;fill:rgb(205,75,142);" />
<text x="600.6" y="953.9" font-size="36.4px" font-family="CMUBright-Roman" style="text-anchor:end;fill:rgb(0,0,0);" transform="rotate(37.3,600.6,953.9)" >English-Writing</text>
<path d="M688.997,1011.347 A1642.000,1642.000 40.000 0,1 698.803,998.477 L668.690,975.299 A1680.000,1680.000 0.000 0,0 658.657,988.467 Z" style="stroke-width:2.0;stroke:rgb(255,255,255);stroke-linecap:round;fill:none;" />
<path d="M720.960,970.329 A1642.000,1642.000 40.000 0,1 724.774,965.610 L695.262,941.672 A1680.000,1680.000 0.000 0,0 691.360,946.500 Z" style="stroke-width:2.0;stroke:rgb(255,255,255);stroke-linecap:round;fill:rgb(225,110,168);" />
<text x="631.0" y="914.3" font-size="36.4px" font-family="CMUBright-Roman" style="text-anchor:end;fill:rgb(0,0,0);" transform="rotate(38.9,631.0,914.3)" >Languages</text>
<path d="M720.960,970.329 A1642.000,1642.000 40.000 0,1 724.774,965.610 L695.262,941.672 A1680.000,1680.000 0.000 0,0 691.360,946.500 Z" style="stroke-width:2.0;stroke:rgb(255,255,255);stroke-linecap:round;fill:none;" />
<path d="M747.643,938.037 A1642.000,1642.000 40.000 0,1 884.635,794.959 L858.822,767.071 A1680.000,1680.000 0.000 0,0 718.660,913.461 Z" style="stroke-width:2.0;stroke:rgb(255,255,255);stroke-linecap:round;fill:rgb(88,40,138);" />
<text x="727.0" y="803.3" font-size="36.4px" font-family="CMUBright-Roman" style="text-anchor:end;fill:rgb(0,0,0);" transform="rotate(43.8,727.0,803.3)" >Biological-Sciences</text>
<path d="M747.643,938.037 A1642.000,1642.000 40.000 0,1 884.635,794.959 L858.822,767.071 A1680.000,1680.000 0.000 0,0 718.660,913.461 Z" style="stroke-width:2.0;stroke:rgb(255,255,255);stroke-linecap:round;fill:none;" />
<path d="M911.188,770.914 A1642.000,1642.000 40.000 0,1 969.888,721.316 L946.049,691.724 A1680.000,1680.000 0.000 0,0 885.990,742.470 Z" style="stroke-width:2.0;stroke:rgb(255,255,255);stroke-linecap:round;fill:rgb(115,65,165);" />
<text x="862.8" y="673.5" font-size="36.4px" font-family="CMUBright-Roman" style="text-anchor:end;fill:rgb(0,0,0);" transform="rotate(49.8,862.8,673.5)" >Health-Wellness</text>
<path d="M911.188,770.914 A1642.000,1642.000 40.000 0,1 969.888,721.316 L946.049,691.724 A1680.000,1680.000 0.000 0,0 885.990,742.470 Z" style="stroke-width:2.0;stroke:rgb(255,255,255);stroke-linecap:round;fill:none;" />
<path d="M998.028,699.148 A1642.000,1642.000 40.000 0,1 1023.858,679.655 L1001.267,649.099 A1680.000,1680.000 0.000 0,0 974.840,669.043 Z" style="stroke-width:2.0;stroke:rgb(255,255,255);stroke-linecap:round;fill:rgb(140,92,188);" />
<text x="935.2" y="614.8" font-size="36.4px" font-family="CMUBright-Roman" style="text-anchor:end;fill:rgb(0,0,0);" transform="rotate(53.0,935.2,614.8)" >Physical-Sciences</text>
<path d="M998.028,699.148 A1642.000,1642.000 40.000 0,1 1023.858,679.655 L1001.267,649.099 A1680.000,1680.000 0.000 0,0 974.840,669.043 Z" style="stroke-width:2.0;stroke:rgb(255,255,255);stroke-linecap:round;fill:none;" />
<path d="M1052.893,658.675 A1642.000,1642.000 40.000 0,1 1064.493,650.559 L1042.843,619.329 A1680.000,1680.000 0.000 0,0 1030.975,627.633 Z" style="stroke-width:2.0;stroke:rgb(255,255,255);stroke-linecap:round;fill:rgb(165,120,208);" />
<text x="988.2" y="575.6" font-size="36.4px" font-family="CMUBright-Roman" style="text-anchor:end;fill:rgb(0,0,0);" transform="rotate(55.0,988.2,575.6)" >Environmental-Sciences</text>
<path d="M1052.893,658.675 A1642.000,1642.000 40.000 0,1 1064.493,650.559 L1042.843,619.329 A1680.000,1680.000 0.000 0,0 1030.975,627.633 Z" style="stroke-width:2.0;stroke:rgb(255,255,255);stroke-linecap:round;fill:none;" />
<path d="M1094.154,630.472 A1642.000,1642.000 40.000 0,1 1594.822,408.776 L1585.445,371.951 A1680.000,1680.000 0.000 0,0 1073.190,598.778 Z" style="stroke-width:2.0;stroke:rgb(255,255,255);stroke-linecap:round;fill:rgb(22,118,50);" />
<text x="1278.0" y="409.0" font-size="36.4px" font-family="CMUBright-Roman" style="text-anchor:end;fill:rgb(0,0,0);" transform="rotate(66.1,1278.0,409.0)" >Engineering-Disciplines</text>
<path d="M1094.154,630.472 A1642.000,1642.000 40.000 0,1 1594.822,408.776 L1585.445,371.951 A1680.000,1680.000 0.000 0,0 1073.190,598.778 Z" style="stroke-width:2.0;stroke:rgb(255,255,255);stroke-linecap:round;fill:none;" />
<path d="M1629.631,400.315 A1642.000,1642.000 40.000 0,1 1964.180,358.391 L1963.351,320.400 A1680.000,1680.000 0.000 0,0 1621.060,363.295 Z" style="stroke-width:2.0;stroke:rgb(255,255,255);stroke-linecap:round;fill:rgb(48,158,75);" />
<text x="1767.4" y="268.4" font-size="36.4px" font-family="CMUBright-Roman" style="text-anchor:end;fill:rgb(0,0,0);" transform="rotate(82.9,1767.4,268.4)" >Computer-Science-IT</text>
<path d="M1629.631,400.315 A1642.000,1642.000 40.000 0,1 1964.180,358.391 L1963.351,320.400 A1680.000,1680.000 0.000 0,0 1621.060,363.295 Z" style="stroke-width:2.0;stroke:rgb(255,255,255);stroke-linecap:round;fill:none;" />
</g>
<g id="track_0">
<path d="M 2600.918,3510.433 A 1625.580,1625.580 0.00 0,1 2599.1,3511.2 L 2599.1,3511.2 2572.0,3445.4 2542.6,3378.9 2511.1,3311.5 2477.8,3243.4 2442.6,3174.4 2405.9,3104.8 2367.7,3034.4 2328.3,2963.3 2287.6,2891.5 2246.0,2819.2 2203.4,2746.3 2160.0,2672.8 2116.0,2598.9 2071.3,2524.5 2026.2,2449.8 1980.7,2374.8 1934.9,2299.6 1888.8,2224.2 1842.5,2148.8 1796.2,2073.3 1749.7,1998.0 1703.3,1922.9 1656.9,1848.0 1610.5,1773.5 1564.2,1699.5 1518.0,1626.1 1471.9,1553.5 1426.0,1481.6 1380.1,1410.7 1334.4,1340.8 1288.7,1272.2 1243.1,1204.9 1197.5,1139.0 1151.9,1074.8 1106.3,1012.4 1060.5,951.8 1014.6,893.3 968.5,837.1 922.1,783.2  A 1625.580,1625.580 0.00 0,1 923.6,781.9 L 923.6,781.9 970.0,835.8 1016.0,892.1 1061.9,950.7 1107.6,1011.3 1153.2,1073.8 1198.7,1138.1 1244.2,1204.0 1289.8,1271.4 1335.4,1340.1 1381.1,1409.9 1427.0,1480.9 1472.9,1552.8 1519.0,1625.5 1565.1,1698.9 1611.4,1772.9 1657.8,1847.4 1704.2,1922.3 1750.6,1997.5 1797.0,2072.8 1843.4,2148.2 1889.7,2223.7 1935.8,2299.0 1981.6,2374.3 2027.2,2449.3 2072.3,2524.0 2117.0,2598.3 2161.1,2672.2 2204.5,2745.7 2247.1,2818.6 2288.8,2890.9 2329.5,2962.7 2369.0,3033.7 2407.3,3104.1 2444.1,3173.8 2479.3,3242.7 2512.7,3310.8 2544.3,3378.1 2573.7,3444.7 2600.9,3510.4  Z" style="stroke-width: 0.0;  fill: rgb(115,65,165);" />
<path d="M 2599.057,3511.172 A 1625.580,1625.580 0.00 0,1 2597.2,3511.9 L 2597.2,3511.9 2571.1,3448.9 2542.3,3385.2 2511.0,3320.9 2477.4,3255.9 2441.5,3190.4 2403.5,3124.4 2363.6,3058.0 2321.8,2991.1 2278.3,2923.8 2233.2,2856.3 2186.6,2788.5 2138.6,2720.5 2089.4,2652.4 2038.9,2584.3 1987.4,2516.2 1934.9,2448.3 1881.6,2380.5 1827.4,2313.0 1772.5,2245.9 1717.0,2179.2 1660.9,2113.1 1604.3,2047.6 1547.3,1982.9 1490.0,1918.9 1432.4,1856.0 1374.5,1794.0 1316.5,1733.3 1258.3,1673.8 1200.1,1615.7 1141.8,1559.1 1083.5,1504.1 1025.3,1450.9 967.2,1399.6 909.1,1350.3 851.2,1303.2 793.4,1258.4 735.8,1216.0 678.4,1176.1 621.1,1139.1  A 1625.580,1625.580 0.00 0,1 622.2,1137.4 L 622.2,1137.4 679.4,1174.5 736.8,1214.4 794.4,1256.9 852.1,1301.8 910.0,1349.0 968.1,1398.4 1026.2,1449.8 1084.4,1503.0 1142.6,1558.0 1200.9,1614.7 1259.1,1672.8 1317.3,1732.4 1375.3,1793.2 1433.1,1855.2 1490.8,1918.2 1548.1,1982.1 1605.1,2046.9 1661.7,2112.4 1717.8,2178.6 1773.3,2245.3 1828.2,2312.4 1882.4,2379.9 1935.8,2447.7 1988.3,2515.6 2039.9,2583.7 2090.3,2651.8 2139.7,2719.9 2187.7,2787.9 2234.3,2855.6 2279.5,2923.2 2323.1,2990.4 2364.9,3057.3 2404.9,3123.8 2443.0,3189.8 2478.9,3255.2 2512.6,3320.2 2544.0,3384.5 2572.8,3448.2 2599.1,3511.2  Z" style="stroke-width: 0.0;  fill: rgb(38,195,195);" />
<path d="M 2597.196,3511.909 A 1625.580,1625.580 0.00 0,1 2529.6,3536.9 L 2529.6,3536.9 2507.7,3477.6 2482.9,3417.9 2455.3,3357.9 2424.9,3297.8 2391.8,3237.6 2356.1,3177.5 2317.9,3117.6 2277.3,3058.0 2234.4,2998.8 2189.3,2940.1 2142.0,2882.1 2092.7,2824.7 2041.4,2768.1 1988.3,2712.5 1933.4,2657.9 1876.9,2604.3 1818.9,2552.0 1759.5,2500.9 1698.7,2451.2 1636.7,2402.9 1573.6,2356.2 1509.4,2311.1 1444.4,2267.8 1378.7,2226.2 1312.2,2186.4 1245.2,2148.6 1177.8,2112.8 1110.1,2079.1 1042.2,2047.5 974.2,2018.2 906.3,1991.1 838.5,1966.4 771.1,1944.1 704.1,1924.3 637.6,1907.0 571.9,1892.3 507.0,1880.2 443.0,1870.9 380.1,1864.3  A 1625.580,1625.580 0.00 0,1 387.7,1792.6 L 387.7,1792.6 451.0,1802.1 515.4,1814.3 580.7,1829.2 646.9,1846.8 713.7,1866.9 781.1,1889.5 848.9,1914.5 917.1,1941.9 985.5,1971.5 1054.0,2003.3 1122.6,2037.2 1191.0,2073.1 1259.1,2111.0 1327.0,2150.8 1394.3,2192.4 1461.2,2235.7 1527.3,2280.6 1592.7,2327.1 1657.1,2375.1 1720.6,2424.5 1783.0,2475.2 1844.1,2527.2 1903.9,2580.2 1962.3,2634.4 2019.2,2689.5 2074.4,2745.4 2127.9,2802.2 2179.6,2859.7 2229.3,2917.8 2276.9,2976.4 2322.4,3035.4 2365.7,3094.8 2406.6,3154.4 2445.1,3214.2 2481.0,3274.0 2514.2,3333.8 2544.8,3393.4 2572.4,3452.8 2597.2,3511.9  Z" style="stroke-width: 0.0;  fill: rgb(195,58,55);" />
<path d="M 2529.588,3536.895 A 1625.580,1625.580 0.00 0,1 2525.8,3538.2 L 2525.8,3538.2 2504.2,3479.1 2479.6,3419.6 2452.2,3359.9 2422.0,3300.1 2389.2,3240.3 2353.7,3180.7 2315.7,3121.2 2275.3,3062.2 2232.5,3003.5 2187.5,2945.5 2140.3,2888.1 2091.1,2831.5 2039.9,2775.8 1986.8,2721.0 1932.0,2667.3 1875.5,2614.8 1817.5,2563.6 1758.0,2513.7 1697.1,2465.2 1635.0,2418.3 1571.8,2373.0 1507.6,2329.3 1442.4,2287.4 1376.5,2247.4 1309.9,2209.3 1242.8,2173.2 1175.2,2139.1 1107.3,2107.2 1039.2,2077.5 971.1,2050.0 903.0,2024.8 835.2,2002.1 767.6,1981.7 700.5,1963.9 634.0,1948.5 568.3,1935.8 503.4,1925.7 439.5,1918.3 376.7,1913.6  A 1625.580,1625.580 0.00 0,1 376.9,1909.6 L 376.9,1909.6 439.7,1914.5 503.7,1922.0 568.6,1932.3 634.4,1945.2 700.9,1960.6 768.0,1978.7 835.6,1999.2 903.5,2022.1 971.6,2047.4 1039.8,2075.0 1107.9,2104.9 1175.8,2136.9 1243.5,2171.1 1310.7,2207.3 1377.3,2245.5 1443.3,2285.7 1508.5,2327.6 1572.8,2371.3 1636.1,2416.7 1698.3,2463.7 1759.2,2512.3 1818.8,2562.2 1877.0,2613.5 1933.6,2666.0 1988.5,2719.8 2041.7,2774.5 2093.0,2830.3 2142.4,2886.9 2189.7,2944.3 2234.9,3002.3 2277.8,3061.0 2318.4,3120.0 2356.5,3179.5 2392.1,3239.1 2425.2,3298.9 2455.5,3358.7 2483.1,3418.4 2507.8,3477.8 2529.6,3536.9  Z" style="stroke-width: 0.0;  fill: rgb(235,168,78);" />
<path d="M 2525.801,3538.195 A 1625.580,1625.580 0.00 0,1 2512.5,3542.7 L 2512.5,3542.7 2491.6,3483.9 2467.7,3424.8 2441.0,3365.5 2411.4,3306.1 2379.2,3246.8 2344.4,3187.7 2307.0,3129.0 2267.2,3070.6 2225.0,3012.8 2180.5,2955.7 2133.8,2899.4 2085.0,2843.9 2034.3,2789.5 1981.6,2736.1 1927.1,2683.9 1870.9,2633.1 1813.1,2583.6 1753.9,2535.5 1693.2,2489.1 1631.3,2444.2 1568.2,2401.1 1504.0,2359.8 1439.0,2320.4 1373.1,2282.9 1306.5,2247.5 1239.3,2214.1 1171.7,2182.9 1103.8,2153.9 1035.7,2127.2 967.6,2102.7 899.5,2080.7 831.6,2061.1 764.1,2043.9 697.1,2029.3 630.7,2017.2 565.1,2007.7 500.4,2000.9 436.8,1996.6 374.4,1995.1  A 1625.580,1625.580 0.00 0,1 374.5,1981.1 L 374.5,1981.1 437.1,1983.2 500.8,1987.9 565.6,1995.3 631.3,2005.4 697.8,2018.0 765.0,2033.2 832.6,2050.8 900.7,2071.0 968.9,2093.5 1037.2,2118.4 1105.5,2145.6 1173.6,2175.1 1241.4,2206.7 1308.8,2240.5 1375.6,2276.3 1441.7,2314.1 1507.1,2353.9 1571.5,2395.5 1634.9,2438.8 1697.2,2483.9 1758.2,2530.6 1817.8,2578.8 1876.0,2628.5 1932.6,2679.5 1987.5,2731.8 2040.6,2785.2 2091.9,2839.7 2141.1,2895.2 2188.3,2951.6 2233.3,3008.7 2276.0,3066.5 2316.4,3124.8 2354.3,3183.5 2389.7,3242.6 2422.5,3301.8 2452.6,3361.1 2479.9,3420.4 2504.3,3479.5 2525.8,3538.2  Z" style="stroke-width: 0.0;  fill: rgb(220,140,52);" />
<path d="M 2512.519,3542.671 A 1625.580,1625.580 0.00 0,1 2485.8,3551.3 L 2485.8,3551.3 2466.2,3493.0 2443.6,3434.4 2418.2,3375.8 2390.0,3317.1 2359.1,3258.6 2325.6,3200.5 2289.5,3142.8 2250.9,3085.7 2209.9,3029.3 2166.6,2973.7 2121.1,2919.1 2073.4,2865.6 2023.6,2813.2 1972.0,2762.2 1918.4,2712.5 1863.1,2664.3 1806.1,2617.8 1747.6,2572.9 1687.7,2529.7 1626.4,2488.5 1563.9,2449.1 1500.3,2411.8 1435.8,2376.5 1370.3,2343.3 1304.2,2312.3 1237.5,2283.6 1170.3,2257.2 1102.8,2233.1 1035.0,2211.4 967.3,2192.2 899.6,2175.4 832.2,2161.1 765.1,2149.3 698.7,2140.1 632.9,2133.4 567.9,2129.3 504.0,2127.8 441.2,2128.9 379.8,2132.5  A 1625.580,1625.580 0.00 0,1 377.8,2104.6 L 377.8,2104.6 439.5,2101.9 502.6,2101.9 566.9,2104.5 632.2,2109.7 698.3,2117.4 765.2,2127.7 832.6,2140.5 900.4,2155.9 968.4,2173.6 1036.6,2193.9 1104.8,2216.5 1172.8,2241.5 1240.5,2268.7 1307.7,2298.3 1374.4,2330.0 1440.4,2363.9 1505.6,2399.8 1569.9,2437.8 1633.1,2477.7 1695.1,2519.5 1755.9,2563.1 1815.2,2608.4 1873.0,2655.3 1929.2,2703.7 1983.6,2753.6 2036.3,2804.9 2087.0,2857.3 2135.7,2911.0 2182.3,2965.6 2226.6,3021.2 2268.7,3077.6 2308.3,3134.7 2345.5,3192.4 2380.2,3250.4 2412.2,3308.8 2441.5,3367.4 2468.1,3426.0 2491.8,3484.5 2512.5,3542.7  Z" style="stroke-width: 0.0;  fill: rgb(108,170,228);" />
<path d="M 2485.841,3551.280 A 1625.580,1625.580 0.00 0,1 2449.4,3562.2 L 2449.4,3562.2 2431.5,3504.8 2410.8,3447.3 2387.3,3389.7 2361.0,3332.3 2332.1,3275.3 2300.6,3218.8 2266.6,3163.1 2230.0,3108.1 2191.1,3054.2 2149.8,3001.4 2106.3,2949.8 2060.6,2899.7 2012.8,2851.0 1963.1,2804.0 1911.4,2758.7 1857.9,2715.3 1802.8,2673.8 1746.0,2634.3 1687.8,2597.0 1628.2,2561.8 1567.3,2528.9 1505.3,2498.2 1442.4,2470.0 1378.5,2444.2 1313.9,2420.8 1248.7,2399.9 1183.0,2381.6 1117.0,2365.8 1050.9,2352.6 984.7,2342.0 918.7,2334.0 852.9,2328.5 787.6,2325.7 722.9,2325.4 659.1,2327.6 596.2,2332.4 534.4,2339.6 474.0,2349.3 415.1,2361.3  A 1625.580,1625.580 0.00 0,1 407.1,2324.1 L 407.1,2324.1 466.6,2313.4 527.7,2305.1 590.1,2299.2 653.6,2295.8 718.2,2295.0 783.5,2296.7 849.5,2300.9 916.0,2307.7 982.8,2317.1 1049.8,2329.0 1116.7,2343.5 1183.6,2360.5 1250.1,2379.9 1316.3,2401.9 1381.9,2426.3 1446.7,2453.1 1510.8,2482.3 1573.9,2513.7 1635.9,2547.4 1696.6,2583.3 1756.1,2621.3 1814.1,2661.3 1870.6,2703.3 1925.4,2747.2 1978.5,2792.8 2029.6,2840.1 2078.9,2889.0 2126.0,2939.3 2171.1,2990.9 2213.8,3043.8 2254.3,3097.8 2292.4,3152.7 2328.0,3208.4 2361.0,3264.8 2391.5,3321.7 2419.2,3379.0 2444.3,3436.5 2466.5,3494.0 2485.8,3551.3  Z" style="stroke-width: 0.0;  fill: rgb(200,108,30);" />
<path d="M 2449.407,3562.224 A 1625.580,1625.580 0.00 0,1 2447.5,3562.8 L 2447.5,3562.8 2431.9,3510.9 2415.0,3459.7 2396.8,3409.2 2377.4,3360.0 2356.8,3312.3 2335.2,3266.5 2312.5,3222.6 2288.8,3181.1 2264.3,3142.2 2238.8,3106.0 2212.6,3072.8 2185.7,3042.7 2158.2,3015.9 2130.0,2992.6 2101.4,2972.7 2072.3,2956.5 2042.8,2944.1 2013.0,2935.4 1983.0,2930.5 1952.8,2929.4 1922.5,2932.2 1892.2,2938.9 1861.9,2949.3 1831.8,2963.4 1801.8,2981.2 1772.1,3002.6 1742.8,3027.4 1713.9,3055.6 1685.4,3086.9 1657.6,3121.3 1630.4,3158.4 1603.9,3198.2 1578.3,3240.3 1553.5,3284.6 1529.7,3330.8 1506.9,3378.5 1485.3,3427.6 1464.9,3477.6 1445.8,3528.2  A 1625.580,1625.580 0.00 0,1 1443.9,3527.5 L 1443.9,3527.5 1463.1,3476.9 1483.6,3426.9 1505.3,3377.9 1528.1,3330.2 1552.0,3284.0 1576.9,3239.8 1602.6,3197.6 1629.2,3157.9 1656.5,3120.7 1684.4,3086.4 1712.9,3055.1 1742.0,3027.0 1771.4,3002.2 1801.2,2980.8 1831.3,2963.0 1861.5,2948.9 1891.9,2938.5 1922.4,2931.8 1952.8,2929.0 1983.1,2930.1 2013.2,2935.0 2043.1,2943.7 2072.7,2956.2 2101.9,2972.3 2130.7,2992.2 2158.9,3015.5 2186.6,3042.3 2213.6,3072.4 2239.9,3105.6 2265.4,3141.8 2290.1,3180.7 2313.9,3222.2 2336.6,3266.0 2358.4,3311.9 2379.0,3359.5 2398.5,3408.7 2416.8,3459.1 2433.8,3510.4 2449.4,3562.2  Z" style="stroke-width: 0.0;  fill: rgb(42,98,180);" />
</g>
<defs>
<pattern id="hline-sparse" width="10" height="10" patternTransform="rotate(0 0 0)" patternUnits="userSpaceOnUse"><line x1="0" y1="0" x2="10" y2="0" style="stroke:black;stroke-width:2" /></pattern>
<pattern id="vline-sparse" width="10" height="10" patternTransform="rotate(0 0 0)" patternUnits="userSpaceOnUse"><line x1="0" y1="0" x2="0" y2="10" style="stroke:black;stroke-width:2" /></pattern>
<pattern id="checker" width="10" height="10" patternTransform="rotate(45 0 0)" patternUnits="userSpaceOnUse"><line x1="0" y1="0" x2="10" y2="0" style="stroke:black;stroke-width:5" /><line x1="0" y1="0" x2="0" y2="10" style="stroke:black;stroke-width:4" /></pattern>
<pattern id="checker" width="10" height="10" patternTransform="rotate(45 0 0)" patternUnits="userSpaceOnUse"><line x1="0" y1="0" x2="10" y2="0" style="stroke:black;stroke-width:2" /><line x1="0" y1="0" x2="0" y2="10" style="stroke:black;stroke-width:2" /></pattern>
<pattern id="vline" width="10" height="10" patternTransform="rotate(0 0 0)" patternUnits="userSpaceOnUse"><line x1="0" y1="0" x2="0" y2="10" style="stroke:black;stroke-width:5" /></pattern>
<pattern id="hline" width="10" height="10" patternTransform="rotate(0 0 0)" patternUnits="userSpaceOnUse"><line x1="0" y1="0" x2="10" y2="0" style="stroke:black;stroke-width:5" /></pattern>
</defs>
</svg>
