<?xml version="1.0" encoding="utf-8" standalone="no"?>
<!DOCTYPE svg PUBLIC "-//W3C//DTD SVG 1.1//EN" "http://www.w3.org/Graphics/SVG/1.1/DTD/svg11.dtd">
<svg width="4000px" height="4000px" version="1.1" xmlns="http://www.w3.org/2000/svg" xmlns:xlink="http://www.w3.org/1999/xlink">
<g id="bg">
<rect x="0" y="0" width="4000px" height="4000px" style="fill:rgb(255,255,255);"/>
</g>
<g id="ideograms">
<path d="M2000.000,358.000 A1642.000,1642.000 40.000 0,1 2751.610,540.121 L2769.004,506.336 A1680.000,1680.000 0.000 0,0 2000.000,320.000 Z" style="stroke-width:2.0;stroke:rgb(255,255,255);stroke-linecap:round;fill:rgb(185,185,185);" />
<text x="2427.0" y="305.8" font-size="36.4px" font-family="CMUBright-Roman" style="text-anchor:start;fill:rgb(0,0,0);" transform="rotate(283.6,2427.0,305.8)" >Management-Operations</text>
<path d="M2000.000,358.000 A1642.000,1642.000 40.000 0,1 2751.610,540.121 L2769.004,506.336 A1680.000,1680.000 0.000 0,0 2000.000,320.000 Z" style="stroke-width:2.0;stroke:rgb(255,255,255);stroke-linecap:round;fill:none;" />
<path d="M2783.279,556.865 A1642.000,1642.000 40.000 0,1 3226.411,908.176 L3254.793,882.908 A1680.000,1680.000 0.000 0,0 2801.406,523.467 Z" style="stroke-width:2.0;stroke:rgb(255,255,255);stroke-linecap:round;fill:rgb(185,185,185);" />
<text x="3097.5" y="640.5" font-size="36.4px" font-family="CMUBright-Roman" style="text-anchor:start;fill:rgb(0,0,0);" transform="rotate(308.4,3097.5,640.5)" >Engineering</text>
<path d="M2783.279,556.865 A1642.000,1642.000 40.000 0,1 3226.411,908.176 L3254.793,882.908 A1680.000,1680.000 0.000 0,0 2801.406,523.467 Z" style="stroke-width:2.0;stroke:rgb(255,255,255);stroke-linecap:round;fill:none;" />
<path d="M3249.937,935.189 A1642.000,1642.000 40.000 0,1 3507.538,1349.236 L3542.426,1334.176 A1680.000,1680.000 0.000 0,0 3278.864,910.547 Z" style="stroke-width:2.0;stroke:rgb(255,255,255);stroke-linecap:round;fill:rgb(185,185,185);" />
<text x="3491.6" y="1090.2" font-size="36.4px" font-family="CMUBright-Roman" style="text-anchor:start;fill:rgb(0,0,0);" transform="rotate(328.1,3491.6,1090.2)" >Leadership-General</text>
<path d="M3249.937,935.189 A1642.000,1642.000 40.000 0,1 3507.538,1349.236 L3542.426,1334.176 A1680.000,1680.000 0.000 0,0 3278.864,910.547 Z" style="stroke-width:2.0;stroke:rgb(255,255,255);stroke-linecap:round;fill:none;" />
<path d="M3521.375,1382.278 A1642.000,1642.000 40.000 0,1 3633.192,1830.154 L3670.988,1826.223 A1680.000,1680.000 0.000 0,0 3556.584,1367.982 Z" style="stroke-width:2.0;stroke:rgb(255,255,255);stroke-linecap:round;fill:rgb(185,185,185);" />
<text x="3699.0" y="1592.3" font-size="36.4px" font-family="CMUBright-Roman" style="text-anchor:start;fill:rgb(0,0,0);" transform="rotate(346.0,3699.0,1592.3)" >Sales-Marketing</text>
<path d="M3521.375,1382.278 A1642.000,1642.000 40.000 0,1 3633.192,1830.154 L3670.988,1826.223 A1680.000,1680.000 0.000 0,0 3556.584,1367.982 Z" style="stroke-width:2.0;stroke:rgb(255,255,255);stroke-linecap:round;fill:none;" />
<path d="M3636.509,1865.822 A1642.000,1642.000 40.000 0,1 3610.774,2318.704 L3648.051,2326.079 A1680.000,1680.000 0.000 0,0 3674.381,1862.717 Z" style="stroke-width:2.0;stroke:rgb(255,255,255);stroke-linecap:round;fill:rgb(185,185,185);" />
<text x="3743.6" y="2111.6" font-size="36.4px" font-family="CMUBright-Roman" style="text-anchor:start;fill:rgb(0,0,0);" transform="rotate(3.3,3743.6,2111.6)" >Finance-Investment</text>
<path d="M3636.509,1865.822 A1642.000,1642.000 40.000 0,1 3610.774,2318.704 L3648.051,2326.079 A1680.000,1680.000 0.000 0,0 3674.381,1862.717 Z" style="stroke-width:2.0;stroke:rgb(255,255,255);stroke-linecap:round;fill:none;" />
<path d="M3603.438,2353.767 A1642.000,1642.000 40.000 0,1 3499.856,2668.278 L3534.566,2683.744 A1680.000,1680.000 0.000 0,0 3640.546,2361.954 Z" style="stroke-width:2.0;stroke:rgb(255,255,255);stroke-linecap:round;fill:rgb(185,185,185);" />
<text x="3655.6" y="2558.4" font-size="36.4px" font-family="CMUBright-Roman" style="text-anchor:start;fill:rgb(0,0,0);" transform="rotate(18.2,3655.6,2558.4)" >Software-Data</text>
<path d="M3603.438,2353.767 A1642.000,1642.000 40.000 0,1 3499.856,2668.278 L3534.566,2683.744 A1680.000,1680.000 0.000 0,0 3640.546,2361.954 Z" style="stroke-width:2.0;stroke:rgb(255,255,255);stroke-linecap:round;fill:none;" />
<path d="M3484.921,2700.839 A1642.000,1642.000 40.000 0,1 3330.895,2961.708 L3361.695,2983.964 A1680.000,1680.000 0.000 0,0 3519.285,2717.058 Z" style="stroke-width:2.0;stroke:rgb(255,255,255);stroke-linecap:round;fill:rgb(185,185,185);" />
<text x="3498.1" y="2899.1" font-size="36.4px" font-family="CMUBright-Roman" style="text-anchor:start;fill:rgb(0,0,0);" transform="rotate(30.6,3498.1,2899.1)" >Education</text>
<path d="M3484.921,2700.839 A1642.000,1642.000 40.000 0,1 3330.895,2961.708 L3361.695,2983.964 A1680.000,1680.000 0.000 0,0 3519.285,2717.058 Z" style="stroke-width:2.0;stroke:rgb(255,255,255);stroke-linecap:round;fill:none;" />
<path d="M3309.599,2990.512 A1642.000,1642.000 40.000 0,1 3129.055,3192.225 L3155.184,3219.816 A1680.000,1680.000 0.000 0,0 3339.906,3013.435 Z" style="stroke-width:2.0;stroke:rgb(255,255,255);stroke-linecap:round;fill:rgb(185,185,185);" />
<text x="3293.5" y="3174.5" font-size="36.4px" font-family="CMUBright-Roman" style="text-anchor:start;fill:rgb(0,0,0);" transform="rotate(41.8,3293.5,3174.5)" >Research-Science</text>
<path d="M3309.599,2990.512 A1642.000,1642.000 40.000 0,1 3129.055,3192.225 L3155.184,3219.816 A1680.000,1680.000 0.000 0,0 3339.906,3013.435 Z" style="stroke-width:2.0;stroke:rgb(255,255,255);stroke-linecap:round;fill:none;" />
<path d="M3102.778,3216.571 A1642.000,1642.000 40.000 0,1 2891.302,3379.038 L2911.929,3410.952 A1680.000,1680.000 0.000 0,0 3128.299,3244.726 Z" style="stroke-width:2.0;stroke:rgb(255,255,255);stroke-linecap:round;fill:rgb(185,185,185);" />
<text x="3054.5" y="3393.1" font-size="36.4px" font-family="CMUBright-Roman" style="text-anchor:start;fill:rgb(0,0,0);" transform="rotate(52.5,3054.5,3393.1)" >Clinical-Care</text>
<path d="M3102.778,3216.571 A1642.000,1642.000 40.000 0,1 2891.302,3379.038 L2911.929,3410.952 A1680.000,1680.000 0.000 0,0 3128.299,3244.726 Z" style="stroke-width:2.0;stroke:rgb(255,255,255);stroke-linecap:round;fill:none;" />
<path d="M2861.006,3398.153 A1642.000,1642.000 40.000 0,1 2640.127,3512.085 L2654.941,3547.079 A1680.000,1680.000 0.000 0,0 2880.932,3430.510 Z" style="stroke-width:2.0;stroke:rgb(255,255,255);stroke-linecap:round;fill:rgb(185,185,185);" />
<text x="2786.7" y="3560.1" font-size="36.4px" font-family="CMUBright-Roman" style="text-anchor:start;fill:rgb(0,0,0);" transform="rotate(62.7,2786.7,3560.1)" >Accounting-Audit</text>
<path d="M2861.006,3398.153 A1642.000,1642.000 40.000 0,1 2640.127,3512.085 L2654.941,3547.079 A1680.000,1680.000 0.000 0,0 2880.932,3430.510 Z" style="stroke-width:2.0;stroke:rgb(255,255,255);stroke-linecap:round;fill:none;" />
<path d="M2606.988,3525.690 A1642.000,1642.000 40.000 0,1 2452.002,3578.562 L2462.463,3615.094 A1680.000,1680.000 0.000 0,0 2621.036,3560.998 Z" style="stroke-width:2.0;stroke:rgb(255,255,255);stroke-linecap:round;fill:rgb(185,185,185);" />
<text x="2552.3" y="3657.6" font-size="36.4px" font-family="CMUBright-Roman" style="text-anchor:start;fill:rgb(0,0,0);" transform="rotate(71.2,2552.3,3657.6)" >Social-Service</text>
<path d="M2606.988,3525.690 A1642.000,1642.000 40.000 0,1 2452.002,3578.562 L2462.463,3615.094 A1680.000,1680.000 0.000 0,0 2621.036,3560.998 Z" style="stroke-width:2.0;stroke:rgb(255,255,255);stroke-linecap:round;fill:none;" />
<path d="M2417.459,3588.047 A1642.000,1642.000 40.000 0,1 2320.910,3610.336 L2328.336,3647.603 A1680.000,1680.000 0.000 0,0 2427.120,3624.798 Z" style="stroke-width:2.0;stroke:rgb(255,255,255);stroke-linecap:round;fill:rgb(185,185,185);" />
<text x="2380.8" y="3705.2" font-size="36.4px" font-family="CMUBright-Roman" style="text-anchor:start;fill:rgb(0,0,0);" transform="rotate(77.0,2380.8,3705.2)" >IT-Infrastructure</text>
<path d="M2417.459,3588.047 A1642.000,1642.000 40.000 0,1 2320.910,3610.336 L2328.336,3647.603 A1680.000,1680.000 0.000 0,0 2427.120,3624.798 Z" style="stroke-width:2.0;stroke:rgb(255,255,255);stroke-linecap:round;fill:none;" />
<path d="M2285.704,3616.953 A1642.000,1642.000 40.000 0,1 2189.660,3631.010 L2194.050,3668.755 A1680.000,1680.000 0.000 0,0 2292.316,3654.373 Z" style="stroke-width:2.0;stroke:rgb(255,255,255);stroke-linecap:round;fill:rgb(185,185,185);" />
<text x="2237.2" y="3731.0" font-size="36.4px" font-family="CMUBright-Roman" style="text-anchor:start;fill:rgb(0,0,0);" transform="rotate(81.7,2237.2,3731.0)" >Legal-Policy</text>
<path d="M2285.704,3616.953 A1642.000,1642.000 40.000 0,1 2189.660,3631.010 L2194.050,3668.755 A1680.000,1680.000 0.000 0,0 2292.316,3654.373 Z" style="stroke-width:2.0;stroke:rgb(255,255,255);stroke-linecap:round;fill:none;" />
<path d="M2154.035,3634.759 A1642.000,1642.000 40.000 0,1 1474.020,3555.477 L1461.848,3591.475 A1680.000,1680.000 0.000 0,0 2157.600,3672.592 Z" style="stroke-width:2.0;stroke:rgb(255,255,255);stroke-linecap:round;fill:rgb(15,52,135);" />
<text x="1813.6" y="3737.2" font-size="36.4px" font-family="CMUBright-Roman" style="text-anchor:end;fill:rgb(0,0,0);" transform="rotate(-83.3,1813.6,3737.2)" >Finance-Accounting</text>
<path d="M2154.035,3634.759 A1642.000,1642.000 40.000 0,1 1474.020,3555.477 L1461.848,3591.475 A1680.000,1680.000 0.000 0,0 2157.600,3672.592 Z" style="stroke-width:2.0;stroke:rgb(255,255,255);stroke-linecap:round;fill:none;" />
<path d="M1440.213,3543.633 A1642.000,1642.000 40.000 0,1 888.845,3208.925 L863.130,3236.902 A1680.000,1680.000 0.000 0,0 1427.258,3579.356 Z" style="stroke-width:2.0;stroke:rgb(255,255,255);stroke-linecap:round;fill:rgb(42,98,180);" />
<text x="1104.1" y="3500.0" font-size="36.4px" font-family="CMUBright-Roman" style="text-anchor:end;fill:rgb(0,0,0);" transform="rotate(-58.7,1104.1,3500.0)" >General-Business</text>
<path d="M1440.213,3543.633 A1642.000,1642.000 40.000 0,1 888.845,3208.925 L863.130,3236.902 A1680.000,1680.000 0.000 0,0 1427.258,3579.356 Z" style="stroke-width:2.0;stroke:rgb(255,255,255);stroke-linecap:round;fill:none;" />
<path d="M862.737,3184.397 A1642.000,1642.000 40.000 0,1 624.574,2896.866 L592.744,2917.622 A1680.000,1680.000 0.000 0,0 836.418,3211.807 Z" style="stroke-width:2.0;stroke:rgb(255,255,255);stroke-linecap:round;fill:rgb(28,75,160);" />
<text x="664.7" y="3126.8" font-size="36.4px" font-family="CMUBright-Roman" style="text-anchor:end;fill:rgb(0,0,0);" transform="rotate(-39.6,664.7,3126.8)" >Marketing-Communication</text>
<path d="M862.737,3184.397 A1642.000,1642.000 40.000 0,1 624.574,2896.866 L592.744,2917.622 A1680.000,1680.000 0.000 0,0 836.418,3211.807 Z" style="stroke-width:2.0;stroke:rgb(255,255,255);stroke-linecap:round;fill:none;" />
<path d="M605.337,2866.648 A1642.000,1642.000 40.000 0,1 476.558,2612.607 L441.301,2626.784 A1680.000,1680.000 0.000 0,0 573.061,2886.704 Z" style="stroke-width:2.0;stroke:rgb(255,255,255);stroke-linecap:round;fill:rgb(60,120,198);" />
<text x="448.7" y="2803.8" font-size="36.4px" font-family="CMUBright-Roman" style="text-anchor:end;fill:rgb(0,0,0);" transform="rotate(-26.9,448.7,2803.8)" >Operations-Analytics</text>
<path d="M605.337,2866.648 A1642.000,1642.000 40.000 0,1 476.558,2612.607 L441.301,2626.784 A1680.000,1680.000 0.000 0,0 573.061,2886.704 Z" style="stroke-width:2.0;stroke:rgb(255,255,255);stroke-linecap:round;fill:none;" />
<path d="M463.556,2579.227 A1642.000,1642.000 40.000 0,1 407.419,2399.813 L370.563,2409.066 A1680.000,1680.000 0.000 0,0 427.999,2592.632 Z" style="stroke-width:2.0;stroke:rgb(255,255,255);stroke-linecap:round;fill:rgb(82,145,215);" />
<text x="337.2" y="2536.5" font-size="36.4px" font-family="CMUBright-Roman" style="text-anchor:end;fill:rgb(0,0,0);" transform="rotate(-17.4,337.2,2536.5)" >Specialized-Business</text>
<path d="M463.556,2579.227 A1642.000,1642.000 40.000 0,1 407.419,2399.813 L370.563,2409.066 A1680.000,1680.000 0.000 0,0 427.999,2592.632 Z" style="stroke-width:2.0;stroke:rgb(255,255,255);stroke-linecap:round;fill:none;" />
<path d="M399.076,2364.976 A1642.000,1642.000 40.000 0,1 366.776,2169.540 L328.979,2173.464 A1680.000,1680.000 0.000 0,0 362.027,2373.422 Z" style="stroke-width:2.0;stroke:rgb(255,255,255);stroke-linecap:round;fill:rgb(200,108,30);" />
<text x="278.3" y="2297.2" font-size="36.4px" font-family="CMUBright-Roman" style="text-anchor:end;fill:rgb(0,0,0);" transform="rotate(-9.4,278.3,2297.2)" >Social-Sciences</text>
<path d="M399.076,2364.976 A1642.000,1642.000 40.000 0,1 366.776,2169.540 L328.979,2173.464 A1680.000,1680.000 0.000 0,0 362.027,2373.422 Z" style="stroke-width:2.0;stroke:rgb(255,255,255);stroke-linecap:round;fill:none;" />
<path d="M363.466,2133.872 A1642.000,1642.000 40.000 0,1 358.290,2030.870 L320.297,2031.584 A1680.000,1680.000 0.000 0,0 325.593,2136.970 Z" style="stroke-width:2.0;stroke:rgb(255,255,255);stroke-linecap:round;fill:rgb(108,170,228);" />
<text x="255.6" y="2099.7" font-size="36.4px" font-family="CMUBright-Roman" style="text-anchor:end;fill:rgb(0,0,0);" transform="rotate(-2.9,255.6,2099.7)" >Economics</text>
<path d="M363.466,2133.872 A1642.000,1642.000 40.000 0,1 358.290,2030.870 L320.297,2031.584 A1680.000,1680.000 0.000 0,0 325.593,2136.970 Z" style="stroke-width:2.0;stroke:rgb(255,255,255);stroke-linecap:round;fill:none;" />
<path d="M358.007,1995.049 A1642.000,1642.000 40.000 0,1 358.807,1948.539 L320.825,1947.348 A1680.000,1680.000 0.000 0,0 320.008,1994.934 Z" style="stroke-width:2.0;stroke:rgb(255,255,255);stroke-linecap:round;fill:rgb(220,140,52);" />
<text x="252.9" y="1982.5" font-size="36.4px" font-family="CMUBright-Roman" style="text-anchor:end;fill:rgb(0,0,0);" transform="rotate(1.0,252.9,1982.5)" >Humanities-Liberal-Arts</text>
<path d="M358.007,1995.049 A1642.000,1642.000 40.000 0,1 358.807,1948.539 L320.825,1947.348 A1680.000,1680.000 0.000 0,0 320.008,1994.934 Z" style="stroke-width:2.0;stroke:rgb(255,255,255);stroke-linecap:round;fill:none;" />
<path d="M360.320,1912.749 A1642.000,1642.000 40.000 0,1 361.133,1898.615 L323.205,1896.269 A1680.000,1680.000 0.000 0,0 322.373,1910.730 Z" style="stroke-width:2.0;stroke:rgb(255,255,255);stroke-linecap:round;fill:rgb(235,168,78);" />
<text x="255.0" y="1912.1" font-size="36.4px" font-family="CMUBright-Roman" style="text-anchor:end;fill:rgb(0,0,0);" transform="rotate(3.3,255.0,1912.1)" >International-Studies</text>
<path d="M360.320,1912.749 A1642.000,1642.000 40.000 0,1 361.133,1898.615 L323.205,1896.269 A1680.000,1680.000 0.000 0,0 322.373,1910.730 Z" style="stroke-width:2.0;stroke:rgb(255,255,255);stroke-linecap:round;fill:none;" />
<path d="M363.735,1862.887 A1642.000,1642.000 40.000 0,1 391.336,1670.812 L354.108,1663.193 A1680.000,1680.000 0.000 0,0 325.867,1859.714 Z" style="stroke-width:2.0;stroke:rgb(255,255,255);stroke-linecap:round;fill:rgb(195,58,55);" />
<text x="268.8" y="1763.9" font-size="36.4px" font-family="CMUBright-Roman" style="text-anchor:end;fill:rgb(0,0,0);" transform="rotate(8.2,268.8,1763.9)" >Social-Work</text>
<path d="M363.735,1862.887 A1642.000,1642.000 40.000 0,1 391.336,1670.812 L354.108,1663.193 A1680.000,1680.000 0.000 0,0 325.867,1859.714 Z" style="stroke-width:2.0;stroke:rgb(255,255,255);stroke-linecap:round;fill:none;" />
<path d="M398.900,1635.797 A1642.000,1642.000 40.000 0,1 428.981,1522.439 L392.624,1511.387 A1680.000,1680.000 0.000 0,0 361.847,1627.368 Z" style="stroke-width:2.0;stroke:rgb(255,255,255);stroke-linecap:round;fill:rgb(175,35,42);" />
<text x="308.1" y="1564.0" font-size="36.4px" font-family="CMUBright-Roman" style="text-anchor:end;fill:rgb(0,0,0);" transform="rotate(14.9,308.1,1564.0)" >Teacher-Education</text>
<path d="M398.900,1635.797 A1642.000,1642.000 40.000 0,1 428.981,1522.439 L392.624,1511.387 A1680.000,1680.000 0.000 0,0 361.847,1627.368 Z" style="stroke-width:2.0;stroke:rgb(255,255,255);stroke-linecap:round;fill:none;" />
<path d="M439.773,1488.281 A1642.000,1642.000 40.000 0,1 474.975,1391.343 L439.682,1377.257 A1680.000,1680.000 0.000 0,0 403.666,1476.439 Z" style="stroke-width:2.0;stroke:rgb(255,255,255);stroke-linecap:round;fill:rgb(215,82,72);" />
<text x="352.5" y="1418.2" font-size="36.4px" font-family="CMUBright-Roman" style="text-anchor:end;fill:rgb(0,0,0);" transform="rotate(20.0,352.5,1418.2)" >Special-Education</text>
<path d="M439.773,1488.281 A1642.000,1642.000 40.000 0,1 474.975,1391.343 L439.682,1377.257 A1680.000,1680.000 0.000 0,0 403.666,1476.439 Z" style="stroke-width:2.0;stroke:rgb(255,255,255);stroke-linecap:round;fill:none;" />
<path d="M488.616,1358.220 A1642.000,1642.000 40.000 0,1 509.092,1311.991 L474.588,1296.068 A1680.000,1680.000 0.000 0,0 453.639,1343.368 Z" style="stroke-width:2.0;stroke:rgb(255,255,255);stroke-linecap:round;fill:rgb(230,112,95);" />
<text x="396.3" y="1306.6" font-size="36.4px" font-family="CMUBright-Roman" style="text-anchor:end;fill:rgb(0,0,0);" transform="rotate(23.9,396.3,1306.6)" >Educational-Leadership</text>
<path d="M488.616,1358.220 A1642.000,1642.000 40.000 0,1 509.092,1311.991 L474.588,1296.068 A1680.000,1680.000 0.000 0,0 453.639,1343.368 Z" style="stroke-width:2.0;stroke:rgb(255,255,255);stroke-linecap:round;fill:none;" />
<path d="M524.455,1279.630 A1642.000,1642.000 40.000 0,1 553.988,1222.045 L520.524,1204.041 A1680.000,1680.000 0.000 0,0 490.308,1262.959 Z" style="stroke-width:2.0;stroke:rgb(255,255,255);stroke-linecap:round;fill:rgb(0,130,142);" />
<text x="439.7" y="1213.8" font-size="36.4px" font-family="CMUBright-Roman" style="text-anchor:end;fill:rgb(0,0,0);" transform="rotate(27.2,439.7,1213.8)" >Communication-Studies</text>
<path d="M524.455,1279.630 A1642.000,1642.000 40.000 0,1 553.988,1222.045 L520.524,1204.041 A1680.000,1680.000 0.000 0,0 490.308,1262.959 Z" style="stroke-width:2.0;stroke:rgb(255,255,255);stroke-linecap:round;fill:none;" />
<path d="M571.303,1190.686 A1642.000,1642.000 40.000 0,1 588.562,1160.949 L555.898,1141.531 A1680.000,1680.000 0.000 0,0 538.240,1171.956 Z" style="stroke-width:2.0;stroke:rgb(255,255,255);stroke-linecap:round;fill:rgb(0,165,172);" />
<text x="482.6" y="1133.8" font-size="36.4px" font-family="CMUBright-Roman" style="text-anchor:end;fill:rgb(0,0,0);" transform="rotate(30.1,482.6,1133.8)" >Journalism-Media</text>
<path d="M571.303,1190.686 A1642.000,1642.000 40.000 0,1 588.562,1160.949 L555.898,1141.531 A1680.000,1680.000 0.000 0,0 538.240,1171.956 Z" style="stroke-width:2.0;stroke:rgb(255,255,255);stroke-linecap:round;fill:none;" />
<path d="M607.202,1130.358 A1642.000,1642.000 40.000 0,1 613.667,1120.089 L581.583,1099.725 A1680.000,1680.000 0.000 0,0 574.969,1110.233 Z" style="stroke-width:2.0;stroke:rgb(255,255,255);stroke-linecap:round;fill:rgb(38,195,195);" />
<text x="512.9" y="1082.8" font-size="36.4px" font-family="CMUBright-Roman" style="text-anchor:end;fill:rgb(0,0,0);" transform="rotate(32.2,512.9,1082.8)" >Creative-Writing</text>
<path d="M607.202,1130.358 A1642.000,1642.000 40.000 0,1 613.667,1120.089 L581.583,1099.725 A1680.000,1680.000 0.000 0,0 574.969,1110.233 Z" style="stroke-width:2.0;stroke:rgb(255,255,255);stroke-linecap:round;fill:none;" />
<path d="M633.192,1090.055 A1642.000,1642.000 40.000 0,1 667.742,1040.182 L636.910,1017.969 A1680.000,1680.000 0.000 0,0 601.560,1068.997 Z" style="stroke-width:2.0;stroke:rgb(255,255,255);stroke-linecap:round;fill:rgb(180,45,112);" />
<text x="554.7" y="1018.2" font-size="36.4px" font-family="CMUBright-Roman" style="text-anchor:end;fill:rgb(0,0,0);" transform="rotate(34.7,554.7,1018.2)" >Arts-Theology</text>
<path d="M633.192,1090.055 A1642.000,1642.000 40.000 0,1 667.742,1040.182 L636.910,1017.969 A1680.000,1680.000 0.000 0,0 601.560,1068.997 Z" style="stroke-width:2.0;stroke:rgb(255,255,255);stroke-linecap:round;fill:none;" />
<path d="M688.997,1011.347 A1642.000,1642.000 40.000 0,1 698.803,998.477 L668.690,975.299 A1680.000,1680.000 0.000 0,0 658.657,988.467 Z" style="stroke-width:2.0;stroke:rgb(255,255,255);stroke-linecap:round;fill:rgb(205,75,142);" />
<text x="600.6" y="953.9" font-size="36.4px" font-family="CMUBright-Roman" style="text-anchor:end;fill:rgb(0,0,0);" transform="rotate(37.3,600.6,953.9)" >English-Writing</text>
<path d="M688.997,1011.347 A1642.000,1642.000 40.000 0,1 698.803,998.477 L668.690,975.299 A1680.000,1680.000 0.000 0,0 658.657,988.467 Z" style="stroke-width:2.0;stroke:rgb(255,255,255);stroke-linecap:round;fill:none;" />
<path d="M720.960,970.329 A1642.000,1642.000 40.000 0,1 724.774,965.610 L695.262,941.672 A1680.000,1680.000 0.000 0,0 691.360,946.500 Z" style="stroke-width:2.0;stroke:rgb(255,255,255);stroke-linecap:round;fill:rgb(225,110,168);" />
<text x="631.0" y="914.3" font-size="36.4px" font-family="CMUBright-Roman" style="text-anchor:end;fill:rgb(0,0,0);" transform="rotate(38.9,631.0,914.3)" >Languages</text>
<path d="M720.960,970.329 A1642.000,1642.000 40.000 0,1 724.774,965.610 L695.262,941.672 A1680.000,1680.000 0.000 0,0 691.360,946.500 Z" style="stroke-width:2.0;stroke:rgb(255,255,255);stroke-linecap:round;fill:none;" />
<path d="M747.643,938.037 A1642.000,1642.000 40.000 0,1 884.635,794.959 L858.822,767.071 A1680.000,1680.000 0.000 0,0 718.660,913.461 Z" style="stroke-width:2.0;stroke:rgb(255,255,255);stroke-linecap:round;fill:rgb(88,40,138);" />
<text x="727.0" y="803.3" font-size="36.4px" font-family="CMUBright-Roman" style="text-anchor:end;fill:rgb(0,0,0);" transform="rotate(43.8,727.0,803.3)" >Biological-Sciences</text>
<path d="M747.643,938.037 A1642.000,1642.000 40.000 0,1 884.635,794.959 L858.822,767.071 A1680.000,1680.000 0.000 0,0 718.660,913.461 Z" style="stroke-width:2.0;stroke:rgb(255,255,255);stroke-linecap:round;fill:none;" />
<path d="M911.188,770.914 A1642.000,1642.000 40.000 0,1 969.888,721.316 L946.049,691.724 A1680.000,1680.000 0.000 0,0 885.990,742.470 Z" style="stroke-width:2.0;stroke:rgb(255,255,255);stroke-linecap:round;fill:rgb(115,65,165);" />
<text x="862.8" y="673.5" font-size="36.4px" font-family="CMUBright-Roman" style="text-anchor:end;fill:rgb(0,0,0);" transform="rotate(49.8,862.8,673.5)" >Health-Wellness</text>
<path d="M911.188,770.914 A1642.000,1642.000 40.000 0,1 969.888,721.316 L946.049,691.724 A1680.000,1680.000 0.000 0,0 885.990,742.470 Z" style="stroke-width:2.0;stroke:rgb(255,255,255);stroke-linecap:round;fill:none;" />
<path d="M998.028,699.148 A1642.000,1642.000 40.000 0,1 1023.858,679.655 L1001.267,649.099 A1680.000,1680.000 0.000 0,0 974.840,669.043 Z" style="stroke-width:2.0;stroke:rgb(255,255,255);stroke-linecap:round;fill:rgb(140,92,188);" />
<text x="935.2" y="614.8" font-size="36.4px" font-family="CMUBright-Roman" style="text-anchor:end;fill:rgb(0,0,0);" transform="rotate(53.0,935.2,614.8)" >Physical-Sciences</text>
<path d="M998.028,699.148 A1642.000,1642.000 40.000 0,1 1023.858,679.655 L1001.267,649.099 A1680.000,1680.000 0.000 0,0 974.840,669.043 Z" style="stroke-width:2.0;stroke:rgb(255,255,255);stroke-linecap:round;fill:none;" />
<path d="M1052.893,658.675 A1642.000,1642.000 40.000 0,1 1064.493,650.559 L1042.843,619.329 A1680.000,1680.000 0.000 0,0 1030.975,627.633 Z" style="stroke-width:2.0;stroke:rgb(255,255,255);stroke-linecap:round;fill:rgb(165,120,208);" />
<text x="988.2" y="575.6" font-size="36.4px" font-family="CMUBright-Roman" style="text-anchor:end;fill:rgb(0,0,0);" transform="rotate(55.0,988.2,575.6)" >Environmental-Sciences</text>
<path d="M1052.893,658.675 A1642.000,1642.000 40.000 0,1 1064.493,650.559 L1042.843,619.329 A1680.000,1680.000 0.000 0,0 1030.975,627.633 Z" style="stroke-width:2.0;stroke:rgb(255,255,255);stroke-linecap:round;fill:none;" />
<path d="M1094.154,630.472 A1642.000,1642.000 40.000 0,1 1594.822,408.776 L1585.445,371.951 A1680.000,1680.000 0.000 0,0 1073.190,598.778 Z" style="stroke-width:2.0;stroke:rgb(255,255,255);stroke-linecap:round;fill:rgb(22,118,50);" />
<text x="1278.0" y="409.0" font-size="36.4px" font-family="CMUBright-Roman" style="text-anchor:end;fill:rgb(0,0,0);" transform="rotate(66.1,1278.0,409.0)" >Engineering-Disciplines</text>
<path d="M1094.154,630.472 A1642.000,1642.000 40.000 0,1 1594.822,408.776 L1585.445,371.951 A1680.000,1680.000 0.000 0,0 1073.190,598.778 Z" style="stroke-width:2.0;stroke:rgb(255,255,255);stroke-linecap:round;fill:none;" />
<path d="M1629.631,400.315 A1642.000,1642.000 40.000 0,1 1964.180,358.391 L1963.351,320.400 A1680.000,1680.000 0.000 0,0 1621.060,363.295 Z" style="stroke-width:2.0;stroke:rgb(255,255,255);stroke-linecap:round;fill:rgb(48,158,75);" />
<text x="1767.4" y="268.4" font-size="36.4px" font-family="CMUBright-Roman" style="text-anchor:end;fill:rgb(0,0,0);" transform="rotate(82.9,1767.4,268.4)" >Computer-Science-IT</text>
<path d="M1629.631,400.315 A1642.000,1642.000 40.000 0,1 1964.180,358.391 L1963.351,320.400 A1680.000,1680.000 0.000 0,0 1621.060,363.295 Z" style="stroke-width:2.0;stroke:rgb(255,255,255);stroke-linecap:round;fill:none;" />
</g>
<g id="track_0">
<path d="M 478.921,2573.435 A 1625.580,1625.580 0.00 0,1 467.2,2541.5 L 467.2,2541.5 522.7,2523.2 579.7,2507.1 638.0,2493.3 697.4,2481.9 757.7,2472.9 818.7,2466.4 880.2,2462.6 942.0,2461.3 1004.0,2462.8 1066.0,2466.9 1127.7,2473.8 1189.2,2483.5 1250.2,2496.0 1310.5,2511.2 1370.0,2529.1 1428.6,2549.9 1486.2,2573.3 1542.5,2599.4 1597.6,2628.1 1651.2,2659.4 1703.3,2693.2 1753.8,2729.4 1802.5,2768.0 1849.4,2808.8 1894.3,2851.8 1937.2,2896.8 1978.0,2943.8 2016.7,2992.5 2053.1,3042.9 2087.2,3094.8 2119.0,3148.0 2148.4,3202.5 2175.2,3257.9 2199.6,3314.2 2221.5,3371.1 2240.7,3428.4 2257.4,3485.9 2271.4,3543.5 2282.8,3600.8  A 1625.580,1625.580 0.00 0,1 2249.3,3606.4 L 2249.3,3606.4 2239.1,3549.1 2226.4,3491.6 2211.1,3434.2 2193.2,3376.9 2172.8,3320.1 2149.8,3263.9 2124.4,3208.6 2096.5,3154.3 2066.2,3101.2 2033.5,3049.5 1998.5,2999.4 1961.3,2951.0 1921.9,2904.4 1880.4,2859.7 1836.9,2817.2 1791.4,2776.9 1744.0,2738.9 1694.9,2703.3 1644.1,2670.2 1591.7,2639.6 1537.9,2611.7 1482.7,2586.4 1426.3,2563.9 1368.8,2544.1 1310.4,2527.1 1251.1,2513.0 1191.2,2501.6 1130.7,2493.0 1069.8,2487.3 1008.8,2484.3 947.7,2484.0 886.7,2486.4 826.0,2491.5 765.8,2499.2 706.3,2509.3 647.6,2522.0 590.0,2536.9 533.7,2554.1 478.9,2573.4  Z" style="stroke-width: 0.0;  fill: rgb(82,145,215);" />
<path d="M 467.247,2541.461 A 1625.580,1625.580 0.00 0,1 466.6,2539.6 L 466.6,2539.6 522.7,2521.2 580.4,2505.0 639.6,2491.1 699.9,2479.6 761.3,2470.6 823.6,2464.0 886.5,2460.0 949.9,2458.5 1013.6,2459.8 1077.5,2463.7 1141.4,2470.3 1205.1,2479.6 1268.6,2491.6 1331.5,2506.3 1393.9,2523.7 1455.5,2543.8 1516.2,2566.5 1575.9,2591.9 1634.5,2619.8 1691.9,2650.2 1747.8,2683.0 1802.3,2718.3 1855.2,2755.8 1906.4,2795.5 1955.7,2837.4 2003.2,2881.3 2048.8,2927.0 2092.2,2974.6 2133.5,3023.8 2172.5,3074.5 2209.3,3126.6 2243.7,3179.9 2275.7,3234.2 2305.1,3289.4 2332.0,3345.4 2356.4,3401.8 2378.0,3458.5 2397.0,3515.4 2413.3,3572.2  A 1625.580,1625.580 0.00 0,1 2411.3,3572.7 L 2411.3,3572.7 2395.2,3515.9 2376.2,3459.0 2354.7,3402.3 2330.4,3345.8 2303.6,3289.9 2274.2,3234.7 2242.3,3180.4 2208.0,3127.1 2171.3,3075.0 2132.4,3024.3 2091.2,2975.1 2047.8,2927.6 2002.4,2881.8 1955.0,2838.0 1905.6,2796.1 1854.5,2756.4 1801.7,2718.9 1747.3,2683.7 1691.5,2650.9 1634.2,2620.5 1575.7,2592.6 1516.0,2567.3 1455.3,2544.6 1393.8,2524.6 1331.5,2507.3 1268.6,2492.6 1205.2,2480.6 1141.6,2471.4 1077.7,2464.9 1013.9,2461.1 950.2,2459.9 886.8,2461.4 824.0,2465.5 761.8,2472.1 700.4,2481.3 640.1,2492.8 581.0,2506.8 523.3,2523.0 467.2,2541.5  Z" style="stroke-width: 0.0;  fill: rgb(82,145,215);" />
<path d="M 466.582,2539.573 A 1625.580,1625.580 0.00 0,1 463.9,2532.0 L 463.9,2532.0 522.5,2513.2 582.9,2496.5 645.2,2482.0 709.1,2469.9 774.4,2459.9 841.1,2452.3 908.9,2447.1 977.7,2444.1 1047.3,2443.6 1117.7,2445.4 1188.6,2449.5 1259.9,2456.1 1331.5,2465.0 1403.2,2476.2 1474.9,2489.8 1546.4,2505.7 1617.6,2523.9 1688.4,2544.3 1758.6,2566.9 1828.1,2591.7 1896.7,2618.6 1964.5,2647.6 2031.1,2678.6 2096.5,2711.6 2160.6,2746.5 2223.2,2783.1 2284.2,2821.5 2343.6,2861.6 2401.1,2903.3 2456.7,2946.4 2510.3,2990.9 2561.7,3036.8 2610.9,3083.8 2657.7,3131.8 2702.0,3180.9 2743.7,3230.8 2782.8,3281.4 2819.0,3332.5 2852.4,3384.2  A 1625.580,1625.580 0.00 0,1 2845.6,3388.4 L 2845.6,3388.4 2812.5,3336.6 2776.5,3285.4 2737.8,3234.7 2696.4,3184.7 2652.4,3135.5 2605.9,3087.4 2557.0,3040.3 2505.9,2994.4 2452.6,2949.8 2397.3,2906.6 2340.1,2864.9 2281.0,2824.7 2220.3,2786.3 2157.9,2749.6 2094.1,2714.8 2029.0,2681.8 1962.6,2650.8 1895.2,2621.9 1826.7,2595.0 1757.5,2570.3 1687.5,2547.8 1617.0,2527.5 1546.0,2509.5 1474.7,2493.8 1403.2,2480.4 1331.8,2469.3 1260.4,2460.6 1189.3,2454.3 1118.6,2450.3 1048.4,2448.8 978.9,2449.6 910.3,2452.7 842.7,2458.3 776.2,2466.2 711.0,2476.3 647.3,2488.8 585.2,2503.5 524.9,2520.5 466.6,2539.6  Z" style="stroke-width: 0.0;  fill: rgb(82,145,215);" />
<path d="M 463.942,2532.011 A 1625.580,1625.580 0.00 0,1 462.6,2528.2 L 462.6,2528.2 522.8,2509.0 585.0,2491.8 649.2,2476.8 715.2,2463.8 782.8,2452.9 852.0,2444.2 922.6,2437.5 994.4,2432.9 1067.3,2430.5 1141.2,2430.1 1215.9,2431.8 1291.2,2435.6 1367.2,2441.4 1443.5,2449.2 1520.1,2459.0 1596.8,2470.9 1673.5,2484.7 1750.0,2500.4 1826.3,2518.1 1902.2,2537.6 1977.5,2558.9 2052.2,2582.1 2126.0,2607.0 2198.9,2633.6 2270.7,2662.0 2341.4,2691.9 2410.7,2723.5 2478.5,2756.5 2544.7,2791.1 2609.3,2827.0 2671.9,2864.4 2732.6,2903.0 2791.2,2942.9 2847.6,2983.9 2901.6,3026.1 2953.2,3069.3 3002.1,3113.5 3048.4,3158.5 3091.7,3204.4  A 1625.580,1625.580 0.00 0,1 3088.8,3207.1 L 3088.8,3207.1 3045.5,3161.1 2999.4,3116.0 2950.6,3071.8 2899.2,3028.5 2845.3,2986.3 2789.1,2945.1 2730.6,2905.2 2670.1,2866.5 2607.5,2829.1 2543.1,2793.0 2477.0,2758.5 2409.3,2725.3 2340.2,2693.8 2269.7,2663.8 2197.9,2635.4 2125.2,2608.8 2051.4,2583.9 1976.9,2560.7 1901.7,2539.4 1825.9,2519.9 1749.7,2502.3 1673.3,2486.6 1596.6,2472.9 1520.0,2461.1 1443.6,2451.3 1367.3,2443.6 1291.5,2437.8 1216.2,2434.2 1141.6,2432.6 1067.9,2433.1 995.0,2435.7 923.3,2440.3 852.8,2447.1 783.7,2456.0 716.1,2467.0 650.2,2480.1 586.1,2495.3 524.0,2512.6 463.9,2532.0  Z" style="stroke-width: 0.0;  fill: rgb(82,145,215);" />
<path d="M 462.636,2528.225 A 1625.580,1625.580 0.00 0,1 460.7,2522.5 L 460.7,2522.5 522.6,2502.9 586.6,2485.2 652.8,2469.4 720.8,2455.6 790.7,2443.6 862.3,2433.4 935.3,2425.0 1009.8,2418.5 1085.6,2413.7 1162.5,2410.6 1240.4,2409.3 1319.3,2409.6 1398.8,2411.7 1479.0,2415.3 1559.6,2420.6 1640.6,2427.6 1721.9,2436.0 1803.2,2446.1 1884.5,2457.7 1965.6,2470.8 2046.3,2485.4 2126.7,2501.4 2206.5,2518.9 2285.5,2537.9 2363.8,2558.3 2441.0,2580.0 2517.2,2603.1 2592.1,2627.6 2665.6,2653.4 2737.7,2680.5 2808.1,2708.9 2876.7,2738.6 2943.4,2769.6 3008.1,2801.7 3070.7,2835.1 3130.9,2869.7 3188.7,2905.5 3244.0,2942.5 3296.5,2980.6  A 1625.580,1625.580 0.00 0,1 3292.9,2985.4 L 3292.9,2985.4 3240.5,2947.1 3185.5,2910.0 3127.9,2874.1 3067.8,2839.3 3005.5,2805.8 2940.9,2773.4 2874.4,2742.4 2805.9,2712.5 2735.7,2684.0 2663.8,2656.8 2590.4,2630.9 2515.6,2606.3 2439.6,2583.1 2362.5,2561.3 2284.4,2540.9 2205.5,2521.9 2125.9,2504.3 2045.7,2488.3 1965.0,2473.7 1884.1,2460.6 1802.9,2449.0 1721.7,2439.1 1640.6,2430.6 1559.7,2423.8 1479.2,2418.6 1399.1,2415.0 1319.7,2413.1 1241.0,2412.9 1163.2,2414.4 1086.4,2417.6 1010.8,2422.6 936.4,2429.3 863.4,2437.9 792.0,2448.2 722.2,2460.4 654.3,2474.5 588.3,2490.5 524.4,2508.4 462.6,2528.2  Z" style="stroke-width: 0.0;  fill: rgb(82,145,215);" />
<path d="M 460.694,2522.541 A 1625.580,1625.580 0.00 0,1 460.1,2520.6 L 460.1,2520.6 523.8,2500.4 589.8,2481.8 658.0,2465.0 728.1,2449.7 800.1,2436.0 873.8,2423.8 949.2,2413.0 1026.1,2403.7 1104.4,2395.7 1183.9,2389.0 1264.5,2383.6 1346.1,2379.5 1428.7,2376.5 1511.9,2374.8 1595.8,2374.2 1680.2,2374.7 1765.0,2376.4 1850.1,2379.1 1935.2,2382.9 2020.4,2387.8 2105.5,2393.8 2190.3,2400.8 2274.7,2408.9 2358.6,2418.1 2441.9,2428.3 2524.4,2439.6 2606.0,2452.0 2686.6,2465.5 2766.1,2480.1 2844.4,2495.8 2921.2,2512.7 2996.5,2530.8 3070.1,2550.2 3142.0,2570.7 3211.9,2592.6 3279.8,2615.8 3345.6,2640.4 3409.0,2666.4 3470.1,2693.8  A 1625.580,1625.580 0.00 0,1 3469.2,2695.6 L 3469.2,2695.6 3408.2,2668.1 3344.8,2642.1 3279.2,2617.4 3211.3,2594.2 3141.4,2572.2 3069.6,2551.6 2996.0,2532.2 2920.7,2514.1 2843.9,2497.1 2765.7,2481.3 2686.3,2466.6 2605.7,2453.1 2524.1,2440.7 2441.6,2429.4 2358.4,2419.1 2274.5,2410.0 2190.1,2401.9 2105.4,2394.8 2020.3,2388.8 1935.2,2383.9 1850.1,2380.1 1765.1,2377.4 1680.3,2375.8 1595.9,2375.3 1512.0,2375.9 1428.8,2377.7 1346.3,2380.7 1264.7,2384.9 1184.1,2390.3 1104.6,2397.0 1026.4,2405.1 949.6,2414.5 874.2,2425.3 800.5,2437.5 728.6,2451.3 658.5,2466.6 590.4,2483.6 524.4,2502.2 460.7,2522.5  Z" style="stroke-width: 0.0;  fill: rgb(82,145,215);" />
<path d="M 460.052,2520.644 A 1625.580,1625.580 0.00 0,1 459.4,2518.7 L 459.4,2518.7 525.3,2497.7 593.4,2478.2 663.5,2460.0 735.6,2443.0 809.6,2427.3 885.3,2412.6 962.6,2399.0 1041.3,2386.3 1121.4,2374.5 1202.8,2363.5 1285.3,2353.3 1368.8,2343.8 1453.2,2335.0 1538.4,2326.9 1624.3,2319.3 1710.7,2312.3 1797.5,2306.0 1884.7,2300.1 1972.0,2294.9 2059.5,2290.2 2146.9,2286.0 2234.2,2282.4 2321.2,2279.5 2407.8,2277.1 2494.0,2275.4 2579.6,2274.3 2664.5,2274.0 2748.5,2274.5 2831.6,2275.8 2913.7,2277.9 2994.6,2281.1 3074.3,2285.2 3152.6,2290.5 3229.4,2296.9 3304.6,2304.6 3378.2,2313.7 3449.9,2324.3 3519.6,2336.4 3587.4,2350.2  A 1625.580,1625.580 0.00 0,1 3587.0,2352.2 L 3587.0,2352.2 3519.3,2338.3 3449.5,2326.1 3377.8,2315.4 3304.4,2306.3 3229.2,2298.5 3152.4,2292.0 3074.1,2286.7 2994.5,2282.5 2913.6,2279.3 2831.5,2277.1 2748.4,2275.7 2664.4,2275.2 2579.5,2275.5 2494.0,2276.5 2407.8,2278.2 2321.2,2280.5 2234.2,2283.5 2146.9,2287.0 2059.5,2291.2 1972.1,2295.9 1884.8,2301.2 1797.6,2307.0 1710.8,2313.4 1624.4,2320.4 1538.6,2328.0 1453.4,2336.2 1369.0,2345.0 1285.6,2354.5 1203.1,2364.8 1121.7,2375.8 1041.6,2387.7 962.9,2400.4 885.7,2414.1 810.0,2428.8 736.1,2444.6 664.0,2461.6 593.9,2479.9 525.9,2499.5 460.1,2520.6  Z" style="stroke-width: 0.0;  fill: rgb(82,145,215);" />
<path d="M 459.412,2518.747 A 1625.580,1625.580 0.00 0,1 456.2,2509.2 L 456.2,2509.2 525.1,2487.5 596.0,2466.7 668.7,2446.9 743.1,2427.9 819.2,2409.6 896.7,2391.8 975.6,2374.4 1055.8,2357.3 1137.1,2340.5 1219.5,2323.8 1302.7,2307.2 1386.8,2290.6 1471.6,2274.0 1557.0,2257.3 1643.0,2240.5 1729.3,2223.6 1815.9,2206.4 1902.7,2189.1 1989.6,2171.6 2076.5,2154.0 2163.4,2136.2 2250.0,2118.3 2336.5,2100.3 2422.6,2082.3 2508.2,2064.3 2593.4,2046.4 2677.9,2028.6 2761.9,2011.1 2845.0,1993.9 2927.3,1977.2 3008.8,1961.0 3089.3,1945.4 3168.7,1930.7 3247.1,1916.8 3324.3,1904.1 3400.2,1892.6 3474.9,1882.5 3548.2,1873.9 3620.1,1867.2  A 1625.580,1625.580 0.00 0,1 3620.9,1877.1 L 3620.9,1877.1 3549.1,1883.5 3475.9,1891.6 3401.2,1901.3 3325.3,1912.4 3248.2,1924.7 3169.8,1938.2 3090.4,1952.6 3009.9,1967.8 2928.5,1983.7 2846.1,2000.2 2762.9,2017.1 2679.0,2034.4 2594.5,2052.0 2509.3,2069.7 2423.6,2087.6 2337.5,2105.5 2251.1,2123.4 2164.4,2141.2 2077.5,2159.0 1990.6,2176.6 1903.7,2194.1 1816.9,2211.5 1730.3,2228.7 1644.1,2245.8 1558.2,2262.7 1472.8,2279.6 1388.1,2296.4 1304.1,2313.2 1220.9,2330.0 1138.6,2347.0 1057.4,2364.1 977.4,2381.4 898.6,2399.1 821.2,2417.3 745.4,2436.0 671.1,2455.3 598.6,2475.5 528.0,2496.6 459.4,2518.7  Z" style="stroke-width: 0.0;  fill: rgb(82,145,215);" />
<path d="M 456.246,2509.249 A 1625.580,1625.580 0.00 0,1 451.3,2494.0 L 451.3,2494.0 521.4,2470.9 592.5,2446.0 664.5,2419.5 737.5,2391.7 811.4,2362.8 886.2,2332.9 961.8,2302.3 1038.4,2271.0 1115.7,2239.2 1193.8,2207.1 1272.6,2174.7 1352.2,2142.3 1432.4,2109.9 1513.2,2077.6 1594.6,2045.5 1676.4,2013.7 1758.7,1982.3 1841.3,1951.2 1924.2,1920.6 2007.4,1890.5 2090.7,1861.0 2174.1,1831.9 2257.4,1803.4 2340.7,1775.5 2423.7,1748.1 2506.5,1721.2 2588.8,1694.8 2670.7,1668.8 2752.0,1643.2 2832.6,1617.8 2912.3,1592.8 2991.2,1567.9 3068.9,1543.0 3145.5,1518.1 3220.8,1493.0 3294.6,1467.7 3366.9,1441.9 3437.5,1415.5 3506.2,1388.5  A 1625.580,1625.580 0.00 0,1 3512.1,1403.3 L 3512.1,1403.3 3443.0,1429.8 3372.0,1455.6 3299.4,1480.8 3225.2,1505.6 3149.6,1530.1 3072.7,1554.5 2994.7,1578.9 2915.7,1603.3 2835.7,1627.9 2755.0,1652.8 2673.6,1678.1 2591.6,1703.7 2509.2,1729.8 2426.3,1756.4 2343.3,1783.6 2260.0,1811.3 2176.7,1839.7 2093.3,1868.6 2010.1,1898.1 1927.0,1928.2 1844.2,1958.8 1761.6,1989.9 1679.5,2021.4 1597.7,2053.4 1516.5,2085.7 1435.9,2118.2 1355.8,2150.9 1276.4,2183.7 1197.7,2216.4 1119.7,2249.0 1042.5,2281.2 966.1,2313.0 890.6,2344.2 815.9,2374.7 742.2,2404.2 669.3,2432.6 597.3,2459.7 526.3,2485.4 456.2,2509.2  Z" style="stroke-width: 0.0;  fill: rgb(82,145,215);" />
<path d="M 451.303,2494.013 A 1625.580,1625.580 0.00 0,1 443.6,2469.2 L 443.6,2469.2 510.8,2447.9 578.9,2424.3 648.0,2398.6 718.0,2370.9 788.9,2341.4 860.7,2310.3 933.3,2277.6 1006.6,2243.6 1080.7,2208.4 1155.4,2172.0 1230.7,2134.6 1306.6,2096.3 1382.9,2057.2 1459.6,2017.5 1536.7,1977.1 1614.0,1936.2 1691.5,1894.9 1769.1,1853.1 1846.7,1811.1 1924.3,1768.8 2001.6,1726.4 2078.7,1683.7 2155.5,1641.0 2231.7,1598.1 2307.4,1555.2 2382.4,1512.3 2456.6,1469.3 2529.9,1426.3 2602.1,1383.2 2673.1,1340.1 2742.9,1297.0 2811.2,1253.7 2877.9,1210.4 2943.0,1166.9 3006.2,1123.3 3067.4,1079.4 3126.4,1035.3 3183.2,990.8 3237.4,945.8  A 1625.580,1625.580 0.00 0,1 3254.2,965.8 L 3254.2,965.8 3198.9,1010.1 3141.3,1053.9 3081.4,1097.4 3019.4,1140.6 2955.4,1183.6 2889.6,1226.5 2822.2,1269.2 2753.3,1311.9 2682.9,1354.5 2611.3,1397.1 2538.6,1439.7 2464.9,1482.3 2390.3,1524.9 2315.0,1567.5 2239.0,1610.2 2162.5,1652.9 2085.5,1695.5 2008.2,1738.0 1930.7,1780.5 1853.0,1822.9 1775.4,1865.0 1697.7,1906.9 1620.2,1948.5 1542.9,1989.7 1465.9,2030.5 1389.2,2070.7 1313.0,2110.4 1237.2,2149.2 1162.0,2187.3 1087.5,2224.4 1013.5,2260.4 940.3,2295.3 867.9,2328.8 796.2,2360.9 725.4,2391.4 655.5,2420.1 586.5,2446.9 518.4,2471.6 451.3,2494.0  Z" style="stroke-width: 0.0;  fill: rgb(82,145,215);" />
<path d="M 443.592,2469.152 A 1625.580,1625.580 0.00 0,1 423.3,2395.8 L 423.3,2395.8 482.9,2379.5 542.8,2360.3 603.1,2338.2 663.6,2313.4 724.1,2285.8 784.4,2255.6 844.5,2222.9 904.2,2187.6 963.4,2149.9 1021.9,2109.8 1079.6,2067.4 1136.5,2022.9 1192.3,1976.3 1247.0,1927.6 1300.5,1877.0 1352.6,1824.6 1403.3,1770.4 1452.5,1714.6 1500.0,1657.3 1545.8,1598.5 1589.9,1538.4 1632.0,1477.2 1672.2,1414.8 1710.4,1351.5 1746.4,1287.3 1780.3,1222.4 1812.0,1156.9 1841.3,1090.9 1868.3,1024.6 1892.9,958.1 1915.1,891.5 1934.8,825.0 1952.0,758.8 1966.5,692.9 1978.5,627.5 1987.9,562.8 1994.6,499.0 1998.7,436.1 2000.0,374.4  A 1625.580,1625.580 0.00 0,1 2076.1,376.2 L 2076.1,376.2 2071.8,438.6 2064.8,502.1 2055.1,566.6 2042.7,631.9 2027.8,697.9 2010.3,764.5 1990.2,831.5 1967.7,898.7 1942.8,966.1 1915.5,1033.4 1885.9,1100.7 1854.0,1167.6 1820.0,1234.3 1783.9,1300.4 1745.7,1365.8 1705.6,1430.6 1663.6,1494.4 1619.7,1557.3 1574.1,1619.1 1526.9,1679.7 1478.0,1738.9 1427.7,1796.8 1376.0,1853.1 1323.0,1907.8 1268.8,1960.8 1213.5,2011.9 1157.2,2061.1 1099.9,2108.3 1041.9,2153.4 983.2,2196.3 924.0,2236.8 864.2,2275.0 804.2,2310.8 743.9,2344.0 683.5,2374.6 623.2,2402.5 563.0,2427.6 503.1,2449.8 443.6,2469.2  Z" style="stroke-width: 0.0;  fill: rgb(82,145,215);" />
</g>
<defs>
<pattern id="vline-sparse" width="10" height="10" patternTransform="rotate(0 0 0)" patternUnits="userSpaceOnUse"><line x1="0" y1="0" x2="0" y2="10" style="stroke:black;stroke-width:2" /></pattern>
<pattern id="checker" width="10" height="10" patternTransform="rotate(45 0 0)" patternUnits="userSpaceOnUse"><line x1="0" y1="0" x2="10" y2="0" style="stroke:black;stroke-width:5" /><line x1="0" y1="0" x2="0" y2="10" style="stroke:black;stroke-width:4" /></pattern>
<pattern id="hline-sparse" width="10" height="10" patternTransform="rotate(0 0 0)" patternUnits="userSpaceOnUse"><line x1="0" y1="0" x2="10" y2="0" style="stroke:black;stroke-width:2" /></pattern>
<pattern id="hline" width="10" height="10" patternTransform="rotate(0 0 0)" patternUnits="userSpaceOnUse"><line x1="0" y1="0" x2="10" y2="0" style="stroke:black;stroke-width:5" /></pattern>
<pattern id="checker" width="10" height="10" patternTransform="rotate(45 0 0)" patternUnits="userSpaceOnUse"><line x1="0" y1="0" x2="10" y2="0" style="stroke:black;stroke-width:2" /><line x1="0" y1="0" x2="0" y2="10" style="stroke:black;stroke-width:2" /></pattern>
<pattern id="vline" width="10" height="10" patternTransform="rotate(0 0 0)" patternUnits="userSpaceOnUse"><line x1="0" y1="0" x2="0" y2="10" style="stroke:black;stroke-width:5" /></pattern>
</defs>
</svg>
