<?xml version="1.0" encoding="utf-8" standalone="no"?>
<!DOCTYPE svg PUBLIC "-//W3C//DTD SVG 1.1//EN" "http://www.w3.org/Graphics/SVG/1.1/DTD/svg11.dtd">
<svg width="4000px" height="4000px" version="1.1" xmlns="http://www.w3.org/2000/svg" xmlns:xlink="http://www.w3.org/1999/xlink">
<g id="bg">
<rect x="0" y="0" width="4000px" height="4000px" style="fill:rgb(255,255,255);"/>
</g>
<g id="ideograms">
<path d="M2000.000,358.000 A1642.000,1642.000 40.000 0,1 2727.139,527.779 L2743.967,493.709 A1680.000,1680.000 0.000 0,0 2000.000,320.000 Z" style="stroke-width:2.0;stroke:rgb(255,255,255);stroke-linecap:round;fill:rgb(185,185,185);" />
<text x="2412.3" y="302.2" font-size="36.4px" font-family="CMUBright-Roman" style="text-anchor:start;fill:rgb(0,0,0);" transform="rotate(283.1,2412.3,302.2)" >Engineering</text>
<path d="M2000.000,358.000 A1642.000,1642.000 40.000 0,1 2727.139,527.779 L2743.967,493.709 A1680.000,1680.000 0.000 0,0 2000.000,320.000 Z" style="stroke-width:2.0;stroke:rgb(255,255,255);stroke-linecap:round;fill:none;" />
<path d="M2759.082,543.992 A1642.000,1642.000 40.000 0,1 3284.099,976.646 L3313.816,952.963 A1680.000,1680.000 0.000 0,0 2776.649,510.297 Z" style="stroke-width:2.0;stroke:rgb(255,255,255);stroke-linecap:round;fill:rgb(185,185,185);" />
<text x="3120.8" y="659.6" font-size="36.4px" font-family="CMUBright-Roman" style="text-anchor:start;fill:rgb(0,0,0);" transform="rotate(309.5,3120.8,659.6)" >Finance-Investment</text>
<path d="M2759.082,543.992 A1642.000,1642.000 40.000 0,1 3284.099,976.646 L3313.816,952.963 A1680.000,1680.000 0.000 0,0 2776.649,510.297 Z" style="stroke-width:2.0;stroke:rgb(255,255,255);stroke-linecap:round;fill:none;" />
<path d="M3306.118,1004.902 A1642.000,1642.000 40.000 0,1 3557.132,1478.938 L3593.167,1466.879 A1680.000,1680.000 0.000 0,0 3336.345,981.873 Z" style="stroke-width:2.0;stroke:rgb(255,255,255);stroke-linecap:round;fill:rgb(185,185,185);" />
<text x="3551.5" y="1196.5" font-size="36.4px" font-family="CMUBright-Roman" style="text-anchor:start;fill:rgb(0,0,0);" transform="rotate(332.1,3551.5,1196.5)" >Management-Operations</text>
<path d="M3306.118,1004.902 A1642.000,1642.000 40.000 0,1 3557.132,1478.938 L3593.167,1466.879 A1680.000,1680.000 0.000 0,0 3336.345,981.873 Z" style="stroke-width:2.0;stroke:rgb(255,255,255);stroke-linecap:round;fill:none;" />
<path d="M3568.128,1513.031 A1642.000,1642.000 40.000 0,1 3640.479,1929.339 L3678.444,1927.703 A1680.000,1680.000 0.000 0,0 3604.418,1501.761 Z" style="stroke-width:2.0;stroke:rgb(255,255,255);stroke-linecap:round;fill:rgb(185,185,185);" />
<text x="3723.5" y="1713.2" font-size="36.4px" font-family="CMUBright-Roman" style="text-anchor:start;fill:rgb(0,0,0);" transform="rotate(350.1,3723.5,1713.2)" >Software-Data</text>
<path d="M3568.128,1513.031 A1642.000,1642.000 40.000 0,1 3640.479,1929.339 L3678.444,1927.703 A1680.000,1680.000 0.000 0,0 3604.418,1501.761 Z" style="stroke-width:2.0;stroke:rgb(255,255,255);stroke-linecap:round;fill:none;" />
<path d="M3641.630,1965.142 A1642.000,1642.000 40.000 0,1 3597.388,2380.151 L3634.356,2388.948 A1680.000,1680.000 0.000 0,0 3679.621,1964.336 Z" style="stroke-width:2.0;stroke:rgb(255,255,255);stroke-linecap:round;fill:rgb(185,185,185);" />
<text x="3735.6" y="2201.1" font-size="36.4px" font-family="CMUBright-Roman" style="text-anchor:start;fill:rgb(0,0,0);" transform="rotate(6.1,3735.6,2201.1)" >Sales-Marketing</text>
<path d="M3641.630,1965.142 A1642.000,1642.000 40.000 0,1 3597.388,2380.151 L3634.356,2388.948 A1680.000,1680.000 0.000 0,0 3679.621,1964.336 Z" style="stroke-width:2.0;stroke:rgb(255,255,255);stroke-linecap:round;fill:none;" />
<path d="M3588.715,2414.907 A1642.000,1642.000 40.000 0,1 3447.858,2774.513 L3481.365,2792.437 A1680.000,1680.000 0.000 0,0 3625.482,2424.509 Z" style="stroke-width:2.0;stroke:rgb(255,255,255);stroke-linecap:round;fill:rgb(185,185,185);" />
<text x="3620.9" y="2652.1" font-size="36.4px" font-family="CMUBright-Roman" style="text-anchor:start;fill:rgb(0,0,0);" transform="rotate(21.4,3620.9,2652.1)" >Accounting-Audit</text>
<path d="M3588.715,2414.907 A1642.000,1642.000 40.000 0,1 3447.858,2774.513 L3481.365,2792.437 A1680.000,1680.000 0.000 0,0 3625.482,2424.509 Z" style="stroke-width:2.0;stroke:rgb(255,255,255);stroke-linecap:round;fill:none;" />
<path d="M3430.618,2805.914 A1642.000,1642.000 40.000 0,1 3261.549,3051.027 L3290.745,3075.350 A1680.000,1680.000 0.000 0,0 3463.726,2824.565 Z" style="stroke-width:2.0;stroke:rgb(255,255,255);stroke-linecap:round;fill:rgb(185,185,185);" />
<text x="3429.4" y="3004.8" font-size="36.4px" font-family="CMUBright-Roman" style="text-anchor:start;fill:rgb(0,0,0);" transform="rotate(34.6,3429.4,3004.8)" >Leadership-General</text>
<path d="M3430.618,2805.914 A1642.000,1642.000 40.000 0,1 3261.549,3051.027 L3290.745,3075.350 A1680.000,1680.000 0.000 0,0 3463.726,2824.565 Z" style="stroke-width:2.0;stroke:rgb(255,255,255);stroke-linecap:round;fill:none;" />
<path d="M3238.321,3078.297 A1642.000,1642.000 40.000 0,1 3039.505,3271.060 L3063.562,3300.476 A1680.000,1680.000 0.000 0,0 3266.979,3103.252 Z" style="stroke-width:2.0;stroke:rgb(255,255,255);stroke-linecap:round;fill:rgb(185,185,185);" />
<text x="3207.2" y="3263.1" font-size="36.4px" font-family="CMUBright-Roman" style="text-anchor:start;fill:rgb(0,0,0);" transform="rotate(45.9,3207.2,3263.1)" >Clinical-Care</text>
<path d="M3238.321,3078.297 A1642.000,1642.000 40.000 0,1 3039.505,3271.060 L3063.562,3300.476 A1680.000,1680.000 0.000 0,0 3266.979,3103.252 Z" style="stroke-width:2.0;stroke:rgb(255,255,255);stroke-linecap:round;fill:none;" />
<path d="M3011.529,3293.434 A1642.000,1642.000 40.000 0,1 2784.385,3442.534 L2802.537,3475.918 A1680.000,1680.000 0.000 0,0 3034.939,3323.368 Z" style="stroke-width:2.0;stroke:rgb(255,255,255);stroke-linecap:round;fill:rgb(185,185,185);" />
<text x="2948.3" y="3467.5" font-size="36.4px" font-family="CMUBright-Roman" style="text-anchor:start;fill:rgb(0,0,0);" transform="rotate(56.7,2948.3,3467.5)" >Research-Science</text>
<path d="M3011.529,3293.434 A1642.000,1642.000 40.000 0,1 2784.385,3442.534 L2802.537,3475.918 A1680.000,1680.000 0.000 0,0 3034.939,3323.368 Z" style="stroke-width:2.0;stroke:rgb(255,255,255);stroke-linecap:round;fill:none;" />
<path d="M2752.729,3459.302 A1642.000,1642.000 40.000 0,1 2556.245,3544.913 L2569.118,3580.666 A1680.000,1680.000 0.000 0,0 2770.149,3493.074 Z" style="stroke-width:2.0;stroke:rgb(255,255,255);stroke-linecap:round;fill:rgb(185,185,185);" />
<text x="2686.4" y="3606.7" font-size="36.4px" font-family="CMUBright-Roman" style="text-anchor:start;fill:rgb(0,0,0);" transform="rotate(66.5,2686.4,3606.7)" >Education</text>
<path d="M2752.729,3459.302 A1642.000,1642.000 40.000 0,1 2556.245,3544.913 L2569.118,3580.666 A1680.000,1680.000 0.000 0,0 2770.149,3493.074 Z" style="stroke-width:2.0;stroke:rgb(255,255,255);stroke-linecap:round;fill:none;" />
<path d="M2522.411,3556.679 A1642.000,1642.000 40.000 0,1 2417.174,3588.121 L2426.829,3624.875 A1680.000,1680.000 0.000 0,0 2534.501,3592.705 Z" style="stroke-width:2.0;stroke:rgb(255,255,255);stroke-linecap:round;fill:rgb(185,185,185);" />
<text x="2488.2" y="3677.6" font-size="36.4px" font-family="CMUBright-Roman" style="text-anchor:start;fill:rgb(0,0,0);" transform="rotate(73.4,2488.2,3677.6)" >IT-Infrastructure</text>
<path d="M2522.411,3556.679 A1642.000,1642.000 40.000 0,1 2417.174,3588.121 L2426.829,3624.875 A1680.000,1680.000 0.000 0,0 2534.501,3592.705 Z" style="stroke-width:2.0;stroke:rgb(255,255,255);stroke-linecap:round;fill:none;" />
<path d="M2382.430,3596.844 A1642.000,1642.000 40.000 0,1 2321.118,3610.294 L2328.550,3647.560 A1680.000,1680.000 0.000 0,0 2391.281,3633.799 Z" style="stroke-width:2.0;stroke:rgb(255,255,255);stroke-linecap:round;fill:rgb(185,185,185);" />
<text x="2358.7" y="3710.0" font-size="36.4px" font-family="CMUBright-Roman" style="text-anchor:start;fill:rgb(0,0,0);" transform="rotate(77.6,2358.7,3710.0)" >Legal-Policy</text>
<path d="M2382.430,3596.844 A1642.000,1642.000 40.000 0,1 2321.118,3610.294 L2328.550,3647.560 A1680.000,1680.000 0.000 0,0 2391.281,3633.799 Z" style="stroke-width:2.0;stroke:rgb(255,255,255);stroke-linecap:round;fill:none;" />
<path d="M2285.913,3616.916 A1642.000,1642.000 40.000 0,1 2249.787,3622.890 L2255.567,3660.447 A1680.000,1680.000 0.000 0,0 2292.530,3654.336 Z" style="stroke-width:2.0;stroke:rgb(255,255,255);stroke-linecap:round;fill:rgb(185,185,185);" />
<text x="2272.7" y="3725.8" font-size="36.4px" font-family="CMUBright-Roman" style="text-anchor:start;fill:rgb(0,0,0);" transform="rotate(80.6,2272.7,3725.8)" >Social-Service</text>
<path d="M2285.913,3616.916 A1642.000,1642.000 40.000 0,1 2249.787,3622.890 L2255.567,3660.447 A1680.000,1680.000 0.000 0,0 2292.530,3654.336 Z" style="stroke-width:2.0;stroke:rgb(255,255,255);stroke-linecap:round;fill:none;" />
<path d="M2214.324,3627.952 A1642.000,1642.000 40.000 0,1 1245.263,3458.265 L1227.797,3492.013 A1680.000,1680.000 0.000 0,0 2219.284,3665.627 Z" style="stroke-width:2.0;stroke:rgb(255,255,255);stroke-linecap:round;fill:rgb(15,52,135);" />
<text x="1714.4" y="3723.7" font-size="36.4px" font-family="CMUBright-Roman" style="text-anchor:end;fill:rgb(0,0,0);" transform="rotate(-80.1,1714.4,3723.7)" >Finance-Accounting</text>
<path d="M2214.324,3627.952 A1642.000,1642.000 40.000 0,1 1245.263,3458.265 L1227.797,3492.013 A1680.000,1680.000 0.000 0,0 2219.284,3665.627 Z" style="stroke-width:2.0;stroke:rgb(255,255,255);stroke-linecap:round;fill:none;" />
<path d="M1213.631,3441.453 A1642.000,1642.000 40.000 0,1 879.437,3200.209 L853.504,3227.985 A1680.000,1680.000 0.000 0,0 1195.432,3474.812 Z" style="stroke-width:2.0;stroke:rgb(255,255,255);stroke-linecap:round;fill:rgb(28,75,160);" />
<text x="990.4" y="3426.0" font-size="36.4px" font-family="CMUBright-Roman" style="text-anchor:end;fill:rgb(0,0,0);" transform="rotate(-54.2,990.4,3426.0)" >Marketing-Communication</text>
<path d="M1213.631,3441.453 A1642.000,1642.000 40.000 0,1 879.437,3200.209 L853.504,3227.985 A1680.000,1680.000 0.000 0,0 1195.432,3474.812 Z" style="stroke-width:2.0;stroke:rgb(255,255,255);stroke-linecap:round;fill:none;" />
<path d="M853.521,3175.478 A1642.000,1642.000 40.000 0,1 639.254,2918.986 L607.763,2940.253 A1680.000,1680.000 0.000 0,0 826.988,3202.682 Z" style="stroke-width:2.0;stroke:rgb(255,255,255);stroke-linecap:round;fill:rgb(42,98,180);" />
<text x="667.2" y="3129.7" font-size="36.4px" font-family="CMUBright-Roman" style="text-anchor:end;fill:rgb(0,0,0);" transform="rotate(-39.9,667.2,3129.7)" >General-Business</text>
<path d="M853.521,3175.478 A1642.000,1642.000 40.000 0,1 639.254,2918.986 L607.763,2940.253 A1680.000,1680.000 0.000 0,0 826.988,3202.682 Z" style="stroke-width:2.0;stroke:rgb(255,255,255);stroke-linecap:round;fill:none;" />
<path d="M619.530,2889.082 A1642.000,1642.000 40.000 0,1 479.680,2620.315 L444.496,2634.671 A1680.000,1680.000 0.000 0,0 587.583,2909.658 Z" style="stroke-width:2.0;stroke:rgb(255,255,255);stroke-linecap:round;fill:rgb(60,120,198);" />
<text x="457.3" y="2820.2" font-size="36.4px" font-family="CMUBright-Roman" style="text-anchor:end;fill:rgb(0,0,0);" transform="rotate(-27.5,457.3,2820.2)" >Operations-Analytics</text>
<path d="M619.530,2889.082 A1642.000,1642.000 40.000 0,1 479.680,2620.315 L444.496,2634.671 A1680.000,1680.000 0.000 0,0 587.583,2909.658 Z" style="stroke-width:2.0;stroke:rgb(255,255,255);stroke-linecap:round;fill:none;" />
<path d="M466.510,2587.002 A1642.000,1642.000 40.000 0,1 421.749,2453.087 L385.224,2463.573 A1680.000,1680.000 0.000 0,0 431.021,2600.587 Z" style="stroke-width:2.0;stroke:rgb(255,255,255);stroke-linecap:round;fill:rgb(82,145,215);" />
<text x="347.9" y="2568.6" font-size="36.4px" font-family="CMUBright-Roman" style="text-anchor:end;fill:rgb(0,0,0);" transform="rotate(-18.5,347.9,2568.6)" >Specialized-Business</text>
<path d="M466.510,2587.002 A1642.000,1642.000 40.000 0,1 421.749,2453.087 L385.224,2463.573 A1680.000,1680.000 0.000 0,0 431.021,2600.587 Z" style="stroke-width:2.0;stroke:rgb(255,255,255);stroke-linecap:round;fill:none;" />
<path d="M412.241,2418.550 A1642.000,1642.000 40.000 0,1 391.911,2331.987 L354.696,2339.670 A1680.000,1680.000 0.000 0,0 375.496,2428.236 Z" style="stroke-width:2.0;stroke:rgb(255,255,255);stroke-linecap:round;fill:rgb(108,170,228);" />
<text x="301.9" y="2411.1" font-size="36.4px" font-family="CMUBright-Roman" style="text-anchor:end;fill:rgb(0,0,0);" transform="rotate(-13.2,301.9,2411.1)" >Economics</text>
<path d="M412.241,2418.550 A1642.000,1642.000 40.000 0,1 391.911,2331.987 L354.696,2339.670 A1680.000,1680.000 0.000 0,0 375.496,2428.236 Z" style="stroke-width:2.0;stroke:rgb(255,255,255);stroke-linecap:round;fill:none;" />
<path d="M385.052,2296.827 A1642.000,1642.000 40.000 0,1 366.030,2162.194 L328.216,2165.947 A1680.000,1680.000 0.000 0,0 347.678,2303.697 Z" style="stroke-width:2.0;stroke:rgb(255,255,255);stroke-linecap:round;fill:rgb(200,108,30);" />
<text x="271.8" y="2256.8" font-size="36.4px" font-family="CMUBright-Roman" style="text-anchor:end;fill:rgb(0,0,0);" transform="rotate(-8.0,271.8,2256.8)" >Social-Sciences</text>
<path d="M385.052,2296.827 A1642.000,1642.000 40.000 0,1 366.030,2162.194 L328.216,2165.947 A1680.000,1680.000 0.000 0,0 347.678,2303.697 Z" style="stroke-width:2.0;stroke:rgb(255,255,255);stroke-linecap:round;fill:none;" />
<path d="M362.881,2126.510 A1642.000,1642.000 40.000 0,1 359.682,2074.299 L321.721,2076.018 A1680.000,1680.000 0.000 0,0 324.994,2129.438 Z" style="stroke-width:2.0;stroke:rgb(255,255,255);stroke-linecap:round;fill:rgb(220,140,52);" />
<text x="256.9" y="2119.3" font-size="36.4px" font-family="CMUBright-Roman" style="text-anchor:end;fill:rgb(0,0,0);" transform="rotate(-3.5,256.9,2119.3)" >Humanities-Liberal-Arts</text>
<path d="M362.881,2126.510 A1642.000,1642.000 40.000 0,1 359.682,2074.299 L321.721,2076.018 A1680.000,1680.000 0.000 0,0 324.994,2129.438 Z" style="stroke-width:2.0;stroke:rgb(255,255,255);stroke-linecap:round;fill:none;" />
<path d="M358.451,2038.498 A1642.000,1642.000 40.000 0,1 358.158,2022.807 L320.162,2023.335 A1680.000,1680.000 0.000 0,0 320.462,2039.389 Z" style="stroke-width:2.0;stroke:rgb(255,255,255);stroke-linecap:round;fill:rgb(235,168,78);" />
<text x="253.4" y="2045.1" font-size="36.4px" font-family="CMUBright-Roman" style="text-anchor:end;fill:rgb(0,0,0);" transform="rotate(-1.1,253.4,2045.1)" >International-Studies</text>
<path d="M358.451,2038.498 A1642.000,1642.000 40.000 0,1 358.158,2022.807 L320.162,2023.335 A1680.000,1680.000 0.000 0,0 320.462,2039.389 Z" style="stroke-width:2.0;stroke:rgb(255,255,255);stroke-linecap:round;fill:none;" />
<path d="M358.052,1986.985 A1642.000,1642.000 40.000 0,1 367.336,1825.152 L329.552,1821.105 A1680.000,1680.000 0.000 0,0 320.053,1986.684 Z" style="stroke-width:2.0;stroke:rgb(255,255,255);stroke-linecap:round;fill:rgb(175,35,42);" />
<text x="255.0" y="1912.4" font-size="36.4px" font-family="CMUBright-Roman" style="text-anchor:end;fill:rgb(0,0,0);" transform="rotate(3.3,255.0,1912.4)" >Teacher-Education</text>
<path d="M358.052,1986.985 A1642.000,1642.000 40.000 0,1 367.336,1825.152 L329.552,1821.105 A1680.000,1680.000 0.000 0,0 320.053,1986.684 Z" style="stroke-width:2.0;stroke:rgb(255,255,255);stroke-linecap:round;fill:none;" />
<path d="M371.539,1789.577 A1642.000,1642.000 40.000 0,1 376.636,1753.316 L339.067,1747.607 A1680.000,1680.000 0.000 0,0 333.852,1784.707 Z" style="stroke-width:2.0;stroke:rgb(255,255,255);stroke-linecap:round;fill:rgb(195,58,55);" />
<text x="268.1" y="1769.2" font-size="36.4px" font-family="CMUBright-Roman" style="text-anchor:end;fill:rgb(0,0,0);" transform="rotate(8.0,268.1,1769.2)" >Social-Work</text>
<path d="M371.539,1789.577 A1642.000,1642.000 40.000 0,1 376.636,1753.316 L339.067,1747.607 A1680.000,1680.000 0.000 0,0 333.852,1784.707 Z" style="stroke-width:2.0;stroke:rgb(255,255,255);stroke-linecap:round;fill:none;" />
<path d="M382.404,1717.961 A1642.000,1642.000 40.000 0,1 388.090,1687.094 L350.786,1679.853 A1680.000,1680.000 0.000 0,0 344.968,1711.434 Z" style="stroke-width:2.0;stroke:rgb(255,255,255);stroke-linecap:round;fill:rgb(215,82,72);" />
<text x="279.0" y="1698.7" font-size="36.4px" font-family="CMUBright-Roman" style="text-anchor:end;fill:rgb(0,0,0);" transform="rotate(10.4,279.0,1698.7)" >Special-Education</text>
<path d="M382.404,1717.961 A1642.000,1642.000 40.000 0,1 388.090,1687.094 L350.786,1679.853 A1680.000,1680.000 0.000 0,0 344.968,1711.434 Z" style="stroke-width:2.0;stroke:rgb(255,255,255);stroke-linecap:round;fill:none;" />
<path d="M395.300,1652.005 A1642.000,1642.000 40.000 0,1 396.416,1646.895 L359.305,1638.723 A1680.000,1680.000 0.000 0,0 358.163,1643.952 Z" style="stroke-width:2.0;stroke:rgb(255,255,255);stroke-linecap:round;fill:rgb(230,112,95);" />
<text x="289.8" y="1642.1" font-size="36.4px" font-family="CMUBright-Roman" style="text-anchor:end;fill:rgb(0,0,0);" transform="rotate(12.3,289.8,1642.1)" >Educational-Leadership</text>
<path d="M395.300,1652.005 A1642.000,1642.000 40.000 0,1 396.416,1646.895 L359.305,1638.723 A1680.000,1680.000 0.000 0,0 358.163,1643.952 Z" style="stroke-width:2.0;stroke:rgb(255,255,255);stroke-linecap:round;fill:none;" />
<path d="M404.501,1611.997 A1642.000,1642.000 40.000 0,1 423.388,1541.244 L386.901,1530.627 A1680.000,1680.000 0.000 0,0 367.577,1603.017 Z" style="stroke-width:2.0;stroke:rgb(255,255,255);stroke-linecap:round;fill:rgb(0,130,142);" />
<text x="308.7" y="1561.5" font-size="36.4px" font-family="CMUBright-Roman" style="text-anchor:end;fill:rgb(0,0,0);" transform="rotate(14.9,308.7,1561.5)" >Communication-Studies</text>
<path d="M404.501,1611.997 A1642.000,1642.000 40.000 0,1 423.388,1541.244 L386.901,1530.627 A1680.000,1680.000 0.000 0,0 367.577,1603.017 Z" style="stroke-width:2.0;stroke:rgb(255,255,255);stroke-linecap:round;fill:none;" />
<path d="M433.770,1506.960 A1642.000,1642.000 40.000 0,1 448.549,1462.261 L412.644,1449.816 A1680.000,1680.000 0.000 0,0 397.524,1495.549 Z" style="stroke-width:2.0;stroke:rgb(255,255,255);stroke-linecap:round;fill:rgb(0,165,172);" />
<text x="337.2" y="1463.4" font-size="36.4px" font-family="CMUBright-Roman" style="text-anchor:end;fill:rgb(0,0,0);" transform="rotate(18.3,337.2,1463.4)" >Journalism-Media</text>
<path d="M433.770,1506.960 A1642.000,1642.000 40.000 0,1 448.549,1462.261 L412.644,1449.816 A1680.000,1680.000 0.000 0,0 397.524,1495.549 Z" style="stroke-width:2.0;stroke:rgb(255,255,255);stroke-linecap:round;fill:none;" />
<path d="M460.649,1428.544 A1642.000,1642.000 40.000 0,1 466.181,1413.858 L430.684,1400.293 A1680.000,1680.000 0.000 0,0 425.024,1415.319 Z" style="stroke-width:2.0;stroke:rgb(255,255,255);stroke-linecap:round;fill:rgb(38,195,195);" />
<text x="359.4" y="1399.1" font-size="36.4px" font-family="CMUBright-Roman" style="text-anchor:end;fill:rgb(0,0,0);" transform="rotate(20.6,359.4,1399.1)" >Creative-Writing</text>
<path d="M460.649,1428.544 A1642.000,1642.000 40.000 0,1 466.181,1413.858 L430.684,1400.293 A1680.000,1680.000 0.000 0,0 425.024,1415.319 Z" style="stroke-width:2.0;stroke:rgb(255,255,255);stroke-linecap:round;fill:none;" />
<path d="M479.332,1380.537 A1642.000,1642.000 40.000 0,1 510.660,1308.603 L476.193,1292.602 A1680.000,1680.000 0.000 0,0 444.140,1366.201 Z" style="stroke-width:2.0;stroke:rgb(255,255,255);stroke-linecap:round;fill:rgb(180,45,112);" />
<text x="391.8" y="1317.1" font-size="36.4px" font-family="CMUBright-Roman" style="text-anchor:end;fill:rgb(0,0,0);" transform="rotate(23.5,391.8,1317.1)" >Arts-Theology</text>
<path d="M479.332,1380.537 A1642.000,1642.000 40.000 0,1 510.660,1308.603 L476.193,1292.602 A1680.000,1680.000 0.000 0,0 444.140,1366.201 Z" style="stroke-width:2.0;stroke:rgb(255,255,255);stroke-linecap:round;fill:none;" />
<path d="M526.097,1276.278 A1642.000,1642.000 40.000 0,1 530.738,1266.901 L496.736,1249.936 A1680.000,1680.000 0.000 0,0 491.987,1259.529 Z" style="stroke-width:2.0;stroke:rgb(255,255,255);stroke-linecap:round;fill:rgb(205,75,142);" />
<text x="427.1" y="1239.3" font-size="36.4px" font-family="CMUBright-Roman" style="text-anchor:end;fill:rgb(0,0,0);" transform="rotate(26.3,427.1,1239.3)" >English-Writing</text>
<path d="M526.097,1276.278 A1642.000,1642.000 40.000 0,1 530.738,1266.901 L496.736,1249.936 A1680.000,1680.000 0.000 0,0 491.987,1259.529 Z" style="stroke-width:2.0;stroke:rgb(255,255,255);stroke-linecap:round;fill:none;" />
<path d="M547.080,1235.024 A1642.000,1642.000 40.000 0,1 549.525,1230.399 L515.957,1212.589 A1680.000,1680.000 0.000 0,0 513.456,1217.321 Z" style="stroke-width:2.0;stroke:rgb(255,255,255);stroke-linecap:round;fill:rgb(225,110,168);" />
<text x="447.9" y="1197.7" font-size="36.4px" font-family="CMUBright-Roman" style="text-anchor:end;fill:rgb(0,0,0);" transform="rotate(27.9,447.9,1197.7)" >Languages</text>
<path d="M547.080,1235.024 A1642.000,1642.000 40.000 0,1 549.525,1230.399 L515.957,1212.589 A1680.000,1680.000 0.000 0,0 513.456,1217.321 Z" style="stroke-width:2.0;stroke:rgb(255,255,255);stroke-linecap:round;fill:none;" />
<path d="M566.659,1198.940 A1642.000,1642.000 40.000 0,1 748.337,937.219 L719.370,912.624 A1680.000,1680.000 0.000 0,0 533.488,1180.402 Z" style="stroke-width:2.0;stroke:rgb(255,255,255);stroke-linecap:round;fill:rgb(88,40,138);" />
<text x="555.7" y="1016.9" font-size="36.4px" font-family="CMUBright-Roman" style="text-anchor:end;fill:rgb(0,0,0);" transform="rotate(34.8,555.7,1016.9)" >Biological-Sciences</text>
<path d="M566.659,1198.940 A1642.000,1642.000 40.000 0,1 748.337,937.219 L719.370,912.624 A1680.000,1680.000 0.000 0,0 533.488,1180.402 Z" style="stroke-width:2.0;stroke:rgb(255,255,255);stroke-linecap:round;fill:none;" />
<path d="M771.819,910.167 A1642.000,1642.000 40.000 0,1 821.633,856.490 L794.362,830.027 A1680.000,1680.000 0.000 0,0 743.396,884.946 Z" style="stroke-width:2.0;stroke:rgb(255,255,255);stroke-linecap:round;fill:rgb(115,65,165);" />
<text x="710.8" y="820.7" font-size="36.4px" font-family="CMUBright-Roman" style="text-anchor:end;fill:rgb(0,0,0);" transform="rotate(42.9,710.8,820.7)" >Health-Wellness</text>
<path d="M771.819,910.167 A1642.000,1642.000 40.000 0,1 821.633,856.490 L794.362,830.027 A1680.000,1680.000 0.000 0,0 743.396,884.946 Z" style="stroke-width:2.0;stroke:rgb(255,255,255);stroke-linecap:round;fill:none;" />
<path d="M846.858,831.057 A1642.000,1642.000 40.000 0,1 873.212,805.633 L847.135,777.993 A1680.000,1680.000 0.000 0,0 820.172,804.004 Z" style="stroke-width:2.0;stroke:rgb(255,255,255);stroke-linecap:round;fill:rgb(140,92,188);" />
<text x="775.8" y="753.4" font-size="36.4px" font-family="CMUBright-Roman" style="text-anchor:end;fill:rgb(0,0,0);" transform="rotate(46.0,775.8,753.4)" >Physical-Sciences</text>
<path d="M846.858,831.057 A1642.000,1642.000 40.000 0,1 873.212,805.633 L847.135,777.993 A1680.000,1680.000 0.000 0,0 820.172,804.004 Z" style="stroke-width:2.0;stroke:rgb(255,255,255);stroke-linecap:round;fill:none;" />
<path d="M899.535,781.337 A1642.000,1642.000 40.000 0,1 903.423,777.837 L878.045,749.553 A1680.000,1680.000 0.000 0,0 874.067,753.134 Z" style="stroke-width:2.0;stroke:rgb(255,255,255);stroke-linecap:round;fill:rgb(165,120,208);" />
<text x="821.8" y="709.8" font-size="36.4px" font-family="CMUBright-Roman" style="text-anchor:end;fill:rgb(0,0,0);" transform="rotate(48.0,821.8,709.8)" >Environmental-Sciences</text>
<path d="M899.535,781.337 A1642.000,1642.000 40.000 0,1 903.423,777.837 L878.045,749.553 A1680.000,1680.000 0.000 0,0 874.067,753.134 Z" style="stroke-width:2.0;stroke:rgb(255,255,255);stroke-linecap:round;fill:none;" />
<path d="M930.345,754.206 A1642.000,1642.000 40.000 0,1 1638.399,398.311 L1630.030,361.244 A1680.000,1680.000 0.000 0,0 905.590,725.375 Z" style="stroke-width:2.0;stroke:rgb(255,255,255);stroke-linecap:round;fill:rgb(22,118,50);" />
<text x="1201.1" y="446.2" font-size="36.4px" font-family="CMUBright-Roman" style="text-anchor:end;fill:rgb(0,0,0);" transform="rotate(63.3,1201.1,446.2)" >Engineering-Disciplines</text>
<path d="M930.345,754.206 A1642.000,1642.000 40.000 0,1 1638.399,398.311 L1630.030,361.244 A1680.000,1680.000 0.000 0,0 905.590,725.375 Z" style="stroke-width:2.0;stroke:rgb(255,255,255);stroke-linecap:round;fill:none;" />
<path d="M1673.425,390.804 A1642.000,1642.000 40.000 0,1 1964.180,358.391 L1963.351,320.400 A1680.000,1680.000 0.000 0,0 1665.867,353.563 Z" style="stroke-width:2.0;stroke:rgb(255,255,255);stroke-linecap:round;fill:rgb(48,158,75);" />
<text x="1791.0" y="265.3" font-size="36.4px" font-family="CMUBright-Roman" style="text-anchor:end;fill:rgb(0,0,0);" transform="rotate(83.6,1791.0,265.3)" >Computer-Science-IT</text>
<path d="M1673.425,390.804 A1642.000,1642.000 40.000 0,1 1964.180,358.391 L1963.351,320.400 A1680.000,1680.000 0.000 0,0 1665.867,353.563 Z" style="stroke-width:2.0;stroke:rgb(255,255,255);stroke-linecap:round;fill:none;" />
</g>
<g id="track_0">
<path d="M 481.845,2581.132 A 1625.580,1625.580 0.00 0,1 472.8,2556.9 L 472.8,2556.9 528.4,2537.9 585.7,2521.2 644.4,2506.7 704.2,2494.6 765.0,2484.9 826.7,2477.7 889.0,2473.1 951.8,2471.1 1014.8,2471.7 1078.0,2475.1 1141.1,2481.1 1204.0,2489.9 1266.6,2501.4 1328.7,2515.7 1390.1,2532.7 1450.7,2552.4 1510.5,2574.8 1569.1,2599.9 1626.6,2627.5 1682.8,2657.7 1737.6,2690.4 1790.9,2725.5 1842.5,2762.9 1892.4,2802.6 1940.5,2844.4 1986.7,2888.3 2030.8,2934.1 2072.9,2981.8 2112.8,3031.1 2150.4,3081.9 2185.8,3134.1 2218.7,3187.5 2249.3,3242.0 2277.3,3297.4 2302.8,3353.5 2325.7,3410.1 2346.0,3467.0 2363.7,3524.0 2378.6,3580.9  A 1625.580,1625.580 0.00 0,1 2353.4,3586.7 L 2353.4,3586.7 2339.4,3529.8 2322.8,3472.8 2303.5,3415.9 2281.6,3359.3 2257.2,3303.2 2230.2,3247.8 2200.8,3193.3 2168.9,3139.9 2134.7,3087.8 2098.1,3037.1 2059.3,2987.9 2018.4,2940.5 1975.3,2894.8 1930.2,2851.2 1883.2,2809.7 1834.3,2770.3 1783.7,2733.2 1731.4,2698.6 1677.6,2666.3 1622.3,2636.7 1565.8,2609.6 1508.0,2585.1 1449.1,2563.4 1389.3,2544.3 1328.7,2528.0 1267.5,2514.5 1205.7,2503.8 1143.5,2495.8 1081.1,2490.6 1018.6,2488.1 956.2,2488.3 894.1,2491.2 832.4,2496.8 771.3,2504.9 711.1,2515.4 651.8,2528.4 593.7,2543.8 537.0,2561.4 481.8,2581.1  Z" style="stroke-width: 0.0;  fill: rgb(82,145,215);" />
<path d="M 472.781,2556.876 A 1625.580,1625.580 0.00 0,1 471.0,2552.0 L 471.0,2552.0 528.6,2532.7 588.0,2515.5 649.2,2500.5 711.9,2487.9 776.0,2477.5 841.3,2469.6 907.6,2464.0 974.8,2460.9 1042.8,2460.3 1111.4,2462.1 1180.4,2466.4 1249.6,2473.1 1319.0,2482.4 1388.4,2494.1 1457.7,2508.3 1526.6,2525.0 1595.2,2544.0 1663.1,2565.5 1730.4,2589.2 1796.8,2615.3 1862.3,2643.6 1926.7,2674.2 1989.8,2706.8 2051.7,2741.5 2112.1,2778.2 2171.0,2816.8 2228.1,2857.2 2283.5,2899.4 2337.0,2943.2 2388.5,2988.5 2437.9,3035.2 2485.0,3083.2 2529.9,3132.4 2572.3,3182.7 2612.3,3233.8 2649.6,3285.8 2684.3,3338.3 2716.2,3391.4 2745.2,3444.7  A 1625.580,1625.580 0.00 0,1 2740.6,3447.1 L 2740.6,3447.1 2711.8,3393.7 2680.1,3340.6 2645.6,3288.0 2608.5,3236.0 2568.7,3184.8 2526.5,3134.5 2481.8,3085.3 2434.9,3037.2 2385.7,2990.4 2334.4,2945.1 2281.1,2901.3 2225.9,2859.1 2169.0,2818.7 2110.3,2780.1 2050.1,2743.4 1988.4,2708.7 1925.4,2676.1 1861.2,2645.7 1795.9,2617.4 1729.6,2591.4 1662.5,2567.7 1594.7,2546.3 1526.4,2527.4 1457.6,2510.8 1388.5,2496.8 1319.2,2485.2 1250.0,2476.0 1180.8,2469.4 1112.0,2465.3 1043.5,2463.6 975.7,2464.4 908.6,2467.7 842.3,2473.4 777.2,2481.6 713.2,2492.1 650.6,2504.9 589.6,2520.0 530.2,2537.4 472.8,2556.9  Z" style="stroke-width: 0.0;  fill: rgb(82,145,215);" />
<path d="M 471.014,2552.008 A 1625.580,1625.580 0.00 0,1 465.8,2537.4 L 465.8,2537.4 525.2,2518.0 586.6,2500.8 649.9,2485.7 714.9,2472.7 781.6,2462.0 849.7,2453.4 919.1,2447.0 989.7,2442.9 1061.2,2440.9 1133.7,2441.2 1206.9,2443.6 1280.6,2448.3 1354.8,2455.1 1429.3,2464.1 1504.0,2475.3 1578.7,2488.6 1653.3,2504.0 1727.6,2521.4 1801.6,2540.9 1875.0,2562.5 1947.8,2586.0 2019.8,2611.4 2090.9,2638.7 2161.0,2667.8 2229.9,2698.7 2297.4,2731.4 2363.6,2765.7 2428.2,2801.6 2491.1,2839.0 2552.3,2877.9 2611.5,2918.2 2668.6,2959.8 2723.6,3002.6 2776.3,3046.6 2826.6,3091.6 2874.4,3137.6 2919.5,3184.5 2961.9,3232.2 3001.4,3280.5  A 1625.580,1625.580 0.00 0,1 2989.1,3290.0 L 2989.1,3290.0 2950.2,3241.4 2908.4,3193.5 2863.8,3146.4 2816.6,3100.1 2766.9,3054.8 2714.7,3010.6 2660.3,2967.5 2603.7,2925.7 2545.0,2885.2 2484.4,2846.2 2422.0,2808.6 2358.0,2772.5 2292.3,2738.1 2225.2,2705.4 2156.9,2674.5 2087.3,2645.3 2016.7,2618.1 1945.1,2592.7 1872.8,2569.3 1799.8,2547.9 1726.3,2528.6 1652.4,2511.3 1578.2,2496.1 1503.9,2483.1 1429.6,2472.3 1355.5,2463.6 1281.7,2457.1 1208.3,2452.8 1135.5,2450.8 1063.4,2451.0 992.1,2453.4 921.9,2458.1 852.8,2464.9 785.1,2474.0 718.8,2485.3 654.0,2498.8 591.1,2514.4 530.0,2532.1 471.0,2552.0  Z" style="stroke-width: 0.0;  fill: rgb(82,145,215);" />
<path d="M 465.808,2537.370 A 1625.580,1625.580 0.00 0,1 462.4,2527.6 L 462.4,2527.6 523.6,2508.0 586.9,2490.4 652.3,2474.8 719.6,2461.1 788.6,2449.5 859.3,2439.7 931.4,2431.9 1004.9,2426.0 1079.7,2422.0 1155.5,2419.9 1232.3,2419.6 1309.9,2421.2 1388.2,2424.6 1467.0,2429.8 1546.2,2436.7 1625.8,2445.4 1705.4,2455.9 1785.1,2468.0 1864.7,2481.9 1944.0,2497.4 2022.9,2514.5 2101.3,2533.2 2179.1,2553.5 2256.0,2575.4 2332.1,2598.8 2407.0,2623.6 2480.8,2650.0 2553.3,2677.7 2624.3,2706.9 2693.8,2737.4 2761.5,2769.2 2827.4,2802.3 2891.3,2836.7 2953.1,2872.4 3012.7,2909.2 3069.9,2947.1 3124.6,2986.2 3176.6,3026.3 3225.9,3067.5  A 1625.580,1625.580 0.00 0,1 3219.1,3075.3 L 3219.1,3075.3 3170.2,3033.9 3118.5,2993.5 3064.1,2954.2 3007.3,2916.0 2948.0,2879.0 2886.5,2843.1 2823.0,2808.5 2757.4,2775.2 2690.0,2743.1 2620.8,2712.4 2550.1,2683.1 2477.9,2655.2 2404.4,2628.8 2329.7,2603.8 2253.9,2580.4 2177.2,2558.4 2099.7,2538.1 2021.6,2519.4 1942.9,2502.3 1863.8,2486.8 1784.5,2473.1 1705.1,2461.0 1625.6,2450.7 1546.3,2442.1 1467.3,2435.3 1388.7,2430.3 1310.6,2427.2 1233.3,2425.8 1156.7,2426.4 1081.1,2428.8 1006.6,2433.1 933.3,2439.3 861.3,2447.4 790.9,2457.5 722.0,2469.5 655.0,2483.5 589.8,2499.5 526.7,2517.4 465.8,2537.4  Z" style="stroke-width: 0.0;  fill: rgb(82,145,215);" />
<path d="M 462.416,2527.584 A 1625.580,1625.580 0.00 0,1 455.8,2507.9 L 455.8,2507.9 519.2,2488.4 584.7,2470.7 652.4,2454.8 722.1,2440.6 793.5,2428.0 866.8,2417.1 941.6,2407.8 1017.8,2400.0 1095.5,2393.7 1174.3,2388.8 1254.2,2385.4 1335.1,2383.4 1416.9,2382.7 1499.3,2383.4 1582.4,2385.4 1665.9,2388.7 1749.7,2393.2 1833.7,2399.0 1917.8,2406.0 2001.9,2414.3 2085.7,2423.7 2169.3,2434.3 2252.4,2446.1 2334.9,2459.1 2416.8,2473.3 2497.8,2488.6 2577.9,2505.1 2656.8,2522.8 2734.6,2541.6 2811.0,2561.6 2885.9,2582.9 2959.2,2605.3 3030.8,2629.0 3100.5,2653.9 3168.2,2680.1 3233.8,2707.6 3297.1,2736.3 3358.0,2766.4 3416.3,2797.9  A 1625.580,1625.580 0.00 0,1 3406.0,2815.8 L 3406.0,2815.8 3348.3,2783.8 3288.0,2753.1 3225.3,2723.7 3160.3,2695.6 3093.1,2668.9 3023.9,2643.4 2952.9,2619.2 2880.1,2596.2 2805.6,2574.5 2729.7,2554.0 2652.4,2534.7 2573.9,2516.6 2494.2,2499.8 2413.6,2484.2 2332.2,2469.8 2250.0,2456.7 2167.3,2444.7 2084.2,2434.0 2000.7,2424.6 1917.0,2416.4 1833.2,2409.5 1749.6,2403.8 1666.1,2399.5 1583.0,2396.4 1500.3,2394.8 1418.2,2394.4 1336.8,2395.5 1256.3,2398.0 1176.7,2401.9 1098.2,2407.3 1021.0,2414.1 945.1,2422.5 870.7,2432.5 797.9,2444.1 726.8,2457.3 657.6,2472.3 590.4,2488.9 525.3,2507.3 462.4,2527.6  Z" style="stroke-width: 0.0;  fill: rgb(82,145,215);" />
<path d="M 455.817,2507.947 A 1625.580,1625.580 0.00 0,1 449.5,2488.2 L 449.5,2488.2 518.2,2467.6 588.9,2448.0 661.5,2429.5 735.9,2411.9 811.9,2395.1 889.5,2378.9 968.5,2363.2 1048.7,2348.0 1130.2,2333.1 1212.8,2318.5 1296.3,2304.1 1380.6,2289.9 1465.7,2275.7 1551.5,2261.5 1637.8,2247.4 1724.6,2233.2 1811.6,2219.0 1898.9,2204.7 1986.4,2190.3 2073.9,2175.9 2161.3,2161.5 2248.6,2147.0 2335.7,2132.6 2422.4,2118.2 2508.7,2104.0 2594.4,2089.9 2679.6,2076.0 2764.1,2062.5 2847.8,2049.4 2930.7,2036.8 3012.6,2024.7 3093.5,2013.4 3173.4,2002.9 3252.0,1993.4 3329.4,1985.0 3405.5,1977.9 3480.3,1972.1 3553.5,1967.9 3625.2,1965.5  A 1625.580,1625.580 0.00 0,1 3625.5,1986.2 L 3625.5,1986.2 3554.0,1987.7 3481.0,1991.1 3406.5,1996.0 3330.5,2002.3 3253.2,2009.9 3174.6,2018.7 3094.9,2028.4 3014.0,2039.1 2932.2,2050.5 2849.3,2062.5 2765.6,2075.1 2681.2,2088.2 2596.0,2101.6 2510.3,2115.3 2424.0,2129.3 2337.3,2143.4 2250.3,2157.7 2163.0,2172.0 2075.6,2186.4 1988.1,2200.8 1900.7,2215.2 1813.5,2229.6 1726.5,2244.0 1639.8,2258.4 1553.6,2272.8 1468.0,2287.3 1383.0,2301.9 1298.8,2316.6 1215.5,2331.5 1133.2,2346.6 1052.0,2362.0 972.0,2377.9 893.3,2394.2 816.1,2411.1 740.4,2428.6 666.4,2447.0 594.3,2466.2 524.0,2486.5 455.8,2507.9  Z" style="stroke-width: 0.0;  fill: rgb(82,145,215);" />
<path d="M 449.470,2488.229 A 1625.580,1625.580 0.00 0,1 440.4,2458.5 L 440.4,2458.5 508.2,2437.6 577.0,2414.4 646.8,2389.2 717.5,2362.2 789.1,2333.4 861.7,2303.1 935.0,2271.3 1009.2,2238.3 1084.1,2204.2 1159.8,2169.0 1236.0,2133.0 1312.9,2096.2 1390.3,2058.7 1468.1,2020.6 1546.3,1982.0 1624.8,1943.0 1703.6,1903.7 1782.5,1864.1 1861.5,1824.3 1940.4,1784.3 2019.3,1744.2 2097.9,1704.1 2176.2,1663.9 2254.2,1623.7 2331.6,1583.6 2408.4,1543.4 2484.4,1503.3 2559.6,1463.2 2633.8,1423.1 2706.9,1382.9 2778.8,1342.8 2849.3,1302.6 2918.3,1262.2 2985.7,1221.7 3051.3,1181.0 3115.0,1140.1 3176.7,1098.8 3236.0,1057.1 3293.1,1014.9  A 1625.580,1625.580 0.00 0,1 3311.7,1039.7 L 3311.7,1039.7 3253.5,1081.1 3193.1,1122.0 3130.5,1162.4 3065.9,1202.6 2999.4,1242.4 2931.2,1282.1 2861.4,1321.7 2790.2,1361.2 2717.7,1400.7 2644.0,1440.1 2569.2,1479.7 2493.5,1519.2 2417.1,1558.9 2339.9,1598.7 2262.2,1638.5 2184.0,1678.4 2105.4,1718.4 2026.6,1758.4 1947.6,1798.4 1868.6,1838.5 1789.6,1878.4 1710.6,1918.2 1631.9,1957.8 1553.4,1997.2 1475.3,2036.2 1397.6,2074.9 1320.3,2113.0 1243.6,2150.5 1167.5,2187.3 1092.1,2223.3 1017.3,2258.4 943.3,2292.4 870.1,2325.2 797.7,2356.7 726.2,2386.6 655.6,2414.9 585.9,2441.4 517.2,2465.9 449.5,2488.2  Z" style="stroke-width: 0.0;  fill: rgb(82,145,215);" />
<path d="M 440.421,2458.503 A 1625.580,1625.580 0.00 0,1 437.5,2448.6 L 437.5,2448.6 501.1,2429.0 565.5,2406.8 630.6,2381.9 696.4,2354.5 762.9,2324.6 829.8,2292.6 897.2,2258.3 965.0,2221.9 1033.1,2183.6 1101.4,2143.5 1169.9,2101.5 1238.4,2057.9 1306.8,2012.8 1375.2,1966.1 1443.3,1918.1 1511.1,1868.8 1578.5,1818.3 1645.4,1766.6 1711.7,1714.0 1777.3,1660.4 1842.1,1605.9 1906.1,1550.7 1969.0,1494.7 2030.9,1438.1 2091.6,1381.0 2150.9,1323.3 2208.8,1265.3 2265.2,1206.9 2320.0,1148.2 2373.0,1089.3 2424.1,1030.2 2473.3,971.0 2520.3,911.8 2565.1,852.6 2607.6,793.5 2647.6,734.4 2685.0,675.6 2719.7,616.9 2751.5,558.6  A 1625.580,1625.580 0.00 0,1 2760.7,563.4 L 2760.7,563.4 2728.4,621.7 2693.3,680.2 2655.5,739.0 2615.1,797.9 2572.3,856.9 2527.1,916.0 2479.7,975.1 2430.2,1034.2 2378.7,1093.2 2325.4,1152.1 2270.3,1210.7 2213.6,1269.1 2155.5,1327.1 2095.9,1384.7 2035.0,1441.9 1972.9,1498.5 1909.8,1554.5 1845.7,1609.8 1780.7,1664.4 1714.9,1718.1 1648.5,1770.9 1581.5,1822.6 1514.0,1873.3 1446.1,1922.8 1378.0,1971.1 1309.6,2018.0 1241.1,2063.4 1172.6,2107.3 1104.2,2149.5 1035.9,2190.0 967.8,2228.7 900.0,2265.4 832.6,2300.0 765.7,2332.5 699.3,2362.7 633.5,2390.5 568.3,2415.8 504.0,2438.5 440.4,2458.5  Z" style="stroke-width: 0.0;  fill: rgb(82,145,215);" />
</g>
<defs>
<pattern id="hline-sparse" width="10" height="10" patternTransform="rotate(0 0 0)" patternUnits="userSpaceOnUse"><line x1="0" y1="0" x2="10" y2="0" style="stroke:black;stroke-width:2" /></pattern>
<pattern id="checker" width="10" height="10" patternTransform="rotate(45 0 0)" patternUnits="userSpaceOnUse"><line x1="0" y1="0" x2="10" y2="0" style="stroke:black;stroke-width:2" /><line x1="0" y1="0" x2="0" y2="10" style="stroke:black;stroke-width:2" /></pattern>
<pattern id="vline" width="10" height="10" patternTransform="rotate(0 0 0)" patternUnits="userSpaceOnUse"><line x1="0" y1="0" x2="0" y2="10" style="stroke:black;stroke-width:5" /></pattern>
<pattern id="checker" width="10" height="10" patternTransform="rotate(45 0 0)" patternUnits="userSpaceOnUse"><line x1="0" y1="0" x2="10" y2="0" style="stroke:black;stroke-width:5" /><line x1="0" y1="0" x2="0" y2="10" style="stroke:black;stroke-width:4" /></pattern>
<pattern id="hline" width="10" height="10" patternTransform="rotate(0 0 0)" patternUnits="userSpaceOnUse"><line x1="0" y1="0" x2="10" y2="0" style="stroke:black;stroke-width:5" /></pattern>
<pattern id="vline-sparse" width="10" height="10" patternTransform="rotate(0 0 0)" patternUnits="userSpaceOnUse"><line x1="0" y1="0" x2="0" y2="10" style="stroke:black;stroke-width:2" /></pattern>
</defs>
</svg>
