<?xml version="1.0" encoding="utf-8" standalone="no"?>
<!DOCTYPE svg PUBLIC "-//W3C//DTD SVG 1.1//EN" "http://www.w3.org/Graphics/SVG/1.1/DTD/svg11.dtd">
<svg width="4000px" height="4000px" version="1.1" xmlns="http://www.w3.org/2000/svg" xmlns:xlink="http://www.w3.org/1999/xlink">
<g id="bg">
<rect x="0" y="0" width="4000px" height="4000px" style="fill:rgb(255,255,255);"/>
</g>
<g id="ideograms">
<path d="M2000.000,358.000 A1642.000,1642.000 40.000 0,1 2751.610,540.121 L2769.004,506.336 A1680.000,1680.000 0.000 0,0 2000.000,320.000 Z" style="stroke-width:2.0;stroke:rgb(255,255,255);stroke-linecap:round;fill:rgb(185,185,185);" />
<text x="2427.0" y="305.8" font-size="36.4px" font-family="CMUBright-Roman" style="text-anchor:start;fill:rgb(0,0,0);" transform="rotate(283.6,2427.0,305.8)" >Management-Operations</text>
<path d="M2000.000,358.000 A1642.000,1642.000 40.000 0,1 2751.610,540.121 L2769.004,506.336 A1680.000,1680.000 0.000 0,0 2000.000,320.000 Z" style="stroke-width:2.0;stroke:rgb(255,255,255);stroke-linecap:round;fill:none;" />
<path d="M2783.279,556.865 A1642.000,1642.000 40.000 0,1 3226.411,908.176 L3254.793,882.908 A1680.000,1680.000 0.000 0,0 2801.406,523.467 Z" style="stroke-width:2.0;stroke:rgb(255,255,255);stroke-linecap:round;fill:rgb(185,185,185);" />
<text x="3097.5" y="640.5" font-size="36.4px" font-family="CMUBright-Roman" style="text-anchor:start;fill:rgb(0,0,0);" transform="rotate(308.4,3097.5,640.5)" >Engineering</text>
<path d="M2783.279,556.865 A1642.000,1642.000 40.000 0,1 3226.411,908.176 L3254.793,882.908 A1680.000,1680.000 0.000 0,0 2801.406,523.467 Z" style="stroke-width:2.0;stroke:rgb(255,255,255);stroke-linecap:round;fill:none;" />
<path d="M3249.937,935.189 A1642.000,1642.000 40.000 0,1 3507.538,1349.236 L3542.426,1334.176 A1680.000,1680.000 0.000 0,0 3278.864,910.547 Z" style="stroke-width:2.0;stroke:rgb(255,255,255);stroke-linecap:round;fill:rgb(185,185,185);" />
<text x="3491.6" y="1090.2" font-size="36.4px" font-family="CMUBright-Roman" style="text-anchor:start;fill:rgb(0,0,0);" transform="rotate(328.1,3491.6,1090.2)" >Leadership-General</text>
<path d="M3249.937,935.189 A1642.000,1642.000 40.000 0,1 3507.538,1349.236 L3542.426,1334.176 A1680.000,1680.000 0.000 0,0 3278.864,910.547 Z" style="stroke-width:2.0;stroke:rgb(255,255,255);stroke-linecap:round;fill:none;" />
<path d="M3521.375,1382.278 A1642.000,1642.000 40.000 0,1 3633.192,1830.154 L3670.988,1826.223 A1680.000,1680.000 0.000 0,0 3556.584,1367.982 Z" style="stroke-width:2.0;stroke:rgb(255,255,255);stroke-linecap:round;fill:rgb(185,185,185);" />
<text x="3699.0" y="1592.3" font-size="36.4px" font-family="CMUBright-Roman" style="text-anchor:start;fill:rgb(0,0,0);" transform="rotate(346.0,3699.0,1592.3)" >Sales-Marketing</text>
<path d="M3521.375,1382.278 A1642.000,1642.000 40.000 0,1 3633.192,1830.154 L3670.988,1826.223 A1680.000,1680.000 0.000 0,0 3556.584,1367.982 Z" style="stroke-width:2.0;stroke:rgb(255,255,255);stroke-linecap:round;fill:none;" />
<path d="M3636.509,1865.822 A1642.000,1642.000 40.000 0,1 3610.774,2318.704 L3648.051,2326.079 A1680.000,1680.000 0.000 0,0 3674.381,1862.717 Z" style="stroke-width:2.0;stroke:rgb(255,255,255);stroke-linecap:round;fill:rgb(185,185,185);" />
<text x="3743.6" y="2111.6" font-size="36.4px" font-family="CMUBright-Roman" style="text-anchor:start;fill:rgb(0,0,0);" transform="rotate(3.3,3743.6,2111.6)" >Finance-Investment</text>
<path d="M3636.509,1865.822 A1642.000,1642.000 40.000 0,1 3610.774,2318.704 L3648.051,2326.079 A1680.000,1680.000 0.000 0,0 3674.381,1862.717 Z" style="stroke-width:2.0;stroke:rgb(255,255,255);stroke-linecap:round;fill:none;" />
<path d="M3603.438,2353.767 A1642.000,1642.000 40.000 0,1 3499.856,2668.278 L3534.566,2683.744 A1680.000,1680.000 0.000 0,0 3640.546,2361.954 Z" style="stroke-width:2.0;stroke:rgb(255,255,255);stroke-linecap:round;fill:rgb(185,185,185);" />
<text x="3655.6" y="2558.4" font-size="36.4px" font-family="CMUBright-Roman" style="text-anchor:start;fill:rgb(0,0,0);" transform="rotate(18.2,3655.6,2558.4)" >Software-Data</text>
<path d="M3603.438,2353.767 A1642.000,1642.000 40.000 0,1 3499.856,2668.278 L3534.566,2683.744 A1680.000,1680.000 0.000 0,0 3640.546,2361.954 Z" style="stroke-width:2.0;stroke:rgb(255,255,255);stroke-linecap:round;fill:none;" />
<path d="M3484.921,2700.839 A1642.000,1642.000 40.000 0,1 3330.895,2961.708 L3361.695,2983.964 A1680.000,1680.000 0.000 0,0 3519.285,2717.058 Z" style="stroke-width:2.0;stroke:rgb(255,255,255);stroke-linecap:round;fill:rgb(185,185,185);" />
<text x="3498.1" y="2899.1" font-size="36.4px" font-family="CMUBright-Roman" style="text-anchor:start;fill:rgb(0,0,0);" transform="rotate(30.6,3498.1,2899.1)" >Education</text>
<path d="M3484.921,2700.839 A1642.000,1642.000 40.000 0,1 3330.895,2961.708 L3361.695,2983.964 A1680.000,1680.000 0.000 0,0 3519.285,2717.058 Z" style="stroke-width:2.0;stroke:rgb(255,255,255);stroke-linecap:round;fill:none;" />
<path d="M3309.599,2990.512 A1642.000,1642.000 40.000 0,1 3129.055,3192.225 L3155.184,3219.816 A1680.000,1680.000 0.000 0,0 3339.906,3013.435 Z" style="stroke-width:2.0;stroke:rgb(255,255,255);stroke-linecap:round;fill:rgb(185,185,185);" />
<text x="3293.5" y="3174.5" font-size="36.4px" font-family="CMUBright-Roman" style="text-anchor:start;fill:rgb(0,0,0);" transform="rotate(41.8,3293.5,3174.5)" >Research-Science</text>
<path d="M3309.599,2990.512 A1642.000,1642.000 40.000 0,1 3129.055,3192.225 L3155.184,3219.816 A1680.000,1680.000 0.000 0,0 3339.906,3013.435 Z" style="stroke-width:2.0;stroke:rgb(255,255,255);stroke-linecap:round;fill:none;" />
<path d="M3102.778,3216.571 A1642.000,1642.000 40.000 0,1 2891.302,3379.038 L2911.929,3410.952 A1680.000,1680.000 0.000 0,0 3128.299,3244.726 Z" style="stroke-width:2.0;stroke:rgb(255,255,255);stroke-linecap:round;fill:rgb(185,185,185);" />
<text x="3054.5" y="3393.1" font-size="36.4px" font-family="CMUBright-Roman" style="text-anchor:start;fill:rgb(0,0,0);" transform="rotate(52.5,3054.5,3393.1)" >Clinical-Care</text>
<path d="M3102.778,3216.571 A1642.000,1642.000 40.000 0,1 2891.302,3379.038 L2911.929,3410.952 A1680.000,1680.000 0.000 0,0 3128.299,3244.726 Z" style="stroke-width:2.0;stroke:rgb(255,255,255);stroke-linecap:round;fill:none;" />
<path d="M2861.006,3398.153 A1642.000,1642.000 40.000 0,1 2640.127,3512.085 L2654.941,3547.079 A1680.000,1680.000 0.000 0,0 2880.932,3430.510 Z" style="stroke-width:2.0;stroke:rgb(255,255,255);stroke-linecap:round;fill:rgb(185,185,185);" />
<text x="2786.7" y="3560.1" font-size="36.4px" font-family="CMUBright-Roman" style="text-anchor:start;fill:rgb(0,0,0);" transform="rotate(62.7,2786.7,3560.1)" >Accounting-Audit</text>
<path d="M2861.006,3398.153 A1642.000,1642.000 40.000 0,1 2640.127,3512.085 L2654.941,3547.079 A1680.000,1680.000 0.000 0,0 2880.932,3430.510 Z" style="stroke-width:2.0;stroke:rgb(255,255,255);stroke-linecap:round;fill:none;" />
<path d="M2606.988,3525.690 A1642.000,1642.000 40.000 0,1 2452.002,3578.562 L2462.463,3615.094 A1680.000,1680.000 0.000 0,0 2621.036,3560.998 Z" style="stroke-width:2.0;stroke:rgb(255,255,255);stroke-linecap:round;fill:rgb(185,185,185);" />
<text x="2552.3" y="3657.6" font-size="36.4px" font-family="CMUBright-Roman" style="text-anchor:start;fill:rgb(0,0,0);" transform="rotate(71.2,2552.3,3657.6)" >Social-Service</text>
<path d="M2606.988,3525.690 A1642.000,1642.000 40.000 0,1 2452.002,3578.562 L2462.463,3615.094 A1680.000,1680.000 0.000 0,0 2621.036,3560.998 Z" style="stroke-width:2.0;stroke:rgb(255,255,255);stroke-linecap:round;fill:none;" />
<path d="M2417.459,3588.047 A1642.000,1642.000 40.000 0,1 2320.910,3610.336 L2328.336,3647.603 A1680.000,1680.000 0.000 0,0 2427.120,3624.798 Z" style="stroke-width:2.0;stroke:rgb(255,255,255);stroke-linecap:round;fill:rgb(185,185,185);" />
<text x="2380.8" y="3705.2" font-size="36.4px" font-family="CMUBright-Roman" style="text-anchor:start;fill:rgb(0,0,0);" transform="rotate(77.0,2380.8,3705.2)" >IT-Infrastructure</text>
<path d="M2417.459,3588.047 A1642.000,1642.000 40.000 0,1 2320.910,3610.336 L2328.336,3647.603 A1680.000,1680.000 0.000 0,0 2427.120,3624.798 Z" style="stroke-width:2.0;stroke:rgb(255,255,255);stroke-linecap:round;fill:none;" />
<path d="M2285.704,3616.953 A1642.000,1642.000 40.000 0,1 2189.660,3631.010 L2194.050,3668.755 A1680.000,1680.000 0.000 0,0 2292.316,3654.373 Z" style="stroke-width:2.0;stroke:rgb(255,255,255);stroke-linecap:round;fill:rgb(185,185,185);" />
<text x="2237.2" y="3731.0" font-size="36.4px" font-family="CMUBright-Roman" style="text-anchor:start;fill:rgb(0,0,0);" transform="rotate(81.7,2237.2,3731.0)" >Legal-Policy</text>
<path d="M2285.704,3616.953 A1642.000,1642.000 40.000 0,1 2189.660,3631.010 L2194.050,3668.755 A1680.000,1680.000 0.000 0,0 2292.316,3654.373 Z" style="stroke-width:2.0;stroke:rgb(255,255,255);stroke-linecap:round;fill:none;" />
<path d="M2154.035,3634.759 A1642.000,1642.000 40.000 0,1 1474.020,3555.477 L1461.848,3591.475 A1680.000,1680.000 0.000 0,0 2157.600,3672.592 Z" style="stroke-width:2.0;stroke:rgb(255,255,255);stroke-linecap:round;fill:rgb(15,52,135);" />
<text x="1813.6" y="3737.2" font-size="36.4px" font-family="CMUBright-Roman" style="text-anchor:end;fill:rgb(0,0,0);" transform="rotate(-83.3,1813.6,3737.2)" >Finance-Accounting</text>
<path d="M2154.035,3634.759 A1642.000,1642.000 40.000 0,1 1474.020,3555.477 L1461.848,3591.475 A1680.000,1680.000 0.000 0,0 2157.600,3672.592 Z" style="stroke-width:2.0;stroke:rgb(255,255,255);stroke-linecap:round;fill:none;" />
<path d="M1440.213,3543.633 A1642.000,1642.000 40.000 0,1 888.845,3208.925 L863.130,3236.902 A1680.000,1680.000 0.000 0,0 1427.258,3579.356 Z" style="stroke-width:2.0;stroke:rgb(255,255,255);stroke-linecap:round;fill:rgb(42,98,180);" />
<text x="1104.1" y="3500.0" font-size="36.4px" font-family="CMUBright-Roman" style="text-anchor:end;fill:rgb(0,0,0);" transform="rotate(-58.7,1104.1,3500.0)" >General-Business</text>
<path d="M1440.213,3543.633 A1642.000,1642.000 40.000 0,1 888.845,3208.925 L863.130,3236.902 A1680.000,1680.000 0.000 0,0 1427.258,3579.356 Z" style="stroke-width:2.0;stroke:rgb(255,255,255);stroke-linecap:round;fill:none;" />
<path d="M862.737,3184.397 A1642.000,1642.000 40.000 0,1 624.574,2896.866 L592.744,2917.622 A1680.000,1680.000 0.000 0,0 836.418,3211.807 Z" style="stroke-width:2.0;stroke:rgb(255,255,255);stroke-linecap:round;fill:rgb(28,75,160);" />
<text x="664.7" y="3126.8" font-size="36.4px" font-family="CMUBright-Roman" style="text-anchor:end;fill:rgb(0,0,0);" transform="rotate(-39.6,664.7,3126.8)" >Marketing-Communication</text>
<path d="M862.737,3184.397 A1642.000,1642.000 40.000 0,1 624.574,2896.866 L592.744,2917.622 A1680.000,1680.000 0.000 0,0 836.418,3211.807 Z" style="stroke-width:2.0;stroke:rgb(255,255,255);stroke-linecap:round;fill:none;" />
<path d="M605.337,2866.648 A1642.000,1642.000 40.000 0,1 476.558,2612.607 L441.301,2626.784 A1680.000,1680.000 0.000 0,0 573.061,2886.704 Z" style="stroke-width:2.0;stroke:rgb(255,255,255);stroke-linecap:round;fill:rgb(60,120,198);" />
<text x="448.7" y="2803.8" font-size="36.4px" font-family="CMUBright-Roman" style="text-anchor:end;fill:rgb(0,0,0);" transform="rotate(-26.9,448.7,2803.8)" >Operations-Analytics</text>
<path d="M605.337,2866.648 A1642.000,1642.000 40.000 0,1 476.558,2612.607 L441.301,2626.784 A1680.000,1680.000 0.000 0,0 573.061,2886.704 Z" style="stroke-width:2.0;stroke:rgb(255,255,255);stroke-linecap:round;fill:none;" />
<path d="M463.556,2579.227 A1642.000,1642.000 40.000 0,1 407.419,2399.813 L370.563,2409.066 A1680.000,1680.000 0.000 0,0 427.999,2592.632 Z" style="stroke-width:2.0;stroke:rgb(255,255,255);stroke-linecap:round;fill:rgb(82,145,215);" />
<text x="337.2" y="2536.5" font-size="36.4px" font-family="CMUBright-Roman" style="text-anchor:end;fill:rgb(0,0,0);" transform="rotate(-17.4,337.2,2536.5)" >Specialized-Business</text>
<path d="M463.556,2579.227 A1642.000,1642.000 40.000 0,1 407.419,2399.813 L370.563,2409.066 A1680.000,1680.000 0.000 0,0 427.999,2592.632 Z" style="stroke-width:2.0;stroke:rgb(255,255,255);stroke-linecap:round;fill:none;" />
<path d="M399.076,2364.976 A1642.000,1642.000 40.000 0,1 366.776,2169.540 L328.979,2173.464 A1680.000,1680.000 0.000 0,0 362.027,2373.422 Z" style="stroke-width:2.0;stroke:rgb(255,255,255);stroke-linecap:round;fill:rgb(200,108,30);" />
<text x="278.3" y="2297.2" font-size="36.4px" font-family="CMUBright-Roman" style="text-anchor:end;fill:rgb(0,0,0);" transform="rotate(-9.4,278.3,2297.2)" >Social-Sciences</text>
<path d="M399.076,2364.976 A1642.000,1642.000 40.000 0,1 366.776,2169.540 L328.979,2173.464 A1680.000,1680.000 0.000 0,0 362.027,2373.422 Z" style="stroke-width:2.0;stroke:rgb(255,255,255);stroke-linecap:round;fill:none;" />
<path d="M363.466,2133.872 A1642.000,1642.000 40.000 0,1 358.290,2030.870 L320.297,2031.584 A1680.000,1680.000 0.000 0,0 325.593,2136.970 Z" style="stroke-width:2.0;stroke:rgb(255,255,255);stroke-linecap:round;fill:rgb(108,170,228);" />
<text x="255.6" y="2099.7" font-size="36.4px" font-family="CMUBright-Roman" style="text-anchor:end;fill:rgb(0,0,0);" transform="rotate(-2.9,255.6,2099.7)" >Economics</text>
<path d="M363.466,2133.872 A1642.000,1642.000 40.000 0,1 358.290,2030.870 L320.297,2031.584 A1680.000,1680.000 0.000 0,0 325.593,2136.970 Z" style="stroke-width:2.0;stroke:rgb(255,255,255);stroke-linecap:round;fill:none;" />
<path d="M358.007,1995.049 A1642.000,1642.000 40.000 0,1 358.807,1948.539 L320.825,1947.348 A1680.000,1680.000 0.000 0,0 320.008,1994.934 Z" style="stroke-width:2.0;stroke:rgb(255,255,255);stroke-linecap:round;fill:rgb(220,140,52);" />
<text x="252.9" y="1982.5" font-size="36.4px" font-family="CMUBright-Roman" style="text-anchor:end;fill:rgb(0,0,0);" transform="rotate(1.0,252.9,1982.5)" >Humanities-Liberal-Arts</text>
<path d="M358.007,1995.049 A1642.000,1642.000 40.000 0,1 358.807,1948.539 L320.825,1947.348 A1680.000,1680.000 0.000 0,0 320.008,1994.934 Z" style="stroke-width:2.0;stroke:rgb(255,255,255);stroke-linecap:round;fill:none;" />
<path d="M360.320,1912.749 A1642.000,1642.000 40.000 0,1 361.133,1898.615 L323.205,1896.269 A1680.000,1680.000 0.000 0,0 322.373,1910.730 Z" style="stroke-width:2.0;stroke:rgb(255,255,255);stroke-linecap:round;fill:rgb(235,168,78);" />
<text x="255.0" y="1912.1" font-size="36.4px" font-family="CMUBright-Roman" style="text-anchor:end;fill:rgb(0,0,0);" transform="rotate(3.3,255.0,1912.1)" >International-Studies</text>
<path d="M360.320,1912.749 A1642.000,1642.000 40.000 0,1 361.133,1898.615 L323.205,1896.269 A1680.000,1680.000 0.000 0,0 322.373,1910.730 Z" style="stroke-width:2.0;stroke:rgb(255,255,255);stroke-linecap:round;fill:none;" />
<path d="M363.735,1862.887 A1642.000,1642.000 40.000 0,1 391.336,1670.812 L354.108,1663.193 A1680.000,1680.000 0.000 0,0 325.867,1859.714 Z" style="stroke-width:2.0;stroke:rgb(255,255,255);stroke-linecap:round;fill:rgb(195,58,55);" />
<text x="268.8" y="1763.9" font-size="36.4px" font-family="CMUBright-Roman" style="text-anchor:end;fill:rgb(0,0,0);" transform="rotate(8.2,268.8,1763.9)" >Social-Work</text>
<path d="M363.735,1862.887 A1642.000,1642.000 40.000 0,1 391.336,1670.812 L354.108,1663.193 A1680.000,1680.000 0.000 0,0 325.867,1859.714 Z" style="stroke-width:2.0;stroke:rgb(255,255,255);stroke-linecap:round;fill:none;" />
<path d="M398.900,1635.797 A1642.000,1642.000 40.000 0,1 428.981,1522.439 L392.624,1511.387 A1680.000,1680.000 0.000 0,0 361.847,1627.368 Z" style="stroke-width:2.0;stroke:rgb(255,255,255);stroke-linecap:round;fill:rgb(175,35,42);" />
<text x="308.1" y="1564.0" font-size="36.4px" font-family="CMUBright-Roman" style="text-anchor:end;fill:rgb(0,0,0);" transform="rotate(14.9,308.1,1564.0)" >Teacher-Education</text>
<path d="M398.900,1635.797 A1642.000,1642.000 40.000 0,1 428.981,1522.439 L392.624,1511.387 A1680.000,1680.000 0.000 0,0 361.847,1627.368 Z" style="stroke-width:2.0;stroke:rgb(255,255,255);stroke-linecap:round;fill:none;" />
<path d="M439.773,1488.281 A1642.000,1642.000 40.000 0,1 474.975,1391.343 L439.682,1377.257 A1680.000,1680.000 0.000 0,0 403.666,1476.439 Z" style="stroke-width:2.0;stroke:rgb(255,255,255);stroke-linecap:round;fill:rgb(215,82,72);" />
<text x="352.5" y="1418.2" font-size="36.4px" font-family="CMUBright-Roman" style="text-anchor:end;fill:rgb(0,0,0);" transform="rotate(20.0,352.5,1418.2)" >Special-Education</text>
<path d="M439.773,1488.281 A1642.000,1642.000 40.000 0,1 474.975,1391.343 L439.682,1377.257 A1680.000,1680.000 0.000 0,0 403.666,1476.439 Z" style="stroke-width:2.0;stroke:rgb(255,255,255);stroke-linecap:round;fill:none;" />
<path d="M488.616,1358.220 A1642.000,1642.000 40.000 0,1 509.092,1311.991 L474.588,1296.068 A1680.000,1680.000 0.000 0,0 453.639,1343.368 Z" style="stroke-width:2.0;stroke:rgb(255,255,255);stroke-linecap:round;fill:rgb(230,112,95);" />
<text x="396.3" y="1306.6" font-size="36.4px" font-family="CMUBright-Roman" style="text-anchor:end;fill:rgb(0,0,0);" transform="rotate(23.9,396.3,1306.6)" >Educational-Leadership</text>
<path d="M488.616,1358.220 A1642.000,1642.000 40.000 0,1 509.092,1311.991 L474.588,1296.068 A1680.000,1680.000 0.000 0,0 453.639,1343.368 Z" style="stroke-width:2.0;stroke:rgb(255,255,255);stroke-linecap:round;fill:none;" />
<path d="M524.455,1279.630 A1642.000,1642.000 40.000 0,1 553.988,1222.045 L520.524,1204.041 A1680.000,1680.000 0.000 0,0 490.308,1262.959 Z" style="stroke-width:2.0;stroke:rgb(255,255,255);stroke-linecap:round;fill:rgb(0,130,142);" />
<text x="439.7" y="1213.8" font-size="36.4px" font-family="CMUBright-Roman" style="text-anchor:end;fill:rgb(0,0,0);" transform="rotate(27.2,439.7,1213.8)" >Communication-Studies</text>
<path d="M524.455,1279.630 A1642.000,1642.000 40.000 0,1 553.988,1222.045 L520.524,1204.041 A1680.000,1680.000 0.000 0,0 490.308,1262.959 Z" style="stroke-width:2.0;stroke:rgb(255,255,255);stroke-linecap:round;fill:none;" />
<path d="M571.303,1190.686 A1642.000,1642.000 40.000 0,1 588.562,1160.949 L555.898,1141.531 A1680.000,1680.000 0.000 0,0 538.240,1171.956 Z" style="stroke-width:2.0;stroke:rgb(255,255,255);stroke-linecap:round;fill:rgb(0,165,172);" />
<text x="482.6" y="1133.8" font-size="36.4px" font-family="CMUBright-Roman" style="text-anchor:end;fill:rgb(0,0,0);" transform="rotate(30.1,482.6,1133.8)" >Journalism-Media</text>
<path d="M571.303,1190.686 A1642.000,1642.000 40.000 0,1 588.562,1160.949 L555.898,1141.531 A1680.000,1680.000 0.000 0,0 538.240,1171.956 Z" style="stroke-width:2.0;stroke:rgb(255,255,255);stroke-linecap:round;fill:none;" />
<path d="M607.202,1130.358 A1642.000,1642.000 40.000 0,1 613.667,1120.089 L581.583,1099.725 A1680.000,1680.000 0.000 0,0 574.969,1110.233 Z" style="stroke-width:2.0;stroke:rgb(255,255,255);stroke-linecap:round;fill:rgb(38,195,195);" />
<text x="512.9" y="1082.8" font-size="36.4px" font-family="CMUBright-Roman" style="text-anchor:end;fill:rgb(0,0,0);" transform="rotate(32.2,512.9,1082.8)" >Creative-Writing</text>
<path d="M607.202,1130.358 A1642.000,1642.000 40.000 0,1 613.667,1120.089 L581.583,1099.725 A1680.000,1680.000 0.000 0,0 574.969,1110.233 Z" style="stroke-width:2.0;stroke:rgb(255,255,255);stroke-linecap:round;fill:none;" />
<path d="M633.192,1090.055 A1642.000,1642.000 40.000 0,1 667.742,1040.182 L636.910,1017.969 A1680.000,1680.000 0.000 0,0 601.560,1068.997 Z" style="stroke-width:2.0;stroke:rgb(255,255,255);stroke-linecap:round;fill:rgb(180,45,112);" />
<text x="554.7" y="1018.2" font-size="36.4px" font-family="CMUBright-Roman" style="text-anchor:end;fill:rgb(0,0,0);" transform="rotate(34.7,554.7,1018.2)" >Arts-Theology</text>
<path d="M633.192,1090.055 A1642.000,1642.000 40.000 0,1 667.742,1040.182 L636.910,1017.969 A1680.000,1680.000 0.000 0,0 601.560,1068.997 Z" style="stroke-width:2.0;stroke:rgb(255,255,255);stroke-linecap:round;fill:none;" />
<path d="M688.997,1011.347 A1642.000,1642.000 40.000 0,1 698.803,998.477 L668.690,975.299 A1680.000,1680.000 0.000 0,0 658.657,988.467 Z" style="stroke-width:2.0;stroke:rgb(255,255,255);stroke-linecap:round;fill:rgb(205,75,142);" />
<text x="600.6" y="953.9" font-size="36.4px" font-family="CMUBright-Roman" style="text-anchor:end;fill:rgb(0,0,0);" transform="rotate(37.3,600.6,953.9)" >English-Writing</text>
<path d="M688.997,1011.347 A1642.000,1642.000 40.000 0,1 698.803,998.477 L668.690,975.299 A1680.000,1680.000 0.000 0,0 658.657,988.467 Z" style="stroke-width:2.0;stroke:rgb(255,255,255);stroke-linecap:round;fill:none;" />
<path d="M720.960,970.329 A1642.000,1642.000 40.000 0,1 724.774,965.610 L695.262,941.672 A1680.000,1680.000 0.000 0,0 691.360,946.500 Z" style="stroke-width:2.0;stroke:rgb(255,255,255);stroke-linecap:round;fill:rgb(225,110,168);" />
<text x="631.0" y="914.3" font-size="36.4px" font-family="CMUBright-Roman" style="text-anchor:end;fill:rgb(0,0,0);" transform="rotate(38.9,631.0,914.3)" >Languages</text>
<path d="M720.960,970.329 A1642.000,1642.000 40.000 0,1 724.774,965.610 L695.262,941.672 A1680.000,1680.000 0.000 0,0 691.360,946.500 Z" style="stroke-width:2.0;stroke:rgb(255,255,255);stroke-linecap:round;fill:none;" />
<path d="M747.643,938.037 A1642.000,1642.000 40.000 0,1 884.635,794.959 L858.822,767.071 A1680.000,1680.000 0.000 0,0 718.660,913.461 Z" style="stroke-width:2.0;stroke:rgb(255,255,255);stroke-linecap:round;fill:rgb(88,40,138);" />
<text x="727.0" y="803.3" font-size="36.4px" font-family="CMUBright-Roman" style="text-anchor:end;fill:rgb(0,0,0);" transform="rotate(43.8,727.0,803.3)" >Biological-Sciences</text>
<path d="M747.643,938.037 A1642.000,1642.000 40.000 0,1 884.635,794.959 L858.822,767.071 A1680.000,1680.000 0.000 0,0 718.660,913.461 Z" style="stroke-width:2.0;stroke:rgb(255,255,255);stroke-linecap:round;fill:none;" />
<path d="M911.188,770.914 A1642.000,1642.000 40.000 0,1 969.888,721.316 L946.049,691.724 A1680.000,1680.000 0.000 0,0 885.990,742.470 Z" style="stroke-width:2.0;stroke:rgb(255,255,255);stroke-linecap:round;fill:rgb(115,65,165);" />
<text x="862.8" y="673.5" font-size="36.4px" font-family="CMUBright-Roman" style="text-anchor:end;fill:rgb(0,0,0);" transform="rotate(49.8,862.8,673.5)" >Health-Wellness</text>
<path d="M911.188,770.914 A1642.000,1642.000 40.000 0,1 969.888,721.316 L946.049,691.724 A1680.000,1680.000 0.000 0,0 885.990,742.470 Z" style="stroke-width:2.0;stroke:rgb(255,255,255);stroke-linecap:round;fill:none;" />
<path d="M998.028,699.148 A1642.000,1642.000 40.000 0,1 1023.858,679.655 L1001.267,649.099 A1680.000,1680.000 0.000 0,0 974.840,669.043 Z" style="stroke-width:2.0;stroke:rgb(255,255,255);stroke-linecap:round;fill:rgb(140,92,188);" />
<text x="935.2" y="614.8" font-size="36.4px" font-family="CMUBright-Roman" style="text-anchor:end;fill:rgb(0,0,0);" transform="rotate(53.0,935.2,614.8)" >Physical-Sciences</text>
<path d="M998.028,699.148 A1642.000,1642.000 40.000 0,1 1023.858,679.655 L1001.267,649.099 A1680.000,1680.000 0.000 0,0 974.840,669.043 Z" style="stroke-width:2.0;stroke:rgb(255,255,255);stroke-linecap:round;fill:none;" />
<path d="M1052.893,658.675 A1642.000,1642.000 40.000 0,1 1064.493,650.559 L1042.843,619.329 A1680.000,1680.000 0.000 0,0 1030.975,627.633 Z" style="stroke-width:2.0;stroke:rgb(255,255,255);stroke-linecap:round;fill:rgb(165,120,208);" />
<text x="988.2" y="575.6" font-size="36.4px" font-family="CMUBright-Roman" style="text-anchor:end;fill:rgb(0,0,0);" transform="rotate(55.0,988.2,575.6)" >Environmental-Sciences</text>
<path d="M1052.893,658.675 A1642.000,1642.000 40.000 0,1 1064.493,650.559 L1042.843,619.329 A1680.000,1680.000 0.000 0,0 1030.975,627.633 Z" style="stroke-width:2.0;stroke:rgb(255,255,255);stroke-linecap:round;fill:none;" />
<path d="M1094.154,630.472 A1642.000,1642.000 40.000 0,1 1594.822,408.776 L1585.445,371.951 A1680.000,1680.000 0.000 0,0 1073.190,598.778 Z" style="stroke-width:2.0;stroke:rgb(255,255,255);stroke-linecap:round;fill:rgb(22,118,50);" />
<text x="1278.0" y="409.0" font-size="36.4px" font-family="CMUBright-Roman" style="text-anchor:end;fill:rgb(0,0,0);" transform="rotate(66.1,1278.0,409.0)" >Engineering-Disciplines</text>
<path d="M1094.154,630.472 A1642.000,1642.000 40.000 0,1 1594.822,408.776 L1585.445,371.951 A1680.000,1680.000 0.000 0,0 1073.190,598.778 Z" style="stroke-width:2.0;stroke:rgb(255,255,255);stroke-linecap:round;fill:none;" />
<path d="M1629.631,400.315 A1642.000,1642.000 40.000 0,1 1964.180,358.391 L1963.351,320.400 A1680.000,1680.000 0.000 0,0 1621.060,363.295 Z" style="stroke-width:2.0;stroke:rgb(255,255,255);stroke-linecap:round;fill:rgb(48,158,75);" />
<text x="1767.4" y="268.4" font-size="36.4px" font-family="CMUBright-Roman" style="text-anchor:end;fill:rgb(0,0,0);" transform="rotate(82.9,1767.4,268.4)" >Computer-Science-IT</text>
<path d="M1629.631,400.315 A1642.000,1642.000 40.000 0,1 1964.180,358.391 L1963.351,320.400 A1680.000,1680.000 0.000 0,0 1621.060,363.295 Z" style="stroke-width:2.0;stroke:rgb(255,255,255);stroke-linecap:round;fill:none;" />
</g>
<g id="track_0">
<path d="M 2775.446,571.296 A 1625.580,1625.580 0.00 0,1 2824.2,598.9 L 2824.2,598.9 2795.8,645.6 2766.0,691.3 2734.8,735.9 2702.5,779.0 2669.1,820.4 2634.7,859.7 2599.6,896.8 2563.8,931.5 2527.4,963.4 2490.5,992.6 2453.3,1018.7 2415.9,1041.6 2378.3,1061.3 2340.7,1077.6 2303.1,1090.3 2265.7,1099.5 2228.6,1105.1 2191.8,1107.0 2155.5,1105.2 2119.7,1099.7 2084.5,1090.6 2050.0,1077.7 2016.2,1061.3 1983.3,1041.3 1951.3,1017.9 1920.3,991.1 1890.3,961.1 1861.5,928.0 1833.8,891.9 1807.4,853.1 1782.2,811.7 1758.4,767.9 1736.0,722.0 1715.0,674.1 1695.6,624.7 1677.6,573.9 1661.2,522.0 1646.5,469.3 1633.3,416.3  A 1625.580,1625.580 0.00 0,1 1688.2,404.6 L 1688.2,404.6 1699.3,457.8 1712.0,510.6 1726.2,562.7 1741.8,613.7 1758.9,663.3 1777.4,711.3 1797.2,757.4 1818.3,801.3 1840.7,842.8 1864.3,881.7 1889.1,917.8 1915.0,950.9 1942.0,980.9 1970.0,1007.5 1999.0,1030.8 2028.8,1050.5 2059.5,1066.7 2090.9,1079.1 2123.1,1087.9 2155.8,1092.9 2189.1,1094.2 2222.8,1091.7 2256.9,1085.5 2291.3,1075.6 2325.9,1062.1 2360.6,1045.0 2395.4,1024.6 2430.0,1000.7 2464.5,973.7 2498.7,943.7 2532.5,910.8 2565.8,875.3 2598.5,837.2 2630.4,797.0 2661.6,754.7 2691.8,710.7 2720.9,665.3 2748.8,618.7 2775.4,571.3  Z" style="stroke-width: 0.0;  fill: rgb(48,158,75);" />
<path d="M 2824.249,598.885 A 1625.580,1625.580 0.00 0,1 3180.3,882.2 L 3180.3,882.2 3137.1,921.4 3091.6,959.2 3044.0,995.5 2994.5,1030.0 2943.2,1062.7 2890.2,1093.3 2835.7,1121.8 2779.9,1147.9 2722.9,1171.7 2664.7,1193.0 2605.7,1211.7 2545.8,1227.7 2485.3,1240.9 2424.2,1251.4 2362.8,1259.0 2301.1,1263.7 2239.3,1265.5 2177.5,1264.3 2115.9,1260.2 2054.5,1253.2 1993.5,1243.2 1933.1,1230.4 1873.3,1214.7 1814.3,1196.1 1756.1,1174.8 1699.0,1150.8 1643.1,1124.2 1588.4,1095.1 1535.1,1063.5 1483.3,1029.6 1433.1,993.6 1384.6,955.5 1338.0,915.4 1293.3,873.6 1250.8,830.2 1210.3,785.3 1172.2,739.3 1136.5,692.1 1103.2,644.2  A 1625.580,1625.580 0.00 0,1 1514.1,448.7 L 1514.1,448.7 1531.4,500.9 1550.5,552.6 1571.2,603.5 1593.6,653.2 1617.6,701.5 1643.1,748.1 1670.1,792.8 1698.4,835.3 1728.1,875.5 1759.1,913.0 1791.2,947.8 1824.5,979.7 1858.8,1008.4 1894.1,1034.0 1930.2,1056.2 1967.2,1075.0 2004.9,1090.3 2043.2,1102.1 2082.1,1110.2 2121.4,1114.7 2161.1,1115.6 2201.1,1112.8 2241.3,1106.4 2281.5,1096.5 2321.8,1083.0 2361.9,1066.1 2401.8,1045.8 2441.4,1022.3 2480.6,995.7 2519.3,966.1 2557.3,933.8 2594.5,898.8 2630.9,861.3 2666.3,821.7 2700.6,780.1 2733.6,736.7 2765.4,691.8 2795.6,645.8 2824.2,598.9  Z" style="stroke-width: 0.0;  fill: rgb(22,118,50);" />
<path d="M 3180.291,882.224 A 1625.580,1625.580 0.00 0,1 3184.4,886.6 L 3184.4,886.6 3140.6,926.0 3094.5,964.0 3046.1,1000.5 2995.7,1035.4 2943.4,1068.4 2889.4,1099.4 2833.7,1128.3 2776.5,1155.1 2718.0,1179.5 2658.4,1201.5 2597.6,1221.1 2535.9,1238.1 2473.5,1252.4 2410.4,1264.1 2346.8,1273.0 2282.8,1279.1 2218.6,1282.5 2154.2,1283.0 2089.9,1280.7 2025.8,1275.5 1961.9,1267.6 1898.5,1256.8 1835.7,1243.3 1773.5,1227.0 1712.1,1208.1 1651.6,1186.5 1592.3,1162.4 1534.1,1135.8 1477.2,1106.9 1421.8,1075.6 1367.9,1042.2 1315.8,1006.7 1265.4,969.2 1217.0,930.0 1170.6,889.1 1126.4,846.7 1084.5,802.9 1045.0,758.0 1008.0,712.2  A 1625.580,1625.580 0.00 0,1 1012.8,708.5 L 1012.8,708.5 1049.6,754.5 1088.9,799.5 1130.6,843.3 1174.5,885.8 1220.7,926.8 1268.9,966.2 1319.0,1003.7 1370.9,1039.3 1424.6,1072.9 1479.7,1104.2 1536.4,1133.2 1594.3,1159.9 1653.4,1184.1 1713.6,1205.7 1774.8,1224.6 1836.7,1240.9 1899.3,1254.5 1962.5,1265.2 2026.1,1273.2 2090.0,1278.3 2154.1,1280.6 2218.1,1280.0 2282.1,1276.6 2345.9,1270.4 2409.2,1261.4 2472.1,1249.7 2534.3,1235.2 2595.8,1218.1 2656.3,1198.5 2715.8,1176.3 2774.0,1151.8 2831.0,1124.9 2886.4,1095.8 2940.3,1064.7 2992.4,1031.5 3042.6,996.6 3090.7,959.9 3136.7,921.8 3180.3,882.2  Z" style="stroke-width: 0.0;  fill: rgb(140,92,188);" />
<path d="M 3184.414,886.593 A 1625.580,1625.580 0.00 0,1 3185.8,888.1 L 3185.8,888.1 3138.2,930.9 3087.8,972.7 3034.8,1013.6 2979.2,1053.4 2921.2,1092.1 2860.9,1129.7 2798.5,1166.1 2734.0,1201.2 2667.7,1235.1 2599.6,1267.6 2529.9,1298.9 2458.6,1328.7 2386.1,1357.1 2312.2,1384.0 2237.3,1409.4 2161.4,1433.3 2084.7,1455.6 2007.3,1476.3 1929.3,1495.3 1850.8,1512.7 1772.1,1528.4 1693.1,1542.4 1614.2,1554.6 1535.3,1565.0 1456.7,1573.7 1378.4,1580.5 1300.6,1585.4 1223.5,1588.5 1147.1,1589.7 1071.6,1588.9 997.2,1586.3 923.9,1581.7 851.9,1575.1 781.4,1566.5 712.5,1555.9 645.3,1543.3 580.0,1528.7 516.6,1512.1 455.4,1493.4  A 1625.580,1625.580 0.00 0,1 456.0,1491.5 L 456.0,1491.5 517.2,1510.3 580.5,1527.0 645.8,1541.6 713.0,1554.3 781.8,1564.9 852.3,1573.6 924.2,1580.2 997.5,1584.9 1071.9,1587.6 1147.3,1588.4 1223.6,1587.3 1300.7,1584.3 1378.5,1579.4 1456.7,1572.6 1535.3,1564.0 1614.1,1553.6 1693.0,1541.4 1771.9,1527.5 1850.6,1511.8 1929.0,1494.4 2007.0,1475.3 2084.4,1454.6 2161.0,1432.3 2236.9,1408.5 2311.7,1383.0 2385.5,1356.1 2458.0,1327.7 2529.2,1297.8 2598.9,1266.6 2666.9,1234.0 2733.2,1200.1 2797.6,1164.9 2859.9,1128.5 2920.1,1090.9 2978.1,1052.1 3033.6,1012.3 3086.6,971.4 3136.9,929.4 3184.4,886.6  Z" style="stroke-width: 0.0;  fill: rgb(215,82,72);" />
<path d="M 3185.784,888.053 A 1625.580,1625.580 0.00 0,1 3194.0,896.8 L 3194.0,896.8 3140.0,945.6 3083.9,994.2 3025.7,1042.7 2965.7,1091.4 2904.1,1140.1 2841.0,1189.1 2776.5,1238.2 2710.8,1287.7 2644.1,1337.5 2576.5,1387.6 2508.1,1438.2 2439.0,1489.1 2369.4,1540.4 2299.4,1592.2 2229.0,1644.3 2158.4,1696.8 2087.7,1749.7 2017.0,1802.9 1946.3,1856.4 1875.8,1910.1 1805.4,1964.0 1735.4,2018.1 1665.6,2072.2 1596.2,2126.3 1527.3,2180.3 1458.8,2234.0 1390.8,2287.5 1323.4,2340.6 1256.5,2393.1 1190.2,2445.0 1124.4,2496.1 1059.3,2546.2 994.8,2595.3 930.8,2643.2 867.5,2689.6 804.6,2734.5 742.4,2777.7 680.6,2818.9 619.3,2858.0  A 1625.580,1625.580 0.00 0,1 613.0,2847.8 L 613.0,2847.8 674.4,2809.2 736.4,2768.5 798.8,2725.8 861.8,2681.4 925.4,2635.3 989.5,2587.9 1054.2,2539.2 1119.5,2489.3 1185.4,2438.6 1251.9,2387.0 1318.9,2334.7 1386.5,2281.9 1454.6,2228.6 1523.2,2175.0 1592.3,2121.2 1661.8,2067.2 1731.6,2013.2 1801.7,1959.2 1872.1,1905.3 1942.7,1851.5 2013.3,1798.0 2084.0,1744.7 2154.6,1691.8 2225.1,1639.1 2295.4,1586.9 2365.3,1535.0 2434.7,1483.5 2503.6,1432.3 2571.8,1381.6 2639.2,1331.2 2705.7,1281.2 2771.1,1231.4 2835.2,1182.0 2898.0,1132.8 2959.3,1083.7 3018.8,1034.8 3076.6,986.0 3132.3,937.1 3185.8,888.1  Z" style="stroke-width: 0.0;  fill: rgb(60,120,198);" />
<path d="M 3193.970,896.847 A 1625.580,1625.580 0.00 0,1 3195.3,898.3 L 3195.3,898.3 3141.4,949.0 3087.4,1001.7 3033.1,1056.1 2978.5,1112.1 2923.6,1169.5 2868.2,1228.1 2812.4,1287.7 2756.0,1348.3 2699.1,1409.6 2641.6,1471.5 2583.5,1533.8 2524.8,1596.6 2465.5,1659.5 2405.6,1722.6 2345.0,1785.6 2283.9,1848.6 2222.2,1911.4 2160.0,1974.0 2097.3,2036.2 2034.2,2098.0 1970.7,2159.4 1906.9,2220.4 1842.8,2280.7 1778.6,2340.6 1714.3,2399.8 1650.1,2458.4 1585.9,2516.5 1522.0,2573.9 1458.5,2630.7 1395.4,2686.9 1333.0,2742.5 1271.3,2797.6 1210.5,2852.2 1150.8,2906.4 1092.3,2960.2 1035.2,3013.6 979.6,3066.7 925.9,3119.7 874.1,3172.6  A 1625.580,1625.580 0.00 0,1 872.7,3171.2 L 872.7,3171.2 924.5,3118.3 978.4,3065.4 1033.9,3012.3 1091.1,2959.0 1149.7,2905.2 1209.4,2851.1 1270.3,2796.6 1332.0,2741.5 1394.5,2685.9 1457.6,2629.7 1521.2,2573.0 1585.1,2515.6 1649.3,2457.6 1713.6,2399.0 1777.9,2339.8 1842.1,2280.0 1906.2,2219.6 1970.0,2158.7 2033.5,2097.3 2096.6,2035.5 2159.3,1973.2 2221.5,1910.7 2283.1,1847.9 2344.2,1784.9 2404.8,1721.8 2464.7,1658.7 2524.0,1595.8 2582.6,1533.0 2640.7,1470.6 2698.1,1408.7 2755.0,1347.3 2811.3,1286.7 2867.1,1227.0 2922.4,1168.4 2977.3,1110.9 3031.9,1054.8 3086.1,1000.4 3140.1,947.6 3194.0,896.8  Z" style="stroke-width: 0.0;  fill: rgb(28,75,160);" />
<path d="M 3195.328,898.318 A 1625.580,1625.580 0.00 0,1 3211.5,916.1 L 3211.5,916.1 3160.3,963.3 3109.2,1013.1 3058.3,1065.4 3007.5,1119.9 2956.7,1176.5 2905.9,1235.1 2855.2,1295.6 2804.4,1357.7 2753.7,1421.4 2703.0,1486.5 2652.3,1552.9 2601.7,1620.4 2551.1,1689.0 2500.6,1758.6 2450.2,1828.9 2399.9,1899.9 2349.9,1971.6 2300.0,2043.7 2250.5,2116.2 2201.2,2189.1 2152.4,2262.1 2104.0,2335.2 2056.2,2408.4 2009.0,2481.5 1962.6,2554.5 1916.9,2627.3 1872.1,2699.8 1828.2,2772.0 1785.5,2843.8 1744.0,2915.1 1703.8,2985.9 1665.1,3056.1 1627.9,3125.7 1592.5,3194.7 1558.9,3262.9 1527.2,3330.4 1497.7,3397.2 1470.5,3463.1 1445.8,3528.2  A 1625.580,1625.580 0.00 0,1 1423.3,3519.8 L 1423.3,3519.8 1449.1,3454.8 1477.3,3389.0 1507.8,3322.4 1540.3,3255.0 1574.9,3186.9 1611.2,3118.1 1649.2,3048.7 1688.7,2978.6 1729.6,2908.0 1771.8,2836.8 1815.1,2765.1 1859.5,2693.0 1904.8,2620.6 1951.0,2547.9 1997.8,2474.9 2045.4,2401.8 2093.4,2328.6 2142.0,2255.4 2191.0,2182.2 2240.3,2109.3 2289.9,2036.6 2339.7,1964.2 2389.7,1892.3 2439.9,1821.0 2490.1,1750.3 2540.4,1680.3 2590.7,1611.3 2641.1,1543.2 2691.4,1476.3 2741.7,1410.6 2792.0,1346.3 2842.3,1283.6 2892.6,1222.4 2942.9,1163.1 2993.2,1105.6 3043.6,1050.3 3094.0,997.2 3144.6,946.5 3195.3,898.3  Z" style="stroke-width: 0.0;  fill: rgb(42,98,180);" />
<path d="M 3211.480,916.106 A 1625.580,1625.580 0.00 0,1 3214.1,919.1 L 3214.1,919.1 3166.3,963.4 3118.9,1010.7 3072.2,1060.6 3026.2,1113.2 2980.8,1168.2 2936.1,1225.6 2892.2,1285.2 2849.0,1346.9 2806.7,1410.6 2765.3,1476.2 2724.8,1543.4 2685.2,1612.2 2646.7,1682.6 2609.2,1754.2 2572.7,1827.0 2537.4,1901.0 2503.3,1975.9 2470.4,2051.6 2438.8,2128.1 2408.5,2205.1 2379.6,2282.7 2352.0,2360.5 2326.0,2438.6 2301.5,2516.8 2278.5,2594.9 2257.2,2672.9 2237.5,2750.7 2219.6,2828.0 2203.4,2904.8 2189.1,2981.0 2176.7,3056.5 2166.2,3131.0 2157.7,3204.6 2151.4,3277.1 2147.1,3348.3 2145.0,3418.1 2145.2,3486.5 2147.7,3553.3 2152.5,3618.4  A 1625.580,1625.580 0.00 0,1 2148.5,3618.8 L 2148.5,3618.8 2143.8,3553.6 2141.5,3486.8 2141.5,3418.3 2143.7,3348.4 2148.1,3277.2 2154.7,3204.7 2163.3,3131.0 2173.9,3056.4 2186.4,2980.9 2200.8,2904.7 2217.1,2827.8 2235.1,2750.4 2254.9,2672.6 2276.3,2594.6 2299.4,2516.4 2324.0,2438.1 2350.1,2360.0 2377.7,2282.0 2406.6,2204.5 2437.0,2127.3 2468.6,2050.8 2501.5,1975.0 2535.6,1900.0 2570.9,1825.9 2607.3,1753.0 2644.8,1681.2 2683.3,1610.8 2722.9,1541.9 2763.3,1474.5 2804.7,1408.9 2846.9,1345.1 2890.0,1283.2 2933.9,1223.5 2978.5,1165.9 3023.8,1110.8 3069.8,1058.1 3116.4,1008.0 3163.7,960.6 3211.5,916.1  Z" style="stroke-width: 0.0;  fill: rgb(15,52,135);" />
</g>
<defs>
<pattern id="checker" width="10" height="10" patternTransform="rotate(45 0 0)" patternUnits="userSpaceOnUse"><line x1="0" y1="0" x2="10" y2="0" style="stroke:black;stroke-width:2" /><line x1="0" y1="0" x2="0" y2="10" style="stroke:black;stroke-width:2" /></pattern>
<pattern id="hline-sparse" width="10" height="10" patternTransform="rotate(0 0 0)" patternUnits="userSpaceOnUse"><line x1="0" y1="0" x2="10" y2="0" style="stroke:black;stroke-width:2" /></pattern>
<pattern id="checker" width="10" height="10" patternTransform="rotate(45 0 0)" patternUnits="userSpaceOnUse"><line x1="0" y1="0" x2="10" y2="0" style="stroke:black;stroke-width:5" /><line x1="0" y1="0" x2="0" y2="10" style="stroke:black;stroke-width:4" /></pattern>
<pattern id="hline" width="10" height="10" patternTransform="rotate(0 0 0)" patternUnits="userSpaceOnUse"><line x1="0" y1="0" x2="10" y2="0" style="stroke:black;stroke-width:5" /></pattern>
<pattern id="vline" width="10" height="10" patternTransform="rotate(0 0 0)" patternUnits="userSpaceOnUse"><line x1="0" y1="0" x2="0" y2="10" style="stroke:black;stroke-width:5" /></pattern>
<pattern id="vline-sparse" width="10" height="10" patternTransform="rotate(0 0 0)" patternUnits="userSpaceOnUse"><line x1="0" y1="0" x2="0" y2="10" style="stroke:black;stroke-width:2" /></pattern>
</defs>
</svg>
