<?xml version="1.0" encoding="utf-8" standalone="no"?>
<!DOCTYPE svg PUBLIC "-//W3C//DTD SVG 1.1//EN" "http://www.w3.org/Graphics/SVG/1.1/DTD/svg11.dtd">
<svg width="4000px" height="4000px" version="1.1" xmlns="http://www.w3.org/2000/svg" xmlns:xlink="http://www.w3.org/1999/xlink">
<g id="bg">
<rect x="0" y="0" width="4000px" height="4000px" style="fill:rgb(255,255,255);"/>
</g>
<g id="ideograms">
<path d="M2000.000,358.000 A1642.000,1642.000 40.000 0,1 2727.139,527.779 L2743.967,493.709 A1680.000,1680.000 0.000 0,0 2000.000,320.000 Z" style="stroke-width:2.0;stroke:rgb(255,255,255);stroke-linecap:round;fill:rgb(185,185,185);" />
<text x="2412.3" y="302.2" font-size="36.4px" font-family="CMUBright-Roman" style="text-anchor:start;fill:rgb(0,0,0);" transform="rotate(283.1,2412.3,302.2)" >Engineering</text>
<path d="M2000.000,358.000 A1642.000,1642.000 40.000 0,1 2727.139,527.779 L2743.967,493.709 A1680.000,1680.000 0.000 0,0 2000.000,320.000 Z" style="stroke-width:2.0;stroke:rgb(255,255,255);stroke-linecap:round;fill:none;" />
<path d="M2759.082,543.992 A1642.000,1642.000 40.000 0,1 3284.099,976.646 L3313.816,952.963 A1680.000,1680.000 0.000 0,0 2776.649,510.297 Z" style="stroke-width:2.0;stroke:rgb(255,255,255);stroke-linecap:round;fill:rgb(185,185,185);" />
<text x="3120.8" y="659.6" font-size="36.4px" font-family="CMUBright-Roman" style="text-anchor:start;fill:rgb(0,0,0);" transform="rotate(309.5,3120.8,659.6)" >Finance-Investment</text>
<path d="M2759.082,543.992 A1642.000,1642.000 40.000 0,1 3284.099,976.646 L3313.816,952.963 A1680.000,1680.000 0.000 0,0 2776.649,510.297 Z" style="stroke-width:2.0;stroke:rgb(255,255,255);stroke-linecap:round;fill:none;" />
<path d="M3306.118,1004.902 A1642.000,1642.000 40.000 0,1 3557.132,1478.938 L3593.167,1466.879 A1680.000,1680.000 0.000 0,0 3336.345,981.873 Z" style="stroke-width:2.0;stroke:rgb(255,255,255);stroke-linecap:round;fill:rgb(185,185,185);" />
<text x="3551.5" y="1196.5" font-size="36.4px" font-family="CMUBright-Roman" style="text-anchor:start;fill:rgb(0,0,0);" transform="rotate(332.1,3551.5,1196.5)" >Management-Operations</text>
<path d="M3306.118,1004.902 A1642.000,1642.000 40.000 0,1 3557.132,1478.938 L3593.167,1466.879 A1680.000,1680.000 0.000 0,0 3336.345,981.873 Z" style="stroke-width:2.0;stroke:rgb(255,255,255);stroke-linecap:round;fill:none;" />
<path d="M3568.128,1513.031 A1642.000,1642.000 40.000 0,1 3640.479,1929.339 L3678.444,1927.703 A1680.000,1680.000 0.000 0,0 3604.418,1501.761 Z" style="stroke-width:2.0;stroke:rgb(255,255,255);stroke-linecap:round;fill:rgb(185,185,185);" />
<text x="3723.5" y="1713.2" font-size="36.4px" font-family="CMUBright-Roman" style="text-anchor:start;fill:rgb(0,0,0);" transform="rotate(350.1,3723.5,1713.2)" >Software-Data</text>
<path d="M3568.128,1513.031 A1642.000,1642.000 40.000 0,1 3640.479,1929.339 L3678.444,1927.703 A1680.000,1680.000 0.000 0,0 3604.418,1501.761 Z" style="stroke-width:2.0;stroke:rgb(255,255,255);stroke-linecap:round;fill:none;" />
<path d="M3641.630,1965.142 A1642.000,1642.000 40.000 0,1 3597.388,2380.151 L3634.356,2388.948 A1680.000,1680.000 0.000 0,0 3679.621,1964.336 Z" style="stroke-width:2.0;stroke:rgb(255,255,255);stroke-linecap:round;fill:rgb(185,185,185);" />
<text x="3735.6" y="2201.1" font-size="36.4px" font-family="CMUBright-Roman" style="text-anchor:start;fill:rgb(0,0,0);" transform="rotate(6.1,3735.6,2201.1)" >Sales-Marketing</text>
<path d="M3641.630,1965.142 A1642.000,1642.000 40.000 0,1 3597.388,2380.151 L3634.356,2388.948 A1680.000,1680.000 0.000 0,0 3679.621,1964.336 Z" style="stroke-width:2.0;stroke:rgb(255,255,255);stroke-linecap:round;fill:none;" />
<path d="M3588.715,2414.907 A1642.000,1642.000 40.000 0,1 3447.858,2774.513 L3481.365,2792.437 A1680.000,1680.000 0.000 0,0 3625.482,2424.509 Z" style="stroke-width:2.0;stroke:rgb(255,255,255);stroke-linecap:round;fill:rgb(185,185,185);" />
<text x="3620.9" y="2652.1" font-size="36.4px" font-family="CMUBright-Roman" style="text-anchor:start;fill:rgb(0,0,0);" transform="rotate(21.4,3620.9,2652.1)" >Accounting-Audit</text>
<path d="M3588.715,2414.907 A1642.000,1642.000 40.000 0,1 3447.858,2774.513 L3481.365,2792.437 A1680.000,1680.000 0.000 0,0 3625.482,2424.509 Z" style="stroke-width:2.0;stroke:rgb(255,255,255);stroke-linecap:round;fill:none;" />
<path d="M3430.618,2805.914 A1642.000,1642.000 40.000 0,1 3261.549,3051.027 L3290.745,3075.350 A1680.000,1680.000 0.000 0,0 3463.726,2824.565 Z" style="stroke-width:2.0;stroke:rgb(255,255,255);stroke-linecap:round;fill:rgb(185,185,185);" />
<text x="3429.4" y="3004.8" font-size="36.4px" font-family="CMUBright-Roman" style="text-anchor:start;fill:rgb(0,0,0);" transform="rotate(34.6,3429.4,3004.8)" >Leadership-General</text>
<path d="M3430.618,2805.914 A1642.000,1642.000 40.000 0,1 3261.549,3051.027 L3290.745,3075.350 A1680.000,1680.000 0.000 0,0 3463.726,2824.565 Z" style="stroke-width:2.0;stroke:rgb(255,255,255);stroke-linecap:round;fill:none;" />
<path d="M3238.321,3078.297 A1642.000,1642.000 40.000 0,1 3039.505,3271.060 L3063.562,3300.476 A1680.000,1680.000 0.000 0,0 3266.979,3103.252 Z" style="stroke-width:2.0;stroke:rgb(255,255,255);stroke-linecap:round;fill:rgb(185,185,185);" />
<text x="3207.2" y="3263.1" font-size="36.4px" font-family="CMUBright-Roman" style="text-anchor:start;fill:rgb(0,0,0);" transform="rotate(45.9,3207.2,3263.1)" >Clinical-Care</text>
<path d="M3238.321,3078.297 A1642.000,1642.000 40.000 0,1 3039.505,3271.060 L3063.562,3300.476 A1680.000,1680.000 0.000 0,0 3266.979,3103.252 Z" style="stroke-width:2.0;stroke:rgb(255,255,255);stroke-linecap:round;fill:none;" />
<path d="M3011.529,3293.434 A1642.000,1642.000 40.000 0,1 2784.385,3442.534 L2802.537,3475.918 A1680.000,1680.000 0.000 0,0 3034.939,3323.368 Z" style="stroke-width:2.0;stroke:rgb(255,255,255);stroke-linecap:round;fill:rgb(185,185,185);" />
<text x="2948.3" y="3467.5" font-size="36.4px" font-family="CMUBright-Roman" style="text-anchor:start;fill:rgb(0,0,0);" transform="rotate(56.7,2948.3,3467.5)" >Research-Science</text>
<path d="M3011.529,3293.434 A1642.000,1642.000 40.000 0,1 2784.385,3442.534 L2802.537,3475.918 A1680.000,1680.000 0.000 0,0 3034.939,3323.368 Z" style="stroke-width:2.0;stroke:rgb(255,255,255);stroke-linecap:round;fill:none;" />
<path d="M2752.729,3459.302 A1642.000,1642.000 40.000 0,1 2556.245,3544.913 L2569.118,3580.666 A1680.000,1680.000 0.000 0,0 2770.149,3493.074 Z" style="stroke-width:2.0;stroke:rgb(255,255,255);stroke-linecap:round;fill:rgb(185,185,185);" />
<text x="2686.4" y="3606.7" font-size="36.4px" font-family="CMUBright-Roman" style="text-anchor:start;fill:rgb(0,0,0);" transform="rotate(66.5,2686.4,3606.7)" >Education</text>
<path d="M2752.729,3459.302 A1642.000,1642.000 40.000 0,1 2556.245,3544.913 L2569.118,3580.666 A1680.000,1680.000 0.000 0,0 2770.149,3493.074 Z" style="stroke-width:2.0;stroke:rgb(255,255,255);stroke-linecap:round;fill:none;" />
<path d="M2522.411,3556.679 A1642.000,1642.000 40.000 0,1 2417.174,3588.121 L2426.829,3624.875 A1680.000,1680.000 0.000 0,0 2534.501,3592.705 Z" style="stroke-width:2.0;stroke:rgb(255,255,255);stroke-linecap:round;fill:rgb(185,185,185);" />
<text x="2488.2" y="3677.6" font-size="36.4px" font-family="CMUBright-Roman" style="text-anchor:start;fill:rgb(0,0,0);" transform="rotate(73.4,2488.2,3677.6)" >IT-Infrastructure</text>
<path d="M2522.411,3556.679 A1642.000,1642.000 40.000 0,1 2417.174,3588.121 L2426.829,3624.875 A1680.000,1680.000 0.000 0,0 2534.501,3592.705 Z" style="stroke-width:2.0;stroke:rgb(255,255,255);stroke-linecap:round;fill:none;" />
<path d="M2382.430,3596.844 A1642.000,1642.000 40.000 0,1 2321.118,3610.294 L2328.550,3647.560 A1680.000,1680.000 0.000 0,0 2391.281,3633.799 Z" style="stroke-width:2.0;stroke:rgb(255,255,255);stroke-linecap:round;fill:rgb(185,185,185);" />
<text x="2358.7" y="3710.0" font-size="36.4px" font-family="CMUBright-Roman" style="text-anchor:start;fill:rgb(0,0,0);" transform="rotate(77.6,2358.7,3710.0)" >Legal-Policy</text>
<path d="M2382.430,3596.844 A1642.000,1642.000 40.000 0,1 2321.118,3610.294 L2328.550,3647.560 A1680.000,1680.000 0.000 0,0 2391.281,3633.799 Z" style="stroke-width:2.0;stroke:rgb(255,255,255);stroke-linecap:round;fill:none;" />
<path d="M2285.913,3616.916 A1642.000,1642.000 40.000 0,1 2249.787,3622.890 L2255.567,3660.447 A1680.000,1680.000 0.000 0,0 2292.530,3654.336 Z" style="stroke-width:2.0;stroke:rgb(255,255,255);stroke-linecap:round;fill:rgb(185,185,185);" />
<text x="2272.7" y="3725.8" font-size="36.4px" font-family="CMUBright-Roman" style="text-anchor:start;fill:rgb(0,0,0);" transform="rotate(80.6,2272.7,3725.8)" >Social-Service</text>
<path d="M2285.913,3616.916 A1642.000,1642.000 40.000 0,1 2249.787,3622.890 L2255.567,3660.447 A1680.000,1680.000 0.000 0,0 2292.530,3654.336 Z" style="stroke-width:2.0;stroke:rgb(255,255,255);stroke-linecap:round;fill:none;" />
<path d="M2214.324,3627.952 A1642.000,1642.000 40.000 0,1 1245.263,3458.265 L1227.797,3492.013 A1680.000,1680.000 0.000 0,0 2219.284,3665.627 Z" style="stroke-width:2.0;stroke:rgb(255,255,255);stroke-linecap:round;fill:rgb(15,52,135);" />
<text x="1714.4" y="3723.7" font-size="36.4px" font-family="CMUBright-Roman" style="text-anchor:end;fill:rgb(0,0,0);" transform="rotate(-80.1,1714.4,3723.7)" >Finance-Accounting</text>
<path d="M2214.324,3627.952 A1642.000,1642.000 40.000 0,1 1245.263,3458.265 L1227.797,3492.013 A1680.000,1680.000 0.000 0,0 2219.284,3665.627 Z" style="stroke-width:2.0;stroke:rgb(255,255,255);stroke-linecap:round;fill:none;" />
<path d="M1213.631,3441.453 A1642.000,1642.000 40.000 0,1 879.437,3200.209 L853.504,3227.985 A1680.000,1680.000 0.000 0,0 1195.432,3474.812 Z" style="stroke-width:2.0;stroke:rgb(255,255,255);stroke-linecap:round;fill:rgb(28,75,160);" />
<text x="990.4" y="3426.0" font-size="36.4px" font-family="CMUBright-Roman" style="text-anchor:end;fill:rgb(0,0,0);" transform="rotate(-54.2,990.4,3426.0)" >Marketing-Communication</text>
<path d="M1213.631,3441.453 A1642.000,1642.000 40.000 0,1 879.437,3200.209 L853.504,3227.985 A1680.000,1680.000 0.000 0,0 1195.432,3474.812 Z" style="stroke-width:2.0;stroke:rgb(255,255,255);stroke-linecap:round;fill:none;" />
<path d="M853.521,3175.478 A1642.000,1642.000 40.000 0,1 639.254,2918.986 L607.763,2940.253 A1680.000,1680.000 0.000 0,0 826.988,3202.682 Z" style="stroke-width:2.0;stroke:rgb(255,255,255);stroke-linecap:round;fill:rgb(42,98,180);" />
<text x="667.2" y="3129.7" font-size="36.4px" font-family="CMUBright-Roman" style="text-anchor:end;fill:rgb(0,0,0);" transform="rotate(-39.9,667.2,3129.7)" >General-Business</text>
<path d="M853.521,3175.478 A1642.000,1642.000 40.000 0,1 639.254,2918.986 L607.763,2940.253 A1680.000,1680.000 0.000 0,0 826.988,3202.682 Z" style="stroke-width:2.0;stroke:rgb(255,255,255);stroke-linecap:round;fill:none;" />
<path d="M619.530,2889.082 A1642.000,1642.000 40.000 0,1 479.680,2620.315 L444.496,2634.671 A1680.000,1680.000 0.000 0,0 587.583,2909.658 Z" style="stroke-width:2.0;stroke:rgb(255,255,255);stroke-linecap:round;fill:rgb(60,120,198);" />
<text x="457.3" y="2820.2" font-size="36.4px" font-family="CMUBright-Roman" style="text-anchor:end;fill:rgb(0,0,0);" transform="rotate(-27.5,457.3,2820.2)" >Operations-Analytics</text>
<path d="M619.530,2889.082 A1642.000,1642.000 40.000 0,1 479.680,2620.315 L444.496,2634.671 A1680.000,1680.000 0.000 0,0 587.583,2909.658 Z" style="stroke-width:2.0;stroke:rgb(255,255,255);stroke-linecap:round;fill:none;" />
<path d="M466.510,2587.002 A1642.000,1642.000 40.000 0,1 421.749,2453.087 L385.224,2463.573 A1680.000,1680.000 0.000 0,0 431.021,2600.587 Z" style="stroke-width:2.0;stroke:rgb(255,255,255);stroke-linecap:round;fill:rgb(82,145,215);" />
<text x="347.9" y="2568.6" font-size="36.4px" font-family="CMUBright-Roman" style="text-anchor:end;fill:rgb(0,0,0);" transform="rotate(-18.5,347.9,2568.6)" >Specialized-Business</text>
<path d="M466.510,2587.002 A1642.000,1642.000 40.000 0,1 421.749,2453.087 L385.224,2463.573 A1680.000,1680.000 0.000 0,0 431.021,2600.587 Z" style="stroke-width:2.0;stroke:rgb(255,255,255);stroke-linecap:round;fill:none;" />
<path d="M412.241,2418.550 A1642.000,1642.000 40.000 0,1 391.911,2331.987 L354.696,2339.670 A1680.000,1680.000 0.000 0,0 375.496,2428.236 Z" style="stroke-width:2.0;stroke:rgb(255,255,255);stroke-linecap:round;fill:rgb(108,170,228);" />
<text x="301.9" y="2411.1" font-size="36.4px" font-family="CMUBright-Roman" style="text-anchor:end;fill:rgb(0,0,0);" transform="rotate(-13.2,301.9,2411.1)" >Economics</text>
<path d="M412.241,2418.550 A1642.000,1642.000 40.000 0,1 391.911,2331.987 L354.696,2339.670 A1680.000,1680.000 0.000 0,0 375.496,2428.236 Z" style="stroke-width:2.0;stroke:rgb(255,255,255);stroke-linecap:round;fill:none;" />
<path d="M385.052,2296.827 A1642.000,1642.000 40.000 0,1 366.030,2162.194 L328.216,2165.947 A1680.000,1680.000 0.000 0,0 347.678,2303.697 Z" style="stroke-width:2.0;stroke:rgb(255,255,255);stroke-linecap:round;fill:rgb(200,108,30);" />
<text x="271.8" y="2256.8" font-size="36.4px" font-family="CMUBright-Roman" style="text-anchor:end;fill:rgb(0,0,0);" transform="rotate(-8.0,271.8,2256.8)" >Social-Sciences</text>
<path d="M385.052,2296.827 A1642.000,1642.000 40.000 0,1 366.030,2162.194 L328.216,2165.947 A1680.000,1680.000 0.000 0,0 347.678,2303.697 Z" style="stroke-width:2.0;stroke:rgb(255,255,255);stroke-linecap:round;fill:none;" />
<path d="M362.881,2126.510 A1642.000,1642.000 40.000 0,1 359.682,2074.299 L321.721,2076.018 A1680.000,1680.000 0.000 0,0 324.994,2129.438 Z" style="stroke-width:2.0;stroke:rgb(255,255,255);stroke-linecap:round;fill:rgb(220,140,52);" />
<text x="256.9" y="2119.3" font-size="36.4px" font-family="CMUBright-Roman" style="text-anchor:end;fill:rgb(0,0,0);" transform="rotate(-3.5,256.9,2119.3)" >Humanities-Liberal-Arts</text>
<path d="M362.881,2126.510 A1642.000,1642.000 40.000 0,1 359.682,2074.299 L321.721,2076.018 A1680.000,1680.000 0.000 0,0 324.994,2129.438 Z" style="stroke-width:2.0;stroke:rgb(255,255,255);stroke-linecap:round;fill:none;" />
<path d="M358.451,2038.498 A1642.000,1642.000 40.000 0,1 358.158,2022.807 L320.162,2023.335 A1680.000,1680.000 0.000 0,0 320.462,2039.389 Z" style="stroke-width:2.0;stroke:rgb(255,255,255);stroke-linecap:round;fill:rgb(235,168,78);" />
<text x="253.4" y="2045.1" font-size="36.4px" font-family="CMUBright-Roman" style="text-anchor:end;fill:rgb(0,0,0);" transform="rotate(-1.1,253.4,2045.1)" >International-Studies</text>
<path d="M358.451,2038.498 A1642.000,1642.000 40.000 0,1 358.158,2022.807 L320.162,2023.335 A1680.000,1680.000 0.000 0,0 320.462,2039.389 Z" style="stroke-width:2.0;stroke:rgb(255,255,255);stroke-linecap:round;fill:none;" />
<path d="M358.052,1986.985 A1642.000,1642.000 40.000 0,1 367.336,1825.152 L329.552,1821.105 A1680.000,1680.000 0.000 0,0 320.053,1986.684 Z" style="stroke-width:2.0;stroke:rgb(255,255,255);stroke-linecap:round;fill:rgb(175,35,42);" />
<text x="255.0" y="1912.4" font-size="36.4px" font-family="CMUBright-Roman" style="text-anchor:end;fill:rgb(0,0,0);" transform="rotate(3.3,255.0,1912.4)" >Teacher-Education</text>
<path d="M358.052,1986.985 A1642.000,1642.000 40.000 0,1 367.336,1825.152 L329.552,1821.105 A1680.000,1680.000 0.000 0,0 320.053,1986.684 Z" style="stroke-width:2.0;stroke:rgb(255,255,255);stroke-linecap:round;fill:none;" />
<path d="M371.539,1789.577 A1642.000,1642.000 40.000 0,1 376.636,1753.316 L339.067,1747.607 A1680.000,1680.000 0.000 0,0 333.852,1784.707 Z" style="stroke-width:2.0;stroke:rgb(255,255,255);stroke-linecap:round;fill:rgb(195,58,55);" />
<text x="268.1" y="1769.2" font-size="36.4px" font-family="CMUBright-Roman" style="text-anchor:end;fill:rgb(0,0,0);" transform="rotate(8.0,268.1,1769.2)" >Social-Work</text>
<path d="M371.539,1789.577 A1642.000,1642.000 40.000 0,1 376.636,1753.316 L339.067,1747.607 A1680.000,1680.000 0.000 0,0 333.852,1784.707 Z" style="stroke-width:2.0;stroke:rgb(255,255,255);stroke-linecap:round;fill:none;" />
<path d="M382.404,1717.961 A1642.000,1642.000 40.000 0,1 388.090,1687.094 L350.786,1679.853 A1680.000,1680.000 0.000 0,0 344.968,1711.434 Z" style="stroke-width:2.0;stroke:rgb(255,255,255);stroke-linecap:round;fill:rgb(215,82,72);" />
<text x="279.0" y="1698.7" font-size="36.4px" font-family="CMUBright-Roman" style="text-anchor:end;fill:rgb(0,0,0);" transform="rotate(10.4,279.0,1698.7)" >Special-Education</text>
<path d="M382.404,1717.961 A1642.000,1642.000 40.000 0,1 388.090,1687.094 L350.786,1679.853 A1680.000,1680.000 0.000 0,0 344.968,1711.434 Z" style="stroke-width:2.0;stroke:rgb(255,255,255);stroke-linecap:round;fill:none;" />
<path d="M395.300,1652.005 A1642.000,1642.000 40.000 0,1 396.416,1646.895 L359.305,1638.723 A1680.000,1680.000 0.000 0,0 358.163,1643.952 Z" style="stroke-width:2.0;stroke:rgb(255,255,255);stroke-linecap:round;fill:rgb(230,112,95);" />
<text x="289.8" y="1642.1" font-size="36.4px" font-family="CMUBright-Roman" style="text-anchor:end;fill:rgb(0,0,0);" transform="rotate(12.3,289.8,1642.1)" >Educational-Leadership</text>
<path d="M395.300,1652.005 A1642.000,1642.000 40.000 0,1 396.416,1646.895 L359.305,1638.723 A1680.000,1680.000 0.000 0,0 358.163,1643.952 Z" style="stroke-width:2.0;stroke:rgb(255,255,255);stroke-linecap:round;fill:none;" />
<path d="M404.501,1611.997 A1642.000,1642.000 40.000 0,1 423.388,1541.244 L386.901,1530.627 A1680.000,1680.000 0.000 0,0 367.577,1603.017 Z" style="stroke-width:2.0;stroke:rgb(255,255,255);stroke-linecap:round;fill:rgb(0,130,142);" />
<text x="308.7" y="1561.5" font-size="36.4px" font-family="CMUBright-Roman" style="text-anchor:end;fill:rgb(0,0,0);" transform="rotate(14.9,308.7,1561.5)" >Communication-Studies</text>
<path d="M404.501,1611.997 A1642.000,1642.000 40.000 0,1 423.388,1541.244 L386.901,1530.627 A1680.000,1680.000 0.000 0,0 367.577,1603.017 Z" style="stroke-width:2.0;stroke:rgb(255,255,255);stroke-linecap:round;fill:none;" />
<path d="M433.770,1506.960 A1642.000,1642.000 40.000 0,1 448.549,1462.261 L412.644,1449.816 A1680.000,1680.000 0.000 0,0 397.524,1495.549 Z" style="stroke-width:2.0;stroke:rgb(255,255,255);stroke-linecap:round;fill:rgb(0,165,172);" />
<text x="337.2" y="1463.4" font-size="36.4px" font-family="CMUBright-Roman" style="text-anchor:end;fill:rgb(0,0,0);" transform="rotate(18.3,337.2,1463.4)" >Journalism-Media</text>
<path d="M433.770,1506.960 A1642.000,1642.000 40.000 0,1 448.549,1462.261 L412.644,1449.816 A1680.000,1680.000 0.000 0,0 397.524,1495.549 Z" style="stroke-width:2.0;stroke:rgb(255,255,255);stroke-linecap:round;fill:none;" />
<path d="M460.649,1428.544 A1642.000,1642.000 40.000 0,1 466.181,1413.858 L430.684,1400.293 A1680.000,1680.000 0.000 0,0 425.024,1415.319 Z" style="stroke-width:2.0;stroke:rgb(255,255,255);stroke-linecap:round;fill:rgb(38,195,195);" />
<text x="359.4" y="1399.1" font-size="36.4px" font-family="CMUBright-Roman" style="text-anchor:end;fill:rgb(0,0,0);" transform="rotate(20.6,359.4,1399.1)" >Creative-Writing</text>
<path d="M460.649,1428.544 A1642.000,1642.000 40.000 0,1 466.181,1413.858 L430.684,1400.293 A1680.000,1680.000 0.000 0,0 425.024,1415.319 Z" style="stroke-width:2.0;stroke:rgb(255,255,255);stroke-linecap:round;fill:none;" />
<path d="M479.332,1380.537 A1642.000,1642.000 40.000 0,1 510.660,1308.603 L476.193,1292.602 A1680.000,1680.000 0.000 0,0 444.140,1366.201 Z" style="stroke-width:2.0;stroke:rgb(255,255,255);stroke-linecap:round;fill:rgb(180,45,112);" />
<text x="391.8" y="1317.1" font-size="36.4px" font-family="CMUBright-Roman" style="text-anchor:end;fill:rgb(0,0,0);" transform="rotate(23.5,391.8,1317.1)" >Arts-Theology</text>
<path d="M479.332,1380.537 A1642.000,1642.000 40.000 0,1 510.660,1308.603 L476.193,1292.602 A1680.000,1680.000 0.000 0,0 444.140,1366.201 Z" style="stroke-width:2.0;stroke:rgb(255,255,255);stroke-linecap:round;fill:none;" />
<path d="M526.097,1276.278 A1642.000,1642.000 40.000 0,1 530.738,1266.901 L496.736,1249.936 A1680.000,1680.000 0.000 0,0 491.987,1259.529 Z" style="stroke-width:2.0;stroke:rgb(255,255,255);stroke-linecap:round;fill:rgb(205,75,142);" />
<text x="427.1" y="1239.3" font-size="36.4px" font-family="CMUBright-Roman" style="text-anchor:end;fill:rgb(0,0,0);" transform="rotate(26.3,427.1,1239.3)" >English-Writing</text>
<path d="M526.097,1276.278 A1642.000,1642.000 40.000 0,1 530.738,1266.901 L496.736,1249.936 A1680.000,1680.000 0.000 0,0 491.987,1259.529 Z" style="stroke-width:2.0;stroke:rgb(255,255,255);stroke-linecap:round;fill:none;" />
<path d="M547.080,1235.024 A1642.000,1642.000 40.000 0,1 549.525,1230.399 L515.957,1212.589 A1680.000,1680.000 0.000 0,0 513.456,1217.321 Z" style="stroke-width:2.0;stroke:rgb(255,255,255);stroke-linecap:round;fill:rgb(225,110,168);" />
<text x="447.9" y="1197.7" font-size="36.4px" font-family="CMUBright-Roman" style="text-anchor:end;fill:rgb(0,0,0);" transform="rotate(27.9,447.9,1197.7)" >Languages</text>
<path d="M547.080,1235.024 A1642.000,1642.000 40.000 0,1 549.525,1230.399 L515.957,1212.589 A1680.000,1680.000 0.000 0,0 513.456,1217.321 Z" style="stroke-width:2.0;stroke:rgb(255,255,255);stroke-linecap:round;fill:none;" />
<path d="M566.659,1198.940 A1642.000,1642.000 40.000 0,1 748.337,937.219 L719.370,912.624 A1680.000,1680.000 0.000 0,0 533.488,1180.402 Z" style="stroke-width:2.0;stroke:rgb(255,255,255);stroke-linecap:round;fill:rgb(88,40,138);" />
<text x="555.7" y="1016.9" font-size="36.4px" font-family="CMUBright-Roman" style="text-anchor:end;fill:rgb(0,0,0);" transform="rotate(34.8,555.7,1016.9)" >Biological-Sciences</text>
<path d="M566.659,1198.940 A1642.000,1642.000 40.000 0,1 748.337,937.219 L719.370,912.624 A1680.000,1680.000 0.000 0,0 533.488,1180.402 Z" style="stroke-width:2.0;stroke:rgb(255,255,255);stroke-linecap:round;fill:none;" />
<path d="M771.819,910.167 A1642.000,1642.000 40.000 0,1 821.633,856.490 L794.362,830.027 A1680.000,1680.000 0.000 0,0 743.396,884.946 Z" style="stroke-width:2.0;stroke:rgb(255,255,255);stroke-linecap:round;fill:rgb(115,65,165);" />
<text x="710.8" y="820.7" font-size="36.4px" font-family="CMUBright-Roman" style="text-anchor:end;fill:rgb(0,0,0);" transform="rotate(42.9,710.8,820.7)" >Health-Wellness</text>
<path d="M771.819,910.167 A1642.000,1642.000 40.000 0,1 821.633,856.490 L794.362,830.027 A1680.000,1680.000 0.000 0,0 743.396,884.946 Z" style="stroke-width:2.0;stroke:rgb(255,255,255);stroke-linecap:round;fill:none;" />
<path d="M846.858,831.057 A1642.000,1642.000 40.000 0,1 873.212,805.633 L847.135,777.993 A1680.000,1680.000 0.000 0,0 820.172,804.004 Z" style="stroke-width:2.0;stroke:rgb(255,255,255);stroke-linecap:round;fill:rgb(140,92,188);" />
<text x="775.8" y="753.4" font-size="36.4px" font-family="CMUBright-Roman" style="text-anchor:end;fill:rgb(0,0,0);" transform="rotate(46.0,775.8,753.4)" >Physical-Sciences</text>
<path d="M846.858,831.057 A1642.000,1642.000 40.000 0,1 873.212,805.633 L847.135,777.993 A1680.000,1680.000 0.000 0,0 820.172,804.004 Z" style="stroke-width:2.0;stroke:rgb(255,255,255);stroke-linecap:round;fill:none;" />
<path d="M899.535,781.337 A1642.000,1642.000 40.000 0,1 903.423,777.837 L878.045,749.553 A1680.000,1680.000 0.000 0,0 874.067,753.134 Z" style="stroke-width:2.0;stroke:rgb(255,255,255);stroke-linecap:round;fill:rgb(165,120,208);" />
<text x="821.8" y="709.8" font-size="36.4px" font-family="CMUBright-Roman" style="text-anchor:end;fill:rgb(0,0,0);" transform="rotate(48.0,821.8,709.8)" >Environmental-Sciences</text>
<path d="M899.535,781.337 A1642.000,1642.000 40.000 0,1 903.423,777.837 L878.045,749.553 A1680.000,1680.000 0.000 0,0 874.067,753.134 Z" style="stroke-width:2.0;stroke:rgb(255,255,255);stroke-linecap:round;fill:none;" />
<path d="M930.345,754.206 A1642.000,1642.000 40.000 0,1 1638.399,398.311 L1630.030,361.244 A1680.000,1680.000 0.000 0,0 905.590,725.375 Z" style="stroke-width:2.0;stroke:rgb(255,255,255);stroke-linecap:round;fill:rgb(22,118,50);" />
<text x="1201.1" y="446.2" font-size="36.4px" font-family="CMUBright-Roman" style="text-anchor:end;fill:rgb(0,0,0);" transform="rotate(63.3,1201.1,446.2)" >Engineering-Disciplines</text>
<path d="M930.345,754.206 A1642.000,1642.000 40.000 0,1 1638.399,398.311 L1630.030,361.244 A1680.000,1680.000 0.000 0,0 905.590,725.375 Z" style="stroke-width:2.0;stroke:rgb(255,255,255);stroke-linecap:round;fill:none;" />
<path d="M1673.425,390.804 A1642.000,1642.000 40.000 0,1 1964.180,358.391 L1963.351,320.400 A1680.000,1680.000 0.000 0,0 1665.867,353.563 Z" style="stroke-width:2.0;stroke:rgb(255,255,255);stroke-linecap:round;fill:rgb(48,158,75);" />
<text x="1791.0" y="265.3" font-size="36.4px" font-family="CMUBright-Roman" style="text-anchor:end;fill:rgb(0,0,0);" transform="rotate(83.6,1791.0,265.3)" >Computer-Science-IT</text>
<path d="M1673.425,390.804 A1642.000,1642.000 40.000 0,1 1964.180,358.391 L1963.351,320.400 A1680.000,1680.000 0.000 0,0 1665.867,353.563 Z" style="stroke-width:2.0;stroke:rgb(255,255,255);stroke-linecap:round;fill:none;" />
</g>
<g id="track_0">
<path d="M 2000.000,374.420 A 1625.580,1625.580 0.00 0,1 2005.2,374.4 L 2005.2,374.4 2004.8,427.5 2003.9,480.2 2002.5,532.2 2000.6,583.0 1998.1,632.4 1995.2,680.0 1991.7,725.5 1987.7,768.7 1983.1,809.2 1978.0,846.9 1972.4,881.6 1966.2,913.0 1959.5,940.9 1952.3,965.3 1944.6,986.0 1936.4,1002.9 1927.8,1015.9 1918.7,1024.9 1909.1,1029.9 1899.2,1030.9 1888.9,1027.8 1878.2,1020.8 1867.1,1009.7 1855.8,994.8 1844.2,976.0 1832.4,953.5 1820.3,927.4 1808.2,897.8 1795.8,864.9 1783.5,829.0 1771.0,790.1 1758.6,748.6 1746.3,704.6 1734.1,658.5 1722.0,610.6 1710.2,561.1 1698.7,510.4 1687.5,458.9 1676.7,406.9  A 1625.580,1625.580 0.00 0,1 1681.8,405.9 L 1681.8,405.9 1692.4,457.9 1703.4,509.5 1714.7,560.2 1726.3,609.7 1738.2,657.7 1750.2,703.8 1762.2,747.8 1774.4,789.4 1786.5,828.3 1798.7,864.3 1810.7,897.2 1822.6,926.8 1834.3,952.9 1845.9,975.5 1857.2,994.3 1868.2,1009.3 1878.9,1020.4 1889.3,1027.5 1899.3,1030.6 1909.0,1029.6 1918.2,1024.6 1927.0,1015.6 1935.3,1002.7 1943.2,985.8 1950.6,965.1 1957.5,940.8 1963.9,912.8 1969.8,881.5 1975.1,846.8 1979.9,809.1 1984.2,768.6 1988.0,725.5 1991.3,680.0 1994.0,632.4 1996.2,583.0 1997.9,532.2 1999.1,480.2 1999.8,427.5 2000.0,374.4  Z" style="stroke-width: 0.0;  fill: rgb(48,158,75);" />
<path d="M 2005.179,374.428 A 1625.580,1625.580 0.00 0,1 2677.8,522.5 L 2677.8,522.5 2653.2,573.5 2626.3,623.8 2597.3,673.3 2566.2,721.7 2533.1,768.7 2498.1,814.1 2461.2,857.7 2422.7,899.2 2382.5,938.6 2340.7,975.7 2297.5,1010.2 2252.9,1042.1 2207.1,1071.2 2160.1,1097.4 2112.1,1120.6 2063.1,1140.8 2013.2,1157.8 1962.6,1171.6 1911.4,1182.2 1859.6,1189.4 1807.5,1193.4 1755.1,1194.1 1702.4,1191.5 1649.8,1185.6 1597.2,1176.6 1544.8,1164.3 1492.7,1149.0 1441.1,1130.6 1390.0,1109.4 1339.7,1085.3 1290.2,1058.5 1241.6,1029.1 1194.2,997.4 1148.1,963.4 1103.3,927.4 1060.1,889.5 1018.5,849.9 978.8,808.9 941.0,766.7  A 1625.580,1625.580 0.00 0,1 1546.7,438.9 L 1546.7,438.9 1561.9,489.9 1577.6,540.4 1593.8,590.0 1610.4,638.3 1627.3,685.1 1644.4,730.0 1661.7,772.7 1679.0,813.1 1696.4,850.7 1713.7,885.4 1730.9,917.1 1748.0,945.4 1764.8,970.4 1781.3,991.7 1797.5,1009.3 1813.4,1023.2 1828.8,1033.1 1843.7,1039.1 1858.1,1041.2 1872.0,1039.2 1885.3,1033.3 1898.0,1023.4 1910.0,1009.6 1921.4,991.9 1932.1,970.5 1942.1,945.4 1951.4,916.8 1960.0,884.9 1967.8,849.7 1974.9,811.5 1981.2,770.6 1986.8,727.0 1991.6,681.2 1995.7,633.3 1999.0,583.7 2001.6,532.6 2003.5,480.5 2004.7,427.6 2005.2,374.4  Z" style="stroke-width: 0.0;  fill: rgb(22,118,50);" />
<path d="M 2677.787,522.463 A 1625.580,1625.580 0.00 0,1 2682.5,524.6 L 2682.5,524.6 2657.5,575.9 2630.1,626.7 2600.4,676.6 2568.6,725.4 2534.7,772.9 2498.7,818.9 2460.8,863.2 2421.0,905.5 2379.5,945.8 2336.3,983.8 2291.6,1019.5 2245.4,1052.6 2197.8,1083.0 2148.9,1110.7 2098.9,1135.5 2047.8,1157.4 1995.7,1176.2 1942.8,1192.0 1889.2,1204.6 1835.0,1214.1 1780.3,1220.3 1725.2,1223.4 1669.8,1223.3 1614.3,1220.0 1558.9,1213.6 1503.5,1204.1 1448.4,1191.6 1393.7,1176.1 1339.5,1157.7 1286.0,1136.5 1233.3,1112.7 1181.6,1086.3 1130.9,1057.4 1081.5,1026.3 1033.5,993.1 987.0,957.9 942.2,921.0 899.3,882.6 858.4,842.7  A 1625.580,1625.580 0.00 0,1 862.1,839.1 L 862.1,839.1 902.8,879.0 945.6,917.6 990.2,954.6 1036.5,989.9 1084.4,1023.2 1133.6,1054.5 1184.0,1083.4 1235.6,1109.9 1288.1,1133.9 1341.4,1155.2 1395.4,1173.7 1449.8,1189.3 1504.7,1201.9 1559.8,1211.5 1615.1,1218.0 1670.3,1221.4 1725.5,1221.5 1780.3,1218.5 1834.8,1212.3 1888.8,1202.9 1942.2,1190.3 1994.8,1174.6 2046.6,1155.7 2097.5,1133.9 2147.3,1109.1 2195.9,1081.4 2243.3,1050.9 2289.3,1017.8 2333.8,982.1 2376.7,944.1 2418.0,903.7 2457.5,861.3 2495.2,817.0 2531.0,771.0 2564.7,723.4 2596.3,674.5 2625.8,624.6 2652.9,573.8 2677.8,522.5  Z" style="stroke-width: 0.0;  fill: rgb(140,92,188);" />
<path d="M 2682.491,524.630 A 1625.580,1625.580 0.00 0,1 2687.2,526.8 L 2687.2,526.8 2659.8,582.3 2629.5,637.7 2596.4,692.9 2560.4,747.8 2521.9,802.2 2480.7,856.0 2437.1,909.1 2391.0,961.3 2342.7,1012.7 2292.2,1062.9 2239.6,1112.0 2185.0,1159.9 2128.5,1206.4 2070.3,1251.4 2010.4,1295.0 1948.9,1336.9 1886.0,1377.1 1821.8,1415.5 1756.4,1452.1 1690.0,1486.8 1622.5,1519.5 1554.3,1550.1 1485.3,1578.7 1415.8,1605.1 1345.8,1629.4 1275.6,1651.3 1205.1,1671.1 1134.6,1688.5 1064.3,1703.5 994.1,1716.2 924.4,1726.5 855.2,1734.3 786.7,1739.8 719.0,1742.7 652.3,1743.3 586.8,1741.3 522.5,1736.9 459.8,1730.1 398.6,1720.8  A 1625.580,1625.580 0.00 0,1 399.5,1715.7 L 399.5,1715.7 460.6,1725.2 523.3,1732.2 587.4,1736.8 652.9,1738.9 719.5,1738.6 787.1,1735.8 855.5,1730.5 924.6,1722.9 994.3,1712.8 1064.3,1700.3 1134.6,1685.4 1205.0,1668.1 1275.3,1648.6 1345.5,1626.7 1415.3,1602.6 1484.7,1576.3 1553.5,1547.8 1621.7,1517.3 1689.0,1484.6 1755.3,1450.0 1820.5,1413.5 1884.6,1375.1 1947.3,1335.0 2008.6,1293.1 2068.3,1249.6 2126.4,1204.6 2182.7,1158.1 2237.1,1110.2 2289.5,1061.1 2339.8,1010.8 2387.9,959.5 2433.8,907.2 2477.2,854.1 2518.2,800.2 2556.6,745.8 2592.3,690.9 2625.2,635.6 2655.3,580.2 2682.5,524.6  Z" style="stroke-width: 0.0;  fill: rgb(215,82,72);" />
<path d="M 2687.188,526.812 A 1625.580,1625.580 0.00 0,1 2691.9,529.0 L 2691.9,529.0 2661.5,591.0 2628.6,653.5 2593.2,716.5 2555.5,780.1 2515.6,844.2 2473.8,908.7 2430.0,973.7 2384.6,1039.0 2337.5,1104.7 2288.9,1170.7 2239.0,1237.0 2187.8,1303.5 2135.4,1370.1 2082.1,1436.9 2027.8,1503.6 1972.6,1570.3 1916.7,1636.9 1860.2,1703.3 1803.1,1769.5 1745.5,1835.3 1687.5,1900.6 1629.1,1965.4 1570.5,2029.6 1511.6,2093.1 1452.7,2155.8 1393.6,2217.5 1334.4,2278.2 1275.3,2337.7 1216.2,2396.0 1157.2,2452.8 1098.3,2508.2 1039.5,2561.9 980.9,2613.8 922.4,2663.8 864.2,2711.8 806.2,2757.6 748.3,2801.0 690.7,2841.9 633.3,2880.2  A 1625.580,1625.580 0.00 0,1 630.5,2875.8 L 630.5,2875.8 688.0,2837.8 745.7,2797.1 803.6,2753.8 861.7,2708.3 920.0,2660.5 978.5,2610.6 1037.2,2558.9 1096.0,2505.3 1155.0,2450.1 1214.1,2393.4 1273.2,2335.3 1332.4,2275.8 1391.6,2215.3 1450.7,2153.7 1509.7,2091.1 1568.5,2027.7 1627.2,1963.6 1685.5,1898.8 1743.5,1833.5 1801.1,1767.7 1858.1,1701.6 1914.6,1635.2 1970.4,1568.7 2025.5,1502.0 2079.7,1435.2 2133.0,1368.5 2185.2,1301.8 2236.3,1235.3 2286.1,1169.0 2334.5,1102.9 2381.4,1037.2 2426.7,971.8 2470.3,906.8 2512.0,842.2 2551.6,778.1 2589.1,714.4 2624.3,651.3 2657.1,588.8 2687.2,526.8  Z" style="stroke-width: 0.0;  fill: rgb(60,120,198);" />
<path d="M 2691.877,529.008 A 1625.580,1625.580 0.00 0,1 2710.6,537.9 L 2710.6,537.9 2678.5,601.7 2644.2,666.2 2607.8,731.3 2569.4,797.0 2529.3,863.4 2487.6,930.5 2444.4,998.2 2400.0,1066.5 2354.4,1135.3 2307.8,1204.8 2260.3,1274.8 2212.0,1345.3 2163.1,1416.2 2113.6,1487.5 2063.7,1559.2 2013.4,1631.2 1962.8,1703.4 1912.1,1775.8 1861.2,1848.3 1810.2,1920.8 1759.3,1993.2 1708.4,2065.5 1657.5,2137.5 1606.8,2209.2 1556.3,2280.5 1505.9,2351.2 1455.8,2421.2 1405.8,2490.5 1356.0,2558.9 1306.5,2626.3 1257.1,2692.5 1207.9,2757.5 1158.8,2821.0 1109.8,2882.9 1060.9,2943.2 1012.1,3001.5 963.2,3057.8 914.1,3112.0 865.0,3163.7  A 1625.580,1625.580 0.00 0,1 850.2,3149.2 L 850.2,3149.2 899.9,3098.2 949.3,3044.8 998.7,2989.3 1048.1,2931.6 1097.4,2872.0 1146.8,2810.7 1196.4,2747.7 1246.0,2683.3 1295.8,2617.6 1345.7,2550.6 1395.8,2482.6 1446.1,2413.7 1496.5,2344.0 1547.1,2273.5 1597.9,2202.5 1648.7,2131.0 1699.6,2059.1 1750.6,1987.0 1801.6,1914.6 1852.5,1842.2 1903.3,1769.7 1953.9,1697.3 2004.3,1625.1 2054.4,1553.0 2104.0,1481.2 2153.1,1409.8 2201.7,1338.7 2249.5,1268.1 2296.5,1197.9 2342.6,1128.2 2387.6,1059.1 2431.4,990.6 2473.8,922.7 2514.8,855.4 2554.1,788.8 2591.7,722.9 2627.3,657.6 2660.7,593.0 2691.9,529.0  Z" style="stroke-width: 0.0;  fill: rgb(42,98,180);" />
<path d="M 2710.566,537.945 A 1625.580,1625.580 0.00 0,1 2715.2,540.2 L 2715.2,540.2 2681.9,606.5 2646.8,673.5 2610.2,741.2 2572.1,809.6 2532.8,878.8 2492.6,948.7 2451.4,1019.4 2409.7,1090.9 2367.4,1163.1 2324.7,1236.1 2281.8,1309.7 2238.8,1384.1 2195.8,1459.1 2152.9,1534.7 2110.2,1610.9 2067.8,1687.7 2025.8,1765.0 1984.2,1842.7 1943.1,1920.8 1902.5,1999.3 1862.5,2077.9 1823.1,2156.8 1784.3,2235.7 1746.1,2314.7 1708.5,2393.6 1671.5,2472.3 1635.1,2550.7 1599.3,2628.8 1563.9,2706.3 1529.0,2783.3 1494.5,2859.5 1460.3,2934.9 1426.4,3009.3 1392.5,3082.6 1358.7,3154.6 1324.9,3225.2 1290.8,3294.2 1256.4,3361.6 1221.5,3427.0  A 1625.580,1625.580 0.00 0,1 1217.0,3424.6 L 1217.0,3424.6 1252.0,3359.3 1286.6,3292.1 1320.8,3223.2 1354.9,3152.7 1388.8,3080.8 1422.8,3007.6 1456.9,2933.3 1491.3,2858.0 1525.9,2781.9 1561.0,2705.0 1596.4,2627.5 1632.4,2549.5 1668.9,2471.1 1705.9,2392.4 1743.6,2313.5 1781.8,2234.6 1820.7,2155.6 1860.1,2076.8 1900.2,1998.1 1940.8,1919.6 1981.9,1841.5 2023.5,1763.7 2065.5,1686.4 2107.8,1609.6 2150.5,1533.3 2193.3,1457.6 2236.2,1382.5 2279.1,1308.1 2321.9,1234.4 2364.4,1161.4 2406.6,1089.1 2448.2,1017.6 2489.1,946.8 2529.2,876.8 2568.3,807.6 2606.2,739.1 2642.6,671.3 2677.5,604.3 2710.6,537.9  Z" style="stroke-width: 0.0;  fill: rgb(28,75,160);" />
<path d="M 2715.220,540.216 A 1625.580,1625.580 0.00 0,1 2719.9,542.5 L 2719.9,542.5 2690.5,604.6 2662.3,669.0 2635.2,735.8 2609.3,804.6 2584.3,875.5 2560.3,948.3 2537.1,1022.8 2514.8,1098.9 2493.3,1176.5 2472.5,1255.5 2452.5,1335.8 2433.1,1417.1 2414.4,1499.5 2396.4,1582.8 2379.0,1666.8 2362.2,1751.4 2346.1,1836.6 2330.6,1922.2 2315.7,2008.0 2301.5,2094.1 2287.9,2180.1 2275.0,2266.1 2262.9,2352.0 2251.5,2437.5 2240.9,2522.7 2231.2,2607.3 2222.4,2691.3 2214.5,2774.6 2207.6,2857.0 2201.8,2938.5 2197.2,3018.9 2193.8,3098.1 2191.7,3176.1 2191.1,3252.7 2191.9,3327.9 2194.3,3401.5 2198.4,3473.3 2204.3,3543.4 2212.2,3611.7  A 1625.580,1625.580 0.00 0,1 2207.0,3612.3 L 2207.0,3612.3 2199.4,3544.0 2193.7,3473.8 2189.8,3401.9 2187.5,3328.2 2186.9,3253.0 2187.8,3176.4 2190.0,3098.3 2193.6,3019.0 2198.4,2938.5 2204.3,2857.0 2211.3,2774.5 2219.3,2691.2 2228.2,2607.2 2238.1,2522.5 2248.7,2437.3 2260.2,2351.7 2272.4,2265.8 2285.3,2179.8 2298.8,2093.6 2313.1,2007.6 2328.0,1921.7 2343.5,1836.0 2359.6,1750.8 2376.3,1666.1 2393.6,1582.0 2411.6,1498.7 2430.2,1416.2 2449.5,1334.8 2469.4,1254.4 2490.0,1175.3 2511.4,1097.6 2533.6,1021.4 2556.6,946.8 2580.5,873.9 2605.3,802.9 2631.1,733.9 2658.0,667.0 2686.0,602.4 2715.2,540.2  Z" style="stroke-width: 0.0;  fill: rgb(15,52,135);" />
</g>
<defs>
<pattern id="checker" width="10" height="10" patternTransform="rotate(45 0 0)" patternUnits="userSpaceOnUse"><line x1="0" y1="0" x2="10" y2="0" style="stroke:black;stroke-width:5" /><line x1="0" y1="0" x2="0" y2="10" style="stroke:black;stroke-width:4" /></pattern>
<pattern id="hline" width="10" height="10" patternTransform="rotate(0 0 0)" patternUnits="userSpaceOnUse"><line x1="0" y1="0" x2="10" y2="0" style="stroke:black;stroke-width:5" /></pattern>
<pattern id="hline-sparse" width="10" height="10" patternTransform="rotate(0 0 0)" patternUnits="userSpaceOnUse"><line x1="0" y1="0" x2="10" y2="0" style="stroke:black;stroke-width:2" /></pattern>
<pattern id="vline" width="10" height="10" patternTransform="rotate(0 0 0)" patternUnits="userSpaceOnUse"><line x1="0" y1="0" x2="0" y2="10" style="stroke:black;stroke-width:5" /></pattern>
<pattern id="checker" width="10" height="10" patternTransform="rotate(45 0 0)" patternUnits="userSpaceOnUse"><line x1="0" y1="0" x2="10" y2="0" style="stroke:black;stroke-width:2" /><line x1="0" y1="0" x2="0" y2="10" style="stroke:black;stroke-width:2" /></pattern>
<pattern id="vline-sparse" width="10" height="10" patternTransform="rotate(0 0 0)" patternUnits="userSpaceOnUse"><line x1="0" y1="0" x2="0" y2="10" style="stroke:black;stroke-width:2" /></pattern>
</defs>
</svg>
