<?xml version="1.0" encoding="utf-8" standalone="no"?>
<!DOCTYPE svg PUBLIC "-//W3C//DTD SVG 1.1//EN" "http://www.w3.org/Graphics/SVG/1.1/DTD/svg11.dtd">
<svg width="4000px" height="4000px" version="1.1" xmlns="http://www.w3.org/2000/svg" xmlns:xlink="http://www.w3.org/1999/xlink">
<g id="bg">
<rect x="0" y="0" width="4000px" height="4000px" style="fill:rgb(255,255,255);"/>
</g>
<g id="ideograms">
<path d="M2000.000,358.000 A1642.000,1642.000 40.000 0,1 2751.610,540.121 L2769.004,506.336 A1680.000,1680.000 0.000 0,0 2000.000,320.000 Z" style="stroke-width:2.0;stroke:rgb(255,255,255);stroke-linecap:round;fill:rgb(185,185,185);" />
<text x="2427.0" y="305.8" font-size="36.4px" font-family="CMUBright-Roman" style="text-anchor:start;fill:rgb(0,0,0);" transform="rotate(283.6,2427.0,305.8)" >Management-Operations</text>
<path d="M2000.000,358.000 A1642.000,1642.000 40.000 0,1 2751.610,540.121 L2769.004,506.336 A1680.000,1680.000 0.000 0,0 2000.000,320.000 Z" style="stroke-width:2.0;stroke:rgb(255,255,255);stroke-linecap:round;fill:none;" />
<path d="M2783.279,556.865 A1642.000,1642.000 40.000 0,1 3226.411,908.176 L3254.793,882.908 A1680.000,1680.000 0.000 0,0 2801.406,523.467 Z" style="stroke-width:2.0;stroke:rgb(255,255,255);stroke-linecap:round;fill:rgb(185,185,185);" />
<text x="3097.5" y="640.5" font-size="36.4px" font-family="CMUBright-Roman" style="text-anchor:start;fill:rgb(0,0,0);" transform="rotate(308.4,3097.5,640.5)" >Engineering</text>
<path d="M2783.279,556.865 A1642.000,1642.000 40.000 0,1 3226.411,908.176 L3254.793,882.908 A1680.000,1680.000 0.000 0,0 2801.406,523.467 Z" style="stroke-width:2.0;stroke:rgb(255,255,255);stroke-linecap:round;fill:none;" />
<path d="M3249.937,935.189 A1642.000,1642.000 40.000 0,1 3507.538,1349.236 L3542.426,1334.176 A1680.000,1680.000 0.000 0,0 3278.864,910.547 Z" style="stroke-width:2.0;stroke:rgb(255,255,255);stroke-linecap:round;fill:rgb(185,185,185);" />
<text x="3491.6" y="1090.2" font-size="36.4px" font-family="CMUBright-Roman" style="text-anchor:start;fill:rgb(0,0,0);" transform="rotate(328.1,3491.6,1090.2)" >Leadership-General</text>
<path d="M3249.937,935.189 A1642.000,1642.000 40.000 0,1 3507.538,1349.236 L3542.426,1334.176 A1680.000,1680.000 0.000 0,0 3278.864,910.547 Z" style="stroke-width:2.0;stroke:rgb(255,255,255);stroke-linecap:round;fill:none;" />
<path d="M3521.375,1382.278 A1642.000,1642.000 40.000 0,1 3633.192,1830.154 L3670.988,1826.223 A1680.000,1680.000 0.000 0,0 3556.584,1367.982 Z" style="stroke-width:2.0;stroke:rgb(255,255,255);stroke-linecap:round;fill:rgb(185,185,185);" />
<text x="3699.0" y="1592.3" font-size="36.4px" font-family="CMUBright-Roman" style="text-anchor:start;fill:rgb(0,0,0);" transform="rotate(346.0,3699.0,1592.3)" >Sales-Marketing</text>
<path d="M3521.375,1382.278 A1642.000,1642.000 40.000 0,1 3633.192,1830.154 L3670.988,1826.223 A1680.000,1680.000 0.000 0,0 3556.584,1367.982 Z" style="stroke-width:2.0;stroke:rgb(255,255,255);stroke-linecap:round;fill:none;" />
<path d="M3636.509,1865.822 A1642.000,1642.000 40.000 0,1 3610.774,2318.704 L3648.051,2326.079 A1680.000,1680.000 0.000 0,0 3674.381,1862.717 Z" style="stroke-width:2.0;stroke:rgb(255,255,255);stroke-linecap:round;fill:rgb(185,185,185);" />
<text x="3743.6" y="2111.6" font-size="36.4px" font-family="CMUBright-Roman" style="text-anchor:start;fill:rgb(0,0,0);" transform="rotate(3.3,3743.6,2111.6)" >Finance-Investment</text>
<path d="M3636.509,1865.822 A1642.000,1642.000 40.000 0,1 3610.774,2318.704 L3648.051,2326.079 A1680.000,1680.000 0.000 0,0 3674.381,1862.717 Z" style="stroke-width:2.0;stroke:rgb(255,255,255);stroke-linecap:round;fill:none;" />
<path d="M3603.438,2353.767 A1642.000,1642.000 40.000 0,1 3499.856,2668.278 L3534.566,2683.744 A1680.000,1680.000 0.000 0,0 3640.546,2361.954 Z" style="stroke-width:2.0;stroke:rgb(255,255,255);stroke-linecap:round;fill:rgb(185,185,185);" />
<text x="3655.6" y="2558.4" font-size="36.4px" font-family="CMUBright-Roman" style="text-anchor:start;fill:rgb(0,0,0);" transform="rotate(18.2,3655.6,2558.4)" >Software-Data</text>
<path d="M3603.438,2353.767 A1642.000,1642.000 40.000 0,1 3499.856,2668.278 L3534.566,2683.744 A1680.000,1680.000 0.000 0,0 3640.546,2361.954 Z" style="stroke-width:2.0;stroke:rgb(255,255,255);stroke-linecap:round;fill:none;" />
<path d="M3484.921,2700.839 A1642.000,1642.000 40.000 0,1 3330.895,2961.708 L3361.695,2983.964 A1680.000,1680.000 0.000 0,0 3519.285,2717.058 Z" style="stroke-width:2.0;stroke:rgb(255,255,255);stroke-linecap:round;fill:rgb(185,185,185);" />
<text x="3498.1" y="2899.1" font-size="36.4px" font-family="CMUBright-Roman" style="text-anchor:start;fill:rgb(0,0,0);" transform="rotate(30.6,3498.1,2899.1)" >Education</text>
<path d="M3484.921,2700.839 A1642.000,1642.000 40.000 0,1 3330.895,2961.708 L3361.695,2983.964 A1680.000,1680.000 0.000 0,0 3519.285,2717.058 Z" style="stroke-width:2.0;stroke:rgb(255,255,255);stroke-linecap:round;fill:none;" />
<path d="M3309.599,2990.512 A1642.000,1642.000 40.000 0,1 3129.055,3192.225 L3155.184,3219.816 A1680.000,1680.000 0.000 0,0 3339.906,3013.435 Z" style="stroke-width:2.0;stroke:rgb(255,255,255);stroke-linecap:round;fill:rgb(185,185,185);" />
<text x="3293.5" y="3174.5" font-size="36.4px" font-family="CMUBright-Roman" style="text-anchor:start;fill:rgb(0,0,0);" transform="rotate(41.8,3293.5,3174.5)" >Research-Science</text>
<path d="M3309.599,2990.512 A1642.000,1642.000 40.000 0,1 3129.055,3192.225 L3155.184,3219.816 A1680.000,1680.000 0.000 0,0 3339.906,3013.435 Z" style="stroke-width:2.0;stroke:rgb(255,255,255);stroke-linecap:round;fill:none;" />
<path d="M3102.778,3216.571 A1642.000,1642.000 40.000 0,1 2891.302,3379.038 L2911.929,3410.952 A1680.000,1680.000 0.000 0,0 3128.299,3244.726 Z" style="stroke-width:2.0;stroke:rgb(255,255,255);stroke-linecap:round;fill:rgb(185,185,185);" />
<text x="3054.5" y="3393.1" font-size="36.4px" font-family="CMUBright-Roman" style="text-anchor:start;fill:rgb(0,0,0);" transform="rotate(52.5,3054.5,3393.1)" >Clinical-Care</text>
<path d="M3102.778,3216.571 A1642.000,1642.000 40.000 0,1 2891.302,3379.038 L2911.929,3410.952 A1680.000,1680.000 0.000 0,0 3128.299,3244.726 Z" style="stroke-width:2.0;stroke:rgb(255,255,255);stroke-linecap:round;fill:none;" />
<path d="M2861.006,3398.153 A1642.000,1642.000 40.000 0,1 2640.127,3512.085 L2654.941,3547.079 A1680.000,1680.000 0.000 0,0 2880.932,3430.510 Z" style="stroke-width:2.0;stroke:rgb(255,255,255);stroke-linecap:round;fill:rgb(185,185,185);" />
<text x="2786.7" y="3560.1" font-size="36.4px" font-family="CMUBright-Roman" style="text-anchor:start;fill:rgb(0,0,0);" transform="rotate(62.7,2786.7,3560.1)" >Accounting-Audit</text>
<path d="M2861.006,3398.153 A1642.000,1642.000 40.000 0,1 2640.127,3512.085 L2654.941,3547.079 A1680.000,1680.000 0.000 0,0 2880.932,3430.510 Z" style="stroke-width:2.0;stroke:rgb(255,255,255);stroke-linecap:round;fill:none;" />
<path d="M2606.988,3525.690 A1642.000,1642.000 40.000 0,1 2452.002,3578.562 L2462.463,3615.094 A1680.000,1680.000 0.000 0,0 2621.036,3560.998 Z" style="stroke-width:2.0;stroke:rgb(255,255,255);stroke-linecap:round;fill:rgb(185,185,185);" />
<text x="2552.3" y="3657.6" font-size="36.4px" font-family="CMUBright-Roman" style="text-anchor:start;fill:rgb(0,0,0);" transform="rotate(71.2,2552.3,3657.6)" >Social-Service</text>
<path d="M2606.988,3525.690 A1642.000,1642.000 40.000 0,1 2452.002,3578.562 L2462.463,3615.094 A1680.000,1680.000 0.000 0,0 2621.036,3560.998 Z" style="stroke-width:2.0;stroke:rgb(255,255,255);stroke-linecap:round;fill:none;" />
<path d="M2417.459,3588.047 A1642.000,1642.000 40.000 0,1 2320.910,3610.336 L2328.336,3647.603 A1680.000,1680.000 0.000 0,0 2427.120,3624.798 Z" style="stroke-width:2.0;stroke:rgb(255,255,255);stroke-linecap:round;fill:rgb(185,185,185);" />
<text x="2380.8" y="3705.2" font-size="36.4px" font-family="CMUBright-Roman" style="text-anchor:start;fill:rgb(0,0,0);" transform="rotate(77.0,2380.8,3705.2)" >IT-Infrastructure</text>
<path d="M2417.459,3588.047 A1642.000,1642.000 40.000 0,1 2320.910,3610.336 L2328.336,3647.603 A1680.000,1680.000 0.000 0,0 2427.120,3624.798 Z" style="stroke-width:2.0;stroke:rgb(255,255,255);stroke-linecap:round;fill:none;" />
<path d="M2285.704,3616.953 A1642.000,1642.000 40.000 0,1 2189.660,3631.010 L2194.050,3668.755 A1680.000,1680.000 0.000 0,0 2292.316,3654.373 Z" style="stroke-width:2.0;stroke:rgb(255,255,255);stroke-linecap:round;fill:rgb(185,185,185);" />
<text x="2237.2" y="3731.0" font-size="36.4px" font-family="CMUBright-Roman" style="text-anchor:start;fill:rgb(0,0,0);" transform="rotate(81.7,2237.2,3731.0)" >Legal-Policy</text>
<path d="M2285.704,3616.953 A1642.000,1642.000 40.000 0,1 2189.660,3631.010 L2194.050,3668.755 A1680.000,1680.000 0.000 0,0 2292.316,3654.373 Z" style="stroke-width:2.0;stroke:rgb(255,255,255);stroke-linecap:round;fill:none;" />
<path d="M2154.035,3634.759 A1642.000,1642.000 40.000 0,1 1474.020,3555.477 L1461.848,3591.475 A1680.000,1680.000 0.000 0,0 2157.600,3672.592 Z" style="stroke-width:2.0;stroke:rgb(255,255,255);stroke-linecap:round;fill:rgb(15,52,135);" />
<text x="1813.6" y="3737.2" font-size="36.4px" font-family="CMUBright-Roman" style="text-anchor:end;fill:rgb(0,0,0);" transform="rotate(-83.3,1813.6,3737.2)" >Finance-Accounting</text>
<path d="M2154.035,3634.759 A1642.000,1642.000 40.000 0,1 1474.020,3555.477 L1461.848,3591.475 A1680.000,1680.000 0.000 0,0 2157.600,3672.592 Z" style="stroke-width:2.0;stroke:rgb(255,255,255);stroke-linecap:round;fill:none;" />
<path d="M1440.213,3543.633 A1642.000,1642.000 40.000 0,1 888.845,3208.925 L863.130,3236.902 A1680.000,1680.000 0.000 0,0 1427.258,3579.356 Z" style="stroke-width:2.0;stroke:rgb(255,255,255);stroke-linecap:round;fill:rgb(42,98,180);" />
<text x="1104.1" y="3500.0" font-size="36.4px" font-family="CMUBright-Roman" style="text-anchor:end;fill:rgb(0,0,0);" transform="rotate(-58.7,1104.1,3500.0)" >General-Business</text>
<path d="M1440.213,3543.633 A1642.000,1642.000 40.000 0,1 888.845,3208.925 L863.130,3236.902 A1680.000,1680.000 0.000 0,0 1427.258,3579.356 Z" style="stroke-width:2.0;stroke:rgb(255,255,255);stroke-linecap:round;fill:none;" />
<path d="M862.737,3184.397 A1642.000,1642.000 40.000 0,1 624.574,2896.866 L592.744,2917.622 A1680.000,1680.000 0.000 0,0 836.418,3211.807 Z" style="stroke-width:2.0;stroke:rgb(255,255,255);stroke-linecap:round;fill:rgb(28,75,160);" />
<text x="664.7" y="3126.8" font-size="36.4px" font-family="CMUBright-Roman" style="text-anchor:end;fill:rgb(0,0,0);" transform="rotate(-39.6,664.7,3126.8)" >Marketing-Communication</text>
<path d="M862.737,3184.397 A1642.000,1642.000 40.000 0,1 624.574,2896.866 L592.744,2917.622 A1680.000,1680.000 0.000 0,0 836.418,3211.807 Z" style="stroke-width:2.0;stroke:rgb(255,255,255);stroke-linecap:round;fill:none;" />
<path d="M605.337,2866.648 A1642.000,1642.000 40.000 0,1 476.558,2612.607 L441.301,2626.784 A1680.000,1680.000 0.000 0,0 573.061,2886.704 Z" style="stroke-width:2.0;stroke:rgb(255,255,255);stroke-linecap:round;fill:rgb(60,120,198);" />
<text x="448.7" y="2803.8" font-size="36.4px" font-family="CMUBright-Roman" style="text-anchor:end;fill:rgb(0,0,0);" transform="rotate(-26.9,448.7,2803.8)" >Operations-Analytics</text>
<path d="M605.337,2866.648 A1642.000,1642.000 40.000 0,1 476.558,2612.607 L441.301,2626.784 A1680.000,1680.000 0.000 0,0 573.061,2886.704 Z" style="stroke-width:2.0;stroke:rgb(255,255,255);stroke-linecap:round;fill:none;" />
<path d="M463.556,2579.227 A1642.000,1642.000 40.000 0,1 407.419,2399.813 L370.563,2409.066 A1680.000,1680.000 0.000 0,0 427.999,2592.632 Z" style="stroke-width:2.0;stroke:rgb(255,255,255);stroke-linecap:round;fill:rgb(82,145,215);" />
<text x="337.2" y="2536.5" font-size="36.4px" font-family="CMUBright-Roman" style="text-anchor:end;fill:rgb(0,0,0);" transform="rotate(-17.4,337.2,2536.5)" >Specialized-Business</text>
<path d="M463.556,2579.227 A1642.000,1642.000 40.000 0,1 407.419,2399.813 L370.563,2409.066 A1680.000,1680.000 0.000 0,0 427.999,2592.632 Z" style="stroke-width:2.0;stroke:rgb(255,255,255);stroke-linecap:round;fill:none;" />
<path d="M399.076,2364.976 A1642.000,1642.000 40.000 0,1 366.776,2169.540 L328.979,2173.464 A1680.000,1680.000 0.000 0,0 362.027,2373.422 Z" style="stroke-width:2.0;stroke:rgb(255,255,255);stroke-linecap:round;fill:rgb(200,108,30);" />
<text x="278.3" y="2297.2" font-size="36.4px" font-family="CMUBright-Roman" style="text-anchor:end;fill:rgb(0,0,0);" transform="rotate(-9.4,278.3,2297.2)" >Social-Sciences</text>
<path d="M399.076,2364.976 A1642.000,1642.000 40.000 0,1 366.776,2169.540 L328.979,2173.464 A1680.000,1680.000 0.000 0,0 362.027,2373.422 Z" style="stroke-width:2.0;stroke:rgb(255,255,255);stroke-linecap:round;fill:none;" />
<path d="M363.466,2133.872 A1642.000,1642.000 40.000 0,1 358.290,2030.870 L320.297,2031.584 A1680.000,1680.000 0.000 0,0 325.593,2136.970 Z" style="stroke-width:2.0;stroke:rgb(255,255,255);stroke-linecap:round;fill:rgb(108,170,228);" />
<text x="255.6" y="2099.7" font-size="36.4px" font-family="CMUBright-Roman" style="text-anchor:end;fill:rgb(0,0,0);" transform="rotate(-2.9,255.6,2099.7)" >Economics</text>
<path d="M363.466,2133.872 A1642.000,1642.000 40.000 0,1 358.290,2030.870 L320.297,2031.584 A1680.000,1680.000 0.000 0,0 325.593,2136.970 Z" style="stroke-width:2.0;stroke:rgb(255,255,255);stroke-linecap:round;fill:none;" />
<path d="M358.007,1995.049 A1642.000,1642.000 40.000 0,1 358.807,1948.539 L320.825,1947.348 A1680.000,1680.000 0.000 0,0 320.008,1994.934 Z" style="stroke-width:2.0;stroke:rgb(255,255,255);stroke-linecap:round;fill:rgb(220,140,52);" />
<text x="252.9" y="1982.5" font-size="36.4px" font-family="CMUBright-Roman" style="text-anchor:end;fill:rgb(0,0,0);" transform="rotate(1.0,252.9,1982.5)" >Humanities-Liberal-Arts</text>
<path d="M358.007,1995.049 A1642.000,1642.000 40.000 0,1 358.807,1948.539 L320.825,1947.348 A1680.000,1680.000 0.000 0,0 320.008,1994.934 Z" style="stroke-width:2.0;stroke:rgb(255,255,255);stroke-linecap:round;fill:none;" />
<path d="M360.320,1912.749 A1642.000,1642.000 40.000 0,1 361.133,1898.615 L323.205,1896.269 A1680.000,1680.000 0.000 0,0 322.373,1910.730 Z" style="stroke-width:2.0;stroke:rgb(255,255,255);stroke-linecap:round;fill:rgb(235,168,78);" />
<text x="255.0" y="1912.1" font-size="36.4px" font-family="CMUBright-Roman" style="text-anchor:end;fill:rgb(0,0,0);" transform="rotate(3.3,255.0,1912.1)" >International-Studies</text>
<path d="M360.320,1912.749 A1642.000,1642.000 40.000 0,1 361.133,1898.615 L323.205,1896.269 A1680.000,1680.000 0.000 0,0 322.373,1910.730 Z" style="stroke-width:2.0;stroke:rgb(255,255,255);stroke-linecap:round;fill:none;" />
<path d="M363.735,1862.887 A1642.000,1642.000 40.000 0,1 391.336,1670.812 L354.108,1663.193 A1680.000,1680.000 0.000 0,0 325.867,1859.714 Z" style="stroke-width:2.0;stroke:rgb(255,255,255);stroke-linecap:round;fill:rgb(195,58,55);" />
<text x="268.8" y="1763.9" font-size="36.4px" font-family="CMUBright-Roman" style="text-anchor:end;fill:rgb(0,0,0);" transform="rotate(8.2,268.8,1763.9)" >Social-Work</text>
<path d="M363.735,1862.887 A1642.000,1642.000 40.000 0,1 391.336,1670.812 L354.108,1663.193 A1680.000,1680.000 0.000 0,0 325.867,1859.714 Z" style="stroke-width:2.0;stroke:rgb(255,255,255);stroke-linecap:round;fill:none;" />
<path d="M398.900,1635.797 A1642.000,1642.000 40.000 0,1 428.981,1522.439 L392.624,1511.387 A1680.000,1680.000 0.000 0,0 361.847,1627.368 Z" style="stroke-width:2.0;stroke:rgb(255,255,255);stroke-linecap:round;fill:rgb(175,35,42);" />
<text x="308.1" y="1564.0" font-size="36.4px" font-family="CMUBright-Roman" style="text-anchor:end;fill:rgb(0,0,0);" transform="rotate(14.9,308.1,1564.0)" >Teacher-Education</text>
<path d="M398.900,1635.797 A1642.000,1642.000 40.000 0,1 428.981,1522.439 L392.624,1511.387 A1680.000,1680.000 0.000 0,0 361.847,1627.368 Z" style="stroke-width:2.0;stroke:rgb(255,255,255);stroke-linecap:round;fill:none;" />
<path d="M439.773,1488.281 A1642.000,1642.000 40.000 0,1 474.975,1391.343 L439.682,1377.257 A1680.000,1680.000 0.000 0,0 403.666,1476.439 Z" style="stroke-width:2.0;stroke:rgb(255,255,255);stroke-linecap:round;fill:rgb(215,82,72);" />
<text x="352.5" y="1418.2" font-size="36.4px" font-family="CMUBright-Roman" style="text-anchor:end;fill:rgb(0,0,0);" transform="rotate(20.0,352.5,1418.2)" >Special-Education</text>
<path d="M439.773,1488.281 A1642.000,1642.000 40.000 0,1 474.975,1391.343 L439.682,1377.257 A1680.000,1680.000 0.000 0,0 403.666,1476.439 Z" style="stroke-width:2.0;stroke:rgb(255,255,255);stroke-linecap:round;fill:none;" />
<path d="M488.616,1358.220 A1642.000,1642.000 40.000 0,1 509.092,1311.991 L474.588,1296.068 A1680.000,1680.000 0.000 0,0 453.639,1343.368 Z" style="stroke-width:2.0;stroke:rgb(255,255,255);stroke-linecap:round;fill:rgb(230,112,95);" />
<text x="396.3" y="1306.6" font-size="36.4px" font-family="CMUBright-Roman" style="text-anchor:end;fill:rgb(0,0,0);" transform="rotate(23.9,396.3,1306.6)" >Educational-Leadership</text>
<path d="M488.616,1358.220 A1642.000,1642.000 40.000 0,1 509.092,1311.991 L474.588,1296.068 A1680.000,1680.000 0.000 0,0 453.639,1343.368 Z" style="stroke-width:2.0;stroke:rgb(255,255,255);stroke-linecap:round;fill:none;" />
<path d="M524.455,1279.630 A1642.000,1642.000 40.000 0,1 553.988,1222.045 L520.524,1204.041 A1680.000,1680.000 0.000 0,0 490.308,1262.959 Z" style="stroke-width:2.0;stroke:rgb(255,255,255);stroke-linecap:round;fill:rgb(0,130,142);" />
<text x="439.7" y="1213.8" font-size="36.4px" font-family="CMUBright-Roman" style="text-anchor:end;fill:rgb(0,0,0);" transform="rotate(27.2,439.7,1213.8)" >Communication-Studies</text>
<path d="M524.455,1279.630 A1642.000,1642.000 40.000 0,1 553.988,1222.045 L520.524,1204.041 A1680.000,1680.000 0.000 0,0 490.308,1262.959 Z" style="stroke-width:2.0;stroke:rgb(255,255,255);stroke-linecap:round;fill:none;" />
<path d="M571.303,1190.686 A1642.000,1642.000 40.000 0,1 588.562,1160.949 L555.898,1141.531 A1680.000,1680.000 0.000 0,0 538.240,1171.956 Z" style="stroke-width:2.0;stroke:rgb(255,255,255);stroke-linecap:round;fill:rgb(0,165,172);" />
<text x="482.6" y="1133.8" font-size="36.4px" font-family="CMUBright-Roman" style="text-anchor:end;fill:rgb(0,0,0);" transform="rotate(30.1,482.6,1133.8)" >Journalism-Media</text>
<path d="M571.303,1190.686 A1642.000,1642.000 40.000 0,1 588.562,1160.949 L555.898,1141.531 A1680.000,1680.000 0.000 0,0 538.240,1171.956 Z" style="stroke-width:2.0;stroke:rgb(255,255,255);stroke-linecap:round;fill:none;" />
<path d="M607.202,1130.358 A1642.000,1642.000 40.000 0,1 613.667,1120.089 L581.583,1099.725 A1680.000,1680.000 0.000 0,0 574.969,1110.233 Z" style="stroke-width:2.0;stroke:rgb(255,255,255);stroke-linecap:round;fill:rgb(38,195,195);" />
<text x="512.9" y="1082.8" font-size="36.4px" font-family="CMUBright-Roman" style="text-anchor:end;fill:rgb(0,0,0);" transform="rotate(32.2,512.9,1082.8)" >Creative-Writing</text>
<path d="M607.202,1130.358 A1642.000,1642.000 40.000 0,1 613.667,1120.089 L581.583,1099.725 A1680.000,1680.000 0.000 0,0 574.969,1110.233 Z" style="stroke-width:2.0;stroke:rgb(255,255,255);stroke-linecap:round;fill:none;" />
<path d="M633.192,1090.055 A1642.000,1642.000 40.000 0,1 667.742,1040.182 L636.910,1017.969 A1680.000,1680.000 0.000 0,0 601.560,1068.997 Z" style="stroke-width:2.0;stroke:rgb(255,255,255);stroke-linecap:round;fill:rgb(180,45,112);" />
<text x="554.7" y="1018.2" font-size="36.4px" font-family="CMUBright-Roman" style="text-anchor:end;fill:rgb(0,0,0);" transform="rotate(34.7,554.7,1018.2)" >Arts-Theology</text>
<path d="M633.192,1090.055 A1642.000,1642.000 40.000 0,1 667.742,1040.182 L636.910,1017.969 A1680.000,1680.000 0.000 0,0 601.560,1068.997 Z" style="stroke-width:2.0;stroke:rgb(255,255,255);stroke-linecap:round;fill:none;" />
<path d="M688.997,1011.347 A1642.000,1642.000 40.000 0,1 698.803,998.477 L668.690,975.299 A1680.000,1680.000 0.000 0,0 658.657,988.467 Z" style="stroke-width:2.0;stroke:rgb(255,255,255);stroke-linecap:round;fill:rgb(205,75,142);" />
<text x="600.6" y="953.9" font-size="36.4px" font-family="CMUBright-Roman" style="text-anchor:end;fill:rgb(0,0,0);" transform="rotate(37.3,600.6,953.9)" >English-Writing</text>
<path d="M688.997,1011.347 A1642.000,1642.000 40.000 0,1 698.803,998.477 L668.690,975.299 A1680.000,1680.000 0.000 0,0 658.657,988.467 Z" style="stroke-width:2.0;stroke:rgb(255,255,255);stroke-linecap:round;fill:none;" />
<path d="M720.960,970.329 A1642.000,1642.000 40.000 0,1 724.774,965.610 L695.262,941.672 A1680.000,1680.000 0.000 0,0 691.360,946.500 Z" style="stroke-width:2.0;stroke:rgb(255,255,255);stroke-linecap:round;fill:rgb(225,110,168);" />
<text x="631.0" y="914.3" font-size="36.4px" font-family="CMUBright-Roman" style="text-anchor:end;fill:rgb(0,0,0);" transform="rotate(38.9,631.0,914.3)" >Languages</text>
<path d="M720.960,970.329 A1642.000,1642.000 40.000 0,1 724.774,965.610 L695.262,941.672 A1680.000,1680.000 0.000 0,0 691.360,946.500 Z" style="stroke-width:2.0;stroke:rgb(255,255,255);stroke-linecap:round;fill:none;" />
<path d="M747.643,938.037 A1642.000,1642.000 40.000 0,1 884.635,794.959 L858.822,767.071 A1680.000,1680.000 0.000 0,0 718.660,913.461 Z" style="stroke-width:2.0;stroke:rgb(255,255,255);stroke-linecap:round;fill:rgb(88,40,138);" />
<text x="727.0" y="803.3" font-size="36.4px" font-family="CMUBright-Roman" style="text-anchor:end;fill:rgb(0,0,0);" transform="rotate(43.8,727.0,803.3)" >Biological-Sciences</text>
<path d="M747.643,938.037 A1642.000,1642.000 40.000 0,1 884.635,794.959 L858.822,767.071 A1680.000,1680.000 0.000 0,0 718.660,913.461 Z" style="stroke-width:2.0;stroke:rgb(255,255,255);stroke-linecap:round;fill:none;" />
<path d="M911.188,770.914 A1642.000,1642.000 40.000 0,1 969.888,721.316 L946.049,691.724 A1680.000,1680.000 0.000 0,0 885.990,742.470 Z" style="stroke-width:2.0;stroke:rgb(255,255,255);stroke-linecap:round;fill:rgb(115,65,165);" />
<text x="862.8" y="673.5" font-size="36.4px" font-family="CMUBright-Roman" style="text-anchor:end;fill:rgb(0,0,0);" transform="rotate(49.8,862.8,673.5)" >Health-Wellness</text>
<path d="M911.188,770.914 A1642.000,1642.000 40.000 0,1 969.888,721.316 L946.049,691.724 A1680.000,1680.000 0.000 0,0 885.990,742.470 Z" style="stroke-width:2.0;stroke:rgb(255,255,255);stroke-linecap:round;fill:none;" />
<path d="M998.028,699.148 A1642.000,1642.000 40.000 0,1 1023.858,679.655 L1001.267,649.099 A1680.000,1680.000 0.000 0,0 974.840,669.043 Z" style="stroke-width:2.0;stroke:rgb(255,255,255);stroke-linecap:round;fill:rgb(140,92,188);" />
<text x="935.2" y="614.8" font-size="36.4px" font-family="CMUBright-Roman" style="text-anchor:end;fill:rgb(0,0,0);" transform="rotate(53.0,935.2,614.8)" >Physical-Sciences</text>
<path d="M998.028,699.148 A1642.000,1642.000 40.000 0,1 1023.858,679.655 L1001.267,649.099 A1680.000,1680.000 0.000 0,0 974.840,669.043 Z" style="stroke-width:2.0;stroke:rgb(255,255,255);stroke-linecap:round;fill:none;" />
<path d="M1052.893,658.675 A1642.000,1642.000 40.000 0,1 1064.493,650.559 L1042.843,619.329 A1680.000,1680.000 0.000 0,0 1030.975,627.633 Z" style="stroke-width:2.0;stroke:rgb(255,255,255);stroke-linecap:round;fill:rgb(165,120,208);" />
<text x="988.2" y="575.6" font-size="36.4px" font-family="CMUBright-Roman" style="text-anchor:end;fill:rgb(0,0,0);" transform="rotate(55.0,988.2,575.6)" >Environmental-Sciences</text>
<path d="M1052.893,658.675 A1642.000,1642.000 40.000 0,1 1064.493,650.559 L1042.843,619.329 A1680.000,1680.000 0.000 0,0 1030.975,627.633 Z" style="stroke-width:2.0;stroke:rgb(255,255,255);stroke-linecap:round;fill:none;" />
<path d="M1094.154,630.472 A1642.000,1642.000 40.000 0,1 1594.822,408.776 L1585.445,371.951 A1680.000,1680.000 0.000 0,0 1073.190,598.778 Z" style="stroke-width:2.0;stroke:rgb(255,255,255);stroke-linecap:round;fill:rgb(22,118,50);" />
<text x="1278.0" y="409.0" font-size="36.4px" font-family="CMUBright-Roman" style="text-anchor:end;fill:rgb(0,0,0);" transform="rotate(66.1,1278.0,409.0)" >Engineering-Disciplines</text>
<path d="M1094.154,630.472 A1642.000,1642.000 40.000 0,1 1594.822,408.776 L1585.445,371.951 A1680.000,1680.000 0.000 0,0 1073.190,598.778 Z" style="stroke-width:2.0;stroke:rgb(255,255,255);stroke-linecap:round;fill:none;" />
<path d="M1629.631,400.315 A1642.000,1642.000 40.000 0,1 1964.180,358.391 L1963.351,320.400 A1680.000,1680.000 0.000 0,0 1621.060,363.295 Z" style="stroke-width:2.0;stroke:rgb(255,255,255);stroke-linecap:round;fill:rgb(48,158,75);" />
<text x="1767.4" y="268.4" font-size="36.4px" font-family="CMUBright-Roman" style="text-anchor:end;fill:rgb(0,0,0);" transform="rotate(82.9,1767.4,268.4)" >Computer-Science-IT</text>
<path d="M1629.631,400.315 A1642.000,1642.000 40.000 0,1 1964.180,358.391 L1963.351,320.400 A1680.000,1680.000 0.000 0,0 1621.060,363.295 Z" style="stroke-width:2.0;stroke:rgb(255,255,255);stroke-linecap:round;fill:none;" />
</g>
<g id="track_0">
<path d="M 3620.143,1867.164 A 1625.580,1625.580 0.00 0,1 3620.3,1869.2 L 3620.3,1869.2 3553.7,1873.3 3485.3,1875.2 3415.3,1875.0 3343.7,1872.6 3270.8,1868.3 3196.5,1862.1 3121.0,1854.1 3044.3,1844.2 2966.7,1832.8 2888.2,1819.6 2809.0,1805.0 2729.0,1788.8 2648.6,1771.3 2567.7,1752.3 2486.5,1732.1 2405.1,1710.6 2323.6,1687.9 2242.2,1664.0 2160.9,1639.0 2079.9,1612.9 1999.3,1585.8 1919.2,1557.7 1839.8,1528.6 1761.1,1498.6 1683.3,1467.7 1606.6,1435.9 1531.0,1403.3 1456.6,1369.8 1383.7,1335.4 1312.3,1300.3 1242.5,1264.4 1174.6,1227.6 1108.6,1190.1 1044.6,1151.9 982.8,1112.8 923.3,1072.9 866.3,1032.3 811.9,990.9 760.2,948.7  A 1625.580,1625.580 0.00 0,1 761.5,947.1 L 761.5,947.1 813.1,989.4 867.4,1030.9 924.4,1071.6 983.8,1111.5 1045.5,1150.6 1109.5,1188.9 1175.4,1226.4 1243.3,1263.2 1313.0,1299.2 1384.4,1334.3 1457.3,1368.7 1531.6,1402.2 1607.1,1434.9 1683.8,1466.7 1761.6,1497.7 1840.2,1527.7 1919.6,1556.8 1999.6,1584.9 2080.2,1612.0 2161.2,1638.0 2242.4,1663.0 2323.8,1686.9 2405.3,1709.5 2486.7,1731.0 2567.8,1751.2 2648.7,1770.1 2729.2,1787.7 2809.1,1803.8 2888.3,1818.4 2966.8,1831.4 3044.4,1842.8 3121.0,1852.6 3196.5,1860.6 3270.7,1866.7 3343.7,1871.0 3415.2,1873.2 3485.2,1873.4 3553.5,1871.4 3620.1,1867.2  Z" style="stroke-width: 0.0;  fill: rgb(88,40,138);" />
<path d="M 3620.306,1869.160 A 1625.580,1625.580 0.00 0,1 3620.5,1871.2 L 3620.5,1871.2 3553.3,1875.3 3484.3,1877.3 3413.7,1877.1 3341.5,1875.0 3267.9,1871.0 3192.9,1865.2 3116.7,1857.6 3039.3,1848.4 2960.9,1837.6 2881.6,1825.3 2801.4,1811.6 2720.6,1796.5 2639.1,1780.2 2557.2,1762.6 2474.9,1743.8 2392.4,1723.9 2309.7,1702.8 2227.0,1680.8 2144.4,1657.8 2062.0,1633.8 1979.9,1608.8 1898.3,1583.0 1817.3,1556.4 1736.9,1528.9 1657.4,1500.5 1578.8,1471.4 1501.4,1441.5 1425.1,1410.8 1350.1,1379.3 1276.6,1347.1 1204.6,1314.1 1134.4,1280.3 1066.0,1245.8 999.7,1210.4 935.4,1174.3 873.3,1137.3 813.7,1099.5 756.6,1060.8 702.1,1021.2  A 1625.580,1625.580 0.00 0,1 703.3,1019.6 L 703.3,1019.6 757.7,1059.3 814.8,1098.0 874.4,1135.9 936.3,1172.9 1000.5,1209.1 1066.9,1244.5 1135.2,1279.1 1205.4,1312.9 1277.2,1345.9 1350.7,1378.2 1425.6,1409.7 1501.9,1440.4 1579.4,1470.4 1657.9,1499.5 1737.4,1527.9 1817.7,1555.4 1898.7,1582.1 1980.2,1607.9 2062.3,1632.8 2144.6,1656.8 2227.2,1679.8 2309.9,1701.8 2392.6,1722.8 2475.1,1742.7 2557.3,1761.5 2639.2,1779.0 2720.7,1795.4 2801.5,1810.4 2881.6,1824.0 2960.9,1836.3 3039.3,1847.0 3116.7,1856.1 3192.9,1863.6 3267.8,1869.4 3341.5,1873.3 3413.6,1875.4 3484.2,1875.4 3553.1,1873.4 3620.3,1869.2  Z" style="stroke-width: 0.0;  fill: rgb(205,75,142);" />
<path d="M 3620.466,1871.155 A 1625.580,1625.580 0.00 0,1 3620.6,1873.2 L 3620.6,1873.2 3552.1,1877.4 3481.8,1879.6 3409.9,1879.9 3336.3,1878.4 3261.3,1875.2 3184.8,1870.5 3107.1,1864.2 3028.2,1856.6 2948.2,1847.7 2867.1,1837.5 2785.2,1826.3 2702.6,1813.9 2619.2,1800.6 2535.2,1786.3 2450.8,1771.1 2366.1,1755.1 2281.1,1738.3 2195.9,1720.8 2110.7,1702.6 2025.6,1683.7 1940.8,1664.1 1856.2,1643.9 1772.1,1623.1 1688.5,1601.7 1605.6,1579.7 1523.5,1557.1 1442.4,1533.9 1362.2,1510.1 1283.2,1485.6 1205.6,1460.5 1129.3,1434.7 1054.6,1408.2 981.5,1380.9 910.2,1352.8 840.9,1323.9 773.7,1294.1 708.6,1263.4 645.9,1231.6 585.6,1198.8  A 1625.580,1625.580 0.00 0,1 586.6,1197.0 L 586.6,1197.0 646.8,1229.9 709.5,1261.8 774.5,1292.6 841.7,1322.4 911.0,1351.4 982.2,1379.5 1055.2,1406.8 1129.9,1433.4 1206.1,1459.3 1283.7,1484.4 1362.7,1508.9 1442.8,1532.8 1523.9,1556.0 1606.0,1578.7 1688.9,1600.7 1772.4,1622.1 1856.5,1642.9 1941.0,1663.1 2025.9,1682.7 2110.9,1701.6 2196.1,1719.8 2281.2,1737.3 2366.2,1754.1 2451.0,1770.0 2535.4,1785.2 2619.3,1799.4 2702.6,1812.7 2785.3,1825.0 2867.2,1836.3 2948.2,1846.3 3028.2,1855.2 3107.1,1862.8 3184.8,1868.9 3261.2,1873.6 3336.3,1876.7 3409.8,1878.1 3481.7,1877.8 3552.0,1875.5 3620.5,1871.2  Z" style="stroke-width: 0.0;  fill: rgb(0,165,172);" />
<path d="M 3620.623,1873.152 A 1625.580,1625.580 0.00 0,1 3620.8,1875.1 L 3620.8,1875.1 3551.6,1879.4 3480.7,1881.7 3408.2,1882.1 3334.0,1880.9 3258.3,1878.1 3181.2,1873.9 3102.9,1868.3 3023.3,1861.4 2942.6,1853.3 2860.9,1844.2 2778.3,1834.1 2694.9,1823.0 2610.8,1811.1 2526.1,1798.4 2440.8,1785.0 2355.2,1770.9 2269.3,1756.2 2183.3,1740.8 2097.1,1724.9 2011.0,1708.5 1925.1,1691.5 1839.4,1674.1 1754.2,1656.1 1669.4,1637.7 1585.2,1618.8 1501.8,1599.4 1419.2,1579.5 1337.6,1559.0 1257.0,1538.0 1177.7,1516.4 1099.7,1494.1 1023.2,1471.2 948.3,1447.6 875.1,1423.1 803.7,1397.9 734.3,1371.7 667.0,1344.5 601.9,1316.2 539.2,1286.8  A 1625.580,1625.580 0.00 0,1 540.1,1285.0 L 540.1,1285.0 602.7,1314.5 667.8,1342.8 735.0,1370.1 804.4,1396.3 875.7,1421.7 948.9,1446.1 1023.8,1469.9 1100.2,1492.8 1178.2,1515.1 1257.5,1536.8 1337.9,1557.8 1419.5,1578.3 1502.1,1598.3 1585.5,1617.7 1669.7,1636.7 1754.4,1655.1 1839.7,1673.1 1925.3,1690.5 2011.2,1707.5 2097.3,1723.9 2183.4,1739.8 2269.5,1755.1 2355.4,1769.8 2441.0,1783.9 2526.2,1797.3 2610.9,1810.0 2695.0,1821.8 2778.4,1832.8 2861.0,1842.9 2942.7,1852.0 3023.3,1860.0 3102.9,1866.8 3181.2,1872.3 3258.3,1876.5 3333.9,1879.3 3408.1,1880.4 3480.6,1879.8 3551.5,1877.5 3620.6,1873.2  Z" style="stroke-width: 0.0;  fill: rgb(0,130,142);" />
<path d="M 3620.778,1875.148 A 1625.580,1625.580 0.00 0,1 3622.8,1905.1 L 3622.8,1905.1 3548.6,1910.2 3473.1,1916.6 3396.3,1924.1 3318.3,1932.7 3239.1,1941.9 3158.9,1951.8 3077.7,1962.1 2995.6,1972.7 2912.5,1983.4 2828.7,1994.2 2744.1,2004.8 2658.9,2015.2 2573.1,2025.3 2486.7,2035.0 2399.9,2044.2 2312.7,2052.9 2225.2,2061.0 2137.4,2068.5 2049.5,2075.3 1961.5,2081.5 1873.5,2087.0 1785.6,2091.8 1697.8,2096.0 1610.2,2099.6 1522.9,2102.5 1436.1,2105.0 1349.7,2107.0 1263.8,2108.6 1178.6,2109.9 1094.1,2110.9 1010.4,2111.9 927.5,2112.9 845.7,2114.0 764.9,2115.4 685.2,2117.3 606.8,2119.8 529.7,2123.0 454.0,2127.2 379.8,2132.5  A 1625.580,1625.580 0.00 0,1 377.7,2102.6 L 377.7,2102.6 451.9,2097.2 527.5,2090.4 604.4,2082.5 682.4,2073.7 761.5,2064.1 841.8,2054.0 923.0,2043.4 1005.1,2032.6 1088.1,2021.6 1172.0,2010.7 1256.5,1999.8 1341.7,1989.3 1427.5,1979.0 1513.8,1969.2 1600.6,1959.9 1687.8,1951.1 1775.2,1942.9 1862.9,1935.4 1950.8,1928.5 2038.7,1922.4 2126.7,1916.9 2214.6,1912.1 2302.4,1908.0 2389.9,1904.5 2477.1,1901.6 2564.0,1899.3 2650.4,1897.5 2736.2,1896.1 2821.4,1895.0 2906.0,1894.1 2989.7,1893.4 3072.5,1892.6 3154.4,1891.8 3235.3,1890.6 3315.0,1889.1 3393.5,1886.9 3470.7,1884.0 3546.5,1880.2 3620.8,1875.1  Z" style="stroke-width: 0.0;  fill: rgb(108,170,228);" />
<path d="M 3622.808,1905.113 A 1625.580,1625.580 0.00 0,1 3623.0,1909.1 L 3623.0,1909.1 3550.3,1914.0 3476.1,1920.5 3400.6,1928.4 3323.7,1937.6 3245.7,1947.8 3166.4,1958.9 3086.1,1970.8 3004.7,1983.3 2922.4,1996.3 2839.2,2009.6 2755.2,2023.1 2670.5,2036.8 2585.0,2050.6 2499.0,2064.3 2412.6,2077.9 2325.6,2091.4 2238.4,2104.6 2150.8,2117.6 2063.1,2130.3 1975.3,2142.7 1887.6,2154.7 1799.9,2166.4 1712.3,2177.8 1625.1,2188.9 1538.2,2199.8 1451.7,2210.4 1365.9,2220.7 1280.6,2231.0 1196.1,2241.2 1112.5,2251.4 1029.8,2261.7 948.2,2272.2 867.7,2283.0 788.5,2294.2 710.6,2306.0 634.2,2318.4 559.5,2331.7 486.4,2345.9 415.1,2361.3  A 1625.580,1625.580 0.00 0,1 414.2,2357.4 L 414.2,2357.4 485.6,2342.2 558.7,2328.1 633.6,2315.0 710.0,2302.7 787.9,2291.1 867.2,2280.0 947.7,2269.3 1029.4,2259.0 1112.1,2248.8 1195.8,2238.7 1280.3,2228.6 1365.6,2218.4 1451.5,2208.1 1537.9,2197.6 1624.8,2186.8 1712.1,2175.8 1799.6,2164.4 1887.3,2152.7 1975.1,2140.7 2062.8,2128.3 2150.5,2115.6 2238.1,2102.6 2325.3,2089.3 2412.2,2075.8 2498.7,2062.1 2584.7,2048.4 2670.1,2034.5 2754.8,2020.7 2838.8,2007.1 2922.0,1993.6 3004.4,1980.6 3085.7,1967.9 3166.1,1955.9 3245.3,1944.7 3323.4,1934.3 3400.2,1925.0 3475.8,1916.9 3550.0,1910.2 3622.8,1905.1  Z" style="stroke-width: 0.0;  fill: rgb(200,108,30);" />
<path d="M 3623.037,1909.111 A 1625.580,1625.580 0.00 0,1 3623.6,1919.1 L 3623.6,1919.1 3552.2,1923.6 3479.4,1929.9 3405.1,1937.9 3329.5,1947.4 3252.6,1958.2 3174.5,1970.2 3095.2,1983.3 3014.9,1997.3 2933.6,2012.0 2851.3,2027.5 2768.2,2043.6 2684.4,2060.2 2599.9,2077.1 2514.8,2094.4 2429.2,2112.0 2343.1,2129.7 2256.8,2147.6 2170.2,2165.6 2083.5,2183.6 1996.7,2201.7 1910.0,2219.7 1823.4,2237.8 1737.1,2255.8 1651.1,2273.9 1565.6,2291.9 1480.7,2310.0 1396.4,2328.2 1312.9,2346.4 1230.3,2364.8 1148.7,2383.4 1068.2,2402.3 989.0,2421.5 911.1,2441.2 834.7,2461.3 759.8,2482.1 686.7,2503.5 615.4,2525.8 546.1,2549.1 478.9,2573.4  A 1625.580,1625.580 0.00 0,1 475.4,2564.1 L 475.4,2564.1 542.9,2540.1 612.4,2517.2 684.0,2495.2 757.3,2474.1 832.3,2453.7 908.9,2433.9 987.0,2414.5 1066.4,2395.6 1147.0,2377.0 1228.7,2358.6 1311.4,2340.5 1395.0,2322.4 1479.4,2304.5 1564.4,2286.5 1649.9,2268.6 1735.9,2250.7 1822.3,2232.7 1908.9,2214.7 1995.6,2196.7 2082.4,2178.6 2169.2,2160.5 2255.8,2142.5 2342.1,2124.5 2428.2,2106.7 2513.8,2089.0 2598.9,2071.5 2683.4,2054.3 2767.2,2037.5 2850.3,2021.2 2932.6,2005.5 3013.9,1990.4 3094.3,1976.0 3173.6,1962.6 3251.7,1950.3 3328.7,1939.1 3404.4,1929.2 3478.7,1920.8 3551.6,1914.0 3623.0,1909.1  Z" style="stroke-width: 0.0;  fill: rgb(82,145,215);" />
<path d="M 3623.566,1919.109 A 1625.580,1625.580 0.00 0,1 3624.4,1939.1 L 3624.4,1939.1 3555.1,1942.8 3484.3,1948.6 3412.0,1956.4 3338.3,1966.0 3263.4,1977.3 3187.1,1990.2 3109.8,2004.6 3031.4,2020.4 2952.0,2037.4 2871.7,2055.6 2790.6,2074.8 2708.9,2095.0 2626.5,2116.2 2543.6,2138.1 2460.2,2160.8 2376.6,2184.2 2292.7,2208.2 2208.8,2232.9 2124.8,2258.0 2040.9,2283.7 1957.2,2309.8 1873.8,2336.3 1790.8,2363.3 1708.4,2390.7 1626.6,2418.5 1545.6,2446.6 1465.5,2475.2 1386.4,2504.2 1308.4,2533.6 1231.7,2563.4 1156.4,2593.7 1082.6,2624.5 1010.4,2655.8 940.0,2687.7 871.5,2720.2 805.0,2753.5 740.7,2787.5 678.8,2822.3 619.3,2858.0  A 1625.580,1625.580 0.00 0,1 608.8,2840.9 L 608.8,2840.9 669.0,2805.8 731.5,2771.6 796.4,2738.2 863.4,2705.5 932.4,2673.6 1003.3,2642.2 1076.0,2611.4 1150.2,2581.1 1226.0,2551.3 1303.0,2521.9 1381.4,2492.9 1460.8,2464.3 1541.2,2436.0 1622.5,2408.1 1704.5,2380.6 1787.2,2353.4 1870.3,2326.5 1953.9,2300.0 2037.8,2273.9 2121.8,2248.2 2206.0,2222.9 2290.1,2198.2 2374.0,2173.9 2457.8,2150.3 2541.2,2127.2 2624.2,2104.9 2706.6,2083.4 2788.5,2062.7 2869.6,2042.9 2950.0,2024.1 3029.5,2006.5 3108.0,1990.1 3185.4,1975.0 3261.7,1961.3 3336.8,1949.3 3410.6,1938.8 3483.1,1930.3 3554.1,1923.6 3623.6,1919.1  Z" style="stroke-width: 0.0;  fill: rgb(60,120,198);" />
<path d="M 3624.439,1939.112 A 1625.580,1625.580 0.00 0,1 3625.1,1961.1 L 3625.1,1961.1 3558.4,1963.9 3490.2,1969.2 3420.6,1976.7 3349.6,1986.5 3277.5,1998.4 3204.2,2012.3 3129.9,2028.2 3054.7,2045.9 2978.7,2065.4 2901.9,2086.6 2824.6,2109.4 2746.7,2133.8 2668.5,2159.6 2590.0,2186.8 2511.3,2215.4 2432.5,2245.2 2353.8,2276.2 2275.3,2308.4 2197.0,2341.7 2119.1,2376.0 2041.7,2411.3 1964.9,2447.5 1888.9,2484.6 1813.7,2522.6 1739.5,2561.4 1666.4,2600.9 1594.5,2641.2 1524.0,2682.1 1454.9,2723.8 1387.5,2766.1 1321.8,2809.0 1257.9,2852.5 1196.1,2896.6 1136.3,2941.2 1078.8,2986.4 1023.7,3032.2 971.1,3078.5 921.2,3125.2 874.1,3172.6  A 1625.580,1625.580 0.00 0,1 858.3,3157.2 L 858.3,3157.2 906.3,3110.3 957.0,3064.0 1010.3,3018.2 1066.2,2972.9 1124.4,2928.1 1184.8,2883.9 1247.4,2840.3 1311.9,2797.1 1378.2,2754.6 1446.2,2712.6 1515.9,2671.3 1586.9,2630.6 1659.3,2590.5 1732.9,2551.1 1807.5,2512.5 1883.1,2474.6 1959.5,2437.5 2036.7,2401.3 2114.4,2365.9 2192.6,2331.4 2271.2,2298.0 2350.1,2265.5 2429.0,2234.2 2508.0,2204.0 2586.9,2175.0 2665.6,2147.4 2744.1,2121.0 2822.1,2096.1 2899.6,2072.7 2976.5,2050.8 3052.6,2030.6 3128.0,2012.1 3202.4,1995.5 3275.8,1980.7 3348.2,1968.0 3419.3,1957.4 3489.1,1949.0 3557.5,1942.8 3624.4,1939.1  Z" style="stroke-width: 0.0;  fill: rgb(28,75,160);" />
<path d="M 3625.115,1961.127 A 1625.580,1625.580 0.00 0,1 3625.4,2021.2 L 3625.4,2021.2 3562.9,2021.7 3499.2,2024.9 3434.3,2030.7 3368.4,2039.2 3301.7,2050.2 3234.2,2063.7 3166.3,2079.7 3097.9,2098.2 3029.3,2119.1 2960.5,2142.3 2891.7,2167.9 2823.1,2195.7 2754.7,2225.7 2686.7,2257.9 2619.2,2292.1 2552.3,2328.4 2486.2,2366.6 2421.0,2406.7 2356.8,2448.6 2293.7,2492.2 2231.8,2537.5 2171.3,2584.3 2112.2,2632.7 2054.6,2682.4 1998.8,2733.5 1944.7,2785.7 1892.4,2839.1 1842.1,2893.5 1793.9,2948.9 1747.9,3005.0 1704.1,3061.8 1662.7,3119.3 1623.7,3177.2 1587.3,3235.5 1553.4,3294.0 1522.3,3352.7 1493.9,3411.4 1468.4,3469.9 1445.8,3528.2  A 1625.580,1625.580 0.00 0,1 1389.7,3506.7 L 1389.7,3506.7 1414.7,3448.6 1442.6,3390.4 1473.3,3332.0 1506.9,3273.7 1543.1,3215.5 1581.9,3157.5 1623.2,3099.8 1666.9,3042.5 1712.9,2985.8 1761.0,2929.8 1811.3,2874.4 1863.6,2820.0 1917.8,2766.4 1973.8,2713.8 2031.5,2662.4 2090.8,2612.2 2151.5,2563.2 2213.6,2515.6 2277.0,2469.5 2341.5,2424.9 2407.0,2381.9 2473.4,2340.6 2540.7,2301.1 2608.6,2263.4 2677.1,2227.6 2746.0,2193.8 2815.3,2162.0 2884.7,2132.3 2954.3,2104.8 3023.7,2079.5 3093.0,2056.5 3162.0,2035.8 3230.5,2017.6 3298.5,2001.8 3365.8,1988.4 3432.2,1977.7 3497.7,1969.5 3562.0,1964.0 3625.1,1961.1  Z" style="stroke-width: 0.0;  fill: rgb(42,98,180);" />
<path d="M 3625.442,2021.192 A 1625.580,1625.580 0.00 0,1 3595.8,2309.6 L 3595.8,2309.6 3539.1,2299.8 3481.3,2292.4 3422.8,2287.3 3363.8,2284.7 3304.5,2284.5 3245.0,2287.0 3185.7,2292.0 3126.7,2299.7 3068.2,2310.1 3010.3,2323.1 2953.4,2338.9 2897.4,2357.3 2842.7,2378.4 2789.2,2402.2 2737.2,2428.6 2686.9,2457.6 2638.2,2489.2 2591.4,2523.2 2546.5,2559.7 2503.7,2598.5 2463.1,2639.6 2424.6,2682.9 2388.5,2728.2 2354.7,2775.5 2323.3,2824.7 2294.4,2875.5 2268.1,2928.0 2244.3,2981.9 2223.1,3037.0 2204.4,3093.3 2188.4,3150.5 2175.0,3208.5 2164.2,3267.1 2155.9,3326.0 2150.3,3385.1 2147.1,3444.1 2146.5,3502.8 2148.3,3561.0 2152.5,3618.4  A 1625.580,1625.580 0.00 0,1 1862.6,3619.8 L 1862.6,3619.8 1869.0,3559.8 1878.1,3499.2 1890.0,3438.0 1904.7,3376.5 1922.0,3314.7 1941.9,3253.0 1964.5,3191.3 1989.7,3130.1 2017.5,3069.3 2047.8,3009.1 2080.5,2949.7 2115.6,2891.1 2153.0,2833.7 2192.7,2777.4 2234.6,2722.4 2278.6,2668.9 2324.7,2616.8 2372.7,2566.4 2422.5,2517.8 2474.1,2471.0 2527.4,2426.1 2582.2,2383.3 2638.5,2342.5 2696.1,2303.9 2754.9,2267.6 2814.8,2233.6 2875.6,2201.9 2937.3,2172.7 2999.6,2145.9 3062.4,2121.7 3125.7,2100.0 3189.1,2080.9 3252.6,2064.4 3316.0,2050.6 3379.2,2039.4 3441.9,2030.8 3503.9,2025.0 3565.2,2021.7 3625.4,2021.2  Z" style="stroke-width: 0.0;  fill: rgb(15,52,135);" />
</g>
<defs>
<pattern id="vline-sparse" width="10" height="10" patternTransform="rotate(0 0 0)" patternUnits="userSpaceOnUse"><line x1="0" y1="0" x2="0" y2="10" style="stroke:black;stroke-width:2" /></pattern>
<pattern id="hline-sparse" width="10" height="10" patternTransform="rotate(0 0 0)" patternUnits="userSpaceOnUse"><line x1="0" y1="0" x2="10" y2="0" style="stroke:black;stroke-width:2" /></pattern>
<pattern id="checker" width="10" height="10" patternTransform="rotate(45 0 0)" patternUnits="userSpaceOnUse"><line x1="0" y1="0" x2="10" y2="0" style="stroke:black;stroke-width:5" /><line x1="0" y1="0" x2="0" y2="10" style="stroke:black;stroke-width:4" /></pattern>
<pattern id="vline" width="10" height="10" patternTransform="rotate(0 0 0)" patternUnits="userSpaceOnUse"><line x1="0" y1="0" x2="0" y2="10" style="stroke:black;stroke-width:5" /></pattern>
<pattern id="hline" width="10" height="10" patternTransform="rotate(0 0 0)" patternUnits="userSpaceOnUse"><line x1="0" y1="0" x2="10" y2="0" style="stroke:black;stroke-width:5" /></pattern>
<pattern id="checker" width="10" height="10" patternTransform="rotate(45 0 0)" patternUnits="userSpaceOnUse"><line x1="0" y1="0" x2="10" y2="0" style="stroke:black;stroke-width:2" /><line x1="0" y1="0" x2="0" y2="10" style="stroke:black;stroke-width:2" /></pattern>
</defs>
</svg>
