<?xml version="1.0" encoding="utf-8" standalone="no"?>
<!DOCTYPE svg PUBLIC "-//W3C//DTD SVG 1.1//EN" "http://www.w3.org/Graphics/SVG/1.1/DTD/svg11.dtd">
<svg width="4000px" height="4000px" version="1.1" xmlns="http://www.w3.org/2000/svg" xmlns:xlink="http://www.w3.org/1999/xlink">
<g id="bg">
<rect x="0" y="0" width="4000px" height="4000px" style="fill:rgb(255,255,255);"/>
</g>
<g id="ideograms">
<path d="M2000.000,358.000 A1642.000,1642.000 40.000 0,1 2727.139,527.779 L2743.967,493.709 A1680.000,1680.000 0.000 0,0 2000.000,320.000 Z" style="stroke-width:2.0;stroke:rgb(255,255,255);stroke-linecap:round;fill:rgb(185,185,185);" />
<text x="2412.3" y="302.2" font-size="36.4px" font-family="CMUBright-Roman" style="text-anchor:start;fill:rgb(0,0,0);" transform="rotate(283.1,2412.3,302.2)" >Engineering</text>
<path d="M2000.000,358.000 A1642.000,1642.000 40.000 0,1 2727.139,527.779 L2743.967,493.709 A1680.000,1680.000 0.000 0,0 2000.000,320.000 Z" style="stroke-width:2.0;stroke:rgb(255,255,255);stroke-linecap:round;fill:none;" />
<path d="M2759.082,543.992 A1642.000,1642.000 40.000 0,1 3284.099,976.646 L3313.816,952.963 A1680.000,1680.000 0.000 0,0 2776.649,510.297 Z" style="stroke-width:2.0;stroke:rgb(255,255,255);stroke-linecap:round;fill:rgb(185,185,185);" />
<text x="3120.8" y="659.6" font-size="36.4px" font-family="CMUBright-Roman" style="text-anchor:start;fill:rgb(0,0,0);" transform="rotate(309.5,3120.8,659.6)" >Finance-Investment</text>
<path d="M2759.082,543.992 A1642.000,1642.000 40.000 0,1 3284.099,976.646 L3313.816,952.963 A1680.000,1680.000 0.000 0,0 2776.649,510.297 Z" style="stroke-width:2.0;stroke:rgb(255,255,255);stroke-linecap:round;fill:none;" />
<path d="M3306.118,1004.902 A1642.000,1642.000 40.000 0,1 3557.132,1478.938 L3593.167,1466.879 A1680.000,1680.000 0.000 0,0 3336.345,981.873 Z" style="stroke-width:2.0;stroke:rgb(255,255,255);stroke-linecap:round;fill:rgb(185,185,185);" />
<text x="3551.5" y="1196.5" font-size="36.4px" font-family="CMUBright-Roman" style="text-anchor:start;fill:rgb(0,0,0);" transform="rotate(332.1,3551.5,1196.5)" >Management-Operations</text>
<path d="M3306.118,1004.902 A1642.000,1642.000 40.000 0,1 3557.132,1478.938 L3593.167,1466.879 A1680.000,1680.000 0.000 0,0 3336.345,981.873 Z" style="stroke-width:2.0;stroke:rgb(255,255,255);stroke-linecap:round;fill:none;" />
<path d="M3568.128,1513.031 A1642.000,1642.000 40.000 0,1 3640.479,1929.339 L3678.444,1927.703 A1680.000,1680.000 0.000 0,0 3604.418,1501.761 Z" style="stroke-width:2.0;stroke:rgb(255,255,255);stroke-linecap:round;fill:rgb(185,185,185);" />
<text x="3723.5" y="1713.2" font-size="36.4px" font-family="CMUBright-Roman" style="text-anchor:start;fill:rgb(0,0,0);" transform="rotate(350.1,3723.5,1713.2)" >Software-Data</text>
<path d="M3568.128,1513.031 A1642.000,1642.000 40.000 0,1 3640.479,1929.339 L3678.444,1927.703 A1680.000,1680.000 0.000 0,0 3604.418,1501.761 Z" style="stroke-width:2.0;stroke:rgb(255,255,255);stroke-linecap:round;fill:none;" />
<path d="M3641.630,1965.142 A1642.000,1642.000 40.000 0,1 3597.388,2380.151 L3634.356,2388.948 A1680.000,1680.000 0.000 0,0 3679.621,1964.336 Z" style="stroke-width:2.0;stroke:rgb(255,255,255);stroke-linecap:round;fill:rgb(185,185,185);" />
<text x="3735.6" y="2201.1" font-size="36.4px" font-family="CMUBright-Roman" style="text-anchor:start;fill:rgb(0,0,0);" transform="rotate(6.1,3735.6,2201.1)" >Sales-Marketing</text>
<path d="M3641.630,1965.142 A1642.000,1642.000 40.000 0,1 3597.388,2380.151 L3634.356,2388.948 A1680.000,1680.000 0.000 0,0 3679.621,1964.336 Z" style="stroke-width:2.0;stroke:rgb(255,255,255);stroke-linecap:round;fill:none;" />
<path d="M3588.715,2414.907 A1642.000,1642.000 40.000 0,1 3447.858,2774.513 L3481.365,2792.437 A1680.000,1680.000 0.000 0,0 3625.482,2424.509 Z" style="stroke-width:2.0;stroke:rgb(255,255,255);stroke-linecap:round;fill:rgb(185,185,185);" />
<text x="3620.9" y="2652.1" font-size="36.4px" font-family="CMUBright-Roman" style="text-anchor:start;fill:rgb(0,0,0);" transform="rotate(21.4,3620.9,2652.1)" >Accounting-Audit</text>
<path d="M3588.715,2414.907 A1642.000,1642.000 40.000 0,1 3447.858,2774.513 L3481.365,2792.437 A1680.000,1680.000 0.000 0,0 3625.482,2424.509 Z" style="stroke-width:2.0;stroke:rgb(255,255,255);stroke-linecap:round;fill:none;" />
<path d="M3430.618,2805.914 A1642.000,1642.000 40.000 0,1 3261.549,3051.027 L3290.745,3075.350 A1680.000,1680.000 0.000 0,0 3463.726,2824.565 Z" style="stroke-width:2.0;stroke:rgb(255,255,255);stroke-linecap:round;fill:rgb(185,185,185);" />
<text x="3429.4" y="3004.8" font-size="36.4px" font-family="CMUBright-Roman" style="text-anchor:start;fill:rgb(0,0,0);" transform="rotate(34.6,3429.4,3004.8)" >Leadership-General</text>
<path d="M3430.618,2805.914 A1642.000,1642.000 40.000 0,1 3261.549,3051.027 L3290.745,3075.350 A1680.000,1680.000 0.000 0,0 3463.726,2824.565 Z" style="stroke-width:2.0;stroke:rgb(255,255,255);stroke-linecap:round;fill:none;" />
<path d="M3238.321,3078.297 A1642.000,1642.000 40.000 0,1 3039.505,3271.060 L3063.562,3300.476 A1680.000,1680.000 0.000 0,0 3266.979,3103.252 Z" style="stroke-width:2.0;stroke:rgb(255,255,255);stroke-linecap:round;fill:rgb(185,185,185);" />
<text x="3207.2" y="3263.1" font-size="36.4px" font-family="CMUBright-Roman" style="text-anchor:start;fill:rgb(0,0,0);" transform="rotate(45.9,3207.2,3263.1)" >Clinical-Care</text>
<path d="M3238.321,3078.297 A1642.000,1642.000 40.000 0,1 3039.505,3271.060 L3063.562,3300.476 A1680.000,1680.000 0.000 0,0 3266.979,3103.252 Z" style="stroke-width:2.0;stroke:rgb(255,255,255);stroke-linecap:round;fill:none;" />
<path d="M3011.529,3293.434 A1642.000,1642.000 40.000 0,1 2784.385,3442.534 L2802.537,3475.918 A1680.000,1680.000 0.000 0,0 3034.939,3323.368 Z" style="stroke-width:2.0;stroke:rgb(255,255,255);stroke-linecap:round;fill:rgb(185,185,185);" />
<text x="2948.3" y="3467.5" font-size="36.4px" font-family="CMUBright-Roman" style="text-anchor:start;fill:rgb(0,0,0);" transform="rotate(56.7,2948.3,3467.5)" >Research-Science</text>
<path d="M3011.529,3293.434 A1642.000,1642.000 40.000 0,1 2784.385,3442.534 L2802.537,3475.918 A1680.000,1680.000 0.000 0,0 3034.939,3323.368 Z" style="stroke-width:2.0;stroke:rgb(255,255,255);stroke-linecap:round;fill:none;" />
<path d="M2752.729,3459.302 A1642.000,1642.000 40.000 0,1 2556.245,3544.913 L2569.118,3580.666 A1680.000,1680.000 0.000 0,0 2770.149,3493.074 Z" style="stroke-width:2.0;stroke:rgb(255,255,255);stroke-linecap:round;fill:rgb(185,185,185);" />
<text x="2686.4" y="3606.7" font-size="36.4px" font-family="CMUBright-Roman" style="text-anchor:start;fill:rgb(0,0,0);" transform="rotate(66.5,2686.4,3606.7)" >Education</text>
<path d="M2752.729,3459.302 A1642.000,1642.000 40.000 0,1 2556.245,3544.913 L2569.118,3580.666 A1680.000,1680.000 0.000 0,0 2770.149,3493.074 Z" style="stroke-width:2.0;stroke:rgb(255,255,255);stroke-linecap:round;fill:none;" />
<path d="M2522.411,3556.679 A1642.000,1642.000 40.000 0,1 2417.174,3588.121 L2426.829,3624.875 A1680.000,1680.000 0.000 0,0 2534.501,3592.705 Z" style="stroke-width:2.0;stroke:rgb(255,255,255);stroke-linecap:round;fill:rgb(185,185,185);" />
<text x="2488.2" y="3677.6" font-size="36.4px" font-family="CMUBright-Roman" style="text-anchor:start;fill:rgb(0,0,0);" transform="rotate(73.4,2488.2,3677.6)" >IT-Infrastructure</text>
<path d="M2522.411,3556.679 A1642.000,1642.000 40.000 0,1 2417.174,3588.121 L2426.829,3624.875 A1680.000,1680.000 0.000 0,0 2534.501,3592.705 Z" style="stroke-width:2.0;stroke:rgb(255,255,255);stroke-linecap:round;fill:none;" />
<path d="M2382.430,3596.844 A1642.000,1642.000 40.000 0,1 2321.118,3610.294 L2328.550,3647.560 A1680.000,1680.000 0.000 0,0 2391.281,3633.799 Z" style="stroke-width:2.0;stroke:rgb(255,255,255);stroke-linecap:round;fill:rgb(185,185,185);" />
<text x="2358.7" y="3710.0" font-size="36.4px" font-family="CMUBright-Roman" style="text-anchor:start;fill:rgb(0,0,0);" transform="rotate(77.6,2358.7,3710.0)" >Legal-Policy</text>
<path d="M2382.430,3596.844 A1642.000,1642.000 40.000 0,1 2321.118,3610.294 L2328.550,3647.560 A1680.000,1680.000 0.000 0,0 2391.281,3633.799 Z" style="stroke-width:2.0;stroke:rgb(255,255,255);stroke-linecap:round;fill:none;" />
<path d="M2285.913,3616.916 A1642.000,1642.000 40.000 0,1 2249.787,3622.890 L2255.567,3660.447 A1680.000,1680.000 0.000 0,0 2292.530,3654.336 Z" style="stroke-width:2.0;stroke:rgb(255,255,255);stroke-linecap:round;fill:rgb(185,185,185);" />
<text x="2272.7" y="3725.8" font-size="36.4px" font-family="CMUBright-Roman" style="text-anchor:start;fill:rgb(0,0,0);" transform="rotate(80.6,2272.7,3725.8)" >Social-Service</text>
<path d="M2285.913,3616.916 A1642.000,1642.000 40.000 0,1 2249.787,3622.890 L2255.567,3660.447 A1680.000,1680.000 0.000 0,0 2292.530,3654.336 Z" style="stroke-width:2.0;stroke:rgb(255,255,255);stroke-linecap:round;fill:none;" />
<path d="M2214.324,3627.952 A1642.000,1642.000 40.000 0,1 1245.263,3458.265 L1227.797,3492.013 A1680.000,1680.000 0.000 0,0 2219.284,3665.627 Z" style="stroke-width:2.0;stroke:rgb(255,255,255);stroke-linecap:round;fill:rgb(15,52,135);" />
<text x="1714.4" y="3723.7" font-size="36.4px" font-family="CMUBright-Roman" style="text-anchor:end;fill:rgb(0,0,0);" transform="rotate(-80.1,1714.4,3723.7)" >Finance-Accounting</text>
<path d="M2214.324,3627.952 A1642.000,1642.000 40.000 0,1 1245.263,3458.265 L1227.797,3492.013 A1680.000,1680.000 0.000 0,0 2219.284,3665.627 Z" style="stroke-width:2.0;stroke:rgb(255,255,255);stroke-linecap:round;fill:none;" />
<path d="M1213.631,3441.453 A1642.000,1642.000 40.000 0,1 879.437,3200.209 L853.504,3227.985 A1680.000,1680.000 0.000 0,0 1195.432,3474.812 Z" style="stroke-width:2.0;stroke:rgb(255,255,255);stroke-linecap:round;fill:rgb(28,75,160);" />
<text x="990.4" y="3426.0" font-size="36.4px" font-family="CMUBright-Roman" style="text-anchor:end;fill:rgb(0,0,0);" transform="rotate(-54.2,990.4,3426.0)" >Marketing-Communication</text>
<path d="M1213.631,3441.453 A1642.000,1642.000 40.000 0,1 879.437,3200.209 L853.504,3227.985 A1680.000,1680.000 0.000 0,0 1195.432,3474.812 Z" style="stroke-width:2.0;stroke:rgb(255,255,255);stroke-linecap:round;fill:none;" />
<path d="M853.521,3175.478 A1642.000,1642.000 40.000 0,1 639.254,2918.986 L607.763,2940.253 A1680.000,1680.000 0.000 0,0 826.988,3202.682 Z" style="stroke-width:2.0;stroke:rgb(255,255,255);stroke-linecap:round;fill:rgb(42,98,180);" />
<text x="667.2" y="3129.7" font-size="36.4px" font-family="CMUBright-Roman" style="text-anchor:end;fill:rgb(0,0,0);" transform="rotate(-39.9,667.2,3129.7)" >General-Business</text>
<path d="M853.521,3175.478 A1642.000,1642.000 40.000 0,1 639.254,2918.986 L607.763,2940.253 A1680.000,1680.000 0.000 0,0 826.988,3202.682 Z" style="stroke-width:2.0;stroke:rgb(255,255,255);stroke-linecap:round;fill:none;" />
<path d="M619.530,2889.082 A1642.000,1642.000 40.000 0,1 479.680,2620.315 L444.496,2634.671 A1680.000,1680.000 0.000 0,0 587.583,2909.658 Z" style="stroke-width:2.0;stroke:rgb(255,255,255);stroke-linecap:round;fill:rgb(60,120,198);" />
<text x="457.3" y="2820.2" font-size="36.4px" font-family="CMUBright-Roman" style="text-anchor:end;fill:rgb(0,0,0);" transform="rotate(-27.5,457.3,2820.2)" >Operations-Analytics</text>
<path d="M619.530,2889.082 A1642.000,1642.000 40.000 0,1 479.680,2620.315 L444.496,2634.671 A1680.000,1680.000 0.000 0,0 587.583,2909.658 Z" style="stroke-width:2.0;stroke:rgb(255,255,255);stroke-linecap:round;fill:none;" />
<path d="M466.510,2587.002 A1642.000,1642.000 40.000 0,1 421.749,2453.087 L385.224,2463.573 A1680.000,1680.000 0.000 0,0 431.021,2600.587 Z" style="stroke-width:2.0;stroke:rgb(255,255,255);stroke-linecap:round;fill:rgb(82,145,215);" />
<text x="347.9" y="2568.6" font-size="36.4px" font-family="CMUBright-Roman" style="text-anchor:end;fill:rgb(0,0,0);" transform="rotate(-18.5,347.9,2568.6)" >Specialized-Business</text>
<path d="M466.510,2587.002 A1642.000,1642.000 40.000 0,1 421.749,2453.087 L385.224,2463.573 A1680.000,1680.000 0.000 0,0 431.021,2600.587 Z" style="stroke-width:2.0;stroke:rgb(255,255,255);stroke-linecap:round;fill:none;" />
<path d="M412.241,2418.550 A1642.000,1642.000 40.000 0,1 391.911,2331.987 L354.696,2339.670 A1680.000,1680.000 0.000 0,0 375.496,2428.236 Z" style="stroke-width:2.0;stroke:rgb(255,255,255);stroke-linecap:round;fill:rgb(108,170,228);" />
<text x="301.9" y="2411.1" font-size="36.4px" font-family="CMUBright-Roman" style="text-anchor:end;fill:rgb(0,0,0);" transform="rotate(-13.2,301.9,2411.1)" >Economics</text>
<path d="M412.241,2418.550 A1642.000,1642.000 40.000 0,1 391.911,2331.987 L354.696,2339.670 A1680.000,1680.000 0.000 0,0 375.496,2428.236 Z" style="stroke-width:2.0;stroke:rgb(255,255,255);stroke-linecap:round;fill:none;" />
<path d="M385.052,2296.827 A1642.000,1642.000 40.000 0,1 366.030,2162.194 L328.216,2165.947 A1680.000,1680.000 0.000 0,0 347.678,2303.697 Z" style="stroke-width:2.0;stroke:rgb(255,255,255);stroke-linecap:round;fill:rgb(200,108,30);" />
<text x="271.8" y="2256.8" font-size="36.4px" font-family="CMUBright-Roman" style="text-anchor:end;fill:rgb(0,0,0);" transform="rotate(-8.0,271.8,2256.8)" >Social-Sciences</text>
<path d="M385.052,2296.827 A1642.000,1642.000 40.000 0,1 366.030,2162.194 L328.216,2165.947 A1680.000,1680.000 0.000 0,0 347.678,2303.697 Z" style="stroke-width:2.0;stroke:rgb(255,255,255);stroke-linecap:round;fill:none;" />
<path d="M362.881,2126.510 A1642.000,1642.000 40.000 0,1 359.682,2074.299 L321.721,2076.018 A1680.000,1680.000 0.000 0,0 324.994,2129.438 Z" style="stroke-width:2.0;stroke:rgb(255,255,255);stroke-linecap:round;fill:rgb(220,140,52);" />
<text x="256.9" y="2119.3" font-size="36.4px" font-family="CMUBright-Roman" style="text-anchor:end;fill:rgb(0,0,0);" transform="rotate(-3.5,256.9,2119.3)" >Humanities-Liberal-Arts</text>
<path d="M362.881,2126.510 A1642.000,1642.000 40.000 0,1 359.682,2074.299 L321.721,2076.018 A1680.000,1680.000 0.000 0,0 324.994,2129.438 Z" style="stroke-width:2.0;stroke:rgb(255,255,255);stroke-linecap:round;fill:none;" />
<path d="M358.451,2038.498 A1642.000,1642.000 40.000 0,1 358.158,2022.807 L320.162,2023.335 A1680.000,1680.000 0.000 0,0 320.462,2039.389 Z" style="stroke-width:2.0;stroke:rgb(255,255,255);stroke-linecap:round;fill:rgb(235,168,78);" />
<text x="253.4" y="2045.1" font-size="36.4px" font-family="CMUBright-Roman" style="text-anchor:end;fill:rgb(0,0,0);" transform="rotate(-1.1,253.4,2045.1)" >International-Studies</text>
<path d="M358.451,2038.498 A1642.000,1642.000 40.000 0,1 358.158,2022.807 L320.162,2023.335 A1680.000,1680.000 0.000 0,0 320.462,2039.389 Z" style="stroke-width:2.0;stroke:rgb(255,255,255);stroke-linecap:round;fill:none;" />
<path d="M358.052,1986.985 A1642.000,1642.000 40.000 0,1 367.336,1825.152 L329.552,1821.105 A1680.000,1680.000 0.000 0,0 320.053,1986.684 Z" style="stroke-width:2.0;stroke:rgb(255,255,255);stroke-linecap:round;fill:rgb(175,35,42);" />
<text x="255.0" y="1912.4" font-size="36.4px" font-family="CMUBright-Roman" style="text-anchor:end;fill:rgb(0,0,0);" transform="rotate(3.3,255.0,1912.4)" >Teacher-Education</text>
<path d="M358.052,1986.985 A1642.000,1642.000 40.000 0,1 367.336,1825.152 L329.552,1821.105 A1680.000,1680.000 0.000 0,0 320.053,1986.684 Z" style="stroke-width:2.0;stroke:rgb(255,255,255);stroke-linecap:round;fill:none;" />
<path d="M371.539,1789.577 A1642.000,1642.000 40.000 0,1 376.636,1753.316 L339.067,1747.607 A1680.000,1680.000 0.000 0,0 333.852,1784.707 Z" style="stroke-width:2.0;stroke:rgb(255,255,255);stroke-linecap:round;fill:rgb(195,58,55);" />
<text x="268.1" y="1769.2" font-size="36.4px" font-family="CMUBright-Roman" style="text-anchor:end;fill:rgb(0,0,0);" transform="rotate(8.0,268.1,1769.2)" >Social-Work</text>
<path d="M371.539,1789.577 A1642.000,1642.000 40.000 0,1 376.636,1753.316 L339.067,1747.607 A1680.000,1680.000 0.000 0,0 333.852,1784.707 Z" style="stroke-width:2.0;stroke:rgb(255,255,255);stroke-linecap:round;fill:none;" />
<path d="M382.404,1717.961 A1642.000,1642.000 40.000 0,1 388.090,1687.094 L350.786,1679.853 A1680.000,1680.000 0.000 0,0 344.968,1711.434 Z" style="stroke-width:2.0;stroke:rgb(255,255,255);stroke-linecap:round;fill:rgb(215,82,72);" />
<text x="279.0" y="1698.7" font-size="36.4px" font-family="CMUBright-Roman" style="text-anchor:end;fill:rgb(0,0,0);" transform="rotate(10.4,279.0,1698.7)" >Special-Education</text>
<path d="M382.404,1717.961 A1642.000,1642.000 40.000 0,1 388.090,1687.094 L350.786,1679.853 A1680.000,1680.000 0.000 0,0 344.968,1711.434 Z" style="stroke-width:2.0;stroke:rgb(255,255,255);stroke-linecap:round;fill:none;" />
<path d="M395.300,1652.005 A1642.000,1642.000 40.000 0,1 396.416,1646.895 L359.305,1638.723 A1680.000,1680.000 0.000 0,0 358.163,1643.952 Z" style="stroke-width:2.0;stroke:rgb(255,255,255);stroke-linecap:round;fill:rgb(230,112,95);" />
<text x="289.8" y="1642.1" font-size="36.4px" font-family="CMUBright-Roman" style="text-anchor:end;fill:rgb(0,0,0);" transform="rotate(12.3,289.8,1642.1)" >Educational-Leadership</text>
<path d="M395.300,1652.005 A1642.000,1642.000 40.000 0,1 396.416,1646.895 L359.305,1638.723 A1680.000,1680.000 0.000 0,0 358.163,1643.952 Z" style="stroke-width:2.0;stroke:rgb(255,255,255);stroke-linecap:round;fill:none;" />
<path d="M404.501,1611.997 A1642.000,1642.000 40.000 0,1 423.388,1541.244 L386.901,1530.627 A1680.000,1680.000 0.000 0,0 367.577,1603.017 Z" style="stroke-width:2.0;stroke:rgb(255,255,255);stroke-linecap:round;fill:rgb(0,130,142);" />
<text x="308.7" y="1561.5" font-size="36.4px" font-family="CMUBright-Roman" style="text-anchor:end;fill:rgb(0,0,0);" transform="rotate(14.9,308.7,1561.5)" >Communication-Studies</text>
<path d="M404.501,1611.997 A1642.000,1642.000 40.000 0,1 423.388,1541.244 L386.901,1530.627 A1680.000,1680.000 0.000 0,0 367.577,1603.017 Z" style="stroke-width:2.0;stroke:rgb(255,255,255);stroke-linecap:round;fill:none;" />
<path d="M433.770,1506.960 A1642.000,1642.000 40.000 0,1 448.549,1462.261 L412.644,1449.816 A1680.000,1680.000 0.000 0,0 397.524,1495.549 Z" style="stroke-width:2.0;stroke:rgb(255,255,255);stroke-linecap:round;fill:rgb(0,165,172);" />
<text x="337.2" y="1463.4" font-size="36.4px" font-family="CMUBright-Roman" style="text-anchor:end;fill:rgb(0,0,0);" transform="rotate(18.3,337.2,1463.4)" >Journalism-Media</text>
<path d="M433.770,1506.960 A1642.000,1642.000 40.000 0,1 448.549,1462.261 L412.644,1449.816 A1680.000,1680.000 0.000 0,0 397.524,1495.549 Z" style="stroke-width:2.0;stroke:rgb(255,255,255);stroke-linecap:round;fill:none;" />
<path d="M460.649,1428.544 A1642.000,1642.000 40.000 0,1 466.181,1413.858 L430.684,1400.293 A1680.000,1680.000 0.000 0,0 425.024,1415.319 Z" style="stroke-width:2.0;stroke:rgb(255,255,255);stroke-linecap:round;fill:rgb(38,195,195);" />
<text x="359.4" y="1399.1" font-size="36.4px" font-family="CMUBright-Roman" style="text-anchor:end;fill:rgb(0,0,0);" transform="rotate(20.6,359.4,1399.1)" >Creative-Writing</text>
<path d="M460.649,1428.544 A1642.000,1642.000 40.000 0,1 466.181,1413.858 L430.684,1400.293 A1680.000,1680.000 0.000 0,0 425.024,1415.319 Z" style="stroke-width:2.0;stroke:rgb(255,255,255);stroke-linecap:round;fill:none;" />
<path d="M479.332,1380.537 A1642.000,1642.000 40.000 0,1 510.660,1308.603 L476.193,1292.602 A1680.000,1680.000 0.000 0,0 444.140,1366.201 Z" style="stroke-width:2.0;stroke:rgb(255,255,255);stroke-linecap:round;fill:rgb(180,45,112);" />
<text x="391.8" y="1317.1" font-size="36.4px" font-family="CMUBright-Roman" style="text-anchor:end;fill:rgb(0,0,0);" transform="rotate(23.5,391.8,1317.1)" >Arts-Theology</text>
<path d="M479.332,1380.537 A1642.000,1642.000 40.000 0,1 510.660,1308.603 L476.193,1292.602 A1680.000,1680.000 0.000 0,0 444.140,1366.201 Z" style="stroke-width:2.0;stroke:rgb(255,255,255);stroke-linecap:round;fill:none;" />
<path d="M526.097,1276.278 A1642.000,1642.000 40.000 0,1 530.738,1266.901 L496.736,1249.936 A1680.000,1680.000 0.000 0,0 491.987,1259.529 Z" style="stroke-width:2.0;stroke:rgb(255,255,255);stroke-linecap:round;fill:rgb(205,75,142);" />
<text x="427.1" y="1239.3" font-size="36.4px" font-family="CMUBright-Roman" style="text-anchor:end;fill:rgb(0,0,0);" transform="rotate(26.3,427.1,1239.3)" >English-Writing</text>
<path d="M526.097,1276.278 A1642.000,1642.000 40.000 0,1 530.738,1266.901 L496.736,1249.936 A1680.000,1680.000 0.000 0,0 491.987,1259.529 Z" style="stroke-width:2.0;stroke:rgb(255,255,255);stroke-linecap:round;fill:none;" />
<path d="M547.080,1235.024 A1642.000,1642.000 40.000 0,1 549.525,1230.399 L515.957,1212.589 A1680.000,1680.000 0.000 0,0 513.456,1217.321 Z" style="stroke-width:2.0;stroke:rgb(255,255,255);stroke-linecap:round;fill:rgb(225,110,168);" />
<text x="447.9" y="1197.7" font-size="36.4px" font-family="CMUBright-Roman" style="text-anchor:end;fill:rgb(0,0,0);" transform="rotate(27.9,447.9,1197.7)" >Languages</text>
<path d="M547.080,1235.024 A1642.000,1642.000 40.000 0,1 549.525,1230.399 L515.957,1212.589 A1680.000,1680.000 0.000 0,0 513.456,1217.321 Z" style="stroke-width:2.0;stroke:rgb(255,255,255);stroke-linecap:round;fill:none;" />
<path d="M566.659,1198.940 A1642.000,1642.000 40.000 0,1 748.337,937.219 L719.370,912.624 A1680.000,1680.000 0.000 0,0 533.488,1180.402 Z" style="stroke-width:2.0;stroke:rgb(255,255,255);stroke-linecap:round;fill:rgb(88,40,138);" />
<text x="555.7" y="1016.9" font-size="36.4px" font-family="CMUBright-Roman" style="text-anchor:end;fill:rgb(0,0,0);" transform="rotate(34.8,555.7,1016.9)" >Biological-Sciences</text>
<path d="M566.659,1198.940 A1642.000,1642.000 40.000 0,1 748.337,937.219 L719.370,912.624 A1680.000,1680.000 0.000 0,0 533.488,1180.402 Z" style="stroke-width:2.0;stroke:rgb(255,255,255);stroke-linecap:round;fill:none;" />
<path d="M771.819,910.167 A1642.000,1642.000 40.000 0,1 821.633,856.490 L794.362,830.027 A1680.000,1680.000 0.000 0,0 743.396,884.946 Z" style="stroke-width:2.0;stroke:rgb(255,255,255);stroke-linecap:round;fill:rgb(115,65,165);" />
<text x="710.8" y="820.7" font-size="36.4px" font-family="CMUBright-Roman" style="text-anchor:end;fill:rgb(0,0,0);" transform="rotate(42.9,710.8,820.7)" >Health-Wellness</text>
<path d="M771.819,910.167 A1642.000,1642.000 40.000 0,1 821.633,856.490 L794.362,830.027 A1680.000,1680.000 0.000 0,0 743.396,884.946 Z" style="stroke-width:2.0;stroke:rgb(255,255,255);stroke-linecap:round;fill:none;" />
<path d="M846.858,831.057 A1642.000,1642.000 40.000 0,1 873.212,805.633 L847.135,777.993 A1680.000,1680.000 0.000 0,0 820.172,804.004 Z" style="stroke-width:2.0;stroke:rgb(255,255,255);stroke-linecap:round;fill:rgb(140,92,188);" />
<text x="775.8" y="753.4" font-size="36.4px" font-family="CMUBright-Roman" style="text-anchor:end;fill:rgb(0,0,0);" transform="rotate(46.0,775.8,753.4)" >Physical-Sciences</text>
<path d="M846.858,831.057 A1642.000,1642.000 40.000 0,1 873.212,805.633 L847.135,777.993 A1680.000,1680.000 0.000 0,0 820.172,804.004 Z" style="stroke-width:2.0;stroke:rgb(255,255,255);stroke-linecap:round;fill:none;" />
<path d="M899.535,781.337 A1642.000,1642.000 40.000 0,1 903.423,777.837 L878.045,749.553 A1680.000,1680.000 0.000 0,0 874.067,753.134 Z" style="stroke-width:2.0;stroke:rgb(255,255,255);stroke-linecap:round;fill:rgb(165,120,208);" />
<text x="821.8" y="709.8" font-size="36.4px" font-family="CMUBright-Roman" style="text-anchor:end;fill:rgb(0,0,0);" transform="rotate(48.0,821.8,709.8)" >Environmental-Sciences</text>
<path d="M899.535,781.337 A1642.000,1642.000 40.000 0,1 903.423,777.837 L878.045,749.553 A1680.000,1680.000 0.000 0,0 874.067,753.134 Z" style="stroke-width:2.0;stroke:rgb(255,255,255);stroke-linecap:round;fill:none;" />
<path d="M930.345,754.206 A1642.000,1642.000 40.000 0,1 1638.399,398.311 L1630.030,361.244 A1680.000,1680.000 0.000 0,0 905.590,725.375 Z" style="stroke-width:2.0;stroke:rgb(255,255,255);stroke-linecap:round;fill:rgb(22,118,50);" />
<text x="1201.1" y="446.2" font-size="36.4px" font-family="CMUBright-Roman" style="text-anchor:end;fill:rgb(0,0,0);" transform="rotate(63.3,1201.1,446.2)" >Engineering-Disciplines</text>
<path d="M930.345,754.206 A1642.000,1642.000 40.000 0,1 1638.399,398.311 L1630.030,361.244 A1680.000,1680.000 0.000 0,0 905.590,725.375 Z" style="stroke-width:2.0;stroke:rgb(255,255,255);stroke-linecap:round;fill:none;" />
<path d="M1673.425,390.804 A1642.000,1642.000 40.000 0,1 1964.180,358.391 L1963.351,320.400 A1680.000,1680.000 0.000 0,0 1665.867,353.563 Z" style="stroke-width:2.0;stroke:rgb(255,255,255);stroke-linecap:round;fill:rgb(48,158,75);" />
<text x="1791.0" y="265.3" font-size="36.4px" font-family="CMUBright-Roman" style="text-anchor:end;fill:rgb(0,0,0);" transform="rotate(83.6,1791.0,265.3)" >Computer-Science-IT</text>
<path d="M1673.425,390.804 A1642.000,1642.000 40.000 0,1 1964.180,358.391 L1963.351,320.400 A1680.000,1680.000 0.000 0,0 1665.867,353.563 Z" style="stroke-width:2.0;stroke:rgb(255,255,255);stroke-linecap:round;fill:none;" />
</g>
<g id="track_0">
<path d="M 2745.202,3444.709 A 1625.580,1625.580 0.00 0,1 2740.6,3447.1 L 2740.6,3447.1 2708.5,3386.9 2673.7,3326.4 2636.4,3265.4 2596.6,3204.1 2554.6,3142.4 2510.4,3080.5 2464.2,3018.2 2416.2,2955.8 2366.3,2893.1 2314.8,2830.4 2261.9,2767.5 2207.5,2704.6 2151.8,2641.7 2094.9,2579.0 2037.0,2516.3 1978.1,2453.9 1918.4,2391.8 1857.8,2330.0 1796.6,2268.7 1734.7,2207.9 1672.4,2147.7 1609.6,2088.1 1546.5,2029.4 1483.1,1971.6 1419.6,1914.7 1355.8,1858.9 1292.0,1804.2 1228.3,1750.9 1164.5,1699.0 1100.9,1648.6 1037.4,1599.8 974.2,1552.7 911.2,1507.6 848.5,1464.4 786.2,1423.4 724.2,1384.7 662.6,1348.4 601.5,1314.6 540.8,1283.5  A 1625.580,1625.580 0.00 0,1 543.1,1278.9 L 543.1,1278.9 603.8,1310.2 664.8,1344.1 726.4,1380.7 788.3,1419.6 850.6,1460.8 913.2,1504.1 976.2,1549.5 1039.4,1596.7 1102.8,1645.6 1166.4,1696.2 1230.1,1748.3 1293.8,1801.7 1357.6,1856.5 1421.3,1912.4 1484.9,1969.4 1548.3,2027.3 1611.4,2086.1 1674.2,2145.7 1736.6,2206.0 1798.4,2266.8 1859.7,2328.2 1920.3,2390.0 1980.2,2452.1 2039.2,2514.5 2097.2,2577.2 2154.2,2639.9 2209.9,2702.8 2264.5,2765.6 2317.6,2828.5 2369.2,2891.2 2419.2,2953.8 2467.4,3016.2 2513.8,3078.4 2558.2,3140.3 2600.4,3201.9 2640.4,3263.2 2677.9,3324.1 2712.9,3384.6 2745.2,3444.7  Z" style="stroke-width: 0.0;  fill: rgb(205,75,142);" />
<path d="M 2740.596,3447.076 A 1625.580,1625.580 0.00 0,1 2726.7,3454.1 L 2726.7,3454.1 2695.5,3394.4 2661.6,3334.3 2625.0,3273.8 2585.9,3213.0 2544.4,3152.0 2500.7,3090.7 2454.8,3029.3 2407.0,2967.7 2357.3,2906.0 2305.8,2844.4 2252.8,2782.7 2198.1,2721.1 2142.1,2659.7 2084.8,2598.5 2026.2,2537.6 1966.6,2477.1 1906.0,2417.0 1844.5,2357.4 1782.2,2298.4 1719.2,2240.0 1655.6,2182.4 1591.4,2125.6 1526.9,2069.8 1461.9,2015.0 1396.7,1961.3 1331.3,1908.8 1265.8,1857.7 1200.2,1807.9 1134.7,1759.7 1069.3,1713.1 1004.0,1668.3 938.9,1625.3 874.1,1584.3 809.7,1545.4 745.7,1508.7 682.1,1474.4 619.0,1442.5 556.5,1413.3 494.5,1386.7  A 1625.580,1625.580 0.00 0,1 500.5,1372.4 L 500.5,1372.4 562.3,1399.5 624.8,1429.4 687.8,1461.9 751.2,1496.9 815.2,1534.2 879.5,1573.6 944.2,1615.2 1009.1,1658.7 1074.3,1704.0 1139.7,1751.1 1205.2,1799.7 1270.7,1849.9 1336.2,1901.4 1401.6,1954.2 1466.8,2008.2 1531.8,2063.3 1596.5,2119.4 1660.7,2176.4 1724.5,2234.2 1787.6,2292.7 1850.1,2351.8 1911.8,2411.5 1972.7,2471.7 2032.6,2532.2 2091.5,2593.1 2149.1,2654.3 2205.5,2715.7 2260.6,2777.1 2314.1,2838.7 2366.0,2900.3 2416.2,2961.8 2464.5,3023.3 2510.9,3084.6 2555.2,3145.7 2597.3,3206.6 2637.0,3267.2 2674.2,3327.5 2708.8,3387.5 2740.6,3447.1  Z" style="stroke-width: 0.0;  fill: rgb(180,45,112);" />
<path d="M 2726.731,3454.088 A 1625.580,1625.580 0.00 0,1 2703.5,3465.5 L 2703.5,3465.5 2674.1,3407.3 2641.9,3348.9 2606.8,3290.4 2569.0,3231.7 2528.7,3173.1 2485.9,3114.5 2440.7,3056.0 2393.3,2997.8 2343.8,2939.8 2292.2,2882.2 2238.7,2825.0 2183.4,2768.3 2126.4,2712.2 2067.9,2656.7 2007.8,2602.0 1946.4,2548.1 1883.7,2495.1 1819.8,2443.1 1754.9,2392.1 1689.1,2342.3 1622.4,2293.7 1555.0,2246.4 1487.0,2200.4 1418.5,2155.9 1349.5,2113.0 1280.3,2071.7 1210.8,2032.0 1141.2,1994.2 1071.7,1958.3 1002.2,1924.3 932.9,1892.3 864.0,1862.5 795.5,1834.9 727.4,1809.6 660.0,1786.7 593.3,1766.3 527.5,1748.4 462.5,1733.2 398.6,1720.8  A 1625.580,1625.580 0.00 0,1 403.2,1695.3 L 403.2,1695.3 467.3,1708.8 532.3,1725.1 598.2,1744.0 665.0,1765.4 732.4,1789.4 800.5,1815.6 869.1,1844.2 938.1,1874.9 1007.4,1907.7 1077.0,1942.6 1146.7,1979.3 1216.4,2017.9 1286.0,2058.2 1355.5,2100.2 1424.7,2143.7 1493.5,2188.8 1561.8,2235.2 1629.6,2282.9 1696.6,2331.9 1762.9,2382.1 1828.2,2433.3 1892.6,2485.6 1955.8,2538.7 2017.9,2592.7 2078.6,2647.5 2137.8,2703.0 2195.5,2759.0 2251.6,2815.7 2305.8,2872.8 2358.3,2930.3 2408.7,2988.1 2457.0,3046.2 2503.1,3104.4 2546.8,3162.8 2588.2,3221.2 2626.9,3279.6 2663.0,3338.0 2696.3,3396.1 2726.7,3454.1  Z" style="stroke-width: 0.0;  fill: rgb(215,82,72);" />
<path d="M 2703.478,3465.479 A 1625.580,1625.580 0.00 0,1 2565.3,3524.1 L 2565.3,3524.1 2542.2,3465.8 2516.2,3407.2 2487.3,3348.4 2455.6,3289.6 2421.3,3231.0 2384.3,3172.5 2344.8,3114.4 2302.9,3056.7 2258.7,2999.6 2212.2,2943.2 2163.6,2887.5 2112.9,2832.7 2060.3,2778.9 2005.8,2726.1 1949.6,2674.5 1891.7,2624.2 1832.3,2575.2 1771.5,2527.7 1709.4,2481.6 1646.0,2437.2 1581.6,2394.4 1516.2,2353.4 1449.9,2314.2 1382.9,2276.9 1315.2,2241.6 1247.1,2208.4 1178.6,2177.2 1109.8,2148.2 1040.9,2121.4 972.0,2096.9 903.2,2074.7 834.8,2055.0 766.7,2037.6 699.2,2022.7 632.3,2010.4 566.3,2000.6 501.2,1993.5 437.2,1989.0 374.5,1987.1  A 1625.580,1625.580 0.00 0,1 382.6,1837.2 L 382.6,1837.2 446.6,1845.0 511.7,1855.4 577.9,1868.5 645.0,1884.2 713.0,1902.4 781.6,1923.0 850.8,1945.9 920.5,1971.1 990.5,1998.5 1060.8,2028.0 1131.2,2059.6 1201.6,2093.2 1272.0,2128.7 1342.1,2166.0 1411.9,2205.1 1481.3,2245.8 1550.1,2288.1 1618.3,2332.0 1685.7,2377.3 1752.2,2424.0 1817.7,2471.9 1882.2,2521.1 1945.4,2571.4 2007.3,2622.8 2067.8,2675.1 2126.7,2728.4 2184.0,2782.4 2239.6,2837.2 2293.2,2892.7 2344.9,2948.7 2394.5,3005.3 2442.0,3062.2 2487.1,3119.5 2529.8,3177.0 2570.0,3234.7 2607.6,3292.5 2642.4,3350.3 2674.4,3408.0 2703.5,3465.5  Z" style="stroke-width: 0.0;  fill: rgb(175,35,42);" />
<path d="M 2565.276,3524.131 A 1625.580,1625.580 0.00 0,1 2560.4,3525.9 L 2560.4,3525.9 2538.1,3469.1 2512.9,3412.1 2484.9,3355.3 2454.1,3298.7 2420.6,3242.4 2384.5,3186.7 2345.9,3131.7 2304.8,3077.5 2261.4,3024.2 2215.7,2971.9 2167.8,2920.9 2117.8,2871.1 2065.8,2822.7 2012.0,2775.8 1956.3,2730.6 1899.0,2687.0 1840.1,2645.3 1779.7,2605.3 1718.0,2567.4 1655.0,2531.5 1590.9,2497.6 1525.9,2466.0 1459.9,2436.5 1393.2,2409.3 1326.0,2384.4 1258.2,2361.9 1190.1,2341.7 1121.9,2324.0 1053.5,2308.8 985.3,2296.0 917.3,2285.8 849.7,2278.0 782.7,2272.7 716.4,2270.0 651.0,2269.8 586.5,2272.1 523.3,2276.9 461.5,2284.1 401.2,2293.9  A 1625.580,1625.580 0.00 0,1 400.3,2288.8 L 400.3,2288.8 460.7,2279.2 522.6,2272.2 585.9,2267.6 650.4,2265.5 715.9,2265.9 782.3,2268.8 849.4,2274.2 917.1,2282.2 985.2,2292.6 1053.5,2305.6 1121.9,2321.0 1190.3,2338.8 1258.5,2359.1 1326.4,2381.8 1393.8,2406.8 1460.6,2434.1 1526.6,2463.7 1591.8,2495.5 1656.1,2529.4 1719.2,2565.4 1781.1,2603.5 1841.6,2643.4 1900.7,2685.3 1958.2,2728.9 2014.0,2774.2 2068.1,2821.1 2120.2,2869.5 2170.4,2919.2 2218.5,2970.3 2264.4,3022.6 2308.0,3075.8 2349.3,3130.1 2388.1,3185.1 2424.4,3240.8 2458.1,3297.0 2489.1,3353.6 2517.3,3410.4 2542.8,3467.3 2565.3,3524.1  Z" style="stroke-width: 0.0;  fill: rgb(200,108,30);" />
<path d="M 2560.417,3525.924 A 1625.580,1625.580 0.00 0,1 2555.6,3527.7 L 2555.6,3527.7 2534.0,3472.2 2509.6,3416.8 2482.5,3361.7 2452.8,3307.0 2420.5,3253.0 2385.6,3199.9 2348.3,3147.7 2308.6,3096.7 2266.6,3047.0 2222.5,2998.7 2176.2,2952.0 2127.8,2907.0 2077.5,2863.8 2025.4,2822.5 1971.5,2783.3 1916.0,2746.2 1859.0,2711.3 1800.6,2678.7 1740.8,2648.4 1679.9,2620.6 1617.9,2595.3 1555.0,2572.5 1491.3,2552.3 1426.9,2534.6 1361.9,2519.7 1296.6,2507.3 1231.1,2497.6 1165.4,2490.6 1099.7,2486.2 1034.3,2484.4 969.3,2485.3 904.7,2488.8 840.9,2494.8 777.9,2503.3 715.9,2514.2 655.1,2527.5 595.7,2543.2 537.9,2561.1 481.8,2581.1  A 1625.580,1625.580 0.00 0,1 480.0,2576.3 L 480.0,2576.3 536.2,2556.4 594.1,2538.7 653.6,2523.2 714.5,2510.0 776.6,2499.3 839.7,2490.9 903.7,2485.1 968.4,2481.8 1033.6,2481.2 1099.1,2483.1 1164.9,2487.6 1230.7,2494.8 1296.4,2504.6 1361.9,2517.1 1427.0,2532.2 1491.5,2550.0 1555.4,2570.3 1618.5,2593.2 1680.7,2618.6 1741.8,2646.5 1801.7,2676.8 1860.4,2709.5 1917.6,2744.5 1973.3,2781.6 2027.4,2820.9 2079.7,2862.2 2130.2,2905.4 2178.7,2950.4 2225.2,2997.1 2269.6,3045.4 2311.8,3095.1 2351.7,3146.1 2389.2,3198.2 2424.3,3251.4 2456.8,3305.4 2486.8,3360.0 2514.1,3415.1 2538.6,3470.4 2560.4,3525.9  Z" style="stroke-width: 0.0;  fill: rgb(82,145,215);" />
<path d="M 2555.553,3527.701 A 1625.580,1625.580 0.00 0,1 2550.7,3529.5 L 2550.7,3529.5 2530.5,3476.7 2508.1,3424.4 2483.4,3372.7 2456.7,3322.1 2427.9,3272.7 2397.0,3224.7 2364.3,3178.4 2329.7,3134.0 2293.3,3091.7 2255.2,3051.6 2215.4,3013.9 2174.1,2978.8 2131.4,2946.4 2087.3,2916.8 2041.9,2890.1 1995.4,2866.5 1947.7,2845.9 1899.1,2828.5 1849.6,2814.4 1799.4,2803.5 1748.5,2795.8 1697.0,2791.5 1645.1,2790.5 1593.0,2792.7 1540.6,2798.2 1488.2,2806.8 1435.9,2818.6 1383.8,2833.5 1332.0,2851.3 1280.7,2872.0 1230.0,2895.4 1180.1,2921.5 1131.1,2950.0 1083.2,2980.9 1036.5,3013.9 991.1,3049.0 947.3,3085.7 905.2,3124.1 865.0,3163.7  A 1625.580,1625.580 0.00 0,1 861.3,3160.1 L 861.3,3160.1 901.7,3120.5 944.0,3082.3 987.9,3045.7 1033.4,3010.8 1080.3,2977.9 1128.4,2947.1 1177.6,2918.7 1227.7,2892.7 1278.6,2869.4 1330.1,2848.8 1382.1,2831.1 1434.5,2816.4 1487.0,2804.7 1539.6,2796.1 1592.2,2790.8 1644.6,2788.6 1696.8,2789.7 1748.4,2794.1 1799.6,2801.8 1850.1,2812.8 1899.8,2827.0 1948.7,2844.4 1996.6,2865.0 2043.4,2888.6 2089.0,2915.3 2133.4,2944.9 2176.4,2977.3 2217.9,3012.4 2257.9,3050.1 2296.2,3090.2 2332.9,3132.5 2367.7,3176.9 2400.7,3223.1 2431.7,3271.1 2460.8,3320.5 2487.7,3371.1 2512.6,3422.7 2535.2,3475.0 2555.6,3527.7  Z" style="stroke-width: 0.0;  fill: rgb(42,98,180);" />
</g>
<defs>
<pattern id="vline-sparse" width="10" height="10" patternTransform="rotate(0 0 0)" patternUnits="userSpaceOnUse"><line x1="0" y1="0" x2="0" y2="10" style="stroke:black;stroke-width:2" /></pattern>
<pattern id="hline" width="10" height="10" patternTransform="rotate(0 0 0)" patternUnits="userSpaceOnUse"><line x1="0" y1="0" x2="10" y2="0" style="stroke:black;stroke-width:5" /></pattern>
<pattern id="checker" width="10" height="10" patternTransform="rotate(45 0 0)" patternUnits="userSpaceOnUse"><line x1="0" y1="0" x2="10" y2="0" style="stroke:black;stroke-width:5" /><line x1="0" y1="0" x2="0" y2="10" style="stroke:black;stroke-width:4" /></pattern>
<pattern id="hline-sparse" width="10" height="10" patternTransform="rotate(0 0 0)" patternUnits="userSpaceOnUse"><line x1="0" y1="0" x2="10" y2="0" style="stroke:black;stroke-width:2" /></pattern>
<pattern id="vline" width="10" height="10" patternTransform="rotate(0 0 0)" patternUnits="userSpaceOnUse"><line x1="0" y1="0" x2="0" y2="10" style="stroke:black;stroke-width:5" /></pattern>
<pattern id="checker" width="10" height="10" patternTransform="rotate(45 0 0)" patternUnits="userSpaceOnUse"><line x1="0" y1="0" x2="10" y2="0" style="stroke:black;stroke-width:2" /><line x1="0" y1="0" x2="0" y2="10" style="stroke:black;stroke-width:2" /></pattern>
</defs>
</svg>
