<?xml version="1.0" encoding="utf-8" standalone="no"?>
<!DOCTYPE svg PUBLIC "-//W3C//DTD SVG 1.1//EN" "http://www.w3.org/Graphics/SVG/1.1/DTD/svg11.dtd">
<svg width="4000px" height="4000px" version="1.1" xmlns="http://www.w3.org/2000/svg" xmlns:xlink="http://www.w3.org/1999/xlink">
<g id="bg">
<rect x="0" y="0" width="4000px" height="4000px" style="fill:rgb(255,255,255);"/>
</g>
<g id="ideograms">
<path d="M2000.000,358.000 A1642.000,1642.000 40.000 0,1 2751.610,540.121 L2769.004,506.336 A1680.000,1680.000 0.000 0,0 2000.000,320.000 Z" style="stroke-width:2.0;stroke:rgb(255,255,255);stroke-linecap:round;fill:rgb(185,185,185);" />
<text x="2427.0" y="305.8" font-size="36.4px" font-family="CMUBright-Roman" style="text-anchor:start;fill:rgb(0,0,0);" transform="rotate(283.6,2427.0,305.8)" >Management-Operations</text>
<path d="M2000.000,358.000 A1642.000,1642.000 40.000 0,1 2751.610,540.121 L2769.004,506.336 A1680.000,1680.000 0.000 0,0 2000.000,320.000 Z" style="stroke-width:2.0;stroke:rgb(255,255,255);stroke-linecap:round;fill:none;" />
<path d="M2783.279,556.865 A1642.000,1642.000 40.000 0,1 3226.411,908.176 L3254.793,882.908 A1680.000,1680.000 0.000 0,0 2801.406,523.467 Z" style="stroke-width:2.0;stroke:rgb(255,255,255);stroke-linecap:round;fill:rgb(185,185,185);" />
<text x="3097.5" y="640.5" font-size="36.4px" font-family="CMUBright-Roman" style="text-anchor:start;fill:rgb(0,0,0);" transform="rotate(308.4,3097.5,640.5)" >Engineering</text>
<path d="M2783.279,556.865 A1642.000,1642.000 40.000 0,1 3226.411,908.176 L3254.793,882.908 A1680.000,1680.000 0.000 0,0 2801.406,523.467 Z" style="stroke-width:2.0;stroke:rgb(255,255,255);stroke-linecap:round;fill:none;" />
<path d="M3249.937,935.189 A1642.000,1642.000 40.000 0,1 3507.538,1349.236 L3542.426,1334.176 A1680.000,1680.000 0.000 0,0 3278.864,910.547 Z" style="stroke-width:2.0;stroke:rgb(255,255,255);stroke-linecap:round;fill:rgb(185,185,185);" />
<text x="3491.6" y="1090.2" font-size="36.4px" font-family="CMUBright-Roman" style="text-anchor:start;fill:rgb(0,0,0);" transform="rotate(328.1,3491.6,1090.2)" >Leadership-General</text>
<path d="M3249.937,935.189 A1642.000,1642.000 40.000 0,1 3507.538,1349.236 L3542.426,1334.176 A1680.000,1680.000 0.000 0,0 3278.864,910.547 Z" style="stroke-width:2.0;stroke:rgb(255,255,255);stroke-linecap:round;fill:none;" />
<path d="M3521.375,1382.278 A1642.000,1642.000 40.000 0,1 3633.192,1830.154 L3670.988,1826.223 A1680.000,1680.000 0.000 0,0 3556.584,1367.982 Z" style="stroke-width:2.0;stroke:rgb(255,255,255);stroke-linecap:round;fill:rgb(185,185,185);" />
<text x="3699.0" y="1592.3" font-size="36.4px" font-family="CMUBright-Roman" style="text-anchor:start;fill:rgb(0,0,0);" transform="rotate(346.0,3699.0,1592.3)" >Sales-Marketing</text>
<path d="M3521.375,1382.278 A1642.000,1642.000 40.000 0,1 3633.192,1830.154 L3670.988,1826.223 A1680.000,1680.000 0.000 0,0 3556.584,1367.982 Z" style="stroke-width:2.0;stroke:rgb(255,255,255);stroke-linecap:round;fill:none;" />
<path d="M3636.509,1865.822 A1642.000,1642.000 40.000 0,1 3610.774,2318.704 L3648.051,2326.079 A1680.000,1680.000 0.000 0,0 3674.381,1862.717 Z" style="stroke-width:2.0;stroke:rgb(255,255,255);stroke-linecap:round;fill:rgb(185,185,185);" />
<text x="3743.6" y="2111.6" font-size="36.4px" font-family="CMUBright-Roman" style="text-anchor:start;fill:rgb(0,0,0);" transform="rotate(3.3,3743.6,2111.6)" >Finance-Investment</text>
<path d="M3636.509,1865.822 A1642.000,1642.000 40.000 0,1 3610.774,2318.704 L3648.051,2326.079 A1680.000,1680.000 0.000 0,0 3674.381,1862.717 Z" style="stroke-width:2.0;stroke:rgb(255,255,255);stroke-linecap:round;fill:none;" />
<path d="M3603.438,2353.767 A1642.000,1642.000 40.000 0,1 3499.856,2668.278 L3534.566,2683.744 A1680.000,1680.000 0.000 0,0 3640.546,2361.954 Z" style="stroke-width:2.0;stroke:rgb(255,255,255);stroke-linecap:round;fill:rgb(185,185,185);" />
<text x="3655.6" y="2558.4" font-size="36.4px" font-family="CMUBright-Roman" style="text-anchor:start;fill:rgb(0,0,0);" transform="rotate(18.2,3655.6,2558.4)" >Software-Data</text>
<path d="M3603.438,2353.767 A1642.000,1642.000 40.000 0,1 3499.856,2668.278 L3534.566,2683.744 A1680.000,1680.000 0.000 0,0 3640.546,2361.954 Z" style="stroke-width:2.0;stroke:rgb(255,255,255);stroke-linecap:round;fill:none;" />
<path d="M3484.921,2700.839 A1642.000,1642.000 40.000 0,1 3330.895,2961.708 L3361.695,2983.964 A1680.000,1680.000 0.000 0,0 3519.285,2717.058 Z" style="stroke-width:2.0;stroke:rgb(255,255,255);stroke-linecap:round;fill:rgb(185,185,185);" />
<text x="3498.1" y="2899.1" font-size="36.4px" font-family="CMUBright-Roman" style="text-anchor:start;fill:rgb(0,0,0);" transform="rotate(30.6,3498.1,2899.1)" >Education</text>
<path d="M3484.921,2700.839 A1642.000,1642.000 40.000 0,1 3330.895,2961.708 L3361.695,2983.964 A1680.000,1680.000 0.000 0,0 3519.285,2717.058 Z" style="stroke-width:2.0;stroke:rgb(255,255,255);stroke-linecap:round;fill:none;" />
<path d="M3309.599,2990.512 A1642.000,1642.000 40.000 0,1 3129.055,3192.225 L3155.184,3219.816 A1680.000,1680.000 0.000 0,0 3339.906,3013.435 Z" style="stroke-width:2.0;stroke:rgb(255,255,255);stroke-linecap:round;fill:rgb(185,185,185);" />
<text x="3293.5" y="3174.5" font-size="36.4px" font-family="CMUBright-Roman" style="text-anchor:start;fill:rgb(0,0,0);" transform="rotate(41.8,3293.5,3174.5)" >Research-Science</text>
<path d="M3309.599,2990.512 A1642.000,1642.000 40.000 0,1 3129.055,3192.225 L3155.184,3219.816 A1680.000,1680.000 0.000 0,0 3339.906,3013.435 Z" style="stroke-width:2.0;stroke:rgb(255,255,255);stroke-linecap:round;fill:none;" />
<path d="M3102.778,3216.571 A1642.000,1642.000 40.000 0,1 2891.302,3379.038 L2911.929,3410.952 A1680.000,1680.000 0.000 0,0 3128.299,3244.726 Z" style="stroke-width:2.0;stroke:rgb(255,255,255);stroke-linecap:round;fill:rgb(185,185,185);" />
<text x="3054.5" y="3393.1" font-size="36.4px" font-family="CMUBright-Roman" style="text-anchor:start;fill:rgb(0,0,0);" transform="rotate(52.5,3054.5,3393.1)" >Clinical-Care</text>
<path d="M3102.778,3216.571 A1642.000,1642.000 40.000 0,1 2891.302,3379.038 L2911.929,3410.952 A1680.000,1680.000 0.000 0,0 3128.299,3244.726 Z" style="stroke-width:2.0;stroke:rgb(255,255,255);stroke-linecap:round;fill:none;" />
<path d="M2861.006,3398.153 A1642.000,1642.000 40.000 0,1 2640.127,3512.085 L2654.941,3547.079 A1680.000,1680.000 0.000 0,0 2880.932,3430.510 Z" style="stroke-width:2.0;stroke:rgb(255,255,255);stroke-linecap:round;fill:rgb(185,185,185);" />
<text x="2786.7" y="3560.1" font-size="36.4px" font-family="CMUBright-Roman" style="text-anchor:start;fill:rgb(0,0,0);" transform="rotate(62.7,2786.7,3560.1)" >Accounting-Audit</text>
<path d="M2861.006,3398.153 A1642.000,1642.000 40.000 0,1 2640.127,3512.085 L2654.941,3547.079 A1680.000,1680.000 0.000 0,0 2880.932,3430.510 Z" style="stroke-width:2.0;stroke:rgb(255,255,255);stroke-linecap:round;fill:none;" />
<path d="M2606.988,3525.690 A1642.000,1642.000 40.000 0,1 2452.002,3578.562 L2462.463,3615.094 A1680.000,1680.000 0.000 0,0 2621.036,3560.998 Z" style="stroke-width:2.0;stroke:rgb(255,255,255);stroke-linecap:round;fill:rgb(185,185,185);" />
<text x="2552.3" y="3657.6" font-size="36.4px" font-family="CMUBright-Roman" style="text-anchor:start;fill:rgb(0,0,0);" transform="rotate(71.2,2552.3,3657.6)" >Social-Service</text>
<path d="M2606.988,3525.690 A1642.000,1642.000 40.000 0,1 2452.002,3578.562 L2462.463,3615.094 A1680.000,1680.000 0.000 0,0 2621.036,3560.998 Z" style="stroke-width:2.0;stroke:rgb(255,255,255);stroke-linecap:round;fill:none;" />
<path d="M2417.459,3588.047 A1642.000,1642.000 40.000 0,1 2320.910,3610.336 L2328.336,3647.603 A1680.000,1680.000 0.000 0,0 2427.120,3624.798 Z" style="stroke-width:2.0;stroke:rgb(255,255,255);stroke-linecap:round;fill:rgb(185,185,185);" />
<text x="2380.8" y="3705.2" font-size="36.4px" font-family="CMUBright-Roman" style="text-anchor:start;fill:rgb(0,0,0);" transform="rotate(77.0,2380.8,3705.2)" >IT-Infrastructure</text>
<path d="M2417.459,3588.047 A1642.000,1642.000 40.000 0,1 2320.910,3610.336 L2328.336,3647.603 A1680.000,1680.000 0.000 0,0 2427.120,3624.798 Z" style="stroke-width:2.0;stroke:rgb(255,255,255);stroke-linecap:round;fill:none;" />
<path d="M2285.704,3616.953 A1642.000,1642.000 40.000 0,1 2189.660,3631.010 L2194.050,3668.755 A1680.000,1680.000 0.000 0,0 2292.316,3654.373 Z" style="stroke-width:2.0;stroke:rgb(255,255,255);stroke-linecap:round;fill:rgb(185,185,185);" />
<text x="2237.2" y="3731.0" font-size="36.4px" font-family="CMUBright-Roman" style="text-anchor:start;fill:rgb(0,0,0);" transform="rotate(81.7,2237.2,3731.0)" >Legal-Policy</text>
<path d="M2285.704,3616.953 A1642.000,1642.000 40.000 0,1 2189.660,3631.010 L2194.050,3668.755 A1680.000,1680.000 0.000 0,0 2292.316,3654.373 Z" style="stroke-width:2.0;stroke:rgb(255,255,255);stroke-linecap:round;fill:none;" />
<path d="M2154.035,3634.759 A1642.000,1642.000 40.000 0,1 1474.020,3555.477 L1461.848,3591.475 A1680.000,1680.000 0.000 0,0 2157.600,3672.592 Z" style="stroke-width:2.0;stroke:rgb(255,255,255);stroke-linecap:round;fill:rgb(15,52,135);" />
<text x="1813.6" y="3737.2" font-size="36.4px" font-family="CMUBright-Roman" style="text-anchor:end;fill:rgb(0,0,0);" transform="rotate(-83.3,1813.6,3737.2)" >Finance-Accounting</text>
<path d="M2154.035,3634.759 A1642.000,1642.000 40.000 0,1 1474.020,3555.477 L1461.848,3591.475 A1680.000,1680.000 0.000 0,0 2157.600,3672.592 Z" style="stroke-width:2.0;stroke:rgb(255,255,255);stroke-linecap:round;fill:none;" />
<path d="M1440.213,3543.633 A1642.000,1642.000 40.000 0,1 888.845,3208.925 L863.130,3236.902 A1680.000,1680.000 0.000 0,0 1427.258,3579.356 Z" style="stroke-width:2.0;stroke:rgb(255,255,255);stroke-linecap:round;fill:rgb(42,98,180);" />
<text x="1104.1" y="3500.0" font-size="36.4px" font-family="CMUBright-Roman" style="text-anchor:end;fill:rgb(0,0,0);" transform="rotate(-58.7,1104.1,3500.0)" >General-Business</text>
<path d="M1440.213,3543.633 A1642.000,1642.000 40.000 0,1 888.845,3208.925 L863.130,3236.902 A1680.000,1680.000 0.000 0,0 1427.258,3579.356 Z" style="stroke-width:2.0;stroke:rgb(255,255,255);stroke-linecap:round;fill:none;" />
<path d="M862.737,3184.397 A1642.000,1642.000 40.000 0,1 624.574,2896.866 L592.744,2917.622 A1680.000,1680.000 0.000 0,0 836.418,3211.807 Z" style="stroke-width:2.0;stroke:rgb(255,255,255);stroke-linecap:round;fill:rgb(28,75,160);" />
<text x="664.7" y="3126.8" font-size="36.4px" font-family="CMUBright-Roman" style="text-anchor:end;fill:rgb(0,0,0);" transform="rotate(-39.6,664.7,3126.8)" >Marketing-Communication</text>
<path d="M862.737,3184.397 A1642.000,1642.000 40.000 0,1 624.574,2896.866 L592.744,2917.622 A1680.000,1680.000 0.000 0,0 836.418,3211.807 Z" style="stroke-width:2.0;stroke:rgb(255,255,255);stroke-linecap:round;fill:none;" />
<path d="M605.337,2866.648 A1642.000,1642.000 40.000 0,1 476.558,2612.607 L441.301,2626.784 A1680.000,1680.000 0.000 0,0 573.061,2886.704 Z" style="stroke-width:2.0;stroke:rgb(255,255,255);stroke-linecap:round;fill:rgb(60,120,198);" />
<text x="448.7" y="2803.8" font-size="36.4px" font-family="CMUBright-Roman" style="text-anchor:end;fill:rgb(0,0,0);" transform="rotate(-26.9,448.7,2803.8)" >Operations-Analytics</text>
<path d="M605.337,2866.648 A1642.000,1642.000 40.000 0,1 476.558,2612.607 L441.301,2626.784 A1680.000,1680.000 0.000 0,0 573.061,2886.704 Z" style="stroke-width:2.0;stroke:rgb(255,255,255);stroke-linecap:round;fill:none;" />
<path d="M463.556,2579.227 A1642.000,1642.000 40.000 0,1 407.419,2399.813 L370.563,2409.066 A1680.000,1680.000 0.000 0,0 427.999,2592.632 Z" style="stroke-width:2.0;stroke:rgb(255,255,255);stroke-linecap:round;fill:rgb(82,145,215);" />
<text x="337.2" y="2536.5" font-size="36.4px" font-family="CMUBright-Roman" style="text-anchor:end;fill:rgb(0,0,0);" transform="rotate(-17.4,337.2,2536.5)" >Specialized-Business</text>
<path d="M463.556,2579.227 A1642.000,1642.000 40.000 0,1 407.419,2399.813 L370.563,2409.066 A1680.000,1680.000 0.000 0,0 427.999,2592.632 Z" style="stroke-width:2.0;stroke:rgb(255,255,255);stroke-linecap:round;fill:none;" />
<path d="M399.076,2364.976 A1642.000,1642.000 40.000 0,1 366.776,2169.540 L328.979,2173.464 A1680.000,1680.000 0.000 0,0 362.027,2373.422 Z" style="stroke-width:2.0;stroke:rgb(255,255,255);stroke-linecap:round;fill:rgb(200,108,30);" />
<text x="278.3" y="2297.2" font-size="36.4px" font-family="CMUBright-Roman" style="text-anchor:end;fill:rgb(0,0,0);" transform="rotate(-9.4,278.3,2297.2)" >Social-Sciences</text>
<path d="M399.076,2364.976 A1642.000,1642.000 40.000 0,1 366.776,2169.540 L328.979,2173.464 A1680.000,1680.000 0.000 0,0 362.027,2373.422 Z" style="stroke-width:2.0;stroke:rgb(255,255,255);stroke-linecap:round;fill:none;" />
<path d="M363.466,2133.872 A1642.000,1642.000 40.000 0,1 358.290,2030.870 L320.297,2031.584 A1680.000,1680.000 0.000 0,0 325.593,2136.970 Z" style="stroke-width:2.0;stroke:rgb(255,255,255);stroke-linecap:round;fill:rgb(108,170,228);" />
<text x="255.6" y="2099.7" font-size="36.4px" font-family="CMUBright-Roman" style="text-anchor:end;fill:rgb(0,0,0);" transform="rotate(-2.9,255.6,2099.7)" >Economics</text>
<path d="M363.466,2133.872 A1642.000,1642.000 40.000 0,1 358.290,2030.870 L320.297,2031.584 A1680.000,1680.000 0.000 0,0 325.593,2136.970 Z" style="stroke-width:2.0;stroke:rgb(255,255,255);stroke-linecap:round;fill:none;" />
<path d="M358.007,1995.049 A1642.000,1642.000 40.000 0,1 358.807,1948.539 L320.825,1947.348 A1680.000,1680.000 0.000 0,0 320.008,1994.934 Z" style="stroke-width:2.0;stroke:rgb(255,255,255);stroke-linecap:round;fill:rgb(220,140,52);" />
<text x="252.9" y="1982.5" font-size="36.4px" font-family="CMUBright-Roman" style="text-anchor:end;fill:rgb(0,0,0);" transform="rotate(1.0,252.9,1982.5)" >Humanities-Liberal-Arts</text>
<path d="M358.007,1995.049 A1642.000,1642.000 40.000 0,1 358.807,1948.539 L320.825,1947.348 A1680.000,1680.000 0.000 0,0 320.008,1994.934 Z" style="stroke-width:2.0;stroke:rgb(255,255,255);stroke-linecap:round;fill:none;" />
<path d="M360.320,1912.749 A1642.000,1642.000 40.000 0,1 361.133,1898.615 L323.205,1896.269 A1680.000,1680.000 0.000 0,0 322.373,1910.730 Z" style="stroke-width:2.0;stroke:rgb(255,255,255);stroke-linecap:round;fill:rgb(235,168,78);" />
<text x="255.0" y="1912.1" font-size="36.4px" font-family="CMUBright-Roman" style="text-anchor:end;fill:rgb(0,0,0);" transform="rotate(3.3,255.0,1912.1)" >International-Studies</text>
<path d="M360.320,1912.749 A1642.000,1642.000 40.000 0,1 361.133,1898.615 L323.205,1896.269 A1680.000,1680.000 0.000 0,0 322.373,1910.730 Z" style="stroke-width:2.0;stroke:rgb(255,255,255);stroke-linecap:round;fill:none;" />
<path d="M363.735,1862.887 A1642.000,1642.000 40.000 0,1 391.336,1670.812 L354.108,1663.193 A1680.000,1680.000 0.000 0,0 325.867,1859.714 Z" style="stroke-width:2.0;stroke:rgb(255,255,255);stroke-linecap:round;fill:rgb(195,58,55);" />
<text x="268.8" y="1763.9" font-size="36.4px" font-family="CMUBright-Roman" style="text-anchor:end;fill:rgb(0,0,0);" transform="rotate(8.2,268.8,1763.9)" >Social-Work</text>
<path d="M363.735,1862.887 A1642.000,1642.000 40.000 0,1 391.336,1670.812 L354.108,1663.193 A1680.000,1680.000 0.000 0,0 325.867,1859.714 Z" style="stroke-width:2.0;stroke:rgb(255,255,255);stroke-linecap:round;fill:none;" />
<path d="M398.900,1635.797 A1642.000,1642.000 40.000 0,1 428.981,1522.439 L392.624,1511.387 A1680.000,1680.000 0.000 0,0 361.847,1627.368 Z" style="stroke-width:2.0;stroke:rgb(255,255,255);stroke-linecap:round;fill:rgb(175,35,42);" />
<text x="308.1" y="1564.0" font-size="36.4px" font-family="CMUBright-Roman" style="text-anchor:end;fill:rgb(0,0,0);" transform="rotate(14.9,308.1,1564.0)" >Teacher-Education</text>
<path d="M398.900,1635.797 A1642.000,1642.000 40.000 0,1 428.981,1522.439 L392.624,1511.387 A1680.000,1680.000 0.000 0,0 361.847,1627.368 Z" style="stroke-width:2.0;stroke:rgb(255,255,255);stroke-linecap:round;fill:none;" />
<path d="M439.773,1488.281 A1642.000,1642.000 40.000 0,1 474.975,1391.343 L439.682,1377.257 A1680.000,1680.000 0.000 0,0 403.666,1476.439 Z" style="stroke-width:2.0;stroke:rgb(255,255,255);stroke-linecap:round;fill:rgb(215,82,72);" />
<text x="352.5" y="1418.2" font-size="36.4px" font-family="CMUBright-Roman" style="text-anchor:end;fill:rgb(0,0,0);" transform="rotate(20.0,352.5,1418.2)" >Special-Education</text>
<path d="M439.773,1488.281 A1642.000,1642.000 40.000 0,1 474.975,1391.343 L439.682,1377.257 A1680.000,1680.000 0.000 0,0 403.666,1476.439 Z" style="stroke-width:2.0;stroke:rgb(255,255,255);stroke-linecap:round;fill:none;" />
<path d="M488.616,1358.220 A1642.000,1642.000 40.000 0,1 509.092,1311.991 L474.588,1296.068 A1680.000,1680.000 0.000 0,0 453.639,1343.368 Z" style="stroke-width:2.0;stroke:rgb(255,255,255);stroke-linecap:round;fill:rgb(230,112,95);" />
<text x="396.3" y="1306.6" font-size="36.4px" font-family="CMUBright-Roman" style="text-anchor:end;fill:rgb(0,0,0);" transform="rotate(23.9,396.3,1306.6)" >Educational-Leadership</text>
<path d="M488.616,1358.220 A1642.000,1642.000 40.000 0,1 509.092,1311.991 L474.588,1296.068 A1680.000,1680.000 0.000 0,0 453.639,1343.368 Z" style="stroke-width:2.0;stroke:rgb(255,255,255);stroke-linecap:round;fill:none;" />
<path d="M524.455,1279.630 A1642.000,1642.000 40.000 0,1 553.988,1222.045 L520.524,1204.041 A1680.000,1680.000 0.000 0,0 490.308,1262.959 Z" style="stroke-width:2.0;stroke:rgb(255,255,255);stroke-linecap:round;fill:rgb(0,130,142);" />
<text x="439.7" y="1213.8" font-size="36.4px" font-family="CMUBright-Roman" style="text-anchor:end;fill:rgb(0,0,0);" transform="rotate(27.2,439.7,1213.8)" >Communication-Studies</text>
<path d="M524.455,1279.630 A1642.000,1642.000 40.000 0,1 553.988,1222.045 L520.524,1204.041 A1680.000,1680.000 0.000 0,0 490.308,1262.959 Z" style="stroke-width:2.0;stroke:rgb(255,255,255);stroke-linecap:round;fill:none;" />
<path d="M571.303,1190.686 A1642.000,1642.000 40.000 0,1 588.562,1160.949 L555.898,1141.531 A1680.000,1680.000 0.000 0,0 538.240,1171.956 Z" style="stroke-width:2.0;stroke:rgb(255,255,255);stroke-linecap:round;fill:rgb(0,165,172);" />
<text x="482.6" y="1133.8" font-size="36.4px" font-family="CMUBright-Roman" style="text-anchor:end;fill:rgb(0,0,0);" transform="rotate(30.1,482.6,1133.8)" >Journalism-Media</text>
<path d="M571.303,1190.686 A1642.000,1642.000 40.000 0,1 588.562,1160.949 L555.898,1141.531 A1680.000,1680.000 0.000 0,0 538.240,1171.956 Z" style="stroke-width:2.0;stroke:rgb(255,255,255);stroke-linecap:round;fill:none;" />
<path d="M607.202,1130.358 A1642.000,1642.000 40.000 0,1 613.667,1120.089 L581.583,1099.725 A1680.000,1680.000 0.000 0,0 574.969,1110.233 Z" style="stroke-width:2.0;stroke:rgb(255,255,255);stroke-linecap:round;fill:rgb(38,195,195);" />
<text x="512.9" y="1082.8" font-size="36.4px" font-family="CMUBright-Roman" style="text-anchor:end;fill:rgb(0,0,0);" transform="rotate(32.2,512.9,1082.8)" >Creative-Writing</text>
<path d="M607.202,1130.358 A1642.000,1642.000 40.000 0,1 613.667,1120.089 L581.583,1099.725 A1680.000,1680.000 0.000 0,0 574.969,1110.233 Z" style="stroke-width:2.0;stroke:rgb(255,255,255);stroke-linecap:round;fill:none;" />
<path d="M633.192,1090.055 A1642.000,1642.000 40.000 0,1 667.742,1040.182 L636.910,1017.969 A1680.000,1680.000 0.000 0,0 601.560,1068.997 Z" style="stroke-width:2.0;stroke:rgb(255,255,255);stroke-linecap:round;fill:rgb(180,45,112);" />
<text x="554.7" y="1018.2" font-size="36.4px" font-family="CMUBright-Roman" style="text-anchor:end;fill:rgb(0,0,0);" transform="rotate(34.7,554.7,1018.2)" >Arts-Theology</text>
<path d="M633.192,1090.055 A1642.000,1642.000 40.000 0,1 667.742,1040.182 L636.910,1017.969 A1680.000,1680.000 0.000 0,0 601.560,1068.997 Z" style="stroke-width:2.0;stroke:rgb(255,255,255);stroke-linecap:round;fill:none;" />
<path d="M688.997,1011.347 A1642.000,1642.000 40.000 0,1 698.803,998.477 L668.690,975.299 A1680.000,1680.000 0.000 0,0 658.657,988.467 Z" style="stroke-width:2.0;stroke:rgb(255,255,255);stroke-linecap:round;fill:rgb(205,75,142);" />
<text x="600.6" y="953.9" font-size="36.4px" font-family="CMUBright-Roman" style="text-anchor:end;fill:rgb(0,0,0);" transform="rotate(37.3,600.6,953.9)" >English-Writing</text>
<path d="M688.997,1011.347 A1642.000,1642.000 40.000 0,1 698.803,998.477 L668.690,975.299 A1680.000,1680.000 0.000 0,0 658.657,988.467 Z" style="stroke-width:2.0;stroke:rgb(255,255,255);stroke-linecap:round;fill:none;" />
<path d="M720.960,970.329 A1642.000,1642.000 40.000 0,1 724.774,965.610 L695.262,941.672 A1680.000,1680.000 0.000 0,0 691.360,946.500 Z" style="stroke-width:2.0;stroke:rgb(255,255,255);stroke-linecap:round;fill:rgb(225,110,168);" />
<text x="631.0" y="914.3" font-size="36.4px" font-family="CMUBright-Roman" style="text-anchor:end;fill:rgb(0,0,0);" transform="rotate(38.9,631.0,914.3)" >Languages</text>
<path d="M720.960,970.329 A1642.000,1642.000 40.000 0,1 724.774,965.610 L695.262,941.672 A1680.000,1680.000 0.000 0,0 691.360,946.500 Z" style="stroke-width:2.0;stroke:rgb(255,255,255);stroke-linecap:round;fill:none;" />
<path d="M747.643,938.037 A1642.000,1642.000 40.000 0,1 884.635,794.959 L858.822,767.071 A1680.000,1680.000 0.000 0,0 718.660,913.461 Z" style="stroke-width:2.0;stroke:rgb(255,255,255);stroke-linecap:round;fill:rgb(88,40,138);" />
<text x="727.0" y="803.3" font-size="36.4px" font-family="CMUBright-Roman" style="text-anchor:end;fill:rgb(0,0,0);" transform="rotate(43.8,727.0,803.3)" >Biological-Sciences</text>
<path d="M747.643,938.037 A1642.000,1642.000 40.000 0,1 884.635,794.959 L858.822,767.071 A1680.000,1680.000 0.000 0,0 718.660,913.461 Z" style="stroke-width:2.0;stroke:rgb(255,255,255);stroke-linecap:round;fill:none;" />
<path d="M911.188,770.914 A1642.000,1642.000 40.000 0,1 969.888,721.316 L946.049,691.724 A1680.000,1680.000 0.000 0,0 885.990,742.470 Z" style="stroke-width:2.0;stroke:rgb(255,255,255);stroke-linecap:round;fill:rgb(115,65,165);" />
<text x="862.8" y="673.5" font-size="36.4px" font-family="CMUBright-Roman" style="text-anchor:end;fill:rgb(0,0,0);" transform="rotate(49.8,862.8,673.5)" >Health-Wellness</text>
<path d="M911.188,770.914 A1642.000,1642.000 40.000 0,1 969.888,721.316 L946.049,691.724 A1680.000,1680.000 0.000 0,0 885.990,742.470 Z" style="stroke-width:2.0;stroke:rgb(255,255,255);stroke-linecap:round;fill:none;" />
<path d="M998.028,699.148 A1642.000,1642.000 40.000 0,1 1023.858,679.655 L1001.267,649.099 A1680.000,1680.000 0.000 0,0 974.840,669.043 Z" style="stroke-width:2.0;stroke:rgb(255,255,255);stroke-linecap:round;fill:rgb(140,92,188);" />
<text x="935.2" y="614.8" font-size="36.4px" font-family="CMUBright-Roman" style="text-anchor:end;fill:rgb(0,0,0);" transform="rotate(53.0,935.2,614.8)" >Physical-Sciences</text>
<path d="M998.028,699.148 A1642.000,1642.000 40.000 0,1 1023.858,679.655 L1001.267,649.099 A1680.000,1680.000 0.000 0,0 974.840,669.043 Z" style="stroke-width:2.0;stroke:rgb(255,255,255);stroke-linecap:round;fill:none;" />
<path d="M1052.893,658.675 A1642.000,1642.000 40.000 0,1 1064.493,650.559 L1042.843,619.329 A1680.000,1680.000 0.000 0,0 1030.975,627.633 Z" style="stroke-width:2.0;stroke:rgb(255,255,255);stroke-linecap:round;fill:rgb(165,120,208);" />
<text x="988.2" y="575.6" font-size="36.4px" font-family="CMUBright-Roman" style="text-anchor:end;fill:rgb(0,0,0);" transform="rotate(55.0,988.2,575.6)" >Environmental-Sciences</text>
<path d="M1052.893,658.675 A1642.000,1642.000 40.000 0,1 1064.493,650.559 L1042.843,619.329 A1680.000,1680.000 0.000 0,0 1030.975,627.633 Z" style="stroke-width:2.0;stroke:rgb(255,255,255);stroke-linecap:round;fill:none;" />
<path d="M1094.154,630.472 A1642.000,1642.000 40.000 0,1 1594.822,408.776 L1585.445,371.951 A1680.000,1680.000 0.000 0,0 1073.190,598.778 Z" style="stroke-width:2.0;stroke:rgb(255,255,255);stroke-linecap:round;fill:rgb(22,118,50);" />
<text x="1278.0" y="409.0" font-size="36.4px" font-family="CMUBright-Roman" style="text-anchor:end;fill:rgb(0,0,0);" transform="rotate(66.1,1278.0,409.0)" >Engineering-Disciplines</text>
<path d="M1094.154,630.472 A1642.000,1642.000 40.000 0,1 1594.822,408.776 L1585.445,371.951 A1680.000,1680.000 0.000 0,0 1073.190,598.778 Z" style="stroke-width:2.0;stroke:rgb(255,255,255);stroke-linecap:round;fill:none;" />
<path d="M1629.631,400.315 A1642.000,1642.000 40.000 0,1 1964.180,358.391 L1963.351,320.400 A1680.000,1680.000 0.000 0,0 1621.060,363.295 Z" style="stroke-width:2.0;stroke:rgb(255,255,255);stroke-linecap:round;fill:rgb(48,158,75);" />
<text x="1767.4" y="268.4" font-size="36.4px" font-family="CMUBright-Roman" style="text-anchor:end;fill:rgb(0,0,0);" transform="rotate(82.9,1767.4,268.4)" >Computer-Science-IT</text>
<path d="M1629.631,400.315 A1642.000,1642.000 40.000 0,1 1964.180,358.391 L1963.351,320.400 A1680.000,1680.000 0.000 0,0 1621.060,363.295 Z" style="stroke-width:2.0;stroke:rgb(255,255,255);stroke-linecap:round;fill:none;" />
</g>
<g id="track_0">
<path d="M 3470.071,2693.830 A 1625.580,1625.580 0.00 0,1 3469.2,2695.6 L 3469.2,2695.6 3405.9,2664.5 3341.9,2631.1 3277.3,2595.3 3212.1,2557.6 3146.2,2517.9 3079.8,2476.5 3012.8,2433.4 2945.2,2389.0 2877.0,2343.2 2808.4,2296.2 2739.4,2248.1 2669.9,2199.1 2600.1,2149.3 2529.9,2098.7 2459.5,2047.6 2388.9,1995.8 2318.2,1943.7 2247.4,1891.1 2176.7,1838.3 2106.0,1785.2 2035.5,1732.0 1965.3,1678.7 1895.5,1625.4 1826.1,1572.0 1757.3,1518.7 1689.2,1465.4 1621.9,1412.3 1555.4,1359.2 1490.0,1306.3 1425.8,1253.5 1362.8,1200.9 1301.2,1148.4 1241.2,1096.0 1182.9,1043.8 1126.4,991.6 1071.9,939.5 1019.6,887.4 969.6,835.3 922.1,783.2  A 1625.580,1625.580 0.00 0,1 923.6,781.9 L 923.6,781.9 971.0,834.1 1021.0,886.2 1073.2,938.3 1127.6,990.4 1184.0,1042.6 1242.3,1094.9 1302.2,1147.3 1363.8,1199.9 1426.7,1252.5 1490.9,1305.3 1556.3,1358.3 1622.7,1411.4 1690.0,1464.6 1758.1,1517.8 1826.8,1571.2 1896.2,1624.5 1966.0,1677.9 2036.2,1731.2 2106.6,1784.4 2177.3,1837.5 2248.0,1890.3 2318.8,1942.8 2389.5,1995.0 2460.1,2046.7 2530.5,2097.8 2600.7,2148.3 2670.5,2198.1 2740.0,2247.1 2809.1,2295.1 2877.7,2342.0 2945.9,2387.8 3013.5,2432.2 3080.5,2475.1 3147.0,2516.5 3212.9,2556.1 3278.1,2593.8 3342.7,2629.4 3406.7,2662.8 3470.1,2693.8  Z" style="stroke-width: 0.0;  fill: rgb(115,65,165);" />
<path d="M 3469.216,2695.640 A 1625.580,1625.580 0.00 0,1 3468.4,2697.4 L 3468.4,2697.4 3403.7,2665.8 3338.4,2631.9 3272.3,2596.0 3205.6,2558.3 3138.2,2519.0 3070.0,2478.2 3001.2,2436.1 2931.7,2392.9 2861.6,2348.6 2790.8,2303.5 2719.5,2257.6 2647.6,2211.1 2575.1,2164.1 2502.2,2116.7 2428.9,2068.9 2355.2,2020.9 2281.2,1972.8 2207.0,1924.6 2132.6,1876.5 2058.0,1828.4 1983.5,1780.4 1909.1,1732.5 1834.8,1684.9 1760.7,1637.4 1687.0,1590.3 1613.8,1543.3 1541.1,1496.7 1469.2,1450.2 1398.0,1404.1 1327.7,1358.2 1258.5,1312.4 1190.5,1266.9 1123.9,1221.5 1058.7,1176.2 995.1,1130.9 933.3,1085.6 873.4,1040.1 815.7,994.5 760.2,948.7  A 1625.580,1625.580 0.00 0,1 761.5,947.1 L 761.5,947.1 816.9,993.1 874.6,1038.7 934.4,1084.2 996.1,1129.6 1059.6,1174.9 1124.8,1220.3 1191.4,1265.7 1259.3,1311.3 1328.5,1357.1 1398.7,1403.0 1469.9,1449.2 1541.8,1495.7 1614.4,1542.4 1687.7,1589.3 1761.3,1636.5 1835.4,1684.0 1909.6,1731.6 1984.1,1779.5 2058.6,1827.5 2133.1,1875.6 2207.5,1923.8 2281.8,1971.9 2355.8,2020.0 2429.5,2068.0 2502.8,2115.7 2575.7,2163.1 2648.2,2210.1 2720.1,2256.6 2791.5,2302.4 2862.3,2347.5 2932.4,2391.7 3001.9,2434.9 3070.8,2476.9 3138.9,2517.6 3206.4,2556.8 3273.2,2594.4 3339.2,2630.2 3404.6,2664.0 3469.2,2695.6  Z" style="stroke-width: 0.0;  fill: rgb(88,40,138);" />
<path d="M 3468.358,2697.450 A 1625.580,1625.580 0.00 0,1 3467.5,2699.3 L 3467.5,2699.3 3402.3,2667.3 3336.5,2633.2 3269.9,2597.2 3202.6,2559.6 3134.6,2520.4 3065.9,2479.9 2996.4,2438.2 2926.2,2395.4 2855.4,2351.8 2783.9,2307.4 2711.7,2262.5 2639.0,2217.0 2565.6,2171.1 2491.8,2125.0 2417.5,2078.7 2342.7,2032.4 2267.6,1986.0 2192.2,1939.6 2116.5,1893.5 2040.7,1847.4 1964.8,1801.7 1888.9,1756.2 1813.0,1710.9 1737.4,1666.1 1662.0,1621.5 1587.0,1577.3 1512.5,1533.4 1438.5,1489.9 1365.3,1446.7 1293.0,1403.7 1221.6,1361.0 1151.2,1318.5 1082.2,1276.2 1014.5,1233.9 948.3,1191.7 883.8,1149.4 821.2,1106.9 760.6,1064.3 702.1,1021.2  A 1625.580,1625.580 0.00 0,1 703.3,1019.6 L 703.3,1019.6 761.7,1062.7 822.3,1105.4 884.9,1147.9 949.3,1190.3 1015.4,1232.6 1083.0,1274.9 1152.0,1317.3 1222.3,1359.9 1293.7,1402.6 1366.0,1445.6 1439.2,1488.9 1513.1,1532.4 1587.6,1576.3 1662.6,1620.6 1737.9,1665.1 1813.6,1710.0 1889.4,1755.3 1965.3,1800.8 2041.2,1846.6 2117.1,1892.6 2192.7,1938.8 2268.1,1985.1 2343.3,2031.5 2418.0,2077.8 2492.4,2124.1 2566.2,2170.2 2639.6,2216.0 2712.3,2261.4 2784.5,2306.3 2856.1,2350.7 2926.9,2394.2 2997.1,2436.9 3066.6,2478.5 3135.4,2519.0 3203.4,2558.1 3270.7,2595.7 3337.3,2631.6 3403.2,2665.5 3468.4,2697.4  Z" style="stroke-width: 0.0;  fill: rgb(205,75,142);" />
<path d="M 3467.498,2699.258 A 1625.580,1625.580 0.00 0,1 3463.2,2708.3 L 3463.2,2708.3 3397.6,2675.7 3331.3,2641.0 3264.3,2604.7 3196.6,2566.7 3128.2,2527.4 3059.0,2486.8 2989.0,2445.2 2918.4,2402.8 2847.0,2359.5 2774.9,2315.7 2702.2,2271.5 2628.8,2226.9 2554.8,2182.0 2480.2,2137.1 2405.1,2092.1 2329.5,2047.2 2253.5,2002.4 2177.1,1957.9 2100.4,1913.6 2023.5,1869.6 1946.4,1826.1 1869.2,1782.9 1792.0,1740.1 1715.0,1697.8 1638.1,1655.9 1561.5,1614.5 1485.3,1573.5 1409.6,1532.9 1334.5,1492.7 1260.2,1452.9 1186.7,1413.3 1114.2,1374.0 1042.9,1334.9 972.8,1295.9 904.2,1256.9 837.1,1217.8 771.7,1178.6 708.3,1139.1 646.9,1099.2  A 1625.580,1625.580 0.00 0,1 652.4,1090.8 L 652.4,1090.8 713.5,1131.1 776.6,1170.9 841.7,1210.4 908.5,1249.8 976.9,1289.1 1046.7,1328.4 1117.8,1367.7 1190.1,1407.3 1263.4,1447.1 1337.6,1487.2 1412.5,1527.6 1488.1,1568.3 1564.2,1609.5 1640.7,1651.1 1717.5,1693.1 1794.6,1735.5 1871.7,1778.4 1948.9,1821.6 2026.0,1865.2 2102.9,1909.2 2179.6,1953.5 2256.1,1998.0 2332.2,2042.7 2407.8,2087.5 2483.0,2132.4 2557.7,2177.2 2631.8,2221.8 2705.3,2266.2 2778.2,2310.3 2850.4,2353.8 2921.8,2396.8 2992.6,2438.9 3062.7,2480.2 3132.0,2520.4 3200.6,2559.4 3268.4,2596.9 3335.5,2632.9 3401.8,2667.1 3467.5,2699.3  Z" style="stroke-width: 0.0;  fill: rgb(180,45,112);" />
<path d="M 3463.163,2708.282 A 1625.580,1625.580 0.00 0,1 3462.3,2710.1 L 3462.3,2710.1 3396.1,2677.1 3329.2,2642.3 3261.5,2605.8 3193.1,2568.0 3124.0,2528.8 3054.1,2488.7 2983.4,2447.7 2912.0,2405.9 2839.9,2363.6 2767.0,2320.9 2693.4,2277.9 2619.2,2234.7 2544.2,2191.5 2468.7,2148.3 2392.6,2105.3 2315.9,2062.6 2238.8,2020.2 2161.2,1978.1 2083.3,1936.5 2005.0,1895.4 1926.5,1854.9 1847.9,1814.8 1769.2,1775.4 1690.5,1736.5 1611.9,1698.2 1533.5,1660.5 1455.4,1623.3 1377.8,1586.6 1300.6,1550.5 1224.1,1514.7 1148.3,1479.3 1073.4,1444.2 999.5,1409.3 926.8,1374.5 855.3,1339.8 785.4,1305.0 717.0,1269.9 650.3,1234.6 585.6,1198.8  A 1625.580,1625.580 0.00 0,1 586.6,1197.0 L 586.6,1197.0 651.2,1232.9 717.8,1268.3 786.2,1303.4 856.1,1338.3 927.5,1373.1 1000.2,1407.9 1074.0,1442.9 1148.9,1478.0 1224.6,1513.5 1301.1,1549.3 1378.3,1585.5 1455.9,1622.3 1534.0,1659.5 1612.4,1697.2 1691.0,1735.6 1769.7,1774.5 1848.4,1813.9 1927.0,1854.0 2005.5,1894.6 2083.7,1935.7 2161.7,1977.3 2239.3,2019.3 2316.4,2061.7 2393.1,2104.4 2469.2,2147.4 2544.8,2190.5 2619.8,2233.7 2694.0,2276.8 2767.7,2319.8 2840.6,2362.4 2912.7,2404.7 2984.2,2446.4 3054.8,2487.4 3124.8,2527.5 3193.9,2566.5 3262.3,2604.3 3330.0,2640.7 3396.9,2675.4 3463.2,2708.3  Z" style="stroke-width: 0.0;  fill: rgb(0,165,172);" />
<path d="M 3462.290,2710.084 A 1625.580,1625.580 0.00 0,1 3451.6,2731.6 L 3451.6,2731.6 3385.3,2699.0 3317.0,2666.9 3247.0,2635.3 3175.4,2603.9 3102.4,2572.7 3028.0,2541.5 2952.6,2510.3 2876.0,2478.9 2798.6,2447.3 2720.4,2415.3 2641.6,2382.9 2562.2,2350.1 2482.4,2316.8 2402.2,2283.0 2321.8,2248.6 2241.3,2213.7 2160.7,2178.1 2080.2,2142.0 1999.8,2105.4 1919.7,2068.2 1839.7,2030.5 1760.2,1992.4 1681.0,1953.8 1602.3,1915.0 1524.1,1875.8 1446.5,1836.5 1369.6,1797.1 1293.2,1757.7 1217.6,1718.4 1142.7,1679.4 1068.5,1640.7 995.1,1602.6 922.5,1565.2 850.7,1528.6 779.7,1493.0 709.5,1458.6 640.1,1425.6 571.5,1394.2 503.7,1364.6  A 1625.580,1625.580 0.00 0,1 513.3,1342.6 L 513.3,1342.6 580.9,1373.3 649.3,1405.7 718.4,1439.7 788.4,1475.1 859.1,1511.5 930.7,1549.0 1003.0,1587.2 1076.2,1626.0 1150.0,1665.4 1224.7,1705.0 1300.0,1744.8 1376.1,1784.7 1452.8,1824.5 1530.2,1864.2 1608.1,1903.6 1686.6,1942.7 1765.6,1981.4 1845.0,2019.6 1924.8,2057.3 2004.8,2094.5 2085.2,2131.0 2165.6,2166.9 2246.2,2202.2 2326.7,2236.8 2407.2,2270.9 2487.4,2304.3 2567.4,2337.1 2647.0,2369.4 2726.1,2401.2 2804.5,2432.6 2882.3,2463.6 2959.2,2494.3 3035.1,2524.8 3109.9,2555.2 3183.4,2585.7 3255.6,2616.2 3326.2,2647.1 3395.2,2678.3 3462.3,2710.1  Z" style="stroke-width: 0.0;  fill: rgb(230,112,95);" />
<path d="M 3451.635,2731.620 A 1625.580,1625.580 0.00 0,1 3403.9,2819.6 L 3403.9,2819.6 3340.8,2783.8 3275.7,2748.6 3208.5,2713.9 3139.6,2679.5 3068.9,2645.5 2996.8,2611.6 2923.2,2577.8 2848.4,2544.0 2772.4,2510.1 2695.4,2476.2 2617.6,2442.1 2539.0,2407.7 2459.7,2373.2 2380.0,2338.4 2299.7,2303.3 2219.2,2267.9 2138.4,2232.3 2057.5,2196.3 1976.6,2160.2 1895.7,2123.8 1814.9,2087.2 1734.4,2050.5 1654.1,2013.7 1574.2,1977.0 1494.7,1940.2 1415.8,1903.6 1337.3,1867.2 1259.5,1831.2 1182.3,1795.6 1105.8,1760.5 1030.1,1726.2 955.2,1692.6 881.1,1660.0 807.9,1628.5 735.5,1598.2 664.1,1569.4 593.5,1542.2 524.0,1516.8 455.4,1493.4  A 1625.580,1625.580 0.00 0,1 489.5,1399.3 L 489.5,1399.3 557.7,1427.2 626.8,1457.0 696.7,1488.4 767.4,1521.2 839.0,1555.3 911.4,1590.4 984.7,1626.4 1058.7,1663.1 1133.5,1700.3 1209.1,1738.0 1285.4,1776.0 1362.3,1814.1 1440.0,1852.3 1518.2,1890.5 1597.0,1928.5 1676.3,1966.3 1756.0,2003.8 1836.1,2041.0 1916.6,2077.7 1997.2,2114.0 2078.1,2149.8 2159.0,2185.1 2240.0,2219.9 2320.9,2254.1 2401.6,2287.8 2482.1,2321.0 2562.1,2353.8 2641.8,2386.1 2720.8,2417.9 2799.1,2449.5 2876.6,2480.7 2953.2,2511.8 3028.7,2542.7 3103.0,2573.6 3176.0,2604.6 3247.5,2635.7 3317.4,2667.2 3385.5,2699.1 3451.6,2731.6  Z" style="stroke-width: 0.0;  fill: rgb(215,82,72);" />
<path d="M 3403.853,2819.578 A 1625.580,1625.580 0.00 0,1 3347.4,2909.4 L 3347.4,2909.4 3288.1,2870.6 3226.4,2832.4 3162.6,2794.7 3096.7,2757.5 3028.9,2720.7 2959.3,2684.2 2888.0,2648.0 2815.3,2611.9 2741.3,2576.0 2666.0,2540.3 2589.5,2504.6 2512.1,2469.0 2433.9,2433.4 2354.9,2397.9 2275.3,2362.3 2195.1,2326.9 2114.6,2291.4 2033.7,2256.0 1952.6,2220.8 1871.4,2185.6 1790.2,2150.6 1709.1,2115.8 1628.1,2081.3 1547.4,2047.1 1467.0,2013.3 1387.1,1980.0 1307.6,1947.3 1228.6,1915.2 1150.3,1883.9 1072.7,1853.5 995.9,1824.0 919.9,1795.6 844.7,1768.4 770.5,1742.7 697.2,1718.4 625.0,1695.8 553.9,1674.9 483.8,1656.1 414.9,1639.4  A 1625.580,1625.580 0.00 0,1 441.8,1536.8 L 441.8,1536.8 510.8,1558.2 580.7,1581.7 651.7,1606.9 723.6,1633.8 796.5,1662.2 870.3,1691.8 945.0,1722.6 1020.6,1754.4 1096.9,1787.1 1174.0,1820.4 1251.8,1854.4 1330.3,1888.9 1409.4,1923.7 1489.0,1958.8 1569.1,1994.1 1649.6,2029.6 1730.4,2065.0 1811.5,2100.5 1892.8,2135.8 1974.2,2171.1 2055.6,2206.2 2137.0,2241.1 2218.2,2275.8 2299.1,2310.3 2379.6,2344.5 2459.7,2378.6 2539.2,2412.4 2618.0,2446.1 2696.0,2479.6 2773.1,2513.0 2849.2,2546.3 2924.0,2579.7 2997.6,2613.1 3069.7,2646.6 3140.3,2680.4 3209.1,2714.5 3276.1,2748.9 3341.1,2783.9 3403.9,2819.6  Z" style="stroke-width: 0.0;  fill: rgb(175,35,42);" />
<path d="M 3347.396,2909.414 A 1625.580,1625.580 0.00 0,1 3335.0,2927.6 L 3335.0,2927.6 3277.4,2888.9 3217.3,2851.0 3154.9,2813.8 3090.3,2777.3 3023.6,2741.3 2954.9,2705.9 2884.4,2671.0 2812.3,2636.6 2738.6,2602.6 2663.5,2569.0 2587.2,2535.7 2509.6,2502.9 2431.1,2470.4 2351.6,2438.3 2271.3,2406.5 2190.4,2375.1 2108.9,2344.1 2026.9,2313.5 1944.6,2283.3 1862.1,2253.6 1779.5,2224.4 1696.8,2195.8 1614.3,2167.8 1531.9,2140.4 1449.8,2113.7 1368.0,2087.8 1286.8,2062.8 1206.1,2038.7 1126.1,2015.7 1046.8,1993.7 968.3,1973.0 890.8,1953.6 814.2,1935.6 738.8,1919.1 664.4,1904.3 591.3,1891.3 519.5,1880.2 449.1,1871.1 380.1,1864.3  A 1625.580,1625.580 0.00 0,1 382.1,1842.3 L 382.1,1842.3 451.3,1850.1 521.8,1860.1 593.8,1872.1 667.0,1886.0 741.4,1901.7 816.9,1919.0 893.6,1937.7 971.2,1957.9 1049.7,1979.3 1129.0,2001.9 1209.1,2025.5 1289.8,2050.1 1371.1,2075.6 1452.9,2101.9 1535.1,2128.9 1617.6,2156.6 1700.3,2184.9 1783.1,2213.7 1865.9,2243.0 1948.5,2272.7 2031.0,2302.9 2113.2,2333.5 2194.9,2364.3 2276.1,2395.6 2356.7,2427.1 2436.5,2459.0 2515.4,2491.1 2593.3,2523.6 2670.1,2556.4 2745.6,2589.6 2819.8,2623.1 2892.4,2657.0 2963.4,2691.4 3032.7,2726.2 3100.0,2761.6 3165.3,2797.5 3228.3,2834.1 3289.1,2871.4 3347.4,2909.4  Z" style="stroke-width: 0.0;  fill: rgb(195,58,55);" />
<path d="M 3334.951,2927.586 A 1625.580,1625.580 0.00 0,1 3333.8,2929.2 L 3333.8,2929.2 3276.6,2890.7 3216.8,2852.9 3154.6,2816.0 3090.2,2779.6 3023.6,2744.0 2955.1,2708.9 2884.8,2674.4 2812.8,2640.4 2739.2,2606.9 2664.1,2573.9 2587.8,2541.3 2510.2,2509.1 2431.6,2477.4 2352.1,2446.1 2271.7,2415.3 2190.6,2384.9 2109.0,2354.9 2026.9,2325.5 1944.4,2296.5 1861.7,2268.1 1778.8,2240.3 1695.9,2213.1 1613.1,2186.5 1530.5,2160.7 1448.1,2135.7 1366.1,2111.5 1284.6,2088.2 1203.7,2065.9 1123.4,2044.7 1043.9,2024.7 965.3,2005.9 887.5,1988.4 810.8,1972.5 735.2,1958.0 660.8,1945.3 587.7,1934.4 515.9,1925.3 445.6,1918.4 376.7,1913.6  A 1625.580,1625.580 0.00 0,1 376.8,1911.6 L 376.8,1911.6 445.7,1916.5 516.1,1923.5 587.9,1932.6 661.0,1943.6 735.4,1956.4 811.0,1970.9 887.7,1987.0 965.5,2004.5 1044.1,2023.3 1123.6,2043.4 1203.9,2064.7 1284.9,2087.0 1366.4,2110.3 1448.4,2134.6 1530.7,2159.7 1613.4,2185.5 1696.2,2212.1 1779.1,2239.3 1862.0,2267.1 1944.7,2295.6 2027.2,2324.5 2109.4,2354.0 2191.1,2383.9 2272.1,2414.3 2352.5,2445.1 2432.1,2476.4 2510.8,2508.1 2588.3,2540.2 2664.7,2572.7 2739.8,2605.7 2813.5,2639.2 2885.5,2673.1 2955.9,2707.6 3024.5,2742.6 3091.1,2778.2 3155.5,2814.5 3217.8,2851.4 3277.6,2889.1 3335.0,2927.6  Z" style="stroke-width: 0.0;  fill: rgb(235,168,78);" />
<path d="M 3333.808,2929.229 A 1625.580,1625.580 0.00 0,1 3332.7,2930.9 L 3332.7,2930.9 3275.9,2892.6 3216.5,2855.1 3154.7,2818.5 3090.6,2782.6 3024.4,2747.5 2956.2,2713.0 2886.0,2679.2 2814.2,2646.0 2740.7,2613.4 2665.7,2581.3 2589.4,2549.8 2511.9,2518.9 2433.2,2488.5 2353.6,2458.7 2273.1,2429.4 2191.9,2400.7 2110.1,2372.5 2027.7,2345.0 1945.0,2318.1 1862.0,2291.8 1778.9,2266.3 1695.7,2241.4 1612.6,2217.4 1529.6,2194.2 1446.9,2171.9 1364.6,2150.5 1282.8,2130.1 1201.6,2110.8 1121.1,2092.7 1041.3,2075.8 962.4,2060.2 884.5,2046.1 807.7,2033.4 732.1,2022.4 657.7,2013.0 584.6,2005.5 513.0,2000.0 442.9,1996.4 374.4,1995.1  A 1625.580,1625.580 0.00 0,1 374.4,1993.1 L 374.4,1993.1 443.0,1994.5 513.1,1998.1 584.7,2003.8 657.8,2011.4 732.2,2020.8 807.8,2031.9 884.7,2044.6 962.6,2058.8 1041.5,2074.5 1121.2,2091.4 1201.8,2109.6 1283.0,2128.9 1364.8,2149.3 1447.1,2170.8 1529.8,2193.1 1612.8,2216.4 1696.0,2240.4 1779.2,2265.3 1862.3,2290.8 1945.3,2317.1 2028.1,2344.0 2110.4,2371.6 2192.3,2399.7 2273.6,2428.4 2354.1,2457.7 2433.7,2487.5 2512.4,2517.8 2590.0,2548.7 2666.3,2580.2 2741.3,2612.2 2814.9,2644.8 2886.8,2677.9 2956.9,2711.7 3025.2,2746.1 3091.5,2781.2 3155.7,2817.0 3217.5,2853.6 3276.9,2891.0 3333.8,2929.2  Z" style="stroke-width: 0.0;  fill: rgb(220,140,52);" />
<path d="M 3332.662,2930.872 A 1625.580,1625.580 0.00 0,1 3325.7,2940.7 L 3325.7,2940.7 3271.0,2903.4 3213.7,2867.2 3153.8,2832.1 3091.5,2798.1 3027.0,2765.2 2960.3,2733.3 2891.7,2702.5 2821.1,2672.7 2748.9,2644.0 2675.1,2616.3 2599.7,2589.7 2523.1,2564.2 2445.2,2539.8 2366.3,2516.4 2286.4,2494.2 2205.7,2473.1 2124.4,2453.1 2042.4,2434.2 1960.1,2416.6 1877.4,2400.1 1794.5,2384.9 1711.6,2370.9 1628.8,2358.2 1546.2,2346.8 1463.9,2336.8 1382.0,2328.1 1300.7,2320.9 1220.1,2315.1 1140.4,2310.8 1061.6,2308.1 983.9,2307.0 907.3,2307.5 832.1,2309.7 758.3,2313.6 686.0,2319.3 615.5,2326.9 546.7,2336.4 479.9,2347.8 415.1,2361.3  A 1625.580,1625.580 0.00 0,1 412.5,2349.6 L 412.5,2349.6 477.5,2336.6 544.6,2325.5 613.5,2316.5 684.3,2309.3 756.7,2304.0 830.7,2300.5 906.2,2298.7 982.9,2298.6 1060.8,2300.1 1139.8,2303.2 1219.7,2307.7 1300.5,2313.8 1381.9,2321.3 1464.0,2330.2 1546.5,2340.4 1629.3,2352.0 1712.3,2364.8 1795.4,2378.9 1878.4,2394.2 1961.3,2410.7 2043.9,2428.4 2126.1,2447.2 2207.7,2467.1 2288.6,2488.2 2368.7,2510.3 2447.9,2533.5 2526.0,2557.8 2603.0,2583.1 2678.6,2609.5 2752.7,2636.9 2825.3,2665.3 2896.1,2694.8 2965.1,2725.4 3032.1,2756.9 3097.0,2789.6 3159.6,2823.3 3219.8,2858.0 3277.6,2893.9 3332.7,2930.9  Z" style="stroke-width: 0.0;  fill: rgb(200,108,30);" />
<path d="M 3325.746,2940.695 A 1625.580,1625.580 0.00 0,1 3324.6,2942.3 L 3324.6,2942.3 3271.0,2905.8 3214.7,2870.5 3155.9,2836.4 3094.7,2803.6 3031.3,2772.1 2965.7,2741.9 2898.1,2713.0 2828.7,2685.4 2757.5,2659.1 2684.7,2634.2 2610.5,2610.6 2535.0,2588.4 2458.2,2567.7 2380.4,2548.3 2301.6,2530.4 2222.1,2513.9 2141.9,2498.8 2061.2,2485.3 1980.0,2473.2 1898.6,2462.7 1817.1,2453.6 1735.6,2446.2 1654.2,2440.3 1573.1,2435.9 1492.4,2433.2 1412.2,2432.1 1332.7,2432.6 1254.0,2434.8 1176.2,2438.6 1099.5,2444.2 1024.0,2451.4 949.8,2460.4 877.1,2471.1 805.9,2483.6 736.5,2497.9 669.0,2514.0 603.5,2532.0 540.1,2551.8 478.9,2573.4  A 1625.580,1625.580 0.00 0,1 478.2,2571.6 L 478.2,2571.6 539.4,2550.0 602.9,2530.2 668.4,2512.4 736.0,2496.3 805.5,2482.1 876.6,2469.6 949.4,2459.0 1023.6,2450.0 1099.2,2442.9 1175.9,2437.4 1253.7,2433.6 1332.5,2431.4 1412.0,2431.0 1492.3,2432.1 1573.0,2434.9 1654.2,2439.2 1735.6,2445.2 1817.2,2452.7 1898.7,2461.7 1980.2,2472.2 2061.4,2484.3 2142.1,2497.9 2222.4,2512.9 2302.0,2529.4 2380.8,2547.3 2458.6,2566.6 2535.4,2587.4 2611.0,2609.5 2685.3,2633.0 2758.1,2657.9 2829.4,2684.1 2898.9,2711.7 2966.5,2740.6 3032.1,2770.7 3095.6,2802.2 3156.9,2834.9 3215.8,2869.0 3272.1,2904.2 3325.7,2940.7  Z" style="stroke-width: 0.0;  fill: rgb(82,145,215);" />
<path d="M 3324.586,2942.327 A 1625.580,1625.580 0.00 0,1 3321.1,2947.2 L 3321.1,2947.2 3273.5,2914.6 3224.1,2883.7 3173.0,2854.6 3120.3,2827.6 3066.3,2802.6 3011.1,2780.0 2954.8,2759.8 2897.8,2742.1 2840.1,2727.0 2781.8,2714.7 2723.2,2705.1 2664.3,2698.4 2605.4,2694.7 2546.5,2693.9 2487.9,2696.0 2429.6,2701.2 2371.8,2709.4 2314.6,2720.7 2258.2,2734.9 2202.6,2752.2 2147.9,2772.3 2094.4,2795.4 2042.1,2821.3 1991.1,2850.0 1941.5,2881.3 1893.4,2915.3 1846.9,2951.7 1802.1,2990.5 1759.2,3031.5 1718.1,3074.6 1679.0,3119.7 1641.9,3166.5 1607.0,3215.0 1574.3,3264.9 1543.8,3316.0 1515.7,3368.1 1489.9,3421.0 1466.6,3474.4 1445.8,3528.2  A 1625.580,1625.580 0.00 0,1 1440.2,3526.1 L 1440.2,3526.1 1461.2,3472.4 1484.7,3419.0 1510.7,3366.1 1539.1,3314.0 1569.8,3263.0 1602.8,3213.1 1638.0,3164.7 1675.3,3117.9 1714.7,3072.8 1756.0,3029.7 1799.2,2988.7 1844.3,2949.9 1891.0,2913.5 1939.4,2879.5 1989.2,2848.1 2040.5,2819.4 2093.1,2793.5 2146.9,2770.4 2201.8,2750.1 2257.6,2732.8 2314.4,2718.5 2371.8,2707.1 2429.9,2698.8 2488.4,2693.5 2547.3,2691.2 2606.3,2691.9 2665.5,2695.5 2724.6,2702.0 2783.4,2711.4 2841.9,2723.6 2899.8,2738.5 2957.1,2756.0 3013.5,2776.1 3068.9,2798.6 3123.1,2823.3 3175.9,2850.2 3227.3,2879.1 3276.9,2909.9 3324.6,2942.3  Z" style="stroke-width: 0.0;  fill: rgb(42,98,180);" />
<path d="M 3321.095,2947.216 A 1625.580,1625.580 0.00 0,1 3319.9,2948.8 L 3319.9,2948.8 3274.7,2917.4 3228.3,2887.5 3181.0,2859.3 3133.1,2833.0 3084.7,2808.8 3036.0,2786.8 2987.3,2767.3 2938.8,2750.4 2890.5,2736.2 2842.8,2724.8 2795.7,2716.3 2749.4,2710.9 2704.2,2708.5 2660.0,2709.3 2617.1,2713.3 2575.5,2720.6 2535.4,2731.0 2496.9,2744.7 2460.1,2761.6 2425.1,2781.7 2391.9,2805.0 2360.6,2831.3 2331.4,2860.6 2304.1,2892.8 2279.0,2927.9 2256.0,2965.6 2235.2,3005.8 2216.5,3048.5 2200.0,3093.4 2185.7,3140.4 2173.7,3189.2 2163.8,3239.7 2156.0,3291.6 2150.4,3344.6 2146.8,3398.6 2145.3,3453.3 2145.8,3508.4 2148.2,3563.5 2152.5,3618.4  A 1625.580,1625.580 0.00 0,1 2150.5,3618.6 L 2150.5,3618.6 2146.3,3563.7 2144.0,3508.5 2143.6,3453.5 2145.1,3398.8 2148.8,3344.7 2154.5,3291.6 2162.3,3239.7 2172.3,3189.2 2184.5,3140.4 2198.9,3093.4 2215.4,3048.4 2234.2,3005.7 2255.1,2965.4 2278.2,2927.7 2303.5,2892.6 2330.8,2860.3 2360.1,2831.0 2391.5,2804.6 2424.8,2781.3 2459.9,2761.2 2496.8,2744.2 2535.4,2730.5 2575.6,2719.9 2617.2,2712.6 2660.2,2708.6 2704.5,2707.7 2749.8,2710.0 2796.2,2715.4 2843.3,2723.8 2891.1,2735.1 2939.5,2749.2 2988.1,2766.1 3036.9,2785.5 3085.6,2807.4 3134.0,2831.6 3182.1,2857.8 3229.4,2886.0 3275.8,2915.9 3321.1,2947.2  Z" style="stroke-width: 0.0;  fill: rgb(15,52,135);" />
</g>
<defs>
<pattern id="checker" width="10" height="10" patternTransform="rotate(45 0 0)" patternUnits="userSpaceOnUse"><line x1="0" y1="0" x2="10" y2="0" style="stroke:black;stroke-width:5" /><line x1="0" y1="0" x2="0" y2="10" style="stroke:black;stroke-width:4" /></pattern>
<pattern id="checker" width="10" height="10" patternTransform="rotate(45 0 0)" patternUnits="userSpaceOnUse"><line x1="0" y1="0" x2="10" y2="0" style="stroke:black;stroke-width:2" /><line x1="0" y1="0" x2="0" y2="10" style="stroke:black;stroke-width:2" /></pattern>
<pattern id="hline" width="10" height="10" patternTransform="rotate(0 0 0)" patternUnits="userSpaceOnUse"><line x1="0" y1="0" x2="10" y2="0" style="stroke:black;stroke-width:5" /></pattern>
<pattern id="vline-sparse" width="10" height="10" patternTransform="rotate(0 0 0)" patternUnits="userSpaceOnUse"><line x1="0" y1="0" x2="0" y2="10" style="stroke:black;stroke-width:2" /></pattern>
<pattern id="hline-sparse" width="10" height="10" patternTransform="rotate(0 0 0)" patternUnits="userSpaceOnUse"><line x1="0" y1="0" x2="10" y2="0" style="stroke:black;stroke-width:2" /></pattern>
<pattern id="vline" width="10" height="10" patternTransform="rotate(0 0 0)" patternUnits="userSpaceOnUse"><line x1="0" y1="0" x2="0" y2="10" style="stroke:black;stroke-width:5" /></pattern>
</defs>
</svg>
