<?xml version="1.0" encoding="utf-8" standalone="no"?>
<!DOCTYPE svg PUBLIC "-//W3C//DTD SVG 1.1//EN" "http://www.w3.org/Graphics/SVG/1.1/DTD/svg11.dtd">
<svg width="4000px" height="4000px" version="1.1" xmlns="http://www.w3.org/2000/svg" xmlns:xlink="http://www.w3.org/1999/xlink">
<g id="bg">
<rect x="0" y="0" width="4000px" height="4000px" style="fill:rgb(255,255,255);"/>
</g>
<g id="ideograms">
<path d="M2000.000,358.000 A1642.000,1642.000 40.000 0,1 2727.139,527.779 L2743.967,493.709 A1680.000,1680.000 0.000 0,0 2000.000,320.000 Z" style="stroke-width:2.0;stroke:rgb(255,255,255);stroke-linecap:round;fill:rgb(185,185,185);" />
<text x="2412.3" y="302.2" font-size="36.4px" font-family="CMUBright-Roman" style="text-anchor:start;fill:rgb(0,0,0);" transform="rotate(283.1,2412.3,302.2)" >Engineering</text>
<path d="M2000.000,358.000 A1642.000,1642.000 40.000 0,1 2727.139,527.779 L2743.967,493.709 A1680.000,1680.000 0.000 0,0 2000.000,320.000 Z" style="stroke-width:2.0;stroke:rgb(255,255,255);stroke-linecap:round;fill:none;" />
<path d="M2759.082,543.992 A1642.000,1642.000 40.000 0,1 3284.099,976.646 L3313.816,952.963 A1680.000,1680.000 0.000 0,0 2776.649,510.297 Z" style="stroke-width:2.0;stroke:rgb(255,255,255);stroke-linecap:round;fill:rgb(185,185,185);" />
<text x="3120.8" y="659.6" font-size="36.4px" font-family="CMUBright-Roman" style="text-anchor:start;fill:rgb(0,0,0);" transform="rotate(309.5,3120.8,659.6)" >Finance-Investment</text>
<path d="M2759.082,543.992 A1642.000,1642.000 40.000 0,1 3284.099,976.646 L3313.816,952.963 A1680.000,1680.000 0.000 0,0 2776.649,510.297 Z" style="stroke-width:2.0;stroke:rgb(255,255,255);stroke-linecap:round;fill:none;" />
<path d="M3306.118,1004.902 A1642.000,1642.000 40.000 0,1 3557.132,1478.938 L3593.167,1466.879 A1680.000,1680.000 0.000 0,0 3336.345,981.873 Z" style="stroke-width:2.0;stroke:rgb(255,255,255);stroke-linecap:round;fill:rgb(185,185,185);" />
<text x="3551.5" y="1196.5" font-size="36.4px" font-family="CMUBright-Roman" style="text-anchor:start;fill:rgb(0,0,0);" transform="rotate(332.1,3551.5,1196.5)" >Management-Operations</text>
<path d="M3306.118,1004.902 A1642.000,1642.000 40.000 0,1 3557.132,1478.938 L3593.167,1466.879 A1680.000,1680.000 0.000 0,0 3336.345,981.873 Z" style="stroke-width:2.0;stroke:rgb(255,255,255);stroke-linecap:round;fill:none;" />
<path d="M3568.128,1513.031 A1642.000,1642.000 40.000 0,1 3640.479,1929.339 L3678.444,1927.703 A1680.000,1680.000 0.000 0,0 3604.418,1501.761 Z" style="stroke-width:2.0;stroke:rgb(255,255,255);stroke-linecap:round;fill:rgb(185,185,185);" />
<text x="3723.5" y="1713.2" font-size="36.4px" font-family="CMUBright-Roman" style="text-anchor:start;fill:rgb(0,0,0);" transform="rotate(350.1,3723.5,1713.2)" >Software-Data</text>
<path d="M3568.128,1513.031 A1642.000,1642.000 40.000 0,1 3640.479,1929.339 L3678.444,1927.703 A1680.000,1680.000 0.000 0,0 3604.418,1501.761 Z" style="stroke-width:2.0;stroke:rgb(255,255,255);stroke-linecap:round;fill:none;" />
<path d="M3641.630,1965.142 A1642.000,1642.000 40.000 0,1 3597.388,2380.151 L3634.356,2388.948 A1680.000,1680.000 0.000 0,0 3679.621,1964.336 Z" style="stroke-width:2.0;stroke:rgb(255,255,255);stroke-linecap:round;fill:rgb(185,185,185);" />
<text x="3735.6" y="2201.1" font-size="36.4px" font-family="CMUBright-Roman" style="text-anchor:start;fill:rgb(0,0,0);" transform="rotate(6.1,3735.6,2201.1)" >Sales-Marketing</text>
<path d="M3641.630,1965.142 A1642.000,1642.000 40.000 0,1 3597.388,2380.151 L3634.356,2388.948 A1680.000,1680.000 0.000 0,0 3679.621,1964.336 Z" style="stroke-width:2.0;stroke:rgb(255,255,255);stroke-linecap:round;fill:none;" />
<path d="M3588.715,2414.907 A1642.000,1642.000 40.000 0,1 3447.858,2774.513 L3481.365,2792.437 A1680.000,1680.000 0.000 0,0 3625.482,2424.509 Z" style="stroke-width:2.0;stroke:rgb(255,255,255);stroke-linecap:round;fill:rgb(185,185,185);" />
<text x="3620.9" y="2652.1" font-size="36.4px" font-family="CMUBright-Roman" style="text-anchor:start;fill:rgb(0,0,0);" transform="rotate(21.4,3620.9,2652.1)" >Accounting-Audit</text>
<path d="M3588.715,2414.907 A1642.000,1642.000 40.000 0,1 3447.858,2774.513 L3481.365,2792.437 A1680.000,1680.000 0.000 0,0 3625.482,2424.509 Z" style="stroke-width:2.0;stroke:rgb(255,255,255);stroke-linecap:round;fill:none;" />
<path d="M3430.618,2805.914 A1642.000,1642.000 40.000 0,1 3261.549,3051.027 L3290.745,3075.350 A1680.000,1680.000 0.000 0,0 3463.726,2824.565 Z" style="stroke-width:2.0;stroke:rgb(255,255,255);stroke-linecap:round;fill:rgb(185,185,185);" />
<text x="3429.4" y="3004.8" font-size="36.4px" font-family="CMUBright-Roman" style="text-anchor:start;fill:rgb(0,0,0);" transform="rotate(34.6,3429.4,3004.8)" >Leadership-General</text>
<path d="M3430.618,2805.914 A1642.000,1642.000 40.000 0,1 3261.549,3051.027 L3290.745,3075.350 A1680.000,1680.000 0.000 0,0 3463.726,2824.565 Z" style="stroke-width:2.0;stroke:rgb(255,255,255);stroke-linecap:round;fill:none;" />
<path d="M3238.321,3078.297 A1642.000,1642.000 40.000 0,1 3039.505,3271.060 L3063.562,3300.476 A1680.000,1680.000 0.000 0,0 3266.979,3103.252 Z" style="stroke-width:2.0;stroke:rgb(255,255,255);stroke-linecap:round;fill:rgb(185,185,185);" />
<text x="3207.2" y="3263.1" font-size="36.4px" font-family="CMUBright-Roman" style="text-anchor:start;fill:rgb(0,0,0);" transform="rotate(45.9,3207.2,3263.1)" >Clinical-Care</text>
<path d="M3238.321,3078.297 A1642.000,1642.000 40.000 0,1 3039.505,3271.060 L3063.562,3300.476 A1680.000,1680.000 0.000 0,0 3266.979,3103.252 Z" style="stroke-width:2.0;stroke:rgb(255,255,255);stroke-linecap:round;fill:none;" />
<path d="M3011.529,3293.434 A1642.000,1642.000 40.000 0,1 2784.385,3442.534 L2802.537,3475.918 A1680.000,1680.000 0.000 0,0 3034.939,3323.368 Z" style="stroke-width:2.0;stroke:rgb(255,255,255);stroke-linecap:round;fill:rgb(185,185,185);" />
<text x="2948.3" y="3467.5" font-size="36.4px" font-family="CMUBright-Roman" style="text-anchor:start;fill:rgb(0,0,0);" transform="rotate(56.7,2948.3,3467.5)" >Research-Science</text>
<path d="M3011.529,3293.434 A1642.000,1642.000 40.000 0,1 2784.385,3442.534 L2802.537,3475.918 A1680.000,1680.000 0.000 0,0 3034.939,3323.368 Z" style="stroke-width:2.0;stroke:rgb(255,255,255);stroke-linecap:round;fill:none;" />
<path d="M2752.729,3459.302 A1642.000,1642.000 40.000 0,1 2556.245,3544.913 L2569.118,3580.666 A1680.000,1680.000 0.000 0,0 2770.149,3493.074 Z" style="stroke-width:2.0;stroke:rgb(255,255,255);stroke-linecap:round;fill:rgb(185,185,185);" />
<text x="2686.4" y="3606.7" font-size="36.4px" font-family="CMUBright-Roman" style="text-anchor:start;fill:rgb(0,0,0);" transform="rotate(66.5,2686.4,3606.7)" >Education</text>
<path d="M2752.729,3459.302 A1642.000,1642.000 40.000 0,1 2556.245,3544.913 L2569.118,3580.666 A1680.000,1680.000 0.000 0,0 2770.149,3493.074 Z" style="stroke-width:2.0;stroke:rgb(255,255,255);stroke-linecap:round;fill:none;" />
<path d="M2522.411,3556.679 A1642.000,1642.000 40.000 0,1 2417.174,3588.121 L2426.829,3624.875 A1680.000,1680.000 0.000 0,0 2534.501,3592.705 Z" style="stroke-width:2.0;stroke:rgb(255,255,255);stroke-linecap:round;fill:rgb(185,185,185);" />
<text x="2488.2" y="3677.6" font-size="36.4px" font-family="CMUBright-Roman" style="text-anchor:start;fill:rgb(0,0,0);" transform="rotate(73.4,2488.2,3677.6)" >IT-Infrastructure</text>
<path d="M2522.411,3556.679 A1642.000,1642.000 40.000 0,1 2417.174,3588.121 L2426.829,3624.875 A1680.000,1680.000 0.000 0,0 2534.501,3592.705 Z" style="stroke-width:2.0;stroke:rgb(255,255,255);stroke-linecap:round;fill:none;" />
<path d="M2382.430,3596.844 A1642.000,1642.000 40.000 0,1 2321.118,3610.294 L2328.550,3647.560 A1680.000,1680.000 0.000 0,0 2391.281,3633.799 Z" style="stroke-width:2.0;stroke:rgb(255,255,255);stroke-linecap:round;fill:rgb(185,185,185);" />
<text x="2358.7" y="3710.0" font-size="36.4px" font-family="CMUBright-Roman" style="text-anchor:start;fill:rgb(0,0,0);" transform="rotate(77.6,2358.7,3710.0)" >Legal-Policy</text>
<path d="M2382.430,3596.844 A1642.000,1642.000 40.000 0,1 2321.118,3610.294 L2328.550,3647.560 A1680.000,1680.000 0.000 0,0 2391.281,3633.799 Z" style="stroke-width:2.0;stroke:rgb(255,255,255);stroke-linecap:round;fill:none;" />
<path d="M2285.913,3616.916 A1642.000,1642.000 40.000 0,1 2249.787,3622.890 L2255.567,3660.447 A1680.000,1680.000 0.000 0,0 2292.530,3654.336 Z" style="stroke-width:2.0;stroke:rgb(255,255,255);stroke-linecap:round;fill:rgb(185,185,185);" />
<text x="2272.7" y="3725.8" font-size="36.4px" font-family="CMUBright-Roman" style="text-anchor:start;fill:rgb(0,0,0);" transform="rotate(80.6,2272.7,3725.8)" >Social-Service</text>
<path d="M2285.913,3616.916 A1642.000,1642.000 40.000 0,1 2249.787,3622.890 L2255.567,3660.447 A1680.000,1680.000 0.000 0,0 2292.530,3654.336 Z" style="stroke-width:2.0;stroke:rgb(255,255,255);stroke-linecap:round;fill:none;" />
<path d="M2214.324,3627.952 A1642.000,1642.000 40.000 0,1 1245.263,3458.265 L1227.797,3492.013 A1680.000,1680.000 0.000 0,0 2219.284,3665.627 Z" style="stroke-width:2.0;stroke:rgb(255,255,255);stroke-linecap:round;fill:rgb(15,52,135);" />
<text x="1714.4" y="3723.7" font-size="36.4px" font-family="CMUBright-Roman" style="text-anchor:end;fill:rgb(0,0,0);" transform="rotate(-80.1,1714.4,3723.7)" >Finance-Accounting</text>
<path d="M2214.324,3627.952 A1642.000,1642.000 40.000 0,1 1245.263,3458.265 L1227.797,3492.013 A1680.000,1680.000 0.000 0,0 2219.284,3665.627 Z" style="stroke-width:2.0;stroke:rgb(255,255,255);stroke-linecap:round;fill:none;" />
<path d="M1213.631,3441.453 A1642.000,1642.000 40.000 0,1 879.437,3200.209 L853.504,3227.985 A1680.000,1680.000 0.000 0,0 1195.432,3474.812 Z" style="stroke-width:2.0;stroke:rgb(255,255,255);stroke-linecap:round;fill:rgb(28,75,160);" />
<text x="990.4" y="3426.0" font-size="36.4px" font-family="CMUBright-Roman" style="text-anchor:end;fill:rgb(0,0,0);" transform="rotate(-54.2,990.4,3426.0)" >Marketing-Communication</text>
<path d="M1213.631,3441.453 A1642.000,1642.000 40.000 0,1 879.437,3200.209 L853.504,3227.985 A1680.000,1680.000 0.000 0,0 1195.432,3474.812 Z" style="stroke-width:2.0;stroke:rgb(255,255,255);stroke-linecap:round;fill:none;" />
<path d="M853.521,3175.478 A1642.000,1642.000 40.000 0,1 639.254,2918.986 L607.763,2940.253 A1680.000,1680.000 0.000 0,0 826.988,3202.682 Z" style="stroke-width:2.0;stroke:rgb(255,255,255);stroke-linecap:round;fill:rgb(42,98,180);" />
<text x="667.2" y="3129.7" font-size="36.4px" font-family="CMUBright-Roman" style="text-anchor:end;fill:rgb(0,0,0);" transform="rotate(-39.9,667.2,3129.7)" >General-Business</text>
<path d="M853.521,3175.478 A1642.000,1642.000 40.000 0,1 639.254,2918.986 L607.763,2940.253 A1680.000,1680.000 0.000 0,0 826.988,3202.682 Z" style="stroke-width:2.0;stroke:rgb(255,255,255);stroke-linecap:round;fill:none;" />
<path d="M619.530,2889.082 A1642.000,1642.000 40.000 0,1 479.680,2620.315 L444.496,2634.671 A1680.000,1680.000 0.000 0,0 587.583,2909.658 Z" style="stroke-width:2.0;stroke:rgb(255,255,255);stroke-linecap:round;fill:rgb(60,120,198);" />
<text x="457.3" y="2820.2" font-size="36.4px" font-family="CMUBright-Roman" style="text-anchor:end;fill:rgb(0,0,0);" transform="rotate(-27.5,457.3,2820.2)" >Operations-Analytics</text>
<path d="M619.530,2889.082 A1642.000,1642.000 40.000 0,1 479.680,2620.315 L444.496,2634.671 A1680.000,1680.000 0.000 0,0 587.583,2909.658 Z" style="stroke-width:2.0;stroke:rgb(255,255,255);stroke-linecap:round;fill:none;" />
<path d="M466.510,2587.002 A1642.000,1642.000 40.000 0,1 421.749,2453.087 L385.224,2463.573 A1680.000,1680.000 0.000 0,0 431.021,2600.587 Z" style="stroke-width:2.0;stroke:rgb(255,255,255);stroke-linecap:round;fill:rgb(82,145,215);" />
<text x="347.9" y="2568.6" font-size="36.4px" font-family="CMUBright-Roman" style="text-anchor:end;fill:rgb(0,0,0);" transform="rotate(-18.5,347.9,2568.6)" >Specialized-Business</text>
<path d="M466.510,2587.002 A1642.000,1642.000 40.000 0,1 421.749,2453.087 L385.224,2463.573 A1680.000,1680.000 0.000 0,0 431.021,2600.587 Z" style="stroke-width:2.0;stroke:rgb(255,255,255);stroke-linecap:round;fill:none;" />
<path d="M412.241,2418.550 A1642.000,1642.000 40.000 0,1 391.911,2331.987 L354.696,2339.670 A1680.000,1680.000 0.000 0,0 375.496,2428.236 Z" style="stroke-width:2.0;stroke:rgb(255,255,255);stroke-linecap:round;fill:rgb(108,170,228);" />
<text x="301.9" y="2411.1" font-size="36.4px" font-family="CMUBright-Roman" style="text-anchor:end;fill:rgb(0,0,0);" transform="rotate(-13.2,301.9,2411.1)" >Economics</text>
<path d="M412.241,2418.550 A1642.000,1642.000 40.000 0,1 391.911,2331.987 L354.696,2339.670 A1680.000,1680.000 0.000 0,0 375.496,2428.236 Z" style="stroke-width:2.0;stroke:rgb(255,255,255);stroke-linecap:round;fill:none;" />
<path d="M385.052,2296.827 A1642.000,1642.000 40.000 0,1 366.030,2162.194 L328.216,2165.947 A1680.000,1680.000 0.000 0,0 347.678,2303.697 Z" style="stroke-width:2.0;stroke:rgb(255,255,255);stroke-linecap:round;fill:rgb(200,108,30);" />
<text x="271.8" y="2256.8" font-size="36.4px" font-family="CMUBright-Roman" style="text-anchor:end;fill:rgb(0,0,0);" transform="rotate(-8.0,271.8,2256.8)" >Social-Sciences</text>
<path d="M385.052,2296.827 A1642.000,1642.000 40.000 0,1 366.030,2162.194 L328.216,2165.947 A1680.000,1680.000 0.000 0,0 347.678,2303.697 Z" style="stroke-width:2.0;stroke:rgb(255,255,255);stroke-linecap:round;fill:none;" />
<path d="M362.881,2126.510 A1642.000,1642.000 40.000 0,1 359.682,2074.299 L321.721,2076.018 A1680.000,1680.000 0.000 0,0 324.994,2129.438 Z" style="stroke-width:2.0;stroke:rgb(255,255,255);stroke-linecap:round;fill:rgb(220,140,52);" />
<text x="256.9" y="2119.3" font-size="36.4px" font-family="CMUBright-Roman" style="text-anchor:end;fill:rgb(0,0,0);" transform="rotate(-3.5,256.9,2119.3)" >Humanities-Liberal-Arts</text>
<path d="M362.881,2126.510 A1642.000,1642.000 40.000 0,1 359.682,2074.299 L321.721,2076.018 A1680.000,1680.000 0.000 0,0 324.994,2129.438 Z" style="stroke-width:2.0;stroke:rgb(255,255,255);stroke-linecap:round;fill:none;" />
<path d="M358.451,2038.498 A1642.000,1642.000 40.000 0,1 358.158,2022.807 L320.162,2023.335 A1680.000,1680.000 0.000 0,0 320.462,2039.389 Z" style="stroke-width:2.0;stroke:rgb(255,255,255);stroke-linecap:round;fill:rgb(235,168,78);" />
<text x="253.4" y="2045.1" font-size="36.4px" font-family="CMUBright-Roman" style="text-anchor:end;fill:rgb(0,0,0);" transform="rotate(-1.1,253.4,2045.1)" >International-Studies</text>
<path d="M358.451,2038.498 A1642.000,1642.000 40.000 0,1 358.158,2022.807 L320.162,2023.335 A1680.000,1680.000 0.000 0,0 320.462,2039.389 Z" style="stroke-width:2.0;stroke:rgb(255,255,255);stroke-linecap:round;fill:none;" />
<path d="M358.052,1986.985 A1642.000,1642.000 40.000 0,1 367.336,1825.152 L329.552,1821.105 A1680.000,1680.000 0.000 0,0 320.053,1986.684 Z" style="stroke-width:2.0;stroke:rgb(255,255,255);stroke-linecap:round;fill:rgb(175,35,42);" />
<text x="255.0" y="1912.4" font-size="36.4px" font-family="CMUBright-Roman" style="text-anchor:end;fill:rgb(0,0,0);" transform="rotate(3.3,255.0,1912.4)" >Teacher-Education</text>
<path d="M358.052,1986.985 A1642.000,1642.000 40.000 0,1 367.336,1825.152 L329.552,1821.105 A1680.000,1680.000 0.000 0,0 320.053,1986.684 Z" style="stroke-width:2.0;stroke:rgb(255,255,255);stroke-linecap:round;fill:none;" />
<path d="M371.539,1789.577 A1642.000,1642.000 40.000 0,1 376.636,1753.316 L339.067,1747.607 A1680.000,1680.000 0.000 0,0 333.852,1784.707 Z" style="stroke-width:2.0;stroke:rgb(255,255,255);stroke-linecap:round;fill:rgb(195,58,55);" />
<text x="268.1" y="1769.2" font-size="36.4px" font-family="CMUBright-Roman" style="text-anchor:end;fill:rgb(0,0,0);" transform="rotate(8.0,268.1,1769.2)" >Social-Work</text>
<path d="M371.539,1789.577 A1642.000,1642.000 40.000 0,1 376.636,1753.316 L339.067,1747.607 A1680.000,1680.000 0.000 0,0 333.852,1784.707 Z" style="stroke-width:2.0;stroke:rgb(255,255,255);stroke-linecap:round;fill:none;" />
<path d="M382.404,1717.961 A1642.000,1642.000 40.000 0,1 388.090,1687.094 L350.786,1679.853 A1680.000,1680.000 0.000 0,0 344.968,1711.434 Z" style="stroke-width:2.0;stroke:rgb(255,255,255);stroke-linecap:round;fill:rgb(215,82,72);" />
<text x="279.0" y="1698.7" font-size="36.4px" font-family="CMUBright-Roman" style="text-anchor:end;fill:rgb(0,0,0);" transform="rotate(10.4,279.0,1698.7)" >Special-Education</text>
<path d="M382.404,1717.961 A1642.000,1642.000 40.000 0,1 388.090,1687.094 L350.786,1679.853 A1680.000,1680.000 0.000 0,0 344.968,1711.434 Z" style="stroke-width:2.0;stroke:rgb(255,255,255);stroke-linecap:round;fill:none;" />
<path d="M395.300,1652.005 A1642.000,1642.000 40.000 0,1 396.416,1646.895 L359.305,1638.723 A1680.000,1680.000 0.000 0,0 358.163,1643.952 Z" style="stroke-width:2.0;stroke:rgb(255,255,255);stroke-linecap:round;fill:rgb(230,112,95);" />
<text x="289.8" y="1642.1" font-size="36.4px" font-family="CMUBright-Roman" style="text-anchor:end;fill:rgb(0,0,0);" transform="rotate(12.3,289.8,1642.1)" >Educational-Leadership</text>
<path d="M395.300,1652.005 A1642.000,1642.000 40.000 0,1 396.416,1646.895 L359.305,1638.723 A1680.000,1680.000 0.000 0,0 358.163,1643.952 Z" style="stroke-width:2.0;stroke:rgb(255,255,255);stroke-linecap:round;fill:none;" />
<path d="M404.501,1611.997 A1642.000,1642.000 40.000 0,1 423.388,1541.244 L386.901,1530.627 A1680.000,1680.000 0.000 0,0 367.577,1603.017 Z" style="stroke-width:2.0;stroke:rgb(255,255,255);stroke-linecap:round;fill:rgb(0,130,142);" />
<text x="308.7" y="1561.5" font-size="36.4px" font-family="CMUBright-Roman" style="text-anchor:end;fill:rgb(0,0,0);" transform="rotate(14.9,308.7,1561.5)" >Communication-Studies</text>
<path d="M404.501,1611.997 A1642.000,1642.000 40.000 0,1 423.388,1541.244 L386.901,1530.627 A1680.000,1680.000 0.000 0,0 367.577,1603.017 Z" style="stroke-width:2.0;stroke:rgb(255,255,255);stroke-linecap:round;fill:none;" />
<path d="M433.770,1506.960 A1642.000,1642.000 40.000 0,1 448.549,1462.261 L412.644,1449.816 A1680.000,1680.000 0.000 0,0 397.524,1495.549 Z" style="stroke-width:2.0;stroke:rgb(255,255,255);stroke-linecap:round;fill:rgb(0,165,172);" />
<text x="337.2" y="1463.4" font-size="36.4px" font-family="CMUBright-Roman" style="text-anchor:end;fill:rgb(0,0,0);" transform="rotate(18.3,337.2,1463.4)" >Journalism-Media</text>
<path d="M433.770,1506.960 A1642.000,1642.000 40.000 0,1 448.549,1462.261 L412.644,1449.816 A1680.000,1680.000 0.000 0,0 397.524,1495.549 Z" style="stroke-width:2.0;stroke:rgb(255,255,255);stroke-linecap:round;fill:none;" />
<path d="M460.649,1428.544 A1642.000,1642.000 40.000 0,1 466.181,1413.858 L430.684,1400.293 A1680.000,1680.000 0.000 0,0 425.024,1415.319 Z" style="stroke-width:2.0;stroke:rgb(255,255,255);stroke-linecap:round;fill:rgb(38,195,195);" />
<text x="359.4" y="1399.1" font-size="36.4px" font-family="CMUBright-Roman" style="text-anchor:end;fill:rgb(0,0,0);" transform="rotate(20.6,359.4,1399.1)" >Creative-Writing</text>
<path d="M460.649,1428.544 A1642.000,1642.000 40.000 0,1 466.181,1413.858 L430.684,1400.293 A1680.000,1680.000 0.000 0,0 425.024,1415.319 Z" style="stroke-width:2.0;stroke:rgb(255,255,255);stroke-linecap:round;fill:none;" />
<path d="M479.332,1380.537 A1642.000,1642.000 40.000 0,1 510.660,1308.603 L476.193,1292.602 A1680.000,1680.000 0.000 0,0 444.140,1366.201 Z" style="stroke-width:2.0;stroke:rgb(255,255,255);stroke-linecap:round;fill:rgb(180,45,112);" />
<text x="391.8" y="1317.1" font-size="36.4px" font-family="CMUBright-Roman" style="text-anchor:end;fill:rgb(0,0,0);" transform="rotate(23.5,391.8,1317.1)" >Arts-Theology</text>
<path d="M479.332,1380.537 A1642.000,1642.000 40.000 0,1 510.660,1308.603 L476.193,1292.602 A1680.000,1680.000 0.000 0,0 444.140,1366.201 Z" style="stroke-width:2.0;stroke:rgb(255,255,255);stroke-linecap:round;fill:none;" />
<path d="M526.097,1276.278 A1642.000,1642.000 40.000 0,1 530.738,1266.901 L496.736,1249.936 A1680.000,1680.000 0.000 0,0 491.987,1259.529 Z" style="stroke-width:2.0;stroke:rgb(255,255,255);stroke-linecap:round;fill:rgb(205,75,142);" />
<text x="427.1" y="1239.3" font-size="36.4px" font-family="CMUBright-Roman" style="text-anchor:end;fill:rgb(0,0,0);" transform="rotate(26.3,427.1,1239.3)" >English-Writing</text>
<path d="M526.097,1276.278 A1642.000,1642.000 40.000 0,1 530.738,1266.901 L496.736,1249.936 A1680.000,1680.000 0.000 0,0 491.987,1259.529 Z" style="stroke-width:2.0;stroke:rgb(255,255,255);stroke-linecap:round;fill:none;" />
<path d="M547.080,1235.024 A1642.000,1642.000 40.000 0,1 549.525,1230.399 L515.957,1212.589 A1680.000,1680.000 0.000 0,0 513.456,1217.321 Z" style="stroke-width:2.0;stroke:rgb(255,255,255);stroke-linecap:round;fill:rgb(225,110,168);" />
<text x="447.9" y="1197.7" font-size="36.4px" font-family="CMUBright-Roman" style="text-anchor:end;fill:rgb(0,0,0);" transform="rotate(27.9,447.9,1197.7)" >Languages</text>
<path d="M547.080,1235.024 A1642.000,1642.000 40.000 0,1 549.525,1230.399 L515.957,1212.589 A1680.000,1680.000 0.000 0,0 513.456,1217.321 Z" style="stroke-width:2.0;stroke:rgb(255,255,255);stroke-linecap:round;fill:none;" />
<path d="M566.659,1198.940 A1642.000,1642.000 40.000 0,1 748.337,937.219 L719.370,912.624 A1680.000,1680.000 0.000 0,0 533.488,1180.402 Z" style="stroke-width:2.0;stroke:rgb(255,255,255);stroke-linecap:round;fill:rgb(88,40,138);" />
<text x="555.7" y="1016.9" font-size="36.4px" font-family="CMUBright-Roman" style="text-anchor:end;fill:rgb(0,0,0);" transform="rotate(34.8,555.7,1016.9)" >Biological-Sciences</text>
<path d="M566.659,1198.940 A1642.000,1642.000 40.000 0,1 748.337,937.219 L719.370,912.624 A1680.000,1680.000 0.000 0,0 533.488,1180.402 Z" style="stroke-width:2.0;stroke:rgb(255,255,255);stroke-linecap:round;fill:none;" />
<path d="M771.819,910.167 A1642.000,1642.000 40.000 0,1 821.633,856.490 L794.362,830.027 A1680.000,1680.000 0.000 0,0 743.396,884.946 Z" style="stroke-width:2.0;stroke:rgb(255,255,255);stroke-linecap:round;fill:rgb(115,65,165);" />
<text x="710.8" y="820.7" font-size="36.4px" font-family="CMUBright-Roman" style="text-anchor:end;fill:rgb(0,0,0);" transform="rotate(42.9,710.8,820.7)" >Health-Wellness</text>
<path d="M771.819,910.167 A1642.000,1642.000 40.000 0,1 821.633,856.490 L794.362,830.027 A1680.000,1680.000 0.000 0,0 743.396,884.946 Z" style="stroke-width:2.0;stroke:rgb(255,255,255);stroke-linecap:round;fill:none;" />
<path d="M846.858,831.057 A1642.000,1642.000 40.000 0,1 873.212,805.633 L847.135,777.993 A1680.000,1680.000 0.000 0,0 820.172,804.004 Z" style="stroke-width:2.0;stroke:rgb(255,255,255);stroke-linecap:round;fill:rgb(140,92,188);" />
<text x="775.8" y="753.4" font-size="36.4px" font-family="CMUBright-Roman" style="text-anchor:end;fill:rgb(0,0,0);" transform="rotate(46.0,775.8,753.4)" >Physical-Sciences</text>
<path d="M846.858,831.057 A1642.000,1642.000 40.000 0,1 873.212,805.633 L847.135,777.993 A1680.000,1680.000 0.000 0,0 820.172,804.004 Z" style="stroke-width:2.0;stroke:rgb(255,255,255);stroke-linecap:round;fill:none;" />
<path d="M899.535,781.337 A1642.000,1642.000 40.000 0,1 903.423,777.837 L878.045,749.553 A1680.000,1680.000 0.000 0,0 874.067,753.134 Z" style="stroke-width:2.0;stroke:rgb(255,255,255);stroke-linecap:round;fill:rgb(165,120,208);" />
<text x="821.8" y="709.8" font-size="36.4px" font-family="CMUBright-Roman" style="text-anchor:end;fill:rgb(0,0,0);" transform="rotate(48.0,821.8,709.8)" >Environmental-Sciences</text>
<path d="M899.535,781.337 A1642.000,1642.000 40.000 0,1 903.423,777.837 L878.045,749.553 A1680.000,1680.000 0.000 0,0 874.067,753.134 Z" style="stroke-width:2.0;stroke:rgb(255,255,255);stroke-linecap:round;fill:none;" />
<path d="M930.345,754.206 A1642.000,1642.000 40.000 0,1 1638.399,398.311 L1630.030,361.244 A1680.000,1680.000 0.000 0,0 905.590,725.375 Z" style="stroke-width:2.0;stroke:rgb(255,255,255);stroke-linecap:round;fill:rgb(22,118,50);" />
<text x="1201.1" y="446.2" font-size="36.4px" font-family="CMUBright-Roman" style="text-anchor:end;fill:rgb(0,0,0);" transform="rotate(63.3,1201.1,446.2)" >Engineering-Disciplines</text>
<path d="M930.345,754.206 A1642.000,1642.000 40.000 0,1 1638.399,398.311 L1630.030,361.244 A1680.000,1680.000 0.000 0,0 905.590,725.375 Z" style="stroke-width:2.0;stroke:rgb(255,255,255);stroke-linecap:round;fill:none;" />
<path d="M1673.425,390.804 A1642.000,1642.000 40.000 0,1 1964.180,358.391 L1963.351,320.400 A1680.000,1680.000 0.000 0,0 1665.867,353.563 Z" style="stroke-width:2.0;stroke:rgb(255,255,255);stroke-linecap:round;fill:rgb(48,158,75);" />
<text x="1791.0" y="265.3" font-size="36.4px" font-family="CMUBright-Roman" style="text-anchor:end;fill:rgb(0,0,0);" transform="rotate(83.6,1791.0,265.3)" >Computer-Science-IT</text>
<path d="M1673.425,390.804 A1642.000,1642.000 40.000 0,1 1964.180,358.391 L1963.351,320.400 A1680.000,1680.000 0.000 0,0 1665.867,353.563 Z" style="stroke-width:2.0;stroke:rgb(255,255,255);stroke-linecap:round;fill:none;" />
</g>
<g id="track_0">
<path d="M 1221.495,3427.039 A 1625.580,1625.580 0.00 0,1 1217.0,3424.6 L 1217.0,3424.6 1244.2,3376.8 1273.0,3330.0 1303.4,3284.3 1335.1,3240.0 1368.0,3197.4 1402.1,3156.8 1437.3,3118.4 1473.3,3082.3 1510.2,3048.9 1547.7,3018.3 1585.9,2990.6 1624.6,2966.1 1663.6,2944.7 1702.9,2926.8 1742.5,2912.2 1782.1,2901.2 1821.7,2893.8 1861.2,2889.9 1900.6,2889.8 1939.6,2893.3 1978.3,2900.4 2016.5,2911.2 2054.1,2925.6 2091.2,2943.5 2127.5,2964.8 2163.0,2989.5 2197.6,3017.5 2231.3,3048.5 2263.9,3082.5 2295.5,3119.3 2325.8,3158.8 2354.9,3200.6 2382.6,3244.7 2408.9,3290.7 2433.8,3338.5 2457.1,3387.7 2478.8,3438.1 2498.9,3489.3 2517.2,3541.1  A 1625.580,1625.580 0.00 0,1 2512.3,3542.8 L 2512.3,3542.8 2494.1,3490.9 2474.3,3439.6 2452.8,3389.2 2429.6,3340.0 2405.0,3292.2 2378.9,3246.1 2351.4,3202.0 2322.6,3160.1 2292.5,3120.6 2261.2,3083.8 2228.9,3049.8 2195.5,3018.7 2161.1,2990.7 2125.9,2966.0 2089.8,2944.7 2053.1,2926.8 2015.7,2912.4 1977.7,2901.7 1939.3,2894.5 1900.6,2891.1 1861.5,2891.3 1822.3,2895.1 1782.9,2902.6 1743.6,2913.7 1704.3,2928.3 1665.3,2946.3 1626.5,2967.7 1588.1,2992.3 1550.2,3020.1 1512.8,3050.8 1476.2,3084.2 1440.4,3120.3 1405.5,3158.8 1371.6,3199.5 1338.9,3242.2 1307.4,3286.5 1277.2,3332.3 1248.6,3379.3 1221.5,3427.0  Z" style="stroke-width: 0.0;  fill: rgb(28,75,160);" />
<path d="M 1216.952,3424.551 A 1625.580,1625.580 0.00 0,1 1212.4,3422.0 L 1212.4,3422.0 1240.9,3372.9 1271.7,3324.5 1304.6,3277.2 1339.5,3231.1 1376.4,3186.5 1415.1,3143.7 1455.5,3102.7 1497.6,3063.8 1541.2,3027.2 1586.2,2993.0 1632.5,2961.4 1680.1,2932.4 1728.7,2906.3 1778.4,2883.2 1828.9,2863.0 1880.2,2845.9 1932.2,2832.0 1984.7,2821.3 2037.6,2813.8 2090.8,2809.6 2144.3,2808.6 2197.8,2811.0 2251.3,2816.5 2304.7,2825.3 2357.8,2837.3 2410.4,2852.4 2462.6,2870.5 2514.1,2891.6 2564.8,2915.6 2614.6,2942.3 2663.5,2971.6 2711.1,3003.3 2757.5,3037.4 2802.4,3073.7 2845.9,3111.9 2887.6,3151.9 2927.5,3193.5 2965.5,3236.5 3001.4,3280.5  A 1625.580,1625.580 0.00 0,1 2997.3,3283.7 L 2997.3,3283.7 2961.6,3239.6 2923.8,3196.5 2884.0,3154.9 2842.5,3114.8 2799.3,3076.4 2754.5,3040.1 2708.3,3005.9 2660.9,2974.0 2612.3,2944.6 2562.7,2917.8 2512.2,2893.8 2460.9,2872.6 2409.0,2854.4 2356.6,2839.3 2303.7,2827.2 2250.6,2818.4 2197.4,2812.8 2144.1,2810.4 2090.9,2811.3 2037.9,2815.5 1985.2,2823.0 1932.9,2833.7 1881.2,2847.6 1830.1,2864.7 1779.9,2884.9 1730.5,2908.1 1682.1,2934.2 1634.7,2963.2 1588.6,2994.9 1543.9,3029.1 1500.5,3065.8 1458.7,3104.7 1418.4,3145.8 1380.0,3188.7 1343.3,3233.4 1308.6,3279.5 1275.9,3326.9 1245.3,3375.4 1217.0,3424.6  Z" style="stroke-width: 0.0;  fill: rgb(28,75,160);" />
<path d="M 1212.418,3422.049 A 1625.580,1625.580 0.00 0,1 1203.4,3417.0 L 1203.4,3417.0 1233.0,3366.9 1265.0,3317.6 1299.6,3269.1 1336.4,3221.7 1375.5,3175.6 1416.7,3131.0 1459.9,3088.1 1505.1,3047.0 1552.1,3007.9 1600.9,2970.9 1651.2,2936.2 1703.1,2903.8 1756.4,2873.9 1811.0,2846.6 1866.7,2822.0 1923.5,2800.1 1981.3,2781.1 2039.8,2764.9 2099.1,2751.6 2158.9,2741.3 2219.2,2733.9 2279.8,2729.5 2340.6,2728.1 2401.4,2729.6 2462.2,2734.1 2522.7,2741.5 2583.0,2751.8 2642.7,2764.9 2701.8,2780.7 2760.1,2799.2 2817.5,2820.2 2873.9,2843.8 2929.0,2869.7 2982.8,2897.9 3035.1,2928.2 3085.7,2960.4 3134.5,2994.5 3181.3,3030.3 3225.9,3067.5  A 1625.580,1625.580 0.00 0,1 3219.1,3075.3 L 3219.1,3075.3 3174.8,3037.8 3128.3,3001.9 3079.8,2967.5 3029.6,2935.0 2977.6,2904.5 2924.2,2876.0 2869.4,2849.8 2813.4,2826.0 2756.4,2804.7 2698.4,2786.0 2639.7,2770.0 2580.4,2756.7 2520.6,2746.2 2460.5,2738.6 2400.1,2734.0 2339.7,2732.3 2279.3,2733.6 2219.2,2737.9 2159.3,2745.1 2099.9,2755.4 2041.1,2768.6 1983.0,2784.8 1925.7,2803.8 1869.4,2825.7 1814.1,2850.3 1760.0,2877.6 1707.2,2907.6 1655.7,2940.0 1605.8,2974.8 1557.5,3011.9 1510.9,3051.1 1466.2,3092.3 1423.4,3135.4 1382.6,3180.1 1343.9,3226.3 1307.5,3273.8 1273.3,3322.4 1241.6,3371.9 1212.4,3422.0  Z" style="stroke-width: 0.0;  fill: rgb(28,75,160);" />
<path d="M 1203.373,3417.002 A 1625.580,1625.580 0.00 0,1 1141.0,3380.1 L 1141.0,3380.1 1173.8,3329.8 1209.4,3280.2 1247.7,3231.3 1288.5,3183.4 1331.8,3136.6 1377.4,3091.1 1425.3,3046.9 1475.3,3004.2 1527.4,2963.2 1581.4,2923.9 1637.1,2886.4 1694.6,2851.0 1753.7,2817.5 1814.2,2786.3 1876.1,2757.2 1939.2,2730.4 2003.4,2706.0 2068.5,2684.0 2134.5,2664.4 2201.2,2647.3 2268.4,2632.8 2336.2,2620.8 2404.2,2611.4 2472.4,2604.6 2540.6,2600.4 2608.7,2598.8 2676.6,2599.7 2744.0,2603.2 2810.9,2609.2 2877.2,2617.8 2942.5,2628.8 3006.9,2642.2 3070.1,2657.9 3132.0,2676.0 3192.5,2696.2 3251.3,2718.7 3308.3,2743.1 3363.4,2769.6 3416.3,2797.9  A 1625.580,1625.580 0.00 0,1 3379.3,2860.2 L 3379.3,2860.2 3328.3,2829.9 3275.2,2801.5 3220.2,2774.9 3163.4,2750.3 3105.0,2727.9 3045.1,2707.8 2984.1,2689.9 2921.8,2674.4 2858.7,2661.4 2794.7,2651.0 2730.1,2643.1 2665.0,2637.9 2599.5,2635.3 2533.8,2635.4 2468.1,2638.2 2402.4,2643.8 2337.0,2652.1 2271.9,2663.1 2207.3,2676.8 2143.3,2693.1 2080.0,2712.2 2017.6,2733.8 1956.2,2758.0 1896.0,2784.6 1837.0,2813.7 1779.3,2845.2 1723.1,2878.9 1668.5,2914.8 1615.6,2952.7 1564.6,2992.6 1515.4,3034.3 1468.3,3077.8 1423.3,3122.8 1380.5,3169.2 1340.0,3216.9 1302.0,3265.7 1266.5,3315.5 1233.6,3365.9 1203.4,3417.0  Z" style="stroke-width: 0.0;  fill: rgb(28,75,160);" />
<path d="M 1140.985,3380.074 A 1625.580,1625.580 0.00 0,1 988.7,3272.7 L 988.7,3272.7 1030.6,3222.0 1075.4,3171.6 1123.0,3121.5 1173.2,3071.9 1225.9,3022.8 1280.9,2974.1 1338.1,2926.0 1397.5,2878.4 1458.9,2831.4 1522.1,2785.1 1587.0,2739.5 1653.5,2694.6 1721.6,2650.5 1791.0,2607.2 1861.6,2564.8 1933.3,2523.3 2006.1,2482.8 2079.7,2443.4 2154.1,2405.0 2229.1,2367.8 2304.7,2331.9 2380.6,2297.1 2456.9,2263.7 2533.3,2231.7 2609.8,2201.2 2686.3,2172.1 2762.6,2144.7 2838.6,2118.9 2914.2,2094.9 2989.4,2072.6 3063.9,2052.2 3137.7,2033.7 3210.7,2017.3 3282.7,2003.0 3353.7,1990.8 3423.6,1980.9 3492.2,1973.3 3559.4,1968.2 3625.2,1965.5  A 1625.580,1625.580 0.00 0,1 3618.5,2151.7 L 3618.5,2151.7 3555.0,2147.1 3489.9,2145.0 3423.3,2145.3 3355.4,2148.0 3286.4,2153.2 3216.2,2160.6 3145.2,2170.4 3073.3,2182.4 3000.8,2196.7 2927.8,2213.1 2854.3,2231.7 2780.6,2252.3 2706.8,2274.9 2632.9,2299.6 2559.2,2326.1 2485.6,2354.6 2412.5,2384.8 2339.8,2416.8 2267.8,2450.5 2196.5,2485.9 2126.0,2522.8 2056.6,2561.3 1988.2,2601.2 1921.1,2642.5 1855.3,2685.1 1791.0,2729.0 1728.2,2774.1 1667.2,2820.3 1608.0,2867.5 1550.7,2915.7 1495.5,2964.8 1442.4,3014.7 1391.6,3065.3 1343.2,3116.6 1297.3,3168.5 1254.0,3220.9 1213.5,3273.6 1175.8,3326.7 1141.0,3380.1  Z" style="stroke-width: 0.0;  fill: rgb(28,75,160);" />
<path d="M 988.695,3272.703 A 1625.580,1625.580 0.00 0,1 984.6,3269.5 L 984.6,3269.5 1028.4,3216.6 1074.8,3163.8 1123.8,3111.1 1175.1,3058.5 1228.8,3005.9 1284.5,2953.4 1342.2,2900.9 1401.7,2848.6 1462.9,2796.3 1525.7,2744.1 1590.0,2692.1 1655.5,2640.2 1722.3,2588.6 1790.1,2537.1 1858.9,2485.9 1928.5,2435.1 1998.9,2384.5 2070.0,2334.4 2141.5,2284.8 2213.5,2235.7 2285.8,2187.2 2358.4,2139.3 2431.1,2092.2 2503.9,2045.9 2576.7,2000.6 2649.3,1956.2 2721.8,1912.9 2794.0,1870.8 2865.9,1830.0 2937.4,1790.5 3008.4,1752.6 3078.8,1716.3 3148.7,1681.7 3217.9,1649.0 3286.5,1618.3 3354.2,1589.6 3421.2,1563.3 3487.3,1539.3 3552.4,1517.9  A 1625.580,1625.580 0.00 0,1 3554.0,1522.8 L 3554.0,1522.8 3488.8,1544.0 3422.7,1567.8 3355.7,1593.9 3287.9,1622.4 3219.4,1652.9 3150.2,1685.4 3080.3,1719.8 3009.8,1756.0 2938.7,1793.7 2867.3,1833.0 2795.4,1873.7 2723.1,1915.7 2650.7,1958.8 2578.0,2003.1 2505.3,2048.4 2432.5,2094.6 2359.8,2141.6 2287.3,2189.4 2215.0,2237.9 2143.0,2287.0 2071.5,2336.6 2000.6,2386.7 1930.2,2437.2 1860.7,2488.1 1792.0,2539.3 1724.2,2590.8 1657.6,2642.5 1592.2,2694.4 1528.1,2746.5 1465.4,2798.7 1404.3,2851.1 1344.9,2903.5 1287.4,2956.1 1231.9,3008.7 1178.4,3061.3 1127.2,3114.1 1078.5,3166.9 1032.2,3219.7 988.7,3272.7  Z" style="stroke-width: 0.0;  fill: rgb(28,75,160);" />
<path d="M 984.645,3269.474 A 1625.580,1625.580 0.00 0,1 905.9,3202.2 L 905.9,3202.2 955.5,3149.0 1007.3,3095.6 1061.0,3042.1 1116.6,2988.4 1173.7,2934.4 1232.4,2880.1 1292.3,2825.4 1353.4,2770.3 1415.5,2714.8 1478.4,2658.9 1542.1,2602.5 1606.4,2545.6 1671.2,2488.3 1736.3,2430.5 1801.7,2372.3 1867.3,2313.6 1932.9,2254.6 1998.6,2195.2 2064.1,2135.6 2129.5,2075.7 2194.6,2015.6 2259.5,1955.4 2324.0,1895.1 2388.1,1834.9 2451.8,1774.8 2515.1,1715.0 2577.9,1655.5 2640.1,1596.4 2701.9,1537.9 2763.1,1480.0 2823.8,1423.0 2884.0,1367.0 2943.7,1312.0 3002.9,1258.3 3061.7,1206.1 3120.0,1155.4 3178.0,1106.6 3235.7,1059.6 3293.1,1014.9  A 1625.580,1625.580 0.00 0,1 3353.2,1099.2 L 3353.2,1099.2 3294.2,1139.6 3234.8,1182.3 3175.1,1227.2 3115.0,1274.0 3054.4,1322.7 2993.5,1373.0 2932.0,1424.8 2870.2,1478.0 2807.9,1532.3 2745.1,1587.7 2681.9,1644.0 2618.4,1701.1 2554.4,1759.0 2490.1,1817.4 2425.5,1876.2 2360.7,1935.5 2295.6,1995.0 2230.4,2054.7 2165.1,2114.5 2099.7,2174.4 2034.4,2234.3 1969.2,2294.0 1904.3,2353.7 1839.6,2413.1 1775.3,2472.3 1711.5,2531.3 1648.4,2590.0 1585.9,2648.3 1524.3,2706.3 1463.6,2764.0 1404.1,2821.4 1345.8,2878.4 1288.8,2935.0 1233.4,2991.4 1179.6,3047.4 1127.7,3103.3 1077.8,3158.8 1030.0,3214.2 984.6,3269.5  Z" style="stroke-width: 0.0;  fill: rgb(28,75,160);" />
<path d="M 905.874,3202.247 A 1625.580,1625.580 0.00 0,1 894.4,3191.7 L 894.4,3191.7 942.7,3138.4 990.8,3082.8 1038.7,3025.0 1086.7,2965.3 1134.7,2903.8 1182.8,2840.7 1231.0,2776.1 1279.4,2710.2 1328.0,2643.0 1376.9,2574.8 1426.0,2505.7 1475.5,2435.8 1525.1,2365.2 1575.1,2294.0 1625.3,2222.3 1675.8,2150.4 1726.5,2078.1 1777.3,2005.7 1828.4,1933.2 1879.5,1860.7 1930.6,1788.3 1981.8,1716.1 2032.8,1644.1 2083.7,1572.4 2134.3,1501.1 2184.6,1430.1 2234.4,1359.6 2283.7,1289.6 2332.3,1220.1 2380.2,1151.2 2427.1,1082.8 2473.0,1015.1 2517.6,948.0 2560.9,881.5 2602.7,815.7 2642.9,750.4 2681.2,685.9 2717.4,621.9 2751.5,558.6  A 1625.580,1625.580 0.00 0,1 2765.2,565.8 L 2765.2,565.8 2730.5,629.0 2693.6,692.8 2654.7,757.2 2613.9,822.2 2571.5,887.9 2527.7,954.2 2482.5,1021.1 2436.2,1088.7 2388.8,1156.8 2340.6,1225.6 2291.6,1294.9 2242.0,1364.7 2191.9,1435.1 2141.4,1505.9 2090.6,1577.2 2039.5,1648.8 1988.4,1720.7 1937.1,1792.9 1885.9,1865.3 1834.8,1937.8 1783.8,2010.3 1733.0,2082.8 1682.4,2155.1 1632.1,2227.2 1582.1,2299.0 1532.3,2370.4 1482.8,2441.2 1433.7,2511.4 1384.8,2580.8 1336.2,2649.3 1287.9,2716.8 1239.9,2783.1 1192.0,2848.1 1144.3,2911.7 1096.6,2973.6 1049.1,3033.8 1001.5,3092.1 953.8,3148.3 905.9,3202.2  Z" style="stroke-width: 0.0;  fill: rgb(28,75,160);" />
<path d="M 894.433,3191.735 A 1625.580,1625.580 0.00 0,1 890.6,3188.2 L 890.6,3188.2 935.5,3138.4 979.8,3085.8 1023.4,3030.6 1066.4,2972.9 1108.7,2912.9 1150.5,2850.6 1191.6,2786.3 1232.1,2720.1 1272.0,2652.1 1311.2,2582.4 1349.7,2511.1 1387.6,2438.5 1424.7,2364.5 1461.2,2289.4 1496.8,2213.2 1531.7,2136.1 1565.8,2058.3 1599.0,1979.7 1631.3,1900.6 1662.6,1821.0 1693.0,1741.2 1722.4,1661.1 1750.6,1580.9 1777.7,1500.8 1803.6,1420.8 1828.3,1341.0 1851.6,1261.6 1873.5,1182.6 1894.0,1104.2 1912.9,1026.5 1930.2,949.6 1945.8,873.6 1959.6,798.5 1971.5,724.5 1981.5,651.7 1989.4,580.2 1995.2,510.1 1998.8,441.5 2000.0,374.4  A 1625.580,1625.580 0.00 0,1 2005.2,374.4 L 2005.2,374.4 2003.8,441.6 2000.0,510.2 1994.0,580.4 1985.9,652.0 1975.7,724.8 1963.5,798.8 1949.5,873.9 1933.8,950.0 1916.3,1026.9 1897.2,1104.7 1876.7,1183.1 1854.6,1262.1 1831.2,1341.6 1806.4,1421.4 1780.4,1501.4 1753.2,1581.6 1724.9,1661.9 1695.5,1742.0 1665.1,1822.0 1633.7,1901.6 1601.4,1980.8 1568.2,2059.4 1534.1,2137.4 1499.3,2214.6 1463.6,2290.8 1427.3,2366.1 1390.2,2440.1 1352.4,2512.9 1313.9,2584.3 1274.8,2654.1 1235.0,2722.3 1194.6,2788.7 1153.6,2853.1 1112.0,2915.5 1069.7,2975.7 1026.8,3033.5 983.3,3088.9 939.2,3141.7 894.4,3191.7  Z" style="stroke-width: 0.0;  fill: rgb(28,75,160);" />
</g>
<defs>
<pattern id="vline" width="10" height="10" patternTransform="rotate(0 0 0)" patternUnits="userSpaceOnUse"><line x1="0" y1="0" x2="0" y2="10" style="stroke:black;stroke-width:5" /></pattern>
<pattern id="checker" width="10" height="10" patternTransform="rotate(45 0 0)" patternUnits="userSpaceOnUse"><line x1="0" y1="0" x2="10" y2="0" style="stroke:black;stroke-width:5" /><line x1="0" y1="0" x2="0" y2="10" style="stroke:black;stroke-width:4" /></pattern>
<pattern id="hline-sparse" width="10" height="10" patternTransform="rotate(0 0 0)" patternUnits="userSpaceOnUse"><line x1="0" y1="0" x2="10" y2="0" style="stroke:black;stroke-width:2" /></pattern>
<pattern id="vline-sparse" width="10" height="10" patternTransform="rotate(0 0 0)" patternUnits="userSpaceOnUse"><line x1="0" y1="0" x2="0" y2="10" style="stroke:black;stroke-width:2" /></pattern>
<pattern id="hline" width="10" height="10" patternTransform="rotate(0 0 0)" patternUnits="userSpaceOnUse"><line x1="0" y1="0" x2="10" y2="0" style="stroke:black;stroke-width:5" /></pattern>
<pattern id="checker" width="10" height="10" patternTransform="rotate(45 0 0)" patternUnits="userSpaceOnUse"><line x1="0" y1="0" x2="10" y2="0" style="stroke:black;stroke-width:2" /><line x1="0" y1="0" x2="0" y2="10" style="stroke:black;stroke-width:2" /></pattern>
</defs>
</svg>
