<?xml version="1.0" encoding="utf-8" standalone="no"?>
<!DOCTYPE svg PUBLIC "-//W3C//DTD SVG 1.1//EN" "http://www.w3.org/Graphics/SVG/1.1/DTD/svg11.dtd">
<svg width="4000px" height="4000px" version="1.1" xmlns="http://www.w3.org/2000/svg" xmlns:xlink="http://www.w3.org/1999/xlink">
<g id="bg">
<rect x="0" y="0" width="4000px" height="4000px" style="fill:rgb(255,255,255);"/>
</g>
<g id="ideograms">
<path d="M2000.000,358.000 A1642.000,1642.000 40.000 0,1 2751.610,540.121 L2769.004,506.336 A1680.000,1680.000 0.000 0,0 2000.000,320.000 Z" style="stroke-width:2.0;stroke:rgb(255,255,255);stroke-linecap:round;fill:rgb(185,185,185);" />
<text x="2427.0" y="305.8" font-size="36.4px" font-family="CMUBright-Roman" style="text-anchor:start;fill:rgb(0,0,0);" transform="rotate(283.6,2427.0,305.8)" >Management-Operations</text>
<path d="M2000.000,358.000 A1642.000,1642.000 40.000 0,1 2751.610,540.121 L2769.004,506.336 A1680.000,1680.000 0.000 0,0 2000.000,320.000 Z" style="stroke-width:2.0;stroke:rgb(255,255,255);stroke-linecap:round;fill:none;" />
<path d="M2783.279,556.865 A1642.000,1642.000 40.000 0,1 3226.411,908.176 L3254.793,882.908 A1680.000,1680.000 0.000 0,0 2801.406,523.467 Z" style="stroke-width:2.0;stroke:rgb(255,255,255);stroke-linecap:round;fill:rgb(185,185,185);" />
<text x="3097.5" y="640.5" font-size="36.4px" font-family="CMUBright-Roman" style="text-anchor:start;fill:rgb(0,0,0);" transform="rotate(308.4,3097.5,640.5)" >Engineering</text>
<path d="M2783.279,556.865 A1642.000,1642.000 40.000 0,1 3226.411,908.176 L3254.793,882.908 A1680.000,1680.000 0.000 0,0 2801.406,523.467 Z" style="stroke-width:2.0;stroke:rgb(255,255,255);stroke-linecap:round;fill:none;" />
<path d="M3249.937,935.189 A1642.000,1642.000 40.000 0,1 3507.538,1349.236 L3542.426,1334.176 A1680.000,1680.000 0.000 0,0 3278.864,910.547 Z" style="stroke-width:2.0;stroke:rgb(255,255,255);stroke-linecap:round;fill:rgb(185,185,185);" />
<text x="3491.6" y="1090.2" font-size="36.4px" font-family="CMUBright-Roman" style="text-anchor:start;fill:rgb(0,0,0);" transform="rotate(328.1,3491.6,1090.2)" >Leadership-General</text>
<path d="M3249.937,935.189 A1642.000,1642.000 40.000 0,1 3507.538,1349.236 L3542.426,1334.176 A1680.000,1680.000 0.000 0,0 3278.864,910.547 Z" style="stroke-width:2.0;stroke:rgb(255,255,255);stroke-linecap:round;fill:none;" />
<path d="M3521.375,1382.278 A1642.000,1642.000 40.000 0,1 3633.192,1830.154 L3670.988,1826.223 A1680.000,1680.000 0.000 0,0 3556.584,1367.982 Z" style="stroke-width:2.0;stroke:rgb(255,255,255);stroke-linecap:round;fill:rgb(185,185,185);" />
<text x="3699.0" y="1592.3" font-size="36.4px" font-family="CMUBright-Roman" style="text-anchor:start;fill:rgb(0,0,0);" transform="rotate(346.0,3699.0,1592.3)" >Sales-Marketing</text>
<path d="M3521.375,1382.278 A1642.000,1642.000 40.000 0,1 3633.192,1830.154 L3670.988,1826.223 A1680.000,1680.000 0.000 0,0 3556.584,1367.982 Z" style="stroke-width:2.0;stroke:rgb(255,255,255);stroke-linecap:round;fill:none;" />
<path d="M3636.509,1865.822 A1642.000,1642.000 40.000 0,1 3610.774,2318.704 L3648.051,2326.079 A1680.000,1680.000 0.000 0,0 3674.381,1862.717 Z" style="stroke-width:2.0;stroke:rgb(255,255,255);stroke-linecap:round;fill:rgb(185,185,185);" />
<text x="3743.6" y="2111.6" font-size="36.4px" font-family="CMUBright-Roman" style="text-anchor:start;fill:rgb(0,0,0);" transform="rotate(3.3,3743.6,2111.6)" >Finance-Investment</text>
<path d="M3636.509,1865.822 A1642.000,1642.000 40.000 0,1 3610.774,2318.704 L3648.051,2326.079 A1680.000,1680.000 0.000 0,0 3674.381,1862.717 Z" style="stroke-width:2.0;stroke:rgb(255,255,255);stroke-linecap:round;fill:none;" />
<path d="M3603.438,2353.767 A1642.000,1642.000 40.000 0,1 3499.856,2668.278 L3534.566,2683.744 A1680.000,1680.000 0.000 0,0 3640.546,2361.954 Z" style="stroke-width:2.0;stroke:rgb(255,255,255);stroke-linecap:round;fill:rgb(185,185,185);" />
<text x="3655.6" y="2558.4" font-size="36.4px" font-family="CMUBright-Roman" style="text-anchor:start;fill:rgb(0,0,0);" transform="rotate(18.2,3655.6,2558.4)" >Software-Data</text>
<path d="M3603.438,2353.767 A1642.000,1642.000 40.000 0,1 3499.856,2668.278 L3534.566,2683.744 A1680.000,1680.000 0.000 0,0 3640.546,2361.954 Z" style="stroke-width:2.0;stroke:rgb(255,255,255);stroke-linecap:round;fill:none;" />
<path d="M3484.921,2700.839 A1642.000,1642.000 40.000 0,1 3330.895,2961.708 L3361.695,2983.964 A1680.000,1680.000 0.000 0,0 3519.285,2717.058 Z" style="stroke-width:2.0;stroke:rgb(255,255,255);stroke-linecap:round;fill:rgb(185,185,185);" />
<text x="3498.1" y="2899.1" font-size="36.4px" font-family="CMUBright-Roman" style="text-anchor:start;fill:rgb(0,0,0);" transform="rotate(30.6,3498.1,2899.1)" >Education</text>
<path d="M3484.921,2700.839 A1642.000,1642.000 40.000 0,1 3330.895,2961.708 L3361.695,2983.964 A1680.000,1680.000 0.000 0,0 3519.285,2717.058 Z" style="stroke-width:2.0;stroke:rgb(255,255,255);stroke-linecap:round;fill:none;" />
<path d="M3309.599,2990.512 A1642.000,1642.000 40.000 0,1 3129.055,3192.225 L3155.184,3219.816 A1680.000,1680.000 0.000 0,0 3339.906,3013.435 Z" style="stroke-width:2.0;stroke:rgb(255,255,255);stroke-linecap:round;fill:rgb(185,185,185);" />
<text x="3293.5" y="3174.5" font-size="36.4px" font-family="CMUBright-Roman" style="text-anchor:start;fill:rgb(0,0,0);" transform="rotate(41.8,3293.5,3174.5)" >Research-Science</text>
<path d="M3309.599,2990.512 A1642.000,1642.000 40.000 0,1 3129.055,3192.225 L3155.184,3219.816 A1680.000,1680.000 0.000 0,0 3339.906,3013.435 Z" style="stroke-width:2.0;stroke:rgb(255,255,255);stroke-linecap:round;fill:none;" />
<path d="M3102.778,3216.571 A1642.000,1642.000 40.000 0,1 2891.302,3379.038 L2911.929,3410.952 A1680.000,1680.000 0.000 0,0 3128.299,3244.726 Z" style="stroke-width:2.0;stroke:rgb(255,255,255);stroke-linecap:round;fill:rgb(185,185,185);" />
<text x="3054.5" y="3393.1" font-size="36.4px" font-family="CMUBright-Roman" style="text-anchor:start;fill:rgb(0,0,0);" transform="rotate(52.5,3054.5,3393.1)" >Clinical-Care</text>
<path d="M3102.778,3216.571 A1642.000,1642.000 40.000 0,1 2891.302,3379.038 L2911.929,3410.952 A1680.000,1680.000 0.000 0,0 3128.299,3244.726 Z" style="stroke-width:2.0;stroke:rgb(255,255,255);stroke-linecap:round;fill:none;" />
<path d="M2861.006,3398.153 A1642.000,1642.000 40.000 0,1 2640.127,3512.085 L2654.941,3547.079 A1680.000,1680.000 0.000 0,0 2880.932,3430.510 Z" style="stroke-width:2.0;stroke:rgb(255,255,255);stroke-linecap:round;fill:rgb(185,185,185);" />
<text x="2786.7" y="3560.1" font-size="36.4px" font-family="CMUBright-Roman" style="text-anchor:start;fill:rgb(0,0,0);" transform="rotate(62.7,2786.7,3560.1)" >Accounting-Audit</text>
<path d="M2861.006,3398.153 A1642.000,1642.000 40.000 0,1 2640.127,3512.085 L2654.941,3547.079 A1680.000,1680.000 0.000 0,0 2880.932,3430.510 Z" style="stroke-width:2.0;stroke:rgb(255,255,255);stroke-linecap:round;fill:none;" />
<path d="M2606.988,3525.690 A1642.000,1642.000 40.000 0,1 2452.002,3578.562 L2462.463,3615.094 A1680.000,1680.000 0.000 0,0 2621.036,3560.998 Z" style="stroke-width:2.0;stroke:rgb(255,255,255);stroke-linecap:round;fill:rgb(185,185,185);" />
<text x="2552.3" y="3657.6" font-size="36.4px" font-family="CMUBright-Roman" style="text-anchor:start;fill:rgb(0,0,0);" transform="rotate(71.2,2552.3,3657.6)" >Social-Service</text>
<path d="M2606.988,3525.690 A1642.000,1642.000 40.000 0,1 2452.002,3578.562 L2462.463,3615.094 A1680.000,1680.000 0.000 0,0 2621.036,3560.998 Z" style="stroke-width:2.0;stroke:rgb(255,255,255);stroke-linecap:round;fill:none;" />
<path d="M2417.459,3588.047 A1642.000,1642.000 40.000 0,1 2320.910,3610.336 L2328.336,3647.603 A1680.000,1680.000 0.000 0,0 2427.120,3624.798 Z" style="stroke-width:2.0;stroke:rgb(255,255,255);stroke-linecap:round;fill:rgb(185,185,185);" />
<text x="2380.8" y="3705.2" font-size="36.4px" font-family="CMUBright-Roman" style="text-anchor:start;fill:rgb(0,0,0);" transform="rotate(77.0,2380.8,3705.2)" >IT-Infrastructure</text>
<path d="M2417.459,3588.047 A1642.000,1642.000 40.000 0,1 2320.910,3610.336 L2328.336,3647.603 A1680.000,1680.000 0.000 0,0 2427.120,3624.798 Z" style="stroke-width:2.0;stroke:rgb(255,255,255);stroke-linecap:round;fill:none;" />
<path d="M2285.704,3616.953 A1642.000,1642.000 40.000 0,1 2189.660,3631.010 L2194.050,3668.755 A1680.000,1680.000 0.000 0,0 2292.316,3654.373 Z" style="stroke-width:2.0;stroke:rgb(255,255,255);stroke-linecap:round;fill:rgb(185,185,185);" />
<text x="2237.2" y="3731.0" font-size="36.4px" font-family="CMUBright-Roman" style="text-anchor:start;fill:rgb(0,0,0);" transform="rotate(81.7,2237.2,3731.0)" >Legal-Policy</text>
<path d="M2285.704,3616.953 A1642.000,1642.000 40.000 0,1 2189.660,3631.010 L2194.050,3668.755 A1680.000,1680.000 0.000 0,0 2292.316,3654.373 Z" style="stroke-width:2.0;stroke:rgb(255,255,255);stroke-linecap:round;fill:none;" />
<path d="M2154.035,3634.759 A1642.000,1642.000 40.000 0,1 1474.020,3555.477 L1461.848,3591.475 A1680.000,1680.000 0.000 0,0 2157.600,3672.592 Z" style="stroke-width:2.0;stroke:rgb(255,255,255);stroke-linecap:round;fill:rgb(15,52,135);" />
<text x="1813.6" y="3737.2" font-size="36.4px" font-family="CMUBright-Roman" style="text-anchor:end;fill:rgb(0,0,0);" transform="rotate(-83.3,1813.6,3737.2)" >Finance-Accounting</text>
<path d="M2154.035,3634.759 A1642.000,1642.000 40.000 0,1 1474.020,3555.477 L1461.848,3591.475 A1680.000,1680.000 0.000 0,0 2157.600,3672.592 Z" style="stroke-width:2.0;stroke:rgb(255,255,255);stroke-linecap:round;fill:none;" />
<path d="M1440.213,3543.633 A1642.000,1642.000 40.000 0,1 888.845,3208.925 L863.130,3236.902 A1680.000,1680.000 0.000 0,0 1427.258,3579.356 Z" style="stroke-width:2.0;stroke:rgb(255,255,255);stroke-linecap:round;fill:rgb(42,98,180);" />
<text x="1104.1" y="3500.0" font-size="36.4px" font-family="CMUBright-Roman" style="text-anchor:end;fill:rgb(0,0,0);" transform="rotate(-58.7,1104.1,3500.0)" >General-Business</text>
<path d="M1440.213,3543.633 A1642.000,1642.000 40.000 0,1 888.845,3208.925 L863.130,3236.902 A1680.000,1680.000 0.000 0,0 1427.258,3579.356 Z" style="stroke-width:2.0;stroke:rgb(255,255,255);stroke-linecap:round;fill:none;" />
<path d="M862.737,3184.397 A1642.000,1642.000 40.000 0,1 624.574,2896.866 L592.744,2917.622 A1680.000,1680.000 0.000 0,0 836.418,3211.807 Z" style="stroke-width:2.0;stroke:rgb(255,255,255);stroke-linecap:round;fill:rgb(28,75,160);" />
<text x="664.7" y="3126.8" font-size="36.4px" font-family="CMUBright-Roman" style="text-anchor:end;fill:rgb(0,0,0);" transform="rotate(-39.6,664.7,3126.8)" >Marketing-Communication</text>
<path d="M862.737,3184.397 A1642.000,1642.000 40.000 0,1 624.574,2896.866 L592.744,2917.622 A1680.000,1680.000 0.000 0,0 836.418,3211.807 Z" style="stroke-width:2.0;stroke:rgb(255,255,255);stroke-linecap:round;fill:none;" />
<path d="M605.337,2866.648 A1642.000,1642.000 40.000 0,1 476.558,2612.607 L441.301,2626.784 A1680.000,1680.000 0.000 0,0 573.061,2886.704 Z" style="stroke-width:2.0;stroke:rgb(255,255,255);stroke-linecap:round;fill:rgb(60,120,198);" />
<text x="448.7" y="2803.8" font-size="36.4px" font-family="CMUBright-Roman" style="text-anchor:end;fill:rgb(0,0,0);" transform="rotate(-26.9,448.7,2803.8)" >Operations-Analytics</text>
<path d="M605.337,2866.648 A1642.000,1642.000 40.000 0,1 476.558,2612.607 L441.301,2626.784 A1680.000,1680.000 0.000 0,0 573.061,2886.704 Z" style="stroke-width:2.0;stroke:rgb(255,255,255);stroke-linecap:round;fill:none;" />
<path d="M463.556,2579.227 A1642.000,1642.000 40.000 0,1 407.419,2399.813 L370.563,2409.066 A1680.000,1680.000 0.000 0,0 427.999,2592.632 Z" style="stroke-width:2.0;stroke:rgb(255,255,255);stroke-linecap:round;fill:rgb(82,145,215);" />
<text x="337.2" y="2536.5" font-size="36.4px" font-family="CMUBright-Roman" style="text-anchor:end;fill:rgb(0,0,0);" transform="rotate(-17.4,337.2,2536.5)" >Specialized-Business</text>
<path d="M463.556,2579.227 A1642.000,1642.000 40.000 0,1 407.419,2399.813 L370.563,2409.066 A1680.000,1680.000 0.000 0,0 427.999,2592.632 Z" style="stroke-width:2.0;stroke:rgb(255,255,255);stroke-linecap:round;fill:none;" />
<path d="M399.076,2364.976 A1642.000,1642.000 40.000 0,1 366.776,2169.540 L328.979,2173.464 A1680.000,1680.000 0.000 0,0 362.027,2373.422 Z" style="stroke-width:2.0;stroke:rgb(255,255,255);stroke-linecap:round;fill:rgb(200,108,30);" />
<text x="278.3" y="2297.2" font-size="36.4px" font-family="CMUBright-Roman" style="text-anchor:end;fill:rgb(0,0,0);" transform="rotate(-9.4,278.3,2297.2)" >Social-Sciences</text>
<path d="M399.076,2364.976 A1642.000,1642.000 40.000 0,1 366.776,2169.540 L328.979,2173.464 A1680.000,1680.000 0.000 0,0 362.027,2373.422 Z" style="stroke-width:2.0;stroke:rgb(255,255,255);stroke-linecap:round;fill:none;" />
<path d="M363.466,2133.872 A1642.000,1642.000 40.000 0,1 358.290,2030.870 L320.297,2031.584 A1680.000,1680.000 0.000 0,0 325.593,2136.970 Z" style="stroke-width:2.0;stroke:rgb(255,255,255);stroke-linecap:round;fill:rgb(108,170,228);" />
<text x="255.6" y="2099.7" font-size="36.4px" font-family="CMUBright-Roman" style="text-anchor:end;fill:rgb(0,0,0);" transform="rotate(-2.9,255.6,2099.7)" >Economics</text>
<path d="M363.466,2133.872 A1642.000,1642.000 40.000 0,1 358.290,2030.870 L320.297,2031.584 A1680.000,1680.000 0.000 0,0 325.593,2136.970 Z" style="stroke-width:2.0;stroke:rgb(255,255,255);stroke-linecap:round;fill:none;" />
<path d="M358.007,1995.049 A1642.000,1642.000 40.000 0,1 358.807,1948.539 L320.825,1947.348 A1680.000,1680.000 0.000 0,0 320.008,1994.934 Z" style="stroke-width:2.0;stroke:rgb(255,255,255);stroke-linecap:round;fill:rgb(220,140,52);" />
<text x="252.9" y="1982.5" font-size="36.4px" font-family="CMUBright-Roman" style="text-anchor:end;fill:rgb(0,0,0);" transform="rotate(1.0,252.9,1982.5)" >Humanities-Liberal-Arts</text>
<path d="M358.007,1995.049 A1642.000,1642.000 40.000 0,1 358.807,1948.539 L320.825,1947.348 A1680.000,1680.000 0.000 0,0 320.008,1994.934 Z" style="stroke-width:2.0;stroke:rgb(255,255,255);stroke-linecap:round;fill:none;" />
<path d="M360.320,1912.749 A1642.000,1642.000 40.000 0,1 361.133,1898.615 L323.205,1896.269 A1680.000,1680.000 0.000 0,0 322.373,1910.730 Z" style="stroke-width:2.0;stroke:rgb(255,255,255);stroke-linecap:round;fill:rgb(235,168,78);" />
<text x="255.0" y="1912.1" font-size="36.4px" font-family="CMUBright-Roman" style="text-anchor:end;fill:rgb(0,0,0);" transform="rotate(3.3,255.0,1912.1)" >International-Studies</text>
<path d="M360.320,1912.749 A1642.000,1642.000 40.000 0,1 361.133,1898.615 L323.205,1896.269 A1680.000,1680.000 0.000 0,0 322.373,1910.730 Z" style="stroke-width:2.0;stroke:rgb(255,255,255);stroke-linecap:round;fill:none;" />
<path d="M363.735,1862.887 A1642.000,1642.000 40.000 0,1 391.336,1670.812 L354.108,1663.193 A1680.000,1680.000 0.000 0,0 325.867,1859.714 Z" style="stroke-width:2.0;stroke:rgb(255,255,255);stroke-linecap:round;fill:rgb(195,58,55);" />
<text x="268.8" y="1763.9" font-size="36.4px" font-family="CMUBright-Roman" style="text-anchor:end;fill:rgb(0,0,0);" transform="rotate(8.2,268.8,1763.9)" >Social-Work</text>
<path d="M363.735,1862.887 A1642.000,1642.000 40.000 0,1 391.336,1670.812 L354.108,1663.193 A1680.000,1680.000 0.000 0,0 325.867,1859.714 Z" style="stroke-width:2.0;stroke:rgb(255,255,255);stroke-linecap:round;fill:none;" />
<path d="M398.900,1635.797 A1642.000,1642.000 40.000 0,1 428.981,1522.439 L392.624,1511.387 A1680.000,1680.000 0.000 0,0 361.847,1627.368 Z" style="stroke-width:2.0;stroke:rgb(255,255,255);stroke-linecap:round;fill:rgb(175,35,42);" />
<text x="308.1" y="1564.0" font-size="36.4px" font-family="CMUBright-Roman" style="text-anchor:end;fill:rgb(0,0,0);" transform="rotate(14.9,308.1,1564.0)" >Teacher-Education</text>
<path d="M398.900,1635.797 A1642.000,1642.000 40.000 0,1 428.981,1522.439 L392.624,1511.387 A1680.000,1680.000 0.000 0,0 361.847,1627.368 Z" style="stroke-width:2.0;stroke:rgb(255,255,255);stroke-linecap:round;fill:none;" />
<path d="M439.773,1488.281 A1642.000,1642.000 40.000 0,1 474.975,1391.343 L439.682,1377.257 A1680.000,1680.000 0.000 0,0 403.666,1476.439 Z" style="stroke-width:2.0;stroke:rgb(255,255,255);stroke-linecap:round;fill:rgb(215,82,72);" />
<text x="352.5" y="1418.2" font-size="36.4px" font-family="CMUBright-Roman" style="text-anchor:end;fill:rgb(0,0,0);" transform="rotate(20.0,352.5,1418.2)" >Special-Education</text>
<path d="M439.773,1488.281 A1642.000,1642.000 40.000 0,1 474.975,1391.343 L439.682,1377.257 A1680.000,1680.000 0.000 0,0 403.666,1476.439 Z" style="stroke-width:2.0;stroke:rgb(255,255,255);stroke-linecap:round;fill:none;" />
<path d="M488.616,1358.220 A1642.000,1642.000 40.000 0,1 509.092,1311.991 L474.588,1296.068 A1680.000,1680.000 0.000 0,0 453.639,1343.368 Z" style="stroke-width:2.0;stroke:rgb(255,255,255);stroke-linecap:round;fill:rgb(230,112,95);" />
<text x="396.3" y="1306.6" font-size="36.4px" font-family="CMUBright-Roman" style="text-anchor:end;fill:rgb(0,0,0);" transform="rotate(23.9,396.3,1306.6)" >Educational-Leadership</text>
<path d="M488.616,1358.220 A1642.000,1642.000 40.000 0,1 509.092,1311.991 L474.588,1296.068 A1680.000,1680.000 0.000 0,0 453.639,1343.368 Z" style="stroke-width:2.0;stroke:rgb(255,255,255);stroke-linecap:round;fill:none;" />
<path d="M524.455,1279.630 A1642.000,1642.000 40.000 0,1 553.988,1222.045 L520.524,1204.041 A1680.000,1680.000 0.000 0,0 490.308,1262.959 Z" style="stroke-width:2.0;stroke:rgb(255,255,255);stroke-linecap:round;fill:rgb(0,130,142);" />
<text x="439.7" y="1213.8" font-size="36.4px" font-family="CMUBright-Roman" style="text-anchor:end;fill:rgb(0,0,0);" transform="rotate(27.2,439.7,1213.8)" >Communication-Studies</text>
<path d="M524.455,1279.630 A1642.000,1642.000 40.000 0,1 553.988,1222.045 L520.524,1204.041 A1680.000,1680.000 0.000 0,0 490.308,1262.959 Z" style="stroke-width:2.0;stroke:rgb(255,255,255);stroke-linecap:round;fill:none;" />
<path d="M571.303,1190.686 A1642.000,1642.000 40.000 0,1 588.562,1160.949 L555.898,1141.531 A1680.000,1680.000 0.000 0,0 538.240,1171.956 Z" style="stroke-width:2.0;stroke:rgb(255,255,255);stroke-linecap:round;fill:rgb(0,165,172);" />
<text x="482.6" y="1133.8" font-size="36.4px" font-family="CMUBright-Roman" style="text-anchor:end;fill:rgb(0,0,0);" transform="rotate(30.1,482.6,1133.8)" >Journalism-Media</text>
<path d="M571.303,1190.686 A1642.000,1642.000 40.000 0,1 588.562,1160.949 L555.898,1141.531 A1680.000,1680.000 0.000 0,0 538.240,1171.956 Z" style="stroke-width:2.0;stroke:rgb(255,255,255);stroke-linecap:round;fill:none;" />
<path d="M607.202,1130.358 A1642.000,1642.000 40.000 0,1 613.667,1120.089 L581.583,1099.725 A1680.000,1680.000 0.000 0,0 574.969,1110.233 Z" style="stroke-width:2.0;stroke:rgb(255,255,255);stroke-linecap:round;fill:rgb(38,195,195);" />
<text x="512.9" y="1082.8" font-size="36.4px" font-family="CMUBright-Roman" style="text-anchor:end;fill:rgb(0,0,0);" transform="rotate(32.2,512.9,1082.8)" >Creative-Writing</text>
<path d="M607.202,1130.358 A1642.000,1642.000 40.000 0,1 613.667,1120.089 L581.583,1099.725 A1680.000,1680.000 0.000 0,0 574.969,1110.233 Z" style="stroke-width:2.0;stroke:rgb(255,255,255);stroke-linecap:round;fill:none;" />
<path d="M633.192,1090.055 A1642.000,1642.000 40.000 0,1 667.742,1040.182 L636.910,1017.969 A1680.000,1680.000 0.000 0,0 601.560,1068.997 Z" style="stroke-width:2.0;stroke:rgb(255,255,255);stroke-linecap:round;fill:rgb(180,45,112);" />
<text x="554.7" y="1018.2" font-size="36.4px" font-family="CMUBright-Roman" style="text-anchor:end;fill:rgb(0,0,0);" transform="rotate(34.7,554.7,1018.2)" >Arts-Theology</text>
<path d="M633.192,1090.055 A1642.000,1642.000 40.000 0,1 667.742,1040.182 L636.910,1017.969 A1680.000,1680.000 0.000 0,0 601.560,1068.997 Z" style="stroke-width:2.0;stroke:rgb(255,255,255);stroke-linecap:round;fill:none;" />
<path d="M688.997,1011.347 A1642.000,1642.000 40.000 0,1 698.803,998.477 L668.690,975.299 A1680.000,1680.000 0.000 0,0 658.657,988.467 Z" style="stroke-width:2.0;stroke:rgb(255,255,255);stroke-linecap:round;fill:rgb(205,75,142);" />
<text x="600.6" y="953.9" font-size="36.4px" font-family="CMUBright-Roman" style="text-anchor:end;fill:rgb(0,0,0);" transform="rotate(37.3,600.6,953.9)" >English-Writing</text>
<path d="M688.997,1011.347 A1642.000,1642.000 40.000 0,1 698.803,998.477 L668.690,975.299 A1680.000,1680.000 0.000 0,0 658.657,988.467 Z" style="stroke-width:2.0;stroke:rgb(255,255,255);stroke-linecap:round;fill:none;" />
<path d="M720.960,970.329 A1642.000,1642.000 40.000 0,1 724.774,965.610 L695.262,941.672 A1680.000,1680.000 0.000 0,0 691.360,946.500 Z" style="stroke-width:2.0;stroke:rgb(255,255,255);stroke-linecap:round;fill:rgb(225,110,168);" />
<text x="631.0" y="914.3" font-size="36.4px" font-family="CMUBright-Roman" style="text-anchor:end;fill:rgb(0,0,0);" transform="rotate(38.9,631.0,914.3)" >Languages</text>
<path d="M720.960,970.329 A1642.000,1642.000 40.000 0,1 724.774,965.610 L695.262,941.672 A1680.000,1680.000 0.000 0,0 691.360,946.500 Z" style="stroke-width:2.0;stroke:rgb(255,255,255);stroke-linecap:round;fill:none;" />
<path d="M747.643,938.037 A1642.000,1642.000 40.000 0,1 884.635,794.959 L858.822,767.071 A1680.000,1680.000 0.000 0,0 718.660,913.461 Z" style="stroke-width:2.0;stroke:rgb(255,255,255);stroke-linecap:round;fill:rgb(88,40,138);" />
<text x="727.0" y="803.3" font-size="36.4px" font-family="CMUBright-Roman" style="text-anchor:end;fill:rgb(0,0,0);" transform="rotate(43.8,727.0,803.3)" >Biological-Sciences</text>
<path d="M747.643,938.037 A1642.000,1642.000 40.000 0,1 884.635,794.959 L858.822,767.071 A1680.000,1680.000 0.000 0,0 718.660,913.461 Z" style="stroke-width:2.0;stroke:rgb(255,255,255);stroke-linecap:round;fill:none;" />
<path d="M911.188,770.914 A1642.000,1642.000 40.000 0,1 969.888,721.316 L946.049,691.724 A1680.000,1680.000 0.000 0,0 885.990,742.470 Z" style="stroke-width:2.0;stroke:rgb(255,255,255);stroke-linecap:round;fill:rgb(115,65,165);" />
<text x="862.8" y="673.5" font-size="36.4px" font-family="CMUBright-Roman" style="text-anchor:end;fill:rgb(0,0,0);" transform="rotate(49.8,862.8,673.5)" >Health-Wellness</text>
<path d="M911.188,770.914 A1642.000,1642.000 40.000 0,1 969.888,721.316 L946.049,691.724 A1680.000,1680.000 0.000 0,0 885.990,742.470 Z" style="stroke-width:2.0;stroke:rgb(255,255,255);stroke-linecap:round;fill:none;" />
<path d="M998.028,699.148 A1642.000,1642.000 40.000 0,1 1023.858,679.655 L1001.267,649.099 A1680.000,1680.000 0.000 0,0 974.840,669.043 Z" style="stroke-width:2.0;stroke:rgb(255,255,255);stroke-linecap:round;fill:rgb(140,92,188);" />
<text x="935.2" y="614.8" font-size="36.4px" font-family="CMUBright-Roman" style="text-anchor:end;fill:rgb(0,0,0);" transform="rotate(53.0,935.2,614.8)" >Physical-Sciences</text>
<path d="M998.028,699.148 A1642.000,1642.000 40.000 0,1 1023.858,679.655 L1001.267,649.099 A1680.000,1680.000 0.000 0,0 974.840,669.043 Z" style="stroke-width:2.0;stroke:rgb(255,255,255);stroke-linecap:round;fill:none;" />
<path d="M1052.893,658.675 A1642.000,1642.000 40.000 0,1 1064.493,650.559 L1042.843,619.329 A1680.000,1680.000 0.000 0,0 1030.975,627.633 Z" style="stroke-width:2.0;stroke:rgb(255,255,255);stroke-linecap:round;fill:rgb(165,120,208);" />
<text x="988.2" y="575.6" font-size="36.4px" font-family="CMUBright-Roman" style="text-anchor:end;fill:rgb(0,0,0);" transform="rotate(55.0,988.2,575.6)" >Environmental-Sciences</text>
<path d="M1052.893,658.675 A1642.000,1642.000 40.000 0,1 1064.493,650.559 L1042.843,619.329 A1680.000,1680.000 0.000 0,0 1030.975,627.633 Z" style="stroke-width:2.0;stroke:rgb(255,255,255);stroke-linecap:round;fill:none;" />
<path d="M1094.154,630.472 A1642.000,1642.000 40.000 0,1 1594.822,408.776 L1585.445,371.951 A1680.000,1680.000 0.000 0,0 1073.190,598.778 Z" style="stroke-width:2.0;stroke:rgb(255,255,255);stroke-linecap:round;fill:rgb(22,118,50);" />
<text x="1278.0" y="409.0" font-size="36.4px" font-family="CMUBright-Roman" style="text-anchor:end;fill:rgb(0,0,0);" transform="rotate(66.1,1278.0,409.0)" >Engineering-Disciplines</text>
<path d="M1094.154,630.472 A1642.000,1642.000 40.000 0,1 1594.822,408.776 L1585.445,371.951 A1680.000,1680.000 0.000 0,0 1073.190,598.778 Z" style="stroke-width:2.0;stroke:rgb(255,255,255);stroke-linecap:round;fill:none;" />
<path d="M1629.631,400.315 A1642.000,1642.000 40.000 0,1 1964.180,358.391 L1963.351,320.400 A1680.000,1680.000 0.000 0,0 1621.060,363.295 Z" style="stroke-width:2.0;stroke:rgb(255,255,255);stroke-linecap:round;fill:rgb(48,158,75);" />
<text x="1767.4" y="268.4" font-size="36.4px" font-family="CMUBright-Roman" style="text-anchor:end;fill:rgb(0,0,0);" transform="rotate(82.9,1767.4,268.4)" >Computer-Science-IT</text>
<path d="M1629.631,400.315 A1642.000,1642.000 40.000 0,1 1964.180,358.391 L1963.351,320.400 A1680.000,1680.000 0.000 0,0 1621.060,363.295 Z" style="stroke-width:2.0;stroke:rgb(255,255,255);stroke-linecap:round;fill:none;" />
</g>
<g id="track_0">
<path d="M 874.110,3172.553 A 1625.580,1625.580 0.00 0,1 872.7,3171.2 L 872.7,3171.2 912.2,3131.6 953.5,3093.3 996.2,3056.6 1040.4,3021.7 1085.7,2988.7 1132.1,2957.9 1179.3,2929.5 1227.3,2903.6 1275.8,2880.4 1324.8,2860.0 1374.0,2842.5 1423.4,2828.1 1472.8,2816.8 1522.1,2808.7 1571.2,2803.9 1619.8,2802.4 1668.0,2804.3 1715.6,2809.5 1762.5,2818.1 1808.5,2830.1 1853.6,2845.5 1897.7,2864.1 1940.7,2885.9 1982.5,2911.0 2023.0,2939.1 2062.1,2970.1 2099.7,3004.1 2135.8,3040.8 2170.3,3080.0 2203.1,3121.7 2234.1,3165.6 2263.4,3211.6 2290.8,3259.5 2316.2,3309.0 2339.7,3359.9 2361.2,3411.9 2380.7,3464.8 2398.0,3518.3 2413.3,3572.2  A 1625.580,1625.580 0.00 0,1 2411.3,3572.7 L 2411.3,3572.7 2396.2,3518.8 2378.9,3465.3 2359.5,3412.4 2338.1,3360.3 2314.7,3309.4 2289.3,3260.0 2262.0,3212.1 2232.8,3166.1 2201.9,3122.2 2169.2,3080.5 2134.8,3041.2 2098.8,3004.5 2061.3,2970.6 2022.3,2939.5 1981.9,2911.4 1940.2,2886.4 1897.3,2864.6 1853.3,2846.0 1808.3,2830.7 1762.4,2818.7 1715.6,2810.1 1668.1,2804.9 1620.0,2803.1 1571.4,2804.6 1522.5,2809.4 1473.3,2817.6 1424.0,2828.9 1374.7,2843.4 1325.5,2860.9 1276.6,2881.3 1228.2,2904.6 1180.3,2930.5 1133.1,2959.0 1086.8,2989.9 1041.6,3022.9 997.5,3057.9 954.8,3094.6 913.6,3132.9 874.1,3172.6  Z" style="stroke-width: 0.0;  fill: rgb(28,75,160);" />
<path d="M 872.666,3171.166 A 1625.580,1625.580 0.00 0,1 871.2,3169.8 L 871.2,3169.8 912.2,3129.0 955.5,3089.6 1000.7,3051.7 1047.9,3015.4 1096.8,2981.0 1147.3,2948.7 1199.3,2918.5 1252.6,2890.6 1307.1,2865.1 1362.7,2842.2 1419.1,2821.9 1476.4,2804.4 1534.3,2789.8 1592.7,2778.0 1651.4,2769.1 1710.4,2763.3 1769.6,2760.5 1828.7,2760.7 1887.6,2764.0 1946.3,2770.3 2004.6,2779.7 2062.4,2792.2 2119.6,2807.6 2176.0,2825.9 2231.5,2847.1 2286.0,2871.1 2339.4,2897.8 2391.6,2927.2 2442.4,2959.0 2491.8,2993.3 2539.6,3029.8 2585.7,3068.5 2630.0,3109.1 2672.4,3151.5 2712.9,3195.6 2751.2,3241.1 2787.3,3287.8 2821.0,3335.6 2852.4,3384.2  A 1625.580,1625.580 0.00 0,1 2850.7,3385.2 L 2850.7,3385.2 2819.4,3336.6 2785.7,3288.8 2749.7,3242.1 2711.4,3196.5 2671.1,3152.5 2628.8,3110.0 2584.5,3069.3 2538.5,3030.7 2490.8,2994.1 2441.5,2959.8 2390.7,2927.9 2338.7,2898.6 2285.3,2871.8 2230.9,2847.8 2175.5,2826.6 2119.2,2808.3 2062.1,2792.9 2004.4,2780.5 1946.2,2771.1 1887.6,2764.7 1828.7,2761.4 1769.7,2761.2 1710.7,2764.1 1651.7,2769.9 1593.1,2778.8 1534.8,2790.6 1477.0,2805.3 1419.8,2822.9 1363.4,2843.2 1307.9,2866.1 1253.5,2891.6 1200.3,2919.5 1148.3,2949.8 1097.9,2982.2 1049.1,3016.6 1002.0,3052.9 956.8,3090.9 913.6,3130.4 872.7,3171.2  Z" style="stroke-width: 0.0;  fill: rgb(28,75,160);" />
<path d="M 871.224,3169.776 A 1625.580,1625.580 0.00 0,1 868.3,3167.0 L 868.3,3167.0 910.5,3125.4 955.0,3085.1 1001.9,3046.2 1050.9,3008.8 1102.0,2973.2 1155.0,2939.4 1209.7,2907.5 1266.1,2877.8 1324.0,2850.2 1383.2,2825.0 1443.7,2802.1 1505.2,2781.7 1567.7,2763.8 1631.0,2748.5 1695.0,2735.9 1759.6,2725.9 1824.6,2718.7 1889.9,2714.3 1955.3,2712.6 2020.7,2713.7 2086.1,2717.6 2151.1,2724.2 2215.8,2733.6 2280.0,2745.7 2343.6,2760.5 2406.3,2777.9 2468.2,2797.9 2529.0,2820.3 2588.7,2845.2 2647.0,2872.5 2703.9,2902.0 2759.3,2933.6 2812.9,2967.3 2864.7,3002.8 2914.6,3040.2 2962.3,3079.2 3007.9,3119.6 3051.1,3161.4 3091.7,3204.4  A 1625.580,1625.580 0.00 0,1 3088.8,3207.1 L 3088.8,3207.1 3048.2,3164.1 3005.2,3122.2 2959.8,3081.6 2912.2,3042.6 2862.4,3005.1 2810.8,2969.5 2757.3,2935.7 2702.1,2904.0 2645.3,2874.5 2587.1,2847.2 2527.7,2822.2 2467.0,2799.7 2405.3,2779.6 2342.7,2762.2 2279.3,2747.4 2215.2,2735.3 2150.7,2725.8 2085.8,2719.2 2020.6,2715.3 1955.3,2714.2 1890.1,2715.9 1825.0,2720.4 1760.1,2727.6 1695.7,2737.6 1631.9,2750.2 1568.7,2765.6 1506.4,2783.5 1445.0,2804.0 1384.7,2826.9 1325.6,2852.3 1267.9,2879.9 1211.7,2909.7 1157.1,2941.7 1104.2,2975.5 1053.3,3011.3 1004.4,3048.7 957.6,3087.7 913.2,3128.1 871.2,3169.8  Z" style="stroke-width: 0.0;  fill: rgb(28,75,160);" />
<path d="M 868.346,3166.992 A 1625.580,1625.580 0.00 0,1 862.6,3161.4 L 862.6,3161.4 906.0,3119.0 952.1,3077.7 1000.7,3037.7 1051.6,2999.1 1104.8,2961.9 1160.2,2926.4 1217.5,2892.7 1276.7,2860.7 1337.6,2830.6 1400.1,2802.5 1464.1,2776.4 1529.4,2752.5 1595.9,2730.7 1663.4,2711.2 1731.9,2694.0 1801.2,2679.1 1871.1,2666.6 1941.6,2656.4 2012.4,2648.7 2083.5,2643.4 2154.8,2640.6 2225.9,2640.2 2297.0,2642.3 2367.7,2646.8 2438.0,2653.7 2507.7,2663.0 2576.7,2674.7 2644.8,2688.7 2711.9,2705.0 2777.9,2723.6 2842.5,2744.4 2905.8,2767.2 2967.5,2792.2 3027.5,2819.1 3085.6,2848.0 3141.7,2878.6 3195.6,2911.0 3247.3,2945.1 3296.5,2980.6  A 1625.580,1625.580 0.00 0,1 3291.7,2987.0 L 3291.7,2987.0 3242.7,2951.2 3191.3,2917.0 3137.6,2884.4 3081.7,2853.6 3023.8,2824.5 2964.1,2797.4 2902.7,2772.2 2839.7,2749.1 2775.3,2728.2 2709.6,2709.5 2642.7,2693.0 2574.9,2678.8 2506.1,2667.0 2436.7,2657.5 2366.7,2650.5 2296.3,2645.9 2225.5,2643.8 2154.6,2644.1 2083.7,2646.9 2012.8,2652.2 1942.3,2659.9 1872.1,2670.0 1802.4,2682.6 1733.4,2697.5 1665.2,2714.8 1598.0,2734.4 1531.7,2756.3 1466.7,2780.3 1403.0,2806.5 1340.8,2834.7 1280.2,2865.0 1221.3,2897.1 1164.3,2931.1 1109.2,2966.7 1056.3,3004.0 1005.6,3042.8 957.3,3083.0 911.5,3124.4 868.3,3167.0  Z" style="stroke-width: 0.0;  fill: rgb(28,75,160);" />
<path d="M 862.610,3161.402 A 1625.580,1625.580 0.00 0,1 861.2,3160.0 L 861.2,3160.0 907.3,3114.9 956.3,3070.5 1008.0,3027.0 1062.3,2984.3 1119.0,2942.5 1178.1,2901.7 1239.4,2861.9 1302.7,2823.1 1368.0,2785.4 1435.0,2748.8 1503.8,2713.4 1574.1,2679.1 1645.9,2646.2 1718.9,2614.4 1793.1,2584.0 1868.4,2555.0 1944.5,2527.4 2021.4,2501.2 2099.0,2476.5 2177.1,2453.3 2255.6,2431.6 2334.4,2411.6 2413.3,2393.2 2492.2,2376.4 2570.9,2361.4 2649.4,2348.1 2727.6,2336.5 2805.2,2326.8 2882.1,2319.0 2958.3,2313.0 3033.6,2309.0 3107.8,2306.9 3180.9,2306.8 3252.6,2308.8 3323.0,2312.8 3391.7,2318.9 3458.8,2327.2 3524.1,2337.6 3587.4,2350.2  A 1625.580,1625.580 0.00 0,1 3587.0,2352.2 L 3587.0,2352.2 3523.7,2339.5 3458.5,2329.0 3391.4,2320.7 3322.7,2314.5 3252.4,2310.4 3180.6,2308.3 3107.6,2308.4 3033.4,2310.4 2958.2,2314.4 2882.0,2320.3 2805.1,2328.1 2727.5,2337.7 2649.5,2349.2 2571.0,2362.4 2492.3,2377.5 2413.4,2394.2 2334.6,2412.6 2255.8,2432.6 2177.4,2454.2 2099.3,2477.4 2021.8,2502.1 1944.9,2528.3 1868.8,2555.9 1793.6,2585.0 1719.5,2615.4 1646.5,2647.1 1574.8,2680.1 1504.5,2714.4 1435.8,2749.8 1368.8,2786.4 1303.6,2824.2 1240.3,2863.0 1179.1,2902.9 1120.1,2943.7 1063.5,2985.5 1009.2,3028.2 957.6,3071.8 908.7,3116.2 862.6,3161.4  Z" style="stroke-width: 0.0;  fill: rgb(28,75,160);" />
<path d="M 861.180,3160.000 A 1625.580,1625.580 0.00 0,1 845.6,3144.5 L 845.6,3144.5 894.4,3097.7 946.0,3051.5 1000.1,3005.8 1056.7,2960.5 1115.7,2915.7 1176.8,2871.4 1240.0,2827.5 1305.0,2784.2 1371.9,2741.3 1440.4,2698.9 1510.4,2657.0 1581.9,2615.7 1654.6,2574.9 1728.4,2534.6 1803.3,2495.0 1879.1,2456.0 1955.6,2417.7 2032.9,2380.2 2110.7,2343.3 2188.9,2307.3 2267.4,2272.2 2346.2,2237.9 2425.1,2204.7 2504.0,2172.5 2582.8,2141.3 2661.3,2111.4 2739.6,2082.7 2817.5,2055.3 2894.8,2029.3 2971.6,2004.9 3047.7,1981.9 3122.9,1960.7 3197.3,1941.2 3270.7,1923.6 3343.1,1908.0 3414.3,1894.4 3484.2,1883.0 3552.9,1873.9 3620.1,1867.2  A 1625.580,1625.580 0.00 0,1 3621.8,1889.1 L 3621.8,1889.1 3554.7,1894.9 3486.2,1903.1 3416.4,1913.6 3345.3,1926.3 3273.1,1941.1 3199.8,1958.0 3125.5,1976.7 3050.4,1997.1 2974.4,2019.4 2897.8,2043.2 2820.5,2068.5 2742.8,2095.4 2664.7,2123.5 2586.2,2153.0 2507.6,2183.7 2428.9,2215.6 2350.3,2248.6 2271.7,2282.6 2193.4,2317.5 2115.5,2353.4 2038.0,2390.2 1961.1,2427.7 1884.9,2466.1 1809.5,2505.1 1735.1,2544.9 1661.7,2585.3 1589.4,2626.3 1518.5,2667.9 1449.0,2710.1 1381.1,2752.9 1314.8,2796.1 1250.4,2839.9 1187.9,2884.2 1127.4,2928.9 1069.2,2974.2 1013.3,3019.9 960.0,3066.1 909.2,3112.8 861.2,3160.0  Z" style="stroke-width: 0.0;  fill: rgb(28,75,160);" />
<path d="M 845.568,3144.464 A 1625.580,1625.580 0.00 0,1 738.6,3025.3 L 738.6,3025.3 794.7,2980.9 853.2,2936.8 913.8,2892.9 976.4,2849.3 1040.9,2805.8 1107.0,2762.3 1174.7,2718.8 1243.7,2675.3 1314.0,2631.6 1385.5,2587.9 1457.9,2544.0 1531.2,2499.9 1605.2,2455.7 1679.9,2411.3 1755.1,2366.7 1830.7,2322.0 1906.7,2277.1 1982.8,2232.1 2059.1,2187.0 2135.4,2141.8 2211.6,2096.7 2287.8,2051.7 2363.7,2006.7 2439.3,1962.0 2514.6,1917.6 2589.5,1873.6 2663.9,1830.0 2737.9,1787.0 2811.2,1744.6 2884.0,1703.1 2956.1,1662.5 3027.5,1623.0 3098.2,1584.6 3168.1,1547.6 3237.3,1512.1 3305.7,1478.3 3373.3,1446.3 3440.2,1416.3 3506.2,1388.5  A 1625.580,1625.580 0.00 0,1 3559.0,1539.6 L 3559.0,1539.6 3492.5,1560.3 3425.1,1583.5 3356.7,1608.9 3287.4,1636.3 3217.2,1665.7 3146.3,1697.0 3074.6,1729.8 3002.1,1764.2 2929.0,1800.1 2855.3,1837.2 2781.1,1875.5 2706.4,1914.9 2631.3,1955.2 2555.9,1996.4 2480.3,2038.4 2404.4,2081.1 2328.5,2124.4 2252.6,2168.2 2176.8,2212.6 2101.1,2257.3 2025.8,2302.4 1950.8,2347.8 1876.2,2393.5 1802.3,2439.4 1729.1,2485.5 1656.6,2531.7 1585.1,2578.1 1514.6,2624.6 1445.3,2671.1 1377.3,2717.8 1310.7,2764.6 1245.6,2811.5 1182.3,2858.6 1120.7,2905.7 1061.2,2953.0 1003.7,3000.5 948.5,3048.2 895.8,3096.2 845.6,3144.5  Z" style="stroke-width: 0.0;  fill: rgb(28,75,160);" />
<path d="M 738.576,3025.339 A 1625.580,1625.580 0.00 0,1 712.5,2992.4 L 712.5,2992.4 770.7,2946.5 829.3,2898.8 888.3,2849.3 947.7,2798.4 1007.6,2746.1 1068.0,2692.6 1129.0,2638.2 1190.6,2582.9 1252.9,2527.0 1315.7,2470.6 1379.3,2413.7 1443.5,2356.6 1508.3,2299.4 1573.7,2242.1 1639.8,2185.0 1706.5,2127.9 1773.7,2071.2 1841.4,2014.7 1909.6,1958.6 1978.3,1903.0 2047.2,1847.9 2116.5,1793.3 2185.9,1739.3 2255.5,1685.9 2325.2,1633.1 2394.7,1580.9 2464.1,1529.3 2533.3,1478.4 2602.0,1428.0 2670.3,1378.2 2737.9,1328.9 2804.7,1280.0 2870.6,1231.6 2935.4,1183.5 2998.9,1135.8 3061.1,1088.2 3121.7,1040.8 3180.5,993.3 3237.4,945.8  A 1625.580,1625.580 0.00 0,1 3264.3,978.2 L 3264.3,978.2 3206.7,1025.6 3148.9,1074.9 3090.6,1125.8 3032.0,1178.1 2972.8,1231.6 2913.1,1286.3 2852.9,1341.8 2792.0,1398.0 2730.4,1454.8 2668.2,1512.1 2605.4,1569.6 2541.8,1627.3 2477.5,1685.0 2412.6,1742.7 2347.0,1800.2 2280.8,1857.5 2213.9,1914.4 2146.5,1970.9 2078.5,2026.9 2010.0,2082.4 1941.2,2137.3 1871.9,2191.5 1802.4,2245.2 1732.7,2298.1 1662.9,2350.4 1593.0,2402.0 1523.2,2452.9 1453.6,2503.1 1384.3,2552.7 1315.4,2601.7 1247.1,2650.2 1179.5,2698.1 1112.7,2745.6 1046.9,2792.7 982.2,2839.4 918.9,2886.0 857.1,2932.4 796.9,2978.8 738.6,3025.3  Z" style="stroke-width: 0.0;  fill: rgb(28,75,160);" />
<path d="M 712.479,2992.371 A 1625.580,1625.580 0.00 0,1 711.3,2990.8 L 711.3,2990.8 766.4,2947.1 821.7,2900.9 877.2,2852.3 932.8,2801.6 988.6,2748.9 1044.6,2694.3 1100.8,2638.1 1157.2,2580.2 1213.8,2520.9 1270.7,2460.4 1327.7,2398.6 1384.9,2335.9 1442.3,2272.2 1499.8,2207.7 1557.4,2142.5 1615.0,2076.8 1672.6,2010.5 1730.2,1943.9 1787.7,1876.9 1845.0,1809.7 1902.1,1742.4 1958.8,1675.1 2015.2,1607.7 2071.0,1540.4 2126.3,1473.3 2181.0,1406.4 2234.8,1339.7 2287.8,1273.3 2339.8,1207.3 2390.6,1141.6 2440.2,1076.3 2488.5,1011.5 2535.2,947.1 2580.3,883.2 2623.5,819.8 2664.9,757.0 2704.1,694.6 2741.0,632.7 2775.4,571.3  A 1625.580,1625.580 0.00 0,1 2777.2,572.3 L 2777.2,572.3 2742.7,633.6 2705.6,695.5 2666.4,757.8 2625.0,820.7 2581.6,884.1 2536.5,947.9 2489.7,1012.3 2441.4,1077.1 2391.7,1142.3 2340.8,1208.0 2288.8,1274.0 2235.8,1340.4 2181.9,1407.1 2127.2,1474.0 2071.9,1541.1 2016.0,1608.4 1959.6,1675.7 1902.9,1743.1 1845.8,1810.4 1788.5,1877.6 1731.0,1944.5 1673.4,2011.2 1615.8,2077.5 1558.2,2143.3 1500.6,2208.5 1443.1,2273.0 1385.8,2336.7 1328.6,2399.5 1271.5,2461.3 1214.7,2521.9 1158.1,2581.2 1101.7,2639.1 1045.6,2695.5 989.6,2750.1 933.9,2802.9 878.3,2853.7 822.9,2902.3 767.6,2948.6 712.5,2992.4  Z" style="stroke-width: 0.0;  fill: rgb(28,75,160);" />
<path d="M 711.258,2990.785 A 1625.580,1625.580 0.00 0,1 638.3,2887.9 L 638.3,2887.9 691.8,2851.5 745.2,2812.1 798.2,2769.9 851.0,2725.0 903.3,2677.5 955.3,2627.6 1006.7,2575.3 1057.5,2520.8 1107.7,2464.2 1157.2,2405.7 1206.0,2345.2 1253.9,2283.0 1300.9,2219.2 1347.0,2153.8 1392.0,2087.1 1436.0,2019.1 1478.8,1949.9 1520.4,1879.7 1560.7,1808.5 1599.7,1736.6 1637.2,1664.0 1673.3,1590.8 1707.9,1517.1 1740.9,1443.1 1772.2,1369.0 1801.7,1294.7 1829.5,1220.4 1855.5,1146.3 1879.5,1072.5 1901.5,999.0 1921.5,926.0 1939.4,853.7 1955.1,782.1 1968.5,711.3 1979.7,641.5 1988.5,572.8 1994.8,505.3 1998.7,439.1 2000.0,374.4  A 1625.580,1625.580 0.00 0,1 2126.0,379.3 L 2126.0,379.3 2119.6,445.2 2110.7,512.5 2099.4,581.0 2085.6,650.7 2069.6,721.4 2051.5,793.1 2031.2,865.6 2009.0,938.9 1984.8,1012.8 1958.9,1087.3 1931.1,1162.3 1901.7,1237.6 1870.7,1313.1 1838.2,1388.8 1804.2,1464.4 1768.9,1540.0 1732.2,1615.5 1694.3,1690.6 1655.2,1765.3 1615.1,1839.4 1573.8,1912.9 1531.6,1985.7 1488.5,2057.6 1444.4,2128.5 1399.6,2198.3 1354.0,2266.9 1307.7,2334.1 1260.6,2399.9 1213.0,2464.0 1164.8,2526.5 1116.1,2587.1 1066.8,2645.8 1017.1,2702.4 967.0,2756.7 916.5,2808.7 865.6,2858.3 814.5,2905.2 763.0,2949.4 711.3,2990.8  Z" style="stroke-width: 0.0;  fill: rgb(28,75,160);" />
</g>
<defs>
<pattern id="checker" width="10" height="10" patternTransform="rotate(45 0 0)" patternUnits="userSpaceOnUse"><line x1="0" y1="0" x2="10" y2="0" style="stroke:black;stroke-width:2" /><line x1="0" y1="0" x2="0" y2="10" style="stroke:black;stroke-width:2" /></pattern>
<pattern id="vline" width="10" height="10" patternTransform="rotate(0 0 0)" patternUnits="userSpaceOnUse"><line x1="0" y1="0" x2="0" y2="10" style="stroke:black;stroke-width:5" /></pattern>
<pattern id="hline" width="10" height="10" patternTransform="rotate(0 0 0)" patternUnits="userSpaceOnUse"><line x1="0" y1="0" x2="10" y2="0" style="stroke:black;stroke-width:5" /></pattern>
<pattern id="checker" width="10" height="10" patternTransform="rotate(45 0 0)" patternUnits="userSpaceOnUse"><line x1="0" y1="0" x2="10" y2="0" style="stroke:black;stroke-width:5" /><line x1="0" y1="0" x2="0" y2="10" style="stroke:black;stroke-width:4" /></pattern>
<pattern id="hline-sparse" width="10" height="10" patternTransform="rotate(0 0 0)" patternUnits="userSpaceOnUse"><line x1="0" y1="0" x2="10" y2="0" style="stroke:black;stroke-width:2" /></pattern>
<pattern id="vline-sparse" width="10" height="10" patternTransform="rotate(0 0 0)" patternUnits="userSpaceOnUse"><line x1="0" y1="0" x2="0" y2="10" style="stroke:black;stroke-width:2" /></pattern>
</defs>
</svg>
