<?xml version="1.0" encoding="utf-8" standalone="no"?>
<!DOCTYPE svg PUBLIC "-//W3C//DTD SVG 1.1//EN" "http://www.w3.org/Graphics/SVG/1.1/DTD/svg11.dtd">
<svg width="4000px" height="4000px" version="1.1" xmlns="http://www.w3.org/2000/svg" xmlns:xlink="http://www.w3.org/1999/xlink">
<g id="bg">
<rect x="0" y="0" width="4000px" height="4000px" style="fill:rgb(255,255,255);"/>
</g>
<g id="ideograms">
<path d="M2000.000,358.000 A1642.000,1642.000 40.000 0,1 2751.610,540.121 L2769.004,506.336 A1680.000,1680.000 0.000 0,0 2000.000,320.000 Z" style="stroke-width:2.0;stroke:rgb(255,255,255);stroke-linecap:round;fill:rgb(185,185,185);" />
<text x="2427.0" y="305.8" font-size="36.4px" font-family="CMUBright-Roman" style="text-anchor:start;fill:rgb(0,0,0);" transform="rotate(283.6,2427.0,305.8)" >Management-Operations</text>
<path d="M2000.000,358.000 A1642.000,1642.000 40.000 0,1 2751.610,540.121 L2769.004,506.336 A1680.000,1680.000 0.000 0,0 2000.000,320.000 Z" style="stroke-width:2.0;stroke:rgb(255,255,255);stroke-linecap:round;fill:none;" />
<path d="M2783.279,556.865 A1642.000,1642.000 40.000 0,1 3226.411,908.176 L3254.793,882.908 A1680.000,1680.000 0.000 0,0 2801.406,523.467 Z" style="stroke-width:2.0;stroke:rgb(255,255,255);stroke-linecap:round;fill:rgb(185,185,185);" />
<text x="3097.5" y="640.5" font-size="36.4px" font-family="CMUBright-Roman" style="text-anchor:start;fill:rgb(0,0,0);" transform="rotate(308.4,3097.5,640.5)" >Engineering</text>
<path d="M2783.279,556.865 A1642.000,1642.000 40.000 0,1 3226.411,908.176 L3254.793,882.908 A1680.000,1680.000 0.000 0,0 2801.406,523.467 Z" style="stroke-width:2.0;stroke:rgb(255,255,255);stroke-linecap:round;fill:none;" />
<path d="M3249.937,935.189 A1642.000,1642.000 40.000 0,1 3507.538,1349.236 L3542.426,1334.176 A1680.000,1680.000 0.000 0,0 3278.864,910.547 Z" style="stroke-width:2.0;stroke:rgb(255,255,255);stroke-linecap:round;fill:rgb(185,185,185);" />
<text x="3491.6" y="1090.2" font-size="36.4px" font-family="CMUBright-Roman" style="text-anchor:start;fill:rgb(0,0,0);" transform="rotate(328.1,3491.6,1090.2)" >Leadership-General</text>
<path d="M3249.937,935.189 A1642.000,1642.000 40.000 0,1 3507.538,1349.236 L3542.426,1334.176 A1680.000,1680.000 0.000 0,0 3278.864,910.547 Z" style="stroke-width:2.0;stroke:rgb(255,255,255);stroke-linecap:round;fill:none;" />
<path d="M3521.375,1382.278 A1642.000,1642.000 40.000 0,1 3633.192,1830.154 L3670.988,1826.223 A1680.000,1680.000 0.000 0,0 3556.584,1367.982 Z" style="stroke-width:2.0;stroke:rgb(255,255,255);stroke-linecap:round;fill:rgb(185,185,185);" />
<text x="3699.0" y="1592.3" font-size="36.4px" font-family="CMUBright-Roman" style="text-anchor:start;fill:rgb(0,0,0);" transform="rotate(346.0,3699.0,1592.3)" >Sales-Marketing</text>
<path d="M3521.375,1382.278 A1642.000,1642.000 40.000 0,1 3633.192,1830.154 L3670.988,1826.223 A1680.000,1680.000 0.000 0,0 3556.584,1367.982 Z" style="stroke-width:2.0;stroke:rgb(255,255,255);stroke-linecap:round;fill:none;" />
<path d="M3636.509,1865.822 A1642.000,1642.000 40.000 0,1 3610.774,2318.704 L3648.051,2326.079 A1680.000,1680.000 0.000 0,0 3674.381,1862.717 Z" style="stroke-width:2.0;stroke:rgb(255,255,255);stroke-linecap:round;fill:rgb(185,185,185);" />
<text x="3743.6" y="2111.6" font-size="36.4px" font-family="CMUBright-Roman" style="text-anchor:start;fill:rgb(0,0,0);" transform="rotate(3.3,3743.6,2111.6)" >Finance-Investment</text>
<path d="M3636.509,1865.822 A1642.000,1642.000 40.000 0,1 3610.774,2318.704 L3648.051,2326.079 A1680.000,1680.000 0.000 0,0 3674.381,1862.717 Z" style="stroke-width:2.0;stroke:rgb(255,255,255);stroke-linecap:round;fill:none;" />
<path d="M3603.438,2353.767 A1642.000,1642.000 40.000 0,1 3499.856,2668.278 L3534.566,2683.744 A1680.000,1680.000 0.000 0,0 3640.546,2361.954 Z" style="stroke-width:2.0;stroke:rgb(255,255,255);stroke-linecap:round;fill:rgb(185,185,185);" />
<text x="3655.6" y="2558.4" font-size="36.4px" font-family="CMUBright-Roman" style="text-anchor:start;fill:rgb(0,0,0);" transform="rotate(18.2,3655.6,2558.4)" >Software-Data</text>
<path d="M3603.438,2353.767 A1642.000,1642.000 40.000 0,1 3499.856,2668.278 L3534.566,2683.744 A1680.000,1680.000 0.000 0,0 3640.546,2361.954 Z" style="stroke-width:2.0;stroke:rgb(255,255,255);stroke-linecap:round;fill:none;" />
<path d="M3484.921,2700.839 A1642.000,1642.000 40.000 0,1 3330.895,2961.708 L3361.695,2983.964 A1680.000,1680.000 0.000 0,0 3519.285,2717.058 Z" style="stroke-width:2.0;stroke:rgb(255,255,255);stroke-linecap:round;fill:rgb(185,185,185);" />
<text x="3498.1" y="2899.1" font-size="36.4px" font-family="CMUBright-Roman" style="text-anchor:start;fill:rgb(0,0,0);" transform="rotate(30.6,3498.1,2899.1)" >Education</text>
<path d="M3484.921,2700.839 A1642.000,1642.000 40.000 0,1 3330.895,2961.708 L3361.695,2983.964 A1680.000,1680.000 0.000 0,0 3519.285,2717.058 Z" style="stroke-width:2.0;stroke:rgb(255,255,255);stroke-linecap:round;fill:none;" />
<path d="M3309.599,2990.512 A1642.000,1642.000 40.000 0,1 3129.055,3192.225 L3155.184,3219.816 A1680.000,1680.000 0.000 0,0 3339.906,3013.435 Z" style="stroke-width:2.0;stroke:rgb(255,255,255);stroke-linecap:round;fill:rgb(185,185,185);" />
<text x="3293.5" y="3174.5" font-size="36.4px" font-family="CMUBright-Roman" style="text-anchor:start;fill:rgb(0,0,0);" transform="rotate(41.8,3293.5,3174.5)" >Research-Science</text>
<path d="M3309.599,2990.512 A1642.000,1642.000 40.000 0,1 3129.055,3192.225 L3155.184,3219.816 A1680.000,1680.000 0.000 0,0 3339.906,3013.435 Z" style="stroke-width:2.0;stroke:rgb(255,255,255);stroke-linecap:round;fill:none;" />
<path d="M3102.778,3216.571 A1642.000,1642.000 40.000 0,1 2891.302,3379.038 L2911.929,3410.952 A1680.000,1680.000 0.000 0,0 3128.299,3244.726 Z" style="stroke-width:2.0;stroke:rgb(255,255,255);stroke-linecap:round;fill:rgb(185,185,185);" />
<text x="3054.5" y="3393.1" font-size="36.4px" font-family="CMUBright-Roman" style="text-anchor:start;fill:rgb(0,0,0);" transform="rotate(52.5,3054.5,3393.1)" >Clinical-Care</text>
<path d="M3102.778,3216.571 A1642.000,1642.000 40.000 0,1 2891.302,3379.038 L2911.929,3410.952 A1680.000,1680.000 0.000 0,0 3128.299,3244.726 Z" style="stroke-width:2.0;stroke:rgb(255,255,255);stroke-linecap:round;fill:none;" />
<path d="M2861.006,3398.153 A1642.000,1642.000 40.000 0,1 2640.127,3512.085 L2654.941,3547.079 A1680.000,1680.000 0.000 0,0 2880.932,3430.510 Z" style="stroke-width:2.0;stroke:rgb(255,255,255);stroke-linecap:round;fill:rgb(185,185,185);" />
<text x="2786.7" y="3560.1" font-size="36.4px" font-family="CMUBright-Roman" style="text-anchor:start;fill:rgb(0,0,0);" transform="rotate(62.7,2786.7,3560.1)" >Accounting-Audit</text>
<path d="M2861.006,3398.153 A1642.000,1642.000 40.000 0,1 2640.127,3512.085 L2654.941,3547.079 A1680.000,1680.000 0.000 0,0 2880.932,3430.510 Z" style="stroke-width:2.0;stroke:rgb(255,255,255);stroke-linecap:round;fill:none;" />
<path d="M2606.988,3525.690 A1642.000,1642.000 40.000 0,1 2452.002,3578.562 L2462.463,3615.094 A1680.000,1680.000 0.000 0,0 2621.036,3560.998 Z" style="stroke-width:2.0;stroke:rgb(255,255,255);stroke-linecap:round;fill:rgb(185,185,185);" />
<text x="2552.3" y="3657.6" font-size="36.4px" font-family="CMUBright-Roman" style="text-anchor:start;fill:rgb(0,0,0);" transform="rotate(71.2,2552.3,3657.6)" >Social-Service</text>
<path d="M2606.988,3525.690 A1642.000,1642.000 40.000 0,1 2452.002,3578.562 L2462.463,3615.094 A1680.000,1680.000 0.000 0,0 2621.036,3560.998 Z" style="stroke-width:2.0;stroke:rgb(255,255,255);stroke-linecap:round;fill:none;" />
<path d="M2417.459,3588.047 A1642.000,1642.000 40.000 0,1 2320.910,3610.336 L2328.336,3647.603 A1680.000,1680.000 0.000 0,0 2427.120,3624.798 Z" style="stroke-width:2.0;stroke:rgb(255,255,255);stroke-linecap:round;fill:rgb(185,185,185);" />
<text x="2380.8" y="3705.2" font-size="36.4px" font-family="CMUBright-Roman" style="text-anchor:start;fill:rgb(0,0,0);" transform="rotate(77.0,2380.8,3705.2)" >IT-Infrastructure</text>
<path d="M2417.459,3588.047 A1642.000,1642.000 40.000 0,1 2320.910,3610.336 L2328.336,3647.603 A1680.000,1680.000 0.000 0,0 2427.120,3624.798 Z" style="stroke-width:2.0;stroke:rgb(255,255,255);stroke-linecap:round;fill:none;" />
<path d="M2285.704,3616.953 A1642.000,1642.000 40.000 0,1 2189.660,3631.010 L2194.050,3668.755 A1680.000,1680.000 0.000 0,0 2292.316,3654.373 Z" style="stroke-width:2.0;stroke:rgb(255,255,255);stroke-linecap:round;fill:rgb(185,185,185);" />
<text x="2237.2" y="3731.0" font-size="36.4px" font-family="CMUBright-Roman" style="text-anchor:start;fill:rgb(0,0,0);" transform="rotate(81.7,2237.2,3731.0)" >Legal-Policy</text>
<path d="M2285.704,3616.953 A1642.000,1642.000 40.000 0,1 2189.660,3631.010 L2194.050,3668.755 A1680.000,1680.000 0.000 0,0 2292.316,3654.373 Z" style="stroke-width:2.0;stroke:rgb(255,255,255);stroke-linecap:round;fill:none;" />
<path d="M2154.035,3634.759 A1642.000,1642.000 40.000 0,1 1474.020,3555.477 L1461.848,3591.475 A1680.000,1680.000 0.000 0,0 2157.600,3672.592 Z" style="stroke-width:2.0;stroke:rgb(255,255,255);stroke-linecap:round;fill:rgb(15,52,135);" />
<text x="1813.6" y="3737.2" font-size="36.4px" font-family="CMUBright-Roman" style="text-anchor:end;fill:rgb(0,0,0);" transform="rotate(-83.3,1813.6,3737.2)" >Finance-Accounting</text>
<path d="M2154.035,3634.759 A1642.000,1642.000 40.000 0,1 1474.020,3555.477 L1461.848,3591.475 A1680.000,1680.000 0.000 0,0 2157.600,3672.592 Z" style="stroke-width:2.0;stroke:rgb(255,255,255);stroke-linecap:round;fill:none;" />
<path d="M1440.213,3543.633 A1642.000,1642.000 40.000 0,1 888.845,3208.925 L863.130,3236.902 A1680.000,1680.000 0.000 0,0 1427.258,3579.356 Z" style="stroke-width:2.0;stroke:rgb(255,255,255);stroke-linecap:round;fill:rgb(42,98,180);" />
<text x="1104.1" y="3500.0" font-size="36.4px" font-family="CMUBright-Roman" style="text-anchor:end;fill:rgb(0,0,0);" transform="rotate(-58.7,1104.1,3500.0)" >General-Business</text>
<path d="M1440.213,3543.633 A1642.000,1642.000 40.000 0,1 888.845,3208.925 L863.130,3236.902 A1680.000,1680.000 0.000 0,0 1427.258,3579.356 Z" style="stroke-width:2.0;stroke:rgb(255,255,255);stroke-linecap:round;fill:none;" />
<path d="M862.737,3184.397 A1642.000,1642.000 40.000 0,1 624.574,2896.866 L592.744,2917.622 A1680.000,1680.000 0.000 0,0 836.418,3211.807 Z" style="stroke-width:2.0;stroke:rgb(255,255,255);stroke-linecap:round;fill:rgb(28,75,160);" />
<text x="664.7" y="3126.8" font-size="36.4px" font-family="CMUBright-Roman" style="text-anchor:end;fill:rgb(0,0,0);" transform="rotate(-39.6,664.7,3126.8)" >Marketing-Communication</text>
<path d="M862.737,3184.397 A1642.000,1642.000 40.000 0,1 624.574,2896.866 L592.744,2917.622 A1680.000,1680.000 0.000 0,0 836.418,3211.807 Z" style="stroke-width:2.0;stroke:rgb(255,255,255);stroke-linecap:round;fill:none;" />
<path d="M605.337,2866.648 A1642.000,1642.000 40.000 0,1 476.558,2612.607 L441.301,2626.784 A1680.000,1680.000 0.000 0,0 573.061,2886.704 Z" style="stroke-width:2.0;stroke:rgb(255,255,255);stroke-linecap:round;fill:rgb(60,120,198);" />
<text x="448.7" y="2803.8" font-size="36.4px" font-family="CMUBright-Roman" style="text-anchor:end;fill:rgb(0,0,0);" transform="rotate(-26.9,448.7,2803.8)" >Operations-Analytics</text>
<path d="M605.337,2866.648 A1642.000,1642.000 40.000 0,1 476.558,2612.607 L441.301,2626.784 A1680.000,1680.000 0.000 0,0 573.061,2886.704 Z" style="stroke-width:2.0;stroke:rgb(255,255,255);stroke-linecap:round;fill:none;" />
<path d="M463.556,2579.227 A1642.000,1642.000 40.000 0,1 407.419,2399.813 L370.563,2409.066 A1680.000,1680.000 0.000 0,0 427.999,2592.632 Z" style="stroke-width:2.0;stroke:rgb(255,255,255);stroke-linecap:round;fill:rgb(82,145,215);" />
<text x="337.2" y="2536.5" font-size="36.4px" font-family="CMUBright-Roman" style="text-anchor:end;fill:rgb(0,0,0);" transform="rotate(-17.4,337.2,2536.5)" >Specialized-Business</text>
<path d="M463.556,2579.227 A1642.000,1642.000 40.000 0,1 407.419,2399.813 L370.563,2409.066 A1680.000,1680.000 0.000 0,0 427.999,2592.632 Z" style="stroke-width:2.0;stroke:rgb(255,255,255);stroke-linecap:round;fill:none;" />
<path d="M399.076,2364.976 A1642.000,1642.000 40.000 0,1 366.776,2169.540 L328.979,2173.464 A1680.000,1680.000 0.000 0,0 362.027,2373.422 Z" style="stroke-width:2.0;stroke:rgb(255,255,255);stroke-linecap:round;fill:rgb(200,108,30);" />
<text x="278.3" y="2297.2" font-size="36.4px" font-family="CMUBright-Roman" style="text-anchor:end;fill:rgb(0,0,0);" transform="rotate(-9.4,278.3,2297.2)" >Social-Sciences</text>
<path d="M399.076,2364.976 A1642.000,1642.000 40.000 0,1 366.776,2169.540 L328.979,2173.464 A1680.000,1680.000 0.000 0,0 362.027,2373.422 Z" style="stroke-width:2.0;stroke:rgb(255,255,255);stroke-linecap:round;fill:none;" />
<path d="M363.466,2133.872 A1642.000,1642.000 40.000 0,1 358.290,2030.870 L320.297,2031.584 A1680.000,1680.000 0.000 0,0 325.593,2136.970 Z" style="stroke-width:2.0;stroke:rgb(255,255,255);stroke-linecap:round;fill:rgb(108,170,228);" />
<text x="255.6" y="2099.7" font-size="36.4px" font-family="CMUBright-Roman" style="text-anchor:end;fill:rgb(0,0,0);" transform="rotate(-2.9,255.6,2099.7)" >Economics</text>
<path d="M363.466,2133.872 A1642.000,1642.000 40.000 0,1 358.290,2030.870 L320.297,2031.584 A1680.000,1680.000 0.000 0,0 325.593,2136.970 Z" style="stroke-width:2.0;stroke:rgb(255,255,255);stroke-linecap:round;fill:none;" />
<path d="M358.007,1995.049 A1642.000,1642.000 40.000 0,1 358.807,1948.539 L320.825,1947.348 A1680.000,1680.000 0.000 0,0 320.008,1994.934 Z" style="stroke-width:2.0;stroke:rgb(255,255,255);stroke-linecap:round;fill:rgb(220,140,52);" />
<text x="252.9" y="1982.5" font-size="36.4px" font-family="CMUBright-Roman" style="text-anchor:end;fill:rgb(0,0,0);" transform="rotate(1.0,252.9,1982.5)" >Humanities-Liberal-Arts</text>
<path d="M358.007,1995.049 A1642.000,1642.000 40.000 0,1 358.807,1948.539 L320.825,1947.348 A1680.000,1680.000 0.000 0,0 320.008,1994.934 Z" style="stroke-width:2.0;stroke:rgb(255,255,255);stroke-linecap:round;fill:none;" />
<path d="M360.320,1912.749 A1642.000,1642.000 40.000 0,1 361.133,1898.615 L323.205,1896.269 A1680.000,1680.000 0.000 0,0 322.373,1910.730 Z" style="stroke-width:2.0;stroke:rgb(255,255,255);stroke-linecap:round;fill:rgb(235,168,78);" />
<text x="255.0" y="1912.1" font-size="36.4px" font-family="CMUBright-Roman" style="text-anchor:end;fill:rgb(0,0,0);" transform="rotate(3.3,255.0,1912.1)" >International-Studies</text>
<path d="M360.320,1912.749 A1642.000,1642.000 40.000 0,1 361.133,1898.615 L323.205,1896.269 A1680.000,1680.000 0.000 0,0 322.373,1910.730 Z" style="stroke-width:2.0;stroke:rgb(255,255,255);stroke-linecap:round;fill:none;" />
<path d="M363.735,1862.887 A1642.000,1642.000 40.000 0,1 391.336,1670.812 L354.108,1663.193 A1680.000,1680.000 0.000 0,0 325.867,1859.714 Z" style="stroke-width:2.0;stroke:rgb(255,255,255);stroke-linecap:round;fill:rgb(195,58,55);" />
<text x="268.8" y="1763.9" font-size="36.4px" font-family="CMUBright-Roman" style="text-anchor:end;fill:rgb(0,0,0);" transform="rotate(8.2,268.8,1763.9)" >Social-Work</text>
<path d="M363.735,1862.887 A1642.000,1642.000 40.000 0,1 391.336,1670.812 L354.108,1663.193 A1680.000,1680.000 0.000 0,0 325.867,1859.714 Z" style="stroke-width:2.0;stroke:rgb(255,255,255);stroke-linecap:round;fill:none;" />
<path d="M398.900,1635.797 A1642.000,1642.000 40.000 0,1 428.981,1522.439 L392.624,1511.387 A1680.000,1680.000 0.000 0,0 361.847,1627.368 Z" style="stroke-width:2.0;stroke:rgb(255,255,255);stroke-linecap:round;fill:rgb(175,35,42);" />
<text x="308.1" y="1564.0" font-size="36.4px" font-family="CMUBright-Roman" style="text-anchor:end;fill:rgb(0,0,0);" transform="rotate(14.9,308.1,1564.0)" >Teacher-Education</text>
<path d="M398.900,1635.797 A1642.000,1642.000 40.000 0,1 428.981,1522.439 L392.624,1511.387 A1680.000,1680.000 0.000 0,0 361.847,1627.368 Z" style="stroke-width:2.0;stroke:rgb(255,255,255);stroke-linecap:round;fill:none;" />
<path d="M439.773,1488.281 A1642.000,1642.000 40.000 0,1 474.975,1391.343 L439.682,1377.257 A1680.000,1680.000 0.000 0,0 403.666,1476.439 Z" style="stroke-width:2.0;stroke:rgb(255,255,255);stroke-linecap:round;fill:rgb(215,82,72);" />
<text x="352.5" y="1418.2" font-size="36.4px" font-family="CMUBright-Roman" style="text-anchor:end;fill:rgb(0,0,0);" transform="rotate(20.0,352.5,1418.2)" >Special-Education</text>
<path d="M439.773,1488.281 A1642.000,1642.000 40.000 0,1 474.975,1391.343 L439.682,1377.257 A1680.000,1680.000 0.000 0,0 403.666,1476.439 Z" style="stroke-width:2.0;stroke:rgb(255,255,255);stroke-linecap:round;fill:none;" />
<path d="M488.616,1358.220 A1642.000,1642.000 40.000 0,1 509.092,1311.991 L474.588,1296.068 A1680.000,1680.000 0.000 0,0 453.639,1343.368 Z" style="stroke-width:2.0;stroke:rgb(255,255,255);stroke-linecap:round;fill:rgb(230,112,95);" />
<text x="396.3" y="1306.6" font-size="36.4px" font-family="CMUBright-Roman" style="text-anchor:end;fill:rgb(0,0,0);" transform="rotate(23.9,396.3,1306.6)" >Educational-Leadership</text>
<path d="M488.616,1358.220 A1642.000,1642.000 40.000 0,1 509.092,1311.991 L474.588,1296.068 A1680.000,1680.000 0.000 0,0 453.639,1343.368 Z" style="stroke-width:2.0;stroke:rgb(255,255,255);stroke-linecap:round;fill:none;" />
<path d="M524.455,1279.630 A1642.000,1642.000 40.000 0,1 553.988,1222.045 L520.524,1204.041 A1680.000,1680.000 0.000 0,0 490.308,1262.959 Z" style="stroke-width:2.0;stroke:rgb(255,255,255);stroke-linecap:round;fill:rgb(0,130,142);" />
<text x="439.7" y="1213.8" font-size="36.4px" font-family="CMUBright-Roman" style="text-anchor:end;fill:rgb(0,0,0);" transform="rotate(27.2,439.7,1213.8)" >Communication-Studies</text>
<path d="M524.455,1279.630 A1642.000,1642.000 40.000 0,1 553.988,1222.045 L520.524,1204.041 A1680.000,1680.000 0.000 0,0 490.308,1262.959 Z" style="stroke-width:2.0;stroke:rgb(255,255,255);stroke-linecap:round;fill:none;" />
<path d="M571.303,1190.686 A1642.000,1642.000 40.000 0,1 588.562,1160.949 L555.898,1141.531 A1680.000,1680.000 0.000 0,0 538.240,1171.956 Z" style="stroke-width:2.0;stroke:rgb(255,255,255);stroke-linecap:round;fill:rgb(0,165,172);" />
<text x="482.6" y="1133.8" font-size="36.4px" font-family="CMUBright-Roman" style="text-anchor:end;fill:rgb(0,0,0);" transform="rotate(30.1,482.6,1133.8)" >Journalism-Media</text>
<path d="M571.303,1190.686 A1642.000,1642.000 40.000 0,1 588.562,1160.949 L555.898,1141.531 A1680.000,1680.000 0.000 0,0 538.240,1171.956 Z" style="stroke-width:2.0;stroke:rgb(255,255,255);stroke-linecap:round;fill:none;" />
<path d="M607.202,1130.358 A1642.000,1642.000 40.000 0,1 613.667,1120.089 L581.583,1099.725 A1680.000,1680.000 0.000 0,0 574.969,1110.233 Z" style="stroke-width:2.0;stroke:rgb(255,255,255);stroke-linecap:round;fill:rgb(38,195,195);" />
<text x="512.9" y="1082.8" font-size="36.4px" font-family="CMUBright-Roman" style="text-anchor:end;fill:rgb(0,0,0);" transform="rotate(32.2,512.9,1082.8)" >Creative-Writing</text>
<path d="M607.202,1130.358 A1642.000,1642.000 40.000 0,1 613.667,1120.089 L581.583,1099.725 A1680.000,1680.000 0.000 0,0 574.969,1110.233 Z" style="stroke-width:2.0;stroke:rgb(255,255,255);stroke-linecap:round;fill:none;" />
<path d="M633.192,1090.055 A1642.000,1642.000 40.000 0,1 667.742,1040.182 L636.910,1017.969 A1680.000,1680.000 0.000 0,0 601.560,1068.997 Z" style="stroke-width:2.0;stroke:rgb(255,255,255);stroke-linecap:round;fill:rgb(180,45,112);" />
<text x="554.7" y="1018.2" font-size="36.4px" font-family="CMUBright-Roman" style="text-anchor:end;fill:rgb(0,0,0);" transform="rotate(34.7,554.7,1018.2)" >Arts-Theology</text>
<path d="M633.192,1090.055 A1642.000,1642.000 40.000 0,1 667.742,1040.182 L636.910,1017.969 A1680.000,1680.000 0.000 0,0 601.560,1068.997 Z" style="stroke-width:2.0;stroke:rgb(255,255,255);stroke-linecap:round;fill:none;" />
<path d="M688.997,1011.347 A1642.000,1642.000 40.000 0,1 698.803,998.477 L668.690,975.299 A1680.000,1680.000 0.000 0,0 658.657,988.467 Z" style="stroke-width:2.0;stroke:rgb(255,255,255);stroke-linecap:round;fill:rgb(205,75,142);" />
<text x="600.6" y="953.9" font-size="36.4px" font-family="CMUBright-Roman" style="text-anchor:end;fill:rgb(0,0,0);" transform="rotate(37.3,600.6,953.9)" >English-Writing</text>
<path d="M688.997,1011.347 A1642.000,1642.000 40.000 0,1 698.803,998.477 L668.690,975.299 A1680.000,1680.000 0.000 0,0 658.657,988.467 Z" style="stroke-width:2.0;stroke:rgb(255,255,255);stroke-linecap:round;fill:none;" />
<path d="M720.960,970.329 A1642.000,1642.000 40.000 0,1 724.774,965.610 L695.262,941.672 A1680.000,1680.000 0.000 0,0 691.360,946.500 Z" style="stroke-width:2.0;stroke:rgb(255,255,255);stroke-linecap:round;fill:rgb(225,110,168);" />
<text x="631.0" y="914.3" font-size="36.4px" font-family="CMUBright-Roman" style="text-anchor:end;fill:rgb(0,0,0);" transform="rotate(38.9,631.0,914.3)" >Languages</text>
<path d="M720.960,970.329 A1642.000,1642.000 40.000 0,1 724.774,965.610 L695.262,941.672 A1680.000,1680.000 0.000 0,0 691.360,946.500 Z" style="stroke-width:2.0;stroke:rgb(255,255,255);stroke-linecap:round;fill:none;" />
<path d="M747.643,938.037 A1642.000,1642.000 40.000 0,1 884.635,794.959 L858.822,767.071 A1680.000,1680.000 0.000 0,0 718.660,913.461 Z" style="stroke-width:2.0;stroke:rgb(255,255,255);stroke-linecap:round;fill:rgb(88,40,138);" />
<text x="727.0" y="803.3" font-size="36.4px" font-family="CMUBright-Roman" style="text-anchor:end;fill:rgb(0,0,0);" transform="rotate(43.8,727.0,803.3)" >Biological-Sciences</text>
<path d="M747.643,938.037 A1642.000,1642.000 40.000 0,1 884.635,794.959 L858.822,767.071 A1680.000,1680.000 0.000 0,0 718.660,913.461 Z" style="stroke-width:2.0;stroke:rgb(255,255,255);stroke-linecap:round;fill:none;" />
<path d="M911.188,770.914 A1642.000,1642.000 40.000 0,1 969.888,721.316 L946.049,691.724 A1680.000,1680.000 0.000 0,0 885.990,742.470 Z" style="stroke-width:2.0;stroke:rgb(255,255,255);stroke-linecap:round;fill:rgb(115,65,165);" />
<text x="862.8" y="673.5" font-size="36.4px" font-family="CMUBright-Roman" style="text-anchor:end;fill:rgb(0,0,0);" transform="rotate(49.8,862.8,673.5)" >Health-Wellness</text>
<path d="M911.188,770.914 A1642.000,1642.000 40.000 0,1 969.888,721.316 L946.049,691.724 A1680.000,1680.000 0.000 0,0 885.990,742.470 Z" style="stroke-width:2.0;stroke:rgb(255,255,255);stroke-linecap:round;fill:none;" />
<path d="M998.028,699.148 A1642.000,1642.000 40.000 0,1 1023.858,679.655 L1001.267,649.099 A1680.000,1680.000 0.000 0,0 974.840,669.043 Z" style="stroke-width:2.0;stroke:rgb(255,255,255);stroke-linecap:round;fill:rgb(140,92,188);" />
<text x="935.2" y="614.8" font-size="36.4px" font-family="CMUBright-Roman" style="text-anchor:end;fill:rgb(0,0,0);" transform="rotate(53.0,935.2,614.8)" >Physical-Sciences</text>
<path d="M998.028,699.148 A1642.000,1642.000 40.000 0,1 1023.858,679.655 L1001.267,649.099 A1680.000,1680.000 0.000 0,0 974.840,669.043 Z" style="stroke-width:2.0;stroke:rgb(255,255,255);stroke-linecap:round;fill:none;" />
<path d="M1052.893,658.675 A1642.000,1642.000 40.000 0,1 1064.493,650.559 L1042.843,619.329 A1680.000,1680.000 0.000 0,0 1030.975,627.633 Z" style="stroke-width:2.0;stroke:rgb(255,255,255);stroke-linecap:round;fill:rgb(165,120,208);" />
<text x="988.2" y="575.6" font-size="36.4px" font-family="CMUBright-Roman" style="text-anchor:end;fill:rgb(0,0,0);" transform="rotate(55.0,988.2,575.6)" >Environmental-Sciences</text>
<path d="M1052.893,658.675 A1642.000,1642.000 40.000 0,1 1064.493,650.559 L1042.843,619.329 A1680.000,1680.000 0.000 0,0 1030.975,627.633 Z" style="stroke-width:2.0;stroke:rgb(255,255,255);stroke-linecap:round;fill:none;" />
<path d="M1094.154,630.472 A1642.000,1642.000 40.000 0,1 1594.822,408.776 L1585.445,371.951 A1680.000,1680.000 0.000 0,0 1073.190,598.778 Z" style="stroke-width:2.0;stroke:rgb(255,255,255);stroke-linecap:round;fill:rgb(22,118,50);" />
<text x="1278.0" y="409.0" font-size="36.4px" font-family="CMUBright-Roman" style="text-anchor:end;fill:rgb(0,0,0);" transform="rotate(66.1,1278.0,409.0)" >Engineering-Disciplines</text>
<path d="M1094.154,630.472 A1642.000,1642.000 40.000 0,1 1594.822,408.776 L1585.445,371.951 A1680.000,1680.000 0.000 0,0 1073.190,598.778 Z" style="stroke-width:2.0;stroke:rgb(255,255,255);stroke-linecap:round;fill:none;" />
<path d="M1629.631,400.315 A1642.000,1642.000 40.000 0,1 1964.180,358.391 L1963.351,320.400 A1680.000,1680.000 0.000 0,0 1621.060,363.295 Z" style="stroke-width:2.0;stroke:rgb(255,255,255);stroke-linecap:round;fill:rgb(48,158,75);" />
<text x="1767.4" y="268.4" font-size="36.4px" font-family="CMUBright-Roman" style="text-anchor:end;fill:rgb(0,0,0);" transform="rotate(82.9,1767.4,268.4)" >Computer-Science-IT</text>
<path d="M1629.631,400.315 A1642.000,1642.000 40.000 0,1 1964.180,358.391 L1963.351,320.400 A1680.000,1680.000 0.000 0,0 1621.060,363.295 Z" style="stroke-width:2.0;stroke:rgb(255,255,255);stroke-linecap:round;fill:none;" />
</g>
<g id="track_0">
<path d="M 2282.847,3600.784 A 1625.580,1625.580 0.00 0,1 2280.9,3601.1 L 2280.9,3601.1 2267.7,3532.2 2252.4,3462.0 2235.0,3390.6 2215.8,3318.1 2194.8,3244.5 2172.2,3169.9 2148.1,3094.2 2122.7,3017.7 2096.1,2940.4 2068.4,2862.2 2039.7,2783.4 2010.2,2703.9 1979.8,2623.9 1948.7,2543.4 1917.0,2462.6 1884.7,2381.4 1851.9,2300.1 1818.7,2218.6 1785.2,2137.1 1751.3,2055.7 1717.2,1974.5 1682.8,1893.5 1648.2,1812.9 1613.4,1732.8 1578.4,1653.3 1543.2,1574.5 1507.9,1496.6 1472.4,1419.6 1436.7,1343.7 1400.8,1268.9 1364.7,1195.5 1328.3,1123.6 1291.6,1053.2 1254.6,984.5 1217.2,917.8 1179.3,853.0 1141.0,790.3 1102.0,730.0 1062.4,672.1  A 1625.580,1625.580 0.00 0,1 1064.0,670.9 L 1064.0,670.9 1103.6,728.9 1142.5,789.3 1180.8,852.0 1218.6,916.9 1256.0,983.7 1292.9,1052.4 1329.6,1122.8 1365.9,1194.8 1402.0,1268.3 1437.8,1343.0 1473.5,1419.0 1508.9,1496.0 1544.2,1574.0 1579.4,1652.8 1614.3,1732.3 1649.1,1812.4 1683.7,1893.1 1718.1,1974.0 1752.3,2055.3 1786.1,2136.7 1819.7,2218.2 1852.9,2299.7 1885.7,2381.1 1918.0,2462.2 1949.7,2543.1 1980.9,2623.6 2011.3,2703.6 2040.9,2783.0 2069.7,2861.9 2097.4,2940.0 2124.1,3017.4 2149.5,3093.9 2173.7,3169.5 2196.3,3244.1 2217.4,3317.8 2236.7,3390.3 2254.2,3461.7 2269.6,3531.8 2282.8,3600.8  Z" style="stroke-width: 0.0;  fill: rgb(165,120,208);" />
<path d="M 2280.875,3601.131 A 1625.580,1625.580 0.00 0,1 2278.9,3601.5 L 2278.9,3601.5 2266.1,3535.1 2250.9,3467.5 2233.2,3398.8 2213.2,3329.0 2191.1,3258.4 2166.9,3186.8 2140.8,3114.4 2112.9,3041.3 2083.3,2967.6 2052.0,2893.3 2019.2,2818.5 1984.9,2743.4 1949.3,2667.9 1912.5,2592.3 1874.5,2516.5 1835.3,2440.8 1795.2,2365.1 1754.1,2289.6 1712.1,2214.5 1669.3,2139.7 1625.7,2065.4 1581.4,1991.8 1536.5,1918.8 1491.0,1846.7 1444.9,1775.6 1398.4,1705.5 1351.3,1636.6 1303.9,1569.1 1256.0,1502.9 1207.8,1438.3 1159.2,1375.4 1110.3,1314.3 1061.1,1255.2 1011.6,1198.1 961.8,1143.2 911.8,1090.7 861.5,1040.7 811.0,993.3 760.2,948.7  A 1625.580,1625.580 0.00 0,1 761.5,947.1 L 761.5,947.1 812.2,991.8 862.7,1039.3 913.0,1089.4 963.0,1142.0 1012.7,1196.9 1062.2,1254.1 1111.3,1313.3 1160.2,1374.4 1208.7,1437.4 1256.9,1502.0 1304.8,1568.2 1352.2,1635.9 1399.3,1704.8 1445.8,1774.9 1491.9,1846.1 1537.4,1918.2 1582.3,1991.2 1626.6,2064.9 1670.2,2139.2 1713.0,2214.0 1755.0,2289.2 1796.1,2364.7 1836.3,2440.3 1875.5,2516.1 1913.5,2591.9 1950.4,2667.5 1986.0,2743.0 2020.3,2818.1 2053.2,2892.9 2084.5,2967.2 2114.3,3040.9 2142.2,3114.0 2168.4,3186.4 2192.7,3258.0 2214.9,3328.7 2234.9,3398.4 2252.7,3467.1 2268.0,3534.7 2280.9,3601.1  Z" style="stroke-width: 0.0;  fill: rgb(88,40,138);" />
<path d="M 2278.903,3601.475 A 1625.580,1625.580 0.00 0,1 2276.9,3601.8 L 2276.9,3601.8 2264.4,3536.5 2249.2,3470.1 2231.5,3402.7 2211.4,3334.3 2188.9,3265.1 2164.3,3195.1 2137.5,3124.4 2108.7,3053.1 2077.9,2981.2 2045.4,2909.0 2011.1,2836.5 1975.1,2763.7 1937.6,2690.8 1898.6,2617.9 1858.2,2545.0 1816.4,2472.3 1773.5,2399.9 1729.4,2327.8 1684.1,2256.3 1637.9,2185.3 1590.7,2115.0 1542.7,2045.5 1493.8,1977.0 1444.2,1909.4 1393.9,1843.0 1342.9,1777.8 1291.4,1714.0 1239.4,1651.7 1186.9,1591.0 1134.0,1532.0 1080.8,1474.9 1027.2,1419.7 973.3,1366.6 919.3,1315.8 865.0,1267.2 810.6,1221.2 756.1,1177.7 701.5,1137.0 646.9,1099.2  A 1625.580,1625.580 0.00 0,1 648.0,1097.5 L 648.0,1097.5 702.6,1135.4 757.2,1176.2 811.6,1219.8 866.0,1265.9 920.2,1314.5 974.3,1365.4 1028.1,1418.6 1081.7,1473.8 1134.9,1531.0 1187.8,1590.1 1240.2,1650.8 1292.2,1713.2 1343.7,1777.0 1394.7,1842.2 1445.0,1908.7 1494.6,1976.3 1543.5,2044.9 1591.5,2114.4 1638.7,2184.7 1685.0,2255.7 1730.2,2327.3 1774.4,2399.4 1817.4,2471.8 1859.1,2544.6 1899.6,2617.4 1938.6,2690.4 1976.2,2763.3 2012.2,2836.1 2046.6,2908.6 2079.2,2980.9 2110.0,3052.7 2138.9,3124.0 2165.8,3194.7 2190.5,3264.7 2213.0,3334.0 2233.2,3402.3 2251.0,3469.8 2266.3,3536.2 2278.9,3601.5  Z" style="stroke-width: 0.0;  fill: rgb(180,45,112);" />
<path d="M 2276.930,3601.818 A 1625.580,1625.580 0.00 0,1 2275.0,3602.2 L 2275.0,3602.2 2262.5,3537.2 2247.5,3471.1 2229.8,3403.9 2209.7,3335.9 2187.3,3267.0 2162.5,3197.4 2135.7,3127.1 2106.7,3056.3 2075.8,2984.9 2043.0,2913.3 2008.4,2841.3 1972.1,2769.1 1934.2,2696.9 1894.8,2624.7 1853.9,2552.6 1811.6,2480.7 1768.0,2409.2 1723.2,2338.0 1677.3,2267.4 1630.4,2197.4 1582.4,2128.2 1533.5,2059.8 1483.7,1992.4 1433.2,1926.1 1382.0,1861.0 1330.0,1797.1 1277.5,1734.7 1224.5,1673.8 1171.0,1614.5 1117.0,1557.0 1062.7,1501.4 1008.1,1447.8 953.2,1396.3 898.1,1347.1 842.9,1300.2 787.5,1255.9 732.1,1214.1 676.6,1175.2 621.1,1139.1  A 1625.580,1625.580 0.00 0,1 622.2,1137.4 L 622.2,1137.4 677.6,1173.5 733.1,1212.6 788.5,1254.4 843.8,1298.8 899.1,1345.8 954.1,1395.1 1009.0,1446.6 1063.6,1500.3 1117.9,1556.0 1171.8,1613.5 1225.3,1672.8 1278.3,1733.8 1330.8,1796.3 1382.7,1860.2 1434.0,1925.4 1484.5,1991.8 1534.3,2059.2 1583.2,2127.6 1631.2,2196.9 1678.2,2266.9 1724.1,2337.5 1768.9,2408.7 1812.5,2480.2 1854.8,2552.1 1895.8,2624.3 1935.3,2696.5 1973.2,2768.7 2009.6,2840.9 2044.2,2912.9 2077.1,2984.6 2108.1,3055.9 2137.1,3126.7 2164.0,3197.0 2188.8,3266.6 2211.4,3335.5 2231.5,3403.6 2249.3,3470.7 2264.4,3536.8 2276.9,3601.8  Z" style="stroke-width: 0.0;  fill: rgb(38,195,195);" />
<path d="M 2274.956,3602.158 A 1625.580,1625.580 0.00 0,1 2273.0,3602.5 L 2273.0,3602.5 2261.3,3541.8 2246.7,3480.5 2229.4,3418.6 2209.3,3356.3 2186.5,3293.8 2161.0,3231.2 2133.0,3168.7 2102.4,3106.3 2069.4,3044.3 2033.9,2982.7 1996.2,2921.7 1956.2,2861.4 1914.0,2802.0 1869.7,2743.5 1823.4,2686.1 1775.2,2629.8 1725.1,2574.8 1673.3,2521.3 1619.9,2469.2 1564.9,2418.7 1508.4,2369.8 1450.6,2322.8 1391.6,2277.6 1331.4,2234.3 1270.3,2193.0 1208.2,2153.9 1145.4,2116.9 1081.9,2082.2 1018.0,2049.7 953.6,2019.7 889.0,1992.0 824.3,1966.9 759.5,1944.2 695.0,1924.2 630.8,1906.8 567.0,1892.1 503.9,1880.0 441.5,1870.8 380.1,1864.3  A 1625.580,1625.580 0.00 0,1 380.3,1862.3 L 380.3,1862.3 441.7,1868.8 504.1,1878.2 567.2,1890.3 631.0,1905.1 695.2,1922.6 759.8,1942.7 824.5,1965.4 889.3,1990.7 953.9,2018.4 1018.3,2048.5 1082.3,2081.0 1145.8,2115.8 1208.6,2152.9 1270.7,2192.1 1331.9,2233.4 1392.1,2276.7 1451.1,2322.0 1509.0,2369.1 1565.4,2418.0 1620.5,2468.5 1674.0,2520.6 1725.9,2574.3 1776.0,2629.3 1824.3,2685.6 1870.6,2743.0 1915.0,2801.5 1957.2,2861.0 1997.3,2921.3 2035.1,2982.3 2070.6,3043.9 2103.8,3105.9 2134.4,3168.3 2162.5,3230.8 2188.1,3293.5 2210.9,3356.0 2231.1,3418.2 2248.5,3480.1 2263.2,3541.5 2275.0,3602.2  Z" style="stroke-width: 0.0;  fill: rgb(195,58,55);" />
<path d="M 2272.983,3602.495 A 1625.580,1625.580 0.00 0,1 2271.0,3602.8 L 2271.0,3602.8 2259.4,3542.4 2245.0,3481.4 2227.8,3419.8 2207.8,3357.9 2185.1,3295.8 2159.8,3233.6 2131.8,3171.6 2101.4,3109.8 2068.4,3048.4 2033.0,2987.5 1995.3,2927.2 1955.3,2867.8 1913.2,2809.2 1868.9,2751.6 1822.5,2695.2 1774.3,2640.1 1724.2,2586.2 1672.3,2533.9 1618.7,2483.1 1563.6,2433.9 1507.0,2386.5 1449.1,2340.9 1389.9,2297.3 1329.6,2255.6 1268.2,2216.0 1206.0,2178.6 1143.0,2143.4 1079.4,2110.4 1015.2,2079.8 950.7,2051.6 885.9,2025.9 821.0,2002.7 756.2,1982.0 691.6,1963.9 627.3,1948.5 563.5,1935.7 500.4,1925.6 438.0,1918.2 376.7,1913.6  A 1625.580,1625.580 0.00 0,1 376.8,1911.6 L 376.8,1911.6 438.2,1916.3 500.5,1923.8 563.6,1933.9 627.4,1946.8 691.7,1962.3 756.4,1980.5 821.2,2001.2 886.1,2024.5 950.9,2050.3 1015.5,2078.6 1079.6,2109.3 1143.3,2142.3 1206.3,2177.6 1268.6,2215.1 1330.0,2254.7 1390.3,2296.4 1449.6,2340.1 1507.5,2385.8 1564.2,2433.2 1619.3,2482.4 1672.9,2533.3 1724.9,2585.7 1775.1,2639.5 1823.4,2694.7 1869.8,2751.2 1914.1,2808.7 1956.4,2867.3 1996.4,2926.8 2034.2,2987.1 2069.7,3048.0 2102.7,3109.4 2133.3,3171.2 2161.3,3233.3 2186.7,3295.4 2209.5,3357.5 2229.5,3419.4 2246.8,3481.0 2261.3,3542.1 2273.0,3602.5  Z" style="stroke-width: 0.0;  fill: rgb(235,168,78);" />
<path d="M 2271.009,3602.830 A 1625.580,1625.580 0.00 0,1 2267.1,3603.5 L 2267.1,3603.5 2255.7,3543.5 2241.5,3482.9 2224.5,3421.9 2204.8,3360.5 2182.4,3299.1 2157.3,3237.7 2129.5,3176.4 2099.3,3115.6 2066.5,3055.2 2031.3,2995.4 1993.8,2936.4 1953.9,2878.2 1911.8,2821.1 1867.6,2765.1 1821.3,2710.4 1773.1,2657.0 1723.0,2605.1 1671.1,2554.7 1617.5,2506.1 1562.3,2459.2 1505.6,2414.1 1447.5,2371.0 1388.2,2329.9 1327.7,2290.9 1266.3,2254.1 1203.9,2219.5 1140.7,2187.2 1076.9,2157.2 1012.6,2129.7 947.9,2104.6 883.0,2082.0 818.1,2061.9 753.2,2044.4 688.5,2029.6 624.3,2017.3 560.5,2007.8 497.6,2000.9 435.5,1996.6 374.4,1995.1  A 1625.580,1625.580 0.00 0,1 374.4,1991.1 L 374.4,1991.1 435.5,1992.8 497.7,1997.2 560.7,2004.2 624.4,2014.0 688.7,2026.3 753.4,2041.4 818.3,2059.0 883.4,2079.2 948.3,2101.9 1013.0,2127.2 1077.4,2154.9 1141.2,2185.0 1204.5,2217.4 1266.9,2252.1 1328.5,2289.1 1389.0,2328.2 1448.4,2369.4 1506.6,2412.6 1563.4,2457.8 1618.7,2504.8 1672.4,2553.5 1724.4,2603.9 1774.6,2655.9 1823.0,2709.4 1869.4,2764.2 1913.8,2820.2 1956.0,2877.4 1996.0,2935.5 2033.7,2994.6 2069.0,3054.4 2102.0,3114.8 2132.4,3175.7 2160.3,3236.9 2185.5,3298.4 2208.1,3359.8 2228.0,3421.2 2245.2,3482.2 2259.5,3542.8 2271.0,3602.8  Z" style="stroke-width: 0.0;  fill: rgb(220,140,52);" />
<path d="M 2267.059,3603.493 A 1625.580,1625.580 0.00 0,1 2265.1,3603.8 L 2265.1,3603.8 2253.9,3544.5 2240.0,3484.7 2223.2,3424.5 2203.8,3364.2 2181.6,3303.9 2156.8,3243.7 2129.4,3183.9 2099.4,3124.6 2066.9,3066.0 2031.9,3008.1 1994.6,2951.2 1954.9,2895.4 1913.0,2840.8 1869.0,2787.5 1822.8,2735.6 1774.7,2685.3 1724.7,2636.7 1672.8,2589.8 1619.2,2544.8 1564.1,2501.7 1507.4,2460.7 1449.3,2421.8 1390.0,2385.1 1329.5,2350.6 1268.0,2318.4 1205.6,2288.6 1142.4,2261.3 1078.6,2236.4 1014.3,2214.0 949.7,2194.1 884.9,2176.9 820.1,2162.2 755.4,2150.1 691.1,2140.6 627.2,2133.8 563.9,2129.6 501.5,2127.9 440.1,2128.9 379.8,2132.5  A 1625.580,1625.580 0.00 0,1 379.7,2130.5 L 379.7,2130.5 439.9,2127.0 501.4,2126.1 563.8,2127.8 627.1,2132.1 691.0,2139.0 755.4,2148.5 820.1,2160.7 885.0,2175.5 949.8,2192.8 1014.4,2212.8 1078.7,2235.2 1142.6,2260.2 1205.8,2287.6 1268.2,2317.5 1329.8,2349.7 1390.3,2384.2 1449.7,2421.0 1507.8,2459.9 1564.6,2501.0 1619.8,2544.1 1673.4,2589.2 1725.3,2636.1 1775.4,2684.7 1823.6,2735.1 1869.9,2787.0 1914.0,2840.3 1955.9,2895.0 1995.7,2950.8 2033.1,3007.7 2068.1,3065.6 2100.7,3124.2 2130.8,3183.6 2158.3,3243.4 2183.2,3303.5 2205.4,3363.8 2225.0,3424.2 2241.8,3484.4 2255.8,3544.2 2267.1,3603.5  Z" style="stroke-width: 0.0;  fill: rgb(108,170,228);" />
<path d="M 2265.084,3603.821 A 1625.580,1625.580 0.00 0,1 2251.2,3606.0 L 2251.2,3606.0 2240.8,3547.8 2227.7,3489.2 2211.9,3430.4 2193.4,3371.7 2172.2,3313.2 2148.5,3255.1 2122.1,3197.5 2093.3,3140.8 2061.9,3085.0 2028.2,3030.3 1992.0,2976.9 1953.5,2924.8 1912.8,2874.3 1870.0,2825.4 1825.0,2778.3 1778.0,2733.1 1729.1,2690.0 1678.4,2648.9 1626.0,2609.9 1571.9,2573.3 1516.4,2539.0 1459.4,2507.1 1401.2,2477.7 1341.8,2450.8 1281.4,2426.5 1220.1,2404.7 1158.1,2385.6 1095.5,2369.2 1032.5,2355.4 969.2,2344.2 905.8,2335.8 842.4,2330.0 779.2,2326.8 716.4,2326.3 654.2,2328.3 592.8,2332.9 532.3,2339.9 473.0,2349.5 415.1,2361.3  A 1625.580,1625.580 0.00 0,1 412.0,2347.6 L 412.0,2347.6 470.2,2336.2 529.7,2327.2 590.4,2320.7 652.1,2316.6 714.5,2315.1 777.6,2316.2 841.0,2319.9 904.7,2326.2 968.4,2335.1 1032.0,2346.8 1095.4,2361.0 1158.3,2378.0 1220.7,2397.5 1282.3,2419.7 1343.1,2444.5 1402.8,2471.8 1461.5,2501.6 1518.9,2533.8 1574.9,2568.5 1629.4,2605.4 1682.3,2644.6 1733.5,2686.0 1782.9,2729.4 1830.4,2774.8 1875.9,2822.1 1919.3,2871.1 1960.6,2921.8 1999.6,2974.0 2036.3,3027.6 2070.7,3082.4 2102.6,3138.2 2132.1,3195.0 2159.0,3252.6 2183.3,3310.8 2205.0,3369.3 2224.1,3428.1 2240.5,3486.9 2254.1,3545.6 2265.1,3603.8  Z" style="stroke-width: 0.0;  fill: rgb(200,108,30);" />
<path d="M 2251.246,3606.047 A 1625.580,1625.580 0.00 0,1 2217.6,3611.0 L 2217.6,3611.0 2208.6,3553.7 2197.0,3496.1 2182.9,3438.5 2166.2,3381.1 2147.0,3324.1 2125.3,3267.8 2101.1,3212.3 2074.4,3157.8 2045.3,3104.6 2013.9,3052.7 1980.1,3002.3 1944.0,2953.7 1905.8,2906.9 1865.4,2862.1 1822.9,2819.3 1778.5,2778.8 1732.2,2740.6 1684.0,2704.9 1634.1,2671.6 1582.7,2640.9 1529.7,2612.8 1475.4,2587.4 1419.7,2564.7 1363.0,2544.9 1305.2,2527.8 1246.6,2513.5 1187.2,2502.1 1127.3,2493.4 1067.0,2487.6 1006.4,2484.6 945.7,2484.3 885.1,2486.6 824.7,2491.7 764.8,2499.3 705.6,2509.5 647.1,2522.1 589.7,2537.0 533.6,2554.1 478.9,2573.4  A 1625.580,1625.580 0.00 0,1 467.2,2541.5 L 467.2,2541.5 522.6,2523.2 579.4,2507.2 637.5,2493.4 696.7,2482.0 756.7,2473.1 817.4,2466.6 878.6,2462.8 940.0,2461.6 1001.6,2463.1 1063.1,2467.3 1124.4,2474.3 1185.3,2484.0 1245.6,2496.6 1305.3,2511.9 1364.2,2530.0 1422.0,2550.8 1478.8,2574.4 1534.4,2600.6 1588.6,2629.5 1641.3,2661.0 1692.5,2695.0 1742.0,2731.4 1789.7,2770.2 1835.5,2811.2 1879.3,2854.4 1921.2,2899.7 1960.9,2946.9 1998.4,2995.8 2033.6,3046.5 2066.5,3098.6 2097.1,3152.1 2125.2,3206.7 2150.9,3262.4 2174.0,3318.8 2194.6,3375.9 2212.7,3433.4 2228.1,3491.0 2241.0,3548.7 2251.2,3606.0  Z" style="stroke-width: 0.0;  fill: rgb(82,145,215);" />
<path d="M 2217.563,3610.955 A 1625.580,1625.580 0.00 0,1 2213.6,3611.5 L 2213.6,3611.5 2205.0,3555.5 2194.1,3499.4 2180.9,3443.5 2165.3,3388.0 2147.5,3333.3 2127.3,3279.6 2104.8,3227.0 2080.1,3175.8 2053.2,3126.2 2024.1,3078.4 1992.8,3032.5 1959.5,2988.8 1924.1,2947.3 1886.8,2908.2 1847.6,2871.7 1806.5,2837.8 1763.7,2806.6 1719.2,2778.3 1673.2,2752.9 1625.7,2730.5 1576.9,2711.0 1526.8,2694.7 1475.5,2681.4 1423.3,2671.2 1370.1,2664.0 1316.2,2660.0 1261.7,2659.0 1206.8,2661.0 1151.5,2666.0 1096.1,2673.8 1040.7,2684.5 985.4,2697.9 930.5,2713.9 876.2,2732.5 822.6,2753.4 769.9,2776.6 718.3,2801.8 668.0,2829.0 619.3,2858.0  A 1625.580,1625.580 0.00 0,1 617.2,2854.6 L 617.2,2854.6 666.0,2825.7 716.4,2798.7 768.1,2773.5 820.9,2750.5 874.6,2729.7 929.1,2711.2 984.1,2695.3 1039.5,2682.1 1095.0,2671.5 1150.6,2663.8 1206.0,2658.9 1261.1,2657.0 1315.7,2658.2 1369.8,2662.3 1423.1,2669.5 1475.5,2679.9 1526.9,2693.3 1577.2,2709.7 1626.2,2729.2 1673.9,2751.8 1720.1,2777.3 1764.7,2805.7 1807.7,2836.9 1848.9,2870.8 1888.3,2907.4 1925.9,2946.5 1961.4,2988.0 1994.9,3031.8 2026.4,3077.7 2055.7,3125.5 2082.8,3175.2 2107.7,3226.4 2130.3,3279.0 2150.7,3332.7 2168.7,3387.5 2184.4,3442.9 2197.8,3498.8 2208.8,3554.9 2217.6,3611.0  Z" style="stroke-width: 0.0;  fill: rgb(60,120,198);" />
<path d="M 2213.594,3611.486 A 1625.580,1625.580 0.00 0,1 2201.7,3613.0 L 2201.7,3613.0 2194.5,3559.9 2186.2,3507.1 2176.9,3455.1 2166.6,3404.2 2155.2,3354.8 2142.9,3307.0 2129.5,3261.3 2115.3,3217.9 2100.1,3177.0 2084.0,3138.8 2067.1,3103.6 2049.3,3071.6 2030.8,3042.9 2011.5,3017.6 1991.5,2995.9 1970.8,2977.9 1949.5,2963.7 1927.7,2953.4 1905.3,2946.9 1882.5,2944.3 1859.2,2945.7 1835.6,2951.0 1811.7,2960.1 1787.6,2973.1 1763.3,2989.8 1738.9,3010.1 1714.4,3034.0 1690.0,3061.3 1665.7,3091.9 1641.5,3125.5 1617.7,3162.0 1594.1,3201.2 1571.0,3242.8 1548.4,3286.7 1526.3,3332.4 1504.9,3379.7 1484.3,3428.4 1464.6,3478.0 1445.8,3528.2  A 1625.580,1625.580 0.00 0,1 1434.5,3524.1 L 1434.5,3524.1 1453.7,3473.9 1473.9,3424.4 1495.0,3375.9 1516.8,3328.7 1539.3,3283.1 1562.5,3239.5 1586.2,3198.0 1610.3,3158.9 1634.8,3122.6 1659.5,3089.1 1684.5,3058.6 1709.5,3031.5 1734.6,3007.7 1759.7,2987.5 1784.7,2970.9 1809.5,2958.0 1834.1,2949.0 1858.4,2943.8 1882.3,2942.5 1905.8,2945.2 1928.9,2951.7 1951.5,2962.2 1973.4,2976.4 1994.8,2994.4 2015.5,3016.2 2035.4,3041.5 2054.6,3070.2 2073.0,3102.2 2090.6,3137.4 2107.3,3175.6 2123.1,3216.5 2138.0,3259.9 2151.9,3305.6 2164.8,3353.3 2176.7,3402.8 2187.5,3453.6 2197.3,3505.6 2206.0,3558.4 2213.6,3611.5  Z" style="stroke-width: 0.0;  fill: rgb(42,98,180);" />
<path d="M 2201.679,3613.021 A 1625.580,1625.580 0.00 0,1 2193.7,3614.0 L 2193.7,3614.0 2187.4,3561.4 2181.0,3509.2 2174.7,3457.8 2168.5,3407.6 2162.3,3358.8 2156.3,3311.9 2150.5,3267.1 2144.9,3224.7 2139.6,3184.9 2134.5,3148.0 2129.8,3114.2 2125.3,3083.7 2121.3,3056.7 2117.5,3033.2 2114.2,3013.5 2111.3,2997.6 2108.7,2985.7 2106.6,2977.8 2104.9,2973.8 2103.7,2974.0 2102.9,2978.2 2102.5,2986.4 2102.6,2998.6 2103.0,3014.7 2104.0,3034.7 2105.3,3058.4 2107.0,3085.7 2109.2,3116.4 2111.7,3150.5 2114.5,3187.6 2117.7,3227.6 2121.3,3270.2 2125.1,3315.2 2129.2,3362.4 2133.5,3411.3 2138.0,3461.7 2142.7,3513.3 2147.6,3565.7 2152.5,3618.4  A 1625.580,1625.580 0.00 0,1 2144.5,3619.1 L 2144.5,3619.1 2139.8,3566.4 2135.3,3514.0 2130.9,3462.4 2126.7,3411.9 2122.7,3363.0 2119.0,3315.8 2115.6,3270.7 2112.5,3228.0 2109.7,3188.0 2107.2,3150.8 2105.2,3116.8 2103.5,3086.0 2102.2,3058.6 2101.3,3034.9 2100.9,3014.9 2100.9,2998.7 2101.3,2986.4 2102.1,2978.2 2103.4,2973.9 2105.2,2973.7 2107.3,2977.6 2109.9,2985.5 2112.9,2997.4 2116.3,3013.2 2120.1,3032.9 2124.3,3056.2 2128.9,3083.2 2133.7,3113.7 2138.9,3147.4 2144.4,3184.3 2150.2,3224.0 2156.2,3266.4 2162.3,3311.1 2168.7,3358.0 2175.2,3406.7 2181.8,3456.9 2188.4,3508.3 2195.1,3560.5 2201.7,3613.0  Z" style="stroke-width: 0.0;  fill: rgb(15,52,135);" />
</g>
<defs>
<pattern id="hline-sparse" width="10" height="10" patternTransform="rotate(0 0 0)" patternUnits="userSpaceOnUse"><line x1="0" y1="0" x2="10" y2="0" style="stroke:black;stroke-width:2" /></pattern>
<pattern id="vline" width="10" height="10" patternTransform="rotate(0 0 0)" patternUnits="userSpaceOnUse"><line x1="0" y1="0" x2="0" y2="10" style="stroke:black;stroke-width:5" /></pattern>
<pattern id="vline-sparse" width="10" height="10" patternTransform="rotate(0 0 0)" patternUnits="userSpaceOnUse"><line x1="0" y1="0" x2="0" y2="10" style="stroke:black;stroke-width:2" /></pattern>
<pattern id="hline" width="10" height="10" patternTransform="rotate(0 0 0)" patternUnits="userSpaceOnUse"><line x1="0" y1="0" x2="10" y2="0" style="stroke:black;stroke-width:5" /></pattern>
<pattern id="checker" width="10" height="10" patternTransform="rotate(45 0 0)" patternUnits="userSpaceOnUse"><line x1="0" y1="0" x2="10" y2="0" style="stroke:black;stroke-width:2" /><line x1="0" y1="0" x2="0" y2="10" style="stroke:black;stroke-width:2" /></pattern>
<pattern id="checker" width="10" height="10" patternTransform="rotate(45 0 0)" patternUnits="userSpaceOnUse"><line x1="0" y1="0" x2="10" y2="0" style="stroke:black;stroke-width:5" /><line x1="0" y1="0" x2="0" y2="10" style="stroke:black;stroke-width:4" /></pattern>
</defs>
</svg>
