<?xml version="1.0" encoding="utf-8" standalone="no"?>
<!DOCTYPE svg PUBLIC "-//W3C//DTD SVG 1.1//EN" "http://www.w3.org/Graphics/SVG/1.1/DTD/svg11.dtd">
<svg width="4000px" height="4000px" version="1.1" xmlns="http://www.w3.org/2000/svg" xmlns:xlink="http://www.w3.org/1999/xlink">
<g id="bg">
<rect x="0" y="0" width="4000px" height="4000px" style="fill:rgb(255,255,255);"/>
</g>
<g id="ideograms">
<path d="M2000.000,358.000 A1642.000,1642.000 40.000 0,1 2751.610,540.121 L2769.004,506.336 A1680.000,1680.000 0.000 0,0 2000.000,320.000 Z" style="stroke-width:2.0;stroke:rgb(255,255,255);stroke-linecap:round;fill:rgb(185,185,185);" />
<text x="2427.0" y="305.8" font-size="36.4px" font-family="CMUBright-Roman" style="text-anchor:start;fill:rgb(0,0,0);" transform="rotate(283.6,2427.0,305.8)" >Management-Operations</text>
<path d="M2000.000,358.000 A1642.000,1642.000 40.000 0,1 2751.610,540.121 L2769.004,506.336 A1680.000,1680.000 0.000 0,0 2000.000,320.000 Z" style="stroke-width:2.0;stroke:rgb(255,255,255);stroke-linecap:round;fill:none;" />
<path d="M2783.279,556.865 A1642.000,1642.000 40.000 0,1 3226.411,908.176 L3254.793,882.908 A1680.000,1680.000 0.000 0,0 2801.406,523.467 Z" style="stroke-width:2.0;stroke:rgb(255,255,255);stroke-linecap:round;fill:rgb(185,185,185);" />
<text x="3097.5" y="640.5" font-size="36.4px" font-family="CMUBright-Roman" style="text-anchor:start;fill:rgb(0,0,0);" transform="rotate(308.4,3097.5,640.5)" >Engineering</text>
<path d="M2783.279,556.865 A1642.000,1642.000 40.000 0,1 3226.411,908.176 L3254.793,882.908 A1680.000,1680.000 0.000 0,0 2801.406,523.467 Z" style="stroke-width:2.0;stroke:rgb(255,255,255);stroke-linecap:round;fill:none;" />
<path d="M3249.937,935.189 A1642.000,1642.000 40.000 0,1 3507.538,1349.236 L3542.426,1334.176 A1680.000,1680.000 0.000 0,0 3278.864,910.547 Z" style="stroke-width:2.0;stroke:rgb(255,255,255);stroke-linecap:round;fill:rgb(185,185,185);" />
<text x="3491.6" y="1090.2" font-size="36.4px" font-family="CMUBright-Roman" style="text-anchor:start;fill:rgb(0,0,0);" transform="rotate(328.1,3491.6,1090.2)" >Leadership-General</text>
<path d="M3249.937,935.189 A1642.000,1642.000 40.000 0,1 3507.538,1349.236 L3542.426,1334.176 A1680.000,1680.000 0.000 0,0 3278.864,910.547 Z" style="stroke-width:2.0;stroke:rgb(255,255,255);stroke-linecap:round;fill:none;" />
<path d="M3521.375,1382.278 A1642.000,1642.000 40.000 0,1 3633.192,1830.154 L3670.988,1826.223 A1680.000,1680.000 0.000 0,0 3556.584,1367.982 Z" style="stroke-width:2.0;stroke:rgb(255,255,255);stroke-linecap:round;fill:rgb(185,185,185);" />
<text x="3699.0" y="1592.3" font-size="36.4px" font-family="CMUBright-Roman" style="text-anchor:start;fill:rgb(0,0,0);" transform="rotate(346.0,3699.0,1592.3)" >Sales-Marketing</text>
<path d="M3521.375,1382.278 A1642.000,1642.000 40.000 0,1 3633.192,1830.154 L3670.988,1826.223 A1680.000,1680.000 0.000 0,0 3556.584,1367.982 Z" style="stroke-width:2.0;stroke:rgb(255,255,255);stroke-linecap:round;fill:none;" />
<path d="M3636.509,1865.822 A1642.000,1642.000 40.000 0,1 3610.774,2318.704 L3648.051,2326.079 A1680.000,1680.000 0.000 0,0 3674.381,1862.717 Z" style="stroke-width:2.0;stroke:rgb(255,255,255);stroke-linecap:round;fill:rgb(185,185,185);" />
<text x="3743.6" y="2111.6" font-size="36.4px" font-family="CMUBright-Roman" style="text-anchor:start;fill:rgb(0,0,0);" transform="rotate(3.3,3743.6,2111.6)" >Finance-Investment</text>
<path d="M3636.509,1865.822 A1642.000,1642.000 40.000 0,1 3610.774,2318.704 L3648.051,2326.079 A1680.000,1680.000 0.000 0,0 3674.381,1862.717 Z" style="stroke-width:2.0;stroke:rgb(255,255,255);stroke-linecap:round;fill:none;" />
<path d="M3603.438,2353.767 A1642.000,1642.000 40.000 0,1 3499.856,2668.278 L3534.566,2683.744 A1680.000,1680.000 0.000 0,0 3640.546,2361.954 Z" style="stroke-width:2.0;stroke:rgb(255,255,255);stroke-linecap:round;fill:rgb(185,185,185);" />
<text x="3655.6" y="2558.4" font-size="36.4px" font-family="CMUBright-Roman" style="text-anchor:start;fill:rgb(0,0,0);" transform="rotate(18.2,3655.6,2558.4)" >Software-Data</text>
<path d="M3603.438,2353.767 A1642.000,1642.000 40.000 0,1 3499.856,2668.278 L3534.566,2683.744 A1680.000,1680.000 0.000 0,0 3640.546,2361.954 Z" style="stroke-width:2.0;stroke:rgb(255,255,255);stroke-linecap:round;fill:none;" />
<path d="M3484.921,2700.839 A1642.000,1642.000 40.000 0,1 3330.895,2961.708 L3361.695,2983.964 A1680.000,1680.000 0.000 0,0 3519.285,2717.058 Z" style="stroke-width:2.0;stroke:rgb(255,255,255);stroke-linecap:round;fill:rgb(185,185,185);" />
<text x="3498.1" y="2899.1" font-size="36.4px" font-family="CMUBright-Roman" style="text-anchor:start;fill:rgb(0,0,0);" transform="rotate(30.6,3498.1,2899.1)" >Education</text>
<path d="M3484.921,2700.839 A1642.000,1642.000 40.000 0,1 3330.895,2961.708 L3361.695,2983.964 A1680.000,1680.000 0.000 0,0 3519.285,2717.058 Z" style="stroke-width:2.0;stroke:rgb(255,255,255);stroke-linecap:round;fill:none;" />
<path d="M3309.599,2990.512 A1642.000,1642.000 40.000 0,1 3129.055,3192.225 L3155.184,3219.816 A1680.000,1680.000 0.000 0,0 3339.906,3013.435 Z" style="stroke-width:2.0;stroke:rgb(255,255,255);stroke-linecap:round;fill:rgb(185,185,185);" />
<text x="3293.5" y="3174.5" font-size="36.4px" font-family="CMUBright-Roman" style="text-anchor:start;fill:rgb(0,0,0);" transform="rotate(41.8,3293.5,3174.5)" >Research-Science</text>
<path d="M3309.599,2990.512 A1642.000,1642.000 40.000 0,1 3129.055,3192.225 L3155.184,3219.816 A1680.000,1680.000 0.000 0,0 3339.906,3013.435 Z" style="stroke-width:2.0;stroke:rgb(255,255,255);stroke-linecap:round;fill:none;" />
<path d="M3102.778,3216.571 A1642.000,1642.000 40.000 0,1 2891.302,3379.038 L2911.929,3410.952 A1680.000,1680.000 0.000 0,0 3128.299,3244.726 Z" style="stroke-width:2.0;stroke:rgb(255,255,255);stroke-linecap:round;fill:rgb(185,185,185);" />
<text x="3054.5" y="3393.1" font-size="36.4px" font-family="CMUBright-Roman" style="text-anchor:start;fill:rgb(0,0,0);" transform="rotate(52.5,3054.5,3393.1)" >Clinical-Care</text>
<path d="M3102.778,3216.571 A1642.000,1642.000 40.000 0,1 2891.302,3379.038 L2911.929,3410.952 A1680.000,1680.000 0.000 0,0 3128.299,3244.726 Z" style="stroke-width:2.0;stroke:rgb(255,255,255);stroke-linecap:round;fill:none;" />
<path d="M2861.006,3398.153 A1642.000,1642.000 40.000 0,1 2640.127,3512.085 L2654.941,3547.079 A1680.000,1680.000 0.000 0,0 2880.932,3430.510 Z" style="stroke-width:2.0;stroke:rgb(255,255,255);stroke-linecap:round;fill:rgb(185,185,185);" />
<text x="2786.7" y="3560.1" font-size="36.4px" font-family="CMUBright-Roman" style="text-anchor:start;fill:rgb(0,0,0);" transform="rotate(62.7,2786.7,3560.1)" >Accounting-Audit</text>
<path d="M2861.006,3398.153 A1642.000,1642.000 40.000 0,1 2640.127,3512.085 L2654.941,3547.079 A1680.000,1680.000 0.000 0,0 2880.932,3430.510 Z" style="stroke-width:2.0;stroke:rgb(255,255,255);stroke-linecap:round;fill:none;" />
<path d="M2606.988,3525.690 A1642.000,1642.000 40.000 0,1 2452.002,3578.562 L2462.463,3615.094 A1680.000,1680.000 0.000 0,0 2621.036,3560.998 Z" style="stroke-width:2.0;stroke:rgb(255,255,255);stroke-linecap:round;fill:rgb(185,185,185);" />
<text x="2552.3" y="3657.6" font-size="36.4px" font-family="CMUBright-Roman" style="text-anchor:start;fill:rgb(0,0,0);" transform="rotate(71.2,2552.3,3657.6)" >Social-Service</text>
<path d="M2606.988,3525.690 A1642.000,1642.000 40.000 0,1 2452.002,3578.562 L2462.463,3615.094 A1680.000,1680.000 0.000 0,0 2621.036,3560.998 Z" style="stroke-width:2.0;stroke:rgb(255,255,255);stroke-linecap:round;fill:none;" />
<path d="M2417.459,3588.047 A1642.000,1642.000 40.000 0,1 2320.910,3610.336 L2328.336,3647.603 A1680.000,1680.000 0.000 0,0 2427.120,3624.798 Z" style="stroke-width:2.0;stroke:rgb(255,255,255);stroke-linecap:round;fill:rgb(185,185,185);" />
<text x="2380.8" y="3705.2" font-size="36.4px" font-family="CMUBright-Roman" style="text-anchor:start;fill:rgb(0,0,0);" transform="rotate(77.0,2380.8,3705.2)" >IT-Infrastructure</text>
<path d="M2417.459,3588.047 A1642.000,1642.000 40.000 0,1 2320.910,3610.336 L2328.336,3647.603 A1680.000,1680.000 0.000 0,0 2427.120,3624.798 Z" style="stroke-width:2.0;stroke:rgb(255,255,255);stroke-linecap:round;fill:none;" />
<path d="M2285.704,3616.953 A1642.000,1642.000 40.000 0,1 2189.660,3631.010 L2194.050,3668.755 A1680.000,1680.000 0.000 0,0 2292.316,3654.373 Z" style="stroke-width:2.0;stroke:rgb(255,255,255);stroke-linecap:round;fill:rgb(185,185,185);" />
<text x="2237.2" y="3731.0" font-size="36.4px" font-family="CMUBright-Roman" style="text-anchor:start;fill:rgb(0,0,0);" transform="rotate(81.7,2237.2,3731.0)" >Legal-Policy</text>
<path d="M2285.704,3616.953 A1642.000,1642.000 40.000 0,1 2189.660,3631.010 L2194.050,3668.755 A1680.000,1680.000 0.000 0,0 2292.316,3654.373 Z" style="stroke-width:2.0;stroke:rgb(255,255,255);stroke-linecap:round;fill:none;" />
<path d="M2154.035,3634.759 A1642.000,1642.000 40.000 0,1 1474.020,3555.477 L1461.848,3591.475 A1680.000,1680.000 0.000 0,0 2157.600,3672.592 Z" style="stroke-width:2.0;stroke:rgb(255,255,255);stroke-linecap:round;fill:rgb(15,52,135);" />
<text x="1813.6" y="3737.2" font-size="36.4px" font-family="CMUBright-Roman" style="text-anchor:end;fill:rgb(0,0,0);" transform="rotate(-83.3,1813.6,3737.2)" >Finance-Accounting</text>
<path d="M2154.035,3634.759 A1642.000,1642.000 40.000 0,1 1474.020,3555.477 L1461.848,3591.475 A1680.000,1680.000 0.000 0,0 2157.600,3672.592 Z" style="stroke-width:2.0;stroke:rgb(255,255,255);stroke-linecap:round;fill:none;" />
<path d="M1440.213,3543.633 A1642.000,1642.000 40.000 0,1 888.845,3208.925 L863.130,3236.902 A1680.000,1680.000 0.000 0,0 1427.258,3579.356 Z" style="stroke-width:2.0;stroke:rgb(255,255,255);stroke-linecap:round;fill:rgb(42,98,180);" />
<text x="1104.1" y="3500.0" font-size="36.4px" font-family="CMUBright-Roman" style="text-anchor:end;fill:rgb(0,0,0);" transform="rotate(-58.7,1104.1,3500.0)" >General-Business</text>
<path d="M1440.213,3543.633 A1642.000,1642.000 40.000 0,1 888.845,3208.925 L863.130,3236.902 A1680.000,1680.000 0.000 0,0 1427.258,3579.356 Z" style="stroke-width:2.0;stroke:rgb(255,255,255);stroke-linecap:round;fill:none;" />
<path d="M862.737,3184.397 A1642.000,1642.000 40.000 0,1 624.574,2896.866 L592.744,2917.622 A1680.000,1680.000 0.000 0,0 836.418,3211.807 Z" style="stroke-width:2.0;stroke:rgb(255,255,255);stroke-linecap:round;fill:rgb(28,75,160);" />
<text x="664.7" y="3126.8" font-size="36.4px" font-family="CMUBright-Roman" style="text-anchor:end;fill:rgb(0,0,0);" transform="rotate(-39.6,664.7,3126.8)" >Marketing-Communication</text>
<path d="M862.737,3184.397 A1642.000,1642.000 40.000 0,1 624.574,2896.866 L592.744,2917.622 A1680.000,1680.000 0.000 0,0 836.418,3211.807 Z" style="stroke-width:2.0;stroke:rgb(255,255,255);stroke-linecap:round;fill:none;" />
<path d="M605.337,2866.648 A1642.000,1642.000 40.000 0,1 476.558,2612.607 L441.301,2626.784 A1680.000,1680.000 0.000 0,0 573.061,2886.704 Z" style="stroke-width:2.0;stroke:rgb(255,255,255);stroke-linecap:round;fill:rgb(60,120,198);" />
<text x="448.7" y="2803.8" font-size="36.4px" font-family="CMUBright-Roman" style="text-anchor:end;fill:rgb(0,0,0);" transform="rotate(-26.9,448.7,2803.8)" >Operations-Analytics</text>
<path d="M605.337,2866.648 A1642.000,1642.000 40.000 0,1 476.558,2612.607 L441.301,2626.784 A1680.000,1680.000 0.000 0,0 573.061,2886.704 Z" style="stroke-width:2.0;stroke:rgb(255,255,255);stroke-linecap:round;fill:none;" />
<path d="M463.556,2579.227 A1642.000,1642.000 40.000 0,1 407.419,2399.813 L370.563,2409.066 A1680.000,1680.000 0.000 0,0 427.999,2592.632 Z" style="stroke-width:2.0;stroke:rgb(255,255,255);stroke-linecap:round;fill:rgb(82,145,215);" />
<text x="337.2" y="2536.5" font-size="36.4px" font-family="CMUBright-Roman" style="text-anchor:end;fill:rgb(0,0,0);" transform="rotate(-17.4,337.2,2536.5)" >Specialized-Business</text>
<path d="M463.556,2579.227 A1642.000,1642.000 40.000 0,1 407.419,2399.813 L370.563,2409.066 A1680.000,1680.000 0.000 0,0 427.999,2592.632 Z" style="stroke-width:2.0;stroke:rgb(255,255,255);stroke-linecap:round;fill:none;" />
<path d="M399.076,2364.976 A1642.000,1642.000 40.000 0,1 366.776,2169.540 L328.979,2173.464 A1680.000,1680.000 0.000 0,0 362.027,2373.422 Z" style="stroke-width:2.0;stroke:rgb(255,255,255);stroke-linecap:round;fill:rgb(200,108,30);" />
<text x="278.3" y="2297.2" font-size="36.4px" font-family="CMUBright-Roman" style="text-anchor:end;fill:rgb(0,0,0);" transform="rotate(-9.4,278.3,2297.2)" >Social-Sciences</text>
<path d="M399.076,2364.976 A1642.000,1642.000 40.000 0,1 366.776,2169.540 L328.979,2173.464 A1680.000,1680.000 0.000 0,0 362.027,2373.422 Z" style="stroke-width:2.0;stroke:rgb(255,255,255);stroke-linecap:round;fill:none;" />
<path d="M363.466,2133.872 A1642.000,1642.000 40.000 0,1 358.290,2030.870 L320.297,2031.584 A1680.000,1680.000 0.000 0,0 325.593,2136.970 Z" style="stroke-width:2.0;stroke:rgb(255,255,255);stroke-linecap:round;fill:rgb(108,170,228);" />
<text x="255.6" y="2099.7" font-size="36.4px" font-family="CMUBright-Roman" style="text-anchor:end;fill:rgb(0,0,0);" transform="rotate(-2.9,255.6,2099.7)" >Economics</text>
<path d="M363.466,2133.872 A1642.000,1642.000 40.000 0,1 358.290,2030.870 L320.297,2031.584 A1680.000,1680.000 0.000 0,0 325.593,2136.970 Z" style="stroke-width:2.0;stroke:rgb(255,255,255);stroke-linecap:round;fill:none;" />
<path d="M358.007,1995.049 A1642.000,1642.000 40.000 0,1 358.807,1948.539 L320.825,1947.348 A1680.000,1680.000 0.000 0,0 320.008,1994.934 Z" style="stroke-width:2.0;stroke:rgb(255,255,255);stroke-linecap:round;fill:rgb(220,140,52);" />
<text x="252.9" y="1982.5" font-size="36.4px" font-family="CMUBright-Roman" style="text-anchor:end;fill:rgb(0,0,0);" transform="rotate(1.0,252.9,1982.5)" >Humanities-Liberal-Arts</text>
<path d="M358.007,1995.049 A1642.000,1642.000 40.000 0,1 358.807,1948.539 L320.825,1947.348 A1680.000,1680.000 0.000 0,0 320.008,1994.934 Z" style="stroke-width:2.0;stroke:rgb(255,255,255);stroke-linecap:round;fill:none;" />
<path d="M360.320,1912.749 A1642.000,1642.000 40.000 0,1 361.133,1898.615 L323.205,1896.269 A1680.000,1680.000 0.000 0,0 322.373,1910.730 Z" style="stroke-width:2.0;stroke:rgb(255,255,255);stroke-linecap:round;fill:rgb(235,168,78);" />
<text x="255.0" y="1912.1" font-size="36.4px" font-family="CMUBright-Roman" style="text-anchor:end;fill:rgb(0,0,0);" transform="rotate(3.3,255.0,1912.1)" >International-Studies</text>
<path d="M360.320,1912.749 A1642.000,1642.000 40.000 0,1 361.133,1898.615 L323.205,1896.269 A1680.000,1680.000 0.000 0,0 322.373,1910.730 Z" style="stroke-width:2.0;stroke:rgb(255,255,255);stroke-linecap:round;fill:none;" />
<path d="M363.735,1862.887 A1642.000,1642.000 40.000 0,1 391.336,1670.812 L354.108,1663.193 A1680.000,1680.000 0.000 0,0 325.867,1859.714 Z" style="stroke-width:2.0;stroke:rgb(255,255,255);stroke-linecap:round;fill:rgb(195,58,55);" />
<text x="268.8" y="1763.9" font-size="36.4px" font-family="CMUBright-Roman" style="text-anchor:end;fill:rgb(0,0,0);" transform="rotate(8.2,268.8,1763.9)" >Social-Work</text>
<path d="M363.735,1862.887 A1642.000,1642.000 40.000 0,1 391.336,1670.812 L354.108,1663.193 A1680.000,1680.000 0.000 0,0 325.867,1859.714 Z" style="stroke-width:2.0;stroke:rgb(255,255,255);stroke-linecap:round;fill:none;" />
<path d="M398.900,1635.797 A1642.000,1642.000 40.000 0,1 428.981,1522.439 L392.624,1511.387 A1680.000,1680.000 0.000 0,0 361.847,1627.368 Z" style="stroke-width:2.0;stroke:rgb(255,255,255);stroke-linecap:round;fill:rgb(175,35,42);" />
<text x="308.1" y="1564.0" font-size="36.4px" font-family="CMUBright-Roman" style="text-anchor:end;fill:rgb(0,0,0);" transform="rotate(14.9,308.1,1564.0)" >Teacher-Education</text>
<path d="M398.900,1635.797 A1642.000,1642.000 40.000 0,1 428.981,1522.439 L392.624,1511.387 A1680.000,1680.000 0.000 0,0 361.847,1627.368 Z" style="stroke-width:2.0;stroke:rgb(255,255,255);stroke-linecap:round;fill:none;" />
<path d="M439.773,1488.281 A1642.000,1642.000 40.000 0,1 474.975,1391.343 L439.682,1377.257 A1680.000,1680.000 0.000 0,0 403.666,1476.439 Z" style="stroke-width:2.0;stroke:rgb(255,255,255);stroke-linecap:round;fill:rgb(215,82,72);" />
<text x="352.5" y="1418.2" font-size="36.4px" font-family="CMUBright-Roman" style="text-anchor:end;fill:rgb(0,0,0);" transform="rotate(20.0,352.5,1418.2)" >Special-Education</text>
<path d="M439.773,1488.281 A1642.000,1642.000 40.000 0,1 474.975,1391.343 L439.682,1377.257 A1680.000,1680.000 0.000 0,0 403.666,1476.439 Z" style="stroke-width:2.0;stroke:rgb(255,255,255);stroke-linecap:round;fill:none;" />
<path d="M488.616,1358.220 A1642.000,1642.000 40.000 0,1 509.092,1311.991 L474.588,1296.068 A1680.000,1680.000 0.000 0,0 453.639,1343.368 Z" style="stroke-width:2.0;stroke:rgb(255,255,255);stroke-linecap:round;fill:rgb(230,112,95);" />
<text x="396.3" y="1306.6" font-size="36.4px" font-family="CMUBright-Roman" style="text-anchor:end;fill:rgb(0,0,0);" transform="rotate(23.9,396.3,1306.6)" >Educational-Leadership</text>
<path d="M488.616,1358.220 A1642.000,1642.000 40.000 0,1 509.092,1311.991 L474.588,1296.068 A1680.000,1680.000 0.000 0,0 453.639,1343.368 Z" style="stroke-width:2.0;stroke:rgb(255,255,255);stroke-linecap:round;fill:none;" />
<path d="M524.455,1279.630 A1642.000,1642.000 40.000 0,1 553.988,1222.045 L520.524,1204.041 A1680.000,1680.000 0.000 0,0 490.308,1262.959 Z" style="stroke-width:2.0;stroke:rgb(255,255,255);stroke-linecap:round;fill:rgb(0,130,142);" />
<text x="439.7" y="1213.8" font-size="36.4px" font-family="CMUBright-Roman" style="text-anchor:end;fill:rgb(0,0,0);" transform="rotate(27.2,439.7,1213.8)" >Communication-Studies</text>
<path d="M524.455,1279.630 A1642.000,1642.000 40.000 0,1 553.988,1222.045 L520.524,1204.041 A1680.000,1680.000 0.000 0,0 490.308,1262.959 Z" style="stroke-width:2.0;stroke:rgb(255,255,255);stroke-linecap:round;fill:none;" />
<path d="M571.303,1190.686 A1642.000,1642.000 40.000 0,1 588.562,1160.949 L555.898,1141.531 A1680.000,1680.000 0.000 0,0 538.240,1171.956 Z" style="stroke-width:2.0;stroke:rgb(255,255,255);stroke-linecap:round;fill:rgb(0,165,172);" />
<text x="482.6" y="1133.8" font-size="36.4px" font-family="CMUBright-Roman" style="text-anchor:end;fill:rgb(0,0,0);" transform="rotate(30.1,482.6,1133.8)" >Journalism-Media</text>
<path d="M571.303,1190.686 A1642.000,1642.000 40.000 0,1 588.562,1160.949 L555.898,1141.531 A1680.000,1680.000 0.000 0,0 538.240,1171.956 Z" style="stroke-width:2.0;stroke:rgb(255,255,255);stroke-linecap:round;fill:none;" />
<path d="M607.202,1130.358 A1642.000,1642.000 40.000 0,1 613.667,1120.089 L581.583,1099.725 A1680.000,1680.000 0.000 0,0 574.969,1110.233 Z" style="stroke-width:2.0;stroke:rgb(255,255,255);stroke-linecap:round;fill:rgb(38,195,195);" />
<text x="512.9" y="1082.8" font-size="36.4px" font-family="CMUBright-Roman" style="text-anchor:end;fill:rgb(0,0,0);" transform="rotate(32.2,512.9,1082.8)" >Creative-Writing</text>
<path d="M607.202,1130.358 A1642.000,1642.000 40.000 0,1 613.667,1120.089 L581.583,1099.725 A1680.000,1680.000 0.000 0,0 574.969,1110.233 Z" style="stroke-width:2.0;stroke:rgb(255,255,255);stroke-linecap:round;fill:none;" />
<path d="M633.192,1090.055 A1642.000,1642.000 40.000 0,1 667.742,1040.182 L636.910,1017.969 A1680.000,1680.000 0.000 0,0 601.560,1068.997 Z" style="stroke-width:2.0;stroke:rgb(255,255,255);stroke-linecap:round;fill:rgb(180,45,112);" />
<text x="554.7" y="1018.2" font-size="36.4px" font-family="CMUBright-Roman" style="text-anchor:end;fill:rgb(0,0,0);" transform="rotate(34.7,554.7,1018.2)" >Arts-Theology</text>
<path d="M633.192,1090.055 A1642.000,1642.000 40.000 0,1 667.742,1040.182 L636.910,1017.969 A1680.000,1680.000 0.000 0,0 601.560,1068.997 Z" style="stroke-width:2.0;stroke:rgb(255,255,255);stroke-linecap:round;fill:none;" />
<path d="M688.997,1011.347 A1642.000,1642.000 40.000 0,1 698.803,998.477 L668.690,975.299 A1680.000,1680.000 0.000 0,0 658.657,988.467 Z" style="stroke-width:2.0;stroke:rgb(255,255,255);stroke-linecap:round;fill:rgb(205,75,142);" />
<text x="600.6" y="953.9" font-size="36.4px" font-family="CMUBright-Roman" style="text-anchor:end;fill:rgb(0,0,0);" transform="rotate(37.3,600.6,953.9)" >English-Writing</text>
<path d="M688.997,1011.347 A1642.000,1642.000 40.000 0,1 698.803,998.477 L668.690,975.299 A1680.000,1680.000 0.000 0,0 658.657,988.467 Z" style="stroke-width:2.0;stroke:rgb(255,255,255);stroke-linecap:round;fill:none;" />
<path d="M720.960,970.329 A1642.000,1642.000 40.000 0,1 724.774,965.610 L695.262,941.672 A1680.000,1680.000 0.000 0,0 691.360,946.500 Z" style="stroke-width:2.0;stroke:rgb(255,255,255);stroke-linecap:round;fill:rgb(225,110,168);" />
<text x="631.0" y="914.3" font-size="36.4px" font-family="CMUBright-Roman" style="text-anchor:end;fill:rgb(0,0,0);" transform="rotate(38.9,631.0,914.3)" >Languages</text>
<path d="M720.960,970.329 A1642.000,1642.000 40.000 0,1 724.774,965.610 L695.262,941.672 A1680.000,1680.000 0.000 0,0 691.360,946.500 Z" style="stroke-width:2.0;stroke:rgb(255,255,255);stroke-linecap:round;fill:none;" />
<path d="M747.643,938.037 A1642.000,1642.000 40.000 0,1 884.635,794.959 L858.822,767.071 A1680.000,1680.000 0.000 0,0 718.660,913.461 Z" style="stroke-width:2.0;stroke:rgb(255,255,255);stroke-linecap:round;fill:rgb(88,40,138);" />
<text x="727.0" y="803.3" font-size="36.4px" font-family="CMUBright-Roman" style="text-anchor:end;fill:rgb(0,0,0);" transform="rotate(43.8,727.0,803.3)" >Biological-Sciences</text>
<path d="M747.643,938.037 A1642.000,1642.000 40.000 0,1 884.635,794.959 L858.822,767.071 A1680.000,1680.000 0.000 0,0 718.660,913.461 Z" style="stroke-width:2.0;stroke:rgb(255,255,255);stroke-linecap:round;fill:none;" />
<path d="M911.188,770.914 A1642.000,1642.000 40.000 0,1 969.888,721.316 L946.049,691.724 A1680.000,1680.000 0.000 0,0 885.990,742.470 Z" style="stroke-width:2.0;stroke:rgb(255,255,255);stroke-linecap:round;fill:rgb(115,65,165);" />
<text x="862.8" y="673.5" font-size="36.4px" font-family="CMUBright-Roman" style="text-anchor:end;fill:rgb(0,0,0);" transform="rotate(49.8,862.8,673.5)" >Health-Wellness</text>
<path d="M911.188,770.914 A1642.000,1642.000 40.000 0,1 969.888,721.316 L946.049,691.724 A1680.000,1680.000 0.000 0,0 885.990,742.470 Z" style="stroke-width:2.0;stroke:rgb(255,255,255);stroke-linecap:round;fill:none;" />
<path d="M998.028,699.148 A1642.000,1642.000 40.000 0,1 1023.858,679.655 L1001.267,649.099 A1680.000,1680.000 0.000 0,0 974.840,669.043 Z" style="stroke-width:2.0;stroke:rgb(255,255,255);stroke-linecap:round;fill:rgb(140,92,188);" />
<text x="935.2" y="614.8" font-size="36.4px" font-family="CMUBright-Roman" style="text-anchor:end;fill:rgb(0,0,0);" transform="rotate(53.0,935.2,614.8)" >Physical-Sciences</text>
<path d="M998.028,699.148 A1642.000,1642.000 40.000 0,1 1023.858,679.655 L1001.267,649.099 A1680.000,1680.000 0.000 0,0 974.840,669.043 Z" style="stroke-width:2.0;stroke:rgb(255,255,255);stroke-linecap:round;fill:none;" />
<path d="M1052.893,658.675 A1642.000,1642.000 40.000 0,1 1064.493,650.559 L1042.843,619.329 A1680.000,1680.000 0.000 0,0 1030.975,627.633 Z" style="stroke-width:2.0;stroke:rgb(255,255,255);stroke-linecap:round;fill:rgb(165,120,208);" />
<text x="988.2" y="575.6" font-size="36.4px" font-family="CMUBright-Roman" style="text-anchor:end;fill:rgb(0,0,0);" transform="rotate(55.0,988.2,575.6)" >Environmental-Sciences</text>
<path d="M1052.893,658.675 A1642.000,1642.000 40.000 0,1 1064.493,650.559 L1042.843,619.329 A1680.000,1680.000 0.000 0,0 1030.975,627.633 Z" style="stroke-width:2.0;stroke:rgb(255,255,255);stroke-linecap:round;fill:none;" />
<path d="M1094.154,630.472 A1642.000,1642.000 40.000 0,1 1594.822,408.776 L1585.445,371.951 A1680.000,1680.000 0.000 0,0 1073.190,598.778 Z" style="stroke-width:2.0;stroke:rgb(255,255,255);stroke-linecap:round;fill:rgb(22,118,50);" />
<text x="1278.0" y="409.0" font-size="36.4px" font-family="CMUBright-Roman" style="text-anchor:end;fill:rgb(0,0,0);" transform="rotate(66.1,1278.0,409.0)" >Engineering-Disciplines</text>
<path d="M1094.154,630.472 A1642.000,1642.000 40.000 0,1 1594.822,408.776 L1585.445,371.951 A1680.000,1680.000 0.000 0,0 1073.190,598.778 Z" style="stroke-width:2.0;stroke:rgb(255,255,255);stroke-linecap:round;fill:none;" />
<path d="M1629.631,400.315 A1642.000,1642.000 40.000 0,1 1964.180,358.391 L1963.351,320.400 A1680.000,1680.000 0.000 0,0 1621.060,363.295 Z" style="stroke-width:2.0;stroke:rgb(255,255,255);stroke-linecap:round;fill:rgb(48,158,75);" />
<text x="1767.4" y="268.4" font-size="36.4px" font-family="CMUBright-Roman" style="text-anchor:end;fill:rgb(0,0,0);" transform="rotate(82.9,1767.4,268.4)" >Computer-Science-IT</text>
<path d="M1629.631,400.315 A1642.000,1642.000 40.000 0,1 1964.180,358.391 L1963.351,320.400 A1680.000,1680.000 0.000 0,0 1621.060,363.295 Z" style="stroke-width:2.0;stroke:rgb(255,255,255);stroke-linecap:round;fill:none;" />
</g>
<g id="track_0">
<path d="M 455.375,1493.398 A 1625.580,1625.580 0.00 0,1 489.5,1399.3 L 489.5,1399.3 558.0,1427.3 627.3,1457.1 697.4,1488.5 768.4,1521.3 840.2,1555.2 912.9,1590.1 986.4,1625.8 1060.7,1662.2 1135.7,1699.1 1211.6,1736.3 1288.1,1773.8 1365.4,1811.3 1443.3,1848.9 1521.8,1886.4 1600.9,1923.6 1680.5,1960.6 1760.5,1997.2 1841.0,2033.4 1921.8,2069.1 2002.9,2104.3 2084.1,2139.0 2165.5,2173.1 2246.9,2206.6 2328.3,2239.5 2409.5,2271.9 2490.4,2303.7 2571.1,2335.0 2651.3,2365.8 2730.9,2396.2 2809.9,2426.2 2888.1,2455.9 2965.4,2485.3 3041.6,2514.6 3116.7,2543.9 3190.6,2573.3 3262.9,2602.8 3333.8,2632.6 3402.9,2662.9 3470.1,2693.8  A 1625.580,1625.580 0.00 0,1 3424.6,2783.0 L 3424.6,2783.0 3360.4,2748.7 3294.2,2715.0 3226.0,2681.9 3156.1,2649.1 3084.5,2616.6 3011.5,2584.2 2937.0,2552.0 2861.4,2519.7 2784.7,2487.4 2707.0,2454.9 2628.4,2422.3 2549.1,2389.4 2469.3,2356.2 2388.9,2322.8 2308.1,2289.0 2227.0,2254.9 2145.7,2220.5 2064.3,2185.7 1982.9,2150.7 1901.6,2115.3 1820.4,2079.8 1739.4,2044.0 1658.8,2008.1 1578.5,1972.1 1498.7,1936.1 1419.3,1900.2 1340.6,1864.5 1262.4,1829.0 1185.0,1793.9 1108.2,1759.3 1032.2,1725.2 957.0,1692.0 882.6,1659.6 809.1,1628.3 736.5,1598.2 664.8,1569.5 594.1,1542.3 524.2,1516.9 455.4,1493.4  Z" style="stroke-width: 0.0;  fill: rgb(215,82,72);" />
<path d="M 489.484,1399.290 A 1625.580,1625.580 0.00 0,1 490.2,1397.4 L 490.2,1397.4 547.0,1418.7 605.8,1437.8 666.3,1454.7 728.4,1469.4 791.9,1481.8 856.7,1491.8 922.7,1499.5 989.5,1504.7 1057.2,1507.6 1125.6,1507.9 1194.4,1505.8 1263.5,1501.1 1332.9,1494.0 1402.3,1484.4 1471.6,1472.3 1540.7,1457.8 1609.4,1440.8 1677.6,1421.3 1745.2,1399.5 1812.0,1375.4 1877.8,1348.9 1942.7,1320.3 2006.4,1289.4 2068.8,1256.4 2129.8,1221.4 2189.3,1184.4 2247.2,1145.5 2303.3,1104.9 2357.6,1062.5 2409.9,1018.5 2460.2,973.1 2508.2,926.3 2554.0,878.2 2597.4,829.0 2638.4,778.9 2676.7,727.9 2712.4,676.2 2745.4,623.9 2775.4,571.3  A 1625.580,1625.580 0.00 0,1 2777.2,572.3 L 2777.2,572.3 2747.0,624.9 2714.0,677.1 2678.3,728.8 2639.8,779.8 2598.8,829.9 2555.3,879.1 2509.5,927.1 2461.3,973.9 2411.0,1019.3 2358.6,1063.3 2304.3,1105.6 2248.0,1146.3 2190.1,1185.2 2130.5,1222.1 2069.4,1257.2 2006.9,1290.2 1943.2,1321.0 1878.2,1349.7 1812.3,1376.2 1745.4,1400.4 1677.8,1422.2 1609.5,1441.6 1540.8,1458.7 1471.6,1473.3 1402.3,1485.4 1332.8,1495.1 1263.4,1502.2 1194.2,1506.9 1125.3,1509.1 1056.9,1508.8 989.2,1506.1 922.2,1500.9 856.3,1493.3 791.4,1483.3 727.8,1471.0 665.7,1456.4 605.1,1439.5 546.3,1420.5 489.5,1399.3  Z" style="stroke-width: 0.0;  fill: rgb(215,82,72);" />
</g>
<defs>
<pattern id="hline" width="10" height="10" patternTransform="rotate(0 0 0)" patternUnits="userSpaceOnUse"><line x1="0" y1="0" x2="10" y2="0" style="stroke:black;stroke-width:5" /></pattern>
<pattern id="vline" width="10" height="10" patternTransform="rotate(0 0 0)" patternUnits="userSpaceOnUse"><line x1="0" y1="0" x2="0" y2="10" style="stroke:black;stroke-width:5" /></pattern>
<pattern id="hline-sparse" width="10" height="10" patternTransform="rotate(0 0 0)" patternUnits="userSpaceOnUse"><line x1="0" y1="0" x2="10" y2="0" style="stroke:black;stroke-width:2" /></pattern>
<pattern id="checker" width="10" height="10" patternTransform="rotate(45 0 0)" patternUnits="userSpaceOnUse"><line x1="0" y1="0" x2="10" y2="0" style="stroke:black;stroke-width:2" /><line x1="0" y1="0" x2="0" y2="10" style="stroke:black;stroke-width:2" /></pattern>
<pattern id="vline-sparse" width="10" height="10" patternTransform="rotate(0 0 0)" patternUnits="userSpaceOnUse"><line x1="0" y1="0" x2="0" y2="10" style="stroke:black;stroke-width:2" /></pattern>
<pattern id="checker" width="10" height="10" patternTransform="rotate(45 0 0)" patternUnits="userSpaceOnUse"><line x1="0" y1="0" x2="10" y2="0" style="stroke:black;stroke-width:5" /><line x1="0" y1="0" x2="0" y2="10" style="stroke:black;stroke-width:4" /></pattern>
</defs>
</svg>
