<?xml version="1.0" encoding="utf-8" standalone="no"?>
<!DOCTYPE svg PUBLIC "-//W3C//DTD SVG 1.1//EN" "http://www.w3.org/Graphics/SVG/1.1/DTD/svg11.dtd">
<svg width="4000px" height="4000px" version="1.1" xmlns="http://www.w3.org/2000/svg" xmlns:xlink="http://www.w3.org/1999/xlink">
<g id="bg">
<rect x="0" y="0" width="4000px" height="4000px" style="fill:rgb(255,255,255);"/>
</g>
<g id="ideograms">
<path d="M2000.000,358.000 A1642.000,1642.000 40.000 0,1 2751.610,540.121 L2769.004,506.336 A1680.000,1680.000 0.000 0,0 2000.000,320.000 Z" style="stroke-width:2.0;stroke:rgb(255,255,255);stroke-linecap:round;fill:rgb(185,185,185);" />
<text x="2427.0" y="305.8" font-size="36.4px" font-family="CMUBright-Roman" style="text-anchor:start;fill:rgb(0,0,0);" transform="rotate(283.6,2427.0,305.8)" >Management-Operations</text>
<path d="M2000.000,358.000 A1642.000,1642.000 40.000 0,1 2751.610,540.121 L2769.004,506.336 A1680.000,1680.000 0.000 0,0 2000.000,320.000 Z" style="stroke-width:2.0;stroke:rgb(255,255,255);stroke-linecap:round;fill:none;" />
<path d="M2783.279,556.865 A1642.000,1642.000 40.000 0,1 3226.411,908.176 L3254.793,882.908 A1680.000,1680.000 0.000 0,0 2801.406,523.467 Z" style="stroke-width:2.0;stroke:rgb(255,255,255);stroke-linecap:round;fill:rgb(185,185,185);" />
<text x="3097.5" y="640.5" font-size="36.4px" font-family="CMUBright-Roman" style="text-anchor:start;fill:rgb(0,0,0);" transform="rotate(308.4,3097.5,640.5)" >Engineering</text>
<path d="M2783.279,556.865 A1642.000,1642.000 40.000 0,1 3226.411,908.176 L3254.793,882.908 A1680.000,1680.000 0.000 0,0 2801.406,523.467 Z" style="stroke-width:2.0;stroke:rgb(255,255,255);stroke-linecap:round;fill:none;" />
<path d="M3249.937,935.189 A1642.000,1642.000 40.000 0,1 3507.538,1349.236 L3542.426,1334.176 A1680.000,1680.000 0.000 0,0 3278.864,910.547 Z" style="stroke-width:2.0;stroke:rgb(255,255,255);stroke-linecap:round;fill:rgb(185,185,185);" />
<text x="3491.6" y="1090.2" font-size="36.4px" font-family="CMUBright-Roman" style="text-anchor:start;fill:rgb(0,0,0);" transform="rotate(328.1,3491.6,1090.2)" >Leadership-General</text>
<path d="M3249.937,935.189 A1642.000,1642.000 40.000 0,1 3507.538,1349.236 L3542.426,1334.176 A1680.000,1680.000 0.000 0,0 3278.864,910.547 Z" style="stroke-width:2.0;stroke:rgb(255,255,255);stroke-linecap:round;fill:none;" />
<path d="M3521.375,1382.278 A1642.000,1642.000 40.000 0,1 3633.192,1830.154 L3670.988,1826.223 A1680.000,1680.000 0.000 0,0 3556.584,1367.982 Z" style="stroke-width:2.0;stroke:rgb(255,255,255);stroke-linecap:round;fill:rgb(185,185,185);" />
<text x="3699.0" y="1592.3" font-size="36.4px" font-family="CMUBright-Roman" style="text-anchor:start;fill:rgb(0,0,0);" transform="rotate(346.0,3699.0,1592.3)" >Sales-Marketing</text>
<path d="M3521.375,1382.278 A1642.000,1642.000 40.000 0,1 3633.192,1830.154 L3670.988,1826.223 A1680.000,1680.000 0.000 0,0 3556.584,1367.982 Z" style="stroke-width:2.0;stroke:rgb(255,255,255);stroke-linecap:round;fill:none;" />
<path d="M3636.509,1865.822 A1642.000,1642.000 40.000 0,1 3610.774,2318.704 L3648.051,2326.079 A1680.000,1680.000 0.000 0,0 3674.381,1862.717 Z" style="stroke-width:2.0;stroke:rgb(255,255,255);stroke-linecap:round;fill:rgb(185,185,185);" />
<text x="3743.6" y="2111.6" font-size="36.4px" font-family="CMUBright-Roman" style="text-anchor:start;fill:rgb(0,0,0);" transform="rotate(3.3,3743.6,2111.6)" >Finance-Investment</text>
<path d="M3636.509,1865.822 A1642.000,1642.000 40.000 0,1 3610.774,2318.704 L3648.051,2326.079 A1680.000,1680.000 0.000 0,0 3674.381,1862.717 Z" style="stroke-width:2.0;stroke:rgb(255,255,255);stroke-linecap:round;fill:none;" />
<path d="M3603.438,2353.767 A1642.000,1642.000 40.000 0,1 3499.856,2668.278 L3534.566,2683.744 A1680.000,1680.000 0.000 0,0 3640.546,2361.954 Z" style="stroke-width:2.0;stroke:rgb(255,255,255);stroke-linecap:round;fill:rgb(185,185,185);" />
<text x="3655.6" y="2558.4" font-size="36.4px" font-family="CMUBright-Roman" style="text-anchor:start;fill:rgb(0,0,0);" transform="rotate(18.2,3655.6,2558.4)" >Software-Data</text>
<path d="M3603.438,2353.767 A1642.000,1642.000 40.000 0,1 3499.856,2668.278 L3534.566,2683.744 A1680.000,1680.000 0.000 0,0 3640.546,2361.954 Z" style="stroke-width:2.0;stroke:rgb(255,255,255);stroke-linecap:round;fill:none;" />
<path d="M3484.921,2700.839 A1642.000,1642.000 40.000 0,1 3330.895,2961.708 L3361.695,2983.964 A1680.000,1680.000 0.000 0,0 3519.285,2717.058 Z" style="stroke-width:2.0;stroke:rgb(255,255,255);stroke-linecap:round;fill:rgb(185,185,185);" />
<text x="3498.1" y="2899.1" font-size="36.4px" font-family="CMUBright-Roman" style="text-anchor:start;fill:rgb(0,0,0);" transform="rotate(30.6,3498.1,2899.1)" >Education</text>
<path d="M3484.921,2700.839 A1642.000,1642.000 40.000 0,1 3330.895,2961.708 L3361.695,2983.964 A1680.000,1680.000 0.000 0,0 3519.285,2717.058 Z" style="stroke-width:2.0;stroke:rgb(255,255,255);stroke-linecap:round;fill:none;" />
<path d="M3309.599,2990.512 A1642.000,1642.000 40.000 0,1 3129.055,3192.225 L3155.184,3219.816 A1680.000,1680.000 0.000 0,0 3339.906,3013.435 Z" style="stroke-width:2.0;stroke:rgb(255,255,255);stroke-linecap:round;fill:rgb(185,185,185);" />
<text x="3293.5" y="3174.5" font-size="36.4px" font-family="CMUBright-Roman" style="text-anchor:start;fill:rgb(0,0,0);" transform="rotate(41.8,3293.5,3174.5)" >Research-Science</text>
<path d="M3309.599,2990.512 A1642.000,1642.000 40.000 0,1 3129.055,3192.225 L3155.184,3219.816 A1680.000,1680.000 0.000 0,0 3339.906,3013.435 Z" style="stroke-width:2.0;stroke:rgb(255,255,255);stroke-linecap:round;fill:none;" />
<path d="M3102.778,3216.571 A1642.000,1642.000 40.000 0,1 2891.302,3379.038 L2911.929,3410.952 A1680.000,1680.000 0.000 0,0 3128.299,3244.726 Z" style="stroke-width:2.0;stroke:rgb(255,255,255);stroke-linecap:round;fill:rgb(185,185,185);" />
<text x="3054.5" y="3393.1" font-size="36.4px" font-family="CMUBright-Roman" style="text-anchor:start;fill:rgb(0,0,0);" transform="rotate(52.5,3054.5,3393.1)" >Clinical-Care</text>
<path d="M3102.778,3216.571 A1642.000,1642.000 40.000 0,1 2891.302,3379.038 L2911.929,3410.952 A1680.000,1680.000 0.000 0,0 3128.299,3244.726 Z" style="stroke-width:2.0;stroke:rgb(255,255,255);stroke-linecap:round;fill:none;" />
<path d="M2861.006,3398.153 A1642.000,1642.000 40.000 0,1 2640.127,3512.085 L2654.941,3547.079 A1680.000,1680.000 0.000 0,0 2880.932,3430.510 Z" style="stroke-width:2.0;stroke:rgb(255,255,255);stroke-linecap:round;fill:rgb(185,185,185);" />
<text x="2786.7" y="3560.1" font-size="36.4px" font-family="CMUBright-Roman" style="text-anchor:start;fill:rgb(0,0,0);" transform="rotate(62.7,2786.7,3560.1)" >Accounting-Audit</text>
<path d="M2861.006,3398.153 A1642.000,1642.000 40.000 0,1 2640.127,3512.085 L2654.941,3547.079 A1680.000,1680.000 0.000 0,0 2880.932,3430.510 Z" style="stroke-width:2.0;stroke:rgb(255,255,255);stroke-linecap:round;fill:none;" />
<path d="M2606.988,3525.690 A1642.000,1642.000 40.000 0,1 2452.002,3578.562 L2462.463,3615.094 A1680.000,1680.000 0.000 0,0 2621.036,3560.998 Z" style="stroke-width:2.0;stroke:rgb(255,255,255);stroke-linecap:round;fill:rgb(185,185,185);" />
<text x="2552.3" y="3657.6" font-size="36.4px" font-family="CMUBright-Roman" style="text-anchor:start;fill:rgb(0,0,0);" transform="rotate(71.2,2552.3,3657.6)" >Social-Service</text>
<path d="M2606.988,3525.690 A1642.000,1642.000 40.000 0,1 2452.002,3578.562 L2462.463,3615.094 A1680.000,1680.000 0.000 0,0 2621.036,3560.998 Z" style="stroke-width:2.0;stroke:rgb(255,255,255);stroke-linecap:round;fill:none;" />
<path d="M2417.459,3588.047 A1642.000,1642.000 40.000 0,1 2320.910,3610.336 L2328.336,3647.603 A1680.000,1680.000 0.000 0,0 2427.120,3624.798 Z" style="stroke-width:2.0;stroke:rgb(255,255,255);stroke-linecap:round;fill:rgb(185,185,185);" />
<text x="2380.8" y="3705.2" font-size="36.4px" font-family="CMUBright-Roman" style="text-anchor:start;fill:rgb(0,0,0);" transform="rotate(77.0,2380.8,3705.2)" >IT-Infrastructure</text>
<path d="M2417.459,3588.047 A1642.000,1642.000 40.000 0,1 2320.910,3610.336 L2328.336,3647.603 A1680.000,1680.000 0.000 0,0 2427.120,3624.798 Z" style="stroke-width:2.0;stroke:rgb(255,255,255);stroke-linecap:round;fill:none;" />
<path d="M2285.704,3616.953 A1642.000,1642.000 40.000 0,1 2189.660,3631.010 L2194.050,3668.755 A1680.000,1680.000 0.000 0,0 2292.316,3654.373 Z" style="stroke-width:2.0;stroke:rgb(255,255,255);stroke-linecap:round;fill:rgb(185,185,185);" />
<text x="2237.2" y="3731.0" font-size="36.4px" font-family="CMUBright-Roman" style="text-anchor:start;fill:rgb(0,0,0);" transform="rotate(81.7,2237.2,3731.0)" >Legal-Policy</text>
<path d="M2285.704,3616.953 A1642.000,1642.000 40.000 0,1 2189.660,3631.010 L2194.050,3668.755 A1680.000,1680.000 0.000 0,0 2292.316,3654.373 Z" style="stroke-width:2.0;stroke:rgb(255,255,255);stroke-linecap:round;fill:none;" />
<path d="M2154.035,3634.759 A1642.000,1642.000 40.000 0,1 1474.020,3555.477 L1461.848,3591.475 A1680.000,1680.000 0.000 0,0 2157.600,3672.592 Z" style="stroke-width:2.0;stroke:rgb(255,255,255);stroke-linecap:round;fill:rgb(15,52,135);" />
<text x="1813.6" y="3737.2" font-size="36.4px" font-family="CMUBright-Roman" style="text-anchor:end;fill:rgb(0,0,0);" transform="rotate(-83.3,1813.6,3737.2)" >Finance-Accounting</text>
<path d="M2154.035,3634.759 A1642.000,1642.000 40.000 0,1 1474.020,3555.477 L1461.848,3591.475 A1680.000,1680.000 0.000 0,0 2157.600,3672.592 Z" style="stroke-width:2.0;stroke:rgb(255,255,255);stroke-linecap:round;fill:none;" />
<path d="M1440.213,3543.633 A1642.000,1642.000 40.000 0,1 888.845,3208.925 L863.130,3236.902 A1680.000,1680.000 0.000 0,0 1427.258,3579.356 Z" style="stroke-width:2.0;stroke:rgb(255,255,255);stroke-linecap:round;fill:rgb(42,98,180);" />
<text x="1104.1" y="3500.0" font-size="36.4px" font-family="CMUBright-Roman" style="text-anchor:end;fill:rgb(0,0,0);" transform="rotate(-58.7,1104.1,3500.0)" >General-Business</text>
<path d="M1440.213,3543.633 A1642.000,1642.000 40.000 0,1 888.845,3208.925 L863.130,3236.902 A1680.000,1680.000 0.000 0,0 1427.258,3579.356 Z" style="stroke-width:2.0;stroke:rgb(255,255,255);stroke-linecap:round;fill:none;" />
<path d="M862.737,3184.397 A1642.000,1642.000 40.000 0,1 624.574,2896.866 L592.744,2917.622 A1680.000,1680.000 0.000 0,0 836.418,3211.807 Z" style="stroke-width:2.0;stroke:rgb(255,255,255);stroke-linecap:round;fill:rgb(28,75,160);" />
<text x="664.7" y="3126.8" font-size="36.4px" font-family="CMUBright-Roman" style="text-anchor:end;fill:rgb(0,0,0);" transform="rotate(-39.6,664.7,3126.8)" >Marketing-Communication</text>
<path d="M862.737,3184.397 A1642.000,1642.000 40.000 0,1 624.574,2896.866 L592.744,2917.622 A1680.000,1680.000 0.000 0,0 836.418,3211.807 Z" style="stroke-width:2.0;stroke:rgb(255,255,255);stroke-linecap:round;fill:none;" />
<path d="M605.337,2866.648 A1642.000,1642.000 40.000 0,1 476.558,2612.607 L441.301,2626.784 A1680.000,1680.000 0.000 0,0 573.061,2886.704 Z" style="stroke-width:2.0;stroke:rgb(255,255,255);stroke-linecap:round;fill:rgb(60,120,198);" />
<text x="448.7" y="2803.8" font-size="36.4px" font-family="CMUBright-Roman" style="text-anchor:end;fill:rgb(0,0,0);" transform="rotate(-26.9,448.7,2803.8)" >Operations-Analytics</text>
<path d="M605.337,2866.648 A1642.000,1642.000 40.000 0,1 476.558,2612.607 L441.301,2626.784 A1680.000,1680.000 0.000 0,0 573.061,2886.704 Z" style="stroke-width:2.0;stroke:rgb(255,255,255);stroke-linecap:round;fill:none;" />
<path d="M463.556,2579.227 A1642.000,1642.000 40.000 0,1 407.419,2399.813 L370.563,2409.066 A1680.000,1680.000 0.000 0,0 427.999,2592.632 Z" style="stroke-width:2.0;stroke:rgb(255,255,255);stroke-linecap:round;fill:rgb(82,145,215);" />
<text x="337.2" y="2536.5" font-size="36.4px" font-family="CMUBright-Roman" style="text-anchor:end;fill:rgb(0,0,0);" transform="rotate(-17.4,337.2,2536.5)" >Specialized-Business</text>
<path d="M463.556,2579.227 A1642.000,1642.000 40.000 0,1 407.419,2399.813 L370.563,2409.066 A1680.000,1680.000 0.000 0,0 427.999,2592.632 Z" style="stroke-width:2.0;stroke:rgb(255,255,255);stroke-linecap:round;fill:none;" />
<path d="M399.076,2364.976 A1642.000,1642.000 40.000 0,1 366.776,2169.540 L328.979,2173.464 A1680.000,1680.000 0.000 0,0 362.027,2373.422 Z" style="stroke-width:2.0;stroke:rgb(255,255,255);stroke-linecap:round;fill:rgb(200,108,30);" />
<text x="278.3" y="2297.2" font-size="36.4px" font-family="CMUBright-Roman" style="text-anchor:end;fill:rgb(0,0,0);" transform="rotate(-9.4,278.3,2297.2)" >Social-Sciences</text>
<path d="M399.076,2364.976 A1642.000,1642.000 40.000 0,1 366.776,2169.540 L328.979,2173.464 A1680.000,1680.000 0.000 0,0 362.027,2373.422 Z" style="stroke-width:2.0;stroke:rgb(255,255,255);stroke-linecap:round;fill:none;" />
<path d="M363.466,2133.872 A1642.000,1642.000 40.000 0,1 358.290,2030.870 L320.297,2031.584 A1680.000,1680.000 0.000 0,0 325.593,2136.970 Z" style="stroke-width:2.0;stroke:rgb(255,255,255);stroke-linecap:round;fill:rgb(108,170,228);" />
<text x="255.6" y="2099.7" font-size="36.4px" font-family="CMUBright-Roman" style="text-anchor:end;fill:rgb(0,0,0);" transform="rotate(-2.9,255.6,2099.7)" >Economics</text>
<path d="M363.466,2133.872 A1642.000,1642.000 40.000 0,1 358.290,2030.870 L320.297,2031.584 A1680.000,1680.000 0.000 0,0 325.593,2136.970 Z" style="stroke-width:2.0;stroke:rgb(255,255,255);stroke-linecap:round;fill:none;" />
<path d="M358.007,1995.049 A1642.000,1642.000 40.000 0,1 358.807,1948.539 L320.825,1947.348 A1680.000,1680.000 0.000 0,0 320.008,1994.934 Z" style="stroke-width:2.0;stroke:rgb(255,255,255);stroke-linecap:round;fill:rgb(220,140,52);" />
<text x="252.9" y="1982.5" font-size="36.4px" font-family="CMUBright-Roman" style="text-anchor:end;fill:rgb(0,0,0);" transform="rotate(1.0,252.9,1982.5)" >Humanities-Liberal-Arts</text>
<path d="M358.007,1995.049 A1642.000,1642.000 40.000 0,1 358.807,1948.539 L320.825,1947.348 A1680.000,1680.000 0.000 0,0 320.008,1994.934 Z" style="stroke-width:2.0;stroke:rgb(255,255,255);stroke-linecap:round;fill:none;" />
<path d="M360.320,1912.749 A1642.000,1642.000 40.000 0,1 361.133,1898.615 L323.205,1896.269 A1680.000,1680.000 0.000 0,0 322.373,1910.730 Z" style="stroke-width:2.0;stroke:rgb(255,255,255);stroke-linecap:round;fill:rgb(235,168,78);" />
<text x="255.0" y="1912.1" font-size="36.4px" font-family="CMUBright-Roman" style="text-anchor:end;fill:rgb(0,0,0);" transform="rotate(3.3,255.0,1912.1)" >International-Studies</text>
<path d="M360.320,1912.749 A1642.000,1642.000 40.000 0,1 361.133,1898.615 L323.205,1896.269 A1680.000,1680.000 0.000 0,0 322.373,1910.730 Z" style="stroke-width:2.0;stroke:rgb(255,255,255);stroke-linecap:round;fill:none;" />
<path d="M363.735,1862.887 A1642.000,1642.000 40.000 0,1 391.336,1670.812 L354.108,1663.193 A1680.000,1680.000 0.000 0,0 325.867,1859.714 Z" style="stroke-width:2.0;stroke:rgb(255,255,255);stroke-linecap:round;fill:rgb(195,58,55);" />
<text x="268.8" y="1763.9" font-size="36.4px" font-family="CMUBright-Roman" style="text-anchor:end;fill:rgb(0,0,0);" transform="rotate(8.2,268.8,1763.9)" >Social-Work</text>
<path d="M363.735,1862.887 A1642.000,1642.000 40.000 0,1 391.336,1670.812 L354.108,1663.193 A1680.000,1680.000 0.000 0,0 325.867,1859.714 Z" style="stroke-width:2.0;stroke:rgb(255,255,255);stroke-linecap:round;fill:none;" />
<path d="M398.900,1635.797 A1642.000,1642.000 40.000 0,1 428.981,1522.439 L392.624,1511.387 A1680.000,1680.000 0.000 0,0 361.847,1627.368 Z" style="stroke-width:2.0;stroke:rgb(255,255,255);stroke-linecap:round;fill:rgb(175,35,42);" />
<text x="308.1" y="1564.0" font-size="36.4px" font-family="CMUBright-Roman" style="text-anchor:end;fill:rgb(0,0,0);" transform="rotate(14.9,308.1,1564.0)" >Teacher-Education</text>
<path d="M398.900,1635.797 A1642.000,1642.000 40.000 0,1 428.981,1522.439 L392.624,1511.387 A1680.000,1680.000 0.000 0,0 361.847,1627.368 Z" style="stroke-width:2.0;stroke:rgb(255,255,255);stroke-linecap:round;fill:none;" />
<path d="M439.773,1488.281 A1642.000,1642.000 40.000 0,1 474.975,1391.343 L439.682,1377.257 A1680.000,1680.000 0.000 0,0 403.666,1476.439 Z" style="stroke-width:2.0;stroke:rgb(255,255,255);stroke-linecap:round;fill:rgb(215,82,72);" />
<text x="352.5" y="1418.2" font-size="36.4px" font-family="CMUBright-Roman" style="text-anchor:end;fill:rgb(0,0,0);" transform="rotate(20.0,352.5,1418.2)" >Special-Education</text>
<path d="M439.773,1488.281 A1642.000,1642.000 40.000 0,1 474.975,1391.343 L439.682,1377.257 A1680.000,1680.000 0.000 0,0 403.666,1476.439 Z" style="stroke-width:2.0;stroke:rgb(255,255,255);stroke-linecap:round;fill:none;" />
<path d="M488.616,1358.220 A1642.000,1642.000 40.000 0,1 509.092,1311.991 L474.588,1296.068 A1680.000,1680.000 0.000 0,0 453.639,1343.368 Z" style="stroke-width:2.0;stroke:rgb(255,255,255);stroke-linecap:round;fill:rgb(230,112,95);" />
<text x="396.3" y="1306.6" font-size="36.4px" font-family="CMUBright-Roman" style="text-anchor:end;fill:rgb(0,0,0);" transform="rotate(23.9,396.3,1306.6)" >Educational-Leadership</text>
<path d="M488.616,1358.220 A1642.000,1642.000 40.000 0,1 509.092,1311.991 L474.588,1296.068 A1680.000,1680.000 0.000 0,0 453.639,1343.368 Z" style="stroke-width:2.0;stroke:rgb(255,255,255);stroke-linecap:round;fill:none;" />
<path d="M524.455,1279.630 A1642.000,1642.000 40.000 0,1 553.988,1222.045 L520.524,1204.041 A1680.000,1680.000 0.000 0,0 490.308,1262.959 Z" style="stroke-width:2.0;stroke:rgb(255,255,255);stroke-linecap:round;fill:rgb(0,130,142);" />
<text x="439.7" y="1213.8" font-size="36.4px" font-family="CMUBright-Roman" style="text-anchor:end;fill:rgb(0,0,0);" transform="rotate(27.2,439.7,1213.8)" >Communication-Studies</text>
<path d="M524.455,1279.630 A1642.000,1642.000 40.000 0,1 553.988,1222.045 L520.524,1204.041 A1680.000,1680.000 0.000 0,0 490.308,1262.959 Z" style="stroke-width:2.0;stroke:rgb(255,255,255);stroke-linecap:round;fill:none;" />
<path d="M571.303,1190.686 A1642.000,1642.000 40.000 0,1 588.562,1160.949 L555.898,1141.531 A1680.000,1680.000 0.000 0,0 538.240,1171.956 Z" style="stroke-width:2.0;stroke:rgb(255,255,255);stroke-linecap:round;fill:rgb(0,165,172);" />
<text x="482.6" y="1133.8" font-size="36.4px" font-family="CMUBright-Roman" style="text-anchor:end;fill:rgb(0,0,0);" transform="rotate(30.1,482.6,1133.8)" >Journalism-Media</text>
<path d="M571.303,1190.686 A1642.000,1642.000 40.000 0,1 588.562,1160.949 L555.898,1141.531 A1680.000,1680.000 0.000 0,0 538.240,1171.956 Z" style="stroke-width:2.0;stroke:rgb(255,255,255);stroke-linecap:round;fill:none;" />
<path d="M607.202,1130.358 A1642.000,1642.000 40.000 0,1 613.667,1120.089 L581.583,1099.725 A1680.000,1680.000 0.000 0,0 574.969,1110.233 Z" style="stroke-width:2.0;stroke:rgb(255,255,255);stroke-linecap:round;fill:rgb(38,195,195);" />
<text x="512.9" y="1082.8" font-size="36.4px" font-family="CMUBright-Roman" style="text-anchor:end;fill:rgb(0,0,0);" transform="rotate(32.2,512.9,1082.8)" >Creative-Writing</text>
<path d="M607.202,1130.358 A1642.000,1642.000 40.000 0,1 613.667,1120.089 L581.583,1099.725 A1680.000,1680.000 0.000 0,0 574.969,1110.233 Z" style="stroke-width:2.0;stroke:rgb(255,255,255);stroke-linecap:round;fill:none;" />
<path d="M633.192,1090.055 A1642.000,1642.000 40.000 0,1 667.742,1040.182 L636.910,1017.969 A1680.000,1680.000 0.000 0,0 601.560,1068.997 Z" style="stroke-width:2.0;stroke:rgb(255,255,255);stroke-linecap:round;fill:rgb(180,45,112);" />
<text x="554.7" y="1018.2" font-size="36.4px" font-family="CMUBright-Roman" style="text-anchor:end;fill:rgb(0,0,0);" transform="rotate(34.7,554.7,1018.2)" >Arts-Theology</text>
<path d="M633.192,1090.055 A1642.000,1642.000 40.000 0,1 667.742,1040.182 L636.910,1017.969 A1680.000,1680.000 0.000 0,0 601.560,1068.997 Z" style="stroke-width:2.0;stroke:rgb(255,255,255);stroke-linecap:round;fill:none;" />
<path d="M688.997,1011.347 A1642.000,1642.000 40.000 0,1 698.803,998.477 L668.690,975.299 A1680.000,1680.000 0.000 0,0 658.657,988.467 Z" style="stroke-width:2.0;stroke:rgb(255,255,255);stroke-linecap:round;fill:rgb(205,75,142);" />
<text x="600.6" y="953.9" font-size="36.4px" font-family="CMUBright-Roman" style="text-anchor:end;fill:rgb(0,0,0);" transform="rotate(37.3,600.6,953.9)" >English-Writing</text>
<path d="M688.997,1011.347 A1642.000,1642.000 40.000 0,1 698.803,998.477 L668.690,975.299 A1680.000,1680.000 0.000 0,0 658.657,988.467 Z" style="stroke-width:2.0;stroke:rgb(255,255,255);stroke-linecap:round;fill:none;" />
<path d="M720.960,970.329 A1642.000,1642.000 40.000 0,1 724.774,965.610 L695.262,941.672 A1680.000,1680.000 0.000 0,0 691.360,946.500 Z" style="stroke-width:2.0;stroke:rgb(255,255,255);stroke-linecap:round;fill:rgb(225,110,168);" />
<text x="631.0" y="914.3" font-size="36.4px" font-family="CMUBright-Roman" style="text-anchor:end;fill:rgb(0,0,0);" transform="rotate(38.9,631.0,914.3)" >Languages</text>
<path d="M720.960,970.329 A1642.000,1642.000 40.000 0,1 724.774,965.610 L695.262,941.672 A1680.000,1680.000 0.000 0,0 691.360,946.500 Z" style="stroke-width:2.0;stroke:rgb(255,255,255);stroke-linecap:round;fill:none;" />
<path d="M747.643,938.037 A1642.000,1642.000 40.000 0,1 884.635,794.959 L858.822,767.071 A1680.000,1680.000 0.000 0,0 718.660,913.461 Z" style="stroke-width:2.0;stroke:rgb(255,255,255);stroke-linecap:round;fill:rgb(88,40,138);" />
<text x="727.0" y="803.3" font-size="36.4px" font-family="CMUBright-Roman" style="text-anchor:end;fill:rgb(0,0,0);" transform="rotate(43.8,727.0,803.3)" >Biological-Sciences</text>
<path d="M747.643,938.037 A1642.000,1642.000 40.000 0,1 884.635,794.959 L858.822,767.071 A1680.000,1680.000 0.000 0,0 718.660,913.461 Z" style="stroke-width:2.0;stroke:rgb(255,255,255);stroke-linecap:round;fill:none;" />
<path d="M911.188,770.914 A1642.000,1642.000 40.000 0,1 969.888,721.316 L946.049,691.724 A1680.000,1680.000 0.000 0,0 885.990,742.470 Z" style="stroke-width:2.0;stroke:rgb(255,255,255);stroke-linecap:round;fill:rgb(115,65,165);" />
<text x="862.8" y="673.5" font-size="36.4px" font-family="CMUBright-Roman" style="text-anchor:end;fill:rgb(0,0,0);" transform="rotate(49.8,862.8,673.5)" >Health-Wellness</text>
<path d="M911.188,770.914 A1642.000,1642.000 40.000 0,1 969.888,721.316 L946.049,691.724 A1680.000,1680.000 0.000 0,0 885.990,742.470 Z" style="stroke-width:2.0;stroke:rgb(255,255,255);stroke-linecap:round;fill:none;" />
<path d="M998.028,699.148 A1642.000,1642.000 40.000 0,1 1023.858,679.655 L1001.267,649.099 A1680.000,1680.000 0.000 0,0 974.840,669.043 Z" style="stroke-width:2.0;stroke:rgb(255,255,255);stroke-linecap:round;fill:rgb(140,92,188);" />
<text x="935.2" y="614.8" font-size="36.4px" font-family="CMUBright-Roman" style="text-anchor:end;fill:rgb(0,0,0);" transform="rotate(53.0,935.2,614.8)" >Physical-Sciences</text>
<path d="M998.028,699.148 A1642.000,1642.000 40.000 0,1 1023.858,679.655 L1001.267,649.099 A1680.000,1680.000 0.000 0,0 974.840,669.043 Z" style="stroke-width:2.0;stroke:rgb(255,255,255);stroke-linecap:round;fill:none;" />
<path d="M1052.893,658.675 A1642.000,1642.000 40.000 0,1 1064.493,650.559 L1042.843,619.329 A1680.000,1680.000 0.000 0,0 1030.975,627.633 Z" style="stroke-width:2.0;stroke:rgb(255,255,255);stroke-linecap:round;fill:rgb(165,120,208);" />
<text x="988.2" y="575.6" font-size="36.4px" font-family="CMUBright-Roman" style="text-anchor:end;fill:rgb(0,0,0);" transform="rotate(55.0,988.2,575.6)" >Environmental-Sciences</text>
<path d="M1052.893,658.675 A1642.000,1642.000 40.000 0,1 1064.493,650.559 L1042.843,619.329 A1680.000,1680.000 0.000 0,0 1030.975,627.633 Z" style="stroke-width:2.0;stroke:rgb(255,255,255);stroke-linecap:round;fill:none;" />
<path d="M1094.154,630.472 A1642.000,1642.000 40.000 0,1 1594.822,408.776 L1585.445,371.951 A1680.000,1680.000 0.000 0,0 1073.190,598.778 Z" style="stroke-width:2.0;stroke:rgb(255,255,255);stroke-linecap:round;fill:rgb(22,118,50);" />
<text x="1278.0" y="409.0" font-size="36.4px" font-family="CMUBright-Roman" style="text-anchor:end;fill:rgb(0,0,0);" transform="rotate(66.1,1278.0,409.0)" >Engineering-Disciplines</text>
<path d="M1094.154,630.472 A1642.000,1642.000 40.000 0,1 1594.822,408.776 L1585.445,371.951 A1680.000,1680.000 0.000 0,0 1073.190,598.778 Z" style="stroke-width:2.0;stroke:rgb(255,255,255);stroke-linecap:round;fill:none;" />
<path d="M1629.631,400.315 A1642.000,1642.000 40.000 0,1 1964.180,358.391 L1963.351,320.400 A1680.000,1680.000 0.000 0,0 1621.060,363.295 Z" style="stroke-width:2.0;stroke:rgb(255,255,255);stroke-linecap:round;fill:rgb(48,158,75);" />
<text x="1767.4" y="268.4" font-size="36.4px" font-family="CMUBright-Roman" style="text-anchor:end;fill:rgb(0,0,0);" transform="rotate(82.9,1767.4,268.4)" >Computer-Science-IT</text>
<path d="M1629.631,400.315 A1642.000,1642.000 40.000 0,1 1964.180,358.391 L1963.351,320.400 A1680.000,1680.000 0.000 0,0 1621.060,363.295 Z" style="stroke-width:2.0;stroke:rgb(255,255,255);stroke-linecap:round;fill:none;" />
</g>
<g id="track_0">
<path d="M 2852.396,3384.172 A 1625.580,1625.580 0.00 0,1 2849.0,3386.3 L 2849.0,3386.3 2809.6,3323.3 2768.3,3259.8 2725.5,3195.8 2681.2,3131.1 2635.6,3065.9 2589.0,2999.9 2541.5,2933.3 2493.3,2866.0 2444.6,2797.9 2395.4,2729.2 2345.9,2659.8 2296.3,2589.7 2246.7,2518.9 2197.1,2447.5 2147.7,2375.4 2098.5,2302.8 2049.7,2229.7 2001.3,2156.0 1953.4,2082.0 1906.0,2007.5 1859.2,1932.7 1812.9,1857.7 1767.3,1782.6 1722.3,1707.3 1678.0,1632.1 1634.2,1556.9 1591.1,1482.0 1548.6,1407.4 1506.6,1333.2 1465.1,1259.6 1424.1,1186.6 1383.5,1114.4 1343.3,1043.2 1303.2,973.1 1263.4,904.2 1223.5,836.7 1183.6,770.7 1143.6,706.5 1103.2,644.2  A 1625.580,1625.580 0.00 0,1 1106.6,642.0 L 1106.6,642.0 1146.8,704.4 1186.7,768.8 1226.5,834.9 1266.2,902.5 1306.0,971.5 1345.9,1041.7 1386.1,1113.0 1426.6,1185.2 1467.5,1258.3 1508.8,1332.0 1550.7,1406.2 1593.1,1480.9 1636.2,1555.8 1679.9,1631.0 1724.2,1706.3 1769.1,1781.5 1814.7,1856.7 1860.9,1931.7 1907.7,2006.4 1955.1,2080.9 2003.0,2154.9 2051.4,2228.5 2100.3,2301.7 2149.4,2374.2 2198.9,2446.2 2248.5,2517.6 2298.2,2588.3 2347.9,2658.4 2397.4,2727.7 2446.7,2796.4 2495.6,2864.3 2543.9,2931.6 2591.5,2998.2 2638.2,3064.1 2683.9,3129.3 2728.4,3193.9 2771.4,3257.9 2812.8,3321.3 2852.4,3384.2  Z" style="stroke-width: 0.0;  fill: rgb(22,118,50);" />
<path d="M 2848.983,3386.267 A 1625.580,1625.580 0.00 0,1 2847.3,3387.3 L 2847.3,3387.3 2809.3,3326.9 2768.9,3266.0 2726.4,3204.7 2681.9,3142.9 2635.7,3080.6 2587.7,3017.9 2538.3,2954.6 2487.5,2890.8 2435.6,2826.6 2382.6,2761.9 2328.6,2696.8 2273.8,2631.2 2218.3,2565.3 2162.3,2499.0 2105.8,2432.4 2048.8,2365.5 1991.6,2298.4 1934.2,2231.2 1876.6,2163.9 1819.0,2096.6 1761.4,2029.3 1703.9,1962.2 1646.4,1895.3 1589.2,1828.7 1532.1,1762.6 1475.2,1697.0 1418.6,1632.0 1362.3,1567.8 1306.3,1504.4 1250.6,1442.0 1195.1,1380.7 1140.0,1320.7 1085.1,1262.1 1030.5,1205.1 976.1,1149.8 921.9,1096.3 867.9,1044.8 814.0,995.5 760.2,948.7  A 1625.580,1625.580 0.00 0,1 761.5,947.1 L 761.5,947.1 815.3,994.1 869.1,1043.4 923.1,1095.0 977.3,1148.5 1031.6,1203.9 1086.2,1261.0 1141.0,1319.7 1196.1,1379.8 1251.5,1441.1 1307.2,1503.5 1363.2,1566.9 1419.5,1631.2 1476.1,1696.2 1532.9,1761.9 1590.0,1828.0 1647.2,1894.6 1704.6,1961.5 1762.2,2028.6 1819.8,2095.9 1877.4,2163.2 1935.0,2230.5 1992.4,2297.8 2049.7,2364.8 2106.6,2431.7 2163.2,2498.3 2219.2,2564.6 2274.7,2630.5 2329.6,2696.0 2383.6,2761.1 2436.6,2825.8 2488.7,2890.0 2539.5,2953.7 2589.0,3017.0 2637.0,3079.7 2683.3,3142.0 2727.9,3203.7 2770.5,3265.0 2810.9,3325.9 2849.0,3386.3  Z" style="stroke-width: 0.0;  fill: rgb(88,40,138);" />
<path d="M 2847.275,3387.312 A 1625.580,1625.580 0.00 0,1 2845.6,3388.4 L 2845.6,3388.4 2808.2,3328.9 2768.3,3269.1 2726.1,3209.0 2681.7,3148.4 2635.3,3087.5 2587.0,3026.1 2537.1,2964.4 2485.5,2902.4 2432.6,2840.0 2378.3,2777.2 2322.9,2714.2 2266.5,2650.9 2209.1,2587.4 2150.8,2523.7 2091.9,2459.9 2032.4,2395.9 1972.3,2332.0 1911.8,2268.1 1851.0,2204.3 1789.9,2140.7 1728.6,2077.3 1667.2,2014.3 1605.7,1951.7 1544.2,1889.6 1482.8,1828.2 1421.5,1767.4 1360.4,1707.5 1299.4,1648.5 1238.7,1590.6 1178.2,1533.9 1117.9,1478.5 1058.0,1424.5 998.4,1372.1 939.0,1321.4 880.0,1272.6 821.3,1225.8 762.9,1181.2 704.7,1138.9 646.9,1099.2  A 1625.580,1625.580 0.00 0,1 648.0,1097.5 L 648.0,1097.5 705.8,1137.3 763.9,1179.7 822.3,1224.4 881.0,1271.2 940.0,1320.1 999.3,1370.9 1058.9,1423.3 1118.8,1477.4 1179.0,1532.9 1239.5,1589.7 1300.2,1647.6 1361.1,1706.6 1422.3,1766.6 1483.6,1827.4 1545.0,1888.8 1606.4,1950.9 1667.9,2013.6 1729.3,2076.6 1790.6,2140.0 1851.7,2203.6 1912.6,2267.4 1973.1,2331.3 2033.2,2395.2 2092.7,2459.1 2151.7,2523.0 2209.9,2586.7 2267.4,2650.2 2323.9,2713.4 2379.4,2776.4 2433.7,2839.2 2486.7,2901.5 2538.2,2963.6 2588.3,3025.3 2636.6,3086.5 2683.1,3147.5 2727.5,3208.0 2769.8,3268.1 2809.8,3327.9 2847.3,3387.3  Z" style="stroke-width: 0.0;  fill: rgb(180,45,112);" />
<path d="M 2845.566,3388.355 A 1625.580,1625.580 0.00 0,1 2843.9,3389.4 L 2843.9,3389.4 2808.9,3334.3 2771.0,3279.3 2730.3,3224.4 2687.0,3169.6 2641.1,3115.1 2592.7,3060.8 2542.0,3006.9 2489.1,2953.4 2434.1,2900.4 2377.1,2847.9 2318.3,2796.0 2257.7,2744.8 2195.5,2694.3 2131.8,2644.6 2066.7,2595.7 2000.3,2547.8 1932.8,2500.8 1864.2,2455.0 1794.7,2410.2 1724.4,2366.7 1653.3,2324.4 1581.7,2283.5 1509.6,2244.0 1437.1,2205.9 1364.3,2169.4 1291.4,2134.6 1218.5,2101.5 1145.6,2070.1 1072.9,2040.6 1000.5,2013.0 928.5,1987.4 857.1,1963.9 786.2,1942.6 716.1,1923.5 646.8,1906.7 578.4,1892.3 511.1,1880.3 445.0,1871.0 380.1,1864.3  A 1625.580,1625.580 0.00 0,1 380.3,1862.3 L 380.3,1862.3 445.2,1869.1 511.3,1878.5 578.6,1890.5 647.0,1905.0 716.3,1921.9 786.4,1941.0 857.3,1962.4 928.8,1986.0 1000.8,2011.7 1073.2,2039.3 1145.9,2068.9 1218.8,2100.3 1291.7,2133.5 1364.7,2168.4 1437.4,2204.9 1510.0,2243.0 1582.1,2282.6 1653.8,2323.5 1724.9,2365.8 1795.2,2409.4 1864.8,2454.2 1933.4,2500.0 2001.0,2547.0 2067.4,2594.9 2132.6,2643.8 2196.3,2693.5 2258.6,2744.0 2319.2,2795.2 2378.1,2847.1 2435.1,2899.6 2490.2,2952.6 2543.2,3006.0 2593.9,3059.9 2642.4,3114.2 2688.4,3168.7 2731.8,3223.4 2772.6,3278.3 2810.5,3333.3 2845.6,3388.4  Z" style="stroke-width: 0.0;  fill: rgb(195,58,55);" />
<path d="M 2843.855,3389.395 A 1625.580,1625.580 0.00 0,1 2840.4,3391.5 L 2840.4,3391.5 2806.4,3337.7 2769.4,3284.1 2729.6,3230.8 2687.0,3177.9 2641.8,3125.4 2594.1,3073.5 2544.0,3022.2 2491.6,2971.6 2437.0,2921.8 2380.4,2872.9 2321.8,2824.9 2261.4,2778.0 2199.3,2732.1 2135.6,2687.4 2070.4,2643.9 2003.8,2601.8 1936.0,2561.0 1867.0,2521.7 1797.1,2483.9 1726.3,2447.7 1654.7,2413.1 1582.5,2380.2 1509.7,2349.0 1436.6,2319.7 1363.2,2292.2 1289.7,2266.7 1216.1,2243.1 1142.7,2221.6 1069.5,2202.2 996.7,2184.9 924.4,2169.8 852.7,2156.9 781.8,2146.3 711.8,2137.9 642.8,2132.0 575.0,2128.4 508.5,2127.3 443.4,2128.7 379.8,2132.5  A 1625.580,1625.580 0.00 0,1 379.5,2128.5 L 379.5,2128.5 443.1,2124.8 508.3,2123.6 574.8,2124.9 642.7,2128.6 711.8,2134.7 781.8,2143.2 852.8,2153.9 924.5,2167.0 996.9,2182.2 1069.7,2199.7 1143.0,2219.2 1216.5,2240.8 1290.1,2264.5 1363.7,2290.1 1437.1,2317.7 1510.3,2347.1 1583.1,2378.3 1655.4,2411.3 1727.1,2445.9 1798.0,2482.2 1868.1,2520.1 1937.1,2559.4 2005.0,2600.2 2071.7,2642.4 2137.0,2685.8 2200.9,2730.5 2263.1,2776.4 2323.6,2823.3 2382.4,2871.2 2439.1,2920.1 2493.8,2969.9 2546.4,3020.4 2596.6,3071.7 2644.5,3123.6 2689.8,3176.0 2732.5,3228.9 2772.5,3282.1 2809.7,3335.7 2843.9,3389.4  Z" style="stroke-width: 0.0;  fill: rgb(108,170,228);" />
<path d="M 2840.430,3391.470 A 1625.580,1625.580 0.00 0,1 2833.6,3395.6 L 2833.6,3395.6 2801.1,3343.8 2765.7,3292.5 2727.6,3241.7 2686.8,3191.7 2643.4,3142.6 2597.5,3094.4 2549.3,3047.4 2498.9,3001.6 2446.2,2957.1 2391.6,2914.1 2335.0,2872.6 2276.6,2832.8 2216.4,2794.6 2154.7,2758.3 2091.6,2723.9 2027.1,2691.5 1961.3,2661.1 1894.5,2632.8 1826.7,2606.6 1758.1,2582.6 1688.7,2560.9 1618.8,2541.5 1548.4,2524.4 1477.7,2509.6 1406.9,2497.2 1336.0,2487.2 1265.2,2479.6 1194.7,2474.4 1124.6,2471.7 1055.0,2471.3 986.1,2473.4 918.1,2477.8 851.1,2484.6 785.3,2493.8 720.7,2505.3 657.6,2519.0 596.2,2535.0 536.6,2553.1 478.9,2573.4  A 1625.580,1625.580 0.00 0,1 476.1,2565.9 L 476.1,2565.9 534.0,2545.9 593.8,2528.0 655.4,2512.3 718.6,2498.8 783.3,2487.6 849.4,2478.7 916.6,2472.2 984.8,2468.0 1053.8,2466.2 1123.6,2466.8 1193.9,2469.8 1264.6,2475.1 1335.6,2482.9 1406.7,2493.1 1477.8,2505.7 1548.7,2520.6 1619.3,2537.8 1689.5,2557.4 1759.1,2579.2 1828.0,2603.3 1896.1,2629.5 1963.2,2657.9 2029.2,2688.3 2093.9,2720.8 2157.4,2755.2 2219.4,2791.5 2279.8,2829.6 2338.5,2869.4 2395.4,2910.8 2450.4,2953.8 2503.3,2998.2 2554.1,3043.9 2602.6,3090.9 2648.7,3138.9 2692.4,3188.0 2733.5,3237.9 2772.0,3288.5 2807.6,3339.8 2840.4,3391.5  Z" style="stroke-width: 0.0;  fill: rgb(82,145,215);" />
<path d="M 2833.564,3395.594 A 1625.580,1625.580 0.00 0,1 2821.5,3402.7 L 2821.5,3402.7 2790.3,3352.1 2756.4,3302.0 2719.9,3252.8 2680.9,3204.5 2639.5,3157.3 2595.7,3111.4 2549.7,3066.9 2501.6,3024.0 2451.5,2982.8 2399.4,2943.5 2345.6,2906.0 2290.1,2870.7 2233.0,2837.5 2174.5,2806.6 2114.6,2777.9 2053.5,2751.7 1991.3,2728.0 1928.1,2706.8 1864.1,2688.2 1799.4,2672.1 1734.1,2658.8 1668.3,2648.1 1602.2,2640.1 1536.0,2634.8 1469.6,2632.2 1403.4,2632.3 1337.5,2635.0 1271.9,2640.4 1206.8,2648.4 1142.4,2659.0 1078.9,2672.1 1016.3,2687.6 954.9,2705.5 894.8,2725.7 836.1,2748.1 779.1,2772.7 723.8,2799.2 670.5,2827.7 619.3,2858.0  A 1625.580,1625.580 0.00 0,1 611.9,2846.0 L 611.9,2846.0 663.5,2816.2 717.2,2788.1 772.9,2761.9 830.3,2737.8 889.4,2715.7 949.9,2695.9 1011.7,2678.4 1074.7,2663.3 1138.7,2650.6 1203.5,2640.4 1269.0,2632.8 1335.1,2627.7 1401.5,2625.3 1468.2,2625.5 1535.0,2628.3 1601.8,2633.9 1668.4,2642.1 1734.7,2653.0 1800.5,2666.5 1865.8,2682.6 1930.3,2701.4 1994.0,2722.6 2056.8,2746.4 2118.4,2772.6 2178.8,2801.3 2237.9,2832.2 2295.6,2865.3 2351.7,2900.6 2406.0,2937.9 2458.6,2977.1 2509.3,3018.2 2558.0,3060.9 2604.6,3105.2 2648.9,3151.0 2690.9,3198.0 2730.4,3246.1 2767.5,3295.2 2801.9,3345.1 2833.6,3395.6  Z" style="stroke-width: 0.0;  fill: rgb(60,120,198);" />
<path d="M 2821.500,3402.729 A 1625.580,1625.580 0.00 0,1 2819.8,3403.7 L 2819.8,3403.7 2789.7,3354.6 2757.2,3306.2 2722.3,3258.8 2685.3,3212.6 2646.2,3167.9 2605.0,3124.7 2562.0,3083.4 2517.2,3044.0 2470.7,3006.7 2422.6,2971.7 2373.0,2939.1 2322.1,2909.1 2269.9,2881.7 2216.5,2857.0 2162.2,2835.1 2106.9,2816.2 2050.9,2800.2 1994.2,2787.2 1936.9,2777.3 1879.2,2770.4 1821.2,2766.6 1763.0,2766.0 1704.8,2768.4 1646.6,2773.9 1588.7,2782.4 1531.0,2793.9 1473.9,2808.3 1417.3,2825.6 1361.5,2845.7 1306.5,2868.4 1252.6,2893.7 1199.8,2921.5 1148.2,2951.6 1098.1,2983.9 1049.6,3018.3 1002.8,3054.5 957.8,3092.4 914.9,3131.8 874.1,3172.6  A 1625.580,1625.580 0.00 0,1 872.7,3171.2 L 872.7,3171.2 913.5,3130.5 956.5,3091.1 1001.5,3053.2 1048.4,3017.1 1097.0,2982.8 1147.2,2950.5 1198.8,2920.4 1251.7,2892.7 1305.7,2867.4 1360.8,2844.7 1416.7,2824.7 1473.3,2807.4 1530.6,2793.0 1588.3,2781.6 1646.3,2773.1 1704.6,2767.6 1762.9,2765.2 1821.2,2765.9 1879.2,2769.7 1937.0,2776.6 1994.4,2786.5 2051.2,2799.5 2107.3,2815.5 2162.7,2834.4 2217.1,2856.3 2270.5,2881.0 2322.8,2908.4 2373.8,2938.4 2423.5,2971.0 2471.7,3005.9 2518.3,3043.2 2563.2,3082.5 2606.3,3123.9 2647.5,3167.0 2686.7,3211.7 2723.8,3257.9 2758.7,3305.3 2791.3,3353.6 2821.5,3402.7  Z" style="stroke-width: 0.0;  fill: rgb(28,75,160);" />
<path d="M 2819.772,3403.740 A 1625.580,1625.580 0.00 0,1 2795.4,3417.7 L 2795.4,3417.7 2767.7,3370.1 2738.3,3323.3 2707.3,3277.8 2674.9,3233.6 2641.2,3191.2 2606.3,3150.7 2570.3,3112.4 2533.3,3076.5 2495.5,3043.2 2456.9,3012.7 2417.7,2985.1 2377.9,2960.6 2337.7,2939.3 2297.1,2921.3 2256.3,2906.7 2215.4,2895.6 2174.4,2888.1 2133.5,2884.1 2092.8,2883.8 2052.3,2887.1 2012.1,2894.1 1972.4,2904.6 1933.2,2918.7 1894.6,2936.3 1856.7,2957.3 1819.6,2981.7 1783.4,3009.3 1748.2,3039.9 1713.9,3073.5 1680.8,3109.9 1648.9,3149.0 1618.3,3190.4 1589.0,3234.0 1561.2,3279.7 1534.8,3327.0 1510.0,3375.8 1486.9,3425.8 1465.5,3476.7 1445.8,3528.2  A 1625.580,1625.580 0.00 0,1 1419.5,3518.4 L 1419.5,3518.4 1440.2,3467.1 1462.6,3416.5 1486.8,3366.7 1512.7,3318.1 1540.3,3271.0 1569.4,3225.6 1599.9,3182.2 1631.8,3141.0 1665.1,3102.2 1699.5,3066.0 1735.1,3032.5 1771.8,3002.0 1809.5,2974.5 1848.0,2950.2 1887.3,2929.3 1927.4,2911.7 1968.1,2897.6 2009.3,2887.0 2050.9,2879.9 2092.9,2876.5 2135.1,2876.7 2177.5,2880.4 2220.0,2887.7 2262.3,2898.6 2304.6,2912.8 2346.5,2930.5 2388.2,2951.5 2429.3,2975.6 2469.9,3002.9 2509.8,3033.0 2548.9,3065.9 2587.1,3101.4 2624.3,3139.2 2660.4,3179.3 2695.2,3221.3 2728.7,3265.0 2760.7,3310.2 2791.1,3356.5 2819.8,3403.7  Z" style="stroke-width: 0.0;  fill: rgb(42,98,180);" />
<path d="M 2795.444,3417.667 A 1625.580,1625.580 0.00 0,1 2635.6,3496.2 L 2635.6,3496.2 2614.4,3447.3 2592.7,3399.0 2570.6,3351.7 2548.2,3305.7 2525.6,3261.3 2503.0,3218.7 2480.4,3178.4 2458.0,3140.5 2435.8,3105.2 2413.9,3072.9 2392.4,3043.5 2371.5,3017.5 2351.1,2994.8 2331.4,2975.7 2312.4,2960.2 2294.2,2948.4 2276.8,2940.5 2260.2,2936.4 2244.7,2936.2 2230.0,2939.9 2216.4,2947.5 2203.8,2958.9 2192.3,2974.2 2181.9,2993.2 2172.5,3015.9 2164.3,3042.1 2157.1,3071.7 2151.1,3104.6 2146.2,3140.6 2142.3,3179.5 2139.6,3221.0 2137.8,3265.1 2137.2,3311.3 2137.5,3359.5 2138.7,3409.3 2140.9,3460.4 2144.0,3512.6 2147.9,3565.4 2152.5,3618.4  A 1625.580,1625.580 0.00 0,1 1974.5,3625.4 L 1974.5,3625.4 1976.0,3571.6 1978.6,3518.1 1982.5,3465.2 1987.7,3413.2 1994.2,3362.4 2002.0,3313.3 2011.1,3265.9 2021.5,3220.7 2033.2,3177.9 2046.3,3137.6 2060.6,3100.1 2076.2,3065.6 2093.1,3034.2 2111.3,3006.2 2130.6,2981.5 2151.1,2960.4 2172.8,2942.9 2195.6,2929.1 2219.3,2919.0 2244.1,2912.7 2269.8,2910.3 2296.4,2911.6 2323.8,2916.7 2351.9,2925.5 2380.6,2938.0 2410.0,2954.1 2439.7,2973.6 2469.9,2996.6 2500.3,3022.7 2531.0,3051.9 2561.7,3084.1 2592.3,3118.9 2622.8,3156.2 2653.1,3195.7 2682.9,3237.3 2712.2,3280.5 2740.8,3325.2 2768.6,3371.1 2795.4,3417.7  Z" style="stroke-width: 0.0;  fill: rgb(15,52,135);" />
</g>
<defs>
<pattern id="checker" width="10" height="10" patternTransform="rotate(45 0 0)" patternUnits="userSpaceOnUse"><line x1="0" y1="0" x2="10" y2="0" style="stroke:black;stroke-width:5" /><line x1="0" y1="0" x2="0" y2="10" style="stroke:black;stroke-width:4" /></pattern>
<pattern id="vline-sparse" width="10" height="10" patternTransform="rotate(0 0 0)" patternUnits="userSpaceOnUse"><line x1="0" y1="0" x2="0" y2="10" style="stroke:black;stroke-width:2" /></pattern>
<pattern id="vline" width="10" height="10" patternTransform="rotate(0 0 0)" patternUnits="userSpaceOnUse"><line x1="0" y1="0" x2="0" y2="10" style="stroke:black;stroke-width:5" /></pattern>
<pattern id="hline-sparse" width="10" height="10" patternTransform="rotate(0 0 0)" patternUnits="userSpaceOnUse"><line x1="0" y1="0" x2="10" y2="0" style="stroke:black;stroke-width:2" /></pattern>
<pattern id="hline" width="10" height="10" patternTransform="rotate(0 0 0)" patternUnits="userSpaceOnUse"><line x1="0" y1="0" x2="10" y2="0" style="stroke:black;stroke-width:5" /></pattern>
<pattern id="checker" width="10" height="10" patternTransform="rotate(45 0 0)" patternUnits="userSpaceOnUse"><line x1="0" y1="0" x2="10" y2="0" style="stroke:black;stroke-width:2" /><line x1="0" y1="0" x2="0" y2="10" style="stroke:black;stroke-width:2" /></pattern>
</defs>
</svg>
