<?xml version="1.0" encoding="utf-8" standalone="no"?>
<!DOCTYPE svg PUBLIC "-//W3C//DTD SVG 1.1//EN" "http://www.w3.org/Graphics/SVG/1.1/DTD/svg11.dtd">
<svg width="4000px" height="4000px" version="1.1" xmlns="http://www.w3.org/2000/svg" xmlns:xlink="http://www.w3.org/1999/xlink">
<g id="bg">
<rect x="0" y="0" width="4000px" height="4000px" style="fill:rgb(255,255,255);"/>
</g>
<g id="ideograms">
<path d="M2000.000,358.000 A1642.000,1642.000 40.000 0,1 2751.610,540.121 L2769.004,506.336 A1680.000,1680.000 0.000 0,0 2000.000,320.000 Z" style="stroke-width:2.0;stroke:rgb(255,255,255);stroke-linecap:round;fill:rgb(185,185,185);" />
<text x="2427.0" y="305.8" font-size="36.4px" font-family="CMUBright-Roman" style="text-anchor:start;fill:rgb(0,0,0);" transform="rotate(283.6,2427.0,305.8)" >Management-Operations</text>
<path d="M2000.000,358.000 A1642.000,1642.000 40.000 0,1 2751.610,540.121 L2769.004,506.336 A1680.000,1680.000 0.000 0,0 2000.000,320.000 Z" style="stroke-width:2.0;stroke:rgb(255,255,255);stroke-linecap:round;fill:none;" />
<path d="M2783.279,556.865 A1642.000,1642.000 40.000 0,1 3226.411,908.176 L3254.793,882.908 A1680.000,1680.000 0.000 0,0 2801.406,523.467 Z" style="stroke-width:2.0;stroke:rgb(255,255,255);stroke-linecap:round;fill:rgb(185,185,185);" />
<text x="3097.5" y="640.5" font-size="36.4px" font-family="CMUBright-Roman" style="text-anchor:start;fill:rgb(0,0,0);" transform="rotate(308.4,3097.5,640.5)" >Engineering</text>
<path d="M2783.279,556.865 A1642.000,1642.000 40.000 0,1 3226.411,908.176 L3254.793,882.908 A1680.000,1680.000 0.000 0,0 2801.406,523.467 Z" style="stroke-width:2.0;stroke:rgb(255,255,255);stroke-linecap:round;fill:none;" />
<path d="M3249.937,935.189 A1642.000,1642.000 40.000 0,1 3507.538,1349.236 L3542.426,1334.176 A1680.000,1680.000 0.000 0,0 3278.864,910.547 Z" style="stroke-width:2.0;stroke:rgb(255,255,255);stroke-linecap:round;fill:rgb(185,185,185);" />
<text x="3491.6" y="1090.2" font-size="36.4px" font-family="CMUBright-Roman" style="text-anchor:start;fill:rgb(0,0,0);" transform="rotate(328.1,3491.6,1090.2)" >Leadership-General</text>
<path d="M3249.937,935.189 A1642.000,1642.000 40.000 0,1 3507.538,1349.236 L3542.426,1334.176 A1680.000,1680.000 0.000 0,0 3278.864,910.547 Z" style="stroke-width:2.0;stroke:rgb(255,255,255);stroke-linecap:round;fill:none;" />
<path d="M3521.375,1382.278 A1642.000,1642.000 40.000 0,1 3633.192,1830.154 L3670.988,1826.223 A1680.000,1680.000 0.000 0,0 3556.584,1367.982 Z" style="stroke-width:2.0;stroke:rgb(255,255,255);stroke-linecap:round;fill:rgb(185,185,185);" />
<text x="3699.0" y="1592.3" font-size="36.4px" font-family="CMUBright-Roman" style="text-anchor:start;fill:rgb(0,0,0);" transform="rotate(346.0,3699.0,1592.3)" >Sales-Marketing</text>
<path d="M3521.375,1382.278 A1642.000,1642.000 40.000 0,1 3633.192,1830.154 L3670.988,1826.223 A1680.000,1680.000 0.000 0,0 3556.584,1367.982 Z" style="stroke-width:2.0;stroke:rgb(255,255,255);stroke-linecap:round;fill:none;" />
<path d="M3636.509,1865.822 A1642.000,1642.000 40.000 0,1 3610.774,2318.704 L3648.051,2326.079 A1680.000,1680.000 0.000 0,0 3674.381,1862.717 Z" style="stroke-width:2.0;stroke:rgb(255,255,255);stroke-linecap:round;fill:rgb(185,185,185);" />
<text x="3743.6" y="2111.6" font-size="36.4px" font-family="CMUBright-Roman" style="text-anchor:start;fill:rgb(0,0,0);" transform="rotate(3.3,3743.6,2111.6)" >Finance-Investment</text>
<path d="M3636.509,1865.822 A1642.000,1642.000 40.000 0,1 3610.774,2318.704 L3648.051,2326.079 A1680.000,1680.000 0.000 0,0 3674.381,1862.717 Z" style="stroke-width:2.0;stroke:rgb(255,255,255);stroke-linecap:round;fill:none;" />
<path d="M3603.438,2353.767 A1642.000,1642.000 40.000 0,1 3499.856,2668.278 L3534.566,2683.744 A1680.000,1680.000 0.000 0,0 3640.546,2361.954 Z" style="stroke-width:2.0;stroke:rgb(255,255,255);stroke-linecap:round;fill:rgb(185,185,185);" />
<text x="3655.6" y="2558.4" font-size="36.4px" font-family="CMUBright-Roman" style="text-anchor:start;fill:rgb(0,0,0);" transform="rotate(18.2,3655.6,2558.4)" >Software-Data</text>
<path d="M3603.438,2353.767 A1642.000,1642.000 40.000 0,1 3499.856,2668.278 L3534.566,2683.744 A1680.000,1680.000 0.000 0,0 3640.546,2361.954 Z" style="stroke-width:2.0;stroke:rgb(255,255,255);stroke-linecap:round;fill:none;" />
<path d="M3484.921,2700.839 A1642.000,1642.000 40.000 0,1 3330.895,2961.708 L3361.695,2983.964 A1680.000,1680.000 0.000 0,0 3519.285,2717.058 Z" style="stroke-width:2.0;stroke:rgb(255,255,255);stroke-linecap:round;fill:rgb(185,185,185);" />
<text x="3498.1" y="2899.1" font-size="36.4px" font-family="CMUBright-Roman" style="text-anchor:start;fill:rgb(0,0,0);" transform="rotate(30.6,3498.1,2899.1)" >Education</text>
<path d="M3484.921,2700.839 A1642.000,1642.000 40.000 0,1 3330.895,2961.708 L3361.695,2983.964 A1680.000,1680.000 0.000 0,0 3519.285,2717.058 Z" style="stroke-width:2.0;stroke:rgb(255,255,255);stroke-linecap:round;fill:none;" />
<path d="M3309.599,2990.512 A1642.000,1642.000 40.000 0,1 3129.055,3192.225 L3155.184,3219.816 A1680.000,1680.000 0.000 0,0 3339.906,3013.435 Z" style="stroke-width:2.0;stroke:rgb(255,255,255);stroke-linecap:round;fill:rgb(185,185,185);" />
<text x="3293.5" y="3174.5" font-size="36.4px" font-family="CMUBright-Roman" style="text-anchor:start;fill:rgb(0,0,0);" transform="rotate(41.8,3293.5,3174.5)" >Research-Science</text>
<path d="M3309.599,2990.512 A1642.000,1642.000 40.000 0,1 3129.055,3192.225 L3155.184,3219.816 A1680.000,1680.000 0.000 0,0 3339.906,3013.435 Z" style="stroke-width:2.0;stroke:rgb(255,255,255);stroke-linecap:round;fill:none;" />
<path d="M3102.778,3216.571 A1642.000,1642.000 40.000 0,1 2891.302,3379.038 L2911.929,3410.952 A1680.000,1680.000 0.000 0,0 3128.299,3244.726 Z" style="stroke-width:2.0;stroke:rgb(255,255,255);stroke-linecap:round;fill:rgb(185,185,185);" />
<text x="3054.5" y="3393.1" font-size="36.4px" font-family="CMUBright-Roman" style="text-anchor:start;fill:rgb(0,0,0);" transform="rotate(52.5,3054.5,3393.1)" >Clinical-Care</text>
<path d="M3102.778,3216.571 A1642.000,1642.000 40.000 0,1 2891.302,3379.038 L2911.929,3410.952 A1680.000,1680.000 0.000 0,0 3128.299,3244.726 Z" style="stroke-width:2.0;stroke:rgb(255,255,255);stroke-linecap:round;fill:none;" />
<path d="M2861.006,3398.153 A1642.000,1642.000 40.000 0,1 2640.127,3512.085 L2654.941,3547.079 A1680.000,1680.000 0.000 0,0 2880.932,3430.510 Z" style="stroke-width:2.0;stroke:rgb(255,255,255);stroke-linecap:round;fill:rgb(185,185,185);" />
<text x="2786.7" y="3560.1" font-size="36.4px" font-family="CMUBright-Roman" style="text-anchor:start;fill:rgb(0,0,0);" transform="rotate(62.7,2786.7,3560.1)" >Accounting-Audit</text>
<path d="M2861.006,3398.153 A1642.000,1642.000 40.000 0,1 2640.127,3512.085 L2654.941,3547.079 A1680.000,1680.000 0.000 0,0 2880.932,3430.510 Z" style="stroke-width:2.0;stroke:rgb(255,255,255);stroke-linecap:round;fill:none;" />
<path d="M2606.988,3525.690 A1642.000,1642.000 40.000 0,1 2452.002,3578.562 L2462.463,3615.094 A1680.000,1680.000 0.000 0,0 2621.036,3560.998 Z" style="stroke-width:2.0;stroke:rgb(255,255,255);stroke-linecap:round;fill:rgb(185,185,185);" />
<text x="2552.3" y="3657.6" font-size="36.4px" font-family="CMUBright-Roman" style="text-anchor:start;fill:rgb(0,0,0);" transform="rotate(71.2,2552.3,3657.6)" >Social-Service</text>
<path d="M2606.988,3525.690 A1642.000,1642.000 40.000 0,1 2452.002,3578.562 L2462.463,3615.094 A1680.000,1680.000 0.000 0,0 2621.036,3560.998 Z" style="stroke-width:2.0;stroke:rgb(255,255,255);stroke-linecap:round;fill:none;" />
<path d="M2417.459,3588.047 A1642.000,1642.000 40.000 0,1 2320.910,3610.336 L2328.336,3647.603 A1680.000,1680.000 0.000 0,0 2427.120,3624.798 Z" style="stroke-width:2.0;stroke:rgb(255,255,255);stroke-linecap:round;fill:rgb(185,185,185);" />
<text x="2380.8" y="3705.2" font-size="36.4px" font-family="CMUBright-Roman" style="text-anchor:start;fill:rgb(0,0,0);" transform="rotate(77.0,2380.8,3705.2)" >IT-Infrastructure</text>
<path d="M2417.459,3588.047 A1642.000,1642.000 40.000 0,1 2320.910,3610.336 L2328.336,3647.603 A1680.000,1680.000 0.000 0,0 2427.120,3624.798 Z" style="stroke-width:2.0;stroke:rgb(255,255,255);stroke-linecap:round;fill:none;" />
<path d="M2285.704,3616.953 A1642.000,1642.000 40.000 0,1 2189.660,3631.010 L2194.050,3668.755 A1680.000,1680.000 0.000 0,0 2292.316,3654.373 Z" style="stroke-width:2.0;stroke:rgb(255,255,255);stroke-linecap:round;fill:rgb(185,185,185);" />
<text x="2237.2" y="3731.0" font-size="36.4px" font-family="CMUBright-Roman" style="text-anchor:start;fill:rgb(0,0,0);" transform="rotate(81.7,2237.2,3731.0)" >Legal-Policy</text>
<path d="M2285.704,3616.953 A1642.000,1642.000 40.000 0,1 2189.660,3631.010 L2194.050,3668.755 A1680.000,1680.000 0.000 0,0 2292.316,3654.373 Z" style="stroke-width:2.0;stroke:rgb(255,255,255);stroke-linecap:round;fill:none;" />
<path d="M2154.035,3634.759 A1642.000,1642.000 40.000 0,1 1474.020,3555.477 L1461.848,3591.475 A1680.000,1680.000 0.000 0,0 2157.600,3672.592 Z" style="stroke-width:2.0;stroke:rgb(255,255,255);stroke-linecap:round;fill:rgb(15,52,135);" />
<text x="1813.6" y="3737.2" font-size="36.4px" font-family="CMUBright-Roman" style="text-anchor:end;fill:rgb(0,0,0);" transform="rotate(-83.3,1813.6,3737.2)" >Finance-Accounting</text>
<path d="M2154.035,3634.759 A1642.000,1642.000 40.000 0,1 1474.020,3555.477 L1461.848,3591.475 A1680.000,1680.000 0.000 0,0 2157.600,3672.592 Z" style="stroke-width:2.0;stroke:rgb(255,255,255);stroke-linecap:round;fill:none;" />
<path d="M1440.213,3543.633 A1642.000,1642.000 40.000 0,1 888.845,3208.925 L863.130,3236.902 A1680.000,1680.000 0.000 0,0 1427.258,3579.356 Z" style="stroke-width:2.0;stroke:rgb(255,255,255);stroke-linecap:round;fill:rgb(42,98,180);" />
<text x="1104.1" y="3500.0" font-size="36.4px" font-family="CMUBright-Roman" style="text-anchor:end;fill:rgb(0,0,0);" transform="rotate(-58.7,1104.1,3500.0)" >General-Business</text>
<path d="M1440.213,3543.633 A1642.000,1642.000 40.000 0,1 888.845,3208.925 L863.130,3236.902 A1680.000,1680.000 0.000 0,0 1427.258,3579.356 Z" style="stroke-width:2.0;stroke:rgb(255,255,255);stroke-linecap:round;fill:none;" />
<path d="M862.737,3184.397 A1642.000,1642.000 40.000 0,1 624.574,2896.866 L592.744,2917.622 A1680.000,1680.000 0.000 0,0 836.418,3211.807 Z" style="stroke-width:2.0;stroke:rgb(255,255,255);stroke-linecap:round;fill:rgb(28,75,160);" />
<text x="664.7" y="3126.8" font-size="36.4px" font-family="CMUBright-Roman" style="text-anchor:end;fill:rgb(0,0,0);" transform="rotate(-39.6,664.7,3126.8)" >Marketing-Communication</text>
<path d="M862.737,3184.397 A1642.000,1642.000 40.000 0,1 624.574,2896.866 L592.744,2917.622 A1680.000,1680.000 0.000 0,0 836.418,3211.807 Z" style="stroke-width:2.0;stroke:rgb(255,255,255);stroke-linecap:round;fill:none;" />
<path d="M605.337,2866.648 A1642.000,1642.000 40.000 0,1 476.558,2612.607 L441.301,2626.784 A1680.000,1680.000 0.000 0,0 573.061,2886.704 Z" style="stroke-width:2.0;stroke:rgb(255,255,255);stroke-linecap:round;fill:rgb(60,120,198);" />
<text x="448.7" y="2803.8" font-size="36.4px" font-family="CMUBright-Roman" style="text-anchor:end;fill:rgb(0,0,0);" transform="rotate(-26.9,448.7,2803.8)" >Operations-Analytics</text>
<path d="M605.337,2866.648 A1642.000,1642.000 40.000 0,1 476.558,2612.607 L441.301,2626.784 A1680.000,1680.000 0.000 0,0 573.061,2886.704 Z" style="stroke-width:2.0;stroke:rgb(255,255,255);stroke-linecap:round;fill:none;" />
<path d="M463.556,2579.227 A1642.000,1642.000 40.000 0,1 407.419,2399.813 L370.563,2409.066 A1680.000,1680.000 0.000 0,0 427.999,2592.632 Z" style="stroke-width:2.0;stroke:rgb(255,255,255);stroke-linecap:round;fill:rgb(82,145,215);" />
<text x="337.2" y="2536.5" font-size="36.4px" font-family="CMUBright-Roman" style="text-anchor:end;fill:rgb(0,0,0);" transform="rotate(-17.4,337.2,2536.5)" >Specialized-Business</text>
<path d="M463.556,2579.227 A1642.000,1642.000 40.000 0,1 407.419,2399.813 L370.563,2409.066 A1680.000,1680.000 0.000 0,0 427.999,2592.632 Z" style="stroke-width:2.0;stroke:rgb(255,255,255);stroke-linecap:round;fill:none;" />
<path d="M399.076,2364.976 A1642.000,1642.000 40.000 0,1 366.776,2169.540 L328.979,2173.464 A1680.000,1680.000 0.000 0,0 362.027,2373.422 Z" style="stroke-width:2.0;stroke:rgb(255,255,255);stroke-linecap:round;fill:rgb(200,108,30);" />
<text x="278.3" y="2297.2" font-size="36.4px" font-family="CMUBright-Roman" style="text-anchor:end;fill:rgb(0,0,0);" transform="rotate(-9.4,278.3,2297.2)" >Social-Sciences</text>
<path d="M399.076,2364.976 A1642.000,1642.000 40.000 0,1 366.776,2169.540 L328.979,2173.464 A1680.000,1680.000 0.000 0,0 362.027,2373.422 Z" style="stroke-width:2.0;stroke:rgb(255,255,255);stroke-linecap:round;fill:none;" />
<path d="M363.466,2133.872 A1642.000,1642.000 40.000 0,1 358.290,2030.870 L320.297,2031.584 A1680.000,1680.000 0.000 0,0 325.593,2136.970 Z" style="stroke-width:2.0;stroke:rgb(255,255,255);stroke-linecap:round;fill:rgb(108,170,228);" />
<text x="255.6" y="2099.7" font-size="36.4px" font-family="CMUBright-Roman" style="text-anchor:end;fill:rgb(0,0,0);" transform="rotate(-2.9,255.6,2099.7)" >Economics</text>
<path d="M363.466,2133.872 A1642.000,1642.000 40.000 0,1 358.290,2030.870 L320.297,2031.584 A1680.000,1680.000 0.000 0,0 325.593,2136.970 Z" style="stroke-width:2.0;stroke:rgb(255,255,255);stroke-linecap:round;fill:none;" />
<path d="M358.007,1995.049 A1642.000,1642.000 40.000 0,1 358.807,1948.539 L320.825,1947.348 A1680.000,1680.000 0.000 0,0 320.008,1994.934 Z" style="stroke-width:2.0;stroke:rgb(255,255,255);stroke-linecap:round;fill:rgb(220,140,52);" />
<text x="252.9" y="1982.5" font-size="36.4px" font-family="CMUBright-Roman" style="text-anchor:end;fill:rgb(0,0,0);" transform="rotate(1.0,252.9,1982.5)" >Humanities-Liberal-Arts</text>
<path d="M358.007,1995.049 A1642.000,1642.000 40.000 0,1 358.807,1948.539 L320.825,1947.348 A1680.000,1680.000 0.000 0,0 320.008,1994.934 Z" style="stroke-width:2.0;stroke:rgb(255,255,255);stroke-linecap:round;fill:none;" />
<path d="M360.320,1912.749 A1642.000,1642.000 40.000 0,1 361.133,1898.615 L323.205,1896.269 A1680.000,1680.000 0.000 0,0 322.373,1910.730 Z" style="stroke-width:2.0;stroke:rgb(255,255,255);stroke-linecap:round;fill:rgb(235,168,78);" />
<text x="255.0" y="1912.1" font-size="36.4px" font-family="CMUBright-Roman" style="text-anchor:end;fill:rgb(0,0,0);" transform="rotate(3.3,255.0,1912.1)" >International-Studies</text>
<path d="M360.320,1912.749 A1642.000,1642.000 40.000 0,1 361.133,1898.615 L323.205,1896.269 A1680.000,1680.000 0.000 0,0 322.373,1910.730 Z" style="stroke-width:2.0;stroke:rgb(255,255,255);stroke-linecap:round;fill:none;" />
<path d="M363.735,1862.887 A1642.000,1642.000 40.000 0,1 391.336,1670.812 L354.108,1663.193 A1680.000,1680.000 0.000 0,0 325.867,1859.714 Z" style="stroke-width:2.0;stroke:rgb(255,255,255);stroke-linecap:round;fill:rgb(195,58,55);" />
<text x="268.8" y="1763.9" font-size="36.4px" font-family="CMUBright-Roman" style="text-anchor:end;fill:rgb(0,0,0);" transform="rotate(8.2,268.8,1763.9)" >Social-Work</text>
<path d="M363.735,1862.887 A1642.000,1642.000 40.000 0,1 391.336,1670.812 L354.108,1663.193 A1680.000,1680.000 0.000 0,0 325.867,1859.714 Z" style="stroke-width:2.0;stroke:rgb(255,255,255);stroke-linecap:round;fill:none;" />
<path d="M398.900,1635.797 A1642.000,1642.000 40.000 0,1 428.981,1522.439 L392.624,1511.387 A1680.000,1680.000 0.000 0,0 361.847,1627.368 Z" style="stroke-width:2.0;stroke:rgb(255,255,255);stroke-linecap:round;fill:rgb(175,35,42);" />
<text x="308.1" y="1564.0" font-size="36.4px" font-family="CMUBright-Roman" style="text-anchor:end;fill:rgb(0,0,0);" transform="rotate(14.9,308.1,1564.0)" >Teacher-Education</text>
<path d="M398.900,1635.797 A1642.000,1642.000 40.000 0,1 428.981,1522.439 L392.624,1511.387 A1680.000,1680.000 0.000 0,0 361.847,1627.368 Z" style="stroke-width:2.0;stroke:rgb(255,255,255);stroke-linecap:round;fill:none;" />
<path d="M439.773,1488.281 A1642.000,1642.000 40.000 0,1 474.975,1391.343 L439.682,1377.257 A1680.000,1680.000 0.000 0,0 403.666,1476.439 Z" style="stroke-width:2.0;stroke:rgb(255,255,255);stroke-linecap:round;fill:rgb(215,82,72);" />
<text x="352.5" y="1418.2" font-size="36.4px" font-family="CMUBright-Roman" style="text-anchor:end;fill:rgb(0,0,0);" transform="rotate(20.0,352.5,1418.2)" >Special-Education</text>
<path d="M439.773,1488.281 A1642.000,1642.000 40.000 0,1 474.975,1391.343 L439.682,1377.257 A1680.000,1680.000 0.000 0,0 403.666,1476.439 Z" style="stroke-width:2.0;stroke:rgb(255,255,255);stroke-linecap:round;fill:none;" />
<path d="M488.616,1358.220 A1642.000,1642.000 40.000 0,1 509.092,1311.991 L474.588,1296.068 A1680.000,1680.000 0.000 0,0 453.639,1343.368 Z" style="stroke-width:2.0;stroke:rgb(255,255,255);stroke-linecap:round;fill:rgb(230,112,95);" />
<text x="396.3" y="1306.6" font-size="36.4px" font-family="CMUBright-Roman" style="text-anchor:end;fill:rgb(0,0,0);" transform="rotate(23.9,396.3,1306.6)" >Educational-Leadership</text>
<path d="M488.616,1358.220 A1642.000,1642.000 40.000 0,1 509.092,1311.991 L474.588,1296.068 A1680.000,1680.000 0.000 0,0 453.639,1343.368 Z" style="stroke-width:2.0;stroke:rgb(255,255,255);stroke-linecap:round;fill:none;" />
<path d="M524.455,1279.630 A1642.000,1642.000 40.000 0,1 553.988,1222.045 L520.524,1204.041 A1680.000,1680.000 0.000 0,0 490.308,1262.959 Z" style="stroke-width:2.0;stroke:rgb(255,255,255);stroke-linecap:round;fill:rgb(0,130,142);" />
<text x="439.7" y="1213.8" font-size="36.4px" font-family="CMUBright-Roman" style="text-anchor:end;fill:rgb(0,0,0);" transform="rotate(27.2,439.7,1213.8)" >Communication-Studies</text>
<path d="M524.455,1279.630 A1642.000,1642.000 40.000 0,1 553.988,1222.045 L520.524,1204.041 A1680.000,1680.000 0.000 0,0 490.308,1262.959 Z" style="stroke-width:2.0;stroke:rgb(255,255,255);stroke-linecap:round;fill:none;" />
<path d="M571.303,1190.686 A1642.000,1642.000 40.000 0,1 588.562,1160.949 L555.898,1141.531 A1680.000,1680.000 0.000 0,0 538.240,1171.956 Z" style="stroke-width:2.0;stroke:rgb(255,255,255);stroke-linecap:round;fill:rgb(0,165,172);" />
<text x="482.6" y="1133.8" font-size="36.4px" font-family="CMUBright-Roman" style="text-anchor:end;fill:rgb(0,0,0);" transform="rotate(30.1,482.6,1133.8)" >Journalism-Media</text>
<path d="M571.303,1190.686 A1642.000,1642.000 40.000 0,1 588.562,1160.949 L555.898,1141.531 A1680.000,1680.000 0.000 0,0 538.240,1171.956 Z" style="stroke-width:2.0;stroke:rgb(255,255,255);stroke-linecap:round;fill:none;" />
<path d="M607.202,1130.358 A1642.000,1642.000 40.000 0,1 613.667,1120.089 L581.583,1099.725 A1680.000,1680.000 0.000 0,0 574.969,1110.233 Z" style="stroke-width:2.0;stroke:rgb(255,255,255);stroke-linecap:round;fill:rgb(38,195,195);" />
<text x="512.9" y="1082.8" font-size="36.4px" font-family="CMUBright-Roman" style="text-anchor:end;fill:rgb(0,0,0);" transform="rotate(32.2,512.9,1082.8)" >Creative-Writing</text>
<path d="M607.202,1130.358 A1642.000,1642.000 40.000 0,1 613.667,1120.089 L581.583,1099.725 A1680.000,1680.000 0.000 0,0 574.969,1110.233 Z" style="stroke-width:2.0;stroke:rgb(255,255,255);stroke-linecap:round;fill:none;" />
<path d="M633.192,1090.055 A1642.000,1642.000 40.000 0,1 667.742,1040.182 L636.910,1017.969 A1680.000,1680.000 0.000 0,0 601.560,1068.997 Z" style="stroke-width:2.0;stroke:rgb(255,255,255);stroke-linecap:round;fill:rgb(180,45,112);" />
<text x="554.7" y="1018.2" font-size="36.4px" font-family="CMUBright-Roman" style="text-anchor:end;fill:rgb(0,0,0);" transform="rotate(34.7,554.7,1018.2)" >Arts-Theology</text>
<path d="M633.192,1090.055 A1642.000,1642.000 40.000 0,1 667.742,1040.182 L636.910,1017.969 A1680.000,1680.000 0.000 0,0 601.560,1068.997 Z" style="stroke-width:2.0;stroke:rgb(255,255,255);stroke-linecap:round;fill:none;" />
<path d="M688.997,1011.347 A1642.000,1642.000 40.000 0,1 698.803,998.477 L668.690,975.299 A1680.000,1680.000 0.000 0,0 658.657,988.467 Z" style="stroke-width:2.0;stroke:rgb(255,255,255);stroke-linecap:round;fill:rgb(205,75,142);" />
<text x="600.6" y="953.9" font-size="36.4px" font-family="CMUBright-Roman" style="text-anchor:end;fill:rgb(0,0,0);" transform="rotate(37.3,600.6,953.9)" >English-Writing</text>
<path d="M688.997,1011.347 A1642.000,1642.000 40.000 0,1 698.803,998.477 L668.690,975.299 A1680.000,1680.000 0.000 0,0 658.657,988.467 Z" style="stroke-width:2.0;stroke:rgb(255,255,255);stroke-linecap:round;fill:none;" />
<path d="M720.960,970.329 A1642.000,1642.000 40.000 0,1 724.774,965.610 L695.262,941.672 A1680.000,1680.000 0.000 0,0 691.360,946.500 Z" style="stroke-width:2.0;stroke:rgb(255,255,255);stroke-linecap:round;fill:rgb(225,110,168);" />
<text x="631.0" y="914.3" font-size="36.4px" font-family="CMUBright-Roman" style="text-anchor:end;fill:rgb(0,0,0);" transform="rotate(38.9,631.0,914.3)" >Languages</text>
<path d="M720.960,970.329 A1642.000,1642.000 40.000 0,1 724.774,965.610 L695.262,941.672 A1680.000,1680.000 0.000 0,0 691.360,946.500 Z" style="stroke-width:2.0;stroke:rgb(255,255,255);stroke-linecap:round;fill:none;" />
<path d="M747.643,938.037 A1642.000,1642.000 40.000 0,1 884.635,794.959 L858.822,767.071 A1680.000,1680.000 0.000 0,0 718.660,913.461 Z" style="stroke-width:2.0;stroke:rgb(255,255,255);stroke-linecap:round;fill:rgb(88,40,138);" />
<text x="727.0" y="803.3" font-size="36.4px" font-family="CMUBright-Roman" style="text-anchor:end;fill:rgb(0,0,0);" transform="rotate(43.8,727.0,803.3)" >Biological-Sciences</text>
<path d="M747.643,938.037 A1642.000,1642.000 40.000 0,1 884.635,794.959 L858.822,767.071 A1680.000,1680.000 0.000 0,0 718.660,913.461 Z" style="stroke-width:2.0;stroke:rgb(255,255,255);stroke-linecap:round;fill:none;" />
<path d="M911.188,770.914 A1642.000,1642.000 40.000 0,1 969.888,721.316 L946.049,691.724 A1680.000,1680.000 0.000 0,0 885.990,742.470 Z" style="stroke-width:2.0;stroke:rgb(255,255,255);stroke-linecap:round;fill:rgb(115,65,165);" />
<text x="862.8" y="673.5" font-size="36.4px" font-family="CMUBright-Roman" style="text-anchor:end;fill:rgb(0,0,0);" transform="rotate(49.8,862.8,673.5)" >Health-Wellness</text>
<path d="M911.188,770.914 A1642.000,1642.000 40.000 0,1 969.888,721.316 L946.049,691.724 A1680.000,1680.000 0.000 0,0 885.990,742.470 Z" style="stroke-width:2.0;stroke:rgb(255,255,255);stroke-linecap:round;fill:none;" />
<path d="M998.028,699.148 A1642.000,1642.000 40.000 0,1 1023.858,679.655 L1001.267,649.099 A1680.000,1680.000 0.000 0,0 974.840,669.043 Z" style="stroke-width:2.0;stroke:rgb(255,255,255);stroke-linecap:round;fill:rgb(140,92,188);" />
<text x="935.2" y="614.8" font-size="36.4px" font-family="CMUBright-Roman" style="text-anchor:end;fill:rgb(0,0,0);" transform="rotate(53.0,935.2,614.8)" >Physical-Sciences</text>
<path d="M998.028,699.148 A1642.000,1642.000 40.000 0,1 1023.858,679.655 L1001.267,649.099 A1680.000,1680.000 0.000 0,0 974.840,669.043 Z" style="stroke-width:2.0;stroke:rgb(255,255,255);stroke-linecap:round;fill:none;" />
<path d="M1052.893,658.675 A1642.000,1642.000 40.000 0,1 1064.493,650.559 L1042.843,619.329 A1680.000,1680.000 0.000 0,0 1030.975,627.633 Z" style="stroke-width:2.0;stroke:rgb(255,255,255);stroke-linecap:round;fill:rgb(165,120,208);" />
<text x="988.2" y="575.6" font-size="36.4px" font-family="CMUBright-Roman" style="text-anchor:end;fill:rgb(0,0,0);" transform="rotate(55.0,988.2,575.6)" >Environmental-Sciences</text>
<path d="M1052.893,658.675 A1642.000,1642.000 40.000 0,1 1064.493,650.559 L1042.843,619.329 A1680.000,1680.000 0.000 0,0 1030.975,627.633 Z" style="stroke-width:2.0;stroke:rgb(255,255,255);stroke-linecap:round;fill:none;" />
<path d="M1094.154,630.472 A1642.000,1642.000 40.000 0,1 1594.822,408.776 L1585.445,371.951 A1680.000,1680.000 0.000 0,0 1073.190,598.778 Z" style="stroke-width:2.0;stroke:rgb(255,255,255);stroke-linecap:round;fill:rgb(22,118,50);" />
<text x="1278.0" y="409.0" font-size="36.4px" font-family="CMUBright-Roman" style="text-anchor:end;fill:rgb(0,0,0);" transform="rotate(66.1,1278.0,409.0)" >Engineering-Disciplines</text>
<path d="M1094.154,630.472 A1642.000,1642.000 40.000 0,1 1594.822,408.776 L1585.445,371.951 A1680.000,1680.000 0.000 0,0 1073.190,598.778 Z" style="stroke-width:2.0;stroke:rgb(255,255,255);stroke-linecap:round;fill:none;" />
<path d="M1629.631,400.315 A1642.000,1642.000 40.000 0,1 1964.180,358.391 L1963.351,320.400 A1680.000,1680.000 0.000 0,0 1621.060,363.295 Z" style="stroke-width:2.0;stroke:rgb(255,255,255);stroke-linecap:round;fill:rgb(48,158,75);" />
<text x="1767.4" y="268.4" font-size="36.4px" font-family="CMUBright-Roman" style="text-anchor:end;fill:rgb(0,0,0);" transform="rotate(82.9,1767.4,268.4)" >Computer-Science-IT</text>
<path d="M1629.631,400.315 A1642.000,1642.000 40.000 0,1 1964.180,358.391 L1963.351,320.400 A1680.000,1680.000 0.000 0,0 1621.060,363.295 Z" style="stroke-width:2.0;stroke:rgb(255,255,255);stroke-linecap:round;fill:none;" />
</g>
<g id="track_0">
<path d="M 733.751,980.626 A 1625.580,1625.580 0.00 0,1 735.0,979.1 L 735.0,979.1 791.3,1025.6 847.9,1074.2 904.7,1124.8 961.9,1177.0 1019.5,1230.9 1077.5,1286.1 1136.0,1342.5 1194.9,1400.0 1254.4,1458.5 1314.4,1517.7 1374.9,1577.5 1436.0,1637.9 1497.6,1698.7 1559.7,1759.7 1622.3,1821.0 1685.3,1882.3 1748.8,1943.6 1812.6,2004.9 1876.8,2066.0 1941.2,2126.8 2005.9,2187.4 2070.7,2247.6 2135.5,2307.4 2200.4,2366.9 2265.1,2425.8 2329.6,2484.3 2393.8,2542.3 2457.6,2599.8 2520.8,2656.8 2583.4,2713.3 2645.1,2769.4 2705.9,2824.9 2765.6,2880.1 2824.1,2934.8 2881.1,2989.2 2936.6,3043.3 2990.3,3097.2 3042.1,3150.8 3091.7,3204.4  A 1625.580,1625.580 0.00 0,1 3090.3,3205.7 L 3090.3,3205.7 3040.7,3152.1 2989.0,3098.4 2935.3,3044.5 2879.9,2990.4 2822.9,2935.9 2764.5,2881.2 2704.9,2826.0 2644.1,2770.4 2582.5,2714.3 2519.9,2657.8 2456.8,2600.7 2393.0,2543.2 2328.8,2485.2 2264.4,2426.6 2199.6,2367.7 2134.8,2308.2 2070.0,2248.4 2005.2,2188.1 1940.5,2127.6 1876.1,2066.7 1811.9,2005.6 1748.0,1944.4 1684.6,1883.1 1621.5,1821.8 1558.9,1760.5 1496.8,1699.5 1435.2,1638.8 1374.1,1578.4 1313.5,1518.6 1253.5,1459.4 1194.0,1401.1 1135.0,1343.6 1076.5,1287.2 1018.4,1232.0 960.8,1178.3 903.6,1126.1 846.7,1075.6 790.1,1027.1 733.8,980.6  Z" style="stroke-width: 0.0;  fill: rgb(225,110,168);" />
<path d="M 735.007,979.067 A 1625.580,1625.580 0.00 0,1 737.5,976.0 L 737.5,976.0 781.0,1010.0 825.8,1042.6 871.6,1073.6 918.3,1102.7 965.7,1129.7 1013.5,1154.4 1061.6,1176.7 1109.8,1196.4 1157.9,1213.4 1205.8,1227.5 1253.2,1238.7 1300.1,1246.7 1346.3,1251.7 1391.7,1253.4 1436.1,1251.9 1479.4,1247.0 1521.5,1238.9 1562.3,1227.4 1601.6,1212.7 1639.5,1194.6 1675.8,1173.4 1710.3,1148.9 1743.2,1121.3 1774.2,1090.7 1803.4,1057.2 1830.6,1020.9 1855.9,981.9 1879.2,940.4 1900.4,896.5 1919.6,850.5 1936.7,802.4 1951.8,752.6 1964.7,701.2 1975.7,648.5 1984.5,594.7 1991.4,540.1 1996.2,485.0 1999.1,429.7 2000.0,374.4  A 1625.580,1625.580 0.00 0,1 2004.0,374.4 L 2004.0,374.4 2002.9,429.7 1999.9,485.0 1994.9,540.2 1987.9,594.8 1978.9,648.6 1967.8,701.3 1954.6,752.8 1939.4,802.6 1922.1,850.7 1902.7,896.8 1881.3,940.8 1857.8,982.3 1832.3,1021.4 1804.9,1057.8 1775.5,1091.3 1744.3,1122.0 1711.3,1149.6 1676.5,1174.2 1640.0,1195.6 1602.0,1213.7 1562.4,1228.5 1521.5,1240.1 1479.2,1248.3 1435.7,1253.3 1391.1,1254.9 1345.6,1253.3 1299.2,1248.5 1252.2,1240.5 1204.5,1229.5 1156.5,1215.5 1108.3,1198.7 1059.9,1179.1 1011.7,1156.9 963.8,1132.3 916.3,1105.4 869.4,1076.4 823.5,1045.6 778.6,1013.0 735.0,979.1  Z" style="stroke-width: 0.0;  fill: rgb(225,110,168);" />
</g>
<defs>
<pattern id="checker" width="10" height="10" patternTransform="rotate(45 0 0)" patternUnits="userSpaceOnUse"><line x1="0" y1="0" x2="10" y2="0" style="stroke:black;stroke-width:2" /><line x1="0" y1="0" x2="0" y2="10" style="stroke:black;stroke-width:2" /></pattern>
<pattern id="hline-sparse" width="10" height="10" patternTransform="rotate(0 0 0)" patternUnits="userSpaceOnUse"><line x1="0" y1="0" x2="10" y2="0" style="stroke:black;stroke-width:2" /></pattern>
<pattern id="hline" width="10" height="10" patternTransform="rotate(0 0 0)" patternUnits="userSpaceOnUse"><line x1="0" y1="0" x2="10" y2="0" style="stroke:black;stroke-width:5" /></pattern>
<pattern id="checker" width="10" height="10" patternTransform="rotate(45 0 0)" patternUnits="userSpaceOnUse"><line x1="0" y1="0" x2="10" y2="0" style="stroke:black;stroke-width:5" /><line x1="0" y1="0" x2="0" y2="10" style="stroke:black;stroke-width:4" /></pattern>
<pattern id="vline" width="10" height="10" patternTransform="rotate(0 0 0)" patternUnits="userSpaceOnUse"><line x1="0" y1="0" x2="0" y2="10" style="stroke:black;stroke-width:5" /></pattern>
<pattern id="vline-sparse" width="10" height="10" patternTransform="rotate(0 0 0)" patternUnits="userSpaceOnUse"><line x1="0" y1="0" x2="0" y2="10" style="stroke:black;stroke-width:2" /></pattern>
</defs>
</svg>
