<?xml version="1.0" encoding="utf-8" standalone="no"?>
<!DOCTYPE svg PUBLIC "-//W3C//DTD SVG 1.1//EN" "http://www.w3.org/Graphics/SVG/1.1/DTD/svg11.dtd">
<svg width="4000px" height="4000px" version="1.1" xmlns="http://www.w3.org/2000/svg" xmlns:xlink="http://www.w3.org/1999/xlink">
<g id="bg">
<rect x="0" y="0" width="4000px" height="4000px" style="fill:rgb(255,255,255);"/>
</g>
<g id="ideograms">
<path d="M2000.000,358.000 A1642.000,1642.000 40.000 0,1 2727.139,527.779 L2743.967,493.709 A1680.000,1680.000 0.000 0,0 2000.000,320.000 Z" style="stroke-width:2.0;stroke:rgb(255,255,255);stroke-linecap:round;fill:rgb(185,185,185);" />
<text x="2412.3" y="302.2" font-size="36.4px" font-family="CMUBright-Roman" style="text-anchor:start;fill:rgb(0,0,0);" transform="rotate(283.1,2412.3,302.2)" >Engineering</text>
<path d="M2000.000,358.000 A1642.000,1642.000 40.000 0,1 2727.139,527.779 L2743.967,493.709 A1680.000,1680.000 0.000 0,0 2000.000,320.000 Z" style="stroke-width:2.0;stroke:rgb(255,255,255);stroke-linecap:round;fill:none;" />
<path d="M2759.082,543.992 A1642.000,1642.000 40.000 0,1 3284.099,976.646 L3313.816,952.963 A1680.000,1680.000 0.000 0,0 2776.649,510.297 Z" style="stroke-width:2.0;stroke:rgb(255,255,255);stroke-linecap:round;fill:rgb(185,185,185);" />
<text x="3120.8" y="659.6" font-size="36.4px" font-family="CMUBright-Roman" style="text-anchor:start;fill:rgb(0,0,0);" transform="rotate(309.5,3120.8,659.6)" >Finance-Investment</text>
<path d="M2759.082,543.992 A1642.000,1642.000 40.000 0,1 3284.099,976.646 L3313.816,952.963 A1680.000,1680.000 0.000 0,0 2776.649,510.297 Z" style="stroke-width:2.0;stroke:rgb(255,255,255);stroke-linecap:round;fill:none;" />
<path d="M3306.118,1004.902 A1642.000,1642.000 40.000 0,1 3557.132,1478.938 L3593.167,1466.879 A1680.000,1680.000 0.000 0,0 3336.345,981.873 Z" style="stroke-width:2.0;stroke:rgb(255,255,255);stroke-linecap:round;fill:rgb(185,185,185);" />
<text x="3551.5" y="1196.5" font-size="36.4px" font-family="CMUBright-Roman" style="text-anchor:start;fill:rgb(0,0,0);" transform="rotate(332.1,3551.5,1196.5)" >Management-Operations</text>
<path d="M3306.118,1004.902 A1642.000,1642.000 40.000 0,1 3557.132,1478.938 L3593.167,1466.879 A1680.000,1680.000 0.000 0,0 3336.345,981.873 Z" style="stroke-width:2.0;stroke:rgb(255,255,255);stroke-linecap:round;fill:none;" />
<path d="M3568.128,1513.031 A1642.000,1642.000 40.000 0,1 3640.479,1929.339 L3678.444,1927.703 A1680.000,1680.000 0.000 0,0 3604.418,1501.761 Z" style="stroke-width:2.0;stroke:rgb(255,255,255);stroke-linecap:round;fill:rgb(185,185,185);" />
<text x="3723.5" y="1713.2" font-size="36.4px" font-family="CMUBright-Roman" style="text-anchor:start;fill:rgb(0,0,0);" transform="rotate(350.1,3723.5,1713.2)" >Software-Data</text>
<path d="M3568.128,1513.031 A1642.000,1642.000 40.000 0,1 3640.479,1929.339 L3678.444,1927.703 A1680.000,1680.000 0.000 0,0 3604.418,1501.761 Z" style="stroke-width:2.0;stroke:rgb(255,255,255);stroke-linecap:round;fill:none;" />
<path d="M3641.630,1965.142 A1642.000,1642.000 40.000 0,1 3597.388,2380.151 L3634.356,2388.948 A1680.000,1680.000 0.000 0,0 3679.621,1964.336 Z" style="stroke-width:2.0;stroke:rgb(255,255,255);stroke-linecap:round;fill:rgb(185,185,185);" />
<text x="3735.6" y="2201.1" font-size="36.4px" font-family="CMUBright-Roman" style="text-anchor:start;fill:rgb(0,0,0);" transform="rotate(6.1,3735.6,2201.1)" >Sales-Marketing</text>
<path d="M3641.630,1965.142 A1642.000,1642.000 40.000 0,1 3597.388,2380.151 L3634.356,2388.948 A1680.000,1680.000 0.000 0,0 3679.621,1964.336 Z" style="stroke-width:2.0;stroke:rgb(255,255,255);stroke-linecap:round;fill:none;" />
<path d="M3588.715,2414.907 A1642.000,1642.000 40.000 0,1 3447.858,2774.513 L3481.365,2792.437 A1680.000,1680.000 0.000 0,0 3625.482,2424.509 Z" style="stroke-width:2.0;stroke:rgb(255,255,255);stroke-linecap:round;fill:rgb(185,185,185);" />
<text x="3620.9" y="2652.1" font-size="36.4px" font-family="CMUBright-Roman" style="text-anchor:start;fill:rgb(0,0,0);" transform="rotate(21.4,3620.9,2652.1)" >Accounting-Audit</text>
<path d="M3588.715,2414.907 A1642.000,1642.000 40.000 0,1 3447.858,2774.513 L3481.365,2792.437 A1680.000,1680.000 0.000 0,0 3625.482,2424.509 Z" style="stroke-width:2.0;stroke:rgb(255,255,255);stroke-linecap:round;fill:none;" />
<path d="M3430.618,2805.914 A1642.000,1642.000 40.000 0,1 3261.549,3051.027 L3290.745,3075.350 A1680.000,1680.000 0.000 0,0 3463.726,2824.565 Z" style="stroke-width:2.0;stroke:rgb(255,255,255);stroke-linecap:round;fill:rgb(185,185,185);" />
<text x="3429.4" y="3004.8" font-size="36.4px" font-family="CMUBright-Roman" style="text-anchor:start;fill:rgb(0,0,0);" transform="rotate(34.6,3429.4,3004.8)" >Leadership-General</text>
<path d="M3430.618,2805.914 A1642.000,1642.000 40.000 0,1 3261.549,3051.027 L3290.745,3075.350 A1680.000,1680.000 0.000 0,0 3463.726,2824.565 Z" style="stroke-width:2.0;stroke:rgb(255,255,255);stroke-linecap:round;fill:none;" />
<path d="M3238.321,3078.297 A1642.000,1642.000 40.000 0,1 3039.505,3271.060 L3063.562,3300.476 A1680.000,1680.000 0.000 0,0 3266.979,3103.252 Z" style="stroke-width:2.0;stroke:rgb(255,255,255);stroke-linecap:round;fill:rgb(185,185,185);" />
<text x="3207.2" y="3263.1" font-size="36.4px" font-family="CMUBright-Roman" style="text-anchor:start;fill:rgb(0,0,0);" transform="rotate(45.9,3207.2,3263.1)" >Clinical-Care</text>
<path d="M3238.321,3078.297 A1642.000,1642.000 40.000 0,1 3039.505,3271.060 L3063.562,3300.476 A1680.000,1680.000 0.000 0,0 3266.979,3103.252 Z" style="stroke-width:2.0;stroke:rgb(255,255,255);stroke-linecap:round;fill:none;" />
<path d="M3011.529,3293.434 A1642.000,1642.000 40.000 0,1 2784.385,3442.534 L2802.537,3475.918 A1680.000,1680.000 0.000 0,0 3034.939,3323.368 Z" style="stroke-width:2.0;stroke:rgb(255,255,255);stroke-linecap:round;fill:rgb(185,185,185);" />
<text x="2948.3" y="3467.5" font-size="36.4px" font-family="CMUBright-Roman" style="text-anchor:start;fill:rgb(0,0,0);" transform="rotate(56.7,2948.3,3467.5)" >Research-Science</text>
<path d="M3011.529,3293.434 A1642.000,1642.000 40.000 0,1 2784.385,3442.534 L2802.537,3475.918 A1680.000,1680.000 0.000 0,0 3034.939,3323.368 Z" style="stroke-width:2.0;stroke:rgb(255,255,255);stroke-linecap:round;fill:none;" />
<path d="M2752.729,3459.302 A1642.000,1642.000 40.000 0,1 2556.245,3544.913 L2569.118,3580.666 A1680.000,1680.000 0.000 0,0 2770.149,3493.074 Z" style="stroke-width:2.0;stroke:rgb(255,255,255);stroke-linecap:round;fill:rgb(185,185,185);" />
<text x="2686.4" y="3606.7" font-size="36.4px" font-family="CMUBright-Roman" style="text-anchor:start;fill:rgb(0,0,0);" transform="rotate(66.5,2686.4,3606.7)" >Education</text>
<path d="M2752.729,3459.302 A1642.000,1642.000 40.000 0,1 2556.245,3544.913 L2569.118,3580.666 A1680.000,1680.000 0.000 0,0 2770.149,3493.074 Z" style="stroke-width:2.0;stroke:rgb(255,255,255);stroke-linecap:round;fill:none;" />
<path d="M2522.411,3556.679 A1642.000,1642.000 40.000 0,1 2417.174,3588.121 L2426.829,3624.875 A1680.000,1680.000 0.000 0,0 2534.501,3592.705 Z" style="stroke-width:2.0;stroke:rgb(255,255,255);stroke-linecap:round;fill:rgb(185,185,185);" />
<text x="2488.2" y="3677.6" font-size="36.4px" font-family="CMUBright-Roman" style="text-anchor:start;fill:rgb(0,0,0);" transform="rotate(73.4,2488.2,3677.6)" >IT-Infrastructure</text>
<path d="M2522.411,3556.679 A1642.000,1642.000 40.000 0,1 2417.174,3588.121 L2426.829,3624.875 A1680.000,1680.000 0.000 0,0 2534.501,3592.705 Z" style="stroke-width:2.0;stroke:rgb(255,255,255);stroke-linecap:round;fill:none;" />
<path d="M2382.430,3596.844 A1642.000,1642.000 40.000 0,1 2321.118,3610.294 L2328.550,3647.560 A1680.000,1680.000 0.000 0,0 2391.281,3633.799 Z" style="stroke-width:2.0;stroke:rgb(255,255,255);stroke-linecap:round;fill:rgb(185,185,185);" />
<text x="2358.7" y="3710.0" font-size="36.4px" font-family="CMUBright-Roman" style="text-anchor:start;fill:rgb(0,0,0);" transform="rotate(77.6,2358.7,3710.0)" >Legal-Policy</text>
<path d="M2382.430,3596.844 A1642.000,1642.000 40.000 0,1 2321.118,3610.294 L2328.550,3647.560 A1680.000,1680.000 0.000 0,0 2391.281,3633.799 Z" style="stroke-width:2.0;stroke:rgb(255,255,255);stroke-linecap:round;fill:none;" />
<path d="M2285.913,3616.916 A1642.000,1642.000 40.000 0,1 2249.787,3622.890 L2255.567,3660.447 A1680.000,1680.000 0.000 0,0 2292.530,3654.336 Z" style="stroke-width:2.0;stroke:rgb(255,255,255);stroke-linecap:round;fill:rgb(185,185,185);" />
<text x="2272.7" y="3725.8" font-size="36.4px" font-family="CMUBright-Roman" style="text-anchor:start;fill:rgb(0,0,0);" transform="rotate(80.6,2272.7,3725.8)" >Social-Service</text>
<path d="M2285.913,3616.916 A1642.000,1642.000 40.000 0,1 2249.787,3622.890 L2255.567,3660.447 A1680.000,1680.000 0.000 0,0 2292.530,3654.336 Z" style="stroke-width:2.0;stroke:rgb(255,255,255);stroke-linecap:round;fill:none;" />
<path d="M2214.324,3627.952 A1642.000,1642.000 40.000 0,1 1245.263,3458.265 L1227.797,3492.013 A1680.000,1680.000 0.000 0,0 2219.284,3665.627 Z" style="stroke-width:2.0;stroke:rgb(255,255,255);stroke-linecap:round;fill:rgb(15,52,135);" />
<text x="1714.4" y="3723.7" font-size="36.4px" font-family="CMUBright-Roman" style="text-anchor:end;fill:rgb(0,0,0);" transform="rotate(-80.1,1714.4,3723.7)" >Finance-Accounting</text>
<path d="M2214.324,3627.952 A1642.000,1642.000 40.000 0,1 1245.263,3458.265 L1227.797,3492.013 A1680.000,1680.000 0.000 0,0 2219.284,3665.627 Z" style="stroke-width:2.0;stroke:rgb(255,255,255);stroke-linecap:round;fill:none;" />
<path d="M1213.631,3441.453 A1642.000,1642.000 40.000 0,1 879.437,3200.209 L853.504,3227.985 A1680.000,1680.000 0.000 0,0 1195.432,3474.812 Z" style="stroke-width:2.0;stroke:rgb(255,255,255);stroke-linecap:round;fill:rgb(28,75,160);" />
<text x="990.4" y="3426.0" font-size="36.4px" font-family="CMUBright-Roman" style="text-anchor:end;fill:rgb(0,0,0);" transform="rotate(-54.2,990.4,3426.0)" >Marketing-Communication</text>
<path d="M1213.631,3441.453 A1642.000,1642.000 40.000 0,1 879.437,3200.209 L853.504,3227.985 A1680.000,1680.000 0.000 0,0 1195.432,3474.812 Z" style="stroke-width:2.0;stroke:rgb(255,255,255);stroke-linecap:round;fill:none;" />
<path d="M853.521,3175.478 A1642.000,1642.000 40.000 0,1 639.254,2918.986 L607.763,2940.253 A1680.000,1680.000 0.000 0,0 826.988,3202.682 Z" style="stroke-width:2.0;stroke:rgb(255,255,255);stroke-linecap:round;fill:rgb(42,98,180);" />
<text x="667.2" y="3129.7" font-size="36.4px" font-family="CMUBright-Roman" style="text-anchor:end;fill:rgb(0,0,0);" transform="rotate(-39.9,667.2,3129.7)" >General-Business</text>
<path d="M853.521,3175.478 A1642.000,1642.000 40.000 0,1 639.254,2918.986 L607.763,2940.253 A1680.000,1680.000 0.000 0,0 826.988,3202.682 Z" style="stroke-width:2.0;stroke:rgb(255,255,255);stroke-linecap:round;fill:none;" />
<path d="M619.530,2889.082 A1642.000,1642.000 40.000 0,1 479.680,2620.315 L444.496,2634.671 A1680.000,1680.000 0.000 0,0 587.583,2909.658 Z" style="stroke-width:2.0;stroke:rgb(255,255,255);stroke-linecap:round;fill:rgb(60,120,198);" />
<text x="457.3" y="2820.2" font-size="36.4px" font-family="CMUBright-Roman" style="text-anchor:end;fill:rgb(0,0,0);" transform="rotate(-27.5,457.3,2820.2)" >Operations-Analytics</text>
<path d="M619.530,2889.082 A1642.000,1642.000 40.000 0,1 479.680,2620.315 L444.496,2634.671 A1680.000,1680.000 0.000 0,0 587.583,2909.658 Z" style="stroke-width:2.0;stroke:rgb(255,255,255);stroke-linecap:round;fill:none;" />
<path d="M466.510,2587.002 A1642.000,1642.000 40.000 0,1 421.749,2453.087 L385.224,2463.573 A1680.000,1680.000 0.000 0,0 431.021,2600.587 Z" style="stroke-width:2.0;stroke:rgb(255,255,255);stroke-linecap:round;fill:rgb(82,145,215);" />
<text x="347.9" y="2568.6" font-size="36.4px" font-family="CMUBright-Roman" style="text-anchor:end;fill:rgb(0,0,0);" transform="rotate(-18.5,347.9,2568.6)" >Specialized-Business</text>
<path d="M466.510,2587.002 A1642.000,1642.000 40.000 0,1 421.749,2453.087 L385.224,2463.573 A1680.000,1680.000 0.000 0,0 431.021,2600.587 Z" style="stroke-width:2.0;stroke:rgb(255,255,255);stroke-linecap:round;fill:none;" />
<path d="M412.241,2418.550 A1642.000,1642.000 40.000 0,1 391.911,2331.987 L354.696,2339.670 A1680.000,1680.000 0.000 0,0 375.496,2428.236 Z" style="stroke-width:2.0;stroke:rgb(255,255,255);stroke-linecap:round;fill:rgb(108,170,228);" />
<text x="301.9" y="2411.1" font-size="36.4px" font-family="CMUBright-Roman" style="text-anchor:end;fill:rgb(0,0,0);" transform="rotate(-13.2,301.9,2411.1)" >Economics</text>
<path d="M412.241,2418.550 A1642.000,1642.000 40.000 0,1 391.911,2331.987 L354.696,2339.670 A1680.000,1680.000 0.000 0,0 375.496,2428.236 Z" style="stroke-width:2.0;stroke:rgb(255,255,255);stroke-linecap:round;fill:none;" />
<path d="M385.052,2296.827 A1642.000,1642.000 40.000 0,1 366.030,2162.194 L328.216,2165.947 A1680.000,1680.000 0.000 0,0 347.678,2303.697 Z" style="stroke-width:2.0;stroke:rgb(255,255,255);stroke-linecap:round;fill:rgb(200,108,30);" />
<text x="271.8" y="2256.8" font-size="36.4px" font-family="CMUBright-Roman" style="text-anchor:end;fill:rgb(0,0,0);" transform="rotate(-8.0,271.8,2256.8)" >Social-Sciences</text>
<path d="M385.052,2296.827 A1642.000,1642.000 40.000 0,1 366.030,2162.194 L328.216,2165.947 A1680.000,1680.000 0.000 0,0 347.678,2303.697 Z" style="stroke-width:2.0;stroke:rgb(255,255,255);stroke-linecap:round;fill:none;" />
<path d="M362.881,2126.510 A1642.000,1642.000 40.000 0,1 359.682,2074.299 L321.721,2076.018 A1680.000,1680.000 0.000 0,0 324.994,2129.438 Z" style="stroke-width:2.0;stroke:rgb(255,255,255);stroke-linecap:round;fill:rgb(220,140,52);" />
<text x="256.9" y="2119.3" font-size="36.4px" font-family="CMUBright-Roman" style="text-anchor:end;fill:rgb(0,0,0);" transform="rotate(-3.5,256.9,2119.3)" >Humanities-Liberal-Arts</text>
<path d="M362.881,2126.510 A1642.000,1642.000 40.000 0,1 359.682,2074.299 L321.721,2076.018 A1680.000,1680.000 0.000 0,0 324.994,2129.438 Z" style="stroke-width:2.0;stroke:rgb(255,255,255);stroke-linecap:round;fill:none;" />
<path d="M358.451,2038.498 A1642.000,1642.000 40.000 0,1 358.158,2022.807 L320.162,2023.335 A1680.000,1680.000 0.000 0,0 320.462,2039.389 Z" style="stroke-width:2.0;stroke:rgb(255,255,255);stroke-linecap:round;fill:rgb(235,168,78);" />
<text x="253.4" y="2045.1" font-size="36.4px" font-family="CMUBright-Roman" style="text-anchor:end;fill:rgb(0,0,0);" transform="rotate(-1.1,253.4,2045.1)" >International-Studies</text>
<path d="M358.451,2038.498 A1642.000,1642.000 40.000 0,1 358.158,2022.807 L320.162,2023.335 A1680.000,1680.000 0.000 0,0 320.462,2039.389 Z" style="stroke-width:2.0;stroke:rgb(255,255,255);stroke-linecap:round;fill:none;" />
<path d="M358.052,1986.985 A1642.000,1642.000 40.000 0,1 367.336,1825.152 L329.552,1821.105 A1680.000,1680.000 0.000 0,0 320.053,1986.684 Z" style="stroke-width:2.0;stroke:rgb(255,255,255);stroke-linecap:round;fill:rgb(175,35,42);" />
<text x="255.0" y="1912.4" font-size="36.4px" font-family="CMUBright-Roman" style="text-anchor:end;fill:rgb(0,0,0);" transform="rotate(3.3,255.0,1912.4)" >Teacher-Education</text>
<path d="M358.052,1986.985 A1642.000,1642.000 40.000 0,1 367.336,1825.152 L329.552,1821.105 A1680.000,1680.000 0.000 0,0 320.053,1986.684 Z" style="stroke-width:2.0;stroke:rgb(255,255,255);stroke-linecap:round;fill:none;" />
<path d="M371.539,1789.577 A1642.000,1642.000 40.000 0,1 376.636,1753.316 L339.067,1747.607 A1680.000,1680.000 0.000 0,0 333.852,1784.707 Z" style="stroke-width:2.0;stroke:rgb(255,255,255);stroke-linecap:round;fill:rgb(195,58,55);" />
<text x="268.1" y="1769.2" font-size="36.4px" font-family="CMUBright-Roman" style="text-anchor:end;fill:rgb(0,0,0);" transform="rotate(8.0,268.1,1769.2)" >Social-Work</text>
<path d="M371.539,1789.577 A1642.000,1642.000 40.000 0,1 376.636,1753.316 L339.067,1747.607 A1680.000,1680.000 0.000 0,0 333.852,1784.707 Z" style="stroke-width:2.0;stroke:rgb(255,255,255);stroke-linecap:round;fill:none;" />
<path d="M382.404,1717.961 A1642.000,1642.000 40.000 0,1 388.090,1687.094 L350.786,1679.853 A1680.000,1680.000 0.000 0,0 344.968,1711.434 Z" style="stroke-width:2.0;stroke:rgb(255,255,255);stroke-linecap:round;fill:rgb(215,82,72);" />
<text x="279.0" y="1698.7" font-size="36.4px" font-family="CMUBright-Roman" style="text-anchor:end;fill:rgb(0,0,0);" transform="rotate(10.4,279.0,1698.7)" >Special-Education</text>
<path d="M382.404,1717.961 A1642.000,1642.000 40.000 0,1 388.090,1687.094 L350.786,1679.853 A1680.000,1680.000 0.000 0,0 344.968,1711.434 Z" style="stroke-width:2.0;stroke:rgb(255,255,255);stroke-linecap:round;fill:none;" />
<path d="M395.300,1652.005 A1642.000,1642.000 40.000 0,1 396.416,1646.895 L359.305,1638.723 A1680.000,1680.000 0.000 0,0 358.163,1643.952 Z" style="stroke-width:2.0;stroke:rgb(255,255,255);stroke-linecap:round;fill:rgb(230,112,95);" />
<text x="289.8" y="1642.1" font-size="36.4px" font-family="CMUBright-Roman" style="text-anchor:end;fill:rgb(0,0,0);" transform="rotate(12.3,289.8,1642.1)" >Educational-Leadership</text>
<path d="M395.300,1652.005 A1642.000,1642.000 40.000 0,1 396.416,1646.895 L359.305,1638.723 A1680.000,1680.000 0.000 0,0 358.163,1643.952 Z" style="stroke-width:2.0;stroke:rgb(255,255,255);stroke-linecap:round;fill:none;" />
<path d="M404.501,1611.997 A1642.000,1642.000 40.000 0,1 423.388,1541.244 L386.901,1530.627 A1680.000,1680.000 0.000 0,0 367.577,1603.017 Z" style="stroke-width:2.0;stroke:rgb(255,255,255);stroke-linecap:round;fill:rgb(0,130,142);" />
<text x="308.7" y="1561.5" font-size="36.4px" font-family="CMUBright-Roman" style="text-anchor:end;fill:rgb(0,0,0);" transform="rotate(14.9,308.7,1561.5)" >Communication-Studies</text>
<path d="M404.501,1611.997 A1642.000,1642.000 40.000 0,1 423.388,1541.244 L386.901,1530.627 A1680.000,1680.000 0.000 0,0 367.577,1603.017 Z" style="stroke-width:2.0;stroke:rgb(255,255,255);stroke-linecap:round;fill:none;" />
<path d="M433.770,1506.960 A1642.000,1642.000 40.000 0,1 448.549,1462.261 L412.644,1449.816 A1680.000,1680.000 0.000 0,0 397.524,1495.549 Z" style="stroke-width:2.0;stroke:rgb(255,255,255);stroke-linecap:round;fill:rgb(0,165,172);" />
<text x="337.2" y="1463.4" font-size="36.4px" font-family="CMUBright-Roman" style="text-anchor:end;fill:rgb(0,0,0);" transform="rotate(18.3,337.2,1463.4)" >Journalism-Media</text>
<path d="M433.770,1506.960 A1642.000,1642.000 40.000 0,1 448.549,1462.261 L412.644,1449.816 A1680.000,1680.000 0.000 0,0 397.524,1495.549 Z" style="stroke-width:2.0;stroke:rgb(255,255,255);stroke-linecap:round;fill:none;" />
<path d="M460.649,1428.544 A1642.000,1642.000 40.000 0,1 466.181,1413.858 L430.684,1400.293 A1680.000,1680.000 0.000 0,0 425.024,1415.319 Z" style="stroke-width:2.0;stroke:rgb(255,255,255);stroke-linecap:round;fill:rgb(38,195,195);" />
<text x="359.4" y="1399.1" font-size="36.4px" font-family="CMUBright-Roman" style="text-anchor:end;fill:rgb(0,0,0);" transform="rotate(20.6,359.4,1399.1)" >Creative-Writing</text>
<path d="M460.649,1428.544 A1642.000,1642.000 40.000 0,1 466.181,1413.858 L430.684,1400.293 A1680.000,1680.000 0.000 0,0 425.024,1415.319 Z" style="stroke-width:2.0;stroke:rgb(255,255,255);stroke-linecap:round;fill:none;" />
<path d="M479.332,1380.537 A1642.000,1642.000 40.000 0,1 510.660,1308.603 L476.193,1292.602 A1680.000,1680.000 0.000 0,0 444.140,1366.201 Z" style="stroke-width:2.0;stroke:rgb(255,255,255);stroke-linecap:round;fill:rgb(180,45,112);" />
<text x="391.8" y="1317.1" font-size="36.4px" font-family="CMUBright-Roman" style="text-anchor:end;fill:rgb(0,0,0);" transform="rotate(23.5,391.8,1317.1)" >Arts-Theology</text>
<path d="M479.332,1380.537 A1642.000,1642.000 40.000 0,1 510.660,1308.603 L476.193,1292.602 A1680.000,1680.000 0.000 0,0 444.140,1366.201 Z" style="stroke-width:2.0;stroke:rgb(255,255,255);stroke-linecap:round;fill:none;" />
<path d="M526.097,1276.278 A1642.000,1642.000 40.000 0,1 530.738,1266.901 L496.736,1249.936 A1680.000,1680.000 0.000 0,0 491.987,1259.529 Z" style="stroke-width:2.0;stroke:rgb(255,255,255);stroke-linecap:round;fill:rgb(205,75,142);" />
<text x="427.1" y="1239.3" font-size="36.4px" font-family="CMUBright-Roman" style="text-anchor:end;fill:rgb(0,0,0);" transform="rotate(26.3,427.1,1239.3)" >English-Writing</text>
<path d="M526.097,1276.278 A1642.000,1642.000 40.000 0,1 530.738,1266.901 L496.736,1249.936 A1680.000,1680.000 0.000 0,0 491.987,1259.529 Z" style="stroke-width:2.0;stroke:rgb(255,255,255);stroke-linecap:round;fill:none;" />
<path d="M547.080,1235.024 A1642.000,1642.000 40.000 0,1 549.525,1230.399 L515.957,1212.589 A1680.000,1680.000 0.000 0,0 513.456,1217.321 Z" style="stroke-width:2.0;stroke:rgb(255,255,255);stroke-linecap:round;fill:rgb(225,110,168);" />
<text x="447.9" y="1197.7" font-size="36.4px" font-family="CMUBright-Roman" style="text-anchor:end;fill:rgb(0,0,0);" transform="rotate(27.9,447.9,1197.7)" >Languages</text>
<path d="M547.080,1235.024 A1642.000,1642.000 40.000 0,1 549.525,1230.399 L515.957,1212.589 A1680.000,1680.000 0.000 0,0 513.456,1217.321 Z" style="stroke-width:2.0;stroke:rgb(255,255,255);stroke-linecap:round;fill:none;" />
<path d="M566.659,1198.940 A1642.000,1642.000 40.000 0,1 748.337,937.219 L719.370,912.624 A1680.000,1680.000 0.000 0,0 533.488,1180.402 Z" style="stroke-width:2.0;stroke:rgb(255,255,255);stroke-linecap:round;fill:rgb(88,40,138);" />
<text x="555.7" y="1016.9" font-size="36.4px" font-family="CMUBright-Roman" style="text-anchor:end;fill:rgb(0,0,0);" transform="rotate(34.8,555.7,1016.9)" >Biological-Sciences</text>
<path d="M566.659,1198.940 A1642.000,1642.000 40.000 0,1 748.337,937.219 L719.370,912.624 A1680.000,1680.000 0.000 0,0 533.488,1180.402 Z" style="stroke-width:2.0;stroke:rgb(255,255,255);stroke-linecap:round;fill:none;" />
<path d="M771.819,910.167 A1642.000,1642.000 40.000 0,1 821.633,856.490 L794.362,830.027 A1680.000,1680.000 0.000 0,0 743.396,884.946 Z" style="stroke-width:2.0;stroke:rgb(255,255,255);stroke-linecap:round;fill:rgb(115,65,165);" />
<text x="710.8" y="820.7" font-size="36.4px" font-family="CMUBright-Roman" style="text-anchor:end;fill:rgb(0,0,0);" transform="rotate(42.9,710.8,820.7)" >Health-Wellness</text>
<path d="M771.819,910.167 A1642.000,1642.000 40.000 0,1 821.633,856.490 L794.362,830.027 A1680.000,1680.000 0.000 0,0 743.396,884.946 Z" style="stroke-width:2.0;stroke:rgb(255,255,255);stroke-linecap:round;fill:none;" />
<path d="M846.858,831.057 A1642.000,1642.000 40.000 0,1 873.212,805.633 L847.135,777.993 A1680.000,1680.000 0.000 0,0 820.172,804.004 Z" style="stroke-width:2.0;stroke:rgb(255,255,255);stroke-linecap:round;fill:rgb(140,92,188);" />
<text x="775.8" y="753.4" font-size="36.4px" font-family="CMUBright-Roman" style="text-anchor:end;fill:rgb(0,0,0);" transform="rotate(46.0,775.8,753.4)" >Physical-Sciences</text>
<path d="M846.858,831.057 A1642.000,1642.000 40.000 0,1 873.212,805.633 L847.135,777.993 A1680.000,1680.000 0.000 0,0 820.172,804.004 Z" style="stroke-width:2.0;stroke:rgb(255,255,255);stroke-linecap:round;fill:none;" />
<path d="M899.535,781.337 A1642.000,1642.000 40.000 0,1 903.423,777.837 L878.045,749.553 A1680.000,1680.000 0.000 0,0 874.067,753.134 Z" style="stroke-width:2.0;stroke:rgb(255,255,255);stroke-linecap:round;fill:rgb(165,120,208);" />
<text x="821.8" y="709.8" font-size="36.4px" font-family="CMUBright-Roman" style="text-anchor:end;fill:rgb(0,0,0);" transform="rotate(48.0,821.8,709.8)" >Environmental-Sciences</text>
<path d="M899.535,781.337 A1642.000,1642.000 40.000 0,1 903.423,777.837 L878.045,749.553 A1680.000,1680.000 0.000 0,0 874.067,753.134 Z" style="stroke-width:2.0;stroke:rgb(255,255,255);stroke-linecap:round;fill:none;" />
<path d="M930.345,754.206 A1642.000,1642.000 40.000 0,1 1638.399,398.311 L1630.030,361.244 A1680.000,1680.000 0.000 0,0 905.590,725.375 Z" style="stroke-width:2.0;stroke:rgb(255,255,255);stroke-linecap:round;fill:rgb(22,118,50);" />
<text x="1201.1" y="446.2" font-size="36.4px" font-family="CMUBright-Roman" style="text-anchor:end;fill:rgb(0,0,0);" transform="rotate(63.3,1201.1,446.2)" >Engineering-Disciplines</text>
<path d="M930.345,754.206 A1642.000,1642.000 40.000 0,1 1638.399,398.311 L1630.030,361.244 A1680.000,1680.000 0.000 0,0 905.590,725.375 Z" style="stroke-width:2.0;stroke:rgb(255,255,255);stroke-linecap:round;fill:none;" />
<path d="M1673.425,390.804 A1642.000,1642.000 40.000 0,1 1964.180,358.391 L1963.351,320.400 A1680.000,1680.000 0.000 0,0 1665.867,353.563 Z" style="stroke-width:2.0;stroke:rgb(255,255,255);stroke-linecap:round;fill:rgb(48,158,75);" />
<text x="1791.0" y="265.3" font-size="36.4px" font-family="CMUBright-Roman" style="text-anchor:end;fill:rgb(0,0,0);" transform="rotate(83.6,1791.0,265.3)" >Computer-Science-IT</text>
<path d="M1673.425,390.804 A1642.000,1642.000 40.000 0,1 1964.180,358.391 L1963.351,320.400 A1680.000,1680.000 0.000 0,0 1665.867,353.563 Z" style="stroke-width:2.0;stroke:rgb(255,255,255);stroke-linecap:round;fill:none;" />
</g>
<g id="track_0">
<path d="M 580.992,1206.951 A 1625.580,1625.580 0.00 0,1 615.0,1148.9 L 615.0,1148.9 672.0,1185.3 729.2,1224.5 786.5,1266.3 843.9,1310.6 901.4,1357.3 958.9,1406.2 1016.5,1457.2 1074.1,1510.2 1131.6,1565.0 1189.1,1621.5 1246.4,1679.6 1303.6,1739.2 1360.5,1800.2 1417.1,1862.4 1473.4,1925.8 1529.3,1990.1 1584.7,2055.4 1639.6,2121.5 1693.9,2188.3 1747.5,2255.8 1800.4,2323.7 1852.4,2392.1 1903.6,2460.8 1953.7,2529.8 2002.7,2598.9 2050.6,2668.1 2097.1,2737.3 2142.3,2806.4 2186.0,2875.4 2228.2,2944.1 2268.6,3012.5 2307.2,3080.5 2344.0,3148.1 2378.6,3215.2 2411.2,3281.7 2441.4,3347.7 2469.3,3412.9 2494.6,3477.4 2517.2,3541.1  A 1625.580,1625.580 0.00 0,1 2452.9,3561.2 L 2452.9,3561.2 2433.2,3497.4 2410.7,3432.8 2385.6,3367.3 2358.0,3301.2 2328.1,3234.4 2295.9,3167.1 2261.6,3099.3 2225.2,3031.1 2187.0,2962.5 2146.9,2893.7 2105.1,2824.7 2061.7,2755.6 2016.8,2686.5 1970.4,2617.4 1922.8,2548.6 1873.8,2480.0 1823.8,2411.7 1772.7,2343.9 1720.6,2276.6 1667.6,2209.9 1613.7,2144.0 1559.2,2078.9 1504.0,2014.8 1448.1,1951.7 1391.8,1889.7 1335.0,1829.0 1277.7,1769.7 1220.2,1711.8 1162.4,1655.5 1104.4,1601.0 1046.2,1548.3 987.9,1497.5 929.6,1448.8 871.2,1402.2 812.9,1358.0 754.7,1316.3 696.6,1277.1 638.7,1240.6 581.0,1207.0  Z" style="stroke-width: 0.0;  fill: rgb(88,40,138);" />
<path d="M 615.044,1148.878 A 1625.580,1625.580 0.00 0,1 657.3,1083.7 L 657.3,1083.7 715.8,1124.8 774.7,1168.2 833.9,1213.7 893.5,1261.3 953.4,1310.6 1013.8,1361.6 1074.7,1414.1 1135.9,1468.0 1197.6,1523.0 1259.7,1579.1 1322.3,1636.2 1385.2,1694.0 1448.5,1752.6 1512.1,1811.7 1576.0,1871.3 1640.2,1931.3 1704.6,1991.5 1769.2,2052.0 1833.8,2112.5 1898.5,2173.1 1963.1,2233.7 2027.6,2294.2 2091.9,2354.6 2155.9,2414.7 2219.5,2474.7 2282.7,2534.3 2345.2,2593.7 2407.0,2652.7 2468.0,2711.4 2528.0,2769.8 2586.9,2827.8 2644.6,2885.4 2700.9,2942.7 2755.7,2999.7 2808.9,3056.3 2860.2,3112.7 2909.5,3168.8 2956.6,3224.8 3001.4,3280.5  A 1625.580,1625.580 0.00 0,1 2939.1,3326.9 L 2939.1,3326.9 2897.5,3269.9 2853.5,3212.7 2807.1,3155.2 2758.7,3097.5 2708.2,3039.5 2655.9,2981.2 2602.0,2922.6 2546.5,2863.7 2489.6,2804.6 2431.4,2745.1 2372.2,2685.4 2311.9,2625.4 2250.8,2565.3 2188.8,2504.9 2126.2,2444.4 2063.1,2383.8 1999.5,2323.2 1935.5,2262.6 1871.2,2202.0 1806.8,2141.6 1742.2,2081.4 1677.5,2021.5 1612.9,1961.9 1548.3,1902.8 1483.9,1844.3 1419.7,1786.4 1355.7,1729.3 1291.9,1673.0 1228.5,1617.8 1165.4,1563.6 1102.7,1510.7 1040.3,1459.1 978.3,1409.1 916.8,1360.7 855.6,1314.1 794.9,1269.4 734.6,1226.9 674.6,1186.7 615.0,1148.9  Z" style="stroke-width: 0.0;  fill: rgb(88,40,138);" />
<path d="M 657.283,1083.691 A 1625.580,1625.580 0.00 0,1 737.7,975.7 L 737.7,975.7 794.9,1023.1 852.4,1072.3 910.2,1123.3 968.5,1175.7 1027.2,1229.5 1086.4,1284.4 1146.2,1340.2 1206.6,1396.9 1267.6,1454.2 1329.3,1512.0 1391.6,1570.1 1454.5,1628.6 1518.1,1687.1 1582.4,1745.6 1647.3,1804.1 1712.8,1862.4 1778.9,1920.4 1845.5,1978.1 1912.6,2035.3 1980.2,2092.1 2048.1,2148.4 2116.4,2204.1 2184.9,2259.3 2253.6,2313.8 2322.3,2367.7 2391.1,2420.9 2459.6,2473.5 2528.0,2525.5 2596.0,2576.9 2663.6,2627.7 2730.5,2677.9 2796.7,2727.7 2862.0,2777.0 2926.2,2825.9 2989.3,2874.5 3050.9,2922.9 3111.1,2971.1 3169.5,3019.3 3225.9,3067.5  A 1625.580,1625.580 0.00 0,1 3133.4,3165.3 L 3133.4,3165.3 3082.2,3113.8 3028.8,3062.4 2973.3,3010.9 2916.1,2959.2 2857.1,2907.4 2796.7,2855.3 2734.9,2802.9 2671.9,2750.1 2607.8,2697.0 2542.9,2643.5 2477.1,2589.6 2410.7,2535.3 2343.8,2480.6 2276.4,2425.4 2208.7,2369.8 2140.8,2313.9 2072.8,2257.6 2004.7,2201.1 1936.7,2144.2 1868.8,2087.1 1801.1,2029.9 1733.7,1972.6 1666.6,1915.2 1599.8,1858.0 1533.4,1800.8 1467.5,1743.9 1402.1,1687.4 1337.2,1631.3 1272.8,1575.8 1208.9,1521.0 1145.6,1467.0 1082.8,1414.0 1020.5,1362.2 958.8,1311.6 897.6,1262.4 836.9,1214.9 776.6,1169.1 716.8,1125.3 657.3,1083.7  Z" style="stroke-width: 0.0;  fill: rgb(88,40,138);" />
<path d="M 737.699,975.741 A 1625.580,1625.580 0.00 0,1 741.0,971.7 L 741.0,971.7 796.0,1015.4 853.6,1058.6 913.5,1101.4 975.5,1143.8 1039.5,1185.9 1105.4,1227.8 1173.0,1269.5 1242.3,1311.0 1312.9,1352.4 1384.9,1393.7 1458.1,1434.8 1532.4,1475.9 1607.6,1516.9 1683.6,1557.9 1760.3,1598.7 1837.7,1639.4 1915.5,1680.0 1993.7,1720.4 2072.2,1760.6 2150.8,1800.6 2229.6,1840.3 2308.3,1879.6 2387.0,1918.5 2465.5,1957.0 2543.7,1994.9 2621.5,2032.2 2699.0,2068.8 2776.0,2104.5 2852.4,2139.4 2928.1,2173.2 3003.2,2205.9 3077.6,2237.3 3151.1,2267.3 3223.8,2295.9 3295.6,2322.8 3366.4,2347.9 3436.3,2371.0 3505.1,2392.0 3572.8,2410.8  A 1625.580,1625.580 0.00 0,1 3571.5,2415.8 L 3571.5,2415.8 3503.8,2396.8 3435.0,2375.6 3365.1,2352.2 3294.3,2326.9 3222.5,2299.8 3149.9,2271.1 3076.3,2240.9 3002.0,2209.3 2926.9,2176.4 2851.2,2142.5 2774.8,2107.5 2697.8,2071.6 2620.4,2034.9 2542.5,1997.6 2464.3,1959.6 2385.8,1921.0 2307.2,1882.1 2228.4,1842.7 2149.6,1803.0 2070.9,1763.0 1992.4,1722.8 1914.2,1682.3 1836.3,1641.8 1758.9,1601.1 1682.1,1560.3 1606.0,1519.5 1530.8,1478.6 1456.4,1437.5 1383.1,1396.5 1311.0,1355.3 1240.2,1314.0 1170.9,1272.6 1103.1,1231.0 1037.1,1189.3 972.9,1147.3 910.7,1105.0 850.7,1062.3 793.0,1019.3 737.7,975.7  Z" style="stroke-width: 0.0;  fill: rgb(88,40,138);" />
<path d="M 740.969,971.724 A 1625.580,1625.580 0.00 0,1 750.9,959.7 L 750.9,959.7 803.4,1002.0 858.7,1043.4 916.5,1084.2 976.7,1124.2 1039.2,1163.5 1103.9,1202.1 1170.5,1240.1 1239.1,1277.4 1309.4,1314.0 1381.3,1350.0 1454.6,1385.3 1529.4,1419.9 1605.3,1453.7 1682.4,1486.9 1760.5,1519.4 1839.3,1551.1 1919.0,1582.0 1999.2,1612.1 2080.0,1641.4 2161.1,1669.8 2242.4,1697.2 2324.0,1723.7 2405.5,1749.2 2486.9,1773.6 2568.2,1796.9 2649.1,1819.0 2729.7,1839.8 2809.7,1859.4 2889.0,1877.6 2967.7,1894.3 3045.4,1909.5 3122.3,1923.0 3198.1,1934.9 3272.7,1945.0 3346.1,1953.2 3418.1,1959.5 3488.7,1963.7 3557.8,1965.7 3625.2,1965.5  A 1625.580,1625.580 0.00 0,1 3625.5,1981.0 L 3625.5,1981.0 3557.9,1980.6 3488.6,1978.0 3417.9,1973.2 3345.7,1966.3 3272.2,1957.5 3197.4,1946.8 3121.5,1934.4 3044.5,1920.3 2966.6,1904.6 2887.9,1887.5 2808.4,1868.9 2728.3,1848.9 2647.6,1827.7 2566.5,1805.3 2485.1,1781.8 2403.5,1757.1 2321.8,1731.5 2240.1,1704.8 2158.6,1677.2 2077.3,1648.8 1996.3,1619.5 1915.8,1589.4 1835.9,1558.5 1756.8,1526.9 1678.4,1494.6 1601.1,1461.6 1524.8,1427.8 1449.7,1393.5 1376.0,1358.5 1303.7,1322.8 1233.0,1286.5 1164.1,1249.5 1097.0,1211.9 1031.9,1173.6 968.9,1134.7 908.2,1095.0 849.9,1054.7 794.1,1013.6 741.0,971.7  Z" style="stroke-width: 0.0;  fill: rgb(88,40,138);" />
<path d="M 750.854,959.738 A 1625.580,1625.580 0.00 0,1 760.9,947.8 L 760.9,947.8 808.6,986.6 858.9,1024.0 911.6,1060.0 966.7,1094.5 1024.0,1127.4 1083.4,1158.6 1144.6,1188.0 1207.7,1215.6 1272.4,1241.3 1338.6,1265.1 1406.1,1286.8 1474.9,1306.5 1544.8,1324.0 1615.7,1339.4 1687.3,1352.6 1759.7,1363.6 1832.6,1372.4 1905.9,1378.9 1979.4,1383.2 2053.1,1385.1 2126.8,1384.8 2200.4,1382.1 2273.6,1377.2 2346.5,1370.1 2418.7,1360.7 2490.3,1349.0 2561.0,1335.2 2630.8,1319.2 2699.4,1301.1 2766.7,1280.8 2832.7,1258.6 2897.1,1234.4 2959.8,1208.2 3020.7,1180.2 3079.7,1150.4 3136.5,1118.9 3191.1,1085.7 3243.4,1051.0 3293.1,1014.9  A 1625.580,1625.580 0.00 0,1 3302.4,1027.3 L 3302.4,1027.3 3252.2,1063.0 3199.5,1097.4 3144.5,1130.1 3087.1,1161.2 3027.7,1190.6 2966.3,1218.3 2903.1,1244.0 2838.2,1267.9 2771.8,1289.8 2703.9,1309.7 2634.8,1327.5 2564.6,1343.3 2493.4,1356.8 2421.3,1368.3 2348.5,1377.5 2275.2,1384.5 2201.4,1389.3 2127.4,1391.8 2053.2,1392.1 1979.0,1390.1 1904.9,1385.9 1831.1,1379.5 1757.7,1370.8 1684.9,1359.9 1612.7,1346.9 1541.3,1331.7 1471.0,1314.3 1401.6,1294.9 1333.6,1273.4 1266.9,1250.0 1201.7,1224.6 1138.1,1197.3 1076.4,1168.3 1016.5,1137.4 958.7,1104.9 903.1,1070.8 849.9,1035.2 799.1,998.1 750.9,959.7  Z" style="stroke-width: 0.0;  fill: rgb(88,40,138);" />
</g>
<defs>
<pattern id="vline" width="10" height="10" patternTransform="rotate(0 0 0)" patternUnits="userSpaceOnUse"><line x1="0" y1="0" x2="0" y2="10" style="stroke:black;stroke-width:5" /></pattern>
<pattern id="vline-sparse" width="10" height="10" patternTransform="rotate(0 0 0)" patternUnits="userSpaceOnUse"><line x1="0" y1="0" x2="0" y2="10" style="stroke:black;stroke-width:2" /></pattern>
<pattern id="hline" width="10" height="10" patternTransform="rotate(0 0 0)" patternUnits="userSpaceOnUse"><line x1="0" y1="0" x2="10" y2="0" style="stroke:black;stroke-width:5" /></pattern>
<pattern id="hline-sparse" width="10" height="10" patternTransform="rotate(0 0 0)" patternUnits="userSpaceOnUse"><line x1="0" y1="0" x2="10" y2="0" style="stroke:black;stroke-width:2" /></pattern>
<pattern id="checker" width="10" height="10" patternTransform="rotate(45 0 0)" patternUnits="userSpaceOnUse"><line x1="0" y1="0" x2="10" y2="0" style="stroke:black;stroke-width:5" /><line x1="0" y1="0" x2="0" y2="10" style="stroke:black;stroke-width:4" /></pattern>
<pattern id="checker" width="10" height="10" patternTransform="rotate(45 0 0)" patternUnits="userSpaceOnUse"><line x1="0" y1="0" x2="10" y2="0" style="stroke:black;stroke-width:2" /><line x1="0" y1="0" x2="0" y2="10" style="stroke:black;stroke-width:2" /></pattern>
</defs>
</svg>
