<?xml version="1.0" encoding="utf-8" standalone="no"?>
<!DOCTYPE svg PUBLIC "-//W3C//DTD SVG 1.1//EN" "http://www.w3.org/Graphics/SVG/1.1/DTD/svg11.dtd">
<svg width="4000px" height="4000px" version="1.1" xmlns="http://www.w3.org/2000/svg" xmlns:xlink="http://www.w3.org/1999/xlink">
<g id="bg">
<rect x="0" y="0" width="4000px" height="4000px" style="fill:rgb(255,255,255);"/>
</g>
<g id="ideograms">
<path d="M2000.000,358.000 A1642.000,1642.000 40.000 0,1 2751.610,540.121 L2769.004,506.336 A1680.000,1680.000 0.000 0,0 2000.000,320.000 Z" style="stroke-width:2.0;stroke:rgb(255,255,255);stroke-linecap:round;fill:rgb(185,185,185);" />
<text x="2427.0" y="305.8" font-size="36.4px" font-family="CMUBright-Roman" style="text-anchor:start;fill:rgb(0,0,0);" transform="rotate(283.6,2427.0,305.8)" >Management-Operations</text>
<path d="M2000.000,358.000 A1642.000,1642.000 40.000 0,1 2751.610,540.121 L2769.004,506.336 A1680.000,1680.000 0.000 0,0 2000.000,320.000 Z" style="stroke-width:2.0;stroke:rgb(255,255,255);stroke-linecap:round;fill:none;" />
<path d="M2783.279,556.865 A1642.000,1642.000 40.000 0,1 3226.411,908.176 L3254.793,882.908 A1680.000,1680.000 0.000 0,0 2801.406,523.467 Z" style="stroke-width:2.0;stroke:rgb(255,255,255);stroke-linecap:round;fill:rgb(185,185,185);" />
<text x="3097.5" y="640.5" font-size="36.4px" font-family="CMUBright-Roman" style="text-anchor:start;fill:rgb(0,0,0);" transform="rotate(308.4,3097.5,640.5)" >Engineering</text>
<path d="M2783.279,556.865 A1642.000,1642.000 40.000 0,1 3226.411,908.176 L3254.793,882.908 A1680.000,1680.000 0.000 0,0 2801.406,523.467 Z" style="stroke-width:2.0;stroke:rgb(255,255,255);stroke-linecap:round;fill:none;" />
<path d="M3249.937,935.189 A1642.000,1642.000 40.000 0,1 3507.538,1349.236 L3542.426,1334.176 A1680.000,1680.000 0.000 0,0 3278.864,910.547 Z" style="stroke-width:2.0;stroke:rgb(255,255,255);stroke-linecap:round;fill:rgb(185,185,185);" />
<text x="3491.6" y="1090.2" font-size="36.4px" font-family="CMUBright-Roman" style="text-anchor:start;fill:rgb(0,0,0);" transform="rotate(328.1,3491.6,1090.2)" >Leadership-General</text>
<path d="M3249.937,935.189 A1642.000,1642.000 40.000 0,1 3507.538,1349.236 L3542.426,1334.176 A1680.000,1680.000 0.000 0,0 3278.864,910.547 Z" style="stroke-width:2.0;stroke:rgb(255,255,255);stroke-linecap:round;fill:none;" />
<path d="M3521.375,1382.278 A1642.000,1642.000 40.000 0,1 3633.192,1830.154 L3670.988,1826.223 A1680.000,1680.000 0.000 0,0 3556.584,1367.982 Z" style="stroke-width:2.0;stroke:rgb(255,255,255);stroke-linecap:round;fill:rgb(185,185,185);" />
<text x="3699.0" y="1592.3" font-size="36.4px" font-family="CMUBright-Roman" style="text-anchor:start;fill:rgb(0,0,0);" transform="rotate(346.0,3699.0,1592.3)" >Sales-Marketing</text>
<path d="M3521.375,1382.278 A1642.000,1642.000 40.000 0,1 3633.192,1830.154 L3670.988,1826.223 A1680.000,1680.000 0.000 0,0 3556.584,1367.982 Z" style="stroke-width:2.0;stroke:rgb(255,255,255);stroke-linecap:round;fill:none;" />
<path d="M3636.509,1865.822 A1642.000,1642.000 40.000 0,1 3610.774,2318.704 L3648.051,2326.079 A1680.000,1680.000 0.000 0,0 3674.381,1862.717 Z" style="stroke-width:2.0;stroke:rgb(255,255,255);stroke-linecap:round;fill:rgb(185,185,185);" />
<text x="3743.6" y="2111.6" font-size="36.4px" font-family="CMUBright-Roman" style="text-anchor:start;fill:rgb(0,0,0);" transform="rotate(3.3,3743.6,2111.6)" >Finance-Investment</text>
<path d="M3636.509,1865.822 A1642.000,1642.000 40.000 0,1 3610.774,2318.704 L3648.051,2326.079 A1680.000,1680.000 0.000 0,0 3674.381,1862.717 Z" style="stroke-width:2.0;stroke:rgb(255,255,255);stroke-linecap:round;fill:none;" />
<path d="M3603.438,2353.767 A1642.000,1642.000 40.000 0,1 3499.856,2668.278 L3534.566,2683.744 A1680.000,1680.000 0.000 0,0 3640.546,2361.954 Z" style="stroke-width:2.0;stroke:rgb(255,255,255);stroke-linecap:round;fill:rgb(185,185,185);" />
<text x="3655.6" y="2558.4" font-size="36.4px" font-family="CMUBright-Roman" style="text-anchor:start;fill:rgb(0,0,0);" transform="rotate(18.2,3655.6,2558.4)" >Software-Data</text>
<path d="M3603.438,2353.767 A1642.000,1642.000 40.000 0,1 3499.856,2668.278 L3534.566,2683.744 A1680.000,1680.000 0.000 0,0 3640.546,2361.954 Z" style="stroke-width:2.0;stroke:rgb(255,255,255);stroke-linecap:round;fill:none;" />
<path d="M3484.921,2700.839 A1642.000,1642.000 40.000 0,1 3330.895,2961.708 L3361.695,2983.964 A1680.000,1680.000 0.000 0,0 3519.285,2717.058 Z" style="stroke-width:2.0;stroke:rgb(255,255,255);stroke-linecap:round;fill:rgb(185,185,185);" />
<text x="3498.1" y="2899.1" font-size="36.4px" font-family="CMUBright-Roman" style="text-anchor:start;fill:rgb(0,0,0);" transform="rotate(30.6,3498.1,2899.1)" >Education</text>
<path d="M3484.921,2700.839 A1642.000,1642.000 40.000 0,1 3330.895,2961.708 L3361.695,2983.964 A1680.000,1680.000 0.000 0,0 3519.285,2717.058 Z" style="stroke-width:2.0;stroke:rgb(255,255,255);stroke-linecap:round;fill:none;" />
<path d="M3309.599,2990.512 A1642.000,1642.000 40.000 0,1 3129.055,3192.225 L3155.184,3219.816 A1680.000,1680.000 0.000 0,0 3339.906,3013.435 Z" style="stroke-width:2.0;stroke:rgb(255,255,255);stroke-linecap:round;fill:rgb(185,185,185);" />
<text x="3293.5" y="3174.5" font-size="36.4px" font-family="CMUBright-Roman" style="text-anchor:start;fill:rgb(0,0,0);" transform="rotate(41.8,3293.5,3174.5)" >Research-Science</text>
<path d="M3309.599,2990.512 A1642.000,1642.000 40.000 0,1 3129.055,3192.225 L3155.184,3219.816 A1680.000,1680.000 0.000 0,0 3339.906,3013.435 Z" style="stroke-width:2.0;stroke:rgb(255,255,255);stroke-linecap:round;fill:none;" />
<path d="M3102.778,3216.571 A1642.000,1642.000 40.000 0,1 2891.302,3379.038 L2911.929,3410.952 A1680.000,1680.000 0.000 0,0 3128.299,3244.726 Z" style="stroke-width:2.0;stroke:rgb(255,255,255);stroke-linecap:round;fill:rgb(185,185,185);" />
<text x="3054.5" y="3393.1" font-size="36.4px" font-family="CMUBright-Roman" style="text-anchor:start;fill:rgb(0,0,0);" transform="rotate(52.5,3054.5,3393.1)" >Clinical-Care</text>
<path d="M3102.778,3216.571 A1642.000,1642.000 40.000 0,1 2891.302,3379.038 L2911.929,3410.952 A1680.000,1680.000 0.000 0,0 3128.299,3244.726 Z" style="stroke-width:2.0;stroke:rgb(255,255,255);stroke-linecap:round;fill:none;" />
<path d="M2861.006,3398.153 A1642.000,1642.000 40.000 0,1 2640.127,3512.085 L2654.941,3547.079 A1680.000,1680.000 0.000 0,0 2880.932,3430.510 Z" style="stroke-width:2.0;stroke:rgb(255,255,255);stroke-linecap:round;fill:rgb(185,185,185);" />
<text x="2786.7" y="3560.1" font-size="36.4px" font-family="CMUBright-Roman" style="text-anchor:start;fill:rgb(0,0,0);" transform="rotate(62.7,2786.7,3560.1)" >Accounting-Audit</text>
<path d="M2861.006,3398.153 A1642.000,1642.000 40.000 0,1 2640.127,3512.085 L2654.941,3547.079 A1680.000,1680.000 0.000 0,0 2880.932,3430.510 Z" style="stroke-width:2.0;stroke:rgb(255,255,255);stroke-linecap:round;fill:none;" />
<path d="M2606.988,3525.690 A1642.000,1642.000 40.000 0,1 2452.002,3578.562 L2462.463,3615.094 A1680.000,1680.000 0.000 0,0 2621.036,3560.998 Z" style="stroke-width:2.0;stroke:rgb(255,255,255);stroke-linecap:round;fill:rgb(185,185,185);" />
<text x="2552.3" y="3657.6" font-size="36.4px" font-family="CMUBright-Roman" style="text-anchor:start;fill:rgb(0,0,0);" transform="rotate(71.2,2552.3,3657.6)" >Social-Service</text>
<path d="M2606.988,3525.690 A1642.000,1642.000 40.000 0,1 2452.002,3578.562 L2462.463,3615.094 A1680.000,1680.000 0.000 0,0 2621.036,3560.998 Z" style="stroke-width:2.0;stroke:rgb(255,255,255);stroke-linecap:round;fill:none;" />
<path d="M2417.459,3588.047 A1642.000,1642.000 40.000 0,1 2320.910,3610.336 L2328.336,3647.603 A1680.000,1680.000 0.000 0,0 2427.120,3624.798 Z" style="stroke-width:2.0;stroke:rgb(255,255,255);stroke-linecap:round;fill:rgb(185,185,185);" />
<text x="2380.8" y="3705.2" font-size="36.4px" font-family="CMUBright-Roman" style="text-anchor:start;fill:rgb(0,0,0);" transform="rotate(77.0,2380.8,3705.2)" >IT-Infrastructure</text>
<path d="M2417.459,3588.047 A1642.000,1642.000 40.000 0,1 2320.910,3610.336 L2328.336,3647.603 A1680.000,1680.000 0.000 0,0 2427.120,3624.798 Z" style="stroke-width:2.0;stroke:rgb(255,255,255);stroke-linecap:round;fill:none;" />
<path d="M2285.704,3616.953 A1642.000,1642.000 40.000 0,1 2189.660,3631.010 L2194.050,3668.755 A1680.000,1680.000 0.000 0,0 2292.316,3654.373 Z" style="stroke-width:2.0;stroke:rgb(255,255,255);stroke-linecap:round;fill:rgb(185,185,185);" />
<text x="2237.2" y="3731.0" font-size="36.4px" font-family="CMUBright-Roman" style="text-anchor:start;fill:rgb(0,0,0);" transform="rotate(81.7,2237.2,3731.0)" >Legal-Policy</text>
<path d="M2285.704,3616.953 A1642.000,1642.000 40.000 0,1 2189.660,3631.010 L2194.050,3668.755 A1680.000,1680.000 0.000 0,0 2292.316,3654.373 Z" style="stroke-width:2.0;stroke:rgb(255,255,255);stroke-linecap:round;fill:none;" />
<path d="M2154.035,3634.759 A1642.000,1642.000 40.000 0,1 1474.020,3555.477 L1461.848,3591.475 A1680.000,1680.000 0.000 0,0 2157.600,3672.592 Z" style="stroke-width:2.0;stroke:rgb(255,255,255);stroke-linecap:round;fill:rgb(15,52,135);" />
<text x="1813.6" y="3737.2" font-size="36.4px" font-family="CMUBright-Roman" style="text-anchor:end;fill:rgb(0,0,0);" transform="rotate(-83.3,1813.6,3737.2)" >Finance-Accounting</text>
<path d="M2154.035,3634.759 A1642.000,1642.000 40.000 0,1 1474.020,3555.477 L1461.848,3591.475 A1680.000,1680.000 0.000 0,0 2157.600,3672.592 Z" style="stroke-width:2.0;stroke:rgb(255,255,255);stroke-linecap:round;fill:none;" />
<path d="M1440.213,3543.633 A1642.000,1642.000 40.000 0,1 888.845,3208.925 L863.130,3236.902 A1680.000,1680.000 0.000 0,0 1427.258,3579.356 Z" style="stroke-width:2.0;stroke:rgb(255,255,255);stroke-linecap:round;fill:rgb(42,98,180);" />
<text x="1104.1" y="3500.0" font-size="36.4px" font-family="CMUBright-Roman" style="text-anchor:end;fill:rgb(0,0,0);" transform="rotate(-58.7,1104.1,3500.0)" >General-Business</text>
<path d="M1440.213,3543.633 A1642.000,1642.000 40.000 0,1 888.845,3208.925 L863.130,3236.902 A1680.000,1680.000 0.000 0,0 1427.258,3579.356 Z" style="stroke-width:2.0;stroke:rgb(255,255,255);stroke-linecap:round;fill:none;" />
<path d="M862.737,3184.397 A1642.000,1642.000 40.000 0,1 624.574,2896.866 L592.744,2917.622 A1680.000,1680.000 0.000 0,0 836.418,3211.807 Z" style="stroke-width:2.0;stroke:rgb(255,255,255);stroke-linecap:round;fill:rgb(28,75,160);" />
<text x="664.7" y="3126.8" font-size="36.4px" font-family="CMUBright-Roman" style="text-anchor:end;fill:rgb(0,0,0);" transform="rotate(-39.6,664.7,3126.8)" >Marketing-Communication</text>
<path d="M862.737,3184.397 A1642.000,1642.000 40.000 0,1 624.574,2896.866 L592.744,2917.622 A1680.000,1680.000 0.000 0,0 836.418,3211.807 Z" style="stroke-width:2.0;stroke:rgb(255,255,255);stroke-linecap:round;fill:none;" />
<path d="M605.337,2866.648 A1642.000,1642.000 40.000 0,1 476.558,2612.607 L441.301,2626.784 A1680.000,1680.000 0.000 0,0 573.061,2886.704 Z" style="stroke-width:2.0;stroke:rgb(255,255,255);stroke-linecap:round;fill:rgb(60,120,198);" />
<text x="448.7" y="2803.8" font-size="36.4px" font-family="CMUBright-Roman" style="text-anchor:end;fill:rgb(0,0,0);" transform="rotate(-26.9,448.7,2803.8)" >Operations-Analytics</text>
<path d="M605.337,2866.648 A1642.000,1642.000 40.000 0,1 476.558,2612.607 L441.301,2626.784 A1680.000,1680.000 0.000 0,0 573.061,2886.704 Z" style="stroke-width:2.0;stroke:rgb(255,255,255);stroke-linecap:round;fill:none;" />
<path d="M463.556,2579.227 A1642.000,1642.000 40.000 0,1 407.419,2399.813 L370.563,2409.066 A1680.000,1680.000 0.000 0,0 427.999,2592.632 Z" style="stroke-width:2.0;stroke:rgb(255,255,255);stroke-linecap:round;fill:rgb(82,145,215);" />
<text x="337.2" y="2536.5" font-size="36.4px" font-family="CMUBright-Roman" style="text-anchor:end;fill:rgb(0,0,0);" transform="rotate(-17.4,337.2,2536.5)" >Specialized-Business</text>
<path d="M463.556,2579.227 A1642.000,1642.000 40.000 0,1 407.419,2399.813 L370.563,2409.066 A1680.000,1680.000 0.000 0,0 427.999,2592.632 Z" style="stroke-width:2.0;stroke:rgb(255,255,255);stroke-linecap:round;fill:none;" />
<path d="M399.076,2364.976 A1642.000,1642.000 40.000 0,1 366.776,2169.540 L328.979,2173.464 A1680.000,1680.000 0.000 0,0 362.027,2373.422 Z" style="stroke-width:2.0;stroke:rgb(255,255,255);stroke-linecap:round;fill:rgb(200,108,30);" />
<text x="278.3" y="2297.2" font-size="36.4px" font-family="CMUBright-Roman" style="text-anchor:end;fill:rgb(0,0,0);" transform="rotate(-9.4,278.3,2297.2)" >Social-Sciences</text>
<path d="M399.076,2364.976 A1642.000,1642.000 40.000 0,1 366.776,2169.540 L328.979,2173.464 A1680.000,1680.000 0.000 0,0 362.027,2373.422 Z" style="stroke-width:2.0;stroke:rgb(255,255,255);stroke-linecap:round;fill:none;" />
<path d="M363.466,2133.872 A1642.000,1642.000 40.000 0,1 358.290,2030.870 L320.297,2031.584 A1680.000,1680.000 0.000 0,0 325.593,2136.970 Z" style="stroke-width:2.0;stroke:rgb(255,255,255);stroke-linecap:round;fill:rgb(108,170,228);" />
<text x="255.6" y="2099.7" font-size="36.4px" font-family="CMUBright-Roman" style="text-anchor:end;fill:rgb(0,0,0);" transform="rotate(-2.9,255.6,2099.7)" >Economics</text>
<path d="M363.466,2133.872 A1642.000,1642.000 40.000 0,1 358.290,2030.870 L320.297,2031.584 A1680.000,1680.000 0.000 0,0 325.593,2136.970 Z" style="stroke-width:2.0;stroke:rgb(255,255,255);stroke-linecap:round;fill:none;" />
<path d="M358.007,1995.049 A1642.000,1642.000 40.000 0,1 358.807,1948.539 L320.825,1947.348 A1680.000,1680.000 0.000 0,0 320.008,1994.934 Z" style="stroke-width:2.0;stroke:rgb(255,255,255);stroke-linecap:round;fill:rgb(220,140,52);" />
<text x="252.9" y="1982.5" font-size="36.4px" font-family="CMUBright-Roman" style="text-anchor:end;fill:rgb(0,0,0);" transform="rotate(1.0,252.9,1982.5)" >Humanities-Liberal-Arts</text>
<path d="M358.007,1995.049 A1642.000,1642.000 40.000 0,1 358.807,1948.539 L320.825,1947.348 A1680.000,1680.000 0.000 0,0 320.008,1994.934 Z" style="stroke-width:2.0;stroke:rgb(255,255,255);stroke-linecap:round;fill:none;" />
<path d="M360.320,1912.749 A1642.000,1642.000 40.000 0,1 361.133,1898.615 L323.205,1896.269 A1680.000,1680.000 0.000 0,0 322.373,1910.730 Z" style="stroke-width:2.0;stroke:rgb(255,255,255);stroke-linecap:round;fill:rgb(235,168,78);" />
<text x="255.0" y="1912.1" font-size="36.4px" font-family="CMUBright-Roman" style="text-anchor:end;fill:rgb(0,0,0);" transform="rotate(3.3,255.0,1912.1)" >International-Studies</text>
<path d="M360.320,1912.749 A1642.000,1642.000 40.000 0,1 361.133,1898.615 L323.205,1896.269 A1680.000,1680.000 0.000 0,0 322.373,1910.730 Z" style="stroke-width:2.0;stroke:rgb(255,255,255);stroke-linecap:round;fill:none;" />
<path d="M363.735,1862.887 A1642.000,1642.000 40.000 0,1 391.336,1670.812 L354.108,1663.193 A1680.000,1680.000 0.000 0,0 325.867,1859.714 Z" style="stroke-width:2.0;stroke:rgb(255,255,255);stroke-linecap:round;fill:rgb(195,58,55);" />
<text x="268.8" y="1763.9" font-size="36.4px" font-family="CMUBright-Roman" style="text-anchor:end;fill:rgb(0,0,0);" transform="rotate(8.2,268.8,1763.9)" >Social-Work</text>
<path d="M363.735,1862.887 A1642.000,1642.000 40.000 0,1 391.336,1670.812 L354.108,1663.193 A1680.000,1680.000 0.000 0,0 325.867,1859.714 Z" style="stroke-width:2.0;stroke:rgb(255,255,255);stroke-linecap:round;fill:none;" />
<path d="M398.900,1635.797 A1642.000,1642.000 40.000 0,1 428.981,1522.439 L392.624,1511.387 A1680.000,1680.000 0.000 0,0 361.847,1627.368 Z" style="stroke-width:2.0;stroke:rgb(255,255,255);stroke-linecap:round;fill:rgb(175,35,42);" />
<text x="308.1" y="1564.0" font-size="36.4px" font-family="CMUBright-Roman" style="text-anchor:end;fill:rgb(0,0,0);" transform="rotate(14.9,308.1,1564.0)" >Teacher-Education</text>
<path d="M398.900,1635.797 A1642.000,1642.000 40.000 0,1 428.981,1522.439 L392.624,1511.387 A1680.000,1680.000 0.000 0,0 361.847,1627.368 Z" style="stroke-width:2.0;stroke:rgb(255,255,255);stroke-linecap:round;fill:none;" />
<path d="M439.773,1488.281 A1642.000,1642.000 40.000 0,1 474.975,1391.343 L439.682,1377.257 A1680.000,1680.000 0.000 0,0 403.666,1476.439 Z" style="stroke-width:2.0;stroke:rgb(255,255,255);stroke-linecap:round;fill:rgb(215,82,72);" />
<text x="352.5" y="1418.2" font-size="36.4px" font-family="CMUBright-Roman" style="text-anchor:end;fill:rgb(0,0,0);" transform="rotate(20.0,352.5,1418.2)" >Special-Education</text>
<path d="M439.773,1488.281 A1642.000,1642.000 40.000 0,1 474.975,1391.343 L439.682,1377.257 A1680.000,1680.000 0.000 0,0 403.666,1476.439 Z" style="stroke-width:2.0;stroke:rgb(255,255,255);stroke-linecap:round;fill:none;" />
<path d="M488.616,1358.220 A1642.000,1642.000 40.000 0,1 509.092,1311.991 L474.588,1296.068 A1680.000,1680.000 0.000 0,0 453.639,1343.368 Z" style="stroke-width:2.0;stroke:rgb(255,255,255);stroke-linecap:round;fill:rgb(230,112,95);" />
<text x="396.3" y="1306.6" font-size="36.4px" font-family="CMUBright-Roman" style="text-anchor:end;fill:rgb(0,0,0);" transform="rotate(23.9,396.3,1306.6)" >Educational-Leadership</text>
<path d="M488.616,1358.220 A1642.000,1642.000 40.000 0,1 509.092,1311.991 L474.588,1296.068 A1680.000,1680.000 0.000 0,0 453.639,1343.368 Z" style="stroke-width:2.0;stroke:rgb(255,255,255);stroke-linecap:round;fill:none;" />
<path d="M524.455,1279.630 A1642.000,1642.000 40.000 0,1 553.988,1222.045 L520.524,1204.041 A1680.000,1680.000 0.000 0,0 490.308,1262.959 Z" style="stroke-width:2.0;stroke:rgb(255,255,255);stroke-linecap:round;fill:rgb(0,130,142);" />
<text x="439.7" y="1213.8" font-size="36.4px" font-family="CMUBright-Roman" style="text-anchor:end;fill:rgb(0,0,0);" transform="rotate(27.2,439.7,1213.8)" >Communication-Studies</text>
<path d="M524.455,1279.630 A1642.000,1642.000 40.000 0,1 553.988,1222.045 L520.524,1204.041 A1680.000,1680.000 0.000 0,0 490.308,1262.959 Z" style="stroke-width:2.0;stroke:rgb(255,255,255);stroke-linecap:round;fill:none;" />
<path d="M571.303,1190.686 A1642.000,1642.000 40.000 0,1 588.562,1160.949 L555.898,1141.531 A1680.000,1680.000 0.000 0,0 538.240,1171.956 Z" style="stroke-width:2.0;stroke:rgb(255,255,255);stroke-linecap:round;fill:rgb(0,165,172);" />
<text x="482.6" y="1133.8" font-size="36.4px" font-family="CMUBright-Roman" style="text-anchor:end;fill:rgb(0,0,0);" transform="rotate(30.1,482.6,1133.8)" >Journalism-Media</text>
<path d="M571.303,1190.686 A1642.000,1642.000 40.000 0,1 588.562,1160.949 L555.898,1141.531 A1680.000,1680.000 0.000 0,0 538.240,1171.956 Z" style="stroke-width:2.0;stroke:rgb(255,255,255);stroke-linecap:round;fill:none;" />
<path d="M607.202,1130.358 A1642.000,1642.000 40.000 0,1 613.667,1120.089 L581.583,1099.725 A1680.000,1680.000 0.000 0,0 574.969,1110.233 Z" style="stroke-width:2.0;stroke:rgb(255,255,255);stroke-linecap:round;fill:rgb(38,195,195);" />
<text x="512.9" y="1082.8" font-size="36.4px" font-family="CMUBright-Roman" style="text-anchor:end;fill:rgb(0,0,0);" transform="rotate(32.2,512.9,1082.8)" >Creative-Writing</text>
<path d="M607.202,1130.358 A1642.000,1642.000 40.000 0,1 613.667,1120.089 L581.583,1099.725 A1680.000,1680.000 0.000 0,0 574.969,1110.233 Z" style="stroke-width:2.0;stroke:rgb(255,255,255);stroke-linecap:round;fill:none;" />
<path d="M633.192,1090.055 A1642.000,1642.000 40.000 0,1 667.742,1040.182 L636.910,1017.969 A1680.000,1680.000 0.000 0,0 601.560,1068.997 Z" style="stroke-width:2.0;stroke:rgb(255,255,255);stroke-linecap:round;fill:rgb(180,45,112);" />
<text x="554.7" y="1018.2" font-size="36.4px" font-family="CMUBright-Roman" style="text-anchor:end;fill:rgb(0,0,0);" transform="rotate(34.7,554.7,1018.2)" >Arts-Theology</text>
<path d="M633.192,1090.055 A1642.000,1642.000 40.000 0,1 667.742,1040.182 L636.910,1017.969 A1680.000,1680.000 0.000 0,0 601.560,1068.997 Z" style="stroke-width:2.0;stroke:rgb(255,255,255);stroke-linecap:round;fill:none;" />
<path d="M688.997,1011.347 A1642.000,1642.000 40.000 0,1 698.803,998.477 L668.690,975.299 A1680.000,1680.000 0.000 0,0 658.657,988.467 Z" style="stroke-width:2.0;stroke:rgb(255,255,255);stroke-linecap:round;fill:rgb(205,75,142);" />
<text x="600.6" y="953.9" font-size="36.4px" font-family="CMUBright-Roman" style="text-anchor:end;fill:rgb(0,0,0);" transform="rotate(37.3,600.6,953.9)" >English-Writing</text>
<path d="M688.997,1011.347 A1642.000,1642.000 40.000 0,1 698.803,998.477 L668.690,975.299 A1680.000,1680.000 0.000 0,0 658.657,988.467 Z" style="stroke-width:2.0;stroke:rgb(255,255,255);stroke-linecap:round;fill:none;" />
<path d="M720.960,970.329 A1642.000,1642.000 40.000 0,1 724.774,965.610 L695.262,941.672 A1680.000,1680.000 0.000 0,0 691.360,946.500 Z" style="stroke-width:2.0;stroke:rgb(255,255,255);stroke-linecap:round;fill:rgb(225,110,168);" />
<text x="631.0" y="914.3" font-size="36.4px" font-family="CMUBright-Roman" style="text-anchor:end;fill:rgb(0,0,0);" transform="rotate(38.9,631.0,914.3)" >Languages</text>
<path d="M720.960,970.329 A1642.000,1642.000 40.000 0,1 724.774,965.610 L695.262,941.672 A1680.000,1680.000 0.000 0,0 691.360,946.500 Z" style="stroke-width:2.0;stroke:rgb(255,255,255);stroke-linecap:round;fill:none;" />
<path d="M747.643,938.037 A1642.000,1642.000 40.000 0,1 884.635,794.959 L858.822,767.071 A1680.000,1680.000 0.000 0,0 718.660,913.461 Z" style="stroke-width:2.0;stroke:rgb(255,255,255);stroke-linecap:round;fill:rgb(88,40,138);" />
<text x="727.0" y="803.3" font-size="36.4px" font-family="CMUBright-Roman" style="text-anchor:end;fill:rgb(0,0,0);" transform="rotate(43.8,727.0,803.3)" >Biological-Sciences</text>
<path d="M747.643,938.037 A1642.000,1642.000 40.000 0,1 884.635,794.959 L858.822,767.071 A1680.000,1680.000 0.000 0,0 718.660,913.461 Z" style="stroke-width:2.0;stroke:rgb(255,255,255);stroke-linecap:round;fill:none;" />
<path d="M911.188,770.914 A1642.000,1642.000 40.000 0,1 969.888,721.316 L946.049,691.724 A1680.000,1680.000 0.000 0,0 885.990,742.470 Z" style="stroke-width:2.0;stroke:rgb(255,255,255);stroke-linecap:round;fill:rgb(115,65,165);" />
<text x="862.8" y="673.5" font-size="36.4px" font-family="CMUBright-Roman" style="text-anchor:end;fill:rgb(0,0,0);" transform="rotate(49.8,862.8,673.5)" >Health-Wellness</text>
<path d="M911.188,770.914 A1642.000,1642.000 40.000 0,1 969.888,721.316 L946.049,691.724 A1680.000,1680.000 0.000 0,0 885.990,742.470 Z" style="stroke-width:2.0;stroke:rgb(255,255,255);stroke-linecap:round;fill:none;" />
<path d="M998.028,699.148 A1642.000,1642.000 40.000 0,1 1023.858,679.655 L1001.267,649.099 A1680.000,1680.000 0.000 0,0 974.840,669.043 Z" style="stroke-width:2.0;stroke:rgb(255,255,255);stroke-linecap:round;fill:rgb(140,92,188);" />
<text x="935.2" y="614.8" font-size="36.4px" font-family="CMUBright-Roman" style="text-anchor:end;fill:rgb(0,0,0);" transform="rotate(53.0,935.2,614.8)" >Physical-Sciences</text>
<path d="M998.028,699.148 A1642.000,1642.000 40.000 0,1 1023.858,679.655 L1001.267,649.099 A1680.000,1680.000 0.000 0,0 974.840,669.043 Z" style="stroke-width:2.0;stroke:rgb(255,255,255);stroke-linecap:round;fill:none;" />
<path d="M1052.893,658.675 A1642.000,1642.000 40.000 0,1 1064.493,650.559 L1042.843,619.329 A1680.000,1680.000 0.000 0,0 1030.975,627.633 Z" style="stroke-width:2.0;stroke:rgb(255,255,255);stroke-linecap:round;fill:rgb(165,120,208);" />
<text x="988.2" y="575.6" font-size="36.4px" font-family="CMUBright-Roman" style="text-anchor:end;fill:rgb(0,0,0);" transform="rotate(55.0,988.2,575.6)" >Environmental-Sciences</text>
<path d="M1052.893,658.675 A1642.000,1642.000 40.000 0,1 1064.493,650.559 L1042.843,619.329 A1680.000,1680.000 0.000 0,0 1030.975,627.633 Z" style="stroke-width:2.0;stroke:rgb(255,255,255);stroke-linecap:round;fill:none;" />
<path d="M1094.154,630.472 A1642.000,1642.000 40.000 0,1 1594.822,408.776 L1585.445,371.951 A1680.000,1680.000 0.000 0,0 1073.190,598.778 Z" style="stroke-width:2.0;stroke:rgb(255,255,255);stroke-linecap:round;fill:rgb(22,118,50);" />
<text x="1278.0" y="409.0" font-size="36.4px" font-family="CMUBright-Roman" style="text-anchor:end;fill:rgb(0,0,0);" transform="rotate(66.1,1278.0,409.0)" >Engineering-Disciplines</text>
<path d="M1094.154,630.472 A1642.000,1642.000 40.000 0,1 1594.822,408.776 L1585.445,371.951 A1680.000,1680.000 0.000 0,0 1073.190,598.778 Z" style="stroke-width:2.0;stroke:rgb(255,255,255);stroke-linecap:round;fill:none;" />
<path d="M1629.631,400.315 A1642.000,1642.000 40.000 0,1 1964.180,358.391 L1963.351,320.400 A1680.000,1680.000 0.000 0,0 1621.060,363.295 Z" style="stroke-width:2.0;stroke:rgb(255,255,255);stroke-linecap:round;fill:rgb(48,158,75);" />
<text x="1767.4" y="268.4" font-size="36.4px" font-family="CMUBright-Roman" style="text-anchor:end;fill:rgb(0,0,0);" transform="rotate(82.9,1767.4,268.4)" >Computer-Science-IT</text>
<path d="M1629.631,400.315 A1642.000,1642.000 40.000 0,1 1964.180,358.391 L1963.351,320.400 A1680.000,1680.000 0.000 0,0 1621.060,363.295 Z" style="stroke-width:2.0;stroke:rgb(255,255,255);stroke-linecap:round;fill:none;" />
</g>
<g id="track_0">
<path d="M 760.166,948.657 A 1625.580,1625.580 0.00 0,1 761.5,947.1 L 761.5,947.1 812.2,991.8 862.8,1039.3 913.0,1089.4 963.0,1142.0 1012.8,1197.0 1062.2,1254.1 1111.4,1313.3 1160.3,1374.5 1208.9,1437.4 1257.1,1502.1 1305.0,1568.3 1352.5,1635.9 1399.5,1704.8 1446.1,1774.9 1492.2,1846.1 1537.8,1918.2 1582.7,1991.2 1627.1,2064.8 1670.7,2139.1 1713.6,2213.9 1755.6,2289.1 1796.8,2364.6 1837.0,2440.2 1876.3,2516.0 1914.4,2591.7 1951.4,2667.3 1987.1,2742.8 2021.4,2817.9 2054.4,2892.7 2085.8,2966.9 2115.6,3040.7 2143.6,3113.8 2169.9,3186.1 2194.2,3257.7 2216.5,3328.4 2236.6,3398.1 2254.5,3466.8 2269.9,3534.4 2282.8,3600.8  A 1625.580,1625.580 0.00 0,1 2280.9,3601.1 L 2280.9,3601.1 2268.0,3534.7 2252.7,3467.1 2234.9,3398.5 2214.9,3328.7 2192.7,3258.1 2168.4,3186.5 2142.2,3114.1 2114.2,3041.1 2084.5,2967.3 2053.1,2893.1 2020.3,2818.3 1985.9,2743.2 1950.3,2667.7 1913.4,2592.1 1875.3,2516.4 1836.1,2440.7 1795.9,2365.0 1754.7,2289.6 1712.7,2214.4 1669.8,2139.6 1626.2,2065.4 1581.9,1991.7 1536.9,1918.8 1491.3,1846.7 1445.2,1775.6 1398.6,1705.5 1351.6,1636.7 1304.1,1569.1 1256.2,1502.9 1207.9,1438.4 1159.3,1375.4 1110.4,1314.4 1061.2,1255.2 1011.7,1198.1 961.9,1143.3 911.8,1090.7 861.5,1040.7 811.0,993.3 760.2,948.7  Z" style="stroke-width: 0.0;  fill: rgb(88,40,138);" />
<path d="M 761.462,947.131 A 1625.580,1625.580 0.00 0,1 779.8,925.9 L 779.8,925.9 830.6,972.1 881.2,1021.0 931.5,1072.4 981.7,1126.2 1031.8,1182.3 1081.6,1240.4 1131.3,1300.5 1180.9,1362.4 1230.3,1426.1 1279.5,1491.2 1328.5,1557.8 1377.3,1625.7 1425.8,1694.8 1474.1,1765.0 1522.1,1836.1 1569.7,1908.0 1617.0,1980.7 1663.8,2053.9 1710.2,2127.7 1755.9,2201.9 1801.1,2276.4 1845.6,2351.0 1889.4,2425.9 1932.4,2500.7 1974.4,2575.4 2015.5,2650.0 2055.5,2724.4 2094.3,2798.5 2131.9,2872.1 2168.1,2945.3 2202.8,3018.0 2236.0,3090.0 2267.4,3161.4 2297.1,3232.0 2324.7,3301.9 2350.3,3370.9 2373.7,3438.9 2394.7,3506.1 2413.3,3572.2  A 1625.580,1625.580 0.00 0,1 2386.1,3579.1 L 2386.1,3579.1 2368.8,3513.0 2348.9,3445.9 2326.7,3377.8 2302.2,3308.8 2275.6,3238.9 2247.0,3168.2 2216.6,3096.7 2184.4,3024.6 2150.5,2951.9 2115.1,2878.7 2078.3,2805.0 2040.2,2731.0 2000.8,2656.6 1960.3,2582.1 1918.8,2507.4 1876.3,2432.7 1832.9,2358.0 1788.6,2283.5 1743.7,2209.3 1698.1,2135.3 1651.8,2061.9 1605.0,1989.0 1557.7,1916.7 1510.0,1845.2 1461.9,1774.6 1413.4,1705.0 1364.6,1636.5 1315.5,1569.2 1266.1,1503.3 1216.5,1438.8 1166.7,1376.0 1116.6,1314.9 1066.4,1255.6 1016.1,1198.4 965.5,1143.3 914.8,1090.5 863.9,1040.1 812.8,992.2 761.5,947.1  Z" style="stroke-width: 0.0;  fill: rgb(88,40,138);" />
<path d="M 779.801,925.930 A 1625.580,1625.580 0.00 0,1 781.1,924.4 L 781.1,924.4 834.2,972.5 887.4,1022.9 940.6,1075.5 993.9,1130.1 1047.5,1186.5 1101.3,1244.6 1155.3,1304.2 1209.6,1365.1 1264.2,1427.3 1319.1,1490.5 1374.4,1554.7 1429.9,1619.8 1485.8,1685.5 1541.9,1751.9 1598.2,1818.7 1654.9,1885.9 1711.7,1953.4 1768.6,2021.1 1825.7,2088.8 1882.8,2156.7 1939.9,2224.4 1996.9,2292.1 2053.7,2359.5 2110.3,2426.8 2166.5,2493.7 2222.3,2560.3 2277.6,2626.5 2332.3,2692.3 2386.1,2757.6 2439.1,2822.5 2491.1,2886.9 2541.9,2950.8 2591.4,3014.2 2639.5,3077.1 2685.9,3139.4 2730.6,3201.3 2773.4,3262.7 2814.0,3323.7 2852.4,3384.2  A 1625.580,1625.580 0.00 0,1 2850.7,3385.2 L 2850.7,3385.2 2812.4,3324.7 2771.9,3263.7 2729.2,3202.3 2684.6,3140.4 2638.2,3078.0 2590.2,3015.1 2540.7,2951.7 2490.0,2887.7 2438.0,2823.3 2385.1,2758.4 2331.3,2693.0 2276.7,2627.2 2221.5,2561.0 2165.7,2494.4 2109.4,2427.4 2052.9,2360.2 1996.1,2292.7 1939.1,2225.1 1882.0,2157.3 1824.9,2089.5 1767.8,2021.7 1710.9,1954.1 1654.1,1886.6 1597.4,1819.4 1541.0,1752.6 1484.9,1686.3 1429.0,1620.6 1373.5,1555.6 1318.2,1491.4 1263.3,1428.2 1208.6,1366.1 1154.3,1305.2 1100.2,1245.7 1046.4,1187.6 992.8,1131.3 939.4,1076.8 886.1,1024.3 832.9,973.9 779.8,925.9  Z" style="stroke-width: 0.0;  fill: rgb(88,40,138);" />
<path d="M 781.125,924.428 A 1625.580,1625.580 0.00 0,1 818.9,883.0 L 818.9,883.0 872.1,934.3 925.3,987.6 978.7,1042.7 1032.4,1099.3 1086.5,1157.4 1140.9,1216.8 1195.8,1277.3 1251.1,1338.7 1307.0,1400.8 1363.4,1463.7 1420.5,1527.0 1478.1,1590.7 1536.3,1654.7 1595.1,1718.9 1654.4,1783.1 1714.4,1847.3 1774.9,1911.3 1835.9,1975.1 1897.3,2038.7 1959.2,2101.9 2021.4,2164.6 2083.9,2227.0 2146.7,2288.8 2209.5,2350.1 2272.5,2410.8 2335.4,2470.9 2398.1,2530.5 2460.6,2589.4 2522.7,2647.8 2584.4,2705.5 2645.4,2762.7 2705.6,2819.3 2764.9,2875.5 2823.1,2931.1 2880.0,2986.4 2935.5,3041.3 2989.5,3095.9 3041.6,3150.2 3091.7,3204.4  A 1625.580,1625.580 0.00 0,1 3049.6,3241.3 L 3049.6,3241.3 3001.7,3186.0 2951.8,3130.5 2899.9,3074.7 2846.3,3018.7 2791.2,2962.2 2734.7,2905.4 2677.0,2848.1 2618.2,2790.3 2558.5,2732.1 2498.1,2673.3 2437.0,2614.0 2375.4,2554.1 2313.4,2493.8 2251.2,2432.9 2188.7,2371.5 2126.2,2309.7 2063.7,2247.4 2001.3,2184.7 1939.1,2121.7 1877.1,2058.4 1815.4,1994.8 1754.0,1931.1 1693.1,1867.3 1632.6,1803.5 1572.5,1739.7 1513.0,1676.2 1453.9,1613.0 1395.4,1550.1 1337.4,1487.8 1279.9,1426.1 1222.9,1365.2 1166.4,1305.2 1110.3,1246.3 1054.7,1188.6 999.5,1132.3 944.5,1077.6 889.9,1024.5 835.4,973.4 781.1,924.4  Z" style="stroke-width: 0.0;  fill: rgb(88,40,138);" />
<path d="M 818.938,883.039 A 1625.580,1625.580 0.00 0,1 876.8,824.8 L 876.8,824.8 927.9,877.0 981.0,929.3 1036.1,981.7 1093.0,1034.2 1151.5,1087.0 1211.4,1140.2 1272.5,1193.6 1334.8,1247.5 1398.0,1301.8 1462.1,1356.5 1526.9,1411.8 1592.2,1467.5 1658.0,1523.6 1724.2,1580.3 1790.5,1637.4 1857.0,1695.0 1923.6,1752.9 1990.1,1811.3 2056.5,1870.0 2122.7,1928.9 2188.6,1988.1 2254.2,2047.5 2319.4,2106.9 2384.3,2166.4 2448.6,2225.7 2512.5,2284.9 2575.9,2343.8 2638.7,2402.3 2701.0,2460.3 2762.8,2517.7 2824.0,2574.3 2884.7,2629.9 2944.8,2684.5 3004.5,2737.9 3063.7,2789.9 3122.4,2840.4 3180.8,2889.1 3238.8,2935.9 3296.5,2980.6  A 1625.580,1625.580 0.00 0,1 3245.3,3044.8 L 3245.3,3044.8 3189.1,2996.7 3132.7,2946.6 3075.9,2894.7 3018.8,2841.4 2961.2,2786.6 2903.1,2730.6 2844.6,2673.7 2785.4,2615.8 2725.7,2557.3 2665.4,2498.1 2604.4,2438.5 2542.8,2378.7 2480.6,2318.6 2417.8,2258.4 2354.3,2198.3 2290.3,2138.3 2225.7,2078.5 2160.6,2018.9 2095.1,1959.7 2029.1,1900.9 1962.7,1842.6 1896.1,1784.8 1829.3,1727.5 1762.3,1670.8 1695.3,1614.7 1628.3,1559.2 1561.4,1504.3 1494.9,1450.0 1428.7,1396.3 1363.0,1343.2 1298.0,1290.6 1233.7,1238.5 1170.4,1186.9 1108.1,1135.6 1047.1,1084.7 987.5,1034.1 929.5,983.7 873.2,933.4 818.9,883.0  Z" style="stroke-width: 0.0;  fill: rgb(88,40,138);" />
<path d="M 876.828,824.843 A 1625.580,1625.580 0.00 0,1 878.3,823.5 L 878.3,823.5 927.9,874.1 980.0,924.6 1034.3,975.1 1090.7,1025.5 1149.1,1076.0 1209.3,1126.6 1271.1,1177.2 1334.4,1228.0 1399.1,1278.9 1465.0,1330.0 1532.0,1381.3 1600.0,1432.6 1668.8,1484.2 1738.3,1535.8 1808.5,1587.6 1879.2,1639.5 1950.2,1691.4 2021.6,1743.3 2093.3,1795.2 2165.0,1846.9 2236.8,1898.6 2308.6,1950.0 2380.2,2001.1 2451.7,2051.8 2523.0,2102.1 2593.9,2151.8 2664.5,2200.9 2734.7,2249.2 2804.4,2296.6 2873.7,2343.1 2942.4,2388.4 3010.5,2432.5 3078.1,2475.2 3145.0,2516.4 3211.3,2555.9 3277.0,2593.5 3342.0,2629.2 3406.4,2662.7 3470.1,2693.8  A 1625.580,1625.580 0.00 0,1 3469.2,2695.6 L 3469.2,2695.6 3405.5,2664.4 3341.2,2630.8 3276.2,2595.1 3210.6,2557.3 3144.3,2517.8 3077.3,2476.5 3009.8,2433.8 2941.7,2389.6 2873.0,2344.2 2803.8,2297.7 2734.0,2250.2 2663.9,2201.9 2593.3,2152.8 2522.4,2103.0 2451.1,2052.7 2379.6,2002.0 2308.0,1950.8 2236.2,1899.4 2164.4,1847.8 2092.7,1796.0 2021.0,1744.1 1949.6,1692.2 1878.5,1640.3 1807.8,1588.5 1737.6,1536.7 1668.1,1485.1 1599.2,1433.6 1531.2,1382.2 1464.2,1331.0 1398.2,1280.0 1333.5,1229.1 1270.1,1178.3 1208.3,1127.7 1148.0,1077.2 1089.6,1026.7 1033.1,976.3 978.7,925.9 926.5,875.4 876.8,824.8  Z" style="stroke-width: 0.0;  fill: rgb(88,40,138);" />
<path d="M 878.276,823.460 A 1625.580,1625.580 0.00 0,1 879.7,822.1 L 879.7,822.1 927.8,871.0 978.6,919.7 1031.9,968.0 1087.6,1016.1 1145.6,1063.9 1205.6,1111.5 1267.5,1158.8 1331.3,1205.9 1396.8,1252.8 1463.8,1299.4 1532.3,1345.8 1602.0,1391.9 1672.9,1437.7 1744.9,1483.2 1817.8,1528.4 1891.5,1573.2 1966.0,1617.6 2041.0,1661.5 2116.5,1704.9 2192.4,1747.7 2268.6,1789.9 2345.0,1831.5 2421.4,1872.3 2497.9,1912.2 2574.2,1951.3 2650.4,1989.4 2726.3,2026.4 2801.8,2062.3 2876.9,2096.9 2951.4,2130.2 3025.4,2162.0 3098.7,2192.3 3171.2,2220.9 3243.0,2247.7 3313.9,2272.5 3383.8,2295.4 3452.7,2316.0 3520.6,2334.3 3587.4,2350.2  A 1625.580,1625.580 0.00 0,1 3587.0,2352.2 L 3587.0,2352.2 3520.2,2336.2 3452.3,2317.8 3383.4,2297.1 3313.4,2274.1 3242.5,2249.2 3170.8,2222.3 3098.3,2193.7 3025.0,2163.3 2951.0,2131.5 2876.4,2098.1 2801.4,2063.4 2725.8,2027.5 2650.0,1990.4 2573.8,1952.3 2497.4,1913.2 2421.0,1873.2 2344.5,1832.4 2268.1,1790.8 2191.9,1748.6 2116.0,1705.8 2040.5,1662.4 1965.4,1618.4 1891.0,1574.1 1817.2,1529.3 1744.3,1484.1 1672.2,1438.7 1601.3,1392.9 1531.5,1346.8 1463.0,1300.4 1395.9,1253.8 1330.4,1207.0 1266.6,1159.9 1204.5,1112.6 1144.5,1065.1 1086.5,1017.3 1030.7,969.3 977.3,921.0 926.5,872.4 878.3,823.5  Z" style="stroke-width: 0.0;  fill: rgb(88,40,138);" />
<path d="M 879.726,822.079 A 1625.580,1625.580 0.00 0,1 881.2,820.7 L 881.2,820.7 927.3,867.5 976.3,913.6 1027.9,959.1 1082.2,1004.0 1138.9,1048.2 1197.9,1091.6 1259.1,1134.3 1322.3,1176.2 1387.5,1217.4 1454.4,1257.6 1523.1,1297.0 1593.3,1335.5 1664.9,1373.1 1737.7,1409.7 1811.8,1445.2 1886.9,1479.7 1962.9,1513.1 2039.7,1545.3 2117.2,1576.3 2195.2,1606.1 2273.6,1634.7 2352.3,1661.9 2431.2,1687.7 2510.2,1712.0 2589.1,1734.9 2667.8,1756.3 2746.2,1776.0 2824.2,1794.1 2901.6,1810.5 2978.3,1825.2 3054.3,1838.0 3129.4,1848.9 3203.5,1857.9 3276.4,1864.9 3348.1,1869.7 3418.5,1872.5 3487.3,1873.0 3554.6,1871.3 3620.1,1867.2  A 1625.580,1625.580 0.00 0,1 3620.3,1869.2 L 3620.3,1869.2 3554.7,1873.2 3487.4,1874.9 3418.5,1874.3 3348.2,1871.4 3276.5,1866.5 3203.5,1859.4 3129.4,1850.4 3054.3,1839.4 2978.3,1826.5 2901.5,1811.8 2824.0,1795.4 2746.1,1777.2 2667.6,1757.4 2588.9,1736.0 2510.0,1713.1 2431.0,1688.7 2352.1,1662.8 2273.3,1635.6 2194.8,1607.1 2116.8,1577.3 2039.3,1546.2 1962.5,1514.0 1886.4,1480.6 1811.3,1446.1 1737.2,1410.6 1664.2,1374.0 1592.6,1336.5 1522.3,1298.0 1453.6,1258.6 1386.6,1218.4 1321.4,1177.3 1258.1,1135.4 1196.8,1092.8 1137.8,1049.3 1081.0,1005.2 1026.7,960.4 975.0,914.9 925.9,868.8 879.7,822.1  Z" style="stroke-width: 0.0;  fill: rgb(88,40,138);" />
<path d="M 881.178,820.700 A 1625.580,1625.580 0.00 0,1 887.0,815.2 L 887.0,815.2 931.0,860.0 977.8,904.0 1027.2,947.0 1079.3,988.9 1133.8,1029.6 1190.6,1069.2 1249.6,1107.5 1310.6,1144.4 1373.6,1180.0 1438.4,1214.0 1504.9,1246.6 1573.0,1277.5 1642.4,1306.8 1713.2,1334.4 1785.1,1360.3 1858.0,1384.4 1931.9,1406.6 2006.5,1427.0 2081.7,1445.5 2157.4,1462.1 2233.5,1476.7 2309.8,1489.3 2386.2,1499.9 2462.5,1508.5 2538.6,1515.1 2614.4,1519.5 2689.8,1521.9 2764.5,1522.2 2838.5,1520.5 2911.6,1516.6 2983.7,1510.6 3054.6,1502.6 3124.2,1492.4 3192.4,1480.2 3258.9,1465.9 3323.7,1449.6 3386.6,1431.2 3447.5,1410.8 3506.2,1388.5  A 1625.580,1625.580 0.00 0,1 3509.2,1395.9 L 3509.2,1395.9 3450.3,1418.0 3389.2,1438.1 3326.1,1456.2 3261.2,1472.3 3194.4,1486.3 3126.1,1498.3 3056.3,1508.2 2985.2,1516.0 2913.0,1521.8 2839.7,1525.4 2765.5,1527.0 2690.5,1526.5 2615.0,1523.9 2539.0,1519.3 2462.6,1512.6 2386.1,1503.9 2309.5,1493.2 2233.0,1480.5 2156.7,1465.8 2080.8,1449.2 2005.3,1430.6 1930.5,1410.2 1856.4,1388.0 1783.3,1363.9 1711.1,1338.1 1640.1,1310.5 1570.4,1281.3 1502.1,1250.5 1435.4,1218.1 1370.3,1184.1 1307.0,1148.7 1245.7,1111.9 1186.4,1073.8 1129.3,1034.4 1074.6,993.7 1022.2,952.0 972.5,909.2 925.4,865.4 881.2,820.7  Z" style="stroke-width: 0.0;  fill: rgb(88,40,138);" />
<path d="M 887.002,815.202 A 1625.580,1625.580 0.00 0,1 888.5,813.8 L 888.5,813.8 930.5,856.7 975.1,898.5 1022.2,939.0 1071.6,978.0 1123.2,1015.5 1176.9,1051.4 1232.5,1085.4 1289.9,1117.6 1349.0,1147.7 1409.7,1175.8 1471.8,1201.7 1535.1,1225.4 1599.6,1246.7 1665.2,1265.7 1731.6,1282.3 1798.8,1296.3 1866.6,1307.9 1934.9,1316.9 2003.5,1323.4 2072.3,1327.2 2141.3,1328.5 2210.1,1327.2 2278.8,1323.3 2347.1,1316.9 2415.0,1307.9 2482.2,1296.3 2548.7,1282.4 2614.3,1265.9 2678.9,1247.2 2742.4,1226.1 2804.5,1202.7 2865.2,1177.2 2924.2,1149.6 2981.6,1120.0 3037.1,1088.5 3090.5,1055.2 3141.9,1020.3 3190.9,983.8 3237.4,945.8  A 1625.580,1625.580 0.00 0,1 3238.7,947.4 L 3238.7,947.4 3192.1,985.2 3143.0,1021.7 3091.7,1056.6 3038.1,1089.8 2982.6,1121.3 2925.2,1150.8 2866.0,1178.4 2805.3,1203.9 2743.1,1227.2 2679.6,1248.2 2614.9,1267.0 2549.2,1283.3 2482.7,1297.3 2415.3,1308.8 2347.4,1317.8 2279.0,1324.2 2210.3,1328.1 2141.3,1329.4 2072.3,1328.1 2003.4,1324.2 1934.7,1317.8 1866.4,1308.7 1798.5,1297.2 1731.2,1283.1 1664.7,1266.6 1599.1,1247.7 1534.5,1226.3 1471.1,1202.7 1408.9,1176.8 1348.2,1148.8 1289.0,1118.6 1231.5,1086.5 1175.8,1052.5 1122.1,1016.7 1070.4,979.3 1020.9,940.2 973.8,899.8 929.1,858.1 887.0,815.2  Z" style="stroke-width: 0.0;  fill: rgb(88,40,138);" />
<path d="M 888.462,813.832 A 1625.580,1625.580 0.00 0,1 895.8,807.0 L 895.8,807.0 933.5,846.5 972.3,884.8 1012.2,921.7 1052.9,956.9 1094.2,990.2 1135.9,1021.3 1178.0,1050.1 1220.1,1076.3 1262.2,1099.7 1304.1,1120.3 1345.7,1137.9 1386.8,1152.4 1427.3,1163.6 1467.1,1171.4 1506.1,1175.9 1544.1,1176.9 1581.0,1174.4 1616.8,1168.4 1651.3,1158.9 1684.6,1145.9 1716.4,1129.4 1746.7,1109.5 1775.5,1086.2 1802.7,1059.7 1828.2,1030.0 1852.1,997.2 1874.2,961.4 1894.6,922.9 1913.2,881.7 1929.9,838.2 1944.9,792.3 1958.0,744.5 1969.3,694.8 1978.8,643.6 1986.6,591.2 1992.5,537.7 1996.7,483.5 1999.2,429.0 2000.0,374.4  A 1625.580,1625.580 0.00 0,1 2010.0,374.5 L 2010.0,374.5 2008.8,429.1 2006.0,483.7 2001.4,537.9 1995.0,591.4 1986.9,643.9 1977.0,695.2 1965.2,744.9 1951.6,792.8 1936.1,838.7 1918.9,882.4 1899.8,923.7 1878.9,962.3 1856.3,998.2 1831.9,1031.1 1805.8,1061.0 1778.1,1087.7 1748.8,1111.1 1718.0,1131.2 1685.6,1147.9 1651.9,1161.1 1616.9,1170.8 1580.6,1177.1 1543.1,1179.8 1504.7,1179.0 1465.2,1174.8 1425.0,1167.2 1384.0,1156.2 1342.4,1142.0 1300.4,1124.7 1258.1,1104.4 1215.5,1081.2 1173.0,1055.2 1130.6,1026.7 1088.5,995.9 1046.8,962.9 1005.8,927.9 965.6,891.2 926.4,853.1 888.5,813.8  Z" style="stroke-width: 0.0;  fill: rgb(88,40,138);" />
</g>
<defs>
<pattern id="hline-sparse" width="10" height="10" patternTransform="rotate(0 0 0)" patternUnits="userSpaceOnUse"><line x1="0" y1="0" x2="10" y2="0" style="stroke:black;stroke-width:2" /></pattern>
<pattern id="hline" width="10" height="10" patternTransform="rotate(0 0 0)" patternUnits="userSpaceOnUse"><line x1="0" y1="0" x2="10" y2="0" style="stroke:black;stroke-width:5" /></pattern>
<pattern id="vline-sparse" width="10" height="10" patternTransform="rotate(0 0 0)" patternUnits="userSpaceOnUse"><line x1="0" y1="0" x2="0" y2="10" style="stroke:black;stroke-width:2" /></pattern>
<pattern id="vline" width="10" height="10" patternTransform="rotate(0 0 0)" patternUnits="userSpaceOnUse"><line x1="0" y1="0" x2="0" y2="10" style="stroke:black;stroke-width:5" /></pattern>
<pattern id="checker" width="10" height="10" patternTransform="rotate(45 0 0)" patternUnits="userSpaceOnUse"><line x1="0" y1="0" x2="10" y2="0" style="stroke:black;stroke-width:5" /><line x1="0" y1="0" x2="0" y2="10" style="stroke:black;stroke-width:4" /></pattern>
<pattern id="checker" width="10" height="10" patternTransform="rotate(45 0 0)" patternUnits="userSpaceOnUse"><line x1="0" y1="0" x2="10" y2="0" style="stroke:black;stroke-width:2" /><line x1="0" y1="0" x2="0" y2="10" style="stroke:black;stroke-width:2" /></pattern>
</defs>
</svg>
