<?xml version="1.0" encoding="utf-8" standalone="no"?>
<!DOCTYPE svg PUBLIC "-//W3C//DTD SVG 1.1//EN" "http://www.w3.org/Graphics/SVG/1.1/DTD/svg11.dtd">
<svg width="4000px" height="4000px" version="1.1" xmlns="http://www.w3.org/2000/svg" xmlns:xlink="http://www.w3.org/1999/xlink">
<g id="bg">
<rect x="0" y="0" width="4000px" height="4000px" style="fill:rgb(255,255,255);"/>
</g>
<g id="ideograms">
<path d="M2000.000,358.000 A1642.000,1642.000 40.000 0,1 2751.610,540.121 L2769.004,506.336 A1680.000,1680.000 0.000 0,0 2000.000,320.000 Z" style="stroke-width:2.0;stroke:rgb(255,255,255);stroke-linecap:round;fill:rgb(185,185,185);" />
<text x="2427.0" y="305.8" font-size="36.4px" font-family="CMUBright-Roman" style="text-anchor:start;fill:rgb(0,0,0);" transform="rotate(283.6,2427.0,305.8)" >Management-Operations</text>
<path d="M2000.000,358.000 A1642.000,1642.000 40.000 0,1 2751.610,540.121 L2769.004,506.336 A1680.000,1680.000 0.000 0,0 2000.000,320.000 Z" style="stroke-width:2.0;stroke:rgb(255,255,255);stroke-linecap:round;fill:none;" />
<path d="M2783.279,556.865 A1642.000,1642.000 40.000 0,1 3226.411,908.176 L3254.793,882.908 A1680.000,1680.000 0.000 0,0 2801.406,523.467 Z" style="stroke-width:2.0;stroke:rgb(255,255,255);stroke-linecap:round;fill:rgb(185,185,185);" />
<text x="3097.5" y="640.5" font-size="36.4px" font-family="CMUBright-Roman" style="text-anchor:start;fill:rgb(0,0,0);" transform="rotate(308.4,3097.5,640.5)" >Engineering</text>
<path d="M2783.279,556.865 A1642.000,1642.000 40.000 0,1 3226.411,908.176 L3254.793,882.908 A1680.000,1680.000 0.000 0,0 2801.406,523.467 Z" style="stroke-width:2.0;stroke:rgb(255,255,255);stroke-linecap:round;fill:none;" />
<path d="M3249.937,935.189 A1642.000,1642.000 40.000 0,1 3507.538,1349.236 L3542.426,1334.176 A1680.000,1680.000 0.000 0,0 3278.864,910.547 Z" style="stroke-width:2.0;stroke:rgb(255,255,255);stroke-linecap:round;fill:rgb(185,185,185);" />
<text x="3491.6" y="1090.2" font-size="36.4px" font-family="CMUBright-Roman" style="text-anchor:start;fill:rgb(0,0,0);" transform="rotate(328.1,3491.6,1090.2)" >Leadership-General</text>
<path d="M3249.937,935.189 A1642.000,1642.000 40.000 0,1 3507.538,1349.236 L3542.426,1334.176 A1680.000,1680.000 0.000 0,0 3278.864,910.547 Z" style="stroke-width:2.0;stroke:rgb(255,255,255);stroke-linecap:round;fill:none;" />
<path d="M3521.375,1382.278 A1642.000,1642.000 40.000 0,1 3633.192,1830.154 L3670.988,1826.223 A1680.000,1680.000 0.000 0,0 3556.584,1367.982 Z" style="stroke-width:2.0;stroke:rgb(255,255,255);stroke-linecap:round;fill:rgb(185,185,185);" />
<text x="3699.0" y="1592.3" font-size="36.4px" font-family="CMUBright-Roman" style="text-anchor:start;fill:rgb(0,0,0);" transform="rotate(346.0,3699.0,1592.3)" >Sales-Marketing</text>
<path d="M3521.375,1382.278 A1642.000,1642.000 40.000 0,1 3633.192,1830.154 L3670.988,1826.223 A1680.000,1680.000 0.000 0,0 3556.584,1367.982 Z" style="stroke-width:2.0;stroke:rgb(255,255,255);stroke-linecap:round;fill:none;" />
<path d="M3636.509,1865.822 A1642.000,1642.000 40.000 0,1 3610.774,2318.704 L3648.051,2326.079 A1680.000,1680.000 0.000 0,0 3674.381,1862.717 Z" style="stroke-width:2.0;stroke:rgb(255,255,255);stroke-linecap:round;fill:rgb(185,185,185);" />
<text x="3743.6" y="2111.6" font-size="36.4px" font-family="CMUBright-Roman" style="text-anchor:start;fill:rgb(0,0,0);" transform="rotate(3.3,3743.6,2111.6)" >Finance-Investment</text>
<path d="M3636.509,1865.822 A1642.000,1642.000 40.000 0,1 3610.774,2318.704 L3648.051,2326.079 A1680.000,1680.000 0.000 0,0 3674.381,1862.717 Z" style="stroke-width:2.0;stroke:rgb(255,255,255);stroke-linecap:round;fill:none;" />
<path d="M3603.438,2353.767 A1642.000,1642.000 40.000 0,1 3499.856,2668.278 L3534.566,2683.744 A1680.000,1680.000 0.000 0,0 3640.546,2361.954 Z" style="stroke-width:2.0;stroke:rgb(255,255,255);stroke-linecap:round;fill:rgb(185,185,185);" />
<text x="3655.6" y="2558.4" font-size="36.4px" font-family="CMUBright-Roman" style="text-anchor:start;fill:rgb(0,0,0);" transform="rotate(18.2,3655.6,2558.4)" >Software-Data</text>
<path d="M3603.438,2353.767 A1642.000,1642.000 40.000 0,1 3499.856,2668.278 L3534.566,2683.744 A1680.000,1680.000 0.000 0,0 3640.546,2361.954 Z" style="stroke-width:2.0;stroke:rgb(255,255,255);stroke-linecap:round;fill:none;" />
<path d="M3484.921,2700.839 A1642.000,1642.000 40.000 0,1 3330.895,2961.708 L3361.695,2983.964 A1680.000,1680.000 0.000 0,0 3519.285,2717.058 Z" style="stroke-width:2.0;stroke:rgb(255,255,255);stroke-linecap:round;fill:rgb(185,185,185);" />
<text x="3498.1" y="2899.1" font-size="36.4px" font-family="CMUBright-Roman" style="text-anchor:start;fill:rgb(0,0,0);" transform="rotate(30.6,3498.1,2899.1)" >Education</text>
<path d="M3484.921,2700.839 A1642.000,1642.000 40.000 0,1 3330.895,2961.708 L3361.695,2983.964 A1680.000,1680.000 0.000 0,0 3519.285,2717.058 Z" style="stroke-width:2.0;stroke:rgb(255,255,255);stroke-linecap:round;fill:none;" />
<path d="M3309.599,2990.512 A1642.000,1642.000 40.000 0,1 3129.055,3192.225 L3155.184,3219.816 A1680.000,1680.000 0.000 0,0 3339.906,3013.435 Z" style="stroke-width:2.0;stroke:rgb(255,255,255);stroke-linecap:round;fill:rgb(185,185,185);" />
<text x="3293.5" y="3174.5" font-size="36.4px" font-family="CMUBright-Roman" style="text-anchor:start;fill:rgb(0,0,0);" transform="rotate(41.8,3293.5,3174.5)" >Research-Science</text>
<path d="M3309.599,2990.512 A1642.000,1642.000 40.000 0,1 3129.055,3192.225 L3155.184,3219.816 A1680.000,1680.000 0.000 0,0 3339.906,3013.435 Z" style="stroke-width:2.0;stroke:rgb(255,255,255);stroke-linecap:round;fill:none;" />
<path d="M3102.778,3216.571 A1642.000,1642.000 40.000 0,1 2891.302,3379.038 L2911.929,3410.952 A1680.000,1680.000 0.000 0,0 3128.299,3244.726 Z" style="stroke-width:2.0;stroke:rgb(255,255,255);stroke-linecap:round;fill:rgb(185,185,185);" />
<text x="3054.5" y="3393.1" font-size="36.4px" font-family="CMUBright-Roman" style="text-anchor:start;fill:rgb(0,0,0);" transform="rotate(52.5,3054.5,3393.1)" >Clinical-Care</text>
<path d="M3102.778,3216.571 A1642.000,1642.000 40.000 0,1 2891.302,3379.038 L2911.929,3410.952 A1680.000,1680.000 0.000 0,0 3128.299,3244.726 Z" style="stroke-width:2.0;stroke:rgb(255,255,255);stroke-linecap:round;fill:none;" />
<path d="M2861.006,3398.153 A1642.000,1642.000 40.000 0,1 2640.127,3512.085 L2654.941,3547.079 A1680.000,1680.000 0.000 0,0 2880.932,3430.510 Z" style="stroke-width:2.0;stroke:rgb(255,255,255);stroke-linecap:round;fill:rgb(185,185,185);" />
<text x="2786.7" y="3560.1" font-size="36.4px" font-family="CMUBright-Roman" style="text-anchor:start;fill:rgb(0,0,0);" transform="rotate(62.7,2786.7,3560.1)" >Accounting-Audit</text>
<path d="M2861.006,3398.153 A1642.000,1642.000 40.000 0,1 2640.127,3512.085 L2654.941,3547.079 A1680.000,1680.000 0.000 0,0 2880.932,3430.510 Z" style="stroke-width:2.0;stroke:rgb(255,255,255);stroke-linecap:round;fill:none;" />
<path d="M2606.988,3525.690 A1642.000,1642.000 40.000 0,1 2452.002,3578.562 L2462.463,3615.094 A1680.000,1680.000 0.000 0,0 2621.036,3560.998 Z" style="stroke-width:2.0;stroke:rgb(255,255,255);stroke-linecap:round;fill:rgb(185,185,185);" />
<text x="2552.3" y="3657.6" font-size="36.4px" font-family="CMUBright-Roman" style="text-anchor:start;fill:rgb(0,0,0);" transform="rotate(71.2,2552.3,3657.6)" >Social-Service</text>
<path d="M2606.988,3525.690 A1642.000,1642.000 40.000 0,1 2452.002,3578.562 L2462.463,3615.094 A1680.000,1680.000 0.000 0,0 2621.036,3560.998 Z" style="stroke-width:2.0;stroke:rgb(255,255,255);stroke-linecap:round;fill:none;" />
<path d="M2417.459,3588.047 A1642.000,1642.000 40.000 0,1 2320.910,3610.336 L2328.336,3647.603 A1680.000,1680.000 0.000 0,0 2427.120,3624.798 Z" style="stroke-width:2.0;stroke:rgb(255,255,255);stroke-linecap:round;fill:rgb(185,185,185);" />
<text x="2380.8" y="3705.2" font-size="36.4px" font-family="CMUBright-Roman" style="text-anchor:start;fill:rgb(0,0,0);" transform="rotate(77.0,2380.8,3705.2)" >IT-Infrastructure</text>
<path d="M2417.459,3588.047 A1642.000,1642.000 40.000 0,1 2320.910,3610.336 L2328.336,3647.603 A1680.000,1680.000 0.000 0,0 2427.120,3624.798 Z" style="stroke-width:2.0;stroke:rgb(255,255,255);stroke-linecap:round;fill:none;" />
<path d="M2285.704,3616.953 A1642.000,1642.000 40.000 0,1 2189.660,3631.010 L2194.050,3668.755 A1680.000,1680.000 0.000 0,0 2292.316,3654.373 Z" style="stroke-width:2.0;stroke:rgb(255,255,255);stroke-linecap:round;fill:rgb(185,185,185);" />
<text x="2237.2" y="3731.0" font-size="36.4px" font-family="CMUBright-Roman" style="text-anchor:start;fill:rgb(0,0,0);" transform="rotate(81.7,2237.2,3731.0)" >Legal-Policy</text>
<path d="M2285.704,3616.953 A1642.000,1642.000 40.000 0,1 2189.660,3631.010 L2194.050,3668.755 A1680.000,1680.000 0.000 0,0 2292.316,3654.373 Z" style="stroke-width:2.0;stroke:rgb(255,255,255);stroke-linecap:round;fill:none;" />
<path d="M2154.035,3634.759 A1642.000,1642.000 40.000 0,1 1474.020,3555.477 L1461.848,3591.475 A1680.000,1680.000 0.000 0,0 2157.600,3672.592 Z" style="stroke-width:2.0;stroke:rgb(255,255,255);stroke-linecap:round;fill:rgb(15,52,135);" />
<text x="1813.6" y="3737.2" font-size="36.4px" font-family="CMUBright-Roman" style="text-anchor:end;fill:rgb(0,0,0);" transform="rotate(-83.3,1813.6,3737.2)" >Finance-Accounting</text>
<path d="M2154.035,3634.759 A1642.000,1642.000 40.000 0,1 1474.020,3555.477 L1461.848,3591.475 A1680.000,1680.000 0.000 0,0 2157.600,3672.592 Z" style="stroke-width:2.0;stroke:rgb(255,255,255);stroke-linecap:round;fill:none;" />
<path d="M1440.213,3543.633 A1642.000,1642.000 40.000 0,1 888.845,3208.925 L863.130,3236.902 A1680.000,1680.000 0.000 0,0 1427.258,3579.356 Z" style="stroke-width:2.0;stroke:rgb(255,255,255);stroke-linecap:round;fill:rgb(42,98,180);" />
<text x="1104.1" y="3500.0" font-size="36.4px" font-family="CMUBright-Roman" style="text-anchor:end;fill:rgb(0,0,0);" transform="rotate(-58.7,1104.1,3500.0)" >General-Business</text>
<path d="M1440.213,3543.633 A1642.000,1642.000 40.000 0,1 888.845,3208.925 L863.130,3236.902 A1680.000,1680.000 0.000 0,0 1427.258,3579.356 Z" style="stroke-width:2.0;stroke:rgb(255,255,255);stroke-linecap:round;fill:none;" />
<path d="M862.737,3184.397 A1642.000,1642.000 40.000 0,1 624.574,2896.866 L592.744,2917.622 A1680.000,1680.000 0.000 0,0 836.418,3211.807 Z" style="stroke-width:2.0;stroke:rgb(255,255,255);stroke-linecap:round;fill:rgb(28,75,160);" />
<text x="664.7" y="3126.8" font-size="36.4px" font-family="CMUBright-Roman" style="text-anchor:end;fill:rgb(0,0,0);" transform="rotate(-39.6,664.7,3126.8)" >Marketing-Communication</text>
<path d="M862.737,3184.397 A1642.000,1642.000 40.000 0,1 624.574,2896.866 L592.744,2917.622 A1680.000,1680.000 0.000 0,0 836.418,3211.807 Z" style="stroke-width:2.0;stroke:rgb(255,255,255);stroke-linecap:round;fill:none;" />
<path d="M605.337,2866.648 A1642.000,1642.000 40.000 0,1 476.558,2612.607 L441.301,2626.784 A1680.000,1680.000 0.000 0,0 573.061,2886.704 Z" style="stroke-width:2.0;stroke:rgb(255,255,255);stroke-linecap:round;fill:rgb(60,120,198);" />
<text x="448.7" y="2803.8" font-size="36.4px" font-family="CMUBright-Roman" style="text-anchor:end;fill:rgb(0,0,0);" transform="rotate(-26.9,448.7,2803.8)" >Operations-Analytics</text>
<path d="M605.337,2866.648 A1642.000,1642.000 40.000 0,1 476.558,2612.607 L441.301,2626.784 A1680.000,1680.000 0.000 0,0 573.061,2886.704 Z" style="stroke-width:2.0;stroke:rgb(255,255,255);stroke-linecap:round;fill:none;" />
<path d="M463.556,2579.227 A1642.000,1642.000 40.000 0,1 407.419,2399.813 L370.563,2409.066 A1680.000,1680.000 0.000 0,0 427.999,2592.632 Z" style="stroke-width:2.0;stroke:rgb(255,255,255);stroke-linecap:round;fill:rgb(82,145,215);" />
<text x="337.2" y="2536.5" font-size="36.4px" font-family="CMUBright-Roman" style="text-anchor:end;fill:rgb(0,0,0);" transform="rotate(-17.4,337.2,2536.5)" >Specialized-Business</text>
<path d="M463.556,2579.227 A1642.000,1642.000 40.000 0,1 407.419,2399.813 L370.563,2409.066 A1680.000,1680.000 0.000 0,0 427.999,2592.632 Z" style="stroke-width:2.0;stroke:rgb(255,255,255);stroke-linecap:round;fill:none;" />
<path d="M399.076,2364.976 A1642.000,1642.000 40.000 0,1 366.776,2169.540 L328.979,2173.464 A1680.000,1680.000 0.000 0,0 362.027,2373.422 Z" style="stroke-width:2.0;stroke:rgb(255,255,255);stroke-linecap:round;fill:rgb(200,108,30);" />
<text x="278.3" y="2297.2" font-size="36.4px" font-family="CMUBright-Roman" style="text-anchor:end;fill:rgb(0,0,0);" transform="rotate(-9.4,278.3,2297.2)" >Social-Sciences</text>
<path d="M399.076,2364.976 A1642.000,1642.000 40.000 0,1 366.776,2169.540 L328.979,2173.464 A1680.000,1680.000 0.000 0,0 362.027,2373.422 Z" style="stroke-width:2.0;stroke:rgb(255,255,255);stroke-linecap:round;fill:none;" />
<path d="M363.466,2133.872 A1642.000,1642.000 40.000 0,1 358.290,2030.870 L320.297,2031.584 A1680.000,1680.000 0.000 0,0 325.593,2136.970 Z" style="stroke-width:2.0;stroke:rgb(255,255,255);stroke-linecap:round;fill:rgb(108,170,228);" />
<text x="255.6" y="2099.7" font-size="36.4px" font-family="CMUBright-Roman" style="text-anchor:end;fill:rgb(0,0,0);" transform="rotate(-2.9,255.6,2099.7)" >Economics</text>
<path d="M363.466,2133.872 A1642.000,1642.000 40.000 0,1 358.290,2030.870 L320.297,2031.584 A1680.000,1680.000 0.000 0,0 325.593,2136.970 Z" style="stroke-width:2.0;stroke:rgb(255,255,255);stroke-linecap:round;fill:none;" />
<path d="M358.007,1995.049 A1642.000,1642.000 40.000 0,1 358.807,1948.539 L320.825,1947.348 A1680.000,1680.000 0.000 0,0 320.008,1994.934 Z" style="stroke-width:2.0;stroke:rgb(255,255,255);stroke-linecap:round;fill:rgb(220,140,52);" />
<text x="252.9" y="1982.5" font-size="36.4px" font-family="CMUBright-Roman" style="text-anchor:end;fill:rgb(0,0,0);" transform="rotate(1.0,252.9,1982.5)" >Humanities-Liberal-Arts</text>
<path d="M358.007,1995.049 A1642.000,1642.000 40.000 0,1 358.807,1948.539 L320.825,1947.348 A1680.000,1680.000 0.000 0,0 320.008,1994.934 Z" style="stroke-width:2.0;stroke:rgb(255,255,255);stroke-linecap:round;fill:none;" />
<path d="M360.320,1912.749 A1642.000,1642.000 40.000 0,1 361.133,1898.615 L323.205,1896.269 A1680.000,1680.000 0.000 0,0 322.373,1910.730 Z" style="stroke-width:2.0;stroke:rgb(255,255,255);stroke-linecap:round;fill:rgb(235,168,78);" />
<text x="255.0" y="1912.1" font-size="36.4px" font-family="CMUBright-Roman" style="text-anchor:end;fill:rgb(0,0,0);" transform="rotate(3.3,255.0,1912.1)" >International-Studies</text>
<path d="M360.320,1912.749 A1642.000,1642.000 40.000 0,1 361.133,1898.615 L323.205,1896.269 A1680.000,1680.000 0.000 0,0 322.373,1910.730 Z" style="stroke-width:2.0;stroke:rgb(255,255,255);stroke-linecap:round;fill:none;" />
<path d="M363.735,1862.887 A1642.000,1642.000 40.000 0,1 391.336,1670.812 L354.108,1663.193 A1680.000,1680.000 0.000 0,0 325.867,1859.714 Z" style="stroke-width:2.0;stroke:rgb(255,255,255);stroke-linecap:round;fill:rgb(195,58,55);" />
<text x="268.8" y="1763.9" font-size="36.4px" font-family="CMUBright-Roman" style="text-anchor:end;fill:rgb(0,0,0);" transform="rotate(8.2,268.8,1763.9)" >Social-Work</text>
<path d="M363.735,1862.887 A1642.000,1642.000 40.000 0,1 391.336,1670.812 L354.108,1663.193 A1680.000,1680.000 0.000 0,0 325.867,1859.714 Z" style="stroke-width:2.0;stroke:rgb(255,255,255);stroke-linecap:round;fill:none;" />
<path d="M398.900,1635.797 A1642.000,1642.000 40.000 0,1 428.981,1522.439 L392.624,1511.387 A1680.000,1680.000 0.000 0,0 361.847,1627.368 Z" style="stroke-width:2.0;stroke:rgb(255,255,255);stroke-linecap:round;fill:rgb(175,35,42);" />
<text x="308.1" y="1564.0" font-size="36.4px" font-family="CMUBright-Roman" style="text-anchor:end;fill:rgb(0,0,0);" transform="rotate(14.9,308.1,1564.0)" >Teacher-Education</text>
<path d="M398.900,1635.797 A1642.000,1642.000 40.000 0,1 428.981,1522.439 L392.624,1511.387 A1680.000,1680.000 0.000 0,0 361.847,1627.368 Z" style="stroke-width:2.0;stroke:rgb(255,255,255);stroke-linecap:round;fill:none;" />
<path d="M439.773,1488.281 A1642.000,1642.000 40.000 0,1 474.975,1391.343 L439.682,1377.257 A1680.000,1680.000 0.000 0,0 403.666,1476.439 Z" style="stroke-width:2.0;stroke:rgb(255,255,255);stroke-linecap:round;fill:rgb(215,82,72);" />
<text x="352.5" y="1418.2" font-size="36.4px" font-family="CMUBright-Roman" style="text-anchor:end;fill:rgb(0,0,0);" transform="rotate(20.0,352.5,1418.2)" >Special-Education</text>
<path d="M439.773,1488.281 A1642.000,1642.000 40.000 0,1 474.975,1391.343 L439.682,1377.257 A1680.000,1680.000 0.000 0,0 403.666,1476.439 Z" style="stroke-width:2.0;stroke:rgb(255,255,255);stroke-linecap:round;fill:none;" />
<path d="M488.616,1358.220 A1642.000,1642.000 40.000 0,1 509.092,1311.991 L474.588,1296.068 A1680.000,1680.000 0.000 0,0 453.639,1343.368 Z" style="stroke-width:2.0;stroke:rgb(255,255,255);stroke-linecap:round;fill:rgb(230,112,95);" />
<text x="396.3" y="1306.6" font-size="36.4px" font-family="CMUBright-Roman" style="text-anchor:end;fill:rgb(0,0,0);" transform="rotate(23.9,396.3,1306.6)" >Educational-Leadership</text>
<path d="M488.616,1358.220 A1642.000,1642.000 40.000 0,1 509.092,1311.991 L474.588,1296.068 A1680.000,1680.000 0.000 0,0 453.639,1343.368 Z" style="stroke-width:2.0;stroke:rgb(255,255,255);stroke-linecap:round;fill:none;" />
<path d="M524.455,1279.630 A1642.000,1642.000 40.000 0,1 553.988,1222.045 L520.524,1204.041 A1680.000,1680.000 0.000 0,0 490.308,1262.959 Z" style="stroke-width:2.0;stroke:rgb(255,255,255);stroke-linecap:round;fill:rgb(0,130,142);" />
<text x="439.7" y="1213.8" font-size="36.4px" font-family="CMUBright-Roman" style="text-anchor:end;fill:rgb(0,0,0);" transform="rotate(27.2,439.7,1213.8)" >Communication-Studies</text>
<path d="M524.455,1279.630 A1642.000,1642.000 40.000 0,1 553.988,1222.045 L520.524,1204.041 A1680.000,1680.000 0.000 0,0 490.308,1262.959 Z" style="stroke-width:2.0;stroke:rgb(255,255,255);stroke-linecap:round;fill:none;" />
<path d="M571.303,1190.686 A1642.000,1642.000 40.000 0,1 588.562,1160.949 L555.898,1141.531 A1680.000,1680.000 0.000 0,0 538.240,1171.956 Z" style="stroke-width:2.0;stroke:rgb(255,255,255);stroke-linecap:round;fill:rgb(0,165,172);" />
<text x="482.6" y="1133.8" font-size="36.4px" font-family="CMUBright-Roman" style="text-anchor:end;fill:rgb(0,0,0);" transform="rotate(30.1,482.6,1133.8)" >Journalism-Media</text>
<path d="M571.303,1190.686 A1642.000,1642.000 40.000 0,1 588.562,1160.949 L555.898,1141.531 A1680.000,1680.000 0.000 0,0 538.240,1171.956 Z" style="stroke-width:2.0;stroke:rgb(255,255,255);stroke-linecap:round;fill:none;" />
<path d="M607.202,1130.358 A1642.000,1642.000 40.000 0,1 613.667,1120.089 L581.583,1099.725 A1680.000,1680.000 0.000 0,0 574.969,1110.233 Z" style="stroke-width:2.0;stroke:rgb(255,255,255);stroke-linecap:round;fill:rgb(38,195,195);" />
<text x="512.9" y="1082.8" font-size="36.4px" font-family="CMUBright-Roman" style="text-anchor:end;fill:rgb(0,0,0);" transform="rotate(32.2,512.9,1082.8)" >Creative-Writing</text>
<path d="M607.202,1130.358 A1642.000,1642.000 40.000 0,1 613.667,1120.089 L581.583,1099.725 A1680.000,1680.000 0.000 0,0 574.969,1110.233 Z" style="stroke-width:2.0;stroke:rgb(255,255,255);stroke-linecap:round;fill:none;" />
<path d="M633.192,1090.055 A1642.000,1642.000 40.000 0,1 667.742,1040.182 L636.910,1017.969 A1680.000,1680.000 0.000 0,0 601.560,1068.997 Z" style="stroke-width:2.0;stroke:rgb(255,255,255);stroke-linecap:round;fill:rgb(180,45,112);" />
<text x="554.7" y="1018.2" font-size="36.4px" font-family="CMUBright-Roman" style="text-anchor:end;fill:rgb(0,0,0);" transform="rotate(34.7,554.7,1018.2)" >Arts-Theology</text>
<path d="M633.192,1090.055 A1642.000,1642.000 40.000 0,1 667.742,1040.182 L636.910,1017.969 A1680.000,1680.000 0.000 0,0 601.560,1068.997 Z" style="stroke-width:2.0;stroke:rgb(255,255,255);stroke-linecap:round;fill:none;" />
<path d="M688.997,1011.347 A1642.000,1642.000 40.000 0,1 698.803,998.477 L668.690,975.299 A1680.000,1680.000 0.000 0,0 658.657,988.467 Z" style="stroke-width:2.0;stroke:rgb(255,255,255);stroke-linecap:round;fill:rgb(205,75,142);" />
<text x="600.6" y="953.9" font-size="36.4px" font-family="CMUBright-Roman" style="text-anchor:end;fill:rgb(0,0,0);" transform="rotate(37.3,600.6,953.9)" >English-Writing</text>
<path d="M688.997,1011.347 A1642.000,1642.000 40.000 0,1 698.803,998.477 L668.690,975.299 A1680.000,1680.000 0.000 0,0 658.657,988.467 Z" style="stroke-width:2.0;stroke:rgb(255,255,255);stroke-linecap:round;fill:none;" />
<path d="M720.960,970.329 A1642.000,1642.000 40.000 0,1 724.774,965.610 L695.262,941.672 A1680.000,1680.000 0.000 0,0 691.360,946.500 Z" style="stroke-width:2.0;stroke:rgb(255,255,255);stroke-linecap:round;fill:rgb(225,110,168);" />
<text x="631.0" y="914.3" font-size="36.4px" font-family="CMUBright-Roman" style="text-anchor:end;fill:rgb(0,0,0);" transform="rotate(38.9,631.0,914.3)" >Languages</text>
<path d="M720.960,970.329 A1642.000,1642.000 40.000 0,1 724.774,965.610 L695.262,941.672 A1680.000,1680.000 0.000 0,0 691.360,946.500 Z" style="stroke-width:2.0;stroke:rgb(255,255,255);stroke-linecap:round;fill:none;" />
<path d="M747.643,938.037 A1642.000,1642.000 40.000 0,1 884.635,794.959 L858.822,767.071 A1680.000,1680.000 0.000 0,0 718.660,913.461 Z" style="stroke-width:2.0;stroke:rgb(255,255,255);stroke-linecap:round;fill:rgb(88,40,138);" />
<text x="727.0" y="803.3" font-size="36.4px" font-family="CMUBright-Roman" style="text-anchor:end;fill:rgb(0,0,0);" transform="rotate(43.8,727.0,803.3)" >Biological-Sciences</text>
<path d="M747.643,938.037 A1642.000,1642.000 40.000 0,1 884.635,794.959 L858.822,767.071 A1680.000,1680.000 0.000 0,0 718.660,913.461 Z" style="stroke-width:2.0;stroke:rgb(255,255,255);stroke-linecap:round;fill:none;" />
<path d="M911.188,770.914 A1642.000,1642.000 40.000 0,1 969.888,721.316 L946.049,691.724 A1680.000,1680.000 0.000 0,0 885.990,742.470 Z" style="stroke-width:2.0;stroke:rgb(255,255,255);stroke-linecap:round;fill:rgb(115,65,165);" />
<text x="862.8" y="673.5" font-size="36.4px" font-family="CMUBright-Roman" style="text-anchor:end;fill:rgb(0,0,0);" transform="rotate(49.8,862.8,673.5)" >Health-Wellness</text>
<path d="M911.188,770.914 A1642.000,1642.000 40.000 0,1 969.888,721.316 L946.049,691.724 A1680.000,1680.000 0.000 0,0 885.990,742.470 Z" style="stroke-width:2.0;stroke:rgb(255,255,255);stroke-linecap:round;fill:none;" />
<path d="M998.028,699.148 A1642.000,1642.000 40.000 0,1 1023.858,679.655 L1001.267,649.099 A1680.000,1680.000 0.000 0,0 974.840,669.043 Z" style="stroke-width:2.0;stroke:rgb(255,255,255);stroke-linecap:round;fill:rgb(140,92,188);" />
<text x="935.2" y="614.8" font-size="36.4px" font-family="CMUBright-Roman" style="text-anchor:end;fill:rgb(0,0,0);" transform="rotate(53.0,935.2,614.8)" >Physical-Sciences</text>
<path d="M998.028,699.148 A1642.000,1642.000 40.000 0,1 1023.858,679.655 L1001.267,649.099 A1680.000,1680.000 0.000 0,0 974.840,669.043 Z" style="stroke-width:2.0;stroke:rgb(255,255,255);stroke-linecap:round;fill:none;" />
<path d="M1052.893,658.675 A1642.000,1642.000 40.000 0,1 1064.493,650.559 L1042.843,619.329 A1680.000,1680.000 0.000 0,0 1030.975,627.633 Z" style="stroke-width:2.0;stroke:rgb(255,255,255);stroke-linecap:round;fill:rgb(165,120,208);" />
<text x="988.2" y="575.6" font-size="36.4px" font-family="CMUBright-Roman" style="text-anchor:end;fill:rgb(0,0,0);" transform="rotate(55.0,988.2,575.6)" >Environmental-Sciences</text>
<path d="M1052.893,658.675 A1642.000,1642.000 40.000 0,1 1064.493,650.559 L1042.843,619.329 A1680.000,1680.000 0.000 0,0 1030.975,627.633 Z" style="stroke-width:2.0;stroke:rgb(255,255,255);stroke-linecap:round;fill:none;" />
<path d="M1094.154,630.472 A1642.000,1642.000 40.000 0,1 1594.822,408.776 L1585.445,371.951 A1680.000,1680.000 0.000 0,0 1073.190,598.778 Z" style="stroke-width:2.0;stroke:rgb(255,255,255);stroke-linecap:round;fill:rgb(22,118,50);" />
<text x="1278.0" y="409.0" font-size="36.4px" font-family="CMUBright-Roman" style="text-anchor:end;fill:rgb(0,0,0);" transform="rotate(66.1,1278.0,409.0)" >Engineering-Disciplines</text>
<path d="M1094.154,630.472 A1642.000,1642.000 40.000 0,1 1594.822,408.776 L1585.445,371.951 A1680.000,1680.000 0.000 0,0 1073.190,598.778 Z" style="stroke-width:2.0;stroke:rgb(255,255,255);stroke-linecap:round;fill:none;" />
<path d="M1629.631,400.315 A1642.000,1642.000 40.000 0,1 1964.180,358.391 L1963.351,320.400 A1680.000,1680.000 0.000 0,0 1621.060,363.295 Z" style="stroke-width:2.0;stroke:rgb(255,255,255);stroke-linecap:round;fill:rgb(48,158,75);" />
<text x="1767.4" y="268.4" font-size="36.4px" font-family="CMUBright-Roman" style="text-anchor:end;fill:rgb(0,0,0);" transform="rotate(82.9,1767.4,268.4)" >Computer-Science-IT</text>
<path d="M1629.631,400.315 A1642.000,1642.000 40.000 0,1 1964.180,358.391 L1963.351,320.400 A1680.000,1680.000 0.000 0,0 1621.060,363.295 Z" style="stroke-width:2.0;stroke:rgb(255,255,255);stroke-linecap:round;fill:none;" />
</g>
<g id="track_0">
<path d="M 379.832,2132.533 A 1625.580,1625.580 0.00 0,1 379.7,2130.5 L 379.7,2130.5 440.0,2127.0 501.5,2126.1 564.1,2127.8 627.5,2132.1 691.6,2139.0 756.1,2148.5 821.0,2160.7 886.0,2175.4 951.0,2192.8 1015.9,2212.6 1080.5,2235.1 1144.6,2260.0 1208.1,2287.4 1270.8,2317.2 1332.7,2349.3 1393.6,2383.8 1453.4,2420.5 1511.9,2459.4 1569.0,2500.3 1624.7,2543.3 1678.8,2588.3 1731.2,2635.1 1781.8,2683.7 1830.5,2733.9 1877.2,2785.6 1921.9,2838.8 1964.4,2893.4 2004.7,2949.1 2042.7,3005.9 2078.4,3063.6 2111.6,3122.2 2142.3,3181.4 2170.4,3241.1 2195.9,3301.1 2218.8,3361.4 2239.0,3421.6 2256.4,3481.7 2271.0,3541.5 2282.8,3600.8  A 1625.580,1625.580 0.00 0,1 2280.9,3601.1 L 2280.9,3601.1 2269.1,3541.9 2254.6,3482.1 2237.2,3422.0 2217.1,3361.7 2194.3,3301.5 2168.9,3241.5 2140.8,3181.8 2110.2,3122.6 2077.1,3064.0 2041.6,3006.3 2003.6,2949.5 1963.4,2893.8 1921.0,2839.3 1876.4,2786.1 1829.7,2734.4 1781.0,2684.2 1730.5,2635.7 1678.2,2588.9 1624.1,2544.0 1568.5,2501.0 1511.4,2460.1 1453.0,2421.3 1393.3,2384.6 1332.4,2350.2 1270.6,2318.1 1207.8,2288.4 1144.4,2261.1 1080.3,2236.2 1015.8,2213.9 951.0,2194.1 886.0,2176.8 821.0,2162.1 756.1,2150.1 691.6,2140.6 627.6,2133.8 564.2,2129.5 501.7,2127.9 440.1,2128.9 379.8,2132.5  Z" style="stroke-width: 0.0;  fill: rgb(108,170,228);" />
<path d="M 379.670,2130.537 A 1625.580,1625.580 0.00 0,1 379.5,2128.5 L 379.5,2128.5 440.5,2125.1 502.9,2124.2 566.3,2125.9 630.7,2130.2 695.9,2137.1 761.7,2146.6 828.0,2158.6 894.6,2173.3 961.3,2190.4 1028.0,2210.1 1094.6,2232.2 1160.9,2256.7 1226.8,2283.7 1292.1,2313.0 1356.8,2344.5 1420.6,2378.3 1483.4,2414.3 1545.2,2452.4 1605.8,2492.5 1665.1,2534.6 1723.0,2578.6 1779.3,2624.4 1834.0,2671.8 1887.0,2720.9 1938.1,2771.5 1987.3,2823.5 2034.5,2876.8 2079.5,2931.3 2122.4,2986.9 2162.9,3043.4 2201.1,3100.7 2236.9,3158.7 2270.2,3217.3 2300.8,3276.3 2328.9,3335.6 2354.2,3394.9 2376.7,3454.3 2396.4,3513.4 2413.3,3572.2  A 1625.580,1625.580 0.00 0,1 2411.3,3572.7 L 2411.3,3572.7 2394.6,3513.9 2374.9,3454.8 2352.5,3395.4 2327.2,3336.1 2299.3,3276.8 2268.7,3217.8 2235.5,3159.2 2199.8,3101.2 2161.7,3043.9 2121.2,2987.4 2078.4,2931.8 2033.5,2877.3 1986.4,2824.0 1937.2,2772.1 1886.2,2721.5 1833.3,2672.4 1778.6,2625.0 1722.4,2579.3 1664.5,2535.3 1605.3,2493.3 1544.8,2453.2 1483.0,2415.2 1420.2,2379.2 1356.5,2345.5 1291.9,2314.0 1226.6,2284.7 1160.8,2257.9 1094.5,2233.4 1027.9,2211.3 961.2,2191.7 894.5,2174.7 828.0,2160.1 761.7,2148.1 695.9,2138.7 630.8,2131.9 566.4,2127.6 503.0,2126.0 440.7,2127.0 379.7,2130.5  Z" style="stroke-width: 0.0;  fill: rgb(108,170,228);" />
<path d="M 379.510,2128.541 A 1625.580,1625.580 0.00 0,1 377.5,2100.6 L 377.5,2100.6 439.8,2098.1 503.5,2098.2 568.4,2100.8 634.4,2106.1 701.4,2113.8 769.1,2124.1 837.4,2136.9 906.3,2152.1 975.5,2169.7 1045.0,2189.7 1114.5,2212.0 1184.0,2236.6 1253.3,2263.5 1322.2,2292.5 1390.8,2323.6 1458.7,2356.8 1526.0,2392.1 1592.4,2429.3 1657.9,2468.3 1722.3,2509.2 1785.6,2551.7 1847.5,2596.0 1908.1,2641.8 1967.1,2689.1 2024.5,2737.8 2080.1,2787.8 2134.0,2839.0 2185.9,2891.3 2235.7,2944.7 2283.4,2999.0 2328.8,3054.1 2372.0,3109.9 2412.7,3166.3 2450.8,3223.2 2486.4,3280.4 2519.3,3337.9 2549.4,3395.5 2576.6,3453.0 2600.9,3510.4  A 1625.580,1625.580 0.00 0,1 2574.8,3520.6 L 2574.8,3520.6 2551.6,3463.0 2525.5,3405.3 2496.5,3347.6 2464.7,3290.0 2430.3,3232.6 2393.2,3175.6 2353.6,3119.1 2311.5,3063.2 2267.1,3008.0 2220.5,2953.7 2171.6,2900.3 2120.7,2848.0 2067.8,2796.9 2013.1,2747.0 1956.6,2698.5 1898.4,2651.4 1838.7,2605.9 1777.5,2562.0 1715.0,2519.8 1651.3,2479.4 1586.5,2440.9 1520.7,2404.3 1454.1,2369.7 1386.7,2337.1 1318.8,2306.7 1250.3,2278.5 1181.5,2252.4 1112.5,2228.7 1043.4,2207.3 974.3,2188.2 905.5,2171.6 837.0,2157.4 769.0,2145.7 701.6,2136.5 635.0,2129.8 569.4,2125.6 504.8,2124.0 441.4,2125.0 379.5,2128.5  Z" style="stroke-width: 0.0;  fill: rgb(108,170,228);" />
<path d="M 377.535,2100.579 A 1625.580,1625.580 0.00 0,1 377.3,2096.6 L 377.3,2096.6 441.2,2094.1 506.6,2094.2 573.4,2096.7 641.5,2101.7 710.8,2109.0 781.0,2118.7 852.2,2130.7 924.1,2145.0 996.6,2161.4 1069.6,2180.0 1143.0,2200.7 1216.6,2223.4 1290.4,2248.2 1364.1,2274.8 1437.8,2303.3 1511.1,2333.7 1584.1,2365.8 1656.6,2399.6 1728.5,2435.0 1799.7,2472.0 1869.9,2510.5 1939.2,2550.5 2007.4,2591.8 2074.4,2634.5 2140.0,2678.4 2204.1,2723.5 2266.7,2769.7 2327.6,2817.0 2386.7,2865.2 2443.8,2914.3 2498.9,2964.2 2551.9,3014.9 2602.5,3066.3 2650.8,3118.2 2696.6,3170.7 2739.7,3223.6 2780.2,3276.9 2817.7,3330.4 2852.4,3384.2  A 1625.580,1625.580 0.00 0,1 2849.0,3386.3 L 2849.0,3386.3 2814.5,3332.5 2777.1,3278.9 2736.8,3225.6 2693.8,3172.6 2648.1,3120.1 2600.0,3068.1 2549.5,3016.7 2496.7,2966.0 2441.7,2916.0 2384.7,2866.8 2325.8,2818.6 2265.0,2771.3 2202.6,2725.1 2138.5,2680.0 2073.0,2636.1 2006.2,2593.4 1938.1,2552.1 1868.9,2512.2 1798.7,2473.7 1727.7,2436.7 1655.9,2401.3 1583.5,2367.6 1510.5,2335.6 1437.2,2305.3 1363.7,2276.9 1290.0,2250.4 1216.3,2225.7 1142.7,2203.1 1069.3,2182.6 996.4,2164.1 923.9,2147.8 852.1,2133.7 781.0,2121.8 710.8,2112.2 641.6,2105.0 573.5,2100.2 506.7,2097.8 441.4,2097.9 377.5,2100.6  Z" style="stroke-width: 0.0;  fill: rgb(108,170,228);" />
<path d="M 377.292,2096.582 A 1625.580,1625.580 0.00 0,1 377.1,2092.6 L 377.1,2092.6 444.5,2089.9 513.7,2089.5 584.6,2091.1 656.9,2094.7 730.7,2100.2 805.7,2107.6 882.0,2116.6 959.5,2127.3 1037.9,2139.6 1117.2,2153.3 1197.3,2168.4 1278.2,2184.8 1359.6,2202.6 1441.4,2221.5 1523.7,2241.5 1606.2,2262.7 1688.8,2284.9 1771.4,2308.1 1854.0,2332.2 1936.3,2357.3 2018.3,2383.2 2099.9,2409.9 2180.9,2437.5 2261.1,2465.9 2340.6,2495.0 2419.2,2524.9 2496.7,2555.5 2572.9,2586.8 2647.9,2618.9 2721.5,2651.7 2793.4,2685.2 2863.7,2719.4 2932.1,2754.4 2998.5,2790.1 3062.9,2826.6 3125.0,2863.8 3184.7,2901.9 3241.9,2940.8 3296.5,2980.6  A 1625.580,1625.580 0.00 0,1 3294.1,2983.8 L 3294.1,2983.8 3239.6,2943.9 3182.6,2904.9 3123.0,2866.7 3061.0,2829.3 2996.7,2792.8 2930.4,2756.9 2862.1,2721.9 2791.9,2687.6 2720.1,2654.0 2646.6,2621.1 2571.8,2589.0 2495.6,2557.6 2418.2,2526.9 2339.7,2497.0 2260.3,2467.8 2180.1,2439.4 2099.1,2411.9 2017.6,2385.1 1935.7,2359.2 1853.4,2334.2 1770.9,2310.1 1688.3,2286.9 1605.7,2264.8 1523.3,2243.7 1441.1,2223.7 1359.3,2204.8 1277.9,2187.2 1197.1,2170.8 1117.0,2155.8 1037.7,2142.2 959.3,2130.1 882.0,2119.6 805.7,2110.7 730.7,2103.5 656.9,2098.1 584.6,2094.6 513.9,2093.1 444.7,2093.8 377.3,2096.6  Z" style="stroke-width: 0.0;  fill: rgb(108,170,228);" />
<path d="M 377.059,2092.584 A 1625.580,1625.580 0.00 0,1 376.4,2080.6 L 376.4,2080.6 448.3,2077.9 521.8,2076.9 596.9,2077.2 673.5,2078.9 751.4,2081.7 830.7,2085.4 911.2,2090.0 992.8,2095.3 1075.5,2101.2 1159.2,2107.6 1243.7,2114.4 1329.0,2121.5 1415.1,2128.8 1501.7,2136.3 1588.9,2143.9 1676.5,2151.5 1764.4,2159.1 1852.6,2166.7 1940.9,2174.2 2029.2,2181.6 2117.6,2188.9 2205.8,2196.2 2293.7,2203.3 2381.4,2210.4 2468.6,2217.5 2555.3,2224.6 2641.3,2231.7 2726.6,2238.9 2811.1,2246.3 2894.7,2254.0 2977.2,2261.9 3058.6,2270.3 3138.7,2279.2 3217.5,2288.7 3294.8,2299.0 3370.6,2310.2 3444.7,2322.3 3517.0,2335.6 3587.4,2350.2  A 1625.580,1625.580 0.00 0,1 3584.8,2362.0 L 3584.8,2362.0 3514.6,2346.9 3442.5,2333.1 3368.6,2320.5 3293.1,2308.9 3215.9,2298.2 3137.3,2288.2 3057.3,2279.0 2976.0,2270.2 2893.6,2261.9 2810.2,2253.9 2725.8,2246.2 2640.5,2238.8 2554.5,2231.4 2467.9,2224.1 2380.8,2216.9 2293.2,2209.6 2205.2,2202.4 2117.0,2195.1 2028.7,2187.7 1940.4,2180.3 1852.1,2172.8 1763.9,2165.3 1676.0,2157.8 1588.4,2150.3 1501.3,2142.9 1414.6,2135.7 1328.6,2128.6 1243.3,2121.8 1158.8,2115.3 1075.2,2109.2 992.6,2103.6 911.0,2098.7 830.6,2094.5 751.4,2091.2 673.5,2088.9 597.1,2087.7 522.1,2087.8 448.8,2089.4 377.1,2092.6  Z" style="stroke-width: 0.0;  fill: rgb(108,170,228);" />
<path d="M 376.419,2080.587 A 1625.580,1625.580 0.00 0,1 375.2,2050.6 L 375.2,2050.6 449.2,2047.5 524.7,2043.1 601.4,2037.6 679.4,2031.0 758.6,2023.7 838.9,2015.7 920.2,2007.3 1002.5,1998.5 1085.7,1989.6 1169.7,1980.6 1254.4,1971.7 1339.9,1963.0 1425.9,1954.5 1512.5,1946.4 1599.6,1938.6 1687.0,1931.4 1774.8,1924.7 1862.7,1918.5 1950.8,1912.9 2039.0,1907.9 2127.2,1903.5 2215.3,1899.7 2303.3,1896.6 2390.9,1893.9 2478.3,1891.8 2565.3,1890.1 2651.7,1888.8 2737.6,1887.9 2822.9,1887.2 2907.4,1886.6 2991.0,1886.1 3073.8,1885.5 3155.5,1884.8 3236.2,1883.6 3315.7,1882.0 3393.9,1879.7 3470.8,1876.6 3546.2,1872.5 3620.1,1867.2  A 1625.580,1625.580 0.00 0,1 3622.3,1897.1 L 3622.3,1897.1 3548.0,1901.1 3472.1,1904.0 3394.9,1905.8 3316.4,1906.9 3236.6,1907.4 3155.8,1907.4 3073.9,1907.2 2991.0,1906.8 2907.3,1906.4 2822.8,1906.1 2737.5,1906.1 2651.7,1906.3 2565.3,1907.0 2478.4,1908.1 2391.1,1909.8 2303.6,1912.1 2215.8,1915.0 2127.8,1918.6 2039.8,1922.9 1951.8,1927.9 1863.8,1933.5 1776.0,1939.9 1688.5,1946.9 1601.2,1954.5 1514.3,1962.6 1427.8,1971.3 1341.9,1980.3 1256.6,1989.8 1171.9,1999.4 1087.9,2009.2 1004.8,2019.1 922.5,2028.8 841.1,2038.3 760.8,2047.3 681.5,2055.8 603.4,2063.6 526.4,2070.5 450.8,2076.2 376.4,2080.6  Z" style="stroke-width: 0.0;  fill: rgb(108,170,228);" />
<path d="M 375.207,2050.578 A 1625.580,1625.580 0.00 0,1 375.0,2042.6 L 375.0,2042.6 445.9,2039.7 518.4,2035.0 592.4,2028.6 667.7,2020.7 744.4,2011.3 822.3,2000.7 901.5,1988.9 981.7,1976.2 1062.9,1962.5 1145.1,1948.1 1228.1,1932.9 1311.9,1917.2 1396.3,1901.0 1481.4,1884.3 1567.0,1867.3 1652.9,1849.9 1739.2,1832.4 1825.7,1814.6 1912.3,1796.6 1998.9,1778.5 2085.5,1760.3 2171.9,1742.0 2258.0,1723.5 2343.7,1705.0 2428.9,1686.4 2513.5,1667.6 2597.4,1648.6 2680.5,1629.5 2762.6,1610.1 2843.7,1590.5 2923.6,1570.5 3002.2,1550.1 3079.4,1529.2 3155.1,1507.7 3229.1,1485.6 3301.4,1462.7 3371.7,1439.0 3440.0,1414.3 3506.2,1388.5  A 1625.580,1625.580 0.00 0,1 3509.2,1395.9 L 3509.2,1395.9 3442.8,1421.4 3374.3,1445.8 3303.8,1469.3 3231.4,1491.9 3157.2,1513.8 3081.3,1535.0 3004.0,1555.6 2925.2,1575.8 2845.2,1595.6 2764.0,1615.1 2681.8,1634.3 2598.6,1653.2 2514.7,1672.0 2430.0,1690.7 2344.7,1709.2 2259.0,1727.7 2172.8,1746.0 2086.4,1764.3 1999.8,1782.5 1913.1,1800.6 1826.5,1818.6 1740.0,1836.5 1653.7,1854.1 1567.7,1871.5 1482.1,1888.7 1397.1,1905.5 1312.6,1921.9 1228.8,1937.8 1145.8,1953.1 1063.6,1967.8 982.3,1981.7 902.1,1994.7 822.9,2006.8 744.9,2017.7 668.2,2027.4 592.8,2035.6 518.8,2042.4 446.2,2047.4 375.2,2050.6  Z" style="stroke-width: 0.0;  fill: rgb(108,170,228);" />
<path d="M 374.978,2042.572 A 1625.580,1625.580 0.00 0,1 374.7,2030.6 L 374.7,2030.6 434.5,2028.1 495.1,2023.0 556.4,2015.2 618.2,2004.7 680.2,1991.6 742.3,1975.8 804.4,1957.3 866.2,1936.2 927.6,1912.6 988.4,1886.4 1048.5,1857.7 1107.7,1826.5 1165.9,1792.9 1223.0,1756.9 1278.8,1718.7 1333.2,1678.2 1386.1,1635.5 1437.4,1590.8 1486.9,1544.1 1534.6,1495.6 1580.3,1445.2 1624.1,1393.1 1665.7,1339.4 1705.2,1284.2 1742.4,1227.7 1777.2,1170.0 1809.7,1111.1 1839.8,1051.3 1867.4,990.7 1892.4,929.4 1914.9,867.6 1934.8,805.4 1952.1,743.0 1966.8,680.6 1978.7,618.3 1988.0,556.4 1994.7,495.0 1998.7,434.2 2000.0,374.4  A 1625.580,1625.580 0.00 0,1 2012.0,374.5 L 2012.0,374.5 2010.2,434.4 2005.8,495.2 1998.7,556.7 1988.9,618.8 1976.4,681.2 1961.3,743.7 1943.6,806.2 1923.2,868.5 1900.2,930.5 1874.7,992.0 1846.7,1052.8 1816.2,1112.7 1783.2,1171.8 1748.0,1229.7 1710.3,1286.5 1670.5,1341.9 1628.5,1395.8 1584.4,1448.2 1538.3,1498.9 1490.3,1547.8 1440.5,1594.9 1389.0,1639.9 1335.8,1682.9 1281.2,1723.8 1225.1,1762.5 1167.9,1798.9 1109.5,1832.9 1050.0,1864.5 989.8,1893.7 928.8,1920.4 867.3,1944.5 805.4,1966.0 743.2,1985.0 681.0,2001.2 618.8,2014.9 557.0,2025.8 495.6,2034.1 434.9,2039.7 375.0,2042.6  Z" style="stroke-width: 0.0;  fill: rgb(108,170,228);" />
</g>
<defs>
<pattern id="checker" width="10" height="10" patternTransform="rotate(45 0 0)" patternUnits="userSpaceOnUse"><line x1="0" y1="0" x2="10" y2="0" style="stroke:black;stroke-width:2" /><line x1="0" y1="0" x2="0" y2="10" style="stroke:black;stroke-width:2" /></pattern>
<pattern id="hline" width="10" height="10" patternTransform="rotate(0 0 0)" patternUnits="userSpaceOnUse"><line x1="0" y1="0" x2="10" y2="0" style="stroke:black;stroke-width:5" /></pattern>
<pattern id="hline-sparse" width="10" height="10" patternTransform="rotate(0 0 0)" patternUnits="userSpaceOnUse"><line x1="0" y1="0" x2="10" y2="0" style="stroke:black;stroke-width:2" /></pattern>
<pattern id="vline-sparse" width="10" height="10" patternTransform="rotate(0 0 0)" patternUnits="userSpaceOnUse"><line x1="0" y1="0" x2="0" y2="10" style="stroke:black;stroke-width:2" /></pattern>
<pattern id="vline" width="10" height="10" patternTransform="rotate(0 0 0)" patternUnits="userSpaceOnUse"><line x1="0" y1="0" x2="0" y2="10" style="stroke:black;stroke-width:5" /></pattern>
<pattern id="checker" width="10" height="10" patternTransform="rotate(45 0 0)" patternUnits="userSpaceOnUse"><line x1="0" y1="0" x2="10" y2="0" style="stroke:black;stroke-width:5" /><line x1="0" y1="0" x2="0" y2="10" style="stroke:black;stroke-width:4" /></pattern>
</defs>
</svg>
