<?xml version="1.0" encoding="utf-8" standalone="no"?>
<!DOCTYPE svg PUBLIC "-//W3C//DTD SVG 1.1//EN" "http://www.w3.org/Graphics/SVG/1.1/DTD/svg11.dtd">
<svg width="4000px" height="4000px" version="1.1" xmlns="http://www.w3.org/2000/svg" xmlns:xlink="http://www.w3.org/1999/xlink">
<g id="bg">
<rect x="0" y="0" width="4000px" height="4000px" style="fill:rgb(255,255,255);"/>
</g>
<g id="ideograms">
<path d="M2000.000,358.000 A1642.000,1642.000 40.000 0,1 2751.610,540.121 L2769.004,506.336 A1680.000,1680.000 0.000 0,0 2000.000,320.000 Z" style="stroke-width:2.0;stroke:rgb(255,255,255);stroke-linecap:round;fill:rgb(185,185,185);" />
<text x="2427.0" y="305.8" font-size="36.4px" font-family="CMUBright-Roman" style="text-anchor:start;fill:rgb(0,0,0);" transform="rotate(283.6,2427.0,305.8)" >Management-Operations</text>
<path d="M2000.000,358.000 A1642.000,1642.000 40.000 0,1 2751.610,540.121 L2769.004,506.336 A1680.000,1680.000 0.000 0,0 2000.000,320.000 Z" style="stroke-width:2.0;stroke:rgb(255,255,255);stroke-linecap:round;fill:none;" />
<path d="M2783.279,556.865 A1642.000,1642.000 40.000 0,1 3226.411,908.176 L3254.793,882.908 A1680.000,1680.000 0.000 0,0 2801.406,523.467 Z" style="stroke-width:2.0;stroke:rgb(255,255,255);stroke-linecap:round;fill:rgb(185,185,185);" />
<text x="3097.5" y="640.5" font-size="36.4px" font-family="CMUBright-Roman" style="text-anchor:start;fill:rgb(0,0,0);" transform="rotate(308.4,3097.5,640.5)" >Engineering</text>
<path d="M2783.279,556.865 A1642.000,1642.000 40.000 0,1 3226.411,908.176 L3254.793,882.908 A1680.000,1680.000 0.000 0,0 2801.406,523.467 Z" style="stroke-width:2.0;stroke:rgb(255,255,255);stroke-linecap:round;fill:none;" />
<path d="M3249.937,935.189 A1642.000,1642.000 40.000 0,1 3507.538,1349.236 L3542.426,1334.176 A1680.000,1680.000 0.000 0,0 3278.864,910.547 Z" style="stroke-width:2.0;stroke:rgb(255,255,255);stroke-linecap:round;fill:rgb(185,185,185);" />
<text x="3491.6" y="1090.2" font-size="36.4px" font-family="CMUBright-Roman" style="text-anchor:start;fill:rgb(0,0,0);" transform="rotate(328.1,3491.6,1090.2)" >Leadership-General</text>
<path d="M3249.937,935.189 A1642.000,1642.000 40.000 0,1 3507.538,1349.236 L3542.426,1334.176 A1680.000,1680.000 0.000 0,0 3278.864,910.547 Z" style="stroke-width:2.0;stroke:rgb(255,255,255);stroke-linecap:round;fill:none;" />
<path d="M3521.375,1382.278 A1642.000,1642.000 40.000 0,1 3633.192,1830.154 L3670.988,1826.223 A1680.000,1680.000 0.000 0,0 3556.584,1367.982 Z" style="stroke-width:2.0;stroke:rgb(255,255,255);stroke-linecap:round;fill:rgb(185,185,185);" />
<text x="3699.0" y="1592.3" font-size="36.4px" font-family="CMUBright-Roman" style="text-anchor:start;fill:rgb(0,0,0);" transform="rotate(346.0,3699.0,1592.3)" >Sales-Marketing</text>
<path d="M3521.375,1382.278 A1642.000,1642.000 40.000 0,1 3633.192,1830.154 L3670.988,1826.223 A1680.000,1680.000 0.000 0,0 3556.584,1367.982 Z" style="stroke-width:2.0;stroke:rgb(255,255,255);stroke-linecap:round;fill:none;" />
<path d="M3636.509,1865.822 A1642.000,1642.000 40.000 0,1 3610.774,2318.704 L3648.051,2326.079 A1680.000,1680.000 0.000 0,0 3674.381,1862.717 Z" style="stroke-width:2.0;stroke:rgb(255,255,255);stroke-linecap:round;fill:rgb(185,185,185);" />
<text x="3743.6" y="2111.6" font-size="36.4px" font-family="CMUBright-Roman" style="text-anchor:start;fill:rgb(0,0,0);" transform="rotate(3.3,3743.6,2111.6)" >Finance-Investment</text>
<path d="M3636.509,1865.822 A1642.000,1642.000 40.000 0,1 3610.774,2318.704 L3648.051,2326.079 A1680.000,1680.000 0.000 0,0 3674.381,1862.717 Z" style="stroke-width:2.0;stroke:rgb(255,255,255);stroke-linecap:round;fill:none;" />
<path d="M3603.438,2353.767 A1642.000,1642.000 40.000 0,1 3499.856,2668.278 L3534.566,2683.744 A1680.000,1680.000 0.000 0,0 3640.546,2361.954 Z" style="stroke-width:2.0;stroke:rgb(255,255,255);stroke-linecap:round;fill:rgb(185,185,185);" />
<text x="3655.6" y="2558.4" font-size="36.4px" font-family="CMUBright-Roman" style="text-anchor:start;fill:rgb(0,0,0);" transform="rotate(18.2,3655.6,2558.4)" >Software-Data</text>
<path d="M3603.438,2353.767 A1642.000,1642.000 40.000 0,1 3499.856,2668.278 L3534.566,2683.744 A1680.000,1680.000 0.000 0,0 3640.546,2361.954 Z" style="stroke-width:2.0;stroke:rgb(255,255,255);stroke-linecap:round;fill:none;" />
<path d="M3484.921,2700.839 A1642.000,1642.000 40.000 0,1 3330.895,2961.708 L3361.695,2983.964 A1680.000,1680.000 0.000 0,0 3519.285,2717.058 Z" style="stroke-width:2.0;stroke:rgb(255,255,255);stroke-linecap:round;fill:rgb(185,185,185);" />
<text x="3498.1" y="2899.1" font-size="36.4px" font-family="CMUBright-Roman" style="text-anchor:start;fill:rgb(0,0,0);" transform="rotate(30.6,3498.1,2899.1)" >Education</text>
<path d="M3484.921,2700.839 A1642.000,1642.000 40.000 0,1 3330.895,2961.708 L3361.695,2983.964 A1680.000,1680.000 0.000 0,0 3519.285,2717.058 Z" style="stroke-width:2.0;stroke:rgb(255,255,255);stroke-linecap:round;fill:none;" />
<path d="M3309.599,2990.512 A1642.000,1642.000 40.000 0,1 3129.055,3192.225 L3155.184,3219.816 A1680.000,1680.000 0.000 0,0 3339.906,3013.435 Z" style="stroke-width:2.0;stroke:rgb(255,255,255);stroke-linecap:round;fill:rgb(185,185,185);" />
<text x="3293.5" y="3174.5" font-size="36.4px" font-family="CMUBright-Roman" style="text-anchor:start;fill:rgb(0,0,0);" transform="rotate(41.8,3293.5,3174.5)" >Research-Science</text>
<path d="M3309.599,2990.512 A1642.000,1642.000 40.000 0,1 3129.055,3192.225 L3155.184,3219.816 A1680.000,1680.000 0.000 0,0 3339.906,3013.435 Z" style="stroke-width:2.0;stroke:rgb(255,255,255);stroke-linecap:round;fill:none;" />
<path d="M3102.778,3216.571 A1642.000,1642.000 40.000 0,1 2891.302,3379.038 L2911.929,3410.952 A1680.000,1680.000 0.000 0,0 3128.299,3244.726 Z" style="stroke-width:2.0;stroke:rgb(255,255,255);stroke-linecap:round;fill:rgb(185,185,185);" />
<text x="3054.5" y="3393.1" font-size="36.4px" font-family="CMUBright-Roman" style="text-anchor:start;fill:rgb(0,0,0);" transform="rotate(52.5,3054.5,3393.1)" >Clinical-Care</text>
<path d="M3102.778,3216.571 A1642.000,1642.000 40.000 0,1 2891.302,3379.038 L2911.929,3410.952 A1680.000,1680.000 0.000 0,0 3128.299,3244.726 Z" style="stroke-width:2.0;stroke:rgb(255,255,255);stroke-linecap:round;fill:none;" />
<path d="M2861.006,3398.153 A1642.000,1642.000 40.000 0,1 2640.127,3512.085 L2654.941,3547.079 A1680.000,1680.000 0.000 0,0 2880.932,3430.510 Z" style="stroke-width:2.0;stroke:rgb(255,255,255);stroke-linecap:round;fill:rgb(185,185,185);" />
<text x="2786.7" y="3560.1" font-size="36.4px" font-family="CMUBright-Roman" style="text-anchor:start;fill:rgb(0,0,0);" transform="rotate(62.7,2786.7,3560.1)" >Accounting-Audit</text>
<path d="M2861.006,3398.153 A1642.000,1642.000 40.000 0,1 2640.127,3512.085 L2654.941,3547.079 A1680.000,1680.000 0.000 0,0 2880.932,3430.510 Z" style="stroke-width:2.0;stroke:rgb(255,255,255);stroke-linecap:round;fill:none;" />
<path d="M2606.988,3525.690 A1642.000,1642.000 40.000 0,1 2452.002,3578.562 L2462.463,3615.094 A1680.000,1680.000 0.000 0,0 2621.036,3560.998 Z" style="stroke-width:2.0;stroke:rgb(255,255,255);stroke-linecap:round;fill:rgb(185,185,185);" />
<text x="2552.3" y="3657.6" font-size="36.4px" font-family="CMUBright-Roman" style="text-anchor:start;fill:rgb(0,0,0);" transform="rotate(71.2,2552.3,3657.6)" >Social-Service</text>
<path d="M2606.988,3525.690 A1642.000,1642.000 40.000 0,1 2452.002,3578.562 L2462.463,3615.094 A1680.000,1680.000 0.000 0,0 2621.036,3560.998 Z" style="stroke-width:2.0;stroke:rgb(255,255,255);stroke-linecap:round;fill:none;" />
<path d="M2417.459,3588.047 A1642.000,1642.000 40.000 0,1 2320.910,3610.336 L2328.336,3647.603 A1680.000,1680.000 0.000 0,0 2427.120,3624.798 Z" style="stroke-width:2.0;stroke:rgb(255,255,255);stroke-linecap:round;fill:rgb(185,185,185);" />
<text x="2380.8" y="3705.2" font-size="36.4px" font-family="CMUBright-Roman" style="text-anchor:start;fill:rgb(0,0,0);" transform="rotate(77.0,2380.8,3705.2)" >IT-Infrastructure</text>
<path d="M2417.459,3588.047 A1642.000,1642.000 40.000 0,1 2320.910,3610.336 L2328.336,3647.603 A1680.000,1680.000 0.000 0,0 2427.120,3624.798 Z" style="stroke-width:2.0;stroke:rgb(255,255,255);stroke-linecap:round;fill:none;" />
<path d="M2285.704,3616.953 A1642.000,1642.000 40.000 0,1 2189.660,3631.010 L2194.050,3668.755 A1680.000,1680.000 0.000 0,0 2292.316,3654.373 Z" style="stroke-width:2.0;stroke:rgb(255,255,255);stroke-linecap:round;fill:rgb(185,185,185);" />
<text x="2237.2" y="3731.0" font-size="36.4px" font-family="CMUBright-Roman" style="text-anchor:start;fill:rgb(0,0,0);" transform="rotate(81.7,2237.2,3731.0)" >Legal-Policy</text>
<path d="M2285.704,3616.953 A1642.000,1642.000 40.000 0,1 2189.660,3631.010 L2194.050,3668.755 A1680.000,1680.000 0.000 0,0 2292.316,3654.373 Z" style="stroke-width:2.0;stroke:rgb(255,255,255);stroke-linecap:round;fill:none;" />
<path d="M2154.035,3634.759 A1642.000,1642.000 40.000 0,1 1474.020,3555.477 L1461.848,3591.475 A1680.000,1680.000 0.000 0,0 2157.600,3672.592 Z" style="stroke-width:2.0;stroke:rgb(255,255,255);stroke-linecap:round;fill:rgb(15,52,135);" />
<text x="1813.6" y="3737.2" font-size="36.4px" font-family="CMUBright-Roman" style="text-anchor:end;fill:rgb(0,0,0);" transform="rotate(-83.3,1813.6,3737.2)" >Finance-Accounting</text>
<path d="M2154.035,3634.759 A1642.000,1642.000 40.000 0,1 1474.020,3555.477 L1461.848,3591.475 A1680.000,1680.000 0.000 0,0 2157.600,3672.592 Z" style="stroke-width:2.0;stroke:rgb(255,255,255);stroke-linecap:round;fill:none;" />
<path d="M1440.213,3543.633 A1642.000,1642.000 40.000 0,1 888.845,3208.925 L863.130,3236.902 A1680.000,1680.000 0.000 0,0 1427.258,3579.356 Z" style="stroke-width:2.0;stroke:rgb(255,255,255);stroke-linecap:round;fill:rgb(42,98,180);" />
<text x="1104.1" y="3500.0" font-size="36.4px" font-family="CMUBright-Roman" style="text-anchor:end;fill:rgb(0,0,0);" transform="rotate(-58.7,1104.1,3500.0)" >General-Business</text>
<path d="M1440.213,3543.633 A1642.000,1642.000 40.000 0,1 888.845,3208.925 L863.130,3236.902 A1680.000,1680.000 0.000 0,0 1427.258,3579.356 Z" style="stroke-width:2.0;stroke:rgb(255,255,255);stroke-linecap:round;fill:none;" />
<path d="M862.737,3184.397 A1642.000,1642.000 40.000 0,1 624.574,2896.866 L592.744,2917.622 A1680.000,1680.000 0.000 0,0 836.418,3211.807 Z" style="stroke-width:2.0;stroke:rgb(255,255,255);stroke-linecap:round;fill:rgb(28,75,160);" />
<text x="664.7" y="3126.8" font-size="36.4px" font-family="CMUBright-Roman" style="text-anchor:end;fill:rgb(0,0,0);" transform="rotate(-39.6,664.7,3126.8)" >Marketing-Communication</text>
<path d="M862.737,3184.397 A1642.000,1642.000 40.000 0,1 624.574,2896.866 L592.744,2917.622 A1680.000,1680.000 0.000 0,0 836.418,3211.807 Z" style="stroke-width:2.0;stroke:rgb(255,255,255);stroke-linecap:round;fill:none;" />
<path d="M605.337,2866.648 A1642.000,1642.000 40.000 0,1 476.558,2612.607 L441.301,2626.784 A1680.000,1680.000 0.000 0,0 573.061,2886.704 Z" style="stroke-width:2.0;stroke:rgb(255,255,255);stroke-linecap:round;fill:rgb(60,120,198);" />
<text x="448.7" y="2803.8" font-size="36.4px" font-family="CMUBright-Roman" style="text-anchor:end;fill:rgb(0,0,0);" transform="rotate(-26.9,448.7,2803.8)" >Operations-Analytics</text>
<path d="M605.337,2866.648 A1642.000,1642.000 40.000 0,1 476.558,2612.607 L441.301,2626.784 A1680.000,1680.000 0.000 0,0 573.061,2886.704 Z" style="stroke-width:2.0;stroke:rgb(255,255,255);stroke-linecap:round;fill:none;" />
<path d="M463.556,2579.227 A1642.000,1642.000 40.000 0,1 407.419,2399.813 L370.563,2409.066 A1680.000,1680.000 0.000 0,0 427.999,2592.632 Z" style="stroke-width:2.0;stroke:rgb(255,255,255);stroke-linecap:round;fill:rgb(82,145,215);" />
<text x="337.2" y="2536.5" font-size="36.4px" font-family="CMUBright-Roman" style="text-anchor:end;fill:rgb(0,0,0);" transform="rotate(-17.4,337.2,2536.5)" >Specialized-Business</text>
<path d="M463.556,2579.227 A1642.000,1642.000 40.000 0,1 407.419,2399.813 L370.563,2409.066 A1680.000,1680.000 0.000 0,0 427.999,2592.632 Z" style="stroke-width:2.0;stroke:rgb(255,255,255);stroke-linecap:round;fill:none;" />
<path d="M399.076,2364.976 A1642.000,1642.000 40.000 0,1 366.776,2169.540 L328.979,2173.464 A1680.000,1680.000 0.000 0,0 362.027,2373.422 Z" style="stroke-width:2.0;stroke:rgb(255,255,255);stroke-linecap:round;fill:rgb(200,108,30);" />
<text x="278.3" y="2297.2" font-size="36.4px" font-family="CMUBright-Roman" style="text-anchor:end;fill:rgb(0,0,0);" transform="rotate(-9.4,278.3,2297.2)" >Social-Sciences</text>
<path d="M399.076,2364.976 A1642.000,1642.000 40.000 0,1 366.776,2169.540 L328.979,2173.464 A1680.000,1680.000 0.000 0,0 362.027,2373.422 Z" style="stroke-width:2.0;stroke:rgb(255,255,255);stroke-linecap:round;fill:none;" />
<path d="M363.466,2133.872 A1642.000,1642.000 40.000 0,1 358.290,2030.870 L320.297,2031.584 A1680.000,1680.000 0.000 0,0 325.593,2136.970 Z" style="stroke-width:2.0;stroke:rgb(255,255,255);stroke-linecap:round;fill:rgb(108,170,228);" />
<text x="255.6" y="2099.7" font-size="36.4px" font-family="CMUBright-Roman" style="text-anchor:end;fill:rgb(0,0,0);" transform="rotate(-2.9,255.6,2099.7)" >Economics</text>
<path d="M363.466,2133.872 A1642.000,1642.000 40.000 0,1 358.290,2030.870 L320.297,2031.584 A1680.000,1680.000 0.000 0,0 325.593,2136.970 Z" style="stroke-width:2.0;stroke:rgb(255,255,255);stroke-linecap:round;fill:none;" />
<path d="M358.007,1995.049 A1642.000,1642.000 40.000 0,1 358.807,1948.539 L320.825,1947.348 A1680.000,1680.000 0.000 0,0 320.008,1994.934 Z" style="stroke-width:2.0;stroke:rgb(255,255,255);stroke-linecap:round;fill:rgb(220,140,52);" />
<text x="252.9" y="1982.5" font-size="36.4px" font-family="CMUBright-Roman" style="text-anchor:end;fill:rgb(0,0,0);" transform="rotate(1.0,252.9,1982.5)" >Humanities-Liberal-Arts</text>
<path d="M358.007,1995.049 A1642.000,1642.000 40.000 0,1 358.807,1948.539 L320.825,1947.348 A1680.000,1680.000 0.000 0,0 320.008,1994.934 Z" style="stroke-width:2.0;stroke:rgb(255,255,255);stroke-linecap:round;fill:none;" />
<path d="M360.320,1912.749 A1642.000,1642.000 40.000 0,1 361.133,1898.615 L323.205,1896.269 A1680.000,1680.000 0.000 0,0 322.373,1910.730 Z" style="stroke-width:2.0;stroke:rgb(255,255,255);stroke-linecap:round;fill:rgb(235,168,78);" />
<text x="255.0" y="1912.1" font-size="36.4px" font-family="CMUBright-Roman" style="text-anchor:end;fill:rgb(0,0,0);" transform="rotate(3.3,255.0,1912.1)" >International-Studies</text>
<path d="M360.320,1912.749 A1642.000,1642.000 40.000 0,1 361.133,1898.615 L323.205,1896.269 A1680.000,1680.000 0.000 0,0 322.373,1910.730 Z" style="stroke-width:2.0;stroke:rgb(255,255,255);stroke-linecap:round;fill:none;" />
<path d="M363.735,1862.887 A1642.000,1642.000 40.000 0,1 391.336,1670.812 L354.108,1663.193 A1680.000,1680.000 0.000 0,0 325.867,1859.714 Z" style="stroke-width:2.0;stroke:rgb(255,255,255);stroke-linecap:round;fill:rgb(195,58,55);" />
<text x="268.8" y="1763.9" font-size="36.4px" font-family="CMUBright-Roman" style="text-anchor:end;fill:rgb(0,0,0);" transform="rotate(8.2,268.8,1763.9)" >Social-Work</text>
<path d="M363.735,1862.887 A1642.000,1642.000 40.000 0,1 391.336,1670.812 L354.108,1663.193 A1680.000,1680.000 0.000 0,0 325.867,1859.714 Z" style="stroke-width:2.0;stroke:rgb(255,255,255);stroke-linecap:round;fill:none;" />
<path d="M398.900,1635.797 A1642.000,1642.000 40.000 0,1 428.981,1522.439 L392.624,1511.387 A1680.000,1680.000 0.000 0,0 361.847,1627.368 Z" style="stroke-width:2.0;stroke:rgb(255,255,255);stroke-linecap:round;fill:rgb(175,35,42);" />
<text x="308.1" y="1564.0" font-size="36.4px" font-family="CMUBright-Roman" style="text-anchor:end;fill:rgb(0,0,0);" transform="rotate(14.9,308.1,1564.0)" >Teacher-Education</text>
<path d="M398.900,1635.797 A1642.000,1642.000 40.000 0,1 428.981,1522.439 L392.624,1511.387 A1680.000,1680.000 0.000 0,0 361.847,1627.368 Z" style="stroke-width:2.0;stroke:rgb(255,255,255);stroke-linecap:round;fill:none;" />
<path d="M439.773,1488.281 A1642.000,1642.000 40.000 0,1 474.975,1391.343 L439.682,1377.257 A1680.000,1680.000 0.000 0,0 403.666,1476.439 Z" style="stroke-width:2.0;stroke:rgb(255,255,255);stroke-linecap:round;fill:rgb(215,82,72);" />
<text x="352.5" y="1418.2" font-size="36.4px" font-family="CMUBright-Roman" style="text-anchor:end;fill:rgb(0,0,0);" transform="rotate(20.0,352.5,1418.2)" >Special-Education</text>
<path d="M439.773,1488.281 A1642.000,1642.000 40.000 0,1 474.975,1391.343 L439.682,1377.257 A1680.000,1680.000 0.000 0,0 403.666,1476.439 Z" style="stroke-width:2.0;stroke:rgb(255,255,255);stroke-linecap:round;fill:none;" />
<path d="M488.616,1358.220 A1642.000,1642.000 40.000 0,1 509.092,1311.991 L474.588,1296.068 A1680.000,1680.000 0.000 0,0 453.639,1343.368 Z" style="stroke-width:2.0;stroke:rgb(255,255,255);stroke-linecap:round;fill:rgb(230,112,95);" />
<text x="396.3" y="1306.6" font-size="36.4px" font-family="CMUBright-Roman" style="text-anchor:end;fill:rgb(0,0,0);" transform="rotate(23.9,396.3,1306.6)" >Educational-Leadership</text>
<path d="M488.616,1358.220 A1642.000,1642.000 40.000 0,1 509.092,1311.991 L474.588,1296.068 A1680.000,1680.000 0.000 0,0 453.639,1343.368 Z" style="stroke-width:2.0;stroke:rgb(255,255,255);stroke-linecap:round;fill:none;" />
<path d="M524.455,1279.630 A1642.000,1642.000 40.000 0,1 553.988,1222.045 L520.524,1204.041 A1680.000,1680.000 0.000 0,0 490.308,1262.959 Z" style="stroke-width:2.0;stroke:rgb(255,255,255);stroke-linecap:round;fill:rgb(0,130,142);" />
<text x="439.7" y="1213.8" font-size="36.4px" font-family="CMUBright-Roman" style="text-anchor:end;fill:rgb(0,0,0);" transform="rotate(27.2,439.7,1213.8)" >Communication-Studies</text>
<path d="M524.455,1279.630 A1642.000,1642.000 40.000 0,1 553.988,1222.045 L520.524,1204.041 A1680.000,1680.000 0.000 0,0 490.308,1262.959 Z" style="stroke-width:2.0;stroke:rgb(255,255,255);stroke-linecap:round;fill:none;" />
<path d="M571.303,1190.686 A1642.000,1642.000 40.000 0,1 588.562,1160.949 L555.898,1141.531 A1680.000,1680.000 0.000 0,0 538.240,1171.956 Z" style="stroke-width:2.0;stroke:rgb(255,255,255);stroke-linecap:round;fill:rgb(0,165,172);" />
<text x="482.6" y="1133.8" font-size="36.4px" font-family="CMUBright-Roman" style="text-anchor:end;fill:rgb(0,0,0);" transform="rotate(30.1,482.6,1133.8)" >Journalism-Media</text>
<path d="M571.303,1190.686 A1642.000,1642.000 40.000 0,1 588.562,1160.949 L555.898,1141.531 A1680.000,1680.000 0.000 0,0 538.240,1171.956 Z" style="stroke-width:2.0;stroke:rgb(255,255,255);stroke-linecap:round;fill:none;" />
<path d="M607.202,1130.358 A1642.000,1642.000 40.000 0,1 613.667,1120.089 L581.583,1099.725 A1680.000,1680.000 0.000 0,0 574.969,1110.233 Z" style="stroke-width:2.0;stroke:rgb(255,255,255);stroke-linecap:round;fill:rgb(38,195,195);" />
<text x="512.9" y="1082.8" font-size="36.4px" font-family="CMUBright-Roman" style="text-anchor:end;fill:rgb(0,0,0);" transform="rotate(32.2,512.9,1082.8)" >Creative-Writing</text>
<path d="M607.202,1130.358 A1642.000,1642.000 40.000 0,1 613.667,1120.089 L581.583,1099.725 A1680.000,1680.000 0.000 0,0 574.969,1110.233 Z" style="stroke-width:2.0;stroke:rgb(255,255,255);stroke-linecap:round;fill:none;" />
<path d="M633.192,1090.055 A1642.000,1642.000 40.000 0,1 667.742,1040.182 L636.910,1017.969 A1680.000,1680.000 0.000 0,0 601.560,1068.997 Z" style="stroke-width:2.0;stroke:rgb(255,255,255);stroke-linecap:round;fill:rgb(180,45,112);" />
<text x="554.7" y="1018.2" font-size="36.4px" font-family="CMUBright-Roman" style="text-anchor:end;fill:rgb(0,0,0);" transform="rotate(34.7,554.7,1018.2)" >Arts-Theology</text>
<path d="M633.192,1090.055 A1642.000,1642.000 40.000 0,1 667.742,1040.182 L636.910,1017.969 A1680.000,1680.000 0.000 0,0 601.560,1068.997 Z" style="stroke-width:2.0;stroke:rgb(255,255,255);stroke-linecap:round;fill:none;" />
<path d="M688.997,1011.347 A1642.000,1642.000 40.000 0,1 698.803,998.477 L668.690,975.299 A1680.000,1680.000 0.000 0,0 658.657,988.467 Z" style="stroke-width:2.0;stroke:rgb(255,255,255);stroke-linecap:round;fill:rgb(205,75,142);" />
<text x="600.6" y="953.9" font-size="36.4px" font-family="CMUBright-Roman" style="text-anchor:end;fill:rgb(0,0,0);" transform="rotate(37.3,600.6,953.9)" >English-Writing</text>
<path d="M688.997,1011.347 A1642.000,1642.000 40.000 0,1 698.803,998.477 L668.690,975.299 A1680.000,1680.000 0.000 0,0 658.657,988.467 Z" style="stroke-width:2.0;stroke:rgb(255,255,255);stroke-linecap:round;fill:none;" />
<path d="M720.960,970.329 A1642.000,1642.000 40.000 0,1 724.774,965.610 L695.262,941.672 A1680.000,1680.000 0.000 0,0 691.360,946.500 Z" style="stroke-width:2.0;stroke:rgb(255,255,255);stroke-linecap:round;fill:rgb(225,110,168);" />
<text x="631.0" y="914.3" font-size="36.4px" font-family="CMUBright-Roman" style="text-anchor:end;fill:rgb(0,0,0);" transform="rotate(38.9,631.0,914.3)" >Languages</text>
<path d="M720.960,970.329 A1642.000,1642.000 40.000 0,1 724.774,965.610 L695.262,941.672 A1680.000,1680.000 0.000 0,0 691.360,946.500 Z" style="stroke-width:2.0;stroke:rgb(255,255,255);stroke-linecap:round;fill:none;" />
<path d="M747.643,938.037 A1642.000,1642.000 40.000 0,1 884.635,794.959 L858.822,767.071 A1680.000,1680.000 0.000 0,0 718.660,913.461 Z" style="stroke-width:2.0;stroke:rgb(255,255,255);stroke-linecap:round;fill:rgb(88,40,138);" />
<text x="727.0" y="803.3" font-size="36.4px" font-family="CMUBright-Roman" style="text-anchor:end;fill:rgb(0,0,0);" transform="rotate(43.8,727.0,803.3)" >Biological-Sciences</text>
<path d="M747.643,938.037 A1642.000,1642.000 40.000 0,1 884.635,794.959 L858.822,767.071 A1680.000,1680.000 0.000 0,0 718.660,913.461 Z" style="stroke-width:2.0;stroke:rgb(255,255,255);stroke-linecap:round;fill:none;" />
<path d="M911.188,770.914 A1642.000,1642.000 40.000 0,1 969.888,721.316 L946.049,691.724 A1680.000,1680.000 0.000 0,0 885.990,742.470 Z" style="stroke-width:2.0;stroke:rgb(255,255,255);stroke-linecap:round;fill:rgb(115,65,165);" />
<text x="862.8" y="673.5" font-size="36.4px" font-family="CMUBright-Roman" style="text-anchor:end;fill:rgb(0,0,0);" transform="rotate(49.8,862.8,673.5)" >Health-Wellness</text>
<path d="M911.188,770.914 A1642.000,1642.000 40.000 0,1 969.888,721.316 L946.049,691.724 A1680.000,1680.000 0.000 0,0 885.990,742.470 Z" style="stroke-width:2.0;stroke:rgb(255,255,255);stroke-linecap:round;fill:none;" />
<path d="M998.028,699.148 A1642.000,1642.000 40.000 0,1 1023.858,679.655 L1001.267,649.099 A1680.000,1680.000 0.000 0,0 974.840,669.043 Z" style="stroke-width:2.0;stroke:rgb(255,255,255);stroke-linecap:round;fill:rgb(140,92,188);" />
<text x="935.2" y="614.8" font-size="36.4px" font-family="CMUBright-Roman" style="text-anchor:end;fill:rgb(0,0,0);" transform="rotate(53.0,935.2,614.8)" >Physical-Sciences</text>
<path d="M998.028,699.148 A1642.000,1642.000 40.000 0,1 1023.858,679.655 L1001.267,649.099 A1680.000,1680.000 0.000 0,0 974.840,669.043 Z" style="stroke-width:2.0;stroke:rgb(255,255,255);stroke-linecap:round;fill:none;" />
<path d="M1052.893,658.675 A1642.000,1642.000 40.000 0,1 1064.493,650.559 L1042.843,619.329 A1680.000,1680.000 0.000 0,0 1030.975,627.633 Z" style="stroke-width:2.0;stroke:rgb(255,255,255);stroke-linecap:round;fill:rgb(165,120,208);" />
<text x="988.2" y="575.6" font-size="36.4px" font-family="CMUBright-Roman" style="text-anchor:end;fill:rgb(0,0,0);" transform="rotate(55.0,988.2,575.6)" >Environmental-Sciences</text>
<path d="M1052.893,658.675 A1642.000,1642.000 40.000 0,1 1064.493,650.559 L1042.843,619.329 A1680.000,1680.000 0.000 0,0 1030.975,627.633 Z" style="stroke-width:2.0;stroke:rgb(255,255,255);stroke-linecap:round;fill:none;" />
<path d="M1094.154,630.472 A1642.000,1642.000 40.000 0,1 1594.822,408.776 L1585.445,371.951 A1680.000,1680.000 0.000 0,0 1073.190,598.778 Z" style="stroke-width:2.0;stroke:rgb(255,255,255);stroke-linecap:round;fill:rgb(22,118,50);" />
<text x="1278.0" y="409.0" font-size="36.4px" font-family="CMUBright-Roman" style="text-anchor:end;fill:rgb(0,0,0);" transform="rotate(66.1,1278.0,409.0)" >Engineering-Disciplines</text>
<path d="M1094.154,630.472 A1642.000,1642.000 40.000 0,1 1594.822,408.776 L1585.445,371.951 A1680.000,1680.000 0.000 0,0 1073.190,598.778 Z" style="stroke-width:2.0;stroke:rgb(255,255,255);stroke-linecap:round;fill:none;" />
<path d="M1629.631,400.315 A1642.000,1642.000 40.000 0,1 1964.180,358.391 L1963.351,320.400 A1680.000,1680.000 0.000 0,0 1621.060,363.295 Z" style="stroke-width:2.0;stroke:rgb(255,255,255);stroke-linecap:round;fill:rgb(48,158,75);" />
<text x="1767.4" y="268.4" font-size="36.4px" font-family="CMUBright-Roman" style="text-anchor:end;fill:rgb(0,0,0);" transform="rotate(82.9,1767.4,268.4)" >Computer-Science-IT</text>
<path d="M1629.631,400.315 A1642.000,1642.000 40.000 0,1 1964.180,358.391 L1963.351,320.400 A1680.000,1680.000 0.000 0,0 1621.060,363.295 Z" style="stroke-width:2.0;stroke:rgb(255,255,255);stroke-linecap:round;fill:none;" />
</g>
<g id="track_0">
<path d="M 374.427,1995.098 A 1625.580,1625.580 0.00 0,1 374.4,1991.1 L 374.4,1991.1 435.6,1992.8 497.8,1997.2 560.9,2004.2 624.7,2014.0 689.1,2026.4 753.9,2041.4 819.0,2059.0 884.1,2079.2 949.2,2101.9 1014.1,2127.1 1078.7,2154.8 1142.7,2184.8 1206.2,2217.3 1268.9,2251.9 1330.7,2288.8 1391.5,2327.9 1451.2,2369.1 1509.6,2412.2 1566.7,2457.3 1622.3,2504.2 1676.4,2552.9 1728.8,2603.2 1779.4,2655.1 1828.1,2708.5 1874.9,2763.2 1919.7,2819.1 1962.3,2876.2 2002.8,2934.2 2040.9,2993.2 2076.7,3052.9 2110.1,3113.2 2141.0,3174.1 2169.3,3235.2 2195.0,3296.6 2218.1,3357.9 2238.5,3419.2 2256.1,3480.2 2270.9,3540.8 2282.8,3600.8  A 1625.580,1625.580 0.00 0,1 2278.9,3601.5 L 2278.9,3601.5 2267.1,3541.5 2252.4,3480.9 2235.0,3419.9 2214.8,3358.7 2191.9,3297.3 2166.3,3236.0 2138.1,3174.8 2107.4,3114.0 2074.2,3053.7 2038.5,2994.0 2000.5,2935.1 1960.3,2877.1 1917.8,2820.0 1873.1,2764.1 1826.5,2709.5 1777.8,2656.2 1727.3,2604.4 1675.1,2554.1 1621.1,2505.5 1565.6,2458.7 1508.6,2413.7 1450.2,2370.7 1390.6,2329.6 1329.9,2290.7 1268.2,2253.9 1205.6,2219.3 1142.2,2187.0 1078.2,2157.1 1013.7,2129.6 948.9,2104.5 883.8,2082.0 818.7,2061.9 753.7,2044.4 688.9,2029.6 624.6,2017.3 560.8,2007.8 497.7,2000.9 435.5,1996.6 374.4,1995.1  Z" style="stroke-width: 0.0;  fill: rgb(220,140,52);" />
<path d="M 374.444,1991.094 A 1625.580,1625.580 0.00 0,1 374.6,1977.1 L 374.6,1977.1 437.6,1979.3 501.8,1984.2 567.2,1991.8 633.5,2001.9 700.7,2014.6 768.6,2029.8 837.0,2047.4 905.9,2067.5 975.1,2089.9 1044.5,2114.6 1113.9,2141.6 1183.2,2170.8 1252.4,2202.0 1321.2,2235.4 1389.5,2270.7 1457.3,2308.0 1524.4,2347.1 1590.6,2388.1 1656.0,2430.7 1720.3,2475.0 1783.4,2520.8 1845.2,2568.1 1905.7,2616.9 1964.7,2666.9 2022.1,2718.1 2077.8,2770.5 2131.7,2824.0 2183.6,2878.3 2233.6,2933.6 2281.4,2989.6 2327.0,3046.2 2370.3,3103.5 2411.2,3161.1 2449.6,3219.1 2485.4,3277.4 2518.5,3335.7 2548.9,3394.1 2576.4,3452.4 2600.9,3510.4  A 1625.580,1625.580 0.00 0,1 2587.9,3515.6 L 2587.9,3515.6 2563.9,3457.4 2537.0,3399.1 2507.2,3340.6 2474.6,3282.2 2439.3,3223.9 2401.5,3165.8 2361.1,3108.1 2318.3,3050.8 2273.2,2994.1 2225.9,2938.1 2176.5,2882.9 2125.0,2828.5 2071.5,2775.1 2016.3,2722.8 1959.3,2671.6 1900.7,2621.7 1840.6,2573.1 1779.1,2525.9 1716.4,2480.3 1652.4,2436.2 1587.4,2393.9 1521.4,2353.2 1454.6,2314.4 1387.0,2277.4 1318.9,2242.5 1250.3,2209.5 1181.4,2178.6 1112.3,2149.9 1043.0,2123.4 973.8,2099.1 904.7,2077.2 836.0,2057.7 767.7,2040.5 699.9,2025.9 632.8,2013.7 566.6,2004.1 501.4,1997.1 437.3,1992.8 374.4,1991.1  Z" style="stroke-width: 0.0;  fill: rgb(220,140,52);" />
<path d="M 374.582,1977.078 A 1625.580,1625.580 0.00 0,1 374.7,1969.1 L 374.7,1969.1 441.1,1971.6 509.0,1976.5 578.3,1983.8 648.9,1993.3 720.7,2005.1 793.6,2018.8 867.5,2034.6 942.3,2052.3 1017.9,2071.9 1094.2,2093.1 1171.1,2116.1 1248.4,2140.7 1326.1,2166.8 1404.0,2194.3 1482.1,2223.3 1560.2,2253.6 1638.2,2285.2 1716.0,2318.0 1793.5,2351.9 1870.6,2387.0 1947.1,2423.0 2023.0,2460.1 2098.0,2498.2 2172.2,2537.1 2245.4,2576.9 2317.4,2617.5 2388.1,2658.9 2457.5,2701.0 2525.3,2743.8 2591.5,2787.3 2655.9,2831.4 2718.4,2876.1 2778.9,2921.4 2837.2,2967.3 2893.2,3013.7 2946.8,3060.7 2997.9,3108.1 3046.2,3156.0 3091.7,3204.4  A 1625.580,1625.580 0.00 0,1 3085.8,3209.8 L 3085.8,3209.8 3040.6,3161.2 2992.5,3113.2 2941.7,3065.6 2888.4,3018.5 2832.7,2971.9 2774.6,2925.9 2714.4,2880.4 2652.1,2835.6 2587.9,2791.3 2522.0,2747.7 2454.4,2704.8 2385.2,2662.6 2314.7,2621.2 2242.9,2580.5 2169.9,2540.7 2095.9,2501.7 2021.0,2463.7 1945.2,2426.6 1868.8,2390.6 1791.9,2355.6 1714.5,2321.7 1636.8,2289.0 1558.9,2257.6 1480.9,2227.4 1402.9,2198.6 1325.0,2171.2 1247.4,2145.3 1170.2,2120.9 1093.4,2098.2 1017.2,2077.2 941.7,2057.9 866.9,2040.5 793.1,2025.0 720.2,2011.5 648.5,2000.1 577.9,1990.8 508.7,1983.9 440.9,1979.3 374.6,1977.1  Z" style="stroke-width: 0.0;  fill: rgb(220,140,52);" />
<path d="M 374.714,1969.070 A 1625.580,1625.580 0.00 0,1 374.8,1965.1 L 374.8,1965.1 443.1,1967.7 512.9,1972.5 584.2,1979.5 656.9,1988.4 730.9,1999.2 806.1,2011.8 882.4,2026.1 959.8,2041.9 1038.1,2059.2 1117.3,2077.9 1197.2,2097.9 1277.7,2119.1 1358.8,2141.4 1440.4,2164.8 1522.3,2189.1 1604.5,2214.4 1686.8,2240.6 1769.1,2267.6 1851.3,2295.4 1933.4,2324.0 2015.1,2353.2 2096.5,2383.0 2177.3,2413.5 2257.4,2444.6 2336.8,2476.3 2415.3,2508.6 2492.7,2541.4 2569.1,2574.7 2644.1,2608.6 2717.8,2643.1 2790.0,2678.1 2860.5,2713.6 2929.2,2749.8 2996.0,2786.6 3060.8,2824.0 3123.3,2862.0 3183.6,2900.8 3241.3,2940.3 3296.5,2980.6  A 1625.580,1625.580 0.00 0,1 3294.1,2983.8 L 3294.1,2983.8 3239.1,2943.4 3181.4,2903.8 3121.3,2864.9 3058.8,2826.7 2994.2,2789.2 2927.5,2752.4 2858.9,2716.1 2788.5,2680.5 2716.4,2645.4 2642.8,2610.8 2567.9,2576.9 2491.6,2543.5 2414.2,2510.6 2335.8,2478.3 2256.5,2446.6 2176.4,2415.5 2095.7,2385.0 2014.4,2355.1 1932.7,2325.9 1850.7,2297.4 1768.5,2269.6 1686.2,2242.6 1603.9,2216.5 1521.8,2191.2 1439.9,2166.9 1358.4,2143.6 1277.3,2121.4 1196.8,2100.3 1116.9,2080.4 1037.7,2061.9 959.5,2044.7 882.1,2029.0 805.8,2014.9 730.6,2002.5 656.6,1991.8 584.0,1983.0 512.7,1976.2 442.9,1971.5 374.7,1969.1  Z" style="stroke-width: 0.0;  fill: rgb(220,140,52);" />
<path d="M 374.795,1965.067 A 1625.580,1625.580 0.00 0,1 374.8,1963.1 L 374.8,1963.1 445.2,1965.7 517.1,1970.2 590.5,1976.6 665.3,1984.6 741.5,1994.1 818.9,2005.0 897.5,2017.2 977.2,2030.5 1057.9,2044.8 1139.6,2060.0 1222.1,2076.1 1305.3,2092.9 1389.3,2110.3 1473.8,2128.3 1558.7,2146.8 1644.1,2165.8 1729.8,2185.1 1815.6,2204.8 1901.6,2224.9 1987.5,2245.1 2073.3,2265.7 2158.9,2286.5 2244.2,2307.5 2329.0,2328.7 2413.3,2350.1 2496.9,2371.8 2579.8,2393.8 2661.7,2416.0 2742.7,2438.5 2822.6,2461.4 2901.1,2484.7 2978.4,2508.5 3054.1,2532.8 3128.2,2557.6 3200.6,2583.2 3271.1,2609.5 3339.6,2636.6 3406.0,2664.7 3470.1,2693.8  A 1625.580,1625.580 0.00 0,1 3469.2,2695.6 L 3469.2,2695.6 3405.2,2666.4 3338.9,2638.3 3270.4,2611.1 3200.0,2584.7 3127.6,2559.1 3053.6,2534.2 2977.9,2509.8 2900.7,2486.0 2822.1,2462.7 2742.3,2439.7 2661.4,2417.1 2579.4,2394.9 2496.6,2372.9 2413.0,2351.2 2328.7,2329.7 2243.9,2308.5 2158.6,2287.5 2073.0,2266.7 1987.2,2246.1 1901.3,2225.9 1815.4,2205.9 1729.6,2186.2 1643.9,2166.8 1558.5,2147.9 1473.6,2129.4 1389.1,2111.4 1305.2,2094.0 1221.9,2077.3 1139.4,2061.3 1057.8,2046.1 977.1,2031.9 897.4,2018.7 818.8,2006.6 741.4,1995.7 665.2,1986.3 590.4,1978.4 517.0,1972.1 445.1,1967.6 374.8,1965.1  Z" style="stroke-width: 0.0;  fill: rgb(220,140,52);" />
<path d="M 374.840,1963.065 A 1625.580,1625.580 0.00 0,1 375.0,1957.1 L 375.0,1957.1 445.4,1957.9 517.6,1956.9 591.2,1954.2 666.4,1949.9 743.0,1944.2 820.9,1937.1 900.1,1928.9 980.4,1919.7 1061.8,1909.4 1144.2,1898.3 1227.4,1886.5 1311.4,1874.0 1396.2,1860.8 1481.5,1847.2 1567.4,1833.0 1653.6,1818.5 1740.2,1803.6 1827.0,1788.3 1913.9,1772.8 2000.8,1757.0 2087.6,1741.0 2174.2,1724.8 2260.4,1708.3 2346.3,1691.6 2431.6,1674.6 2516.3,1657.4 2600.3,1639.9 2683.4,1622.1 2765.5,1603.9 2846.5,1585.3 2926.2,1566.3 3004.7,1546.7 3081.7,1526.6 3157.1,1505.8 3230.8,1484.2 3302.7,1461.8 3372.6,1438.4 3440.5,1414.0 3506.2,1388.5  A 1625.580,1625.580 0.00 0,1 3508.4,1394.0 L 3508.4,1394.0 3442.6,1419.4 3374.6,1443.6 3304.5,1466.7 3232.5,1489.0 3158.6,1510.3 3083.1,1531.0 3006.0,1550.9 2927.5,1570.3 2847.6,1589.2 2766.5,1607.6 2684.3,1625.7 2601.2,1643.4 2517.2,1660.7 2432.4,1677.9 2347.0,1694.7 2261.1,1711.4 2174.8,1727.8 2088.2,1744.1 2001.3,1760.1 1914.4,1775.9 1827.5,1791.4 1740.7,1806.7 1654.1,1821.6 1567.8,1836.2 1481.9,1850.5 1396.6,1864.2 1311.8,1877.5 1227.8,1890.2 1144.5,1902.2 1062.1,1913.4 980.7,1923.8 900.3,1933.3 821.1,1941.7 743.2,1949.0 666.5,1954.9 591.3,1959.4 517.6,1962.4 445.4,1963.7 374.8,1963.1  Z" style="stroke-width: 0.0;  fill: rgb(220,140,52);" />
<path d="M 374.987,1957.060 A 1625.580,1625.580 0.00 0,1 375.2,1951.1 L 375.2,1951.1 442.4,1951.9 511.2,1950.4 581.7,1946.8 653.5,1941.1 726.8,1933.4 801.3,1923.8 876.9,1912.4 953.6,1899.3 1031.2,1884.5 1109.7,1868.2 1188.9,1850.3 1268.7,1831.1 1349.1,1810.5 1429.9,1788.7 1510.9,1765.6 1592.2,1741.3 1673.5,1716.0 1754.8,1689.5 1835.9,1662.1 1916.8,1633.7 1997.2,1604.4 2077.2,1574.2 2156.5,1543.1 2235.1,1511.3 2312.8,1478.6 2389.5,1445.1 2465.1,1411.0 2539.4,1376.1 2612.4,1340.4 2683.8,1304.1 2753.6,1267.1 2821.7,1229.4 2887.8,1191.0 2952.0,1151.9 3013.9,1112.1 3073.6,1071.6 3130.8,1030.4 3185.5,988.5 3237.4,945.8  A 1625.580,1625.580 0.00 0,1 3241.3,950.4 L 3241.3,950.4 3189.2,993.0 3134.3,1034.7 3076.9,1075.8 3017.0,1116.1 2954.9,1155.8 2890.6,1194.7 2824.2,1233.0 2756.0,1270.6 2686.0,1307.5 2614.4,1343.7 2541.3,1379.2 2466.9,1414.0 2391.2,1448.1 2314.4,1481.5 2236.5,1514.1 2157.9,1546.0 2078.4,1577.0 1998.4,1607.2 1917.8,1636.6 1836.9,1665.0 1755.7,1692.5 1674.3,1719.0 1592.9,1744.4 1511.6,1768.7 1430.5,1791.9 1349.7,1813.9 1269.3,1834.6 1189.4,1854.0 1110.1,1872.0 1031.6,1888.5 953.9,1903.5 877.2,1916.8 801.5,1928.4 726.9,1938.2 653.6,1946.1 581.7,1952.1 511.2,1955.9 442.3,1957.6 375.0,1957.1  Z" style="stroke-width: 0.0;  fill: rgb(220,140,52);" />
<path d="M 375.157,1951.055 A 1625.580,1625.580 0.00 0,1 375.2,1949.1 L 375.2,1949.1 434.6,1949.6 495.0,1947.5 556.1,1942.9 617.7,1935.5 679.6,1925.6 741.7,1912.9 803.8,1897.7 865.6,1879.8 927.0,1859.3 987.9,1836.2 1048.1,1810.5 1107.4,1782.3 1165.8,1751.6 1222.9,1718.6 1278.9,1683.1 1333.4,1645.3 1386.4,1605.3 1437.7,1563.1 1487.3,1518.8 1535.1,1472.5 1580.9,1424.3 1624.7,1374.3 1666.4,1322.6 1705.8,1269.3 1743.0,1214.5 1777.9,1158.4 1810.4,1101.0 1840.4,1042.6 1868.0,983.3 1893.0,923.1 1915.4,862.4 1935.2,801.1 1952.4,739.6 1967.0,678.0 1978.9,616.4 1988.1,555.0 1994.7,494.1 1998.7,433.8 2000.0,374.4  A 1625.580,1625.580 0.00 0,1 2002.0,374.4 L 2002.0,374.4 2000.6,433.9 1996.6,494.1 1989.9,555.1 1980.6,616.4 1968.6,678.0 1954.0,739.7 1936.7,801.3 1916.8,862.5 1894.3,923.3 1869.2,983.5 1841.6,1042.9 1811.5,1101.3 1778.9,1158.7 1744.0,1214.8 1706.7,1269.6 1667.1,1323.0 1625.4,1374.7 1581.6,1424.8 1535.7,1473.1 1487.9,1519.4 1438.2,1563.7 1386.8,1606.0 1333.8,1646.1 1279.2,1683.9 1223.2,1719.5 1166.0,1752.6 1107.7,1783.4 1048.3,1811.6 988.1,1837.4 927.2,1860.6 865.7,1881.2 803.8,1899.1 741.8,1914.5 679.7,1927.2 617.7,1937.2 556.1,1944.6 495.0,1949.4 434.6,1951.5 375.2,1951.1  Z" style="stroke-width: 0.0;  fill: rgb(220,140,52);" />
</g>
<defs>
<pattern id="hline" width="10" height="10" patternTransform="rotate(0 0 0)" patternUnits="userSpaceOnUse"><line x1="0" y1="0" x2="10" y2="0" style="stroke:black;stroke-width:5" /></pattern>
<pattern id="checker" width="10" height="10" patternTransform="rotate(45 0 0)" patternUnits="userSpaceOnUse"><line x1="0" y1="0" x2="10" y2="0" style="stroke:black;stroke-width:5" /><line x1="0" y1="0" x2="0" y2="10" style="stroke:black;stroke-width:4" /></pattern>
<pattern id="vline-sparse" width="10" height="10" patternTransform="rotate(0 0 0)" patternUnits="userSpaceOnUse"><line x1="0" y1="0" x2="0" y2="10" style="stroke:black;stroke-width:2" /></pattern>
<pattern id="vline" width="10" height="10" patternTransform="rotate(0 0 0)" patternUnits="userSpaceOnUse"><line x1="0" y1="0" x2="0" y2="10" style="stroke:black;stroke-width:5" /></pattern>
<pattern id="hline-sparse" width="10" height="10" patternTransform="rotate(0 0 0)" patternUnits="userSpaceOnUse"><line x1="0" y1="0" x2="10" y2="0" style="stroke:black;stroke-width:2" /></pattern>
<pattern id="checker" width="10" height="10" patternTransform="rotate(45 0 0)" patternUnits="userSpaceOnUse"><line x1="0" y1="0" x2="10" y2="0" style="stroke:black;stroke-width:2" /><line x1="0" y1="0" x2="0" y2="10" style="stroke:black;stroke-width:2" /></pattern>
</defs>
</svg>
