<?xml version="1.0" encoding="utf-8" standalone="no"?>
<!DOCTYPE svg PUBLIC "-//W3C//DTD SVG 1.1//EN" "http://www.w3.org/Graphics/SVG/1.1/DTD/svg11.dtd">
<svg width="4000px" height="4000px" version="1.1" xmlns="http://www.w3.org/2000/svg" xmlns:xlink="http://www.w3.org/1999/xlink">
<g id="bg">
<rect x="0" y="0" width="4000px" height="4000px" style="fill:rgb(255,255,255);"/>
</g>
<g id="ideograms">
<path d="M2000.000,358.000 A1642.000,1642.000 40.000 0,1 2727.139,527.779 L2743.967,493.709 A1680.000,1680.000 0.000 0,0 2000.000,320.000 Z" style="stroke-width:2.0;stroke:rgb(255,255,255);stroke-linecap:round;fill:rgb(185,185,185);" />
<text x="2412.3" y="302.2" font-size="36.4px" font-family="CMUBright-Roman" style="text-anchor:start;fill:rgb(0,0,0);" transform="rotate(283.1,2412.3,302.2)" >Engineering</text>
<path d="M2000.000,358.000 A1642.000,1642.000 40.000 0,1 2727.139,527.779 L2743.967,493.709 A1680.000,1680.000 0.000 0,0 2000.000,320.000 Z" style="stroke-width:2.0;stroke:rgb(255,255,255);stroke-linecap:round;fill:none;" />
<path d="M2759.082,543.992 A1642.000,1642.000 40.000 0,1 3284.099,976.646 L3313.816,952.963 A1680.000,1680.000 0.000 0,0 2776.649,510.297 Z" style="stroke-width:2.0;stroke:rgb(255,255,255);stroke-linecap:round;fill:rgb(185,185,185);" />
<text x="3120.8" y="659.6" font-size="36.4px" font-family="CMUBright-Roman" style="text-anchor:start;fill:rgb(0,0,0);" transform="rotate(309.5,3120.8,659.6)" >Finance-Investment</text>
<path d="M2759.082,543.992 A1642.000,1642.000 40.000 0,1 3284.099,976.646 L3313.816,952.963 A1680.000,1680.000 0.000 0,0 2776.649,510.297 Z" style="stroke-width:2.0;stroke:rgb(255,255,255);stroke-linecap:round;fill:none;" />
<path d="M3306.118,1004.902 A1642.000,1642.000 40.000 0,1 3557.132,1478.938 L3593.167,1466.879 A1680.000,1680.000 0.000 0,0 3336.345,981.873 Z" style="stroke-width:2.0;stroke:rgb(255,255,255);stroke-linecap:round;fill:rgb(185,185,185);" />
<text x="3551.5" y="1196.5" font-size="36.4px" font-family="CMUBright-Roman" style="text-anchor:start;fill:rgb(0,0,0);" transform="rotate(332.1,3551.5,1196.5)" >Management-Operations</text>
<path d="M3306.118,1004.902 A1642.000,1642.000 40.000 0,1 3557.132,1478.938 L3593.167,1466.879 A1680.000,1680.000 0.000 0,0 3336.345,981.873 Z" style="stroke-width:2.0;stroke:rgb(255,255,255);stroke-linecap:round;fill:none;" />
<path d="M3568.128,1513.031 A1642.000,1642.000 40.000 0,1 3640.479,1929.339 L3678.444,1927.703 A1680.000,1680.000 0.000 0,0 3604.418,1501.761 Z" style="stroke-width:2.0;stroke:rgb(255,255,255);stroke-linecap:round;fill:rgb(185,185,185);" />
<text x="3723.5" y="1713.2" font-size="36.4px" font-family="CMUBright-Roman" style="text-anchor:start;fill:rgb(0,0,0);" transform="rotate(350.1,3723.5,1713.2)" >Software-Data</text>
<path d="M3568.128,1513.031 A1642.000,1642.000 40.000 0,1 3640.479,1929.339 L3678.444,1927.703 A1680.000,1680.000 0.000 0,0 3604.418,1501.761 Z" style="stroke-width:2.0;stroke:rgb(255,255,255);stroke-linecap:round;fill:none;" />
<path d="M3641.630,1965.142 A1642.000,1642.000 40.000 0,1 3597.388,2380.151 L3634.356,2388.948 A1680.000,1680.000 0.000 0,0 3679.621,1964.336 Z" style="stroke-width:2.0;stroke:rgb(255,255,255);stroke-linecap:round;fill:rgb(185,185,185);" />
<text x="3735.6" y="2201.1" font-size="36.4px" font-family="CMUBright-Roman" style="text-anchor:start;fill:rgb(0,0,0);" transform="rotate(6.1,3735.6,2201.1)" >Sales-Marketing</text>
<path d="M3641.630,1965.142 A1642.000,1642.000 40.000 0,1 3597.388,2380.151 L3634.356,2388.948 A1680.000,1680.000 0.000 0,0 3679.621,1964.336 Z" style="stroke-width:2.0;stroke:rgb(255,255,255);stroke-linecap:round;fill:none;" />
<path d="M3588.715,2414.907 A1642.000,1642.000 40.000 0,1 3447.858,2774.513 L3481.365,2792.437 A1680.000,1680.000 0.000 0,0 3625.482,2424.509 Z" style="stroke-width:2.0;stroke:rgb(255,255,255);stroke-linecap:round;fill:rgb(185,185,185);" />
<text x="3620.9" y="2652.1" font-size="36.4px" font-family="CMUBright-Roman" style="text-anchor:start;fill:rgb(0,0,0);" transform="rotate(21.4,3620.9,2652.1)" >Accounting-Audit</text>
<path d="M3588.715,2414.907 A1642.000,1642.000 40.000 0,1 3447.858,2774.513 L3481.365,2792.437 A1680.000,1680.000 0.000 0,0 3625.482,2424.509 Z" style="stroke-width:2.0;stroke:rgb(255,255,255);stroke-linecap:round;fill:none;" />
<path d="M3430.618,2805.914 A1642.000,1642.000 40.000 0,1 3261.549,3051.027 L3290.745,3075.350 A1680.000,1680.000 0.000 0,0 3463.726,2824.565 Z" style="stroke-width:2.0;stroke:rgb(255,255,255);stroke-linecap:round;fill:rgb(185,185,185);" />
<text x="3429.4" y="3004.8" font-size="36.4px" font-family="CMUBright-Roman" style="text-anchor:start;fill:rgb(0,0,0);" transform="rotate(34.6,3429.4,3004.8)" >Leadership-General</text>
<path d="M3430.618,2805.914 A1642.000,1642.000 40.000 0,1 3261.549,3051.027 L3290.745,3075.350 A1680.000,1680.000 0.000 0,0 3463.726,2824.565 Z" style="stroke-width:2.0;stroke:rgb(255,255,255);stroke-linecap:round;fill:none;" />
<path d="M3238.321,3078.297 A1642.000,1642.000 40.000 0,1 3039.505,3271.060 L3063.562,3300.476 A1680.000,1680.000 0.000 0,0 3266.979,3103.252 Z" style="stroke-width:2.0;stroke:rgb(255,255,255);stroke-linecap:round;fill:rgb(185,185,185);" />
<text x="3207.2" y="3263.1" font-size="36.4px" font-family="CMUBright-Roman" style="text-anchor:start;fill:rgb(0,0,0);" transform="rotate(45.9,3207.2,3263.1)" >Clinical-Care</text>
<path d="M3238.321,3078.297 A1642.000,1642.000 40.000 0,1 3039.505,3271.060 L3063.562,3300.476 A1680.000,1680.000 0.000 0,0 3266.979,3103.252 Z" style="stroke-width:2.0;stroke:rgb(255,255,255);stroke-linecap:round;fill:none;" />
<path d="M3011.529,3293.434 A1642.000,1642.000 40.000 0,1 2784.385,3442.534 L2802.537,3475.918 A1680.000,1680.000 0.000 0,0 3034.939,3323.368 Z" style="stroke-width:2.0;stroke:rgb(255,255,255);stroke-linecap:round;fill:rgb(185,185,185);" />
<text x="2948.3" y="3467.5" font-size="36.4px" font-family="CMUBright-Roman" style="text-anchor:start;fill:rgb(0,0,0);" transform="rotate(56.7,2948.3,3467.5)" >Research-Science</text>
<path d="M3011.529,3293.434 A1642.000,1642.000 40.000 0,1 2784.385,3442.534 L2802.537,3475.918 A1680.000,1680.000 0.000 0,0 3034.939,3323.368 Z" style="stroke-width:2.0;stroke:rgb(255,255,255);stroke-linecap:round;fill:none;" />
<path d="M2752.729,3459.302 A1642.000,1642.000 40.000 0,1 2556.245,3544.913 L2569.118,3580.666 A1680.000,1680.000 0.000 0,0 2770.149,3493.074 Z" style="stroke-width:2.0;stroke:rgb(255,255,255);stroke-linecap:round;fill:rgb(185,185,185);" />
<text x="2686.4" y="3606.7" font-size="36.4px" font-family="CMUBright-Roman" style="text-anchor:start;fill:rgb(0,0,0);" transform="rotate(66.5,2686.4,3606.7)" >Education</text>
<path d="M2752.729,3459.302 A1642.000,1642.000 40.000 0,1 2556.245,3544.913 L2569.118,3580.666 A1680.000,1680.000 0.000 0,0 2770.149,3493.074 Z" style="stroke-width:2.0;stroke:rgb(255,255,255);stroke-linecap:round;fill:none;" />
<path d="M2522.411,3556.679 A1642.000,1642.000 40.000 0,1 2417.174,3588.121 L2426.829,3624.875 A1680.000,1680.000 0.000 0,0 2534.501,3592.705 Z" style="stroke-width:2.0;stroke:rgb(255,255,255);stroke-linecap:round;fill:rgb(185,185,185);" />
<text x="2488.2" y="3677.6" font-size="36.4px" font-family="CMUBright-Roman" style="text-anchor:start;fill:rgb(0,0,0);" transform="rotate(73.4,2488.2,3677.6)" >IT-Infrastructure</text>
<path d="M2522.411,3556.679 A1642.000,1642.000 40.000 0,1 2417.174,3588.121 L2426.829,3624.875 A1680.000,1680.000 0.000 0,0 2534.501,3592.705 Z" style="stroke-width:2.0;stroke:rgb(255,255,255);stroke-linecap:round;fill:none;" />
<path d="M2382.430,3596.844 A1642.000,1642.000 40.000 0,1 2321.118,3610.294 L2328.550,3647.560 A1680.000,1680.000 0.000 0,0 2391.281,3633.799 Z" style="stroke-width:2.0;stroke:rgb(255,255,255);stroke-linecap:round;fill:rgb(185,185,185);" />
<text x="2358.7" y="3710.0" font-size="36.4px" font-family="CMUBright-Roman" style="text-anchor:start;fill:rgb(0,0,0);" transform="rotate(77.6,2358.7,3710.0)" >Legal-Policy</text>
<path d="M2382.430,3596.844 A1642.000,1642.000 40.000 0,1 2321.118,3610.294 L2328.550,3647.560 A1680.000,1680.000 0.000 0,0 2391.281,3633.799 Z" style="stroke-width:2.0;stroke:rgb(255,255,255);stroke-linecap:round;fill:none;" />
<path d="M2285.913,3616.916 A1642.000,1642.000 40.000 0,1 2249.787,3622.890 L2255.567,3660.447 A1680.000,1680.000 0.000 0,0 2292.530,3654.336 Z" style="stroke-width:2.0;stroke:rgb(255,255,255);stroke-linecap:round;fill:rgb(185,185,185);" />
<text x="2272.7" y="3725.8" font-size="36.4px" font-family="CMUBright-Roman" style="text-anchor:start;fill:rgb(0,0,0);" transform="rotate(80.6,2272.7,3725.8)" >Social-Service</text>
<path d="M2285.913,3616.916 A1642.000,1642.000 40.000 0,1 2249.787,3622.890 L2255.567,3660.447 A1680.000,1680.000 0.000 0,0 2292.530,3654.336 Z" style="stroke-width:2.0;stroke:rgb(255,255,255);stroke-linecap:round;fill:none;" />
<path d="M2214.324,3627.952 A1642.000,1642.000 40.000 0,1 1245.263,3458.265 L1227.797,3492.013 A1680.000,1680.000 0.000 0,0 2219.284,3665.627 Z" style="stroke-width:2.0;stroke:rgb(255,255,255);stroke-linecap:round;fill:rgb(15,52,135);" />
<text x="1714.4" y="3723.7" font-size="36.4px" font-family="CMUBright-Roman" style="text-anchor:end;fill:rgb(0,0,0);" transform="rotate(-80.1,1714.4,3723.7)" >Finance-Accounting</text>
<path d="M2214.324,3627.952 A1642.000,1642.000 40.000 0,1 1245.263,3458.265 L1227.797,3492.013 A1680.000,1680.000 0.000 0,0 2219.284,3665.627 Z" style="stroke-width:2.0;stroke:rgb(255,255,255);stroke-linecap:round;fill:none;" />
<path d="M1213.631,3441.453 A1642.000,1642.000 40.000 0,1 879.437,3200.209 L853.504,3227.985 A1680.000,1680.000 0.000 0,0 1195.432,3474.812 Z" style="stroke-width:2.0;stroke:rgb(255,255,255);stroke-linecap:round;fill:rgb(28,75,160);" />
<text x="990.4" y="3426.0" font-size="36.4px" font-family="CMUBright-Roman" style="text-anchor:end;fill:rgb(0,0,0);" transform="rotate(-54.2,990.4,3426.0)" >Marketing-Communication</text>
<path d="M1213.631,3441.453 A1642.000,1642.000 40.000 0,1 879.437,3200.209 L853.504,3227.985 A1680.000,1680.000 0.000 0,0 1195.432,3474.812 Z" style="stroke-width:2.0;stroke:rgb(255,255,255);stroke-linecap:round;fill:none;" />
<path d="M853.521,3175.478 A1642.000,1642.000 40.000 0,1 639.254,2918.986 L607.763,2940.253 A1680.000,1680.000 0.000 0,0 826.988,3202.682 Z" style="stroke-width:2.0;stroke:rgb(255,255,255);stroke-linecap:round;fill:rgb(42,98,180);" />
<text x="667.2" y="3129.7" font-size="36.4px" font-family="CMUBright-Roman" style="text-anchor:end;fill:rgb(0,0,0);" transform="rotate(-39.9,667.2,3129.7)" >General-Business</text>
<path d="M853.521,3175.478 A1642.000,1642.000 40.000 0,1 639.254,2918.986 L607.763,2940.253 A1680.000,1680.000 0.000 0,0 826.988,3202.682 Z" style="stroke-width:2.0;stroke:rgb(255,255,255);stroke-linecap:round;fill:none;" />
<path d="M619.530,2889.082 A1642.000,1642.000 40.000 0,1 479.680,2620.315 L444.496,2634.671 A1680.000,1680.000 0.000 0,0 587.583,2909.658 Z" style="stroke-width:2.0;stroke:rgb(255,255,255);stroke-linecap:round;fill:rgb(60,120,198);" />
<text x="457.3" y="2820.2" font-size="36.4px" font-family="CMUBright-Roman" style="text-anchor:end;fill:rgb(0,0,0);" transform="rotate(-27.5,457.3,2820.2)" >Operations-Analytics</text>
<path d="M619.530,2889.082 A1642.000,1642.000 40.000 0,1 479.680,2620.315 L444.496,2634.671 A1680.000,1680.000 0.000 0,0 587.583,2909.658 Z" style="stroke-width:2.0;stroke:rgb(255,255,255);stroke-linecap:round;fill:none;" />
<path d="M466.510,2587.002 A1642.000,1642.000 40.000 0,1 421.749,2453.087 L385.224,2463.573 A1680.000,1680.000 0.000 0,0 431.021,2600.587 Z" style="stroke-width:2.0;stroke:rgb(255,255,255);stroke-linecap:round;fill:rgb(82,145,215);" />
<text x="347.9" y="2568.6" font-size="36.4px" font-family="CMUBright-Roman" style="text-anchor:end;fill:rgb(0,0,0);" transform="rotate(-18.5,347.9,2568.6)" >Specialized-Business</text>
<path d="M466.510,2587.002 A1642.000,1642.000 40.000 0,1 421.749,2453.087 L385.224,2463.573 A1680.000,1680.000 0.000 0,0 431.021,2600.587 Z" style="stroke-width:2.0;stroke:rgb(255,255,255);stroke-linecap:round;fill:none;" />
<path d="M412.241,2418.550 A1642.000,1642.000 40.000 0,1 391.911,2331.987 L354.696,2339.670 A1680.000,1680.000 0.000 0,0 375.496,2428.236 Z" style="stroke-width:2.0;stroke:rgb(255,255,255);stroke-linecap:round;fill:rgb(108,170,228);" />
<text x="301.9" y="2411.1" font-size="36.4px" font-family="CMUBright-Roman" style="text-anchor:end;fill:rgb(0,0,0);" transform="rotate(-13.2,301.9,2411.1)" >Economics</text>
<path d="M412.241,2418.550 A1642.000,1642.000 40.000 0,1 391.911,2331.987 L354.696,2339.670 A1680.000,1680.000 0.000 0,0 375.496,2428.236 Z" style="stroke-width:2.0;stroke:rgb(255,255,255);stroke-linecap:round;fill:none;" />
<path d="M385.052,2296.827 A1642.000,1642.000 40.000 0,1 366.030,2162.194 L328.216,2165.947 A1680.000,1680.000 0.000 0,0 347.678,2303.697 Z" style="stroke-width:2.0;stroke:rgb(255,255,255);stroke-linecap:round;fill:rgb(200,108,30);" />
<text x="271.8" y="2256.8" font-size="36.4px" font-family="CMUBright-Roman" style="text-anchor:end;fill:rgb(0,0,0);" transform="rotate(-8.0,271.8,2256.8)" >Social-Sciences</text>
<path d="M385.052,2296.827 A1642.000,1642.000 40.000 0,1 366.030,2162.194 L328.216,2165.947 A1680.000,1680.000 0.000 0,0 347.678,2303.697 Z" style="stroke-width:2.0;stroke:rgb(255,255,255);stroke-linecap:round;fill:none;" />
<path d="M362.881,2126.510 A1642.000,1642.000 40.000 0,1 359.682,2074.299 L321.721,2076.018 A1680.000,1680.000 0.000 0,0 324.994,2129.438 Z" style="stroke-width:2.0;stroke:rgb(255,255,255);stroke-linecap:round;fill:rgb(220,140,52);" />
<text x="256.9" y="2119.3" font-size="36.4px" font-family="CMUBright-Roman" style="text-anchor:end;fill:rgb(0,0,0);" transform="rotate(-3.5,256.9,2119.3)" >Humanities-Liberal-Arts</text>
<path d="M362.881,2126.510 A1642.000,1642.000 40.000 0,1 359.682,2074.299 L321.721,2076.018 A1680.000,1680.000 0.000 0,0 324.994,2129.438 Z" style="stroke-width:2.0;stroke:rgb(255,255,255);stroke-linecap:round;fill:none;" />
<path d="M358.451,2038.498 A1642.000,1642.000 40.000 0,1 358.158,2022.807 L320.162,2023.335 A1680.000,1680.000 0.000 0,0 320.462,2039.389 Z" style="stroke-width:2.0;stroke:rgb(255,255,255);stroke-linecap:round;fill:rgb(235,168,78);" />
<text x="253.4" y="2045.1" font-size="36.4px" font-family="CMUBright-Roman" style="text-anchor:end;fill:rgb(0,0,0);" transform="rotate(-1.1,253.4,2045.1)" >International-Studies</text>
<path d="M358.451,2038.498 A1642.000,1642.000 40.000 0,1 358.158,2022.807 L320.162,2023.335 A1680.000,1680.000 0.000 0,0 320.462,2039.389 Z" style="stroke-width:2.0;stroke:rgb(255,255,255);stroke-linecap:round;fill:none;" />
<path d="M358.052,1986.985 A1642.000,1642.000 40.000 0,1 367.336,1825.152 L329.552,1821.105 A1680.000,1680.000 0.000 0,0 320.053,1986.684 Z" style="stroke-width:2.0;stroke:rgb(255,255,255);stroke-linecap:round;fill:rgb(175,35,42);" />
<text x="255.0" y="1912.4" font-size="36.4px" font-family="CMUBright-Roman" style="text-anchor:end;fill:rgb(0,0,0);" transform="rotate(3.3,255.0,1912.4)" >Teacher-Education</text>
<path d="M358.052,1986.985 A1642.000,1642.000 40.000 0,1 367.336,1825.152 L329.552,1821.105 A1680.000,1680.000 0.000 0,0 320.053,1986.684 Z" style="stroke-width:2.0;stroke:rgb(255,255,255);stroke-linecap:round;fill:none;" />
<path d="M371.539,1789.577 A1642.000,1642.000 40.000 0,1 376.636,1753.316 L339.067,1747.607 A1680.000,1680.000 0.000 0,0 333.852,1784.707 Z" style="stroke-width:2.0;stroke:rgb(255,255,255);stroke-linecap:round;fill:rgb(195,58,55);" />
<text x="268.1" y="1769.2" font-size="36.4px" font-family="CMUBright-Roman" style="text-anchor:end;fill:rgb(0,0,0);" transform="rotate(8.0,268.1,1769.2)" >Social-Work</text>
<path d="M371.539,1789.577 A1642.000,1642.000 40.000 0,1 376.636,1753.316 L339.067,1747.607 A1680.000,1680.000 0.000 0,0 333.852,1784.707 Z" style="stroke-width:2.0;stroke:rgb(255,255,255);stroke-linecap:round;fill:none;" />
<path d="M382.404,1717.961 A1642.000,1642.000 40.000 0,1 388.090,1687.094 L350.786,1679.853 A1680.000,1680.000 0.000 0,0 344.968,1711.434 Z" style="stroke-width:2.0;stroke:rgb(255,255,255);stroke-linecap:round;fill:rgb(215,82,72);" />
<text x="279.0" y="1698.7" font-size="36.4px" font-family="CMUBright-Roman" style="text-anchor:end;fill:rgb(0,0,0);" transform="rotate(10.4,279.0,1698.7)" >Special-Education</text>
<path d="M382.404,1717.961 A1642.000,1642.000 40.000 0,1 388.090,1687.094 L350.786,1679.853 A1680.000,1680.000 0.000 0,0 344.968,1711.434 Z" style="stroke-width:2.0;stroke:rgb(255,255,255);stroke-linecap:round;fill:none;" />
<path d="M395.300,1652.005 A1642.000,1642.000 40.000 0,1 396.416,1646.895 L359.305,1638.723 A1680.000,1680.000 0.000 0,0 358.163,1643.952 Z" style="stroke-width:2.0;stroke:rgb(255,255,255);stroke-linecap:round;fill:rgb(230,112,95);" />
<text x="289.8" y="1642.1" font-size="36.4px" font-family="CMUBright-Roman" style="text-anchor:end;fill:rgb(0,0,0);" transform="rotate(12.3,289.8,1642.1)" >Educational-Leadership</text>
<path d="M395.300,1652.005 A1642.000,1642.000 40.000 0,1 396.416,1646.895 L359.305,1638.723 A1680.000,1680.000 0.000 0,0 358.163,1643.952 Z" style="stroke-width:2.0;stroke:rgb(255,255,255);stroke-linecap:round;fill:none;" />
<path d="M404.501,1611.997 A1642.000,1642.000 40.000 0,1 423.388,1541.244 L386.901,1530.627 A1680.000,1680.000 0.000 0,0 367.577,1603.017 Z" style="stroke-width:2.0;stroke:rgb(255,255,255);stroke-linecap:round;fill:rgb(0,130,142);" />
<text x="308.7" y="1561.5" font-size="36.4px" font-family="CMUBright-Roman" style="text-anchor:end;fill:rgb(0,0,0);" transform="rotate(14.9,308.7,1561.5)" >Communication-Studies</text>
<path d="M404.501,1611.997 A1642.000,1642.000 40.000 0,1 423.388,1541.244 L386.901,1530.627 A1680.000,1680.000 0.000 0,0 367.577,1603.017 Z" style="stroke-width:2.0;stroke:rgb(255,255,255);stroke-linecap:round;fill:none;" />
<path d="M433.770,1506.960 A1642.000,1642.000 40.000 0,1 448.549,1462.261 L412.644,1449.816 A1680.000,1680.000 0.000 0,0 397.524,1495.549 Z" style="stroke-width:2.0;stroke:rgb(255,255,255);stroke-linecap:round;fill:rgb(0,165,172);" />
<text x="337.2" y="1463.4" font-size="36.4px" font-family="CMUBright-Roman" style="text-anchor:end;fill:rgb(0,0,0);" transform="rotate(18.3,337.2,1463.4)" >Journalism-Media</text>
<path d="M433.770,1506.960 A1642.000,1642.000 40.000 0,1 448.549,1462.261 L412.644,1449.816 A1680.000,1680.000 0.000 0,0 397.524,1495.549 Z" style="stroke-width:2.0;stroke:rgb(255,255,255);stroke-linecap:round;fill:none;" />
<path d="M460.649,1428.544 A1642.000,1642.000 40.000 0,1 466.181,1413.858 L430.684,1400.293 A1680.000,1680.000 0.000 0,0 425.024,1415.319 Z" style="stroke-width:2.0;stroke:rgb(255,255,255);stroke-linecap:round;fill:rgb(38,195,195);" />
<text x="359.4" y="1399.1" font-size="36.4px" font-family="CMUBright-Roman" style="text-anchor:end;fill:rgb(0,0,0);" transform="rotate(20.6,359.4,1399.1)" >Creative-Writing</text>
<path d="M460.649,1428.544 A1642.000,1642.000 40.000 0,1 466.181,1413.858 L430.684,1400.293 A1680.000,1680.000 0.000 0,0 425.024,1415.319 Z" style="stroke-width:2.0;stroke:rgb(255,255,255);stroke-linecap:round;fill:none;" />
<path d="M479.332,1380.537 A1642.000,1642.000 40.000 0,1 510.660,1308.603 L476.193,1292.602 A1680.000,1680.000 0.000 0,0 444.140,1366.201 Z" style="stroke-width:2.0;stroke:rgb(255,255,255);stroke-linecap:round;fill:rgb(180,45,112);" />
<text x="391.8" y="1317.1" font-size="36.4px" font-family="CMUBright-Roman" style="text-anchor:end;fill:rgb(0,0,0);" transform="rotate(23.5,391.8,1317.1)" >Arts-Theology</text>
<path d="M479.332,1380.537 A1642.000,1642.000 40.000 0,1 510.660,1308.603 L476.193,1292.602 A1680.000,1680.000 0.000 0,0 444.140,1366.201 Z" style="stroke-width:2.0;stroke:rgb(255,255,255);stroke-linecap:round;fill:none;" />
<path d="M526.097,1276.278 A1642.000,1642.000 40.000 0,1 530.738,1266.901 L496.736,1249.936 A1680.000,1680.000 0.000 0,0 491.987,1259.529 Z" style="stroke-width:2.0;stroke:rgb(255,255,255);stroke-linecap:round;fill:rgb(205,75,142);" />
<text x="427.1" y="1239.3" font-size="36.4px" font-family="CMUBright-Roman" style="text-anchor:end;fill:rgb(0,0,0);" transform="rotate(26.3,427.1,1239.3)" >English-Writing</text>
<path d="M526.097,1276.278 A1642.000,1642.000 40.000 0,1 530.738,1266.901 L496.736,1249.936 A1680.000,1680.000 0.000 0,0 491.987,1259.529 Z" style="stroke-width:2.0;stroke:rgb(255,255,255);stroke-linecap:round;fill:none;" />
<path d="M547.080,1235.024 A1642.000,1642.000 40.000 0,1 549.525,1230.399 L515.957,1212.589 A1680.000,1680.000 0.000 0,0 513.456,1217.321 Z" style="stroke-width:2.0;stroke:rgb(255,255,255);stroke-linecap:round;fill:rgb(225,110,168);" />
<text x="447.9" y="1197.7" font-size="36.4px" font-family="CMUBright-Roman" style="text-anchor:end;fill:rgb(0,0,0);" transform="rotate(27.9,447.9,1197.7)" >Languages</text>
<path d="M547.080,1235.024 A1642.000,1642.000 40.000 0,1 549.525,1230.399 L515.957,1212.589 A1680.000,1680.000 0.000 0,0 513.456,1217.321 Z" style="stroke-width:2.0;stroke:rgb(255,255,255);stroke-linecap:round;fill:none;" />
<path d="M566.659,1198.940 A1642.000,1642.000 40.000 0,1 748.337,937.219 L719.370,912.624 A1680.000,1680.000 0.000 0,0 533.488,1180.402 Z" style="stroke-width:2.0;stroke:rgb(255,255,255);stroke-linecap:round;fill:rgb(88,40,138);" />
<text x="555.7" y="1016.9" font-size="36.4px" font-family="CMUBright-Roman" style="text-anchor:end;fill:rgb(0,0,0);" transform="rotate(34.8,555.7,1016.9)" >Biological-Sciences</text>
<path d="M566.659,1198.940 A1642.000,1642.000 40.000 0,1 748.337,937.219 L719.370,912.624 A1680.000,1680.000 0.000 0,0 533.488,1180.402 Z" style="stroke-width:2.0;stroke:rgb(255,255,255);stroke-linecap:round;fill:none;" />
<path d="M771.819,910.167 A1642.000,1642.000 40.000 0,1 821.633,856.490 L794.362,830.027 A1680.000,1680.000 0.000 0,0 743.396,884.946 Z" style="stroke-width:2.0;stroke:rgb(255,255,255);stroke-linecap:round;fill:rgb(115,65,165);" />
<text x="710.8" y="820.7" font-size="36.4px" font-family="CMUBright-Roman" style="text-anchor:end;fill:rgb(0,0,0);" transform="rotate(42.9,710.8,820.7)" >Health-Wellness</text>
<path d="M771.819,910.167 A1642.000,1642.000 40.000 0,1 821.633,856.490 L794.362,830.027 A1680.000,1680.000 0.000 0,0 743.396,884.946 Z" style="stroke-width:2.0;stroke:rgb(255,255,255);stroke-linecap:round;fill:none;" />
<path d="M846.858,831.057 A1642.000,1642.000 40.000 0,1 873.212,805.633 L847.135,777.993 A1680.000,1680.000 0.000 0,0 820.172,804.004 Z" style="stroke-width:2.0;stroke:rgb(255,255,255);stroke-linecap:round;fill:rgb(140,92,188);" />
<text x="775.8" y="753.4" font-size="36.4px" font-family="CMUBright-Roman" style="text-anchor:end;fill:rgb(0,0,0);" transform="rotate(46.0,775.8,753.4)" >Physical-Sciences</text>
<path d="M846.858,831.057 A1642.000,1642.000 40.000 0,1 873.212,805.633 L847.135,777.993 A1680.000,1680.000 0.000 0,0 820.172,804.004 Z" style="stroke-width:2.0;stroke:rgb(255,255,255);stroke-linecap:round;fill:none;" />
<path d="M899.535,781.337 A1642.000,1642.000 40.000 0,1 903.423,777.837 L878.045,749.553 A1680.000,1680.000 0.000 0,0 874.067,753.134 Z" style="stroke-width:2.0;stroke:rgb(255,255,255);stroke-linecap:round;fill:rgb(165,120,208);" />
<text x="821.8" y="709.8" font-size="36.4px" font-family="CMUBright-Roman" style="text-anchor:end;fill:rgb(0,0,0);" transform="rotate(48.0,821.8,709.8)" >Environmental-Sciences</text>
<path d="M899.535,781.337 A1642.000,1642.000 40.000 0,1 903.423,777.837 L878.045,749.553 A1680.000,1680.000 0.000 0,0 874.067,753.134 Z" style="stroke-width:2.0;stroke:rgb(255,255,255);stroke-linecap:round;fill:none;" />
<path d="M930.345,754.206 A1642.000,1642.000 40.000 0,1 1638.399,398.311 L1630.030,361.244 A1680.000,1680.000 0.000 0,0 905.590,725.375 Z" style="stroke-width:2.0;stroke:rgb(255,255,255);stroke-linecap:round;fill:rgb(22,118,50);" />
<text x="1201.1" y="446.2" font-size="36.4px" font-family="CMUBright-Roman" style="text-anchor:end;fill:rgb(0,0,0);" transform="rotate(63.3,1201.1,446.2)" >Engineering-Disciplines</text>
<path d="M930.345,754.206 A1642.000,1642.000 40.000 0,1 1638.399,398.311 L1630.030,361.244 A1680.000,1680.000 0.000 0,0 905.590,725.375 Z" style="stroke-width:2.0;stroke:rgb(255,255,255);stroke-linecap:round;fill:none;" />
<path d="M1673.425,390.804 A1642.000,1642.000 40.000 0,1 1964.180,358.391 L1963.351,320.400 A1680.000,1680.000 0.000 0,0 1665.867,353.563 Z" style="stroke-width:2.0;stroke:rgb(255,255,255);stroke-linecap:round;fill:rgb(48,158,75);" />
<text x="1791.0" y="265.3" font-size="36.4px" font-family="CMUBright-Roman" style="text-anchor:end;fill:rgb(0,0,0);" transform="rotate(83.6,1791.0,265.3)" >Computer-Science-IT</text>
<path d="M1673.425,390.804 A1642.000,1642.000 40.000 0,1 1964.180,358.391 L1963.351,320.400 A1680.000,1680.000 0.000 0,0 1665.867,353.563 Z" style="stroke-width:2.0;stroke:rgb(255,255,255);stroke-linecap:round;fill:none;" />
</g>
<g id="track_0">
<path d="M 379.252,2125.245 A 1625.580,1625.580 0.00 0,1 378.5,2114.9 L 378.5,2114.9 443.3,2111.6 509.7,2110.8 577.7,2112.3 647.0,2116.2 717.6,2122.3 789.3,2130.6 862.1,2141.1 935.8,2153.7 1010.2,2168.3 1085.3,2184.9 1161.0,2203.4 1237.1,2223.8 1313.4,2246.0 1390.0,2270.0 1466.6,2295.6 1543.1,2322.9 1619.4,2351.8 1695.5,2382.3 1771.0,2414.2 1846.1,2447.5 1920.4,2482.2 1993.9,2518.2 2066.5,2555.5 2138.1,2594.0 2208.5,2633.7 2277.5,2674.4 2345.2,2716.2 2411.3,2759.0 2475.8,2802.8 2538.4,2847.4 2599.2,2892.9 2657.9,2939.1 2714.4,2986.1 2768.7,3033.8 2820.6,3082.1 2869.9,3130.9 2916.5,3180.3 2960.4,3230.2 3001.4,3280.5  A 1625.580,1625.580 0.00 0,1 2993.2,3286.9 L 2993.2,3286.9 2952.6,3236.4 2909.1,3186.4 2862.9,3136.8 2813.9,3087.7 2762.4,3039.3 2708.5,2991.4 2652.3,2944.3 2594.0,2897.9 2533.5,2852.3 2471.2,2807.6 2407.1,2763.7 2341.2,2720.8 2273.9,2679.0 2205.1,2638.2 2135.0,2598.5 2063.7,2560.0 1991.3,2522.7 1918.0,2486.7 1843.9,2452.1 1769.1,2418.9 1693.7,2387.1 1617.9,2356.8 1541.7,2328.0 1465.4,2300.9 1388.9,2275.5 1312.5,2251.8 1236.3,2229.8 1160.4,2209.7 1084.8,2191.5 1009.8,2175.2 935.5,2160.9 862.0,2148.7 789.3,2138.6 717.7,2130.6 647.2,2124.9 578.0,2121.4 510.2,2120.3 443.9,2121.6 379.3,2125.2  Z" style="stroke-width: 0.0;  fill: rgb(220,140,52);" />
<path d="M 378.487,2114.916 A 1625.580,1625.580 0.00 0,1 377.2,2094.2 L 377.2,2094.2 443.9,2091.6 512.4,2091.2 582.5,2093.0 654.1,2096.9 727.1,2102.8 801.3,2110.6 876.8,2120.3 953.3,2131.7 1030.8,2144.8 1109.1,2159.6 1188.1,2175.8 1267.8,2193.6 1348.1,2212.8 1428.7,2233.3 1509.6,2255.2 1590.7,2278.2 1671.9,2302.5 1753.0,2327.9 1833.9,2354.4 1914.5,2382.0 1994.8,2410.5 2074.5,2440.0 2153.5,2470.5 2231.8,2501.9 2309.1,2534.1 2385.5,2567.2 2460.6,2601.1 2534.5,2635.8 2607.0,2671.3 2678.0,2707.6 2747.3,2744.6 2814.8,2782.4 2880.4,2820.9 2943.9,2860.2 3005.3,2900.1 3064.3,2940.9 3120.8,2982.3 3174.7,3024.5 3225.9,3067.5  A 1625.580,1625.580 0.00 0,1 3212.2,3083.0 L 3212.2,3083.0 3161.8,3039.6 3108.5,2996.9 3052.7,2955.0 2994.4,2913.8 2933.7,2873.3 2870.8,2833.6 2805.8,2794.7 2738.9,2756.5 2670.1,2719.1 2599.7,2682.4 2527.7,2646.6 2454.3,2611.6 2379.6,2577.5 2303.7,2544.2 2226.8,2511.8 2148.9,2480.3 2070.2,2449.8 1990.9,2420.3 1911.0,2391.8 1830.7,2364.3 1750.1,2338.0 1669.2,2312.8 1588.3,2288.8 1507.5,2266.1 1426.8,2244.6 1346.4,2224.5 1266.4,2205.8 1187.0,2188.5 1108.1,2172.8 1030.0,2158.7 952.7,2146.2 876.4,2135.5 801.2,2126.5 727.2,2119.5 654.4,2114.3 583.1,2111.2 513.2,2110.2 445.0,2111.4 378.5,2114.9  Z" style="stroke-width: 0.0;  fill: rgb(220,140,52);" />
<path d="M 377.154,2094.243 A 1625.580,1625.580 0.00 0,1 376.9,2089.1 L 376.9,2089.1 445.7,2086.4 516.3,2085.8 588.5,2087.0 662.2,2090.1 737.5,2094.8 814.0,2101.1 891.9,2108.9 970.9,2118.0 1051.0,2128.4 1132.0,2140.0 1214.0,2152.7 1296.7,2166.4 1380.1,2181.1 1464.0,2196.6 1548.4,2213.0 1633.2,2230.2 1718.2,2248.1 1803.3,2266.6 1888.5,2285.9 1973.6,2305.7 2058.5,2326.1 2143.0,2347.1 2227.2,2368.7 2310.8,2390.8 2393.7,2413.4 2475.9,2436.6 2557.2,2460.3 2637.4,2484.6 2716.5,2509.5 2794.3,2535.0 2870.7,2561.1 2945.6,2587.8 3018.9,2615.3 3090.4,2643.5 3159.9,2672.5 3227.4,2702.4 3292.7,2733.2 3355.7,2765.0 3416.3,2797.9  A 1625.580,1625.580 0.00 0,1 3413.8,2802.4 L 3413.8,2802.4 3353.4,2769.4 3290.5,2737.4 3225.3,2706.5 3157.9,2676.4 3088.5,2647.3 3017.2,2618.9 2944.1,2591.3 2869.3,2564.4 2793.0,2538.2 2715.2,2512.6 2636.2,2487.6 2556.1,2463.2 2474.9,2439.4 2392.8,2416.1 2309.9,2393.5 2226.4,2371.3 2142.3,2349.7 2057.8,2328.7 1972.9,2308.3 1887.9,2288.4 1802.8,2269.2 1717.7,2250.7 1632.7,2232.9 1548.0,2215.8 1463.6,2199.5 1379.7,2184.0 1296.4,2169.5 1213.7,2155.9 1131.8,2143.3 1050.8,2131.9 970.7,2121.7 891.8,2112.7 814.0,2105.1 737.4,2099.0 662.3,2094.5 588.6,2091.6 516.4,2090.5 445.9,2091.4 377.2,2094.2  Z" style="stroke-width: 0.0;  fill: rgb(220,140,52);" />
<path d="M 376.862,2089.073 A 1625.580,1625.580 0.00 0,1 376.3,2078.7 L 376.3,2078.7 450.6,2075.8 526.4,2074.2 603.5,2073.5 681.9,2073.7 761.6,2074.5 842.4,2075.8 924.2,2077.5 1007.0,2079.3 1090.7,2081.2 1175.2,2083.0 1260.4,2084.6 1346.3,2085.9 1432.7,2086.9 1519.6,2087.5 1606.9,2087.5 1694.6,2087.0 1782.5,2085.9 1870.5,2084.1 1958.7,2081.7 2046.9,2078.6 2135.0,2074.9 2223.0,2070.5 2310.7,2065.5 2398.2,2059.9 2485.3,2053.8 2572.0,2047.2 2658.1,2040.2 2743.7,2032.9 2828.6,2025.3 2912.8,2017.7 2996.1,2010.0 3078.6,2002.4 3160.1,1995.0 3240.6,1988.1 3320.0,1981.7 3398.2,1976.1 3475.2,1971.4 3550.9,1967.8 3625.2,1965.5  A 1625.580,1625.580 0.00 0,1 3625.4,1975.8 L 3625.4,1975.8 3551.2,1977.7 3475.6,1980.8 3398.7,1985.1 3320.5,1990.3 3241.2,1996.3 3160.7,2002.8 3079.2,2009.8 2996.8,2017.1 2913.4,2024.4 2829.2,2031.8 2744.3,2039.1 2658.7,2046.2 2572.5,2053.0 2485.8,2059.4 2398.6,2065.4 2311.1,2070.9 2223.3,2075.8 2135.3,2080.1 2047.1,2083.8 1958.9,2086.9 1870.6,2089.3 1782.5,2091.1 1694.6,2092.4 1606.9,2093.0 1519.5,2093.1 1432.6,2092.7 1346.1,2092.0 1260.2,2090.9 1175.0,2089.5 1090.5,2088.0 1006.8,2086.4 924.1,2084.9 842.3,2083.7 761.6,2082.7 682.0,2082.3 603.6,2082.5 526.6,2083.6 451.0,2085.7 376.9,2089.1  Z" style="stroke-width: 0.0;  fill: rgb(220,140,52);" />
<path d="M 376.328,2078.729 A 1625.580,1625.580 0.00 0,1 376.1,2073.6 L 376.1,2073.6 444.5,2069.3 514.4,2062.9 585.7,2054.3 658.4,2043.7 732.3,2031.2 807.4,2017.0 883.7,2001.1 960.9,1983.7 1039.1,1964.8 1118.0,1944.6 1197.7,1923.1 1278.1,1900.4 1359.0,1876.6 1440.3,1851.8 1522.0,1826.0 1603.9,1799.4 1686.0,1771.8 1768.1,1743.6 1850.1,1714.6 1931.9,1684.9 2013.5,1654.5 2094.6,1623.6 2175.2,1592.0 2255.1,1559.9 2334.3,1527.3 2412.6,1494.2 2490.0,1460.6 2566.2,1426.4 2641.1,1391.8 2714.7,1356.7 2786.7,1321.0 2857.2,1284.8 2925.8,1248.1 2992.6,1210.9 3057.3,1173.0 3119.9,1134.5 3180.1,1095.3 3237.9,1055.5 3293.1,1014.9  A 1625.580,1625.580 0.00 0,1 3296.2,1019.0 L 3296.2,1019.0 3240.8,1059.5 3182.9,1099.2 3122.5,1138.2 3059.8,1176.6 2994.9,1214.3 2928.0,1251.5 2859.2,1288.0 2788.6,1324.1 2716.5,1359.6 2642.8,1394.7 2567.7,1429.2 2491.4,1463.3 2414.0,1496.8 2335.6,1529.9 2256.3,1562.5 2176.3,1594.5 2095.6,1626.0 2014.4,1657.0 1932.9,1687.3 1851.0,1717.0 1768.9,1746.1 1686.8,1774.4 1604.7,1802.0 1522.7,1828.7 1441.0,1854.6 1359.6,1879.5 1278.7,1903.4 1198.3,1926.2 1118.6,1947.9 1039.6,1968.2 961.4,1987.3 884.2,2004.9 807.9,2020.9 732.8,2035.3 658.8,2048.0 586.1,2058.8 514.7,2067.6 444.8,2074.3 376.3,2078.7  Z" style="stroke-width: 0.0;  fill: rgb(220,140,52);" />
</g>
<defs>
<pattern id="vline" width="10" height="10" patternTransform="rotate(0 0 0)" patternUnits="userSpaceOnUse"><line x1="0" y1="0" x2="0" y2="10" style="stroke:black;stroke-width:5" /></pattern>
<pattern id="hline-sparse" width="10" height="10" patternTransform="rotate(0 0 0)" patternUnits="userSpaceOnUse"><line x1="0" y1="0" x2="10" y2="0" style="stroke:black;stroke-width:2" /></pattern>
<pattern id="hline" width="10" height="10" patternTransform="rotate(0 0 0)" patternUnits="userSpaceOnUse"><line x1="0" y1="0" x2="10" y2="0" style="stroke:black;stroke-width:5" /></pattern>
<pattern id="vline-sparse" width="10" height="10" patternTransform="rotate(0 0 0)" patternUnits="userSpaceOnUse"><line x1="0" y1="0" x2="0" y2="10" style="stroke:black;stroke-width:2" /></pattern>
<pattern id="checker" width="10" height="10" patternTransform="rotate(45 0 0)" patternUnits="userSpaceOnUse"><line x1="0" y1="0" x2="10" y2="0" style="stroke:black;stroke-width:5" /><line x1="0" y1="0" x2="0" y2="10" style="stroke:black;stroke-width:4" /></pattern>
<pattern id="checker" width="10" height="10" patternTransform="rotate(45 0 0)" patternUnits="userSpaceOnUse"><line x1="0" y1="0" x2="10" y2="0" style="stroke:black;stroke-width:2" /><line x1="0" y1="0" x2="0" y2="10" style="stroke:black;stroke-width:2" /></pattern>
</defs>
</svg>
