<?xml version="1.0" encoding="utf-8" standalone="no"?>
<!DOCTYPE svg PUBLIC "-//W3C//DTD SVG 1.1//EN" "http://www.w3.org/Graphics/SVG/1.1/DTD/svg11.dtd">
<svg width="4000px" height="4000px" version="1.1" xmlns="http://www.w3.org/2000/svg" xmlns:xlink="http://www.w3.org/1999/xlink">
<g id="bg">
<rect x="0" y="0" width="4000px" height="4000px" style="fill:rgb(255,255,255);"/>
</g>
<g id="ideograms">
<path d="M2000.000,358.000 A1642.000,1642.000 40.000 0,1 2751.610,540.121 L2769.004,506.336 A1680.000,1680.000 0.000 0,0 2000.000,320.000 Z" style="stroke-width:2.0;stroke:rgb(255,255,255);stroke-linecap:round;fill:rgb(185,185,185);" />
<text x="2427.0" y="305.8" font-size="36.4px" font-family="CMUBright-Roman" style="text-anchor:start;fill:rgb(0,0,0);" transform="rotate(283.6,2427.0,305.8)" >Management-Operations</text>
<path d="M2000.000,358.000 A1642.000,1642.000 40.000 0,1 2751.610,540.121 L2769.004,506.336 A1680.000,1680.000 0.000 0,0 2000.000,320.000 Z" style="stroke-width:2.0;stroke:rgb(255,255,255);stroke-linecap:round;fill:none;" />
<path d="M2783.279,556.865 A1642.000,1642.000 40.000 0,1 3226.411,908.176 L3254.793,882.908 A1680.000,1680.000 0.000 0,0 2801.406,523.467 Z" style="stroke-width:2.0;stroke:rgb(255,255,255);stroke-linecap:round;fill:rgb(185,185,185);" />
<text x="3097.5" y="640.5" font-size="36.4px" font-family="CMUBright-Roman" style="text-anchor:start;fill:rgb(0,0,0);" transform="rotate(308.4,3097.5,640.5)" >Engineering</text>
<path d="M2783.279,556.865 A1642.000,1642.000 40.000 0,1 3226.411,908.176 L3254.793,882.908 A1680.000,1680.000 0.000 0,0 2801.406,523.467 Z" style="stroke-width:2.0;stroke:rgb(255,255,255);stroke-linecap:round;fill:none;" />
<path d="M3249.937,935.189 A1642.000,1642.000 40.000 0,1 3507.538,1349.236 L3542.426,1334.176 A1680.000,1680.000 0.000 0,0 3278.864,910.547 Z" style="stroke-width:2.0;stroke:rgb(255,255,255);stroke-linecap:round;fill:rgb(185,185,185);" />
<text x="3491.6" y="1090.2" font-size="36.4px" font-family="CMUBright-Roman" style="text-anchor:start;fill:rgb(0,0,0);" transform="rotate(328.1,3491.6,1090.2)" >Leadership-General</text>
<path d="M3249.937,935.189 A1642.000,1642.000 40.000 0,1 3507.538,1349.236 L3542.426,1334.176 A1680.000,1680.000 0.000 0,0 3278.864,910.547 Z" style="stroke-width:2.0;stroke:rgb(255,255,255);stroke-linecap:round;fill:none;" />
<path d="M3521.375,1382.278 A1642.000,1642.000 40.000 0,1 3633.192,1830.154 L3670.988,1826.223 A1680.000,1680.000 0.000 0,0 3556.584,1367.982 Z" style="stroke-width:2.0;stroke:rgb(255,255,255);stroke-linecap:round;fill:rgb(185,185,185);" />
<text x="3699.0" y="1592.3" font-size="36.4px" font-family="CMUBright-Roman" style="text-anchor:start;fill:rgb(0,0,0);" transform="rotate(346.0,3699.0,1592.3)" >Sales-Marketing</text>
<path d="M3521.375,1382.278 A1642.000,1642.000 40.000 0,1 3633.192,1830.154 L3670.988,1826.223 A1680.000,1680.000 0.000 0,0 3556.584,1367.982 Z" style="stroke-width:2.0;stroke:rgb(255,255,255);stroke-linecap:round;fill:none;" />
<path d="M3636.509,1865.822 A1642.000,1642.000 40.000 0,1 3610.774,2318.704 L3648.051,2326.079 A1680.000,1680.000 0.000 0,0 3674.381,1862.717 Z" style="stroke-width:2.0;stroke:rgb(255,255,255);stroke-linecap:round;fill:rgb(185,185,185);" />
<text x="3743.6" y="2111.6" font-size="36.4px" font-family="CMUBright-Roman" style="text-anchor:start;fill:rgb(0,0,0);" transform="rotate(3.3,3743.6,2111.6)" >Finance-Investment</text>
<path d="M3636.509,1865.822 A1642.000,1642.000 40.000 0,1 3610.774,2318.704 L3648.051,2326.079 A1680.000,1680.000 0.000 0,0 3674.381,1862.717 Z" style="stroke-width:2.0;stroke:rgb(255,255,255);stroke-linecap:round;fill:none;" />
<path d="M3603.438,2353.767 A1642.000,1642.000 40.000 0,1 3499.856,2668.278 L3534.566,2683.744 A1680.000,1680.000 0.000 0,0 3640.546,2361.954 Z" style="stroke-width:2.0;stroke:rgb(255,255,255);stroke-linecap:round;fill:rgb(185,185,185);" />
<text x="3655.6" y="2558.4" font-size="36.4px" font-family="CMUBright-Roman" style="text-anchor:start;fill:rgb(0,0,0);" transform="rotate(18.2,3655.6,2558.4)" >Software-Data</text>
<path d="M3603.438,2353.767 A1642.000,1642.000 40.000 0,1 3499.856,2668.278 L3534.566,2683.744 A1680.000,1680.000 0.000 0,0 3640.546,2361.954 Z" style="stroke-width:2.0;stroke:rgb(255,255,255);stroke-linecap:round;fill:none;" />
<path d="M3484.921,2700.839 A1642.000,1642.000 40.000 0,1 3330.895,2961.708 L3361.695,2983.964 A1680.000,1680.000 0.000 0,0 3519.285,2717.058 Z" style="stroke-width:2.0;stroke:rgb(255,255,255);stroke-linecap:round;fill:rgb(185,185,185);" />
<text x="3498.1" y="2899.1" font-size="36.4px" font-family="CMUBright-Roman" style="text-anchor:start;fill:rgb(0,0,0);" transform="rotate(30.6,3498.1,2899.1)" >Education</text>
<path d="M3484.921,2700.839 A1642.000,1642.000 40.000 0,1 3330.895,2961.708 L3361.695,2983.964 A1680.000,1680.000 0.000 0,0 3519.285,2717.058 Z" style="stroke-width:2.0;stroke:rgb(255,255,255);stroke-linecap:round;fill:none;" />
<path d="M3309.599,2990.512 A1642.000,1642.000 40.000 0,1 3129.055,3192.225 L3155.184,3219.816 A1680.000,1680.000 0.000 0,0 3339.906,3013.435 Z" style="stroke-width:2.0;stroke:rgb(255,255,255);stroke-linecap:round;fill:rgb(185,185,185);" />
<text x="3293.5" y="3174.5" font-size="36.4px" font-family="CMUBright-Roman" style="text-anchor:start;fill:rgb(0,0,0);" transform="rotate(41.8,3293.5,3174.5)" >Research-Science</text>
<path d="M3309.599,2990.512 A1642.000,1642.000 40.000 0,1 3129.055,3192.225 L3155.184,3219.816 A1680.000,1680.000 0.000 0,0 3339.906,3013.435 Z" style="stroke-width:2.0;stroke:rgb(255,255,255);stroke-linecap:round;fill:none;" />
<path d="M3102.778,3216.571 A1642.000,1642.000 40.000 0,1 2891.302,3379.038 L2911.929,3410.952 A1680.000,1680.000 0.000 0,0 3128.299,3244.726 Z" style="stroke-width:2.0;stroke:rgb(255,255,255);stroke-linecap:round;fill:rgb(185,185,185);" />
<text x="3054.5" y="3393.1" font-size="36.4px" font-family="CMUBright-Roman" style="text-anchor:start;fill:rgb(0,0,0);" transform="rotate(52.5,3054.5,3393.1)" >Clinical-Care</text>
<path d="M3102.778,3216.571 A1642.000,1642.000 40.000 0,1 2891.302,3379.038 L2911.929,3410.952 A1680.000,1680.000 0.000 0,0 3128.299,3244.726 Z" style="stroke-width:2.0;stroke:rgb(255,255,255);stroke-linecap:round;fill:none;" />
<path d="M2861.006,3398.153 A1642.000,1642.000 40.000 0,1 2640.127,3512.085 L2654.941,3547.079 A1680.000,1680.000 0.000 0,0 2880.932,3430.510 Z" style="stroke-width:2.0;stroke:rgb(255,255,255);stroke-linecap:round;fill:rgb(185,185,185);" />
<text x="2786.7" y="3560.1" font-size="36.4px" font-family="CMUBright-Roman" style="text-anchor:start;fill:rgb(0,0,0);" transform="rotate(62.7,2786.7,3560.1)" >Accounting-Audit</text>
<path d="M2861.006,3398.153 A1642.000,1642.000 40.000 0,1 2640.127,3512.085 L2654.941,3547.079 A1680.000,1680.000 0.000 0,0 2880.932,3430.510 Z" style="stroke-width:2.0;stroke:rgb(255,255,255);stroke-linecap:round;fill:none;" />
<path d="M2606.988,3525.690 A1642.000,1642.000 40.000 0,1 2452.002,3578.562 L2462.463,3615.094 A1680.000,1680.000 0.000 0,0 2621.036,3560.998 Z" style="stroke-width:2.0;stroke:rgb(255,255,255);stroke-linecap:round;fill:rgb(185,185,185);" />
<text x="2552.3" y="3657.6" font-size="36.4px" font-family="CMUBright-Roman" style="text-anchor:start;fill:rgb(0,0,0);" transform="rotate(71.2,2552.3,3657.6)" >Social-Service</text>
<path d="M2606.988,3525.690 A1642.000,1642.000 40.000 0,1 2452.002,3578.562 L2462.463,3615.094 A1680.000,1680.000 0.000 0,0 2621.036,3560.998 Z" style="stroke-width:2.0;stroke:rgb(255,255,255);stroke-linecap:round;fill:none;" />
<path d="M2417.459,3588.047 A1642.000,1642.000 40.000 0,1 2320.910,3610.336 L2328.336,3647.603 A1680.000,1680.000 0.000 0,0 2427.120,3624.798 Z" style="stroke-width:2.0;stroke:rgb(255,255,255);stroke-linecap:round;fill:rgb(185,185,185);" />
<text x="2380.8" y="3705.2" font-size="36.4px" font-family="CMUBright-Roman" style="text-anchor:start;fill:rgb(0,0,0);" transform="rotate(77.0,2380.8,3705.2)" >IT-Infrastructure</text>
<path d="M2417.459,3588.047 A1642.000,1642.000 40.000 0,1 2320.910,3610.336 L2328.336,3647.603 A1680.000,1680.000 0.000 0,0 2427.120,3624.798 Z" style="stroke-width:2.0;stroke:rgb(255,255,255);stroke-linecap:round;fill:none;" />
<path d="M2285.704,3616.953 A1642.000,1642.000 40.000 0,1 2189.660,3631.010 L2194.050,3668.755 A1680.000,1680.000 0.000 0,0 2292.316,3654.373 Z" style="stroke-width:2.0;stroke:rgb(255,255,255);stroke-linecap:round;fill:rgb(185,185,185);" />
<text x="2237.2" y="3731.0" font-size="36.4px" font-family="CMUBright-Roman" style="text-anchor:start;fill:rgb(0,0,0);" transform="rotate(81.7,2237.2,3731.0)" >Legal-Policy</text>
<path d="M2285.704,3616.953 A1642.000,1642.000 40.000 0,1 2189.660,3631.010 L2194.050,3668.755 A1680.000,1680.000 0.000 0,0 2292.316,3654.373 Z" style="stroke-width:2.0;stroke:rgb(255,255,255);stroke-linecap:round;fill:none;" />
<path d="M2154.035,3634.759 A1642.000,1642.000 40.000 0,1 1474.020,3555.477 L1461.848,3591.475 A1680.000,1680.000 0.000 0,0 2157.600,3672.592 Z" style="stroke-width:2.0;stroke:rgb(255,255,255);stroke-linecap:round;fill:rgb(15,52,135);" />
<text x="1813.6" y="3737.2" font-size="36.4px" font-family="CMUBright-Roman" style="text-anchor:end;fill:rgb(0,0,0);" transform="rotate(-83.3,1813.6,3737.2)" >Finance-Accounting</text>
<path d="M2154.035,3634.759 A1642.000,1642.000 40.000 0,1 1474.020,3555.477 L1461.848,3591.475 A1680.000,1680.000 0.000 0,0 2157.600,3672.592 Z" style="stroke-width:2.0;stroke:rgb(255,255,255);stroke-linecap:round;fill:none;" />
<path d="M1440.213,3543.633 A1642.000,1642.000 40.000 0,1 888.845,3208.925 L863.130,3236.902 A1680.000,1680.000 0.000 0,0 1427.258,3579.356 Z" style="stroke-width:2.0;stroke:rgb(255,255,255);stroke-linecap:round;fill:rgb(42,98,180);" />
<text x="1104.1" y="3500.0" font-size="36.4px" font-family="CMUBright-Roman" style="text-anchor:end;fill:rgb(0,0,0);" transform="rotate(-58.7,1104.1,3500.0)" >General-Business</text>
<path d="M1440.213,3543.633 A1642.000,1642.000 40.000 0,1 888.845,3208.925 L863.130,3236.902 A1680.000,1680.000 0.000 0,0 1427.258,3579.356 Z" style="stroke-width:2.0;stroke:rgb(255,255,255);stroke-linecap:round;fill:none;" />
<path d="M862.737,3184.397 A1642.000,1642.000 40.000 0,1 624.574,2896.866 L592.744,2917.622 A1680.000,1680.000 0.000 0,0 836.418,3211.807 Z" style="stroke-width:2.0;stroke:rgb(255,255,255);stroke-linecap:round;fill:rgb(28,75,160);" />
<text x="664.7" y="3126.8" font-size="36.4px" font-family="CMUBright-Roman" style="text-anchor:end;fill:rgb(0,0,0);" transform="rotate(-39.6,664.7,3126.8)" >Marketing-Communication</text>
<path d="M862.737,3184.397 A1642.000,1642.000 40.000 0,1 624.574,2896.866 L592.744,2917.622 A1680.000,1680.000 0.000 0,0 836.418,3211.807 Z" style="stroke-width:2.0;stroke:rgb(255,255,255);stroke-linecap:round;fill:none;" />
<path d="M605.337,2866.648 A1642.000,1642.000 40.000 0,1 476.558,2612.607 L441.301,2626.784 A1680.000,1680.000 0.000 0,0 573.061,2886.704 Z" style="stroke-width:2.0;stroke:rgb(255,255,255);stroke-linecap:round;fill:rgb(60,120,198);" />
<text x="448.7" y="2803.8" font-size="36.4px" font-family="CMUBright-Roman" style="text-anchor:end;fill:rgb(0,0,0);" transform="rotate(-26.9,448.7,2803.8)" >Operations-Analytics</text>
<path d="M605.337,2866.648 A1642.000,1642.000 40.000 0,1 476.558,2612.607 L441.301,2626.784 A1680.000,1680.000 0.000 0,0 573.061,2886.704 Z" style="stroke-width:2.0;stroke:rgb(255,255,255);stroke-linecap:round;fill:none;" />
<path d="M463.556,2579.227 A1642.000,1642.000 40.000 0,1 407.419,2399.813 L370.563,2409.066 A1680.000,1680.000 0.000 0,0 427.999,2592.632 Z" style="stroke-width:2.0;stroke:rgb(255,255,255);stroke-linecap:round;fill:rgb(82,145,215);" />
<text x="337.2" y="2536.5" font-size="36.4px" font-family="CMUBright-Roman" style="text-anchor:end;fill:rgb(0,0,0);" transform="rotate(-17.4,337.2,2536.5)" >Specialized-Business</text>
<path d="M463.556,2579.227 A1642.000,1642.000 40.000 0,1 407.419,2399.813 L370.563,2409.066 A1680.000,1680.000 0.000 0,0 427.999,2592.632 Z" style="stroke-width:2.0;stroke:rgb(255,255,255);stroke-linecap:round;fill:none;" />
<path d="M399.076,2364.976 A1642.000,1642.000 40.000 0,1 366.776,2169.540 L328.979,2173.464 A1680.000,1680.000 0.000 0,0 362.027,2373.422 Z" style="stroke-width:2.0;stroke:rgb(255,255,255);stroke-linecap:round;fill:rgb(200,108,30);" />
<text x="278.3" y="2297.2" font-size="36.4px" font-family="CMUBright-Roman" style="text-anchor:end;fill:rgb(0,0,0);" transform="rotate(-9.4,278.3,2297.2)" >Social-Sciences</text>
<path d="M399.076,2364.976 A1642.000,1642.000 40.000 0,1 366.776,2169.540 L328.979,2173.464 A1680.000,1680.000 0.000 0,0 362.027,2373.422 Z" style="stroke-width:2.0;stroke:rgb(255,255,255);stroke-linecap:round;fill:none;" />
<path d="M363.466,2133.872 A1642.000,1642.000 40.000 0,1 358.290,2030.870 L320.297,2031.584 A1680.000,1680.000 0.000 0,0 325.593,2136.970 Z" style="stroke-width:2.0;stroke:rgb(255,255,255);stroke-linecap:round;fill:rgb(108,170,228);" />
<text x="255.6" y="2099.7" font-size="36.4px" font-family="CMUBright-Roman" style="text-anchor:end;fill:rgb(0,0,0);" transform="rotate(-2.9,255.6,2099.7)" >Economics</text>
<path d="M363.466,2133.872 A1642.000,1642.000 40.000 0,1 358.290,2030.870 L320.297,2031.584 A1680.000,1680.000 0.000 0,0 325.593,2136.970 Z" style="stroke-width:2.0;stroke:rgb(255,255,255);stroke-linecap:round;fill:none;" />
<path d="M358.007,1995.049 A1642.000,1642.000 40.000 0,1 358.807,1948.539 L320.825,1947.348 A1680.000,1680.000 0.000 0,0 320.008,1994.934 Z" style="stroke-width:2.0;stroke:rgb(255,255,255);stroke-linecap:round;fill:rgb(220,140,52);" />
<text x="252.9" y="1982.5" font-size="36.4px" font-family="CMUBright-Roman" style="text-anchor:end;fill:rgb(0,0,0);" transform="rotate(1.0,252.9,1982.5)" >Humanities-Liberal-Arts</text>
<path d="M358.007,1995.049 A1642.000,1642.000 40.000 0,1 358.807,1948.539 L320.825,1947.348 A1680.000,1680.000 0.000 0,0 320.008,1994.934 Z" style="stroke-width:2.0;stroke:rgb(255,255,255);stroke-linecap:round;fill:none;" />
<path d="M360.320,1912.749 A1642.000,1642.000 40.000 0,1 361.133,1898.615 L323.205,1896.269 A1680.000,1680.000 0.000 0,0 322.373,1910.730 Z" style="stroke-width:2.0;stroke:rgb(255,255,255);stroke-linecap:round;fill:rgb(235,168,78);" />
<text x="255.0" y="1912.1" font-size="36.4px" font-family="CMUBright-Roman" style="text-anchor:end;fill:rgb(0,0,0);" transform="rotate(3.3,255.0,1912.1)" >International-Studies</text>
<path d="M360.320,1912.749 A1642.000,1642.000 40.000 0,1 361.133,1898.615 L323.205,1896.269 A1680.000,1680.000 0.000 0,0 322.373,1910.730 Z" style="stroke-width:2.0;stroke:rgb(255,255,255);stroke-linecap:round;fill:none;" />
<path d="M363.735,1862.887 A1642.000,1642.000 40.000 0,1 391.336,1670.812 L354.108,1663.193 A1680.000,1680.000 0.000 0,0 325.867,1859.714 Z" style="stroke-width:2.0;stroke:rgb(255,255,255);stroke-linecap:round;fill:rgb(195,58,55);" />
<text x="268.8" y="1763.9" font-size="36.4px" font-family="CMUBright-Roman" style="text-anchor:end;fill:rgb(0,0,0);" transform="rotate(8.2,268.8,1763.9)" >Social-Work</text>
<path d="M363.735,1862.887 A1642.000,1642.000 40.000 0,1 391.336,1670.812 L354.108,1663.193 A1680.000,1680.000 0.000 0,0 325.867,1859.714 Z" style="stroke-width:2.0;stroke:rgb(255,255,255);stroke-linecap:round;fill:none;" />
<path d="M398.900,1635.797 A1642.000,1642.000 40.000 0,1 428.981,1522.439 L392.624,1511.387 A1680.000,1680.000 0.000 0,0 361.847,1627.368 Z" style="stroke-width:2.0;stroke:rgb(255,255,255);stroke-linecap:round;fill:rgb(175,35,42);" />
<text x="308.1" y="1564.0" font-size="36.4px" font-family="CMUBright-Roman" style="text-anchor:end;fill:rgb(0,0,0);" transform="rotate(14.9,308.1,1564.0)" >Teacher-Education</text>
<path d="M398.900,1635.797 A1642.000,1642.000 40.000 0,1 428.981,1522.439 L392.624,1511.387 A1680.000,1680.000 0.000 0,0 361.847,1627.368 Z" style="stroke-width:2.0;stroke:rgb(255,255,255);stroke-linecap:round;fill:none;" />
<path d="M439.773,1488.281 A1642.000,1642.000 40.000 0,1 474.975,1391.343 L439.682,1377.257 A1680.000,1680.000 0.000 0,0 403.666,1476.439 Z" style="stroke-width:2.0;stroke:rgb(255,255,255);stroke-linecap:round;fill:rgb(215,82,72);" />
<text x="352.5" y="1418.2" font-size="36.4px" font-family="CMUBright-Roman" style="text-anchor:end;fill:rgb(0,0,0);" transform="rotate(20.0,352.5,1418.2)" >Special-Education</text>
<path d="M439.773,1488.281 A1642.000,1642.000 40.000 0,1 474.975,1391.343 L439.682,1377.257 A1680.000,1680.000 0.000 0,0 403.666,1476.439 Z" style="stroke-width:2.0;stroke:rgb(255,255,255);stroke-linecap:round;fill:none;" />
<path d="M488.616,1358.220 A1642.000,1642.000 40.000 0,1 509.092,1311.991 L474.588,1296.068 A1680.000,1680.000 0.000 0,0 453.639,1343.368 Z" style="stroke-width:2.0;stroke:rgb(255,255,255);stroke-linecap:round;fill:rgb(230,112,95);" />
<text x="396.3" y="1306.6" font-size="36.4px" font-family="CMUBright-Roman" style="text-anchor:end;fill:rgb(0,0,0);" transform="rotate(23.9,396.3,1306.6)" >Educational-Leadership</text>
<path d="M488.616,1358.220 A1642.000,1642.000 40.000 0,1 509.092,1311.991 L474.588,1296.068 A1680.000,1680.000 0.000 0,0 453.639,1343.368 Z" style="stroke-width:2.0;stroke:rgb(255,255,255);stroke-linecap:round;fill:none;" />
<path d="M524.455,1279.630 A1642.000,1642.000 40.000 0,1 553.988,1222.045 L520.524,1204.041 A1680.000,1680.000 0.000 0,0 490.308,1262.959 Z" style="stroke-width:2.0;stroke:rgb(255,255,255);stroke-linecap:round;fill:rgb(0,130,142);" />
<text x="439.7" y="1213.8" font-size="36.4px" font-family="CMUBright-Roman" style="text-anchor:end;fill:rgb(0,0,0);" transform="rotate(27.2,439.7,1213.8)" >Communication-Studies</text>
<path d="M524.455,1279.630 A1642.000,1642.000 40.000 0,1 553.988,1222.045 L520.524,1204.041 A1680.000,1680.000 0.000 0,0 490.308,1262.959 Z" style="stroke-width:2.0;stroke:rgb(255,255,255);stroke-linecap:round;fill:none;" />
<path d="M571.303,1190.686 A1642.000,1642.000 40.000 0,1 588.562,1160.949 L555.898,1141.531 A1680.000,1680.000 0.000 0,0 538.240,1171.956 Z" style="stroke-width:2.0;stroke:rgb(255,255,255);stroke-linecap:round;fill:rgb(0,165,172);" />
<text x="482.6" y="1133.8" font-size="36.4px" font-family="CMUBright-Roman" style="text-anchor:end;fill:rgb(0,0,0);" transform="rotate(30.1,482.6,1133.8)" >Journalism-Media</text>
<path d="M571.303,1190.686 A1642.000,1642.000 40.000 0,1 588.562,1160.949 L555.898,1141.531 A1680.000,1680.000 0.000 0,0 538.240,1171.956 Z" style="stroke-width:2.0;stroke:rgb(255,255,255);stroke-linecap:round;fill:none;" />
<path d="M607.202,1130.358 A1642.000,1642.000 40.000 0,1 613.667,1120.089 L581.583,1099.725 A1680.000,1680.000 0.000 0,0 574.969,1110.233 Z" style="stroke-width:2.0;stroke:rgb(255,255,255);stroke-linecap:round;fill:rgb(38,195,195);" />
<text x="512.9" y="1082.8" font-size="36.4px" font-family="CMUBright-Roman" style="text-anchor:end;fill:rgb(0,0,0);" transform="rotate(32.2,512.9,1082.8)" >Creative-Writing</text>
<path d="M607.202,1130.358 A1642.000,1642.000 40.000 0,1 613.667,1120.089 L581.583,1099.725 A1680.000,1680.000 0.000 0,0 574.969,1110.233 Z" style="stroke-width:2.0;stroke:rgb(255,255,255);stroke-linecap:round;fill:none;" />
<path d="M633.192,1090.055 A1642.000,1642.000 40.000 0,1 667.742,1040.182 L636.910,1017.969 A1680.000,1680.000 0.000 0,0 601.560,1068.997 Z" style="stroke-width:2.0;stroke:rgb(255,255,255);stroke-linecap:round;fill:rgb(180,45,112);" />
<text x="554.7" y="1018.2" font-size="36.4px" font-family="CMUBright-Roman" style="text-anchor:end;fill:rgb(0,0,0);" transform="rotate(34.7,554.7,1018.2)" >Arts-Theology</text>
<path d="M633.192,1090.055 A1642.000,1642.000 40.000 0,1 667.742,1040.182 L636.910,1017.969 A1680.000,1680.000 0.000 0,0 601.560,1068.997 Z" style="stroke-width:2.0;stroke:rgb(255,255,255);stroke-linecap:round;fill:none;" />
<path d="M688.997,1011.347 A1642.000,1642.000 40.000 0,1 698.803,998.477 L668.690,975.299 A1680.000,1680.000 0.000 0,0 658.657,988.467 Z" style="stroke-width:2.0;stroke:rgb(255,255,255);stroke-linecap:round;fill:rgb(205,75,142);" />
<text x="600.6" y="953.9" font-size="36.4px" font-family="CMUBright-Roman" style="text-anchor:end;fill:rgb(0,0,0);" transform="rotate(37.3,600.6,953.9)" >English-Writing</text>
<path d="M688.997,1011.347 A1642.000,1642.000 40.000 0,1 698.803,998.477 L668.690,975.299 A1680.000,1680.000 0.000 0,0 658.657,988.467 Z" style="stroke-width:2.0;stroke:rgb(255,255,255);stroke-linecap:round;fill:none;" />
<path d="M720.960,970.329 A1642.000,1642.000 40.000 0,1 724.774,965.610 L695.262,941.672 A1680.000,1680.000 0.000 0,0 691.360,946.500 Z" style="stroke-width:2.0;stroke:rgb(255,255,255);stroke-linecap:round;fill:rgb(225,110,168);" />
<text x="631.0" y="914.3" font-size="36.4px" font-family="CMUBright-Roman" style="text-anchor:end;fill:rgb(0,0,0);" transform="rotate(38.9,631.0,914.3)" >Languages</text>
<path d="M720.960,970.329 A1642.000,1642.000 40.000 0,1 724.774,965.610 L695.262,941.672 A1680.000,1680.000 0.000 0,0 691.360,946.500 Z" style="stroke-width:2.0;stroke:rgb(255,255,255);stroke-linecap:round;fill:none;" />
<path d="M747.643,938.037 A1642.000,1642.000 40.000 0,1 884.635,794.959 L858.822,767.071 A1680.000,1680.000 0.000 0,0 718.660,913.461 Z" style="stroke-width:2.0;stroke:rgb(255,255,255);stroke-linecap:round;fill:rgb(88,40,138);" />
<text x="727.0" y="803.3" font-size="36.4px" font-family="CMUBright-Roman" style="text-anchor:end;fill:rgb(0,0,0);" transform="rotate(43.8,727.0,803.3)" >Biological-Sciences</text>
<path d="M747.643,938.037 A1642.000,1642.000 40.000 0,1 884.635,794.959 L858.822,767.071 A1680.000,1680.000 0.000 0,0 718.660,913.461 Z" style="stroke-width:2.0;stroke:rgb(255,255,255);stroke-linecap:round;fill:none;" />
<path d="M911.188,770.914 A1642.000,1642.000 40.000 0,1 969.888,721.316 L946.049,691.724 A1680.000,1680.000 0.000 0,0 885.990,742.470 Z" style="stroke-width:2.0;stroke:rgb(255,255,255);stroke-linecap:round;fill:rgb(115,65,165);" />
<text x="862.8" y="673.5" font-size="36.4px" font-family="CMUBright-Roman" style="text-anchor:end;fill:rgb(0,0,0);" transform="rotate(49.8,862.8,673.5)" >Health-Wellness</text>
<path d="M911.188,770.914 A1642.000,1642.000 40.000 0,1 969.888,721.316 L946.049,691.724 A1680.000,1680.000 0.000 0,0 885.990,742.470 Z" style="stroke-width:2.0;stroke:rgb(255,255,255);stroke-linecap:round;fill:none;" />
<path d="M998.028,699.148 A1642.000,1642.000 40.000 0,1 1023.858,679.655 L1001.267,649.099 A1680.000,1680.000 0.000 0,0 974.840,669.043 Z" style="stroke-width:2.0;stroke:rgb(255,255,255);stroke-linecap:round;fill:rgb(140,92,188);" />
<text x="935.2" y="614.8" font-size="36.4px" font-family="CMUBright-Roman" style="text-anchor:end;fill:rgb(0,0,0);" transform="rotate(53.0,935.2,614.8)" >Physical-Sciences</text>
<path d="M998.028,699.148 A1642.000,1642.000 40.000 0,1 1023.858,679.655 L1001.267,649.099 A1680.000,1680.000 0.000 0,0 974.840,669.043 Z" style="stroke-width:2.0;stroke:rgb(255,255,255);stroke-linecap:round;fill:none;" />
<path d="M1052.893,658.675 A1642.000,1642.000 40.000 0,1 1064.493,650.559 L1042.843,619.329 A1680.000,1680.000 0.000 0,0 1030.975,627.633 Z" style="stroke-width:2.0;stroke:rgb(255,255,255);stroke-linecap:round;fill:rgb(165,120,208);" />
<text x="988.2" y="575.6" font-size="36.4px" font-family="CMUBright-Roman" style="text-anchor:end;fill:rgb(0,0,0);" transform="rotate(55.0,988.2,575.6)" >Environmental-Sciences</text>
<path d="M1052.893,658.675 A1642.000,1642.000 40.000 0,1 1064.493,650.559 L1042.843,619.329 A1680.000,1680.000 0.000 0,0 1030.975,627.633 Z" style="stroke-width:2.0;stroke:rgb(255,255,255);stroke-linecap:round;fill:none;" />
<path d="M1094.154,630.472 A1642.000,1642.000 40.000 0,1 1594.822,408.776 L1585.445,371.951 A1680.000,1680.000 0.000 0,0 1073.190,598.778 Z" style="stroke-width:2.0;stroke:rgb(255,255,255);stroke-linecap:round;fill:rgb(22,118,50);" />
<text x="1278.0" y="409.0" font-size="36.4px" font-family="CMUBright-Roman" style="text-anchor:end;fill:rgb(0,0,0);" transform="rotate(66.1,1278.0,409.0)" >Engineering-Disciplines</text>
<path d="M1094.154,630.472 A1642.000,1642.000 40.000 0,1 1594.822,408.776 L1585.445,371.951 A1680.000,1680.000 0.000 0,0 1073.190,598.778 Z" style="stroke-width:2.0;stroke:rgb(255,255,255);stroke-linecap:round;fill:none;" />
<path d="M1629.631,400.315 A1642.000,1642.000 40.000 0,1 1964.180,358.391 L1963.351,320.400 A1680.000,1680.000 0.000 0,0 1621.060,363.295 Z" style="stroke-width:2.0;stroke:rgb(255,255,255);stroke-linecap:round;fill:rgb(48,158,75);" />
<text x="1767.4" y="268.4" font-size="36.4px" font-family="CMUBright-Roman" style="text-anchor:end;fill:rgb(0,0,0);" transform="rotate(82.9,1767.4,268.4)" >Computer-Science-IT</text>
<path d="M1629.631,400.315 A1642.000,1642.000 40.000 0,1 1964.180,358.391 L1963.351,320.400 A1680.000,1680.000 0.000 0,0 1621.060,363.295 Z" style="stroke-width:2.0;stroke:rgb(255,255,255);stroke-linecap:round;fill:none;" />
</g>
<g id="track_0">
<path d="M 922.076,783.205 A 1625.580,1625.580 0.00 0,1 926.6,779.2 L 926.6,779.2 972.0,832.4 1016.9,888.2 1061.5,946.2 1105.8,1006.6 1149.9,1068.9 1193.6,1133.2 1237.2,1199.3 1280.7,1267.0 1324.0,1336.2 1367.1,1406.8 1410.2,1478.6 1453.1,1551.6 1495.9,1625.5 1538.6,1700.3 1581.1,1775.9 1623.5,1852.1 1665.6,1928.9 1707.6,2006.1 1749.3,2083.6 1790.7,2161.3 1831.7,2239.2 1872.3,2317.1 1912.4,2394.9 1952.0,2472.6 1990.9,2550.1 2029.1,2627.3 2066.6,2704.1 2103.1,2780.4 2138.7,2856.3 2173.1,2931.5 2206.4,3006.0 2238.3,3079.9 2268.8,3152.9 2297.6,3225.2 2324.8,3296.5 2350.1,3366.9 2373.4,3436.4 2394.5,3504.8 2413.3,3572.2  A 1625.580,1625.580 0.00 0,1 2407.5,3573.7 L 2407.5,3573.7 2388.9,3506.3 2368.1,3437.9 2345.1,3368.4 2320.0,3298.0 2293.1,3226.7 2264.4,3154.4 2234.2,3081.3 2202.4,3007.5 2169.4,2932.9 2135.1,2857.7 2099.7,2781.8 2063.3,2705.5 2026.0,2628.7 1987.9,2551.5 1949.0,2474.0 1909.5,2396.3 1869.5,2318.5 1828.9,2240.6 1787.9,2162.7 1746.6,2085.0 1704.9,2007.6 1662.9,1930.4 1620.7,1853.8 1578.3,1777.6 1535.7,1702.1 1493.0,1627.4 1450.1,1553.5 1407.1,1480.7 1364.0,1409.0 1320.7,1338.5 1277.3,1269.5 1233.7,1201.9 1190.0,1136.0 1146.1,1071.9 1101.9,1009.7 1057.5,949.6 1012.7,891.7 967.6,836.2 922.1,783.2  Z" style="stroke-width: 0.0;  fill: rgb(115,65,165);" />
<path d="M 926.580,779.230 A 1625.580,1625.580 0.00 0,1 928.1,777.9 L 928.1,777.9 974.3,832.0 1020.2,888.6 1065.9,947.3 1111.4,1008.1 1156.8,1070.8 1202.1,1135.2 1247.5,1201.3 1292.8,1268.8 1338.3,1337.7 1383.8,1407.7 1429.4,1478.8 1475.2,1550.8 1521.1,1623.7 1567.1,1697.2 1613.2,1771.3 1659.4,1845.9 1705.6,1920.9 1751.9,1996.2 1798.2,2071.6 1844.4,2147.1 1890.6,2222.7 1936.6,2298.1 1982.3,2373.4 2027.7,2448.5 2072.8,2523.3 2117.4,2597.7 2161.4,2671.7 2204.7,2745.2 2247.3,2818.2 2289.0,2890.6 2329.6,2962.3 2369.1,3033.4 2407.3,3103.9 2444.1,3173.6 2479.3,3242.5 2512.7,3310.7 2544.3,3378.1 2573.7,3444.7 2600.9,3510.4  A 1625.580,1625.580 0.00 0,1 2599.1,3511.2 L 2599.1,3511.2 2571.9,3445.4 2542.6,3378.8 2511.1,3311.4 2477.7,3243.2 2442.6,3174.2 2405.9,3104.5 2367.8,3034.1 2328.4,2963.0 2287.8,2891.2 2246.2,2818.8 2203.6,2745.8 2160.3,2672.2 2116.4,2598.2 2071.8,2523.8 2026.8,2449.0 1981.4,2374.0 1935.7,2298.7 1889.7,2223.2 1843.6,2147.7 1797.3,2072.2 1751.0,1996.7 1704.7,1921.5 1658.5,1846.5 1612.3,1771.9 1566.1,1697.8 1520.1,1624.3 1474.2,1551.5 1428.4,1479.5 1382.8,1408.4 1337.2,1338.4 1291.7,1269.6 1246.3,1202.2 1200.9,1136.2 1155.5,1071.8 1110.1,1009.1 1064.5,948.4 1018.8,889.7 972.8,833.3 926.6,779.2  Z" style="stroke-width: 0.0;  fill: rgb(115,65,165);" />
<path d="M 928.084,777.909 A 1625.580,1625.580 0.00 0,1 941.7,766.1 L 941.7,766.1 990.6,822.1 1041.5,878.2 1094.0,934.7 1148.0,991.6 1203.3,1048.9 1259.8,1106.7 1317.2,1165.0 1375.4,1224.0 1434.2,1283.5 1493.6,1343.6 1553.4,1404.4 1613.3,1465.9 1673.4,1528.0 1733.5,1590.8 1793.6,1654.2 1853.4,1718.3 1913.0,1782.9 1972.2,1848.1 2031.0,1913.8 2089.4,1980.0 2147.2,2046.6 2204.5,2113.5 2261.2,2180.7 2317.2,2248.1 2372.6,2315.6 2427.4,2383.1 2481.5,2450.5 2535.0,2517.7 2587.8,2584.5 2640.1,2651.0 2691.8,2716.8 2742.9,2782.0 2793.6,2846.2 2843.9,2909.5 2893.8,2971.5 2943.5,3032.2 2993.0,3091.4 3042.4,3148.9 3091.7,3204.4  A 1625.580,1625.580 0.00 0,1 3078.3,3216.4 L 3078.3,3216.4 3029.4,3160.2 2980.5,3102.1 2931.5,3042.3 2882.3,2981.0 2832.8,2918.4 2783.0,2854.7 2732.7,2790.0 2682.0,2724.4 2630.7,2658.2 2578.8,2591.5 2526.4,2524.3 2473.2,2456.9 2419.4,2389.3 2364.9,2321.6 2309.8,2254.0 2254.0,2186.6 2197.5,2119.3 2140.4,2052.4 2082.6,1985.9 2024.3,1919.8 1965.6,1854.2 1906.3,1789.1 1846.7,1724.7 1786.7,1660.9 1726.6,1597.7 1666.3,1535.2 1605.9,1473.3 1545.7,1412.2 1485.6,1351.7 1425.9,1291.9 1366.6,1232.7 1308.0,1174.2 1250.0,1116.2 1193.0,1058.8 1137.1,1001.9 1082.5,945.4 1029.3,889.3 977.8,833.5 928.1,777.9  Z" style="stroke-width: 0.0;  fill: rgb(115,65,165);" />
<path d="M 941.698,766.101 A 1625.580,1625.580 0.00 0,1 961.6,749.3 L 961.6,749.3 1008.4,804.4 1057.5,859.6 1108.7,915.0 1161.7,970.7 1216.4,1026.7 1272.7,1083.0 1330.3,1139.7 1389.2,1196.8 1449.1,1254.3 1510.0,1312.2 1571.7,1370.6 1634.1,1429.4 1697.1,1488.6 1760.5,1548.2 1824.3,1608.2 1888.3,1668.5 1952.4,1729.2 2016.6,1790.1 2080.9,1851.2 2145.0,1912.5 2209.0,1973.8 2272.7,2035.2 2336.2,2096.6 2399.4,2157.8 2462.2,2218.8 2524.6,2279.4 2586.6,2339.6 2648.2,2399.3 2709.3,2458.3 2769.9,2516.5 2830.1,2573.8 2889.8,2630.0 2949.1,2685.0 3007.9,2738.6 3066.3,2790.8 3124.3,2841.2 3182.0,2889.8 3239.4,2936.3 3296.5,2980.6  A 1625.580,1625.580 0.00 0,1 3280.6,3001.2 L 3280.6,3001.2 3224.0,2955.8 3167.0,2908.3 3109.8,2858.7 3052.3,2807.3 2994.4,2754.3 2936.0,2699.8 2877.2,2644.1 2818.0,2587.1 2758.3,2529.2 2698.0,2470.4 2637.3,2410.9 2576.1,2350.7 2514.4,2290.1 2452.3,2229.1 2389.7,2167.9 2326.7,2106.5 2263.4,2045.0 2199.8,1983.4 2135.9,1922.0 2071.7,1860.8 2007.5,1799.7 1943.1,1738.9 1878.8,1678.4 1814.6,1618.3 1750.6,1558.6 1686.8,1499.3 1623.5,1440.4 1560.6,1382.0 1498.4,1324.0 1436.9,1266.5 1376.4,1209.5 1316.8,1152.9 1258.4,1096.7 1201.4,1040.9 1145.8,985.4 1091.8,930.3 1039.7,875.4 989.6,820.7 941.7,766.1  Z" style="stroke-width: 0.0;  fill: rgb(115,65,165);" />
<path d="M 961.590,749.314 A 1625.580,1625.580 0.00 0,1 963.1,748.0 L 963.1,748.0 1008.7,801.4 1056.8,854.8 1107.2,908.3 1159.9,961.8 1214.6,1015.4 1271.2,1069.1 1329.5,1122.9 1389.4,1176.9 1450.8,1231.0 1513.6,1285.2 1577.5,1339.5 1642.5,1394.0 1708.5,1448.5 1775.3,1503.1 1842.9,1557.8 1911.0,1612.4 1979.7,1666.9 2048.8,1721.4 2118.3,1775.7 2188.0,1829.8 2257.8,1883.5 2327.7,1937.0 2397.6,1990.0 2467.4,2042.5 2537.1,2094.4 2606.5,2145.6 2675.7,2195.9 2744.6,2245.4 2813.1,2293.9 2881.2,2341.2 2948.9,2387.3 3016.0,2431.9 3082.6,2475.1 3148.7,2516.6 3214.2,2556.3 3279.1,2594.0 3343.4,2629.6 3407.0,2662.9 3470.1,2693.8  A 1625.580,1625.580 0.00 0,1 3469.2,2695.6 L 3469.2,2695.6 3406.2,2664.7 3342.5,2631.3 3278.3,2595.6 3213.4,2557.8 3147.9,2518.0 3081.9,2476.4 3015.3,2433.2 2948.2,2388.5 2880.5,2342.3 2812.5,2295.0 2744.0,2246.5 2675.1,2196.9 2605.9,2146.5 2536.5,2095.3 2466.8,2043.4 2397.0,1990.9 2327.1,1937.8 2257.2,1884.4 2187.3,1830.6 2117.7,1776.5 2048.2,1722.2 1979.1,1667.7 1910.4,1613.2 1842.2,1558.6 1774.6,1504.0 1707.7,1449.4 1641.7,1394.9 1576.7,1340.4 1512.7,1286.1 1449.9,1231.9 1388.4,1177.9 1328.4,1123.9 1270.1,1070.1 1213.4,1016.5 1158.6,962.9 1105.9,909.5 1055.4,856.1 1007.2,802.7 961.6,749.3  Z" style="stroke-width: 0.0;  fill: rgb(115,65,165);" />
<path d="M 963.132,748.036 A 1625.580,1625.580 0.00 0,1 967.8,744.2 L 967.8,744.2 1008.3,791.4 1051.7,837.8 1097.8,883.4 1146.5,928.0 1197.7,971.5 1251.3,1013.9 1307.1,1055.0 1365.0,1094.8 1425.0,1133.1 1486.8,1170.0 1550.4,1205.4 1615.6,1239.1 1682.3,1271.1 1750.4,1301.3 1819.7,1329.8 1890.2,1356.4 1961.6,1381.1 2033.9,1403.8 2106.9,1424.5 2180.5,1443.2 2254.5,1459.8 2328.9,1474.3 2403.5,1486.7 2478.1,1496.9 2552.6,1504.9 2626.9,1510.8 2700.8,1514.5 2774.2,1516.0 2846.9,1515.2 2918.8,1512.3 2989.8,1507.1 3059.7,1499.8 3128.4,1490.3 3195.7,1478.6 3261.4,1464.7 3325.5,1448.8 3387.8,1430.7 3448.0,1410.6 3506.2,1388.5  A 1625.580,1625.580 0.00 0,1 3508.4,1394.0 L 3508.4,1394.0 3450.1,1416.0 3389.7,1435.9 3327.3,1453.8 3263.1,1469.5 3197.2,1483.2 3129.8,1494.7 3061.0,1504.0 2990.9,1511.2 2919.8,1516.1 2847.7,1518.9 2774.8,1519.5 2701.3,1517.9 2627.3,1514.1 2552.8,1508.1 2478.2,1499.9 2403.4,1489.6 2328.7,1477.1 2254.1,1462.6 2179.9,1445.9 2106.1,1427.2 2032.9,1406.4 1960.5,1383.7 1888.8,1359.0 1818.2,1332.4 1748.7,1304.0 1680.4,1273.8 1613.5,1241.8 1548.1,1208.1 1484.3,1172.9 1422.3,1136.1 1362.1,1097.8 1304.0,1058.1 1247.9,1017.1 1194.1,974.8 1142.7,931.4 1093.8,886.9 1047.5,841.5 1003.9,795.1 963.1,748.0  Z" style="stroke-width: 0.0;  fill: rgb(115,65,165);" />
<path d="M 967.765,744.213 A 1625.580,1625.580 0.00 0,1 972.4,740.4 L 972.4,740.4 1011.0,785.7 1052.3,829.9 1095.9,873.0 1142.0,914.8 1190.2,955.1 1240.6,993.8 1293.0,1030.7 1347.2,1065.8 1403.1,1098.8 1460.7,1129.8 1519.7,1158.6 1580.1,1185.0 1641.7,1209.2 1704.4,1230.9 1768.1,1250.0 1832.6,1266.7 1897.8,1280.7 1963.6,1292.1 2029.9,1300.8 2096.4,1306.9 2163.2,1310.2 2229.9,1310.8 2296.6,1308.8 2363.1,1304.0 2429.2,1296.6 2494.8,1286.5 2559.7,1273.9 2623.9,1258.7 2687.1,1241.0 2749.3,1220.9 2810.3,1198.5 2869.9,1173.7 2928.0,1146.8 2984.5,1117.8 3039.3,1086.9 3092.1,1054.1 3142.8,1019.5 3191.3,983.4 3237.4,945.8  A 1625.580,1625.580 0.00 0,1 3241.3,950.4 L 3241.3,950.4 3195.0,987.9 3146.3,1023.9 3095.4,1058.2 3042.4,1090.9 2987.5,1121.7 2930.8,1150.5 2872.4,1177.3 2812.6,1201.9 2751.4,1224.2 2689.0,1244.2 2625.6,1261.8 2561.2,1276.8 2496.0,1289.4 2430.2,1299.4 2363.9,1306.7 2297.2,1311.4 2230.3,1313.4 2163.3,1312.7 2096.3,1309.3 2029.5,1303.3 1963.0,1294.5 1897.0,1283.2 1831.5,1269.1 1766.8,1252.5 1702.9,1233.4 1639.9,1211.7 1578.1,1187.7 1517.5,1161.3 1458.2,1132.6 1400.4,1101.7 1344.3,1068.7 1289.8,1033.8 1237.3,997.0 1186.7,958.4 1138.2,918.2 1091.9,876.5 1048.0,833.5 1006.6,789.4 967.8,744.2  Z" style="stroke-width: 0.0;  fill: rgb(115,65,165);" />
<path d="M 972.413,740.407 A 1625.580,1625.580 0.00 0,1 980.2,734.1 L 980.2,734.1 1014.8,775.9 1050.6,816.7 1087.4,856.1 1124.9,893.9 1163.0,929.9 1201.5,963.8 1240.3,995.3 1279.2,1024.3 1318.1,1050.6 1356.9,1074.0 1395.3,1094.3 1433.3,1111.5 1470.8,1125.4 1507.5,1135.9 1543.6,1143.0 1578.7,1146.6 1612.8,1146.5 1645.9,1142.9 1677.9,1135.7 1708.6,1124.8 1738.0,1110.4 1766.1,1092.5 1792.7,1071.1 1817.8,1046.3 1841.4,1018.2 1863.5,986.9 1883.9,952.6 1902.7,915.3 1919.9,875.4 1935.4,832.9 1949.2,788.0 1961.3,741.0 1971.7,692.1 1980.5,641.6 1987.6,589.7 1993.1,536.7 1997.0,482.9 1999.2,428.7 2000.0,374.4  A 1625.580,1625.580 0.00 0,1 2010.0,374.5 L 2010.0,374.5 2008.9,428.8 2006.3,483.0 2002.0,536.8 1996.1,589.9 1988.6,641.8 1979.4,692.4 1968.4,741.4 1955.8,788.5 1941.6,833.4 1925.6,876.0 1907.9,916.1 1888.6,953.4 1867.6,987.9 1845.0,1019.3 1820.9,1047.5 1795.2,1072.4 1768.1,1094.0 1739.5,1112.1 1709.6,1126.7 1678.3,1137.7 1645.8,1145.1 1612.2,1149.0 1577.6,1149.2 1541.9,1145.9 1505.4,1139.0 1468.1,1128.8 1430.2,1115.1 1391.7,1098.1 1352.8,1078.0 1313.6,1054.9 1274.3,1028.8 1235.0,1000.1 1195.8,968.8 1156.8,935.2 1118.4,899.4 1080.5,861.8 1043.5,822.6 1007.4,782.0 972.4,740.4  Z" style="stroke-width: 0.0;  fill: rgb(115,65,165);" />
</g>
<defs>
<pattern id="checker" width="10" height="10" patternTransform="rotate(45 0 0)" patternUnits="userSpaceOnUse"><line x1="0" y1="0" x2="10" y2="0" style="stroke:black;stroke-width:2" /><line x1="0" y1="0" x2="0" y2="10" style="stroke:black;stroke-width:2" /></pattern>
<pattern id="checker" width="10" height="10" patternTransform="rotate(45 0 0)" patternUnits="userSpaceOnUse"><line x1="0" y1="0" x2="10" y2="0" style="stroke:black;stroke-width:5" /><line x1="0" y1="0" x2="0" y2="10" style="stroke:black;stroke-width:4" /></pattern>
<pattern id="hline-sparse" width="10" height="10" patternTransform="rotate(0 0 0)" patternUnits="userSpaceOnUse"><line x1="0" y1="0" x2="10" y2="0" style="stroke:black;stroke-width:2" /></pattern>
<pattern id="vline-sparse" width="10" height="10" patternTransform="rotate(0 0 0)" patternUnits="userSpaceOnUse"><line x1="0" y1="0" x2="0" y2="10" style="stroke:black;stroke-width:2" /></pattern>
<pattern id="hline" width="10" height="10" patternTransform="rotate(0 0 0)" patternUnits="userSpaceOnUse"><line x1="0" y1="0" x2="10" y2="0" style="stroke:black;stroke-width:5" /></pattern>
<pattern id="vline" width="10" height="10" patternTransform="rotate(0 0 0)" patternUnits="userSpaceOnUse"><line x1="0" y1="0" x2="0" y2="10" style="stroke:black;stroke-width:5" /></pattern>
</defs>
</svg>
