<?xml version="1.0" encoding="utf-8" standalone="no"?>
<!DOCTYPE svg PUBLIC "-//W3C//DTD SVG 1.1//EN" "http://www.w3.org/Graphics/SVG/1.1/DTD/svg11.dtd">
<svg width="4000px" height="4000px" version="1.1" xmlns="http://www.w3.org/2000/svg" xmlns:xlink="http://www.w3.org/1999/xlink">
<g id="bg">
<rect x="0" y="0" width="4000px" height="4000px" style="fill:rgb(255,255,255);"/>
</g>
<g id="ideograms">
<path d="M2000.000,358.000 A1642.000,1642.000 40.000 0,1 2727.139,527.779 L2743.967,493.709 A1680.000,1680.000 0.000 0,0 2000.000,320.000 Z" style="stroke-width:2.0;stroke:rgb(255,255,255);stroke-linecap:round;fill:rgb(185,185,185);" />
<text x="2412.3" y="302.2" font-size="36.4px" font-family="CMUBright-Roman" style="text-anchor:start;fill:rgb(0,0,0);" transform="rotate(283.1,2412.3,302.2)" >Engineering</text>
<path d="M2000.000,358.000 A1642.000,1642.000 40.000 0,1 2727.139,527.779 L2743.967,493.709 A1680.000,1680.000 0.000 0,0 2000.000,320.000 Z" style="stroke-width:2.0;stroke:rgb(255,255,255);stroke-linecap:round;fill:none;" />
<path d="M2759.082,543.992 A1642.000,1642.000 40.000 0,1 3284.099,976.646 L3313.816,952.963 A1680.000,1680.000 0.000 0,0 2776.649,510.297 Z" style="stroke-width:2.0;stroke:rgb(255,255,255);stroke-linecap:round;fill:rgb(185,185,185);" />
<text x="3120.8" y="659.6" font-size="36.4px" font-family="CMUBright-Roman" style="text-anchor:start;fill:rgb(0,0,0);" transform="rotate(309.5,3120.8,659.6)" >Finance-Investment</text>
<path d="M2759.082,543.992 A1642.000,1642.000 40.000 0,1 3284.099,976.646 L3313.816,952.963 A1680.000,1680.000 0.000 0,0 2776.649,510.297 Z" style="stroke-width:2.0;stroke:rgb(255,255,255);stroke-linecap:round;fill:none;" />
<path d="M3306.118,1004.902 A1642.000,1642.000 40.000 0,1 3557.132,1478.938 L3593.167,1466.879 A1680.000,1680.000 0.000 0,0 3336.345,981.873 Z" style="stroke-width:2.0;stroke:rgb(255,255,255);stroke-linecap:round;fill:rgb(185,185,185);" />
<text x="3551.5" y="1196.5" font-size="36.4px" font-family="CMUBright-Roman" style="text-anchor:start;fill:rgb(0,0,0);" transform="rotate(332.1,3551.5,1196.5)" >Management-Operations</text>
<path d="M3306.118,1004.902 A1642.000,1642.000 40.000 0,1 3557.132,1478.938 L3593.167,1466.879 A1680.000,1680.000 0.000 0,0 3336.345,981.873 Z" style="stroke-width:2.0;stroke:rgb(255,255,255);stroke-linecap:round;fill:none;" />
<path d="M3568.128,1513.031 A1642.000,1642.000 40.000 0,1 3640.479,1929.339 L3678.444,1927.703 A1680.000,1680.000 0.000 0,0 3604.418,1501.761 Z" style="stroke-width:2.0;stroke:rgb(255,255,255);stroke-linecap:round;fill:rgb(185,185,185);" />
<text x="3723.5" y="1713.2" font-size="36.4px" font-family="CMUBright-Roman" style="text-anchor:start;fill:rgb(0,0,0);" transform="rotate(350.1,3723.5,1713.2)" >Software-Data</text>
<path d="M3568.128,1513.031 A1642.000,1642.000 40.000 0,1 3640.479,1929.339 L3678.444,1927.703 A1680.000,1680.000 0.000 0,0 3604.418,1501.761 Z" style="stroke-width:2.0;stroke:rgb(255,255,255);stroke-linecap:round;fill:none;" />
<path d="M3641.630,1965.142 A1642.000,1642.000 40.000 0,1 3597.388,2380.151 L3634.356,2388.948 A1680.000,1680.000 0.000 0,0 3679.621,1964.336 Z" style="stroke-width:2.0;stroke:rgb(255,255,255);stroke-linecap:round;fill:rgb(185,185,185);" />
<text x="3735.6" y="2201.1" font-size="36.4px" font-family="CMUBright-Roman" style="text-anchor:start;fill:rgb(0,0,0);" transform="rotate(6.1,3735.6,2201.1)" >Sales-Marketing</text>
<path d="M3641.630,1965.142 A1642.000,1642.000 40.000 0,1 3597.388,2380.151 L3634.356,2388.948 A1680.000,1680.000 0.000 0,0 3679.621,1964.336 Z" style="stroke-width:2.0;stroke:rgb(255,255,255);stroke-linecap:round;fill:none;" />
<path d="M3588.715,2414.907 A1642.000,1642.000 40.000 0,1 3447.858,2774.513 L3481.365,2792.437 A1680.000,1680.000 0.000 0,0 3625.482,2424.509 Z" style="stroke-width:2.0;stroke:rgb(255,255,255);stroke-linecap:round;fill:rgb(185,185,185);" />
<text x="3620.9" y="2652.1" font-size="36.4px" font-family="CMUBright-Roman" style="text-anchor:start;fill:rgb(0,0,0);" transform="rotate(21.4,3620.9,2652.1)" >Accounting-Audit</text>
<path d="M3588.715,2414.907 A1642.000,1642.000 40.000 0,1 3447.858,2774.513 L3481.365,2792.437 A1680.000,1680.000 0.000 0,0 3625.482,2424.509 Z" style="stroke-width:2.0;stroke:rgb(255,255,255);stroke-linecap:round;fill:none;" />
<path d="M3430.618,2805.914 A1642.000,1642.000 40.000 0,1 3261.549,3051.027 L3290.745,3075.350 A1680.000,1680.000 0.000 0,0 3463.726,2824.565 Z" style="stroke-width:2.0;stroke:rgb(255,255,255);stroke-linecap:round;fill:rgb(185,185,185);" />
<text x="3429.4" y="3004.8" font-size="36.4px" font-family="CMUBright-Roman" style="text-anchor:start;fill:rgb(0,0,0);" transform="rotate(34.6,3429.4,3004.8)" >Leadership-General</text>
<path d="M3430.618,2805.914 A1642.000,1642.000 40.000 0,1 3261.549,3051.027 L3290.745,3075.350 A1680.000,1680.000 0.000 0,0 3463.726,2824.565 Z" style="stroke-width:2.0;stroke:rgb(255,255,255);stroke-linecap:round;fill:none;" />
<path d="M3238.321,3078.297 A1642.000,1642.000 40.000 0,1 3039.505,3271.060 L3063.562,3300.476 A1680.000,1680.000 0.000 0,0 3266.979,3103.252 Z" style="stroke-width:2.0;stroke:rgb(255,255,255);stroke-linecap:round;fill:rgb(185,185,185);" />
<text x="3207.2" y="3263.1" font-size="36.4px" font-family="CMUBright-Roman" style="text-anchor:start;fill:rgb(0,0,0);" transform="rotate(45.9,3207.2,3263.1)" >Clinical-Care</text>
<path d="M3238.321,3078.297 A1642.000,1642.000 40.000 0,1 3039.505,3271.060 L3063.562,3300.476 A1680.000,1680.000 0.000 0,0 3266.979,3103.252 Z" style="stroke-width:2.0;stroke:rgb(255,255,255);stroke-linecap:round;fill:none;" />
<path d="M3011.529,3293.434 A1642.000,1642.000 40.000 0,1 2784.385,3442.534 L2802.537,3475.918 A1680.000,1680.000 0.000 0,0 3034.939,3323.368 Z" style="stroke-width:2.0;stroke:rgb(255,255,255);stroke-linecap:round;fill:rgb(185,185,185);" />
<text x="2948.3" y="3467.5" font-size="36.4px" font-family="CMUBright-Roman" style="text-anchor:start;fill:rgb(0,0,0);" transform="rotate(56.7,2948.3,3467.5)" >Research-Science</text>
<path d="M3011.529,3293.434 A1642.000,1642.000 40.000 0,1 2784.385,3442.534 L2802.537,3475.918 A1680.000,1680.000 0.000 0,0 3034.939,3323.368 Z" style="stroke-width:2.0;stroke:rgb(255,255,255);stroke-linecap:round;fill:none;" />
<path d="M2752.729,3459.302 A1642.000,1642.000 40.000 0,1 2556.245,3544.913 L2569.118,3580.666 A1680.000,1680.000 0.000 0,0 2770.149,3493.074 Z" style="stroke-width:2.0;stroke:rgb(255,255,255);stroke-linecap:round;fill:rgb(185,185,185);" />
<text x="2686.4" y="3606.7" font-size="36.4px" font-family="CMUBright-Roman" style="text-anchor:start;fill:rgb(0,0,0);" transform="rotate(66.5,2686.4,3606.7)" >Education</text>
<path d="M2752.729,3459.302 A1642.000,1642.000 40.000 0,1 2556.245,3544.913 L2569.118,3580.666 A1680.000,1680.000 0.000 0,0 2770.149,3493.074 Z" style="stroke-width:2.0;stroke:rgb(255,255,255);stroke-linecap:round;fill:none;" />
<path d="M2522.411,3556.679 A1642.000,1642.000 40.000 0,1 2417.174,3588.121 L2426.829,3624.875 A1680.000,1680.000 0.000 0,0 2534.501,3592.705 Z" style="stroke-width:2.0;stroke:rgb(255,255,255);stroke-linecap:round;fill:rgb(185,185,185);" />
<text x="2488.2" y="3677.6" font-size="36.4px" font-family="CMUBright-Roman" style="text-anchor:start;fill:rgb(0,0,0);" transform="rotate(73.4,2488.2,3677.6)" >IT-Infrastructure</text>
<path d="M2522.411,3556.679 A1642.000,1642.000 40.000 0,1 2417.174,3588.121 L2426.829,3624.875 A1680.000,1680.000 0.000 0,0 2534.501,3592.705 Z" style="stroke-width:2.0;stroke:rgb(255,255,255);stroke-linecap:round;fill:none;" />
<path d="M2382.430,3596.844 A1642.000,1642.000 40.000 0,1 2321.118,3610.294 L2328.550,3647.560 A1680.000,1680.000 0.000 0,0 2391.281,3633.799 Z" style="stroke-width:2.0;stroke:rgb(255,255,255);stroke-linecap:round;fill:rgb(185,185,185);" />
<text x="2358.7" y="3710.0" font-size="36.4px" font-family="CMUBright-Roman" style="text-anchor:start;fill:rgb(0,0,0);" transform="rotate(77.6,2358.7,3710.0)" >Legal-Policy</text>
<path d="M2382.430,3596.844 A1642.000,1642.000 40.000 0,1 2321.118,3610.294 L2328.550,3647.560 A1680.000,1680.000 0.000 0,0 2391.281,3633.799 Z" style="stroke-width:2.0;stroke:rgb(255,255,255);stroke-linecap:round;fill:none;" />
<path d="M2285.913,3616.916 A1642.000,1642.000 40.000 0,1 2249.787,3622.890 L2255.567,3660.447 A1680.000,1680.000 0.000 0,0 2292.530,3654.336 Z" style="stroke-width:2.0;stroke:rgb(255,255,255);stroke-linecap:round;fill:rgb(185,185,185);" />
<text x="2272.7" y="3725.8" font-size="36.4px" font-family="CMUBright-Roman" style="text-anchor:start;fill:rgb(0,0,0);" transform="rotate(80.6,2272.7,3725.8)" >Social-Service</text>
<path d="M2285.913,3616.916 A1642.000,1642.000 40.000 0,1 2249.787,3622.890 L2255.567,3660.447 A1680.000,1680.000 0.000 0,0 2292.530,3654.336 Z" style="stroke-width:2.0;stroke:rgb(255,255,255);stroke-linecap:round;fill:none;" />
<path d="M2214.324,3627.952 A1642.000,1642.000 40.000 0,1 1245.263,3458.265 L1227.797,3492.013 A1680.000,1680.000 0.000 0,0 2219.284,3665.627 Z" style="stroke-width:2.0;stroke:rgb(255,255,255);stroke-linecap:round;fill:rgb(15,52,135);" />
<text x="1714.4" y="3723.7" font-size="36.4px" font-family="CMUBright-Roman" style="text-anchor:end;fill:rgb(0,0,0);" transform="rotate(-80.1,1714.4,3723.7)" >Finance-Accounting</text>
<path d="M2214.324,3627.952 A1642.000,1642.000 40.000 0,1 1245.263,3458.265 L1227.797,3492.013 A1680.000,1680.000 0.000 0,0 2219.284,3665.627 Z" style="stroke-width:2.0;stroke:rgb(255,255,255);stroke-linecap:round;fill:none;" />
<path d="M1213.631,3441.453 A1642.000,1642.000 40.000 0,1 879.437,3200.209 L853.504,3227.985 A1680.000,1680.000 0.000 0,0 1195.432,3474.812 Z" style="stroke-width:2.0;stroke:rgb(255,255,255);stroke-linecap:round;fill:rgb(28,75,160);" />
<text x="990.4" y="3426.0" font-size="36.4px" font-family="CMUBright-Roman" style="text-anchor:end;fill:rgb(0,0,0);" transform="rotate(-54.2,990.4,3426.0)" >Marketing-Communication</text>
<path d="M1213.631,3441.453 A1642.000,1642.000 40.000 0,1 879.437,3200.209 L853.504,3227.985 A1680.000,1680.000 0.000 0,0 1195.432,3474.812 Z" style="stroke-width:2.0;stroke:rgb(255,255,255);stroke-linecap:round;fill:none;" />
<path d="M853.521,3175.478 A1642.000,1642.000 40.000 0,1 639.254,2918.986 L607.763,2940.253 A1680.000,1680.000 0.000 0,0 826.988,3202.682 Z" style="stroke-width:2.0;stroke:rgb(255,255,255);stroke-linecap:round;fill:rgb(42,98,180);" />
<text x="667.2" y="3129.7" font-size="36.4px" font-family="CMUBright-Roman" style="text-anchor:end;fill:rgb(0,0,0);" transform="rotate(-39.9,667.2,3129.7)" >General-Business</text>
<path d="M853.521,3175.478 A1642.000,1642.000 40.000 0,1 639.254,2918.986 L607.763,2940.253 A1680.000,1680.000 0.000 0,0 826.988,3202.682 Z" style="stroke-width:2.0;stroke:rgb(255,255,255);stroke-linecap:round;fill:none;" />
<path d="M619.530,2889.082 A1642.000,1642.000 40.000 0,1 479.680,2620.315 L444.496,2634.671 A1680.000,1680.000 0.000 0,0 587.583,2909.658 Z" style="stroke-width:2.0;stroke:rgb(255,255,255);stroke-linecap:round;fill:rgb(60,120,198);" />
<text x="457.3" y="2820.2" font-size="36.4px" font-family="CMUBright-Roman" style="text-anchor:end;fill:rgb(0,0,0);" transform="rotate(-27.5,457.3,2820.2)" >Operations-Analytics</text>
<path d="M619.530,2889.082 A1642.000,1642.000 40.000 0,1 479.680,2620.315 L444.496,2634.671 A1680.000,1680.000 0.000 0,0 587.583,2909.658 Z" style="stroke-width:2.0;stroke:rgb(255,255,255);stroke-linecap:round;fill:none;" />
<path d="M466.510,2587.002 A1642.000,1642.000 40.000 0,1 421.749,2453.087 L385.224,2463.573 A1680.000,1680.000 0.000 0,0 431.021,2600.587 Z" style="stroke-width:2.0;stroke:rgb(255,255,255);stroke-linecap:round;fill:rgb(82,145,215);" />
<text x="347.9" y="2568.6" font-size="36.4px" font-family="CMUBright-Roman" style="text-anchor:end;fill:rgb(0,0,0);" transform="rotate(-18.5,347.9,2568.6)" >Specialized-Business</text>
<path d="M466.510,2587.002 A1642.000,1642.000 40.000 0,1 421.749,2453.087 L385.224,2463.573 A1680.000,1680.000 0.000 0,0 431.021,2600.587 Z" style="stroke-width:2.0;stroke:rgb(255,255,255);stroke-linecap:round;fill:none;" />
<path d="M412.241,2418.550 A1642.000,1642.000 40.000 0,1 391.911,2331.987 L354.696,2339.670 A1680.000,1680.000 0.000 0,0 375.496,2428.236 Z" style="stroke-width:2.0;stroke:rgb(255,255,255);stroke-linecap:round;fill:rgb(108,170,228);" />
<text x="301.9" y="2411.1" font-size="36.4px" font-family="CMUBright-Roman" style="text-anchor:end;fill:rgb(0,0,0);" transform="rotate(-13.2,301.9,2411.1)" >Economics</text>
<path d="M412.241,2418.550 A1642.000,1642.000 40.000 0,1 391.911,2331.987 L354.696,2339.670 A1680.000,1680.000 0.000 0,0 375.496,2428.236 Z" style="stroke-width:2.0;stroke:rgb(255,255,255);stroke-linecap:round;fill:none;" />
<path d="M385.052,2296.827 A1642.000,1642.000 40.000 0,1 366.030,2162.194 L328.216,2165.947 A1680.000,1680.000 0.000 0,0 347.678,2303.697 Z" style="stroke-width:2.0;stroke:rgb(255,255,255);stroke-linecap:round;fill:rgb(200,108,30);" />
<text x="271.8" y="2256.8" font-size="36.4px" font-family="CMUBright-Roman" style="text-anchor:end;fill:rgb(0,0,0);" transform="rotate(-8.0,271.8,2256.8)" >Social-Sciences</text>
<path d="M385.052,2296.827 A1642.000,1642.000 40.000 0,1 366.030,2162.194 L328.216,2165.947 A1680.000,1680.000 0.000 0,0 347.678,2303.697 Z" style="stroke-width:2.0;stroke:rgb(255,255,255);stroke-linecap:round;fill:none;" />
<path d="M362.881,2126.510 A1642.000,1642.000 40.000 0,1 359.682,2074.299 L321.721,2076.018 A1680.000,1680.000 0.000 0,0 324.994,2129.438 Z" style="stroke-width:2.0;stroke:rgb(255,255,255);stroke-linecap:round;fill:rgb(220,140,52);" />
<text x="256.9" y="2119.3" font-size="36.4px" font-family="CMUBright-Roman" style="text-anchor:end;fill:rgb(0,0,0);" transform="rotate(-3.5,256.9,2119.3)" >Humanities-Liberal-Arts</text>
<path d="M362.881,2126.510 A1642.000,1642.000 40.000 0,1 359.682,2074.299 L321.721,2076.018 A1680.000,1680.000 0.000 0,0 324.994,2129.438 Z" style="stroke-width:2.0;stroke:rgb(255,255,255);stroke-linecap:round;fill:none;" />
<path d="M358.451,2038.498 A1642.000,1642.000 40.000 0,1 358.158,2022.807 L320.162,2023.335 A1680.000,1680.000 0.000 0,0 320.462,2039.389 Z" style="stroke-width:2.0;stroke:rgb(255,255,255);stroke-linecap:round;fill:rgb(235,168,78);" />
<text x="253.4" y="2045.1" font-size="36.4px" font-family="CMUBright-Roman" style="text-anchor:end;fill:rgb(0,0,0);" transform="rotate(-1.1,253.4,2045.1)" >International-Studies</text>
<path d="M358.451,2038.498 A1642.000,1642.000 40.000 0,1 358.158,2022.807 L320.162,2023.335 A1680.000,1680.000 0.000 0,0 320.462,2039.389 Z" style="stroke-width:2.0;stroke:rgb(255,255,255);stroke-linecap:round;fill:none;" />
<path d="M358.052,1986.985 A1642.000,1642.000 40.000 0,1 367.336,1825.152 L329.552,1821.105 A1680.000,1680.000 0.000 0,0 320.053,1986.684 Z" style="stroke-width:2.0;stroke:rgb(255,255,255);stroke-linecap:round;fill:rgb(175,35,42);" />
<text x="255.0" y="1912.4" font-size="36.4px" font-family="CMUBright-Roman" style="text-anchor:end;fill:rgb(0,0,0);" transform="rotate(3.3,255.0,1912.4)" >Teacher-Education</text>
<path d="M358.052,1986.985 A1642.000,1642.000 40.000 0,1 367.336,1825.152 L329.552,1821.105 A1680.000,1680.000 0.000 0,0 320.053,1986.684 Z" style="stroke-width:2.0;stroke:rgb(255,255,255);stroke-linecap:round;fill:none;" />
<path d="M371.539,1789.577 A1642.000,1642.000 40.000 0,1 376.636,1753.316 L339.067,1747.607 A1680.000,1680.000 0.000 0,0 333.852,1784.707 Z" style="stroke-width:2.0;stroke:rgb(255,255,255);stroke-linecap:round;fill:rgb(195,58,55);" />
<text x="268.1" y="1769.2" font-size="36.4px" font-family="CMUBright-Roman" style="text-anchor:end;fill:rgb(0,0,0);" transform="rotate(8.0,268.1,1769.2)" >Social-Work</text>
<path d="M371.539,1789.577 A1642.000,1642.000 40.000 0,1 376.636,1753.316 L339.067,1747.607 A1680.000,1680.000 0.000 0,0 333.852,1784.707 Z" style="stroke-width:2.0;stroke:rgb(255,255,255);stroke-linecap:round;fill:none;" />
<path d="M382.404,1717.961 A1642.000,1642.000 40.000 0,1 388.090,1687.094 L350.786,1679.853 A1680.000,1680.000 0.000 0,0 344.968,1711.434 Z" style="stroke-width:2.0;stroke:rgb(255,255,255);stroke-linecap:round;fill:rgb(215,82,72);" />
<text x="279.0" y="1698.7" font-size="36.4px" font-family="CMUBright-Roman" style="text-anchor:end;fill:rgb(0,0,0);" transform="rotate(10.4,279.0,1698.7)" >Special-Education</text>
<path d="M382.404,1717.961 A1642.000,1642.000 40.000 0,1 388.090,1687.094 L350.786,1679.853 A1680.000,1680.000 0.000 0,0 344.968,1711.434 Z" style="stroke-width:2.0;stroke:rgb(255,255,255);stroke-linecap:round;fill:none;" />
<path d="M395.300,1652.005 A1642.000,1642.000 40.000 0,1 396.416,1646.895 L359.305,1638.723 A1680.000,1680.000 0.000 0,0 358.163,1643.952 Z" style="stroke-width:2.0;stroke:rgb(255,255,255);stroke-linecap:round;fill:rgb(230,112,95);" />
<text x="289.8" y="1642.1" font-size="36.4px" font-family="CMUBright-Roman" style="text-anchor:end;fill:rgb(0,0,0);" transform="rotate(12.3,289.8,1642.1)" >Educational-Leadership</text>
<path d="M395.300,1652.005 A1642.000,1642.000 40.000 0,1 396.416,1646.895 L359.305,1638.723 A1680.000,1680.000 0.000 0,0 358.163,1643.952 Z" style="stroke-width:2.0;stroke:rgb(255,255,255);stroke-linecap:round;fill:none;" />
<path d="M404.501,1611.997 A1642.000,1642.000 40.000 0,1 423.388,1541.244 L386.901,1530.627 A1680.000,1680.000 0.000 0,0 367.577,1603.017 Z" style="stroke-width:2.0;stroke:rgb(255,255,255);stroke-linecap:round;fill:rgb(0,130,142);" />
<text x="308.7" y="1561.5" font-size="36.4px" font-family="CMUBright-Roman" style="text-anchor:end;fill:rgb(0,0,0);" transform="rotate(14.9,308.7,1561.5)" >Communication-Studies</text>
<path d="M404.501,1611.997 A1642.000,1642.000 40.000 0,1 423.388,1541.244 L386.901,1530.627 A1680.000,1680.000 0.000 0,0 367.577,1603.017 Z" style="stroke-width:2.0;stroke:rgb(255,255,255);stroke-linecap:round;fill:none;" />
<path d="M433.770,1506.960 A1642.000,1642.000 40.000 0,1 448.549,1462.261 L412.644,1449.816 A1680.000,1680.000 0.000 0,0 397.524,1495.549 Z" style="stroke-width:2.0;stroke:rgb(255,255,255);stroke-linecap:round;fill:rgb(0,165,172);" />
<text x="337.2" y="1463.4" font-size="36.4px" font-family="CMUBright-Roman" style="text-anchor:end;fill:rgb(0,0,0);" transform="rotate(18.3,337.2,1463.4)" >Journalism-Media</text>
<path d="M433.770,1506.960 A1642.000,1642.000 40.000 0,1 448.549,1462.261 L412.644,1449.816 A1680.000,1680.000 0.000 0,0 397.524,1495.549 Z" style="stroke-width:2.0;stroke:rgb(255,255,255);stroke-linecap:round;fill:none;" />
<path d="M460.649,1428.544 A1642.000,1642.000 40.000 0,1 466.181,1413.858 L430.684,1400.293 A1680.000,1680.000 0.000 0,0 425.024,1415.319 Z" style="stroke-width:2.0;stroke:rgb(255,255,255);stroke-linecap:round;fill:rgb(38,195,195);" />
<text x="359.4" y="1399.1" font-size="36.4px" font-family="CMUBright-Roman" style="text-anchor:end;fill:rgb(0,0,0);" transform="rotate(20.6,359.4,1399.1)" >Creative-Writing</text>
<path d="M460.649,1428.544 A1642.000,1642.000 40.000 0,1 466.181,1413.858 L430.684,1400.293 A1680.000,1680.000 0.000 0,0 425.024,1415.319 Z" style="stroke-width:2.0;stroke:rgb(255,255,255);stroke-linecap:round;fill:none;" />
<path d="M479.332,1380.537 A1642.000,1642.000 40.000 0,1 510.660,1308.603 L476.193,1292.602 A1680.000,1680.000 0.000 0,0 444.140,1366.201 Z" style="stroke-width:2.0;stroke:rgb(255,255,255);stroke-linecap:round;fill:rgb(180,45,112);" />
<text x="391.8" y="1317.1" font-size="36.4px" font-family="CMUBright-Roman" style="text-anchor:end;fill:rgb(0,0,0);" transform="rotate(23.5,391.8,1317.1)" >Arts-Theology</text>
<path d="M479.332,1380.537 A1642.000,1642.000 40.000 0,1 510.660,1308.603 L476.193,1292.602 A1680.000,1680.000 0.000 0,0 444.140,1366.201 Z" style="stroke-width:2.0;stroke:rgb(255,255,255);stroke-linecap:round;fill:none;" />
<path d="M526.097,1276.278 A1642.000,1642.000 40.000 0,1 530.738,1266.901 L496.736,1249.936 A1680.000,1680.000 0.000 0,0 491.987,1259.529 Z" style="stroke-width:2.0;stroke:rgb(255,255,255);stroke-linecap:round;fill:rgb(205,75,142);" />
<text x="427.1" y="1239.3" font-size="36.4px" font-family="CMUBright-Roman" style="text-anchor:end;fill:rgb(0,0,0);" transform="rotate(26.3,427.1,1239.3)" >English-Writing</text>
<path d="M526.097,1276.278 A1642.000,1642.000 40.000 0,1 530.738,1266.901 L496.736,1249.936 A1680.000,1680.000 0.000 0,0 491.987,1259.529 Z" style="stroke-width:2.0;stroke:rgb(255,255,255);stroke-linecap:round;fill:none;" />
<path d="M547.080,1235.024 A1642.000,1642.000 40.000 0,1 549.525,1230.399 L515.957,1212.589 A1680.000,1680.000 0.000 0,0 513.456,1217.321 Z" style="stroke-width:2.0;stroke:rgb(255,255,255);stroke-linecap:round;fill:rgb(225,110,168);" />
<text x="447.9" y="1197.7" font-size="36.4px" font-family="CMUBright-Roman" style="text-anchor:end;fill:rgb(0,0,0);" transform="rotate(27.9,447.9,1197.7)" >Languages</text>
<path d="M547.080,1235.024 A1642.000,1642.000 40.000 0,1 549.525,1230.399 L515.957,1212.589 A1680.000,1680.000 0.000 0,0 513.456,1217.321 Z" style="stroke-width:2.0;stroke:rgb(255,255,255);stroke-linecap:round;fill:none;" />
<path d="M566.659,1198.940 A1642.000,1642.000 40.000 0,1 748.337,937.219 L719.370,912.624 A1680.000,1680.000 0.000 0,0 533.488,1180.402 Z" style="stroke-width:2.0;stroke:rgb(255,255,255);stroke-linecap:round;fill:rgb(88,40,138);" />
<text x="555.7" y="1016.9" font-size="36.4px" font-family="CMUBright-Roman" style="text-anchor:end;fill:rgb(0,0,0);" transform="rotate(34.8,555.7,1016.9)" >Biological-Sciences</text>
<path d="M566.659,1198.940 A1642.000,1642.000 40.000 0,1 748.337,937.219 L719.370,912.624 A1680.000,1680.000 0.000 0,0 533.488,1180.402 Z" style="stroke-width:2.0;stroke:rgb(255,255,255);stroke-linecap:round;fill:none;" />
<path d="M771.819,910.167 A1642.000,1642.000 40.000 0,1 821.633,856.490 L794.362,830.027 A1680.000,1680.000 0.000 0,0 743.396,884.946 Z" style="stroke-width:2.0;stroke:rgb(255,255,255);stroke-linecap:round;fill:rgb(115,65,165);" />
<text x="710.8" y="820.7" font-size="36.4px" font-family="CMUBright-Roman" style="text-anchor:end;fill:rgb(0,0,0);" transform="rotate(42.9,710.8,820.7)" >Health-Wellness</text>
<path d="M771.819,910.167 A1642.000,1642.000 40.000 0,1 821.633,856.490 L794.362,830.027 A1680.000,1680.000 0.000 0,0 743.396,884.946 Z" style="stroke-width:2.0;stroke:rgb(255,255,255);stroke-linecap:round;fill:none;" />
<path d="M846.858,831.057 A1642.000,1642.000 40.000 0,1 873.212,805.633 L847.135,777.993 A1680.000,1680.000 0.000 0,0 820.172,804.004 Z" style="stroke-width:2.0;stroke:rgb(255,255,255);stroke-linecap:round;fill:rgb(140,92,188);" />
<text x="775.8" y="753.4" font-size="36.4px" font-family="CMUBright-Roman" style="text-anchor:end;fill:rgb(0,0,0);" transform="rotate(46.0,775.8,753.4)" >Physical-Sciences</text>
<path d="M846.858,831.057 A1642.000,1642.000 40.000 0,1 873.212,805.633 L847.135,777.993 A1680.000,1680.000 0.000 0,0 820.172,804.004 Z" style="stroke-width:2.0;stroke:rgb(255,255,255);stroke-linecap:round;fill:none;" />
<path d="M899.535,781.337 A1642.000,1642.000 40.000 0,1 903.423,777.837 L878.045,749.553 A1680.000,1680.000 0.000 0,0 874.067,753.134 Z" style="stroke-width:2.0;stroke:rgb(255,255,255);stroke-linecap:round;fill:rgb(165,120,208);" />
<text x="821.8" y="709.8" font-size="36.4px" font-family="CMUBright-Roman" style="text-anchor:end;fill:rgb(0,0,0);" transform="rotate(48.0,821.8,709.8)" >Environmental-Sciences</text>
<path d="M899.535,781.337 A1642.000,1642.000 40.000 0,1 903.423,777.837 L878.045,749.553 A1680.000,1680.000 0.000 0,0 874.067,753.134 Z" style="stroke-width:2.0;stroke:rgb(255,255,255);stroke-linecap:round;fill:none;" />
<path d="M930.345,754.206 A1642.000,1642.000 40.000 0,1 1638.399,398.311 L1630.030,361.244 A1680.000,1680.000 0.000 0,0 905.590,725.375 Z" style="stroke-width:2.0;stroke:rgb(255,255,255);stroke-linecap:round;fill:rgb(22,118,50);" />
<text x="1201.1" y="446.2" font-size="36.4px" font-family="CMUBright-Roman" style="text-anchor:end;fill:rgb(0,0,0);" transform="rotate(63.3,1201.1,446.2)" >Engineering-Disciplines</text>
<path d="M930.345,754.206 A1642.000,1642.000 40.000 0,1 1638.399,398.311 L1630.030,361.244 A1680.000,1680.000 0.000 0,0 905.590,725.375 Z" style="stroke-width:2.0;stroke:rgb(255,255,255);stroke-linecap:round;fill:none;" />
<path d="M1673.425,390.804 A1642.000,1642.000 40.000 0,1 1964.180,358.391 L1963.351,320.400 A1680.000,1680.000 0.000 0,0 1665.867,353.563 Z" style="stroke-width:2.0;stroke:rgb(255,255,255);stroke-linecap:round;fill:rgb(48,158,75);" />
<text x="1791.0" y="265.3" font-size="36.4px" font-family="CMUBright-Roman" style="text-anchor:end;fill:rgb(0,0,0);" transform="rotate(83.6,1791.0,265.3)" >Computer-Science-IT</text>
<path d="M1673.425,390.804 A1642.000,1642.000 40.000 0,1 1964.180,358.391 L1963.351,320.400 A1680.000,1680.000 0.000 0,0 1665.867,353.563 Z" style="stroke-width:2.0;stroke:rgb(255,255,255);stroke-linecap:round;fill:none;" />
</g>
<g id="track_0">
<path d="M 784.101,921.066 A 1625.580,1625.580 0.00 0,1 787.5,917.2 L 787.5,917.2 837.4,963.3 887.0,1012.1 936.2,1063.6 985.2,1117.5 1033.9,1173.7 1082.3,1232.1 1130.4,1292.5 1178.2,1354.8 1225.7,1418.9 1272.9,1484.7 1319.7,1551.9 1366.1,1620.6 1412.2,1690.5 1457.8,1761.6 1502.9,1833.7 1547.5,1906.7 1591.6,1980.5 1635.0,2055.0 1677.8,2130.1 1719.9,2205.6 1761.2,2281.5 1801.7,2357.6 1841.3,2433.9 1879.9,2510.3 1917.5,2586.6 1954.0,2662.7 1989.2,2738.7 2023.2,2814.3 2055.8,2889.5 2086.9,2964.2 2116.4,3038.3 2144.3,3111.7 2170.3,3184.4 2194.5,3256.3 2216.7,3327.3 2236.8,3397.3 2254.6,3466.2 2270.1,3534.1 2283.1,3600.7  A 1625.580,1625.580 0.00 0,1 2278.0,3601.6 L 2278.0,3601.6 2265.2,3535.0 2250.0,3467.2 2232.3,3398.2 2212.5,3328.2 2190.5,3257.3 2166.5,3185.4 2140.6,3112.7 2112.9,3039.3 2083.5,2965.2 2052.6,2890.5 2020.2,2815.3 1986.3,2739.7 1951.2,2663.8 1914.8,2587.6 1877.4,2511.3 1838.8,2435.0 1799.3,2358.8 1758.9,2282.7 1717.6,2206.8 1675.5,2131.4 1632.8,2056.4 1589.3,1981.9 1545.2,1908.2 1500.6,1835.3 1455.5,1763.3 1409.8,1692.3 1363.7,1622.5 1317.2,1554.0 1270.4,1486.8 1223.1,1421.2 1175.6,1357.3 1127.7,1295.1 1079.5,1234.8 1031.0,1176.6 982.2,1120.6 933.1,1066.9 883.7,1015.6 834.1,967.0 784.1,921.1  Z" style="stroke-width: 0.0;  fill: rgb(115,65,165);" />
<path d="M 787.544,917.198 A 1625.580,1625.580 0.00 0,1 797.9,905.7 L 797.9,905.7 848.6,953.2 899.1,1003.4 949.4,1056.0 999.6,1110.9 1049.7,1168.0 1099.8,1227.0 1149.8,1287.9 1199.7,1350.5 1249.6,1414.7 1299.4,1480.3 1349.1,1547.2 1398.8,1615.3 1448.4,1684.5 1497.9,1754.7 1547.2,1825.6 1596.4,1897.3 1645.3,1969.6 1694.0,2042.5 1742.3,2115.7 1790.3,2189.2 1837.8,2263.0 1884.9,2336.8 1931.3,2410.8 1977.1,2484.6 2022.2,2558.4 2066.5,2631.9 2109.8,2705.2 2152.1,2778.1 2193.3,2850.6 2233.3,2922.7 2272.0,2994.2 2309.1,3065.1 2344.7,3135.4 2378.6,3205.0 2410.6,3273.8 2440.6,3341.9 2468.5,3409.2 2494.1,3475.6 2517.2,3541.1  A 1625.580,1625.580 0.00 0,1 2502.4,3546.0 L 2502.4,3546.0 2480.0,3480.4 2455.1,3414.0 2427.8,3346.6 2398.4,3278.5 2367.0,3209.6 2333.7,3139.9 2298.7,3069.5 2262.0,2998.5 2223.8,2927.0 2184.3,2854.9 2143.5,2782.3 2101.6,2709.3 2058.6,2636.0 2014.6,2562.5 1969.8,2488.7 1924.2,2414.9 1877.9,2341.0 1831.0,2267.2 1783.6,2193.5 1735.7,2120.1 1687.4,2047.0 1638.7,1974.3 1589.8,1902.2 1540.5,1830.7 1491.1,1760.0 1441.5,1690.1 1391.7,1621.2 1341.9,1553.4 1291.9,1486.8 1241.8,1421.6 1191.7,1357.8 1141.5,1295.7 1091.2,1235.2 1040.9,1176.7 990.5,1120.2 939.9,1065.8 889.3,1013.7 838.5,964.2 787.5,917.2  Z" style="stroke-width: 0.0;  fill: rgb(115,65,165);" />
<path d="M 797.948,905.659 A 1625.580,1625.580 0.00 0,1 812.0,890.4 L 812.0,890.4 866.8,940.6 923.4,990.8 981.8,1041.1 1041.8,1091.5 1103.1,1142.3 1165.6,1193.4 1229.1,1245.0 1293.6,1297.0 1358.7,1349.6 1424.4,1402.7 1490.6,1456.4 1557.1,1510.7 1623.9,1565.7 1690.7,1621.3 1757.5,1677.6 1824.2,1734.4 1890.8,1791.9 1957.1,1850.0 2023.0,1908.6 2088.6,1967.7 2153.6,2027.3 2218.2,2087.2 2282.2,2147.5 2345.7,2208.0 2408.5,2268.7 2470.7,2329.5 2532.2,2390.2 2593.1,2450.7 2653.4,2511.0 2713.0,2571.0 2771.9,2630.3 2830.3,2689.1 2888.1,2747.0 2945.4,2803.9 3002.2,2859.6 3058.6,2914.1 3114.7,2967.0 3170.4,3018.2 3225.9,3067.5  A 1625.580,1625.580 0.00 0,1 3212.2,3083.0 L 3212.2,3083.0 3157.1,3032.9 3101.8,2980.9 3046.3,2927.2 2990.3,2872.0 2934.0,2815.6 2877.1,2758.0 2819.7,2699.6 2761.8,2640.3 2703.2,2580.5 2644.0,2520.1 2584.2,2459.5 2523.6,2398.6 2462.4,2337.6 2400.5,2276.7 2338.0,2215.8 2274.8,2155.2 2211.0,2094.8 2146.6,2034.9 2081.6,1975.3 2016.1,1916.3 1950.2,1857.8 1884.0,1799.9 1817.4,1742.6 1750.6,1686.0 1683.6,1630.1 1616.6,1574.8 1549.6,1520.2 1482.8,1466.2 1416.3,1412.9 1350.2,1360.2 1284.7,1308.2 1219.8,1256.6 1155.7,1205.6 1092.6,1154.9 1030.7,1104.7 970.1,1054.7 911.0,1005.0 853.5,955.3 797.9,905.7  Z" style="stroke-width: 0.0;  fill: rgb(115,65,165);" />
<path d="M 811.991,890.430 A 1625.580,1625.580 0.00 0,1 815.5,886.7 L 815.5,886.7 868.7,935.4 924.2,984.1 981.7,1032.7 1041.2,1081.3 1102.3,1130.0 1165.1,1178.8 1229.3,1227.8 1294.8,1277.1 1361.5,1326.6 1429.2,1376.4 1497.7,1426.5 1567.0,1476.9 1636.9,1527.7 1707.4,1578.7 1778.2,1630.1 1849.4,1681.8 1920.8,1733.8 1992.2,1785.9 2063.8,1838.3 2135.3,1890.8 2206.6,1943.5 2277.8,1996.1 2348.7,2048.7 2419.2,2101.2 2489.4,2153.5 2559.2,2205.4 2628.5,2257.0 2697.4,2308.1 2765.6,2358.5 2833.4,2408.2 2900.5,2457.0 2967.1,2504.8 3033.1,2551.5 3098.4,2596.8 3163.1,2640.7 3227.3,2682.9 3290.9,2723.3 3353.9,2761.7 3416.3,2797.9  A 1625.580,1625.580 0.00 0,1 3413.8,2802.4 L 3413.8,2802.4 3351.4,2765.9 3288.4,2727.3 3224.9,2686.7 3160.9,2644.3 3096.2,2600.3 3030.9,2554.8 2965.0,2508.0 2898.5,2460.0 2831.4,2411.1 2763.8,2361.2 2695.5,2310.7 2626.8,2259.5 2557.5,2207.8 2487.8,2155.8 2417.6,2103.4 2347.0,2050.9 2276.2,1998.3 2205.0,1945.6 2133.7,1893.0 2062.2,1840.4 1990.7,1788.1 1919.2,1735.9 1847.8,1684.0 1776.6,1632.4 1705.6,1581.0 1635.1,1530.0 1565.1,1479.4 1495.8,1429.0 1427.1,1379.0 1359.4,1329.3 1292.6,1279.9 1227.0,1230.8 1162.6,1181.9 1099.7,1133.2 1038.4,1084.6 978.7,1036.1 921.0,987.6 865.4,939.1 812.0,890.4  Z" style="stroke-width: 0.0;  fill: rgb(115,65,165);" />
<path d="M 815.532,886.651 A 1625.580,1625.580 0.00 0,1 822.6,879.1 L 822.6,879.1 871.8,924.3 923.8,968.8 978.4,1012.6 1035.5,1055.9 1095.0,1098.4 1156.6,1140.4 1220.4,1181.6 1286.2,1222.2 1353.7,1262.1 1423.0,1301.3 1493.9,1339.9 1566.1,1377.6 1639.7,1414.6 1714.5,1450.8 1790.4,1486.2 1867.2,1520.8 1944.8,1554.4 2023.2,1587.2 2102.1,1618.9 2181.4,1649.7 2261.1,1679.4 2341.1,1708.0 2421.1,1735.5 2501.1,1761.7 2581.0,1786.7 2660.7,1810.4 2740.0,1832.6 2818.8,1853.5 2897.1,1872.8 2974.7,1890.5 3051.6,1906.5 3127.5,1920.9 3202.4,1933.4 3276.2,1944.0 3348.9,1952.6 3420.2,1959.1 3490.1,1963.5 3558.4,1965.7 3625.2,1965.5  A 1625.580,1625.580 0.00 0,1 3625.4,1975.8 L 3625.4,1975.8 3558.5,1975.6 3490.0,1973.1 3420.0,1968.3 3348.6,1961.3 3275.9,1952.3 3202.0,1941.3 3127.0,1928.4 3050.9,1913.8 2974.0,1897.4 2896.3,1879.4 2818.0,1859.8 2739.0,1838.7 2659.6,1816.2 2579.8,1792.3 2499.8,1767.1 2419.7,1740.7 2339.5,1713.1 2259.5,1684.4 2179.6,1654.6 2100.1,1623.8 2021.0,1592.0 1942.5,1559.2 1864.7,1525.6 1787.7,1491.1 1711.6,1455.8 1636.6,1419.6 1562.8,1382.7 1490.2,1345.1 1419.1,1306.8 1349.6,1267.7 1281.7,1228.0 1215.7,1187.6 1151.6,1146.5 1089.6,1104.8 1029.8,1062.5 972.4,1019.5 917.4,975.8 865.1,931.6 815.5,886.7  Z" style="stroke-width: 0.0;  fill: rgb(115,65,165);" />
<path d="M 822.650,879.127 A 1625.580,1625.580 0.00 0,1 833.4,867.9 L 833.4,867.9 878.0,909.4 925.3,949.6 975.0,988.5 1027.2,1026.0 1081.5,1062.0 1138.0,1096.3 1196.4,1128.9 1256.6,1159.6 1318.6,1188.5 1382.1,1215.4 1447.1,1240.3 1513.4,1263.0 1580.8,1283.6 1649.3,1301.9 1718.6,1318.0 1788.7,1331.7 1859.5,1343.2 1930.7,1352.3 2002.3,1358.9 2074.1,1363.2 2145.9,1365.1 2217.7,1364.6 2289.3,1361.7 2360.6,1356.3 2431.4,1348.6 2501.5,1338.6 2570.9,1326.2 2639.4,1311.5 2706.9,1294.5 2773.2,1275.4 2838.1,1254.1 2901.6,1230.7 2963.5,1205.3 3023.6,1178.0 3081.9,1148.7 3138.1,1117.7 3192.1,1085.0 3243.8,1050.7 3293.1,1014.9  A 1625.580,1625.580 0.00 0,1 3302.4,1027.3 L 3302.4,1027.3 3252.7,1062.7 3200.5,1096.6 3146.0,1129.0 3089.3,1159.6 3030.6,1188.4 2970.0,1215.4 2907.6,1240.4 2843.6,1263.4 2778.2,1284.3 2711.4,1303.1 2643.4,1319.8 2574.4,1334.2 2504.5,1346.3 2433.8,1356.1 2362.5,1363.6 2290.8,1368.8 2218.6,1371.6 2146.3,1372.0 2073.9,1370.1 2001.6,1365.8 1929.5,1359.1 1857.7,1350.0 1786.5,1338.7 1715.8,1325.0 1645.9,1309.1 1576.9,1290.9 1508.9,1270.5 1442.1,1248.0 1376.6,1223.4 1312.6,1196.8 1250.1,1168.2 1189.3,1137.8 1130.3,1105.5 1073.4,1071.5 1018.5,1035.9 965.8,998.7 915.6,960.1 867.8,920.2 822.6,879.1  Z" style="stroke-width: 0.0;  fill: rgb(115,65,165);" />
</g>
<defs>
<pattern id="vline-sparse" width="10" height="10" patternTransform="rotate(0 0 0)" patternUnits="userSpaceOnUse"><line x1="0" y1="0" x2="0" y2="10" style="stroke:black;stroke-width:2" /></pattern>
<pattern id="vline" width="10" height="10" patternTransform="rotate(0 0 0)" patternUnits="userSpaceOnUse"><line x1="0" y1="0" x2="0" y2="10" style="stroke:black;stroke-width:5" /></pattern>
<pattern id="hline" width="10" height="10" patternTransform="rotate(0 0 0)" patternUnits="userSpaceOnUse"><line x1="0" y1="0" x2="10" y2="0" style="stroke:black;stroke-width:5" /></pattern>
<pattern id="hline-sparse" width="10" height="10" patternTransform="rotate(0 0 0)" patternUnits="userSpaceOnUse"><line x1="0" y1="0" x2="10" y2="0" style="stroke:black;stroke-width:2" /></pattern>
<pattern id="checker" width="10" height="10" patternTransform="rotate(45 0 0)" patternUnits="userSpaceOnUse"><line x1="0" y1="0" x2="10" y2="0" style="stroke:black;stroke-width:5" /><line x1="0" y1="0" x2="0" y2="10" style="stroke:black;stroke-width:4" /></pattern>
<pattern id="checker" width="10" height="10" patternTransform="rotate(45 0 0)" patternUnits="userSpaceOnUse"><line x1="0" y1="0" x2="10" y2="0" style="stroke:black;stroke-width:2" /><line x1="0" y1="0" x2="0" y2="10" style="stroke:black;stroke-width:2" /></pattern>
</defs>
</svg>
