<?xml version="1.0" encoding="utf-8" standalone="no"?>
<!DOCTYPE svg PUBLIC "-//W3C//DTD SVG 1.1//EN" "http://www.w3.org/Graphics/SVG/1.1/DTD/svg11.dtd">
<svg width="4000px" height="4000px" version="1.1" xmlns="http://www.w3.org/2000/svg" xmlns:xlink="http://www.w3.org/1999/xlink">
<g id="bg">
<rect x="0" y="0" width="4000px" height="4000px" style="fill:rgb(255,255,255);"/>
</g>
<g id="ideograms">
<path d="M2000.000,358.000 A1642.000,1642.000 40.000 0,1 2751.610,540.121 L2769.004,506.336 A1680.000,1680.000 0.000 0,0 2000.000,320.000 Z" style="stroke-width:2.0;stroke:rgb(255,255,255);stroke-linecap:round;fill:rgb(185,185,185);" />
<text x="2427.0" y="305.8" font-size="36.4px" font-family="CMUBright-Roman" style="text-anchor:start;fill:rgb(0,0,0);" transform="rotate(283.6,2427.0,305.8)" >Management-Operations</text>
<path d="M2000.000,358.000 A1642.000,1642.000 40.000 0,1 2751.610,540.121 L2769.004,506.336 A1680.000,1680.000 0.000 0,0 2000.000,320.000 Z" style="stroke-width:2.0;stroke:rgb(255,255,255);stroke-linecap:round;fill:none;" />
<path d="M2783.279,556.865 A1642.000,1642.000 40.000 0,1 3226.411,908.176 L3254.793,882.908 A1680.000,1680.000 0.000 0,0 2801.406,523.467 Z" style="stroke-width:2.0;stroke:rgb(255,255,255);stroke-linecap:round;fill:rgb(185,185,185);" />
<text x="3097.5" y="640.5" font-size="36.4px" font-family="CMUBright-Roman" style="text-anchor:start;fill:rgb(0,0,0);" transform="rotate(308.4,3097.5,640.5)" >Engineering</text>
<path d="M2783.279,556.865 A1642.000,1642.000 40.000 0,1 3226.411,908.176 L3254.793,882.908 A1680.000,1680.000 0.000 0,0 2801.406,523.467 Z" style="stroke-width:2.0;stroke:rgb(255,255,255);stroke-linecap:round;fill:none;" />
<path d="M3249.937,935.189 A1642.000,1642.000 40.000 0,1 3507.538,1349.236 L3542.426,1334.176 A1680.000,1680.000 0.000 0,0 3278.864,910.547 Z" style="stroke-width:2.0;stroke:rgb(255,255,255);stroke-linecap:round;fill:rgb(185,185,185);" />
<text x="3491.6" y="1090.2" font-size="36.4px" font-family="CMUBright-Roman" style="text-anchor:start;fill:rgb(0,0,0);" transform="rotate(328.1,3491.6,1090.2)" >Leadership-General</text>
<path d="M3249.937,935.189 A1642.000,1642.000 40.000 0,1 3507.538,1349.236 L3542.426,1334.176 A1680.000,1680.000 0.000 0,0 3278.864,910.547 Z" style="stroke-width:2.0;stroke:rgb(255,255,255);stroke-linecap:round;fill:none;" />
<path d="M3521.375,1382.278 A1642.000,1642.000 40.000 0,1 3633.192,1830.154 L3670.988,1826.223 A1680.000,1680.000 0.000 0,0 3556.584,1367.982 Z" style="stroke-width:2.0;stroke:rgb(255,255,255);stroke-linecap:round;fill:rgb(185,185,185);" />
<text x="3699.0" y="1592.3" font-size="36.4px" font-family="CMUBright-Roman" style="text-anchor:start;fill:rgb(0,0,0);" transform="rotate(346.0,3699.0,1592.3)" >Sales-Marketing</text>
<path d="M3521.375,1382.278 A1642.000,1642.000 40.000 0,1 3633.192,1830.154 L3670.988,1826.223 A1680.000,1680.000 0.000 0,0 3556.584,1367.982 Z" style="stroke-width:2.0;stroke:rgb(255,255,255);stroke-linecap:round;fill:none;" />
<path d="M3636.509,1865.822 A1642.000,1642.000 40.000 0,1 3610.774,2318.704 L3648.051,2326.079 A1680.000,1680.000 0.000 0,0 3674.381,1862.717 Z" style="stroke-width:2.0;stroke:rgb(255,255,255);stroke-linecap:round;fill:rgb(185,185,185);" />
<text x="3743.6" y="2111.6" font-size="36.4px" font-family="CMUBright-Roman" style="text-anchor:start;fill:rgb(0,0,0);" transform="rotate(3.3,3743.6,2111.6)" >Finance-Investment</text>
<path d="M3636.509,1865.822 A1642.000,1642.000 40.000 0,1 3610.774,2318.704 L3648.051,2326.079 A1680.000,1680.000 0.000 0,0 3674.381,1862.717 Z" style="stroke-width:2.0;stroke:rgb(255,255,255);stroke-linecap:round;fill:none;" />
<path d="M3603.438,2353.767 A1642.000,1642.000 40.000 0,1 3499.856,2668.278 L3534.566,2683.744 A1680.000,1680.000 0.000 0,0 3640.546,2361.954 Z" style="stroke-width:2.0;stroke:rgb(255,255,255);stroke-linecap:round;fill:rgb(185,185,185);" />
<text x="3655.6" y="2558.4" font-size="36.4px" font-family="CMUBright-Roman" style="text-anchor:start;fill:rgb(0,0,0);" transform="rotate(18.2,3655.6,2558.4)" >Software-Data</text>
<path d="M3603.438,2353.767 A1642.000,1642.000 40.000 0,1 3499.856,2668.278 L3534.566,2683.744 A1680.000,1680.000 0.000 0,0 3640.546,2361.954 Z" style="stroke-width:2.0;stroke:rgb(255,255,255);stroke-linecap:round;fill:none;" />
<path d="M3484.921,2700.839 A1642.000,1642.000 40.000 0,1 3330.895,2961.708 L3361.695,2983.964 A1680.000,1680.000 0.000 0,0 3519.285,2717.058 Z" style="stroke-width:2.0;stroke:rgb(255,255,255);stroke-linecap:round;fill:rgb(185,185,185);" />
<text x="3498.1" y="2899.1" font-size="36.4px" font-family="CMUBright-Roman" style="text-anchor:start;fill:rgb(0,0,0);" transform="rotate(30.6,3498.1,2899.1)" >Education</text>
<path d="M3484.921,2700.839 A1642.000,1642.000 40.000 0,1 3330.895,2961.708 L3361.695,2983.964 A1680.000,1680.000 0.000 0,0 3519.285,2717.058 Z" style="stroke-width:2.0;stroke:rgb(255,255,255);stroke-linecap:round;fill:none;" />
<path d="M3309.599,2990.512 A1642.000,1642.000 40.000 0,1 3129.055,3192.225 L3155.184,3219.816 A1680.000,1680.000 0.000 0,0 3339.906,3013.435 Z" style="stroke-width:2.0;stroke:rgb(255,255,255);stroke-linecap:round;fill:rgb(185,185,185);" />
<text x="3293.5" y="3174.5" font-size="36.4px" font-family="CMUBright-Roman" style="text-anchor:start;fill:rgb(0,0,0);" transform="rotate(41.8,3293.5,3174.5)" >Research-Science</text>
<path d="M3309.599,2990.512 A1642.000,1642.000 40.000 0,1 3129.055,3192.225 L3155.184,3219.816 A1680.000,1680.000 0.000 0,0 3339.906,3013.435 Z" style="stroke-width:2.0;stroke:rgb(255,255,255);stroke-linecap:round;fill:none;" />
<path d="M3102.778,3216.571 A1642.000,1642.000 40.000 0,1 2891.302,3379.038 L2911.929,3410.952 A1680.000,1680.000 0.000 0,0 3128.299,3244.726 Z" style="stroke-width:2.0;stroke:rgb(255,255,255);stroke-linecap:round;fill:rgb(185,185,185);" />
<text x="3054.5" y="3393.1" font-size="36.4px" font-family="CMUBright-Roman" style="text-anchor:start;fill:rgb(0,0,0);" transform="rotate(52.5,3054.5,3393.1)" >Clinical-Care</text>
<path d="M3102.778,3216.571 A1642.000,1642.000 40.000 0,1 2891.302,3379.038 L2911.929,3410.952 A1680.000,1680.000 0.000 0,0 3128.299,3244.726 Z" style="stroke-width:2.0;stroke:rgb(255,255,255);stroke-linecap:round;fill:none;" />
<path d="M2861.006,3398.153 A1642.000,1642.000 40.000 0,1 2640.127,3512.085 L2654.941,3547.079 A1680.000,1680.000 0.000 0,0 2880.932,3430.510 Z" style="stroke-width:2.0;stroke:rgb(255,255,255);stroke-linecap:round;fill:rgb(185,185,185);" />
<text x="2786.7" y="3560.1" font-size="36.4px" font-family="CMUBright-Roman" style="text-anchor:start;fill:rgb(0,0,0);" transform="rotate(62.7,2786.7,3560.1)" >Accounting-Audit</text>
<path d="M2861.006,3398.153 A1642.000,1642.000 40.000 0,1 2640.127,3512.085 L2654.941,3547.079 A1680.000,1680.000 0.000 0,0 2880.932,3430.510 Z" style="stroke-width:2.0;stroke:rgb(255,255,255);stroke-linecap:round;fill:none;" />
<path d="M2606.988,3525.690 A1642.000,1642.000 40.000 0,1 2452.002,3578.562 L2462.463,3615.094 A1680.000,1680.000 0.000 0,0 2621.036,3560.998 Z" style="stroke-width:2.0;stroke:rgb(255,255,255);stroke-linecap:round;fill:rgb(185,185,185);" />
<text x="2552.3" y="3657.6" font-size="36.4px" font-family="CMUBright-Roman" style="text-anchor:start;fill:rgb(0,0,0);" transform="rotate(71.2,2552.3,3657.6)" >Social-Service</text>
<path d="M2606.988,3525.690 A1642.000,1642.000 40.000 0,1 2452.002,3578.562 L2462.463,3615.094 A1680.000,1680.000 0.000 0,0 2621.036,3560.998 Z" style="stroke-width:2.0;stroke:rgb(255,255,255);stroke-linecap:round;fill:none;" />
<path d="M2417.459,3588.047 A1642.000,1642.000 40.000 0,1 2320.910,3610.336 L2328.336,3647.603 A1680.000,1680.000 0.000 0,0 2427.120,3624.798 Z" style="stroke-width:2.0;stroke:rgb(255,255,255);stroke-linecap:round;fill:rgb(185,185,185);" />
<text x="2380.8" y="3705.2" font-size="36.4px" font-family="CMUBright-Roman" style="text-anchor:start;fill:rgb(0,0,0);" transform="rotate(77.0,2380.8,3705.2)" >IT-Infrastructure</text>
<path d="M2417.459,3588.047 A1642.000,1642.000 40.000 0,1 2320.910,3610.336 L2328.336,3647.603 A1680.000,1680.000 0.000 0,0 2427.120,3624.798 Z" style="stroke-width:2.0;stroke:rgb(255,255,255);stroke-linecap:round;fill:none;" />
<path d="M2285.704,3616.953 A1642.000,1642.000 40.000 0,1 2189.660,3631.010 L2194.050,3668.755 A1680.000,1680.000 0.000 0,0 2292.316,3654.373 Z" style="stroke-width:2.0;stroke:rgb(255,255,255);stroke-linecap:round;fill:rgb(185,185,185);" />
<text x="2237.2" y="3731.0" font-size="36.4px" font-family="CMUBright-Roman" style="text-anchor:start;fill:rgb(0,0,0);" transform="rotate(81.7,2237.2,3731.0)" >Legal-Policy</text>
<path d="M2285.704,3616.953 A1642.000,1642.000 40.000 0,1 2189.660,3631.010 L2194.050,3668.755 A1680.000,1680.000 0.000 0,0 2292.316,3654.373 Z" style="stroke-width:2.0;stroke:rgb(255,255,255);stroke-linecap:round;fill:none;" />
<path d="M2154.035,3634.759 A1642.000,1642.000 40.000 0,1 1474.020,3555.477 L1461.848,3591.475 A1680.000,1680.000 0.000 0,0 2157.600,3672.592 Z" style="stroke-width:2.0;stroke:rgb(255,255,255);stroke-linecap:round;fill:rgb(15,52,135);" />
<text x="1813.6" y="3737.2" font-size="36.4px" font-family="CMUBright-Roman" style="text-anchor:end;fill:rgb(0,0,0);" transform="rotate(-83.3,1813.6,3737.2)" >Finance-Accounting</text>
<path d="M2154.035,3634.759 A1642.000,1642.000 40.000 0,1 1474.020,3555.477 L1461.848,3591.475 A1680.000,1680.000 0.000 0,0 2157.600,3672.592 Z" style="stroke-width:2.0;stroke:rgb(255,255,255);stroke-linecap:round;fill:none;" />
<path d="M1440.213,3543.633 A1642.000,1642.000 40.000 0,1 888.845,3208.925 L863.130,3236.902 A1680.000,1680.000 0.000 0,0 1427.258,3579.356 Z" style="stroke-width:2.0;stroke:rgb(255,255,255);stroke-linecap:round;fill:rgb(42,98,180);" />
<text x="1104.1" y="3500.0" font-size="36.4px" font-family="CMUBright-Roman" style="text-anchor:end;fill:rgb(0,0,0);" transform="rotate(-58.7,1104.1,3500.0)" >General-Business</text>
<path d="M1440.213,3543.633 A1642.000,1642.000 40.000 0,1 888.845,3208.925 L863.130,3236.902 A1680.000,1680.000 0.000 0,0 1427.258,3579.356 Z" style="stroke-width:2.0;stroke:rgb(255,255,255);stroke-linecap:round;fill:none;" />
<path d="M862.737,3184.397 A1642.000,1642.000 40.000 0,1 624.574,2896.866 L592.744,2917.622 A1680.000,1680.000 0.000 0,0 836.418,3211.807 Z" style="stroke-width:2.0;stroke:rgb(255,255,255);stroke-linecap:round;fill:rgb(28,75,160);" />
<text x="664.7" y="3126.8" font-size="36.4px" font-family="CMUBright-Roman" style="text-anchor:end;fill:rgb(0,0,0);" transform="rotate(-39.6,664.7,3126.8)" >Marketing-Communication</text>
<path d="M862.737,3184.397 A1642.000,1642.000 40.000 0,1 624.574,2896.866 L592.744,2917.622 A1680.000,1680.000 0.000 0,0 836.418,3211.807 Z" style="stroke-width:2.0;stroke:rgb(255,255,255);stroke-linecap:round;fill:none;" />
<path d="M605.337,2866.648 A1642.000,1642.000 40.000 0,1 476.558,2612.607 L441.301,2626.784 A1680.000,1680.000 0.000 0,0 573.061,2886.704 Z" style="stroke-width:2.0;stroke:rgb(255,255,255);stroke-linecap:round;fill:rgb(60,120,198);" />
<text x="448.7" y="2803.8" font-size="36.4px" font-family="CMUBright-Roman" style="text-anchor:end;fill:rgb(0,0,0);" transform="rotate(-26.9,448.7,2803.8)" >Operations-Analytics</text>
<path d="M605.337,2866.648 A1642.000,1642.000 40.000 0,1 476.558,2612.607 L441.301,2626.784 A1680.000,1680.000 0.000 0,0 573.061,2886.704 Z" style="stroke-width:2.0;stroke:rgb(255,255,255);stroke-linecap:round;fill:none;" />
<path d="M463.556,2579.227 A1642.000,1642.000 40.000 0,1 407.419,2399.813 L370.563,2409.066 A1680.000,1680.000 0.000 0,0 427.999,2592.632 Z" style="stroke-width:2.0;stroke:rgb(255,255,255);stroke-linecap:round;fill:rgb(82,145,215);" />
<text x="337.2" y="2536.5" font-size="36.4px" font-family="CMUBright-Roman" style="text-anchor:end;fill:rgb(0,0,0);" transform="rotate(-17.4,337.2,2536.5)" >Specialized-Business</text>
<path d="M463.556,2579.227 A1642.000,1642.000 40.000 0,1 407.419,2399.813 L370.563,2409.066 A1680.000,1680.000 0.000 0,0 427.999,2592.632 Z" style="stroke-width:2.0;stroke:rgb(255,255,255);stroke-linecap:round;fill:none;" />
<path d="M399.076,2364.976 A1642.000,1642.000 40.000 0,1 366.776,2169.540 L328.979,2173.464 A1680.000,1680.000 0.000 0,0 362.027,2373.422 Z" style="stroke-width:2.0;stroke:rgb(255,255,255);stroke-linecap:round;fill:rgb(200,108,30);" />
<text x="278.3" y="2297.2" font-size="36.4px" font-family="CMUBright-Roman" style="text-anchor:end;fill:rgb(0,0,0);" transform="rotate(-9.4,278.3,2297.2)" >Social-Sciences</text>
<path d="M399.076,2364.976 A1642.000,1642.000 40.000 0,1 366.776,2169.540 L328.979,2173.464 A1680.000,1680.000 0.000 0,0 362.027,2373.422 Z" style="stroke-width:2.0;stroke:rgb(255,255,255);stroke-linecap:round;fill:none;" />
<path d="M363.466,2133.872 A1642.000,1642.000 40.000 0,1 358.290,2030.870 L320.297,2031.584 A1680.000,1680.000 0.000 0,0 325.593,2136.970 Z" style="stroke-width:2.0;stroke:rgb(255,255,255);stroke-linecap:round;fill:rgb(108,170,228);" />
<text x="255.6" y="2099.7" font-size="36.4px" font-family="CMUBright-Roman" style="text-anchor:end;fill:rgb(0,0,0);" transform="rotate(-2.9,255.6,2099.7)" >Economics</text>
<path d="M363.466,2133.872 A1642.000,1642.000 40.000 0,1 358.290,2030.870 L320.297,2031.584 A1680.000,1680.000 0.000 0,0 325.593,2136.970 Z" style="stroke-width:2.0;stroke:rgb(255,255,255);stroke-linecap:round;fill:none;" />
<path d="M358.007,1995.049 A1642.000,1642.000 40.000 0,1 358.807,1948.539 L320.825,1947.348 A1680.000,1680.000 0.000 0,0 320.008,1994.934 Z" style="stroke-width:2.0;stroke:rgb(255,255,255);stroke-linecap:round;fill:rgb(220,140,52);" />
<text x="252.9" y="1982.5" font-size="36.4px" font-family="CMUBright-Roman" style="text-anchor:end;fill:rgb(0,0,0);" transform="rotate(1.0,252.9,1982.5)" >Humanities-Liberal-Arts</text>
<path d="M358.007,1995.049 A1642.000,1642.000 40.000 0,1 358.807,1948.539 L320.825,1947.348 A1680.000,1680.000 0.000 0,0 320.008,1994.934 Z" style="stroke-width:2.0;stroke:rgb(255,255,255);stroke-linecap:round;fill:none;" />
<path d="M360.320,1912.749 A1642.000,1642.000 40.000 0,1 361.133,1898.615 L323.205,1896.269 A1680.000,1680.000 0.000 0,0 322.373,1910.730 Z" style="stroke-width:2.0;stroke:rgb(255,255,255);stroke-linecap:round;fill:rgb(235,168,78);" />
<text x="255.0" y="1912.1" font-size="36.4px" font-family="CMUBright-Roman" style="text-anchor:end;fill:rgb(0,0,0);" transform="rotate(3.3,255.0,1912.1)" >International-Studies</text>
<path d="M360.320,1912.749 A1642.000,1642.000 40.000 0,1 361.133,1898.615 L323.205,1896.269 A1680.000,1680.000 0.000 0,0 322.373,1910.730 Z" style="stroke-width:2.0;stroke:rgb(255,255,255);stroke-linecap:round;fill:none;" />
<path d="M363.735,1862.887 A1642.000,1642.000 40.000 0,1 391.336,1670.812 L354.108,1663.193 A1680.000,1680.000 0.000 0,0 325.867,1859.714 Z" style="stroke-width:2.0;stroke:rgb(255,255,255);stroke-linecap:round;fill:rgb(195,58,55);" />
<text x="268.8" y="1763.9" font-size="36.4px" font-family="CMUBright-Roman" style="text-anchor:end;fill:rgb(0,0,0);" transform="rotate(8.2,268.8,1763.9)" >Social-Work</text>
<path d="M363.735,1862.887 A1642.000,1642.000 40.000 0,1 391.336,1670.812 L354.108,1663.193 A1680.000,1680.000 0.000 0,0 325.867,1859.714 Z" style="stroke-width:2.0;stroke:rgb(255,255,255);stroke-linecap:round;fill:none;" />
<path d="M398.900,1635.797 A1642.000,1642.000 40.000 0,1 428.981,1522.439 L392.624,1511.387 A1680.000,1680.000 0.000 0,0 361.847,1627.368 Z" style="stroke-width:2.0;stroke:rgb(255,255,255);stroke-linecap:round;fill:rgb(175,35,42);" />
<text x="308.1" y="1564.0" font-size="36.4px" font-family="CMUBright-Roman" style="text-anchor:end;fill:rgb(0,0,0);" transform="rotate(14.9,308.1,1564.0)" >Teacher-Education</text>
<path d="M398.900,1635.797 A1642.000,1642.000 40.000 0,1 428.981,1522.439 L392.624,1511.387 A1680.000,1680.000 0.000 0,0 361.847,1627.368 Z" style="stroke-width:2.0;stroke:rgb(255,255,255);stroke-linecap:round;fill:none;" />
<path d="M439.773,1488.281 A1642.000,1642.000 40.000 0,1 474.975,1391.343 L439.682,1377.257 A1680.000,1680.000 0.000 0,0 403.666,1476.439 Z" style="stroke-width:2.0;stroke:rgb(255,255,255);stroke-linecap:round;fill:rgb(215,82,72);" />
<text x="352.5" y="1418.2" font-size="36.4px" font-family="CMUBright-Roman" style="text-anchor:end;fill:rgb(0,0,0);" transform="rotate(20.0,352.5,1418.2)" >Special-Education</text>
<path d="M439.773,1488.281 A1642.000,1642.000 40.000 0,1 474.975,1391.343 L439.682,1377.257 A1680.000,1680.000 0.000 0,0 403.666,1476.439 Z" style="stroke-width:2.0;stroke:rgb(255,255,255);stroke-linecap:round;fill:none;" />
<path d="M488.616,1358.220 A1642.000,1642.000 40.000 0,1 509.092,1311.991 L474.588,1296.068 A1680.000,1680.000 0.000 0,0 453.639,1343.368 Z" style="stroke-width:2.0;stroke:rgb(255,255,255);stroke-linecap:round;fill:rgb(230,112,95);" />
<text x="396.3" y="1306.6" font-size="36.4px" font-family="CMUBright-Roman" style="text-anchor:end;fill:rgb(0,0,0);" transform="rotate(23.9,396.3,1306.6)" >Educational-Leadership</text>
<path d="M488.616,1358.220 A1642.000,1642.000 40.000 0,1 509.092,1311.991 L474.588,1296.068 A1680.000,1680.000 0.000 0,0 453.639,1343.368 Z" style="stroke-width:2.0;stroke:rgb(255,255,255);stroke-linecap:round;fill:none;" />
<path d="M524.455,1279.630 A1642.000,1642.000 40.000 0,1 553.988,1222.045 L520.524,1204.041 A1680.000,1680.000 0.000 0,0 490.308,1262.959 Z" style="stroke-width:2.0;stroke:rgb(255,255,255);stroke-linecap:round;fill:rgb(0,130,142);" />
<text x="439.7" y="1213.8" font-size="36.4px" font-family="CMUBright-Roman" style="text-anchor:end;fill:rgb(0,0,0);" transform="rotate(27.2,439.7,1213.8)" >Communication-Studies</text>
<path d="M524.455,1279.630 A1642.000,1642.000 40.000 0,1 553.988,1222.045 L520.524,1204.041 A1680.000,1680.000 0.000 0,0 490.308,1262.959 Z" style="stroke-width:2.0;stroke:rgb(255,255,255);stroke-linecap:round;fill:none;" />
<path d="M571.303,1190.686 A1642.000,1642.000 40.000 0,1 588.562,1160.949 L555.898,1141.531 A1680.000,1680.000 0.000 0,0 538.240,1171.956 Z" style="stroke-width:2.0;stroke:rgb(255,255,255);stroke-linecap:round;fill:rgb(0,165,172);" />
<text x="482.6" y="1133.8" font-size="36.4px" font-family="CMUBright-Roman" style="text-anchor:end;fill:rgb(0,0,0);" transform="rotate(30.1,482.6,1133.8)" >Journalism-Media</text>
<path d="M571.303,1190.686 A1642.000,1642.000 40.000 0,1 588.562,1160.949 L555.898,1141.531 A1680.000,1680.000 0.000 0,0 538.240,1171.956 Z" style="stroke-width:2.0;stroke:rgb(255,255,255);stroke-linecap:round;fill:none;" />
<path d="M607.202,1130.358 A1642.000,1642.000 40.000 0,1 613.667,1120.089 L581.583,1099.725 A1680.000,1680.000 0.000 0,0 574.969,1110.233 Z" style="stroke-width:2.0;stroke:rgb(255,255,255);stroke-linecap:round;fill:rgb(38,195,195);" />
<text x="512.9" y="1082.8" font-size="36.4px" font-family="CMUBright-Roman" style="text-anchor:end;fill:rgb(0,0,0);" transform="rotate(32.2,512.9,1082.8)" >Creative-Writing</text>
<path d="M607.202,1130.358 A1642.000,1642.000 40.000 0,1 613.667,1120.089 L581.583,1099.725 A1680.000,1680.000 0.000 0,0 574.969,1110.233 Z" style="stroke-width:2.0;stroke:rgb(255,255,255);stroke-linecap:round;fill:none;" />
<path d="M633.192,1090.055 A1642.000,1642.000 40.000 0,1 667.742,1040.182 L636.910,1017.969 A1680.000,1680.000 0.000 0,0 601.560,1068.997 Z" style="stroke-width:2.0;stroke:rgb(255,255,255);stroke-linecap:round;fill:rgb(180,45,112);" />
<text x="554.7" y="1018.2" font-size="36.4px" font-family="CMUBright-Roman" style="text-anchor:end;fill:rgb(0,0,0);" transform="rotate(34.7,554.7,1018.2)" >Arts-Theology</text>
<path d="M633.192,1090.055 A1642.000,1642.000 40.000 0,1 667.742,1040.182 L636.910,1017.969 A1680.000,1680.000 0.000 0,0 601.560,1068.997 Z" style="stroke-width:2.0;stroke:rgb(255,255,255);stroke-linecap:round;fill:none;" />
<path d="M688.997,1011.347 A1642.000,1642.000 40.000 0,1 698.803,998.477 L668.690,975.299 A1680.000,1680.000 0.000 0,0 658.657,988.467 Z" style="stroke-width:2.0;stroke:rgb(255,255,255);stroke-linecap:round;fill:rgb(205,75,142);" />
<text x="600.6" y="953.9" font-size="36.4px" font-family="CMUBright-Roman" style="text-anchor:end;fill:rgb(0,0,0);" transform="rotate(37.3,600.6,953.9)" >English-Writing</text>
<path d="M688.997,1011.347 A1642.000,1642.000 40.000 0,1 698.803,998.477 L668.690,975.299 A1680.000,1680.000 0.000 0,0 658.657,988.467 Z" style="stroke-width:2.0;stroke:rgb(255,255,255);stroke-linecap:round;fill:none;" />
<path d="M720.960,970.329 A1642.000,1642.000 40.000 0,1 724.774,965.610 L695.262,941.672 A1680.000,1680.000 0.000 0,0 691.360,946.500 Z" style="stroke-width:2.0;stroke:rgb(255,255,255);stroke-linecap:round;fill:rgb(225,110,168);" />
<text x="631.0" y="914.3" font-size="36.4px" font-family="CMUBright-Roman" style="text-anchor:end;fill:rgb(0,0,0);" transform="rotate(38.9,631.0,914.3)" >Languages</text>
<path d="M720.960,970.329 A1642.000,1642.000 40.000 0,1 724.774,965.610 L695.262,941.672 A1680.000,1680.000 0.000 0,0 691.360,946.500 Z" style="stroke-width:2.0;stroke:rgb(255,255,255);stroke-linecap:round;fill:none;" />
<path d="M747.643,938.037 A1642.000,1642.000 40.000 0,1 884.635,794.959 L858.822,767.071 A1680.000,1680.000 0.000 0,0 718.660,913.461 Z" style="stroke-width:2.0;stroke:rgb(255,255,255);stroke-linecap:round;fill:rgb(88,40,138);" />
<text x="727.0" y="803.3" font-size="36.4px" font-family="CMUBright-Roman" style="text-anchor:end;fill:rgb(0,0,0);" transform="rotate(43.8,727.0,803.3)" >Biological-Sciences</text>
<path d="M747.643,938.037 A1642.000,1642.000 40.000 0,1 884.635,794.959 L858.822,767.071 A1680.000,1680.000 0.000 0,0 718.660,913.461 Z" style="stroke-width:2.0;stroke:rgb(255,255,255);stroke-linecap:round;fill:none;" />
<path d="M911.188,770.914 A1642.000,1642.000 40.000 0,1 969.888,721.316 L946.049,691.724 A1680.000,1680.000 0.000 0,0 885.990,742.470 Z" style="stroke-width:2.0;stroke:rgb(255,255,255);stroke-linecap:round;fill:rgb(115,65,165);" />
<text x="862.8" y="673.5" font-size="36.4px" font-family="CMUBright-Roman" style="text-anchor:end;fill:rgb(0,0,0);" transform="rotate(49.8,862.8,673.5)" >Health-Wellness</text>
<path d="M911.188,770.914 A1642.000,1642.000 40.000 0,1 969.888,721.316 L946.049,691.724 A1680.000,1680.000 0.000 0,0 885.990,742.470 Z" style="stroke-width:2.0;stroke:rgb(255,255,255);stroke-linecap:round;fill:none;" />
<path d="M998.028,699.148 A1642.000,1642.000 40.000 0,1 1023.858,679.655 L1001.267,649.099 A1680.000,1680.000 0.000 0,0 974.840,669.043 Z" style="stroke-width:2.0;stroke:rgb(255,255,255);stroke-linecap:round;fill:rgb(140,92,188);" />
<text x="935.2" y="614.8" font-size="36.4px" font-family="CMUBright-Roman" style="text-anchor:end;fill:rgb(0,0,0);" transform="rotate(53.0,935.2,614.8)" >Physical-Sciences</text>
<path d="M998.028,699.148 A1642.000,1642.000 40.000 0,1 1023.858,679.655 L1001.267,649.099 A1680.000,1680.000 0.000 0,0 974.840,669.043 Z" style="stroke-width:2.0;stroke:rgb(255,255,255);stroke-linecap:round;fill:none;" />
<path d="M1052.893,658.675 A1642.000,1642.000 40.000 0,1 1064.493,650.559 L1042.843,619.329 A1680.000,1680.000 0.000 0,0 1030.975,627.633 Z" style="stroke-width:2.0;stroke:rgb(255,255,255);stroke-linecap:round;fill:rgb(165,120,208);" />
<text x="988.2" y="575.6" font-size="36.4px" font-family="CMUBright-Roman" style="text-anchor:end;fill:rgb(0,0,0);" transform="rotate(55.0,988.2,575.6)" >Environmental-Sciences</text>
<path d="M1052.893,658.675 A1642.000,1642.000 40.000 0,1 1064.493,650.559 L1042.843,619.329 A1680.000,1680.000 0.000 0,0 1030.975,627.633 Z" style="stroke-width:2.0;stroke:rgb(255,255,255);stroke-linecap:round;fill:none;" />
<path d="M1094.154,630.472 A1642.000,1642.000 40.000 0,1 1594.822,408.776 L1585.445,371.951 A1680.000,1680.000 0.000 0,0 1073.190,598.778 Z" style="stroke-width:2.0;stroke:rgb(255,255,255);stroke-linecap:round;fill:rgb(22,118,50);" />
<text x="1278.0" y="409.0" font-size="36.4px" font-family="CMUBright-Roman" style="text-anchor:end;fill:rgb(0,0,0);" transform="rotate(66.1,1278.0,409.0)" >Engineering-Disciplines</text>
<path d="M1094.154,630.472 A1642.000,1642.000 40.000 0,1 1594.822,408.776 L1585.445,371.951 A1680.000,1680.000 0.000 0,0 1073.190,598.778 Z" style="stroke-width:2.0;stroke:rgb(255,255,255);stroke-linecap:round;fill:none;" />
<path d="M1629.631,400.315 A1642.000,1642.000 40.000 0,1 1964.180,358.391 L1963.351,320.400 A1680.000,1680.000 0.000 0,0 1621.060,363.295 Z" style="stroke-width:2.0;stroke:rgb(255,255,255);stroke-linecap:round;fill:rgb(48,158,75);" />
<text x="1767.4" y="268.4" font-size="36.4px" font-family="CMUBright-Roman" style="text-anchor:end;fill:rgb(0,0,0);" transform="rotate(82.9,1767.4,268.4)" >Computer-Science-IT</text>
<path d="M1629.631,400.315 A1642.000,1642.000 40.000 0,1 1964.180,358.391 L1963.351,320.400 A1680.000,1680.000 0.000 0,0 1621.060,363.295 Z" style="stroke-width:2.0;stroke:rgb(255,255,255);stroke-linecap:round;fill:none;" />
</g>
<g id="track_0">
<path d="M 2152.495,3618.411 A 1625.580,1625.580 0.00 0,1 2144.5,3619.1 L 2144.5,3619.1 2139.9,3566.3 2135.5,3513.9 2131.5,3462.3 2127.7,3411.7 2124.3,3362.7 2121.3,3315.4 2118.6,3270.2 2116.5,3227.4 2114.8,3187.2 2113.6,3149.8 2112.9,3115.6 2112.7,3084.5 2113.0,3056.9 2113.9,3032.9 2115.4,3012.6 2117.4,2996.2 2119.9,2983.6 2123.0,2975.0 2126.7,2970.4 2130.9,2969.8 2135.6,2973.3 2140.8,2980.8 2146.6,2992.3 2152.8,3007.7 2159.5,3026.9 2166.6,3049.8 2174.1,3076.4 2182.0,3106.4 2190.3,3139.7 2198.9,3176.0 2207.7,3215.3 2216.8,3257.2 2226.1,3301.5 2235.5,3347.9 2245.0,3396.2 2254.5,3445.9 2264.1,3496.9 2273.5,3548.6 2282.8,3600.8  A 1625.580,1625.580 0.00 0,1 2275.0,3602.2 L 2275.0,3602.2 2265.9,3549.9 2256.7,3498.1 2247.5,3447.2 2238.3,3397.4 2229.1,3349.0 2220.1,3302.6 2211.2,3258.2 2202.5,3216.2 2194.1,3176.9 2185.9,3140.5 2178.1,3107.1 2170.6,3077.1 2163.5,3050.5 2156.9,3027.5 2150.7,3008.2 2144.9,2992.7 2139.6,2981.2 2134.9,2973.6 2130.6,2970.1 2126.9,2970.6 2123.8,2975.1 2121.1,2983.6 2119.1,2996.1 2117.5,3012.6 2116.6,3032.8 2116.1,3056.8 2116.2,3084.3 2116.9,3115.3 2118.0,3149.5 2119.6,3186.8 2121.7,3227.0 2124.3,3269.7 2127.3,3314.9 2130.7,3362.1 2134.5,3411.1 2138.6,3461.6 2143.0,3513.3 2147.6,3565.6 2152.5,3618.4  Z" style="stroke-width: 0.0;  fill: rgb(15,52,135);" />
<path d="M 2144.519,3619.143 A 1625.580,1625.580 0.00 0,1 2142.5,3619.3 L 2142.5,3619.3 2138.1,3566.4 2134.1,3513.9 2130.5,3462.1 2127.5,3411.4 2125.1,3362.1 2123.3,3314.6 2122.1,3269.1 2121.5,3225.9 2121.7,3185.3 2122.5,3147.6 2124.1,3112.8 2126.4,3081.3 2129.4,3053.1 2133.2,3028.5 2137.7,3007.5 2143.0,2990.3 2149.1,2977.0 2155.8,2967.6 2163.3,2962.2 2171.5,2960.7 2180.4,2963.3 2190.0,2969.9 2200.2,2980.4 2211.0,2994.8 2222.3,3012.9 2234.2,3034.8 2246.6,3060.3 2259.4,3089.2 2272.7,3121.4 2286.2,3156.7 2300.1,3194.8 2314.2,3235.7 2328.4,3278.9 2342.7,3324.2 2357.1,3371.4 2371.4,3420.2 2385.6,3470.1 2399.6,3520.9 2413.3,3572.2  A 1625.580,1625.580 0.00 0,1 2411.3,3572.7 L 2411.3,3572.7 2397.7,3521.4 2383.8,3470.6 2369.7,3420.6 2355.5,3371.9 2341.2,3324.6 2326.9,3279.3 2312.8,3236.0 2298.8,3195.2 2285.0,3157.0 2271.6,3121.7 2258.5,3089.5 2245.7,3060.6 2233.5,3035.1 2221.7,3013.2 2210.4,2995.0 2199.8,2980.6 2189.7,2970.0 2180.3,2963.5 2171.5,2960.9 2163.4,2962.3 2156.0,2967.7 2149.4,2977.1 2143.5,2990.4 2138.3,3007.5 2133.9,3028.5 2130.2,3053.1 2127.3,3081.2 2125.1,3112.8 2123.6,3147.5 2122.9,3185.3 2122.8,3225.8 2123.5,3269.0 2124.8,3314.5 2126.7,3362.0 2129.2,3411.3 2132.3,3462.0 2135.9,3513.8 2140.0,3566.3 2144.5,3619.1  Z" style="stroke-width: 0.0;  fill: rgb(15,52,135);" />
<path d="M 2142.524,3619.320 A 1625.580,1625.580 0.00 0,1 1964.5,3625.2 L 1964.5,3625.2 1966.3,3571.3 1969.5,3517.6 1974.0,3464.5 1979.8,3412.3 1987.1,3361.3 1995.7,3311.8 2005.8,3264.2 2017.3,3218.6 2030.2,3175.3 2044.5,3134.5 2060.1,3096.5 2077.2,3061.4 2095.6,3029.4 2115.3,3000.6 2136.3,2975.2 2158.6,2953.3 2182.1,2934.9 2206.7,2920.2 2232.4,2909.2 2259.2,2902.0 2287.0,2898.4 2315.7,2898.7 2345.2,2902.6 2375.5,2910.3 2406.5,2921.6 2438.0,2936.4 2470.1,2954.7 2502.6,2976.4 2535.3,3001.3 2568.2,3029.2 2601.3,3060.0 2634.2,3093.6 2667.0,3129.6 2699.5,3167.9 2731.5,3208.2 2763.0,3250.3 2793.7,3293.9 2823.6,3338.6 2852.4,3384.2  A 1625.580,1625.580 0.00 0,1 2695.8,3469.1 L 2695.8,3469.1 2672.6,3421.1 2648.8,3373.7 2624.5,3327.3 2599.8,3282.3 2574.9,3238.8 2549.9,3197.3 2524.9,3158.0 2500.1,3121.1 2475.4,3086.9 2451.1,3055.6 2427.2,3027.4 2403.8,3002.3 2381.1,2980.7 2359.0,2962.6 2337.6,2948.1 2317.0,2937.3 2297.4,2930.3 2278.6,2927.1 2260.8,2927.8 2244.1,2932.3 2228.4,2940.7 2213.9,2953.0 2200.4,2969.0 2188.2,2988.7 2177.1,3012.0 2167.1,3038.8 2158.4,3069.0 2150.9,3102.4 2144.6,3138.8 2139.4,3178.2 2135.5,3220.1 2132.7,3264.5 2131.0,3311.0 2130.4,3359.5 2130.9,3409.5 2132.4,3460.9 2134.9,3513.2 2138.3,3566.1 2142.5,3619.3  Z" style="stroke-width: 0.0;  fill: rgb(15,52,135);" />
<path d="M 1964.506,3625.192 A 1625.580,1625.580 0.00 0,1 1962.5,3625.1 L 1962.5,3625.1 1964.6,3570.5 1968.4,3516.0 1973.9,3461.9 1981.1,3408.5 1990.2,3356.1 2001.0,3305.0 2013.6,3255.5 2028.0,3207.8 2044.3,3162.1 2062.3,3118.8 2082.0,3077.8 2103.6,3039.5 2126.8,3004.1 2151.8,2971.5 2178.3,2942.1 2206.5,2915.8 2236.2,2892.9 2267.4,2873.3 2300.0,2857.2 2334.0,2844.5 2369.2,2835.4 2405.6,2829.8 2443.1,2827.7 2481.6,2829.1 2520.9,2834.0 2561.1,2842.2 2601.9,2853.9 2643.2,2868.7 2685.0,2886.7 2727.0,2907.8 2769.1,2931.7 2811.2,2958.3 2853.2,2987.5 2894.8,3019.1 2935.9,3052.8 2976.3,3088.4 3015.9,3125.7 3054.4,3164.5 3091.7,3204.4  A 1625.580,1625.580 0.00 0,1 3090.3,3205.7 L 3090.3,3205.7 3053.0,3165.8 3014.5,3127.0 2975.0,3089.6 2934.7,3053.9 2893.6,3020.2 2852.1,2988.6 2810.2,2959.3 2768.2,2932.7 2726.1,2908.7 2684.2,2887.6 2642.5,2869.6 2601.3,2854.6 2560.6,2843.0 2520.6,2834.6 2481.3,2829.7 2442.9,2828.3 2405.5,2830.3 2369.2,2835.9 2334.1,2845.0 2300.2,2857.6 2267.7,2873.7 2236.6,2893.2 2207.0,2916.1 2179.0,2942.4 2152.5,2971.8 2127.7,3004.3 2104.5,3039.7 2083.1,3078.0 2063.4,3118.9 2045.5,3162.3 2029.4,3207.9 2015.0,3255.6 2002.5,3305.1 1991.8,3356.2 1982.8,3408.6 1975.7,3462.0 1970.2,3516.1 1966.5,3570.6 1964.5,3625.2  Z" style="stroke-width: 0.0;  fill: rgb(15,52,135);" />
<path d="M 1962.504,3625.148 A 1625.580,1625.580 0.00 0,1 1950.5,3624.8 L 1950.5,3624.8 1953.2,3569.3 1957.9,3513.7 1964.7,3458.3 1973.6,3403.4 1984.5,3349.3 1997.7,3296.2 2012.9,3244.3 2030.3,3194.0 2049.7,3145.5 2071.3,3098.8 2095.0,3054.3 2120.7,3012.1 2148.5,2972.3 2178.2,2935.2 2209.9,2900.7 2243.4,2869.2 2278.7,2840.6 2315.8,2815.0 2354.5,2792.5 2394.8,2773.2 2436.6,2757.2 2479.8,2744.3 2524.3,2734.8 2569.9,2728.5 2616.5,2725.4 2664.1,2725.5 2712.5,2728.9 2761.5,2735.3 2811.0,2744.8 2860.9,2757.2 2911.0,2772.5 2961.0,2790.5 3011.0,2811.2 3060.5,2834.3 3109.6,2859.7 3157.9,2887.2 3205.3,2916.7 3251.6,2947.9 3296.5,2980.6  A 1625.580,1625.580 0.00 0,1 3289.2,2990.2 L 3289.2,2990.2 3244.6,2957.1 3198.7,2925.6 3151.6,2895.8 3103.6,2868.0 3055.0,2842.2 3005.8,2818.8 2956.3,2797.8 2906.6,2779.4 2857.0,2763.7 2807.6,2750.9 2758.5,2741.0 2710.0,2734.2 2662.1,2730.6 2615.0,2730.1 2568.9,2732.8 2523.8,2738.8 2479.9,2748.1 2437.2,2760.6 2396.0,2776.4 2356.3,2795.4 2318.1,2817.6 2281.6,2842.9 2246.9,2871.3 2213.9,2902.7 2182.8,2936.9 2153.7,2973.9 2126.5,3013.5 2101.4,3055.6 2078.3,3100.0 2057.2,3146.5 2038.3,3194.9 2021.5,3245.2 2006.8,3296.9 1994.2,3349.9 1983.7,3404.0 1975.4,3458.8 1969.0,3514.2 1964.8,3569.7 1962.5,3625.1  Z" style="stroke-width: 0.0;  fill: rgb(15,52,135);" />
<path d="M 1950.495,3624.826 A 1625.580,1625.580 0.00 0,1 1948.5,3624.8 L 1948.5,3624.8 1951.4,3568.1 1956.7,3511.1 1964.3,3454.0 1974.3,3397.1 1986.7,3340.7 2001.5,3285.0 2018.7,3230.2 2038.3,3176.6 2060.3,3124.2 2084.7,3073.4 2111.4,3024.3 2140.4,2977.1 2171.6,2931.9 2205.1,2888.8 2240.7,2848.1 2278.4,2809.7 2318.2,2773.9 2359.9,2740.7 2403.4,2710.2 2448.7,2682.5 2495.7,2657.6 2544.2,2635.6 2594.2,2616.6 2645.5,2600.4 2698.0,2587.3 2751.6,2577.1 2806.1,2569.8 2861.3,2565.5 2917.2,2564.1 2973.5,2565.5 3030.1,2569.8 3086.8,2576.8 3143.4,2586.4 3199.8,2598.6 3255.6,2613.2 3310.8,2630.2 3365.1,2649.4 3418.3,2670.6 3470.1,2693.8  A 1625.580,1625.580 0.00 0,1 3469.2,2695.6 L 3469.2,2695.6 3417.4,2672.4 3364.3,2651.1 3310.1,2631.8 3255.0,2614.8 3199.1,2600.1 3142.9,2587.8 3086.3,2578.1 3029.6,2571.1 2973.1,2566.8 2916.8,2565.2 2861.0,2566.6 2805.8,2570.8 2751.4,2578.0 2697.9,2588.1 2645.5,2601.2 2594.3,2617.3 2544.4,2636.3 2495.9,2658.3 2449.0,2683.1 2403.8,2710.8 2360.3,2741.2 2318.7,2774.4 2279.1,2810.1 2241.5,2848.4 2205.9,2889.2 2172.5,2932.2 2141.4,2977.4 2112.5,3024.6 2085.9,3073.6 2061.6,3124.4 2039.7,3176.7 2020.2,3230.4 2003.1,3285.2 1988.3,3340.8 1976.0,3397.2 1966.1,3454.1 1958.6,3511.1 1953.4,3568.1 1950.5,3624.8  Z" style="stroke-width: 0.0;  fill: rgb(15,52,135);" />
<path d="M 1948.494,3624.764 A 1625.580,1625.580 0.00 0,1 1938.5,3624.4 L 1938.5,3624.4 1942.0,3566.2 1948.0,3507.4 1956.6,3448.3 1967.8,3389.0 1981.6,3329.9 1998.0,3271.0 2017.0,3212.7 2038.6,3155.0 2062.7,3098.2 2089.3,3042.5 2118.4,2987.9 2150.0,2934.8 2183.9,2883.1 2220.2,2833.1 2258.7,2784.9 2299.5,2738.6 2342.3,2694.3 2387.2,2652.1 2434.1,2612.2 2482.9,2574.5 2533.4,2539.2 2585.5,2506.4 2639.2,2476.1 2694.3,2448.3 2750.7,2423.2 2808.2,2400.7 2866.7,2380.9 2926.1,2363.8 2986.2,2349.4 3046.9,2337.7 3107.9,2328.7 3169.1,2322.4 3230.4,2318.7 3291.5,2317.7 3352.2,2319.2 3412.4,2323.3 3471.8,2329.9 3530.2,2338.9 3587.4,2350.2  A 1625.580,1625.580 0.00 0,1 3585.2,2360.0 L 3585.2,2360.0 3528.2,2348.3 3469.9,2339.0 3410.7,2332.0 3350.7,2327.6 3290.1,2325.6 3229.2,2326.3 3168.2,2329.6 3107.1,2335.5 3046.3,2344.1 2985.9,2355.5 2926.0,2369.5 2866.8,2386.3 2808.5,2405.7 2751.3,2427.9 2695.2,2452.7 2640.4,2480.1 2587.0,2510.1 2535.2,2542.6 2485.0,2577.6 2436.6,2615.0 2390.1,2654.7 2345.5,2696.7 2303.0,2740.8 2262.7,2786.9 2224.5,2834.9 2188.7,2884.7 2155.1,2936.2 2124.0,2989.3 2095.3,3043.7 2069.1,3099.3 2045.4,3156.0 2024.3,3213.5 2005.7,3271.8 1989.7,3330.6 1976.3,3389.6 1965.5,3448.8 1957.2,3507.9 1951.6,3566.6 1948.5,3624.8  Z" style="stroke-width: 0.0;  fill: rgb(15,52,135);" />
<path d="M 1938.488,3624.416 A 1625.580,1625.580 0.00 0,1 1650.9,3587.6 L 1650.9,3587.6 1665.5,3527.2 1683.1,3466.2 1703.5,3404.7 1726.6,3342.9 1752.4,3280.9 1780.9,3218.9 1812.0,3157.0 1845.5,3095.3 1881.5,3034.0 1919.8,2973.1 1960.4,2912.9 2003.2,2853.3 2048.1,2794.6 2095.0,2736.9 2143.8,2680.2 2194.5,2624.6 2247.0,2570.3 2301.1,2517.4 2356.7,2466.0 2413.9,2416.1 2472.3,2367.8 2532.0,2321.3 2592.8,2276.6 2654.7,2233.8 2717.4,2193.0 2781.0,2154.3 2845.2,2117.7 2909.9,2083.3 2975.1,2051.1 3040.5,2021.3 3106.2,1993.9 3171.8,1969.0 3237.3,1946.5 3302.6,1926.6 3367.5,1909.3 3431.8,1894.7 3495.5,1882.8 3558.3,1873.6 3620.1,1867.2  A 1625.580,1625.580 0.00 0,1 3618.0,2157.1 L 3618.0,2157.1 3558.9,2152.7 3498.8,2150.8 3437.8,2151.5 3376.2,2154.7 3314.1,2160.6 3251.8,2169.1 3189.3,2180.3 3127.0,2194.1 3064.9,2210.6 3003.3,2229.6 2942.3,2251.3 2882.0,2275.6 2822.6,2302.4 2764.3,2331.7 2707.1,2363.5 2651.3,2397.7 2596.9,2434.3 2544.0,2473.1 2492.8,2514.2 2443.4,2557.4 2395.8,2602.6 2350.3,2649.8 2306.7,2698.8 2265.3,2749.5 2226.2,2801.9 2189.3,2855.8 2154.7,2911.0 2122.6,2967.5 2092.9,3025.1 2065.7,3083.6 2041.1,3142.9 2019.0,3202.8 1999.6,3263.1 1982.8,3323.8 1968.6,3384.5 1957.1,3445.1 1948.2,3505.5 1942.0,3565.3 1938.5,3624.4  Z" style="stroke-width: 0.0;  fill: rgb(15,52,135);" />
<path d="M 1650.882,3587.648 A 1625.580,1625.580 0.00 0,1 1613.8,3579.0 L 1613.8,3579.0 1630.6,3516.0 1650.1,3452.2 1672.3,3387.6 1697.2,3322.4 1724.6,3256.6 1754.4,3190.4 1786.5,3123.7 1820.8,3056.9 1857.3,2989.8 1895.9,2922.7 1936.4,2855.6 1978.7,2788.5 2022.9,2721.8 2068.7,2655.3 2116.1,2589.2 2165.0,2523.6 2215.3,2458.7 2267.0,2394.4 2319.9,2330.9 2373.9,2268.4 2429.0,2206.8 2485.1,2146.4 2542.0,2087.2 2599.8,2029.2 2658.3,1972.7 2717.4,1917.7 2777.1,1864.4 2837.2,1812.7 2897.7,1762.9 2958.6,1715.0 3019.6,1669.2 3080.8,1625.4 3142.0,1584.0 3203.2,1544.9 3264.3,1508.2 3325.3,1474.2 3385.9,1442.8 3446.3,1414.2 3506.2,1388.5  A 1625.580,1625.580 0.00 0,1 3520.1,1423.9 L 3520.1,1423.9 3460.0,1448.0 3399.5,1475.1 3338.6,1505.0 3277.5,1537.5 3216.1,1572.7 3154.7,1610.4 3093.3,1650.4 3032.0,1692.8 2970.8,1737.3 2909.9,1784.0 2849.3,1832.6 2789.2,1883.1 2729.6,1935.4 2670.6,1989.4 2612.3,2044.9 2554.8,2102.0 2498.1,2160.4 2442.4,2220.1 2387.8,2280.9 2334.3,2342.9 2282.0,2405.8 2231.1,2469.5 2181.5,2534.1 2133.4,2599.3 2086.9,2665.0 2042.1,2731.2 1999.0,2797.8 1957.8,2864.6 1918.5,2931.6 1881.2,2998.7 1846.0,3065.7 1813.0,3132.5 1782.3,3199.1 1754.0,3265.3 1728.1,3331.1 1704.7,3396.3 1684.0,3460.9 1666.1,3524.7 1650.9,3587.6  Z" style="stroke-width: 0.0;  fill: rgb(15,52,135);" />
<path d="M 1613.825,3579.044 A 1625.580,1625.580 0.00 0,1 1588.6,3572.7 L 1588.6,3572.7 1607.0,3506.7 1628.0,3439.7 1651.3,3371.8 1676.8,3303.0 1704.5,3233.3 1734.1,3162.9 1765.6,3091.7 1798.8,3019.9 1833.6,2947.5 1870.0,2874.5 1907.7,2801.1 1946.8,2727.4 1987.0,2653.3 2028.3,2579.0 2070.7,2504.6 2114.0,2430.2 2158.1,2355.8 2203.1,2281.5 2248.7,2207.5 2295.0,2133.8 2341.8,2060.5 2389.1,1987.8 2437.0,1915.7 2485.2,1844.3 2533.8,1773.8 2582.7,1704.3 2631.9,1635.9 2681.4,1568.6 2731.1,1502.7 2780.9,1438.3 2831.0,1375.5 2881.3,1314.3 2931.7,1255.0 2982.2,1197.7 3033.0,1142.5 3083.8,1089.6 3134.8,1039.1 3186.0,991.1 3237.4,945.8  A 1625.580,1625.580 0.00 0,1 3254.2,965.8 L 3254.2,965.8 3202.3,1010.0 3150.6,1057.0 3099.1,1106.6 3047.8,1158.6 2996.6,1212.9 2945.6,1269.4 2894.7,1327.8 2844.0,1388.2 2793.6,1450.3 2743.3,1514.1 2693.3,1579.4 2643.6,1646.0 2594.1,1713.9 2545.0,1782.9 2496.3,1852.9 2448.0,1923.8 2400.2,1995.6 2352.9,2068.0 2306.1,2141.0 2260.0,2214.4 2214.6,2288.2 2170.0,2362.3 2126.2,2436.6 2083.3,2510.9 2041.4,2585.2 2000.6,2659.5 1961.0,2733.5 1922.6,2807.2 1885.5,2880.6 1850.0,2953.6 1816.0,3026.1 1783.6,3098.0 1753.1,3169.2 1724.4,3239.7 1697.7,3309.4 1673.2,3378.2 1651.0,3446.2 1631.1,3513.1 1613.8,3579.0  Z" style="stroke-width: 0.0;  fill: rgb(15,52,135);" />
<path d="M 1588.591,3572.658 A 1625.580,1625.580 0.00 0,1 1584.7,3571.6 L 1584.7,3571.6 1604.0,3502.1 1625.3,3431.4 1648.4,3359.7 1673.0,3286.9 1699.2,3213.2 1726.5,3138.5 1755.0,3062.9 1784.5,2986.4 1814.8,2909.1 1845.8,2831.0 1877.3,2752.2 1909.4,2672.7 1941.7,2592.6 1974.4,2511.9 2007.2,2430.8 2040.1,2349.2 2073.1,2267.3 2106.0,2185.2 2138.9,2102.8 2171.6,2020.4 2204.2,1937.9 2236.5,1855.5 2268.7,1773.3 2300.7,1691.4 2332.4,1609.8 2364.0,1528.7 2395.3,1448.2 2426.5,1368.4 2457.6,1289.4 2488.6,1211.3 2519.6,1134.2 2550.6,1058.4 2581.7,983.8 2613.0,910.7 2644.5,839.1 2676.4,769.2 2708.8,701.2 2741.8,635.2 2775.4,571.3  A 1625.580,1625.580 0.00 0,1 2779.0,573.2 L 2779.0,573.2 2745.2,637.0 2712.1,702.9 2679.6,770.8 2647.5,840.5 2615.8,912.0 2584.4,985.1 2553.2,1059.6 2522.1,1135.4 2491.0,1212.3 2459.9,1290.4 2428.8,1369.3 2397.5,1449.1 2366.1,1529.6 2334.5,1610.7 2302.7,1692.2 2270.7,1774.1 2238.5,1856.3 2206.1,1938.7 2173.5,2021.1 2140.8,2103.6 2107.9,2185.9 2075.0,2268.1 2042.1,2350.0 2009.2,2431.6 1976.5,2512.7 1943.9,2593.4 1911.6,2673.5 1879.6,2753.1 1848.2,2831.9 1817.3,2910.0 1787.1,2987.4 1757.8,3063.9 1729.4,3139.5 1702.2,3214.2 1676.2,3287.9 1651.7,3360.7 1628.8,3432.4 1607.7,3503.1 1588.6,3572.7  Z" style="stroke-width: 0.0;  fill: rgb(15,52,135);" />
<path d="M 1584.718,3571.640 A 1625.580,1625.580 0.00 0,1 1479.3,3539.9 L 1479.3,3539.9 1501.2,3472.1 1522.0,3402.1 1541.7,3330.2 1560.5,3256.5 1578.6,3181.1 1595.9,3104.1 1612.6,3025.6 1628.8,2945.8 1644.7,2864.8 1660.1,2782.6 1675.3,2699.4 1690.3,2615.4 1705.1,2530.5 1719.8,2444.9 1734.4,2358.8 1749.0,2272.3 1763.5,2185.3 1777.9,2098.1 1792.4,2010.7 1806.7,1923.3 1821.1,1835.9 1835.3,1748.7 1849.4,1661.7 1863.4,1575.0 1877.1,1488.7 1890.6,1403.0 1903.7,1317.9 1916.5,1233.4 1928.7,1149.8 1940.4,1067.0 1951.4,985.1 1961.6,904.3 1970.9,824.6 1979.1,746.1 1986.2,668.9 1992.0,593.1 1996.3,518.7 1999.1,445.7 2000.0,374.4  A 1625.580,1625.580 0.00 0,1 2110.0,378.1 L 2110.0,378.1 2104.3,450.6 2096.9,524.5 2088.0,599.7 2077.8,676.3 2066.5,754.0 2054.2,832.9 2041.1,913.0 2027.3,994.0 2013.0,1076.0 1998.3,1158.9 1983.3,1242.6 1968.0,1327.1 1952.7,1412.2 1937.3,1497.9 1922.0,1584.1 1906.7,1670.7 1891.6,1757.7 1876.7,1845.0 1862.1,1932.4 1847.7,2019.9 1833.6,2107.4 1819.7,2194.8 1806.2,2282.0 1792.8,2369.0 1779.8,2455.6 1766.9,2541.7 1754.2,2627.2 1741.6,2712.1 1729.0,2796.2 1716.4,2879.5 1703.6,2961.7 1690.7,3042.9 1677.5,3122.9 1663.8,3201.6 1649.6,3278.9 1634.8,3354.7 1619.1,3428.8 1602.5,3501.1 1584.7,3571.6  Z" style="stroke-width: 0.0;  fill: rgb(15,52,135);" />
</g>
<defs>
<pattern id="hline" width="10" height="10" patternTransform="rotate(0 0 0)" patternUnits="userSpaceOnUse"><line x1="0" y1="0" x2="10" y2="0" style="stroke:black;stroke-width:5" /></pattern>
<pattern id="vline-sparse" width="10" height="10" patternTransform="rotate(0 0 0)" patternUnits="userSpaceOnUse"><line x1="0" y1="0" x2="0" y2="10" style="stroke:black;stroke-width:2" /></pattern>
<pattern id="checker" width="10" height="10" patternTransform="rotate(45 0 0)" patternUnits="userSpaceOnUse"><line x1="0" y1="0" x2="10" y2="0" style="stroke:black;stroke-width:2" /><line x1="0" y1="0" x2="0" y2="10" style="stroke:black;stroke-width:2" /></pattern>
<pattern id="vline" width="10" height="10" patternTransform="rotate(0 0 0)" patternUnits="userSpaceOnUse"><line x1="0" y1="0" x2="0" y2="10" style="stroke:black;stroke-width:5" /></pattern>
<pattern id="checker" width="10" height="10" patternTransform="rotate(45 0 0)" patternUnits="userSpaceOnUse"><line x1="0" y1="0" x2="10" y2="0" style="stroke:black;stroke-width:5" /><line x1="0" y1="0" x2="0" y2="10" style="stroke:black;stroke-width:4" /></pattern>
<pattern id="hline-sparse" width="10" height="10" patternTransform="rotate(0 0 0)" patternUnits="userSpaceOnUse"><line x1="0" y1="0" x2="10" y2="0" style="stroke:black;stroke-width:2" /></pattern>
</defs>
</svg>
