<?xml version="1.0" encoding="utf-8" standalone="no"?>
<!DOCTYPE svg PUBLIC "-//W3C//DTD SVG 1.1//EN" "http://www.w3.org/Graphics/SVG/1.1/DTD/svg11.dtd">
<svg width="4000px" height="4000px" version="1.1" xmlns="http://www.w3.org/2000/svg" xmlns:xlink="http://www.w3.org/1999/xlink">
<g id="bg">
<rect x="0" y="0" width="4000px" height="4000px" style="fill:rgb(255,255,255);"/>
</g>
<g id="ideograms">
<path d="M2000.000,358.000 A1642.000,1642.000 40.000 0,1 2727.139,527.779 L2743.967,493.709 A1680.000,1680.000 0.000 0,0 2000.000,320.000 Z" style="stroke-width:2.0;stroke:rgb(255,255,255);stroke-linecap:round;fill:rgb(185,185,185);" />
<text x="2412.3" y="302.2" font-size="36.4px" font-family="CMUBright-Roman" style="text-anchor:start;fill:rgb(0,0,0);" transform="rotate(283.1,2412.3,302.2)" >Engineering</text>
<path d="M2000.000,358.000 A1642.000,1642.000 40.000 0,1 2727.139,527.779 L2743.967,493.709 A1680.000,1680.000 0.000 0,0 2000.000,320.000 Z" style="stroke-width:2.0;stroke:rgb(255,255,255);stroke-linecap:round;fill:none;" />
<path d="M2759.082,543.992 A1642.000,1642.000 40.000 0,1 3284.099,976.646 L3313.816,952.963 A1680.000,1680.000 0.000 0,0 2776.649,510.297 Z" style="stroke-width:2.0;stroke:rgb(255,255,255);stroke-linecap:round;fill:rgb(185,185,185);" />
<text x="3120.8" y="659.6" font-size="36.4px" font-family="CMUBright-Roman" style="text-anchor:start;fill:rgb(0,0,0);" transform="rotate(309.5,3120.8,659.6)" >Finance-Investment</text>
<path d="M2759.082,543.992 A1642.000,1642.000 40.000 0,1 3284.099,976.646 L3313.816,952.963 A1680.000,1680.000 0.000 0,0 2776.649,510.297 Z" style="stroke-width:2.0;stroke:rgb(255,255,255);stroke-linecap:round;fill:none;" />
<path d="M3306.118,1004.902 A1642.000,1642.000 40.000 0,1 3557.132,1478.938 L3593.167,1466.879 A1680.000,1680.000 0.000 0,0 3336.345,981.873 Z" style="stroke-width:2.0;stroke:rgb(255,255,255);stroke-linecap:round;fill:rgb(185,185,185);" />
<text x="3551.5" y="1196.5" font-size="36.4px" font-family="CMUBright-Roman" style="text-anchor:start;fill:rgb(0,0,0);" transform="rotate(332.1,3551.5,1196.5)" >Management-Operations</text>
<path d="M3306.118,1004.902 A1642.000,1642.000 40.000 0,1 3557.132,1478.938 L3593.167,1466.879 A1680.000,1680.000 0.000 0,0 3336.345,981.873 Z" style="stroke-width:2.0;stroke:rgb(255,255,255);stroke-linecap:round;fill:none;" />
<path d="M3568.128,1513.031 A1642.000,1642.000 40.000 0,1 3640.479,1929.339 L3678.444,1927.703 A1680.000,1680.000 0.000 0,0 3604.418,1501.761 Z" style="stroke-width:2.0;stroke:rgb(255,255,255);stroke-linecap:round;fill:rgb(185,185,185);" />
<text x="3723.5" y="1713.2" font-size="36.4px" font-family="CMUBright-Roman" style="text-anchor:start;fill:rgb(0,0,0);" transform="rotate(350.1,3723.5,1713.2)" >Software-Data</text>
<path d="M3568.128,1513.031 A1642.000,1642.000 40.000 0,1 3640.479,1929.339 L3678.444,1927.703 A1680.000,1680.000 0.000 0,0 3604.418,1501.761 Z" style="stroke-width:2.0;stroke:rgb(255,255,255);stroke-linecap:round;fill:none;" />
<path d="M3641.630,1965.142 A1642.000,1642.000 40.000 0,1 3597.388,2380.151 L3634.356,2388.948 A1680.000,1680.000 0.000 0,0 3679.621,1964.336 Z" style="stroke-width:2.0;stroke:rgb(255,255,255);stroke-linecap:round;fill:rgb(185,185,185);" />
<text x="3735.6" y="2201.1" font-size="36.4px" font-family="CMUBright-Roman" style="text-anchor:start;fill:rgb(0,0,0);" transform="rotate(6.1,3735.6,2201.1)" >Sales-Marketing</text>
<path d="M3641.630,1965.142 A1642.000,1642.000 40.000 0,1 3597.388,2380.151 L3634.356,2388.948 A1680.000,1680.000 0.000 0,0 3679.621,1964.336 Z" style="stroke-width:2.0;stroke:rgb(255,255,255);stroke-linecap:round;fill:none;" />
<path d="M3588.715,2414.907 A1642.000,1642.000 40.000 0,1 3447.858,2774.513 L3481.365,2792.437 A1680.000,1680.000 0.000 0,0 3625.482,2424.509 Z" style="stroke-width:2.0;stroke:rgb(255,255,255);stroke-linecap:round;fill:rgb(185,185,185);" />
<text x="3620.9" y="2652.1" font-size="36.4px" font-family="CMUBright-Roman" style="text-anchor:start;fill:rgb(0,0,0);" transform="rotate(21.4,3620.9,2652.1)" >Accounting-Audit</text>
<path d="M3588.715,2414.907 A1642.000,1642.000 40.000 0,1 3447.858,2774.513 L3481.365,2792.437 A1680.000,1680.000 0.000 0,0 3625.482,2424.509 Z" style="stroke-width:2.0;stroke:rgb(255,255,255);stroke-linecap:round;fill:none;" />
<path d="M3430.618,2805.914 A1642.000,1642.000 40.000 0,1 3261.549,3051.027 L3290.745,3075.350 A1680.000,1680.000 0.000 0,0 3463.726,2824.565 Z" style="stroke-width:2.0;stroke:rgb(255,255,255);stroke-linecap:round;fill:rgb(185,185,185);" />
<text x="3429.4" y="3004.8" font-size="36.4px" font-family="CMUBright-Roman" style="text-anchor:start;fill:rgb(0,0,0);" transform="rotate(34.6,3429.4,3004.8)" >Leadership-General</text>
<path d="M3430.618,2805.914 A1642.000,1642.000 40.000 0,1 3261.549,3051.027 L3290.745,3075.350 A1680.000,1680.000 0.000 0,0 3463.726,2824.565 Z" style="stroke-width:2.0;stroke:rgb(255,255,255);stroke-linecap:round;fill:none;" />
<path d="M3238.321,3078.297 A1642.000,1642.000 40.000 0,1 3039.505,3271.060 L3063.562,3300.476 A1680.000,1680.000 0.000 0,0 3266.979,3103.252 Z" style="stroke-width:2.0;stroke:rgb(255,255,255);stroke-linecap:round;fill:rgb(185,185,185);" />
<text x="3207.2" y="3263.1" font-size="36.4px" font-family="CMUBright-Roman" style="text-anchor:start;fill:rgb(0,0,0);" transform="rotate(45.9,3207.2,3263.1)" >Clinical-Care</text>
<path d="M3238.321,3078.297 A1642.000,1642.000 40.000 0,1 3039.505,3271.060 L3063.562,3300.476 A1680.000,1680.000 0.000 0,0 3266.979,3103.252 Z" style="stroke-width:2.0;stroke:rgb(255,255,255);stroke-linecap:round;fill:none;" />
<path d="M3011.529,3293.434 A1642.000,1642.000 40.000 0,1 2784.385,3442.534 L2802.537,3475.918 A1680.000,1680.000 0.000 0,0 3034.939,3323.368 Z" style="stroke-width:2.0;stroke:rgb(255,255,255);stroke-linecap:round;fill:rgb(185,185,185);" />
<text x="2948.3" y="3467.5" font-size="36.4px" font-family="CMUBright-Roman" style="text-anchor:start;fill:rgb(0,0,0);" transform="rotate(56.7,2948.3,3467.5)" >Research-Science</text>
<path d="M3011.529,3293.434 A1642.000,1642.000 40.000 0,1 2784.385,3442.534 L2802.537,3475.918 A1680.000,1680.000 0.000 0,0 3034.939,3323.368 Z" style="stroke-width:2.0;stroke:rgb(255,255,255);stroke-linecap:round;fill:none;" />
<path d="M2752.729,3459.302 A1642.000,1642.000 40.000 0,1 2556.245,3544.913 L2569.118,3580.666 A1680.000,1680.000 0.000 0,0 2770.149,3493.074 Z" style="stroke-width:2.0;stroke:rgb(255,255,255);stroke-linecap:round;fill:rgb(185,185,185);" />
<text x="2686.4" y="3606.7" font-size="36.4px" font-family="CMUBright-Roman" style="text-anchor:start;fill:rgb(0,0,0);" transform="rotate(66.5,2686.4,3606.7)" >Education</text>
<path d="M2752.729,3459.302 A1642.000,1642.000 40.000 0,1 2556.245,3544.913 L2569.118,3580.666 A1680.000,1680.000 0.000 0,0 2770.149,3493.074 Z" style="stroke-width:2.0;stroke:rgb(255,255,255);stroke-linecap:round;fill:none;" />
<path d="M2522.411,3556.679 A1642.000,1642.000 40.000 0,1 2417.174,3588.121 L2426.829,3624.875 A1680.000,1680.000 0.000 0,0 2534.501,3592.705 Z" style="stroke-width:2.0;stroke:rgb(255,255,255);stroke-linecap:round;fill:rgb(185,185,185);" />
<text x="2488.2" y="3677.6" font-size="36.4px" font-family="CMUBright-Roman" style="text-anchor:start;fill:rgb(0,0,0);" transform="rotate(73.4,2488.2,3677.6)" >IT-Infrastructure</text>
<path d="M2522.411,3556.679 A1642.000,1642.000 40.000 0,1 2417.174,3588.121 L2426.829,3624.875 A1680.000,1680.000 0.000 0,0 2534.501,3592.705 Z" style="stroke-width:2.0;stroke:rgb(255,255,255);stroke-linecap:round;fill:none;" />
<path d="M2382.430,3596.844 A1642.000,1642.000 40.000 0,1 2321.118,3610.294 L2328.550,3647.560 A1680.000,1680.000 0.000 0,0 2391.281,3633.799 Z" style="stroke-width:2.0;stroke:rgb(255,255,255);stroke-linecap:round;fill:rgb(185,185,185);" />
<text x="2358.7" y="3710.0" font-size="36.4px" font-family="CMUBright-Roman" style="text-anchor:start;fill:rgb(0,0,0);" transform="rotate(77.6,2358.7,3710.0)" >Legal-Policy</text>
<path d="M2382.430,3596.844 A1642.000,1642.000 40.000 0,1 2321.118,3610.294 L2328.550,3647.560 A1680.000,1680.000 0.000 0,0 2391.281,3633.799 Z" style="stroke-width:2.0;stroke:rgb(255,255,255);stroke-linecap:round;fill:none;" />
<path d="M2285.913,3616.916 A1642.000,1642.000 40.000 0,1 2249.787,3622.890 L2255.567,3660.447 A1680.000,1680.000 0.000 0,0 2292.530,3654.336 Z" style="stroke-width:2.0;stroke:rgb(255,255,255);stroke-linecap:round;fill:rgb(185,185,185);" />
<text x="2272.7" y="3725.8" font-size="36.4px" font-family="CMUBright-Roman" style="text-anchor:start;fill:rgb(0,0,0);" transform="rotate(80.6,2272.7,3725.8)" >Social-Service</text>
<path d="M2285.913,3616.916 A1642.000,1642.000 40.000 0,1 2249.787,3622.890 L2255.567,3660.447 A1680.000,1680.000 0.000 0,0 2292.530,3654.336 Z" style="stroke-width:2.0;stroke:rgb(255,255,255);stroke-linecap:round;fill:none;" />
<path d="M2214.324,3627.952 A1642.000,1642.000 40.000 0,1 1245.263,3458.265 L1227.797,3492.013 A1680.000,1680.000 0.000 0,0 2219.284,3665.627 Z" style="stroke-width:2.0;stroke:rgb(255,255,255);stroke-linecap:round;fill:rgb(15,52,135);" />
<text x="1714.4" y="3723.7" font-size="36.4px" font-family="CMUBright-Roman" style="text-anchor:end;fill:rgb(0,0,0);" transform="rotate(-80.1,1714.4,3723.7)" >Finance-Accounting</text>
<path d="M2214.324,3627.952 A1642.000,1642.000 40.000 0,1 1245.263,3458.265 L1227.797,3492.013 A1680.000,1680.000 0.000 0,0 2219.284,3665.627 Z" style="stroke-width:2.0;stroke:rgb(255,255,255);stroke-linecap:round;fill:none;" />
<path d="M1213.631,3441.453 A1642.000,1642.000 40.000 0,1 879.437,3200.209 L853.504,3227.985 A1680.000,1680.000 0.000 0,0 1195.432,3474.812 Z" style="stroke-width:2.0;stroke:rgb(255,255,255);stroke-linecap:round;fill:rgb(28,75,160);" />
<text x="990.4" y="3426.0" font-size="36.4px" font-family="CMUBright-Roman" style="text-anchor:end;fill:rgb(0,0,0);" transform="rotate(-54.2,990.4,3426.0)" >Marketing-Communication</text>
<path d="M1213.631,3441.453 A1642.000,1642.000 40.000 0,1 879.437,3200.209 L853.504,3227.985 A1680.000,1680.000 0.000 0,0 1195.432,3474.812 Z" style="stroke-width:2.0;stroke:rgb(255,255,255);stroke-linecap:round;fill:none;" />
<path d="M853.521,3175.478 A1642.000,1642.000 40.000 0,1 639.254,2918.986 L607.763,2940.253 A1680.000,1680.000 0.000 0,0 826.988,3202.682 Z" style="stroke-width:2.0;stroke:rgb(255,255,255);stroke-linecap:round;fill:rgb(42,98,180);" />
<text x="667.2" y="3129.7" font-size="36.4px" font-family="CMUBright-Roman" style="text-anchor:end;fill:rgb(0,0,0);" transform="rotate(-39.9,667.2,3129.7)" >General-Business</text>
<path d="M853.521,3175.478 A1642.000,1642.000 40.000 0,1 639.254,2918.986 L607.763,2940.253 A1680.000,1680.000 0.000 0,0 826.988,3202.682 Z" style="stroke-width:2.0;stroke:rgb(255,255,255);stroke-linecap:round;fill:none;" />
<path d="M619.530,2889.082 A1642.000,1642.000 40.000 0,1 479.680,2620.315 L444.496,2634.671 A1680.000,1680.000 0.000 0,0 587.583,2909.658 Z" style="stroke-width:2.0;stroke:rgb(255,255,255);stroke-linecap:round;fill:rgb(60,120,198);" />
<text x="457.3" y="2820.2" font-size="36.4px" font-family="CMUBright-Roman" style="text-anchor:end;fill:rgb(0,0,0);" transform="rotate(-27.5,457.3,2820.2)" >Operations-Analytics</text>
<path d="M619.530,2889.082 A1642.000,1642.000 40.000 0,1 479.680,2620.315 L444.496,2634.671 A1680.000,1680.000 0.000 0,0 587.583,2909.658 Z" style="stroke-width:2.0;stroke:rgb(255,255,255);stroke-linecap:round;fill:none;" />
<path d="M466.510,2587.002 A1642.000,1642.000 40.000 0,1 421.749,2453.087 L385.224,2463.573 A1680.000,1680.000 0.000 0,0 431.021,2600.587 Z" style="stroke-width:2.0;stroke:rgb(255,255,255);stroke-linecap:round;fill:rgb(82,145,215);" />
<text x="347.9" y="2568.6" font-size="36.4px" font-family="CMUBright-Roman" style="text-anchor:end;fill:rgb(0,0,0);" transform="rotate(-18.5,347.9,2568.6)" >Specialized-Business</text>
<path d="M466.510,2587.002 A1642.000,1642.000 40.000 0,1 421.749,2453.087 L385.224,2463.573 A1680.000,1680.000 0.000 0,0 431.021,2600.587 Z" style="stroke-width:2.0;stroke:rgb(255,255,255);stroke-linecap:round;fill:none;" />
<path d="M412.241,2418.550 A1642.000,1642.000 40.000 0,1 391.911,2331.987 L354.696,2339.670 A1680.000,1680.000 0.000 0,0 375.496,2428.236 Z" style="stroke-width:2.0;stroke:rgb(255,255,255);stroke-linecap:round;fill:rgb(108,170,228);" />
<text x="301.9" y="2411.1" font-size="36.4px" font-family="CMUBright-Roman" style="text-anchor:end;fill:rgb(0,0,0);" transform="rotate(-13.2,301.9,2411.1)" >Economics</text>
<path d="M412.241,2418.550 A1642.000,1642.000 40.000 0,1 391.911,2331.987 L354.696,2339.670 A1680.000,1680.000 0.000 0,0 375.496,2428.236 Z" style="stroke-width:2.0;stroke:rgb(255,255,255);stroke-linecap:round;fill:none;" />
<path d="M385.052,2296.827 A1642.000,1642.000 40.000 0,1 366.030,2162.194 L328.216,2165.947 A1680.000,1680.000 0.000 0,0 347.678,2303.697 Z" style="stroke-width:2.0;stroke:rgb(255,255,255);stroke-linecap:round;fill:rgb(200,108,30);" />
<text x="271.8" y="2256.8" font-size="36.4px" font-family="CMUBright-Roman" style="text-anchor:end;fill:rgb(0,0,0);" transform="rotate(-8.0,271.8,2256.8)" >Social-Sciences</text>
<path d="M385.052,2296.827 A1642.000,1642.000 40.000 0,1 366.030,2162.194 L328.216,2165.947 A1680.000,1680.000 0.000 0,0 347.678,2303.697 Z" style="stroke-width:2.0;stroke:rgb(255,255,255);stroke-linecap:round;fill:none;" />
<path d="M362.881,2126.510 A1642.000,1642.000 40.000 0,1 359.682,2074.299 L321.721,2076.018 A1680.000,1680.000 0.000 0,0 324.994,2129.438 Z" style="stroke-width:2.0;stroke:rgb(255,255,255);stroke-linecap:round;fill:rgb(220,140,52);" />
<text x="256.9" y="2119.3" font-size="36.4px" font-family="CMUBright-Roman" style="text-anchor:end;fill:rgb(0,0,0);" transform="rotate(-3.5,256.9,2119.3)" >Humanities-Liberal-Arts</text>
<path d="M362.881,2126.510 A1642.000,1642.000 40.000 0,1 359.682,2074.299 L321.721,2076.018 A1680.000,1680.000 0.000 0,0 324.994,2129.438 Z" style="stroke-width:2.0;stroke:rgb(255,255,255);stroke-linecap:round;fill:none;" />
<path d="M358.451,2038.498 A1642.000,1642.000 40.000 0,1 358.158,2022.807 L320.162,2023.335 A1680.000,1680.000 0.000 0,0 320.462,2039.389 Z" style="stroke-width:2.0;stroke:rgb(255,255,255);stroke-linecap:round;fill:rgb(235,168,78);" />
<text x="253.4" y="2045.1" font-size="36.4px" font-family="CMUBright-Roman" style="text-anchor:end;fill:rgb(0,0,0);" transform="rotate(-1.1,253.4,2045.1)" >International-Studies</text>
<path d="M358.451,2038.498 A1642.000,1642.000 40.000 0,1 358.158,2022.807 L320.162,2023.335 A1680.000,1680.000 0.000 0,0 320.462,2039.389 Z" style="stroke-width:2.0;stroke:rgb(255,255,255);stroke-linecap:round;fill:none;" />
<path d="M358.052,1986.985 A1642.000,1642.000 40.000 0,1 367.336,1825.152 L329.552,1821.105 A1680.000,1680.000 0.000 0,0 320.053,1986.684 Z" style="stroke-width:2.0;stroke:rgb(255,255,255);stroke-linecap:round;fill:rgb(175,35,42);" />
<text x="255.0" y="1912.4" font-size="36.4px" font-family="CMUBright-Roman" style="text-anchor:end;fill:rgb(0,0,0);" transform="rotate(3.3,255.0,1912.4)" >Teacher-Education</text>
<path d="M358.052,1986.985 A1642.000,1642.000 40.000 0,1 367.336,1825.152 L329.552,1821.105 A1680.000,1680.000 0.000 0,0 320.053,1986.684 Z" style="stroke-width:2.0;stroke:rgb(255,255,255);stroke-linecap:round;fill:none;" />
<path d="M371.539,1789.577 A1642.000,1642.000 40.000 0,1 376.636,1753.316 L339.067,1747.607 A1680.000,1680.000 0.000 0,0 333.852,1784.707 Z" style="stroke-width:2.0;stroke:rgb(255,255,255);stroke-linecap:round;fill:rgb(195,58,55);" />
<text x="268.1" y="1769.2" font-size="36.4px" font-family="CMUBright-Roman" style="text-anchor:end;fill:rgb(0,0,0);" transform="rotate(8.0,268.1,1769.2)" >Social-Work</text>
<path d="M371.539,1789.577 A1642.000,1642.000 40.000 0,1 376.636,1753.316 L339.067,1747.607 A1680.000,1680.000 0.000 0,0 333.852,1784.707 Z" style="stroke-width:2.0;stroke:rgb(255,255,255);stroke-linecap:round;fill:none;" />
<path d="M382.404,1717.961 A1642.000,1642.000 40.000 0,1 388.090,1687.094 L350.786,1679.853 A1680.000,1680.000 0.000 0,0 344.968,1711.434 Z" style="stroke-width:2.0;stroke:rgb(255,255,255);stroke-linecap:round;fill:rgb(215,82,72);" />
<text x="279.0" y="1698.7" font-size="36.4px" font-family="CMUBright-Roman" style="text-anchor:end;fill:rgb(0,0,0);" transform="rotate(10.4,279.0,1698.7)" >Special-Education</text>
<path d="M382.404,1717.961 A1642.000,1642.000 40.000 0,1 388.090,1687.094 L350.786,1679.853 A1680.000,1680.000 0.000 0,0 344.968,1711.434 Z" style="stroke-width:2.0;stroke:rgb(255,255,255);stroke-linecap:round;fill:none;" />
<path d="M395.300,1652.005 A1642.000,1642.000 40.000 0,1 396.416,1646.895 L359.305,1638.723 A1680.000,1680.000 0.000 0,0 358.163,1643.952 Z" style="stroke-width:2.0;stroke:rgb(255,255,255);stroke-linecap:round;fill:rgb(230,112,95);" />
<text x="289.8" y="1642.1" font-size="36.4px" font-family="CMUBright-Roman" style="text-anchor:end;fill:rgb(0,0,0);" transform="rotate(12.3,289.8,1642.1)" >Educational-Leadership</text>
<path d="M395.300,1652.005 A1642.000,1642.000 40.000 0,1 396.416,1646.895 L359.305,1638.723 A1680.000,1680.000 0.000 0,0 358.163,1643.952 Z" style="stroke-width:2.0;stroke:rgb(255,255,255);stroke-linecap:round;fill:none;" />
<path d="M404.501,1611.997 A1642.000,1642.000 40.000 0,1 423.388,1541.244 L386.901,1530.627 A1680.000,1680.000 0.000 0,0 367.577,1603.017 Z" style="stroke-width:2.0;stroke:rgb(255,255,255);stroke-linecap:round;fill:rgb(0,130,142);" />
<text x="308.7" y="1561.5" font-size="36.4px" font-family="CMUBright-Roman" style="text-anchor:end;fill:rgb(0,0,0);" transform="rotate(14.9,308.7,1561.5)" >Communication-Studies</text>
<path d="M404.501,1611.997 A1642.000,1642.000 40.000 0,1 423.388,1541.244 L386.901,1530.627 A1680.000,1680.000 0.000 0,0 367.577,1603.017 Z" style="stroke-width:2.0;stroke:rgb(255,255,255);stroke-linecap:round;fill:none;" />
<path d="M433.770,1506.960 A1642.000,1642.000 40.000 0,1 448.549,1462.261 L412.644,1449.816 A1680.000,1680.000 0.000 0,0 397.524,1495.549 Z" style="stroke-width:2.0;stroke:rgb(255,255,255);stroke-linecap:round;fill:rgb(0,165,172);" />
<text x="337.2" y="1463.4" font-size="36.4px" font-family="CMUBright-Roman" style="text-anchor:end;fill:rgb(0,0,0);" transform="rotate(18.3,337.2,1463.4)" >Journalism-Media</text>
<path d="M433.770,1506.960 A1642.000,1642.000 40.000 0,1 448.549,1462.261 L412.644,1449.816 A1680.000,1680.000 0.000 0,0 397.524,1495.549 Z" style="stroke-width:2.0;stroke:rgb(255,255,255);stroke-linecap:round;fill:none;" />
<path d="M460.649,1428.544 A1642.000,1642.000 40.000 0,1 466.181,1413.858 L430.684,1400.293 A1680.000,1680.000 0.000 0,0 425.024,1415.319 Z" style="stroke-width:2.0;stroke:rgb(255,255,255);stroke-linecap:round;fill:rgb(38,195,195);" />
<text x="359.4" y="1399.1" font-size="36.4px" font-family="CMUBright-Roman" style="text-anchor:end;fill:rgb(0,0,0);" transform="rotate(20.6,359.4,1399.1)" >Creative-Writing</text>
<path d="M460.649,1428.544 A1642.000,1642.000 40.000 0,1 466.181,1413.858 L430.684,1400.293 A1680.000,1680.000 0.000 0,0 425.024,1415.319 Z" style="stroke-width:2.0;stroke:rgb(255,255,255);stroke-linecap:round;fill:none;" />
<path d="M479.332,1380.537 A1642.000,1642.000 40.000 0,1 510.660,1308.603 L476.193,1292.602 A1680.000,1680.000 0.000 0,0 444.140,1366.201 Z" style="stroke-width:2.0;stroke:rgb(255,255,255);stroke-linecap:round;fill:rgb(180,45,112);" />
<text x="391.8" y="1317.1" font-size="36.4px" font-family="CMUBright-Roman" style="text-anchor:end;fill:rgb(0,0,0);" transform="rotate(23.5,391.8,1317.1)" >Arts-Theology</text>
<path d="M479.332,1380.537 A1642.000,1642.000 40.000 0,1 510.660,1308.603 L476.193,1292.602 A1680.000,1680.000 0.000 0,0 444.140,1366.201 Z" style="stroke-width:2.0;stroke:rgb(255,255,255);stroke-linecap:round;fill:none;" />
<path d="M526.097,1276.278 A1642.000,1642.000 40.000 0,1 530.738,1266.901 L496.736,1249.936 A1680.000,1680.000 0.000 0,0 491.987,1259.529 Z" style="stroke-width:2.0;stroke:rgb(255,255,255);stroke-linecap:round;fill:rgb(205,75,142);" />
<text x="427.1" y="1239.3" font-size="36.4px" font-family="CMUBright-Roman" style="text-anchor:end;fill:rgb(0,0,0);" transform="rotate(26.3,427.1,1239.3)" >English-Writing</text>
<path d="M526.097,1276.278 A1642.000,1642.000 40.000 0,1 530.738,1266.901 L496.736,1249.936 A1680.000,1680.000 0.000 0,0 491.987,1259.529 Z" style="stroke-width:2.0;stroke:rgb(255,255,255);stroke-linecap:round;fill:none;" />
<path d="M547.080,1235.024 A1642.000,1642.000 40.000 0,1 549.525,1230.399 L515.957,1212.589 A1680.000,1680.000 0.000 0,0 513.456,1217.321 Z" style="stroke-width:2.0;stroke:rgb(255,255,255);stroke-linecap:round;fill:rgb(225,110,168);" />
<text x="447.9" y="1197.7" font-size="36.4px" font-family="CMUBright-Roman" style="text-anchor:end;fill:rgb(0,0,0);" transform="rotate(27.9,447.9,1197.7)" >Languages</text>
<path d="M547.080,1235.024 A1642.000,1642.000 40.000 0,1 549.525,1230.399 L515.957,1212.589 A1680.000,1680.000 0.000 0,0 513.456,1217.321 Z" style="stroke-width:2.0;stroke:rgb(255,255,255);stroke-linecap:round;fill:none;" />
<path d="M566.659,1198.940 A1642.000,1642.000 40.000 0,1 748.337,937.219 L719.370,912.624 A1680.000,1680.000 0.000 0,0 533.488,1180.402 Z" style="stroke-width:2.0;stroke:rgb(255,255,255);stroke-linecap:round;fill:rgb(88,40,138);" />
<text x="555.7" y="1016.9" font-size="36.4px" font-family="CMUBright-Roman" style="text-anchor:end;fill:rgb(0,0,0);" transform="rotate(34.8,555.7,1016.9)" >Biological-Sciences</text>
<path d="M566.659,1198.940 A1642.000,1642.000 40.000 0,1 748.337,937.219 L719.370,912.624 A1680.000,1680.000 0.000 0,0 533.488,1180.402 Z" style="stroke-width:2.0;stroke:rgb(255,255,255);stroke-linecap:round;fill:none;" />
<path d="M771.819,910.167 A1642.000,1642.000 40.000 0,1 821.633,856.490 L794.362,830.027 A1680.000,1680.000 0.000 0,0 743.396,884.946 Z" style="stroke-width:2.0;stroke:rgb(255,255,255);stroke-linecap:round;fill:rgb(115,65,165);" />
<text x="710.8" y="820.7" font-size="36.4px" font-family="CMUBright-Roman" style="text-anchor:end;fill:rgb(0,0,0);" transform="rotate(42.9,710.8,820.7)" >Health-Wellness</text>
<path d="M771.819,910.167 A1642.000,1642.000 40.000 0,1 821.633,856.490 L794.362,830.027 A1680.000,1680.000 0.000 0,0 743.396,884.946 Z" style="stroke-width:2.0;stroke:rgb(255,255,255);stroke-linecap:round;fill:none;" />
<path d="M846.858,831.057 A1642.000,1642.000 40.000 0,1 873.212,805.633 L847.135,777.993 A1680.000,1680.000 0.000 0,0 820.172,804.004 Z" style="stroke-width:2.0;stroke:rgb(255,255,255);stroke-linecap:round;fill:rgb(140,92,188);" />
<text x="775.8" y="753.4" font-size="36.4px" font-family="CMUBright-Roman" style="text-anchor:end;fill:rgb(0,0,0);" transform="rotate(46.0,775.8,753.4)" >Physical-Sciences</text>
<path d="M846.858,831.057 A1642.000,1642.000 40.000 0,1 873.212,805.633 L847.135,777.993 A1680.000,1680.000 0.000 0,0 820.172,804.004 Z" style="stroke-width:2.0;stroke:rgb(255,255,255);stroke-linecap:round;fill:none;" />
<path d="M899.535,781.337 A1642.000,1642.000 40.000 0,1 903.423,777.837 L878.045,749.553 A1680.000,1680.000 0.000 0,0 874.067,753.134 Z" style="stroke-width:2.0;stroke:rgb(255,255,255);stroke-linecap:round;fill:rgb(165,120,208);" />
<text x="821.8" y="709.8" font-size="36.4px" font-family="CMUBright-Roman" style="text-anchor:end;fill:rgb(0,0,0);" transform="rotate(48.0,821.8,709.8)" >Environmental-Sciences</text>
<path d="M899.535,781.337 A1642.000,1642.000 40.000 0,1 903.423,777.837 L878.045,749.553 A1680.000,1680.000 0.000 0,0 874.067,753.134 Z" style="stroke-width:2.0;stroke:rgb(255,255,255);stroke-linecap:round;fill:none;" />
<path d="M930.345,754.206 A1642.000,1642.000 40.000 0,1 1638.399,398.311 L1630.030,361.244 A1680.000,1680.000 0.000 0,0 905.590,725.375 Z" style="stroke-width:2.0;stroke:rgb(255,255,255);stroke-linecap:round;fill:rgb(22,118,50);" />
<text x="1201.1" y="446.2" font-size="36.4px" font-family="CMUBright-Roman" style="text-anchor:end;fill:rgb(0,0,0);" transform="rotate(63.3,1201.1,446.2)" >Engineering-Disciplines</text>
<path d="M930.345,754.206 A1642.000,1642.000 40.000 0,1 1638.399,398.311 L1630.030,361.244 A1680.000,1680.000 0.000 0,0 905.590,725.375 Z" style="stroke-width:2.0;stroke:rgb(255,255,255);stroke-linecap:round;fill:none;" />
<path d="M1673.425,390.804 A1642.000,1642.000 40.000 0,1 1964.180,358.391 L1963.351,320.400 A1680.000,1680.000 0.000 0,0 1665.867,353.563 Z" style="stroke-width:2.0;stroke:rgb(255,255,255);stroke-linecap:round;fill:rgb(48,158,75);" />
<text x="1791.0" y="265.3" font-size="36.4px" font-family="CMUBright-Roman" style="text-anchor:end;fill:rgb(0,0,0);" transform="rotate(83.6,1791.0,265.3)" >Computer-Science-IT</text>
<path d="M1673.425,390.804 A1642.000,1642.000 40.000 0,1 1964.180,358.391 L1963.351,320.400 A1680.000,1680.000 0.000 0,0 1665.867,353.563 Z" style="stroke-width:2.0;stroke:rgb(255,255,255);stroke-linecap:round;fill:none;" />
</g>
<g id="track_0">
<path d="M 2212.181,3611.673 A 1625.580,1625.580 0.00 0,1 2207.0,3612.3 L 2207.0,3612.3 2200.4,3559.7 2194.1,3507.5 2188.1,3456.0 2182.6,3405.6 2177.5,3356.7 2173.0,3309.5 2169.0,3264.4 2165.6,3221.6 2162.8,3181.3 2160.6,3143.9 2159.2,3109.6 2158.4,3078.5 2158.4,3050.7 2159.1,3026.5 2160.5,3006.0 2162.7,2989.3 2165.7,2976.4 2169.4,2967.5 2173.8,2962.5 2179.0,2961.6 2185.0,2964.6 2191.6,2971.7 2198.9,2982.6 2206.9,2997.5 2215.6,3016.2 2224.8,3038.5 2234.6,3064.5 2245.0,3093.9 2255.8,3126.5 2267.1,3162.2 2278.7,3200.8 2290.7,3242.0 2303.0,3285.6 2315.5,3331.4 2328.1,3378.9 2340.8,3428.0 2353.5,3478.3 2366.1,3529.3 2378.6,3580.9  A 1625.580,1625.580 0.00 0,1 2373.6,3582.1 L 2373.6,3582.1 2361.3,3530.5 2348.8,3479.4 2336.3,3429.1 2323.8,3380.0 2311.4,3332.4 2299.2,3286.6 2287.1,3242.9 2275.4,3201.6 2264.0,3163.0 2253.0,3127.2 2242.4,3094.5 2232.4,3065.1 2222.9,3039.1 2213.9,3016.7 2205.6,2997.9 2197.9,2983.0 2190.9,2972.0 2184.5,2964.9 2178.9,2961.8 2174.0,2962.7 2169.9,2967.6 2166.5,2976.4 2163.8,2989.3 2161.9,3005.9 2160.8,3026.4 2160.4,3050.5 2160.7,3078.2 2161.7,3109.3 2163.5,3143.6 2165.9,3181.0 2168.9,3221.1 2172.6,3263.9 2176.9,3309.0 2181.7,3356.2 2187.0,3405.1 2192.7,3455.4 2198.9,3506.9 2205.4,3559.1 2212.2,3611.7  Z" style="stroke-width: 0.0;  fill: rgb(15,52,135);" />
<path d="M 2207.045,3612.341 A 1625.580,1625.580 0.00 0,1 2176.2,3616.0 L 2176.2,3616.0 2171.0,3562.4 2167.1,3508.8 2164.5,3455.7 2163.4,3403.3 2163.8,3351.9 2165.7,3301.9 2169.3,3253.5 2174.4,3207.1 2181.3,3162.7 2189.8,3120.7 2200.0,3081.3 2211.9,3044.6 2225.5,3010.9 2240.8,2980.2 2257.8,2952.7 2276.4,2928.5 2296.7,2907.7 2318.5,2890.5 2341.9,2876.7 2366.8,2866.6 2393.2,2860.1 2420.9,2857.2 2449.9,2858.0 2480.1,2862.3 2511.5,2870.1 2543.8,2881.4 2577.1,2896.1 2611.3,2914.1 2646.1,2935.2 2681.5,2959.4 2717.3,2986.4 2753.4,3016.0 2789.7,3048.2 2826.0,3082.7 2862.1,3119.2 2897.9,3157.5 2933.2,3197.4 2967.7,3238.5 3001.4,3280.5  A 1625.580,1625.580 0.00 0,1 2976.8,3299.4 L 2976.8,3299.4 2944.0,3256.8 2910.4,3215.1 2876.2,3174.6 2841.5,3135.6 2806.5,3098.4 2771.4,3063.2 2736.4,3030.2 2701.6,2999.8 2667.1,2972.0 2633.1,2947.1 2599.7,2925.1 2567.1,2906.4 2535.3,2890.9 2504.5,2878.8 2474.7,2870.2 2446.1,2865.2 2418.7,2863.7 2392.6,2865.9 2367.9,2871.7 2344.7,2881.1 2323.0,2894.2 2302.8,2910.8 2284.2,2931.0 2267.2,2954.6 2251.9,2981.5 2238.2,3011.7 2226.2,3045.0 2215.9,3081.2 2207.3,3120.2 2200.4,3161.7 2195.1,3205.7 2191.4,3251.8 2189.3,3299.9 2188.7,3349.5 2189.6,3400.6 2192.0,3452.7 2195.7,3505.6 2200.8,3559.0 2207.0,3612.3  Z" style="stroke-width: 0.0;  fill: rgb(15,52,135);" />
<path d="M 2176.189,3616.004 A 1625.580,1625.580 0.00 0,1 2155.6,3618.1 L 2155.6,3618.1 2151.3,3562.7 2148.9,3506.9 2148.7,3451.0 2150.6,3395.3 2154.8,3340.1 2161.1,3285.7 2169.8,3232.3 2180.8,3180.0 2194.1,3129.2 2209.7,3080.1 2227.7,3032.7 2248.1,2987.4 2270.7,2944.2 2295.7,2903.4 2322.9,2865.0 2352.3,2829.2 2383.9,2796.0 2417.7,2765.7 2453.4,2738.2 2491.2,2713.7 2530.8,2692.1 2572.2,2673.5 2615.3,2658.1 2660.0,2645.7 2706.1,2636.3 2753.6,2630.1 2802.2,2626.9 2851.9,2626.6 2902.5,2629.4 2953.7,2635.0 3005.6,2643.4 3057.8,2654.5 3110.1,2668.3 3162.5,2684.5 3214.6,2703.1 3266.3,2723.9 3317.3,2746.7 3367.4,2771.4 3416.3,2797.9  A 1625.580,1625.580 0.00 0,1 3406.0,2815.8 L 3406.0,2815.8 3357.6,2788.8 3308.0,2763.5 3257.5,2740.0 3206.3,2718.6 3154.8,2699.3 3103.0,2682.4 3051.3,2667.9 2999.7,2656.1 2948.5,2646.9 2897.9,2640.6 2848.1,2637.1 2799.1,2636.6 2751.2,2639.1 2704.6,2644.7 2659.3,2653.3 2615.4,2665.1 2573.2,2679.9 2532.6,2697.8 2493.9,2718.8 2457.0,2742.7 2422.2,2769.7 2389.4,2799.5 2358.7,2832.1 2330.2,2867.4 2303.9,2905.4 2279.9,2945.8 2258.3,2988.5 2238.9,3033.5 2221.8,3080.5 2207.1,3129.3 2194.8,3179.8 2184.7,3231.7 2176.9,3284.9 2171.4,3339.1 2168.2,3394.0 2167.1,3449.5 2168.1,3505.1 2171.2,3560.8 2176.2,3616.0  Z" style="stroke-width: 0.0;  fill: rgb(15,52,135);" />
<path d="M 2155.582,3618.118 A 1625.580,1625.580 0.00 0,1 1845.3,3618.2 L 1845.3,3618.2 1852.1,3560.1 1861.6,3501.6 1873.6,3442.9 1888.3,3384.2 1905.6,3325.7 1925.4,3267.6 1947.8,3210.1 1972.8,3153.4 2000.2,3097.7 2030.2,3043.2 2062.5,2989.9 2097.2,2938.2 2134.2,2888.0 2173.4,2839.6 2214.9,2793.0 2258.4,2748.4 2303.9,2705.9 2351.4,2665.6 2400.7,2627.5 2451.7,2591.9 2504.3,2558.7 2558.5,2527.9 2614.0,2499.8 2670.9,2474.2 2728.8,2451.3 2787.8,2431.1 2847.7,2413.6 2908.2,2398.8 2969.3,2386.8 3030.8,2377.4 3092.6,2370.8 3154.4,2366.8 3216.0,2365.5 3277.4,2366.8 3338.3,2370.7 3398.5,2377.1 3457.8,2386.0 3516.0,2397.2 3572.8,2410.8  A 1625.580,1625.580 0.00 0,1 3466.1,2702.1 L 3466.1,2702.1 3415.2,2678.9 3363.1,2657.5 3310.2,2638.1 3256.5,2620.8 3202.4,2605.8 3148.2,2593.2 3093.9,2583.1 3039.8,2575.7 2986.1,2571.0 2933.0,2569.0 2880.6,2569.9 2829.1,2573.7 2778.7,2580.5 2729.6,2590.2 2681.8,2602.9 2635.5,2618.6 2590.8,2637.2 2547.9,2658.8 2506.8,2683.3 2467.6,2710.7 2430.5,2740.9 2395.4,2773.8 2362.6,2809.3 2331.9,2847.4 2303.6,2887.9 2277.6,2930.8 2253.9,2975.8 2232.7,3022.8 2213.8,3071.7 2197.4,3122.2 2183.4,3174.3 2171.8,3227.6 2162.6,3282.1 2155.8,3337.4 2151.3,3393.3 2149.0,3449.6 2149.1,3506.0 2151.3,3562.3 2155.6,3618.1  Z" style="stroke-width: 0.0;  fill: rgb(15,52,135);" />
<path d="M 1845.325,3618.205 A 1625.580,1625.580 0.00 0,1 1799.0,3613.1 L 1799.0,3613.1 1807.9,3552.9 1819.5,3492.0 1833.9,3430.5 1851.1,3368.7 1871.0,3306.7 1893.5,3244.7 1918.6,3182.7 1946.4,3121.1 1976.6,3059.9 2009.3,2999.2 2044.4,2939.3 2081.9,2880.2 2121.6,2822.1 2163.5,2765.1 2207.5,2709.2 2253.6,2654.8 2301.6,2601.7 2351.4,2550.2 2403.1,2500.4 2456.4,2452.3 2511.3,2406.0 2567.6,2361.7 2625.3,2319.4 2684.2,2279.1 2744.3,2241.1 2805.3,2205.2 2867.2,2171.7 2929.8,2140.5 2993.0,2111.7 3056.7,2085.4 3120.7,2061.6 3184.8,2040.4 3249.0,2021.7 3313.0,2005.7 3376.8,1992.3 3440.0,1981.5 3502.6,1973.5 3564.4,1968.1 3625.2,1965.5  A 1625.580,1625.580 0.00 0,1 3625.5,2012.1 L 3625.5,2012.1 3565.2,2013.0 3503.8,2016.5 3441.6,2022.8 3378.7,2031.7 3315.4,2043.2 3251.9,2057.5 3188.2,2074.3 3124.5,2093.8 3061.1,2115.8 2998.0,2140.4 2935.4,2167.4 2873.5,2197.0 2812.3,2228.9 2752.1,2263.2 2693.0,2299.9 2635.0,2338.7 2578.3,2379.7 2523.1,2422.8 2469.3,2467.8 2417.2,2514.8 2366.9,2563.7 2318.4,2614.2 2271.8,2666.4 2227.2,2720.1 2184.7,2775.1 2144.4,2831.5 2106.4,2889.1 2070.6,2947.6 2037.3,3007.1 2006.4,3067.3 1977.9,3128.2 1952.1,3189.5 1928.8,3251.2 1908.1,3312.9 1890.1,3374.7 1874.8,3436.3 1862.2,3497.5 1852.4,3558.2 1845.3,3618.2  Z" style="stroke-width: 0.0;  fill: rgb(15,52,135);" />
<path d="M 1798.997,3613.105 A 1625.580,1625.580 0.00 0,1 1793.9,3612.5 L 1793.9,3612.5 1803.2,3549.8 1815.4,3486.2 1830.2,3421.7 1847.8,3356.5 1867.9,3290.7 1890.7,3224.4 1915.8,3157.8 1943.4,3090.9 1973.4,3024.0 2005.6,2957.1 2040.0,2890.3 2076.5,2823.8 2115.1,2757.6 2155.7,2692.0 2198.1,2626.9 2242.4,2562.6 2288.4,2499.1 2336.1,2436.5 2385.3,2375.0 2436.0,2314.6 2488.1,2255.5 2541.5,2197.7 2596.1,2141.4 2651.8,2086.6 2708.5,2033.6 2766.1,1982.3 2824.6,1932.8 2883.8,1885.3 2943.6,1839.8 3003.9,1796.5 3064.7,1755.5 3125.8,1716.7 3187.0,1680.4 3248.3,1646.6 3309.7,1615.3 3370.9,1586.7 3431.8,1560.9 3492.4,1538.0 3552.4,1517.9  A 1625.580,1625.580 0.00 0,1 3554.0,1522.8 L 3554.0,1522.8 3493.9,1542.7 3433.3,1565.5 3372.4,1591.1 3311.2,1619.4 3249.8,1650.5 3188.5,1684.1 3127.2,1720.2 3066.1,1758.8 3005.4,1799.7 2945.1,1842.8 2885.3,1888.1 2826.1,1935.4 2767.6,1984.7 2710.0,2035.9 2653.3,2088.8 2597.7,2143.4 2543.2,2199.6 2489.8,2257.2 2437.8,2316.2 2387.2,2376.5 2338.1,2437.9 2290.6,2500.4 2244.7,2563.9 2200.5,2628.1 2158.2,2693.1 2117.8,2758.7 2079.3,2824.8 2043.0,2891.3 2008.7,2958.0 1976.7,3024.9 1947.0,3091.8 1919.5,3158.6 1894.6,3225.2 1872.1,3291.4 1852.1,3357.2 1834.8,3422.4 1820.1,3486.9 1808.1,3550.5 1799.0,3613.1  Z" style="stroke-width: 0.0;  fill: rgb(15,52,135);" />
<path d="M 1793.859,3612.457 A 1625.580,1625.580 0.00 0,1 1778.5,3610.4 L 1778.5,3610.4 1788.8,3544.5 1801.6,3477.3 1817.0,3408.9 1834.7,3339.6 1854.6,3269.2 1876.7,3198.0 1900.8,3126.0 1926.9,3053.3 1954.9,2979.9 1984.6,2906.1 2016.0,2831.9 2049.0,2757.3 2083.5,2682.5 2119.4,2607.5 2156.6,2532.6 2195.2,2457.7 2234.9,2383.0 2275.7,2308.6 2317.6,2234.6 2360.5,2161.1 2404.3,2088.2 2449.0,2016.1 2494.5,1944.7 2540.7,1874.3 2587.7,1805.0 2635.2,1736.9 2683.4,1670.1 2732.1,1604.7 2781.3,1540.8 2831.0,1478.6 2881.0,1418.2 2931.5,1359.7 2982.3,1303.3 3033.5,1249.0 3084.9,1197.0 3136.6,1147.5 3188.5,1100.5 3240.7,1056.3 3293.1,1014.9  A 1625.580,1625.580 0.00 0,1 3302.4,1027.3 L 3302.4,1027.3 3249.8,1068.1 3197.4,1111.7 3145.2,1158.1 3093.3,1207.1 3041.6,1258.5 2990.2,1312.3 2939.2,1368.2 2888.5,1426.2 2838.2,1486.1 2788.3,1547.9 2739.0,1611.3 2690.1,1676.3 2641.9,1742.8 2594.2,1810.5 2547.3,1879.5 2501.0,1949.6 2455.6,2020.6 2410.9,2092.5 2367.2,2165.2 2324.5,2238.5 2282.7,2312.3 2242.1,2386.5 2202.6,2461.0 2164.3,2535.7 2127.4,2610.6 2091.8,2685.4 2057.7,2760.1 2025.1,2834.6 1994.2,2908.8 1965.0,2982.5 1937.5,3055.8 1912.0,3128.5 1888.4,3200.4 1866.9,3271.6 1847.5,3341.9 1830.5,3411.2 1815.8,3479.5 1803.5,3546.6 1793.9,3612.5  Z" style="stroke-width: 0.0;  fill: rgb(15,52,135);" />
<path d="M 1778.457,3610.413 A 1625.580,1625.580 0.00 0,1 1257.4,3446.1 L 1257.4,3446.1 1292.1,3380.1 1328.5,3313.4 1366.5,3246.1 1405.7,3178.0 1446.1,3109.2 1487.4,3039.7 1529.5,2969.4 1572.2,2898.3 1615.3,2826.5 1658.8,2754.0 1702.3,2680.8 1745.9,2606.8 1789.4,2532.2 1832.7,2456.9 1875.8,2381.0 1918.4,2304.5 1960.6,2227.5 2002.3,2150.0 2043.4,2072.1 2083.9,1993.8 2123.8,1915.2 2162.9,1836.5 2201.4,1757.5 2239.2,1678.5 2276.3,1599.6 2312.8,1520.7 2348.6,1442.1 2383.8,1363.8 2418.4,1285.9 2452.5,1208.6 2486.2,1131.9 2519.6,1056.0 2552.6,981.1 2585.5,907.2 2618.3,834.5 2651.2,763.1 2684.3,693.2 2717.6,625.0 2751.5,558.6  A 1625.580,1625.580 0.00 0,1 3186.6,888.9 L 3186.6,888.9 3138.0,936.1 3089.7,986.0 3041.8,1038.5 2994.3,1093.5 2947.1,1150.8 2900.3,1210.3 2853.8,1271.8 2807.8,1335.2 2762.1,1400.4 2716.8,1467.3 2671.9,1535.7 2627.5,1605.5 2583.5,1676.5 2540.1,1748.7 2497.1,1822.0 2454.7,1896.1 2413.0,1971.1 2371.9,2046.7 2331.4,2122.9 2291.8,2199.6 2252.9,2276.6 2214.9,2353.8 2177.9,2431.2 2141.8,2508.6 2106.8,2586.0 2073.0,2663.2 2040.4,2740.1 2009.1,2816.7 1979.2,2892.8 1950.8,2968.4 1923.9,3043.4 1898.8,3117.6 1875.4,3191.1 1853.8,3263.6 1834.3,3335.2 1816.9,3405.8 1801.7,3475.2 1788.9,3543.5 1778.5,3610.4  Z" style="stroke-width: 0.0;  fill: rgb(15,52,135);" />
<path d="M 1257.414,3446.055 A 1625.580,1625.580 0.00 0,1 1252.8,3443.7 L 1252.8,3443.7 1284.0,3381.2 1314.1,3316.4 1343.2,3249.4 1371.5,3180.2 1399.1,3109.2 1425.9,3036.3 1452.1,2961.7 1477.6,2885.5 1502.7,2807.9 1527.3,2729.0 1551.4,2649.0 1575.1,2567.8 1598.5,2485.7 1621.4,2402.8 1644.0,2319.2 1666.3,2234.9 1688.2,2150.2 1709.8,2065.1 1731.0,1979.8 1751.8,1894.3 1772.2,1808.8 1792.1,1723.3 1811.6,1638.0 1830.6,1552.9 1848.9,1468.3 1866.6,1384.1 1883.7,1300.4 1899.9,1217.5 1915.3,1135.3 1929.7,1053.9 1943.1,973.5 1955.4,894.1 1966.4,815.8 1976.1,738.7 1984.3,663.0 1991.0,588.6 1995.9,515.6 1998.9,444.2 2000.0,374.4  A 1625.580,1625.580 0.00 0,1 2005.2,374.4 L 2005.2,374.4 2003.9,444.3 2000.6,515.7 1995.5,588.7 1988.7,663.2 1980.3,739.0 1970.4,816.1 1959.2,894.4 1946.7,973.8 1933.2,1054.3 1918.6,1135.6 1903.1,1217.9 1886.7,1300.9 1869.6,1384.5 1851.8,1468.7 1833.3,1553.4 1814.3,1638.5 1794.8,1723.8 1774.8,1809.3 1754.4,1894.9 1733.6,1980.4 1712.4,2065.8 1690.8,2150.9 1668.9,2235.7 1646.7,2320.0 1624.2,2403.7 1601.3,2486.7 1578.0,2568.8 1554.4,2650.1 1530.4,2730.2 1505.9,2809.2 1481.0,2886.9 1455.6,2963.1 1429.5,3037.8 1402.9,3110.8 1375.5,3182.0 1347.3,3251.3 1318.3,3318.5 1288.4,3383.4 1257.4,3446.1  Z" style="stroke-width: 0.0;  fill: rgb(15,52,135);" />
</g>
<defs>
<pattern id="hline-sparse" width="10" height="10" patternTransform="rotate(0 0 0)" patternUnits="userSpaceOnUse"><line x1="0" y1="0" x2="10" y2="0" style="stroke:black;stroke-width:2" /></pattern>
<pattern id="hline" width="10" height="10" patternTransform="rotate(0 0 0)" patternUnits="userSpaceOnUse"><line x1="0" y1="0" x2="10" y2="0" style="stroke:black;stroke-width:5" /></pattern>
<pattern id="checker" width="10" height="10" patternTransform="rotate(45 0 0)" patternUnits="userSpaceOnUse"><line x1="0" y1="0" x2="10" y2="0" style="stroke:black;stroke-width:5" /><line x1="0" y1="0" x2="0" y2="10" style="stroke:black;stroke-width:4" /></pattern>
<pattern id="vline" width="10" height="10" patternTransform="rotate(0 0 0)" patternUnits="userSpaceOnUse"><line x1="0" y1="0" x2="0" y2="10" style="stroke:black;stroke-width:5" /></pattern>
<pattern id="vline-sparse" width="10" height="10" patternTransform="rotate(0 0 0)" patternUnits="userSpaceOnUse"><line x1="0" y1="0" x2="0" y2="10" style="stroke:black;stroke-width:2" /></pattern>
<pattern id="checker" width="10" height="10" patternTransform="rotate(45 0 0)" patternUnits="userSpaceOnUse"><line x1="0" y1="0" x2="10" y2="0" style="stroke:black;stroke-width:2" /><line x1="0" y1="0" x2="0" y2="10" style="stroke:black;stroke-width:2" /></pattern>
</defs>
</svg>
