<?xml version="1.0" encoding="utf-8" standalone="no"?>
<!DOCTYPE svg PUBLIC "-//W3C//DTD SVG 1.1//EN" "http://www.w3.org/Graphics/SVG/1.1/DTD/svg11.dtd">
<svg width="4000px" height="4000px" version="1.1" xmlns="http://www.w3.org/2000/svg" xmlns:xlink="http://www.w3.org/1999/xlink">
<g id="bg">
<rect x="0" y="0" width="4000px" height="4000px" style="fill:rgb(255,255,255);"/>
</g>
<g id="ideograms">
<path d="M2000.000,358.000 A1642.000,1642.000 40.000 0,1 2751.610,540.121 L2769.004,506.336 A1680.000,1680.000 0.000 0,0 2000.000,320.000 Z" style="stroke-width:2.0;stroke:rgb(255,255,255);stroke-linecap:round;fill:rgb(185,185,185);" />
<text x="2427.0" y="305.8" font-size="36.4px" font-family="CMUBright-Roman" style="text-anchor:start;fill:rgb(0,0,0);" transform="rotate(283.6,2427.0,305.8)" >Management-Operations</text>
<path d="M2000.000,358.000 A1642.000,1642.000 40.000 0,1 2751.610,540.121 L2769.004,506.336 A1680.000,1680.000 0.000 0,0 2000.000,320.000 Z" style="stroke-width:2.0;stroke:rgb(255,255,255);stroke-linecap:round;fill:none;" />
<path d="M2783.279,556.865 A1642.000,1642.000 40.000 0,1 3226.411,908.176 L3254.793,882.908 A1680.000,1680.000 0.000 0,0 2801.406,523.467 Z" style="stroke-width:2.0;stroke:rgb(255,255,255);stroke-linecap:round;fill:rgb(185,185,185);" />
<text x="3097.5" y="640.5" font-size="36.4px" font-family="CMUBright-Roman" style="text-anchor:start;fill:rgb(0,0,0);" transform="rotate(308.4,3097.5,640.5)" >Engineering</text>
<path d="M2783.279,556.865 A1642.000,1642.000 40.000 0,1 3226.411,908.176 L3254.793,882.908 A1680.000,1680.000 0.000 0,0 2801.406,523.467 Z" style="stroke-width:2.0;stroke:rgb(255,255,255);stroke-linecap:round;fill:none;" />
<path d="M3249.937,935.189 A1642.000,1642.000 40.000 0,1 3507.538,1349.236 L3542.426,1334.176 A1680.000,1680.000 0.000 0,0 3278.864,910.547 Z" style="stroke-width:2.0;stroke:rgb(255,255,255);stroke-linecap:round;fill:rgb(185,185,185);" />
<text x="3491.6" y="1090.2" font-size="36.4px" font-family="CMUBright-Roman" style="text-anchor:start;fill:rgb(0,0,0);" transform="rotate(328.1,3491.6,1090.2)" >Leadership-General</text>
<path d="M3249.937,935.189 A1642.000,1642.000 40.000 0,1 3507.538,1349.236 L3542.426,1334.176 A1680.000,1680.000 0.000 0,0 3278.864,910.547 Z" style="stroke-width:2.0;stroke:rgb(255,255,255);stroke-linecap:round;fill:none;" />
<path d="M3521.375,1382.278 A1642.000,1642.000 40.000 0,1 3633.192,1830.154 L3670.988,1826.223 A1680.000,1680.000 0.000 0,0 3556.584,1367.982 Z" style="stroke-width:2.0;stroke:rgb(255,255,255);stroke-linecap:round;fill:rgb(185,185,185);" />
<text x="3699.0" y="1592.3" font-size="36.4px" font-family="CMUBright-Roman" style="text-anchor:start;fill:rgb(0,0,0);" transform="rotate(346.0,3699.0,1592.3)" >Sales-Marketing</text>
<path d="M3521.375,1382.278 A1642.000,1642.000 40.000 0,1 3633.192,1830.154 L3670.988,1826.223 A1680.000,1680.000 0.000 0,0 3556.584,1367.982 Z" style="stroke-width:2.0;stroke:rgb(255,255,255);stroke-linecap:round;fill:none;" />
<path d="M3636.509,1865.822 A1642.000,1642.000 40.000 0,1 3610.774,2318.704 L3648.051,2326.079 A1680.000,1680.000 0.000 0,0 3674.381,1862.717 Z" style="stroke-width:2.0;stroke:rgb(255,255,255);stroke-linecap:round;fill:rgb(185,185,185);" />
<text x="3743.6" y="2111.6" font-size="36.4px" font-family="CMUBright-Roman" style="text-anchor:start;fill:rgb(0,0,0);" transform="rotate(3.3,3743.6,2111.6)" >Finance-Investment</text>
<path d="M3636.509,1865.822 A1642.000,1642.000 40.000 0,1 3610.774,2318.704 L3648.051,2326.079 A1680.000,1680.000 0.000 0,0 3674.381,1862.717 Z" style="stroke-width:2.0;stroke:rgb(255,255,255);stroke-linecap:round;fill:none;" />
<path d="M3603.438,2353.767 A1642.000,1642.000 40.000 0,1 3499.856,2668.278 L3534.566,2683.744 A1680.000,1680.000 0.000 0,0 3640.546,2361.954 Z" style="stroke-width:2.0;stroke:rgb(255,255,255);stroke-linecap:round;fill:rgb(185,185,185);" />
<text x="3655.6" y="2558.4" font-size="36.4px" font-family="CMUBright-Roman" style="text-anchor:start;fill:rgb(0,0,0);" transform="rotate(18.2,3655.6,2558.4)" >Software-Data</text>
<path d="M3603.438,2353.767 A1642.000,1642.000 40.000 0,1 3499.856,2668.278 L3534.566,2683.744 A1680.000,1680.000 0.000 0,0 3640.546,2361.954 Z" style="stroke-width:2.0;stroke:rgb(255,255,255);stroke-linecap:round;fill:none;" />
<path d="M3484.921,2700.839 A1642.000,1642.000 40.000 0,1 3330.895,2961.708 L3361.695,2983.964 A1680.000,1680.000 0.000 0,0 3519.285,2717.058 Z" style="stroke-width:2.0;stroke:rgb(255,255,255);stroke-linecap:round;fill:rgb(185,185,185);" />
<text x="3498.1" y="2899.1" font-size="36.4px" font-family="CMUBright-Roman" style="text-anchor:start;fill:rgb(0,0,0);" transform="rotate(30.6,3498.1,2899.1)" >Education</text>
<path d="M3484.921,2700.839 A1642.000,1642.000 40.000 0,1 3330.895,2961.708 L3361.695,2983.964 A1680.000,1680.000 0.000 0,0 3519.285,2717.058 Z" style="stroke-width:2.0;stroke:rgb(255,255,255);stroke-linecap:round;fill:none;" />
<path d="M3309.599,2990.512 A1642.000,1642.000 40.000 0,1 3129.055,3192.225 L3155.184,3219.816 A1680.000,1680.000 0.000 0,0 3339.906,3013.435 Z" style="stroke-width:2.0;stroke:rgb(255,255,255);stroke-linecap:round;fill:rgb(185,185,185);" />
<text x="3293.5" y="3174.5" font-size="36.4px" font-family="CMUBright-Roman" style="text-anchor:start;fill:rgb(0,0,0);" transform="rotate(41.8,3293.5,3174.5)" >Research-Science</text>
<path d="M3309.599,2990.512 A1642.000,1642.000 40.000 0,1 3129.055,3192.225 L3155.184,3219.816 A1680.000,1680.000 0.000 0,0 3339.906,3013.435 Z" style="stroke-width:2.0;stroke:rgb(255,255,255);stroke-linecap:round;fill:none;" />
<path d="M3102.778,3216.571 A1642.000,1642.000 40.000 0,1 2891.302,3379.038 L2911.929,3410.952 A1680.000,1680.000 0.000 0,0 3128.299,3244.726 Z" style="stroke-width:2.0;stroke:rgb(255,255,255);stroke-linecap:round;fill:rgb(185,185,185);" />
<text x="3054.5" y="3393.1" font-size="36.4px" font-family="CMUBright-Roman" style="text-anchor:start;fill:rgb(0,0,0);" transform="rotate(52.5,3054.5,3393.1)" >Clinical-Care</text>
<path d="M3102.778,3216.571 A1642.000,1642.000 40.000 0,1 2891.302,3379.038 L2911.929,3410.952 A1680.000,1680.000 0.000 0,0 3128.299,3244.726 Z" style="stroke-width:2.0;stroke:rgb(255,255,255);stroke-linecap:round;fill:none;" />
<path d="M2861.006,3398.153 A1642.000,1642.000 40.000 0,1 2640.127,3512.085 L2654.941,3547.079 A1680.000,1680.000 0.000 0,0 2880.932,3430.510 Z" style="stroke-width:2.0;stroke:rgb(255,255,255);stroke-linecap:round;fill:rgb(185,185,185);" />
<text x="2786.7" y="3560.1" font-size="36.4px" font-family="CMUBright-Roman" style="text-anchor:start;fill:rgb(0,0,0);" transform="rotate(62.7,2786.7,3560.1)" >Accounting-Audit</text>
<path d="M2861.006,3398.153 A1642.000,1642.000 40.000 0,1 2640.127,3512.085 L2654.941,3547.079 A1680.000,1680.000 0.000 0,0 2880.932,3430.510 Z" style="stroke-width:2.0;stroke:rgb(255,255,255);stroke-linecap:round;fill:none;" />
<path d="M2606.988,3525.690 A1642.000,1642.000 40.000 0,1 2452.002,3578.562 L2462.463,3615.094 A1680.000,1680.000 0.000 0,0 2621.036,3560.998 Z" style="stroke-width:2.0;stroke:rgb(255,255,255);stroke-linecap:round;fill:rgb(185,185,185);" />
<text x="2552.3" y="3657.6" font-size="36.4px" font-family="CMUBright-Roman" style="text-anchor:start;fill:rgb(0,0,0);" transform="rotate(71.2,2552.3,3657.6)" >Social-Service</text>
<path d="M2606.988,3525.690 A1642.000,1642.000 40.000 0,1 2452.002,3578.562 L2462.463,3615.094 A1680.000,1680.000 0.000 0,0 2621.036,3560.998 Z" style="stroke-width:2.0;stroke:rgb(255,255,255);stroke-linecap:round;fill:none;" />
<path d="M2417.459,3588.047 A1642.000,1642.000 40.000 0,1 2320.910,3610.336 L2328.336,3647.603 A1680.000,1680.000 0.000 0,0 2427.120,3624.798 Z" style="stroke-width:2.0;stroke:rgb(255,255,255);stroke-linecap:round;fill:rgb(185,185,185);" />
<text x="2380.8" y="3705.2" font-size="36.4px" font-family="CMUBright-Roman" style="text-anchor:start;fill:rgb(0,0,0);" transform="rotate(77.0,2380.8,3705.2)" >IT-Infrastructure</text>
<path d="M2417.459,3588.047 A1642.000,1642.000 40.000 0,1 2320.910,3610.336 L2328.336,3647.603 A1680.000,1680.000 0.000 0,0 2427.120,3624.798 Z" style="stroke-width:2.0;stroke:rgb(255,255,255);stroke-linecap:round;fill:none;" />
<path d="M2285.704,3616.953 A1642.000,1642.000 40.000 0,1 2189.660,3631.010 L2194.050,3668.755 A1680.000,1680.000 0.000 0,0 2292.316,3654.373 Z" style="stroke-width:2.0;stroke:rgb(255,255,255);stroke-linecap:round;fill:rgb(185,185,185);" />
<text x="2237.2" y="3731.0" font-size="36.4px" font-family="CMUBright-Roman" style="text-anchor:start;fill:rgb(0,0,0);" transform="rotate(81.7,2237.2,3731.0)" >Legal-Policy</text>
<path d="M2285.704,3616.953 A1642.000,1642.000 40.000 0,1 2189.660,3631.010 L2194.050,3668.755 A1680.000,1680.000 0.000 0,0 2292.316,3654.373 Z" style="stroke-width:2.0;stroke:rgb(255,255,255);stroke-linecap:round;fill:none;" />
<path d="M2154.035,3634.759 A1642.000,1642.000 40.000 0,1 1474.020,3555.477 L1461.848,3591.475 A1680.000,1680.000 0.000 0,0 2157.600,3672.592 Z" style="stroke-width:2.0;stroke:rgb(255,255,255);stroke-linecap:round;fill:rgb(15,52,135);" />
<text x="1813.6" y="3737.2" font-size="36.4px" font-family="CMUBright-Roman" style="text-anchor:end;fill:rgb(0,0,0);" transform="rotate(-83.3,1813.6,3737.2)" >Finance-Accounting</text>
<path d="M2154.035,3634.759 A1642.000,1642.000 40.000 0,1 1474.020,3555.477 L1461.848,3591.475 A1680.000,1680.000 0.000 0,0 2157.600,3672.592 Z" style="stroke-width:2.0;stroke:rgb(255,255,255);stroke-linecap:round;fill:none;" />
<path d="M1440.213,3543.633 A1642.000,1642.000 40.000 0,1 888.845,3208.925 L863.130,3236.902 A1680.000,1680.000 0.000 0,0 1427.258,3579.356 Z" style="stroke-width:2.0;stroke:rgb(255,255,255);stroke-linecap:round;fill:rgb(42,98,180);" />
<text x="1104.1" y="3500.0" font-size="36.4px" font-family="CMUBright-Roman" style="text-anchor:end;fill:rgb(0,0,0);" transform="rotate(-58.7,1104.1,3500.0)" >General-Business</text>
<path d="M1440.213,3543.633 A1642.000,1642.000 40.000 0,1 888.845,3208.925 L863.130,3236.902 A1680.000,1680.000 0.000 0,0 1427.258,3579.356 Z" style="stroke-width:2.0;stroke:rgb(255,255,255);stroke-linecap:round;fill:none;" />
<path d="M862.737,3184.397 A1642.000,1642.000 40.000 0,1 624.574,2896.866 L592.744,2917.622 A1680.000,1680.000 0.000 0,0 836.418,3211.807 Z" style="stroke-width:2.0;stroke:rgb(255,255,255);stroke-linecap:round;fill:rgb(28,75,160);" />
<text x="664.7" y="3126.8" font-size="36.4px" font-family="CMUBright-Roman" style="text-anchor:end;fill:rgb(0,0,0);" transform="rotate(-39.6,664.7,3126.8)" >Marketing-Communication</text>
<path d="M862.737,3184.397 A1642.000,1642.000 40.000 0,1 624.574,2896.866 L592.744,2917.622 A1680.000,1680.000 0.000 0,0 836.418,3211.807 Z" style="stroke-width:2.0;stroke:rgb(255,255,255);stroke-linecap:round;fill:none;" />
<path d="M605.337,2866.648 A1642.000,1642.000 40.000 0,1 476.558,2612.607 L441.301,2626.784 A1680.000,1680.000 0.000 0,0 573.061,2886.704 Z" style="stroke-width:2.0;stroke:rgb(255,255,255);stroke-linecap:round;fill:rgb(60,120,198);" />
<text x="448.7" y="2803.8" font-size="36.4px" font-family="CMUBright-Roman" style="text-anchor:end;fill:rgb(0,0,0);" transform="rotate(-26.9,448.7,2803.8)" >Operations-Analytics</text>
<path d="M605.337,2866.648 A1642.000,1642.000 40.000 0,1 476.558,2612.607 L441.301,2626.784 A1680.000,1680.000 0.000 0,0 573.061,2886.704 Z" style="stroke-width:2.0;stroke:rgb(255,255,255);stroke-linecap:round;fill:none;" />
<path d="M463.556,2579.227 A1642.000,1642.000 40.000 0,1 407.419,2399.813 L370.563,2409.066 A1680.000,1680.000 0.000 0,0 427.999,2592.632 Z" style="stroke-width:2.0;stroke:rgb(255,255,255);stroke-linecap:round;fill:rgb(82,145,215);" />
<text x="337.2" y="2536.5" font-size="36.4px" font-family="CMUBright-Roman" style="text-anchor:end;fill:rgb(0,0,0);" transform="rotate(-17.4,337.2,2536.5)" >Specialized-Business</text>
<path d="M463.556,2579.227 A1642.000,1642.000 40.000 0,1 407.419,2399.813 L370.563,2409.066 A1680.000,1680.000 0.000 0,0 427.999,2592.632 Z" style="stroke-width:2.0;stroke:rgb(255,255,255);stroke-linecap:round;fill:none;" />
<path d="M399.076,2364.976 A1642.000,1642.000 40.000 0,1 366.776,2169.540 L328.979,2173.464 A1680.000,1680.000 0.000 0,0 362.027,2373.422 Z" style="stroke-width:2.0;stroke:rgb(255,255,255);stroke-linecap:round;fill:rgb(200,108,30);" />
<text x="278.3" y="2297.2" font-size="36.4px" font-family="CMUBright-Roman" style="text-anchor:end;fill:rgb(0,0,0);" transform="rotate(-9.4,278.3,2297.2)" >Social-Sciences</text>
<path d="M399.076,2364.976 A1642.000,1642.000 40.000 0,1 366.776,2169.540 L328.979,2173.464 A1680.000,1680.000 0.000 0,0 362.027,2373.422 Z" style="stroke-width:2.0;stroke:rgb(255,255,255);stroke-linecap:round;fill:none;" />
<path d="M363.466,2133.872 A1642.000,1642.000 40.000 0,1 358.290,2030.870 L320.297,2031.584 A1680.000,1680.000 0.000 0,0 325.593,2136.970 Z" style="stroke-width:2.0;stroke:rgb(255,255,255);stroke-linecap:round;fill:rgb(108,170,228);" />
<text x="255.6" y="2099.7" font-size="36.4px" font-family="CMUBright-Roman" style="text-anchor:end;fill:rgb(0,0,0);" transform="rotate(-2.9,255.6,2099.7)" >Economics</text>
<path d="M363.466,2133.872 A1642.000,1642.000 40.000 0,1 358.290,2030.870 L320.297,2031.584 A1680.000,1680.000 0.000 0,0 325.593,2136.970 Z" style="stroke-width:2.0;stroke:rgb(255,255,255);stroke-linecap:round;fill:none;" />
<path d="M358.007,1995.049 A1642.000,1642.000 40.000 0,1 358.807,1948.539 L320.825,1947.348 A1680.000,1680.000 0.000 0,0 320.008,1994.934 Z" style="stroke-width:2.0;stroke:rgb(255,255,255);stroke-linecap:round;fill:rgb(220,140,52);" />
<text x="252.9" y="1982.5" font-size="36.4px" font-family="CMUBright-Roman" style="text-anchor:end;fill:rgb(0,0,0);" transform="rotate(1.0,252.9,1982.5)" >Humanities-Liberal-Arts</text>
<path d="M358.007,1995.049 A1642.000,1642.000 40.000 0,1 358.807,1948.539 L320.825,1947.348 A1680.000,1680.000 0.000 0,0 320.008,1994.934 Z" style="stroke-width:2.0;stroke:rgb(255,255,255);stroke-linecap:round;fill:none;" />
<path d="M360.320,1912.749 A1642.000,1642.000 40.000 0,1 361.133,1898.615 L323.205,1896.269 A1680.000,1680.000 0.000 0,0 322.373,1910.730 Z" style="stroke-width:2.0;stroke:rgb(255,255,255);stroke-linecap:round;fill:rgb(235,168,78);" />
<text x="255.0" y="1912.1" font-size="36.4px" font-family="CMUBright-Roman" style="text-anchor:end;fill:rgb(0,0,0);" transform="rotate(3.3,255.0,1912.1)" >International-Studies</text>
<path d="M360.320,1912.749 A1642.000,1642.000 40.000 0,1 361.133,1898.615 L323.205,1896.269 A1680.000,1680.000 0.000 0,0 322.373,1910.730 Z" style="stroke-width:2.0;stroke:rgb(255,255,255);stroke-linecap:round;fill:none;" />
<path d="M363.735,1862.887 A1642.000,1642.000 40.000 0,1 391.336,1670.812 L354.108,1663.193 A1680.000,1680.000 0.000 0,0 325.867,1859.714 Z" style="stroke-width:2.0;stroke:rgb(255,255,255);stroke-linecap:round;fill:rgb(195,58,55);" />
<text x="268.8" y="1763.9" font-size="36.4px" font-family="CMUBright-Roman" style="text-anchor:end;fill:rgb(0,0,0);" transform="rotate(8.2,268.8,1763.9)" >Social-Work</text>
<path d="M363.735,1862.887 A1642.000,1642.000 40.000 0,1 391.336,1670.812 L354.108,1663.193 A1680.000,1680.000 0.000 0,0 325.867,1859.714 Z" style="stroke-width:2.0;stroke:rgb(255,255,255);stroke-linecap:round;fill:none;" />
<path d="M398.900,1635.797 A1642.000,1642.000 40.000 0,1 428.981,1522.439 L392.624,1511.387 A1680.000,1680.000 0.000 0,0 361.847,1627.368 Z" style="stroke-width:2.0;stroke:rgb(255,255,255);stroke-linecap:round;fill:rgb(175,35,42);" />
<text x="308.1" y="1564.0" font-size="36.4px" font-family="CMUBright-Roman" style="text-anchor:end;fill:rgb(0,0,0);" transform="rotate(14.9,308.1,1564.0)" >Teacher-Education</text>
<path d="M398.900,1635.797 A1642.000,1642.000 40.000 0,1 428.981,1522.439 L392.624,1511.387 A1680.000,1680.000 0.000 0,0 361.847,1627.368 Z" style="stroke-width:2.0;stroke:rgb(255,255,255);stroke-linecap:round;fill:none;" />
<path d="M439.773,1488.281 A1642.000,1642.000 40.000 0,1 474.975,1391.343 L439.682,1377.257 A1680.000,1680.000 0.000 0,0 403.666,1476.439 Z" style="stroke-width:2.0;stroke:rgb(255,255,255);stroke-linecap:round;fill:rgb(215,82,72);" />
<text x="352.5" y="1418.2" font-size="36.4px" font-family="CMUBright-Roman" style="text-anchor:end;fill:rgb(0,0,0);" transform="rotate(20.0,352.5,1418.2)" >Special-Education</text>
<path d="M439.773,1488.281 A1642.000,1642.000 40.000 0,1 474.975,1391.343 L439.682,1377.257 A1680.000,1680.000 0.000 0,0 403.666,1476.439 Z" style="stroke-width:2.0;stroke:rgb(255,255,255);stroke-linecap:round;fill:none;" />
<path d="M488.616,1358.220 A1642.000,1642.000 40.000 0,1 509.092,1311.991 L474.588,1296.068 A1680.000,1680.000 0.000 0,0 453.639,1343.368 Z" style="stroke-width:2.0;stroke:rgb(255,255,255);stroke-linecap:round;fill:rgb(230,112,95);" />
<text x="396.3" y="1306.6" font-size="36.4px" font-family="CMUBright-Roman" style="text-anchor:end;fill:rgb(0,0,0);" transform="rotate(23.9,396.3,1306.6)" >Educational-Leadership</text>
<path d="M488.616,1358.220 A1642.000,1642.000 40.000 0,1 509.092,1311.991 L474.588,1296.068 A1680.000,1680.000 0.000 0,0 453.639,1343.368 Z" style="stroke-width:2.0;stroke:rgb(255,255,255);stroke-linecap:round;fill:none;" />
<path d="M524.455,1279.630 A1642.000,1642.000 40.000 0,1 553.988,1222.045 L520.524,1204.041 A1680.000,1680.000 0.000 0,0 490.308,1262.959 Z" style="stroke-width:2.0;stroke:rgb(255,255,255);stroke-linecap:round;fill:rgb(0,130,142);" />
<text x="439.7" y="1213.8" font-size="36.4px" font-family="CMUBright-Roman" style="text-anchor:end;fill:rgb(0,0,0);" transform="rotate(27.2,439.7,1213.8)" >Communication-Studies</text>
<path d="M524.455,1279.630 A1642.000,1642.000 40.000 0,1 553.988,1222.045 L520.524,1204.041 A1680.000,1680.000 0.000 0,0 490.308,1262.959 Z" style="stroke-width:2.0;stroke:rgb(255,255,255);stroke-linecap:round;fill:none;" />
<path d="M571.303,1190.686 A1642.000,1642.000 40.000 0,1 588.562,1160.949 L555.898,1141.531 A1680.000,1680.000 0.000 0,0 538.240,1171.956 Z" style="stroke-width:2.0;stroke:rgb(255,255,255);stroke-linecap:round;fill:rgb(0,165,172);" />
<text x="482.6" y="1133.8" font-size="36.4px" font-family="CMUBright-Roman" style="text-anchor:end;fill:rgb(0,0,0);" transform="rotate(30.1,482.6,1133.8)" >Journalism-Media</text>
<path d="M571.303,1190.686 A1642.000,1642.000 40.000 0,1 588.562,1160.949 L555.898,1141.531 A1680.000,1680.000 0.000 0,0 538.240,1171.956 Z" style="stroke-width:2.0;stroke:rgb(255,255,255);stroke-linecap:round;fill:none;" />
<path d="M607.202,1130.358 A1642.000,1642.000 40.000 0,1 613.667,1120.089 L581.583,1099.725 A1680.000,1680.000 0.000 0,0 574.969,1110.233 Z" style="stroke-width:2.0;stroke:rgb(255,255,255);stroke-linecap:round;fill:rgb(38,195,195);" />
<text x="512.9" y="1082.8" font-size="36.4px" font-family="CMUBright-Roman" style="text-anchor:end;fill:rgb(0,0,0);" transform="rotate(32.2,512.9,1082.8)" >Creative-Writing</text>
<path d="M607.202,1130.358 A1642.000,1642.000 40.000 0,1 613.667,1120.089 L581.583,1099.725 A1680.000,1680.000 0.000 0,0 574.969,1110.233 Z" style="stroke-width:2.0;stroke:rgb(255,255,255);stroke-linecap:round;fill:none;" />
<path d="M633.192,1090.055 A1642.000,1642.000 40.000 0,1 667.742,1040.182 L636.910,1017.969 A1680.000,1680.000 0.000 0,0 601.560,1068.997 Z" style="stroke-width:2.0;stroke:rgb(255,255,255);stroke-linecap:round;fill:rgb(180,45,112);" />
<text x="554.7" y="1018.2" font-size="36.4px" font-family="CMUBright-Roman" style="text-anchor:end;fill:rgb(0,0,0);" transform="rotate(34.7,554.7,1018.2)" >Arts-Theology</text>
<path d="M633.192,1090.055 A1642.000,1642.000 40.000 0,1 667.742,1040.182 L636.910,1017.969 A1680.000,1680.000 0.000 0,0 601.560,1068.997 Z" style="stroke-width:2.0;stroke:rgb(255,255,255);stroke-linecap:round;fill:none;" />
<path d="M688.997,1011.347 A1642.000,1642.000 40.000 0,1 698.803,998.477 L668.690,975.299 A1680.000,1680.000 0.000 0,0 658.657,988.467 Z" style="stroke-width:2.0;stroke:rgb(255,255,255);stroke-linecap:round;fill:rgb(205,75,142);" />
<text x="600.6" y="953.9" font-size="36.4px" font-family="CMUBright-Roman" style="text-anchor:end;fill:rgb(0,0,0);" transform="rotate(37.3,600.6,953.9)" >English-Writing</text>
<path d="M688.997,1011.347 A1642.000,1642.000 40.000 0,1 698.803,998.477 L668.690,975.299 A1680.000,1680.000 0.000 0,0 658.657,988.467 Z" style="stroke-width:2.0;stroke:rgb(255,255,255);stroke-linecap:round;fill:none;" />
<path d="M720.960,970.329 A1642.000,1642.000 40.000 0,1 724.774,965.610 L695.262,941.672 A1680.000,1680.000 0.000 0,0 691.360,946.500 Z" style="stroke-width:2.0;stroke:rgb(255,255,255);stroke-linecap:round;fill:rgb(225,110,168);" />
<text x="631.0" y="914.3" font-size="36.4px" font-family="CMUBright-Roman" style="text-anchor:end;fill:rgb(0,0,0);" transform="rotate(38.9,631.0,914.3)" >Languages</text>
<path d="M720.960,970.329 A1642.000,1642.000 40.000 0,1 724.774,965.610 L695.262,941.672 A1680.000,1680.000 0.000 0,0 691.360,946.500 Z" style="stroke-width:2.0;stroke:rgb(255,255,255);stroke-linecap:round;fill:none;" />
<path d="M747.643,938.037 A1642.000,1642.000 40.000 0,1 884.635,794.959 L858.822,767.071 A1680.000,1680.000 0.000 0,0 718.660,913.461 Z" style="stroke-width:2.0;stroke:rgb(255,255,255);stroke-linecap:round;fill:rgb(88,40,138);" />
<text x="727.0" y="803.3" font-size="36.4px" font-family="CMUBright-Roman" style="text-anchor:end;fill:rgb(0,0,0);" transform="rotate(43.8,727.0,803.3)" >Biological-Sciences</text>
<path d="M747.643,938.037 A1642.000,1642.000 40.000 0,1 884.635,794.959 L858.822,767.071 A1680.000,1680.000 0.000 0,0 718.660,913.461 Z" style="stroke-width:2.0;stroke:rgb(255,255,255);stroke-linecap:round;fill:none;" />
<path d="M911.188,770.914 A1642.000,1642.000 40.000 0,1 969.888,721.316 L946.049,691.724 A1680.000,1680.000 0.000 0,0 885.990,742.470 Z" style="stroke-width:2.0;stroke:rgb(255,255,255);stroke-linecap:round;fill:rgb(115,65,165);" />
<text x="862.8" y="673.5" font-size="36.4px" font-family="CMUBright-Roman" style="text-anchor:end;fill:rgb(0,0,0);" transform="rotate(49.8,862.8,673.5)" >Health-Wellness</text>
<path d="M911.188,770.914 A1642.000,1642.000 40.000 0,1 969.888,721.316 L946.049,691.724 A1680.000,1680.000 0.000 0,0 885.990,742.470 Z" style="stroke-width:2.0;stroke:rgb(255,255,255);stroke-linecap:round;fill:none;" />
<path d="M998.028,699.148 A1642.000,1642.000 40.000 0,1 1023.858,679.655 L1001.267,649.099 A1680.000,1680.000 0.000 0,0 974.840,669.043 Z" style="stroke-width:2.0;stroke:rgb(255,255,255);stroke-linecap:round;fill:rgb(140,92,188);" />
<text x="935.2" y="614.8" font-size="36.4px" font-family="CMUBright-Roman" style="text-anchor:end;fill:rgb(0,0,0);" transform="rotate(53.0,935.2,614.8)" >Physical-Sciences</text>
<path d="M998.028,699.148 A1642.000,1642.000 40.000 0,1 1023.858,679.655 L1001.267,649.099 A1680.000,1680.000 0.000 0,0 974.840,669.043 Z" style="stroke-width:2.0;stroke:rgb(255,255,255);stroke-linecap:round;fill:none;" />
<path d="M1052.893,658.675 A1642.000,1642.000 40.000 0,1 1064.493,650.559 L1042.843,619.329 A1680.000,1680.000 0.000 0,0 1030.975,627.633 Z" style="stroke-width:2.0;stroke:rgb(255,255,255);stroke-linecap:round;fill:rgb(165,120,208);" />
<text x="988.2" y="575.6" font-size="36.4px" font-family="CMUBright-Roman" style="text-anchor:end;fill:rgb(0,0,0);" transform="rotate(55.0,988.2,575.6)" >Environmental-Sciences</text>
<path d="M1052.893,658.675 A1642.000,1642.000 40.000 0,1 1064.493,650.559 L1042.843,619.329 A1680.000,1680.000 0.000 0,0 1030.975,627.633 Z" style="stroke-width:2.0;stroke:rgb(255,255,255);stroke-linecap:round;fill:none;" />
<path d="M1094.154,630.472 A1642.000,1642.000 40.000 0,1 1594.822,408.776 L1585.445,371.951 A1680.000,1680.000 0.000 0,0 1073.190,598.778 Z" style="stroke-width:2.0;stroke:rgb(255,255,255);stroke-linecap:round;fill:rgb(22,118,50);" />
<text x="1278.0" y="409.0" font-size="36.4px" font-family="CMUBright-Roman" style="text-anchor:end;fill:rgb(0,0,0);" transform="rotate(66.1,1278.0,409.0)" >Engineering-Disciplines</text>
<path d="M1094.154,630.472 A1642.000,1642.000 40.000 0,1 1594.822,408.776 L1585.445,371.951 A1680.000,1680.000 0.000 0,0 1073.190,598.778 Z" style="stroke-width:2.0;stroke:rgb(255,255,255);stroke-linecap:round;fill:none;" />
<path d="M1629.631,400.315 A1642.000,1642.000 40.000 0,1 1964.180,358.391 L1963.351,320.400 A1680.000,1680.000 0.000 0,0 1621.060,363.295 Z" style="stroke-width:2.0;stroke:rgb(255,255,255);stroke-linecap:round;fill:rgb(48,158,75);" />
<text x="1767.4" y="268.4" font-size="36.4px" font-family="CMUBright-Roman" style="text-anchor:end;fill:rgb(0,0,0);" transform="rotate(82.9,1767.4,268.4)" >Computer-Science-IT</text>
<path d="M1629.631,400.315 A1642.000,1642.000 40.000 0,1 1964.180,358.391 L1963.351,320.400 A1680.000,1680.000 0.000 0,0 1621.060,363.295 Z" style="stroke-width:2.0;stroke:rgb(255,255,255);stroke-linecap:round;fill:none;" />
</g>
<g id="track_0">
<path d="M 1103.212,644.167 A 1625.580,1625.580 0.00 0,1 1106.6,642.0 L 1106.6,642.0 1146.8,704.4 1186.7,768.8 1226.5,834.9 1266.2,902.5 1306.0,971.5 1345.9,1041.7 1386.1,1113.0 1426.6,1185.2 1467.5,1258.3 1508.8,1332.0 1550.7,1406.2 1593.1,1480.9 1636.2,1555.8 1679.9,1631.0 1724.2,1706.3 1769.1,1781.5 1814.7,1856.7 1860.9,1931.7 1907.7,2006.4 1955.1,2080.9 2003.0,2154.9 2051.4,2228.5 2100.3,2301.7 2149.4,2374.2 2198.9,2446.2 2248.5,2517.6 2298.2,2588.3 2347.9,2658.4 2397.4,2727.7 2446.7,2796.4 2495.6,2864.3 2543.9,2931.6 2591.5,2998.2 2638.2,3064.1 2683.9,3129.3 2728.4,3193.9 2771.4,3257.9 2812.8,3321.3 2852.4,3384.2  A 1625.580,1625.580 0.00 0,1 2849.0,3386.3 L 2849.0,3386.3 2809.6,3323.3 2768.3,3259.8 2725.5,3195.8 2681.2,3131.1 2635.6,3065.9 2589.0,2999.9 2541.5,2933.3 2493.3,2866.0 2444.6,2797.9 2395.4,2729.2 2345.9,2659.8 2296.3,2589.7 2246.7,2518.9 2197.1,2447.5 2147.7,2375.4 2098.5,2302.8 2049.7,2229.7 2001.3,2156.0 1953.4,2082.0 1906.0,2007.5 1859.2,1932.7 1812.9,1857.7 1767.3,1782.6 1722.3,1707.3 1678.0,1632.1 1634.2,1556.9 1591.1,1482.0 1548.6,1407.4 1506.6,1333.2 1465.1,1259.6 1424.1,1186.6 1383.5,1114.4 1343.3,1043.2 1303.2,973.1 1263.4,904.2 1223.5,836.7 1183.6,770.7 1143.6,706.5 1103.2,644.2  Z" style="stroke-width: 0.0;  fill: rgb(22,118,50);" />
<path d="M 1106.555,641.962 A 1625.580,1625.580 0.00 0,1 1108.2,640.9 L 1108.2,640.9 1149.0,701.5 1191.8,762.5 1236.5,824.1 1282.9,886.1 1330.9,948.7 1380.1,1011.8 1430.6,1075.6 1482.0,1139.9 1534.3,1204.8 1587.4,1270.3 1641.0,1336.4 1695.1,1403.1 1749.5,1470.4 1804.2,1538.1 1859.0,1606.4 1913.8,1675.2 1968.6,1744.4 2023.3,1813.9 2077.8,1883.7 2132.1,1953.8 2186.0,2024.1 2239.6,2094.5 2292.8,2164.9 2345.6,2235.3 2397.9,2305.5 2449.8,2375.4 2501.2,2445.0 2552.2,2514.1 2602.7,2582.6 2652.8,2650.4 2702.5,2717.3 2751.9,2783.3 2800.9,2848.1 2849.7,2911.6 2898.2,2973.7 2946.6,3034.2 2995.0,3092.9 3043.3,3149.7 3091.7,3204.4  A 1625.580,1625.580 0.00 0,1 3090.3,3205.7 L 3090.3,3205.7 3041.9,3151.0 2993.6,3094.1 2945.3,3035.3 2896.9,2974.8 2848.4,2912.6 2799.7,2849.0 2750.8,2784.2 2701.5,2718.2 2651.8,2651.2 2601.7,2583.4 2551.2,2514.8 2500.3,2445.7 2448.9,2376.1 2397.0,2306.1 2344.7,2235.9 2291.9,2165.6 2238.8,2095.1 2185.2,2024.8 2131.3,1954.5 2077.0,1884.4 2022.5,1814.5 1967.8,1745.0 1913.0,1675.8 1858.2,1607.1 1803.3,1538.8 1748.6,1471.1 1694.2,1403.8 1640.0,1337.2 1586.4,1271.1 1533.3,1205.6 1480.9,1140.7 1429.4,1076.4 1378.9,1012.7 1329.6,949.6 1281.6,887.1 1235.1,825.1 1190.3,763.6 1147.4,702.6 1106.6,642.0  Z" style="stroke-width: 0.0;  fill: rgb(22,118,50);" />
<path d="M 1108.229,640.863 A 1625.580,1625.580 0.00 0,1 1126.7,628.9 L 1126.7,628.9 1165.7,688.3 1207.1,748.0 1250.6,808.2 1296.3,868.7 1343.8,929.7 1393.0,991.0 1443.8,1052.9 1496.0,1115.1 1549.5,1177.8 1604.2,1240.8 1659.9,1304.3 1716.5,1368.0 1773.8,1432.2 1831.8,1496.6 1890.4,1561.2 1949.4,1626.1 2008.9,1691.1 2068.6,1756.2 2128.5,1821.3 2188.5,1886.3 2248.6,1951.3 2308.6,2016.0 2368.7,2080.4 2428.6,2144.5 2488.3,2208.1 2547.8,2271.1 2607.1,2333.4 2666.2,2394.9 2724.9,2455.5 2783.4,2515.1 2841.5,2573.4 2899.4,2630.5 2956.9,2686.1 3014.2,2740.1 3071.1,2792.3 3127.8,2842.7 3184.2,2891.0 3240.4,2937.0 3296.5,2980.6  A 1625.580,1625.580 0.00 0,1 3283.1,2998.1 L 3283.1,2998.1 3227.4,2953.6 3171.6,2906.7 3115.5,2857.6 3059.2,2806.4 3002.7,2753.4 2945.8,2698.7 2888.7,2642.4 2831.2,2584.7 2773.4,2525.8 2715.2,2465.7 2656.8,2404.7 2598.0,2342.7 2538.9,2280.0 2479.6,2216.7 2420.0,2152.8 2360.3,2088.5 2300.3,2023.9 2240.3,1959.0 2180.2,1894.0 2120.2,1828.9 2060.2,1763.8 2000.3,1698.7 1940.7,1633.8 1881.4,1569.0 1822.5,1504.5 1764.2,1440.3 1706.4,1376.4 1649.4,1312.8 1593.2,1249.6 1538.0,1186.9 1483.9,1124.5 1431.1,1062.6 1379.6,1001.1 1329.6,940.0 1281.3,879.4 1234.8,819.2 1190.4,759.4 1148.1,700.0 1108.2,640.9  Z" style="stroke-width: 0.0;  fill: rgb(22,118,50);" />
<path d="M 1126.725,628.905 A 1625.580,1625.580 0.00 0,1 1152.2,613.0 L 1152.2,613.0 1188.0,669.1 1226.6,725.3 1267.9,781.6 1311.8,837.8 1358.2,894.0 1407.0,950.1 1457.9,1006.1 1511.0,1061.9 1566.0,1117.4 1622.9,1172.7 1681.5,1227.7 1741.7,1282.3 1803.4,1336.4 1866.5,1390.0 1930.8,1443.1 1996.3,1495.6 2062.9,1547.3 2130.4,1598.3 2198.7,1648.5 2267.7,1697.7 2337.4,1746.0 2407.6,1793.2 2478.2,1839.3 2549.1,1884.2 2620.2,1927.7 2691.5,1969.9 2762.7,2010.7 2833.9,2049.8 2905.0,2087.3 2975.8,2123.1 3046.2,2157.1 3116.2,2189.1 3185.7,2219.0 3254.7,2246.9 3322.9,2272.5 3390.4,2295.7 3457.0,2316.5 3522.7,2334.7 3587.4,2350.2  A 1625.580,1625.580 0.00 0,1 3580.7,2379.5 L 3580.7,2379.5 3515.9,2362.7 3450.2,2343.2 3383.5,2321.2 3316.1,2296.8 3247.8,2270.0 3178.9,2241.1 3109.4,2210.0 3039.4,2177.0 2968.9,2142.1 2898.1,2105.4 2827.0,2067.0 2755.7,2027.0 2684.3,1985.5 2612.9,1942.6 2541.6,1898.4 2470.5,1853.0 2399.6,1806.4 2329.2,1758.8 2259.2,1710.2 2189.7,1660.6 2120.9,1610.3 2053.0,1559.1 1985.9,1507.3 1919.8,1454.8 1854.8,1401.8 1791.0,1348.2 1728.5,1294.2 1667.5,1239.8 1608.1,1185.1 1550.3,1130.1 1494.4,1074.8 1440.3,1019.3 1388.4,963.7 1338.5,908.0 1291.0,852.2 1246.0,796.3 1203.5,740.5 1163.7,684.7 1126.7,628.9  Z" style="stroke-width: 0.0;  fill: rgb(22,118,50);" />
<path d="M 1152.205,613.005 A 1625.580,1625.580 0.00 0,1 1157.3,609.9 L 1157.3,609.9 1190.1,661.3 1225.7,712.3 1264.1,762.6 1305.1,812.1 1348.6,860.8 1394.7,908.4 1443.0,954.8 1493.6,1000.0 1546.4,1043.8 1601.2,1086.0 1657.8,1126.7 1716.3,1165.7 1776.5,1202.9 1838.2,1238.3 1901.4,1271.7 1965.8,1303.0 2031.5,1332.3 2098.3,1359.5 2166.0,1384.5 2234.5,1407.2 2303.7,1427.6 2373.5,1445.7 2443.7,1461.4 2514.2,1474.8 2584.8,1485.7 2655.4,1494.3 2725.9,1500.3 2796.0,1504.0 2865.8,1505.2 2935.0,1504.0 3003.4,1500.4 3071.0,1494.5 3137.5,1486.1 3202.9,1475.4 3266.9,1462.4 3329.4,1447.2 3390.2,1429.7 3449.2,1410.1 3506.2,1388.5  A 1625.580,1625.580 0.00 0,1 3508.4,1394.0 L 3508.4,1394.0 3451.3,1415.5 3392.2,1434.9 3331.2,1452.2 3268.6,1467.2 3204.4,1480.0 3138.9,1490.5 3072.3,1498.7 3004.5,1504.5 2935.9,1507.9 2866.6,1508.9 2796.7,1507.5 2726.4,1503.7 2655.7,1497.4 2584.9,1488.8 2514.2,1477.7 2443.5,1464.2 2373.1,1448.4 2303.2,1430.2 2233.8,1409.7 2165.1,1386.9 2097.2,1361.9 2030.2,1334.7 1964.3,1305.4 1899.6,1274.0 1836.2,1240.6 1774.3,1205.3 1713.9,1168.1 1655.2,1129.1 1598.3,1088.5 1543.3,1046.3 1490.3,1002.5 1439.5,957.4 1390.9,911.1 1344.6,863.5 1300.8,815.0 1259.6,765.5 1221.0,715.3 1185.2,664.4 1152.2,613.0  Z" style="stroke-width: 0.0;  fill: rgb(22,118,50);" />
<path d="M 1157.336,609.882 A 1625.580,1625.580 0.00 0,1 1165.9,604.7 L 1165.9,604.7 1197.0,654.2 1230.6,702.9 1266.6,750.8 1305.0,797.5 1345.6,842.8 1388.4,886.7 1433.3,928.9 1480.0,969.3 1528.6,1007.8 1578.9,1044.1 1630.9,1078.2 1684.3,1109.9 1739.1,1139.2 1795.2,1165.9 1852.5,1190.1 1910.8,1211.5 1970.0,1230.1 2029.9,1245.9 2090.6,1258.9 2151.8,1269.0 2213.4,1276.2 2275.3,1280.4 2337.4,1281.7 2399.4,1280.1 2461.4,1275.6 2523.1,1268.3 2584.4,1258.1 2645.2,1245.2 2705.3,1229.6 2764.7,1211.3 2823.0,1190.5 2880.3,1167.2 2936.3,1141.6 2990.9,1113.8 3043.9,1083.8 3095.2,1051.9 3144.7,1018.2 3192.2,982.7 3237.4,945.8  A 1625.580,1625.580 0.00 0,1 3243.9,953.5 L 3243.9,953.5 3198.3,990.2 3150.6,1025.3 3100.8,1058.8 3049.1,1090.5 2995.8,1120.2 2940.8,1147.8 2884.5,1173.2 2826.9,1196.2 2768.2,1216.8 2708.5,1234.8 2648.0,1250.2 2586.8,1262.9 2525.1,1272.9 2463.0,1280.1 2400.7,1284.4 2338.2,1285.9 2275.7,1284.4 2213.4,1280.1 2151.4,1272.8 2089.8,1262.7 2028.7,1249.7 1968.3,1233.8 1908.7,1215.1 1850.0,1193.7 1792.3,1169.6 1735.8,1142.9 1680.5,1113.7 1626.6,1082.0 1574.3,1048.0 1523.5,1011.8 1474.5,973.5 1427.4,933.2 1382.1,891.1 1338.9,847.4 1297.9,802.1 1259.1,755.6 1222.7,707.9 1188.7,659.2 1157.3,609.9  Z" style="stroke-width: 0.0;  fill: rgb(22,118,50);" />
<path d="M 1165.914,604.719 A 1625.580,1625.580 0.00 0,1 1585.3,428.2 L 1585.3,428.2 1600.0,480.8 1616.4,532.9 1634.3,584.3 1653.8,634.5 1674.7,683.3 1697.1,730.5 1720.8,775.6 1745.9,818.6 1772.2,859.2 1799.7,897.2 1828.4,932.3 1858.1,964.5 1888.8,993.5 1920.5,1019.3 1953.1,1041.7 1986.5,1060.6 2020.5,1075.9 2055.3,1087.6 2090.6,1095.6 2126.4,1099.9 2162.6,1100.5 2199.1,1097.4 2235.8,1090.5 2272.7,1080.1 2309.7,1066.1 2346.6,1048.6 2383.3,1027.6 2419.8,1003.4 2456.0,976.1 2491.7,945.7 2526.9,912.5 2561.5,876.7 2595.2,838.4 2628.1,797.9 2660.0,755.5 2690.8,711.3 2720.4,665.7 2748.7,618.9 2775.4,571.3  A 1625.580,1625.580 0.00 0,1 3141.0,842.2 L 3141.0,842.2 3099.6,882.5 3056.0,921.4 3010.4,958.9 2962.9,994.6 2913.6,1028.5 2862.8,1060.3 2810.5,1089.9 2757.0,1117.2 2702.2,1142.1 2646.5,1164.4 2589.9,1184.0 2532.5,1200.9 2474.6,1214.9 2416.1,1226.0 2357.3,1234.2 2298.4,1239.4 2239.3,1241.5 2180.3,1240.6 2121.5,1236.6 2062.9,1229.6 2004.8,1219.5 1947.3,1206.4 1890.4,1190.3 1834.4,1171.3 1779.2,1149.4 1725.1,1124.8 1672.1,1097.4 1620.4,1067.4 1570.0,1035.0 1521.1,1000.1 1473.9,963.0 1428.3,923.7 1384.5,882.6 1342.7,839.6 1302.9,795.0 1265.2,749.1 1229.7,701.9 1196.6,653.7 1165.9,604.7  Z" style="stroke-width: 0.0;  fill: rgb(22,118,50);" />
<path d="M 1585.306,428.205 A 1625.580,1625.580 0.00 0,1 1598.9,424.7 L 1598.9,424.7 1612.3,476.1 1626.2,527.1 1640.5,577.2 1655.1,626.0 1670.0,673.3 1685.1,718.7 1700.4,762.0 1715.7,802.9 1731.0,841.0 1746.3,876.3 1761.4,908.5 1776.4,937.4 1791.2,962.9 1805.7,984.7 1820.0,1002.9 1833.9,1017.2 1847.4,1027.6 1860.5,1034.1 1873.1,1036.6 1885.2,1035.1 1896.9,1029.5 1908.0,1020.0 1918.5,1006.6 1928.4,989.3 1937.7,968.2 1946.4,943.4 1954.5,915.1 1961.9,883.4 1968.6,848.5 1974.7,810.5 1980.1,769.7 1984.9,726.3 1989.0,680.6 1992.4,632.9 1995.2,583.4 1997.3,532.4 1998.8,480.4 1999.7,427.6 2000.0,374.4  A 1625.580,1625.580 0.00 0,1 2014.0,374.5 L 2014.0,374.5 2013.2,427.7 2011.8,480.5 2009.8,532.6 2007.1,583.5 2003.7,633.1 1999.6,680.9 1994.8,726.6 1989.4,770.0 1983.3,810.8 1976.4,848.8 1968.9,883.8 1960.7,915.6 1951.9,944.0 1942.4,968.8 1932.3,990.0 1921.5,1007.4 1910.2,1020.9 1898.3,1030.5 1885.8,1036.1 1872.8,1037.8 1859.4,1035.4 1845.4,1029.0 1831.1,1018.7 1816.4,1004.5 1801.4,986.5 1786.0,964.8 1770.5,939.4 1754.7,910.7 1738.8,878.6 1722.8,843.5 1706.8,805.4 1690.8,764.7 1674.9,721.6 1659.1,676.3 1643.6,629.1 1628.4,580.4 1613.6,530.4 1599.2,479.6 1585.3,428.2  Z" style="stroke-width: 0.0;  fill: rgb(22,118,50);" />
</g>
<defs>
<pattern id="hline-sparse" width="10" height="10" patternTransform="rotate(0 0 0)" patternUnits="userSpaceOnUse"><line x1="0" y1="0" x2="10" y2="0" style="stroke:black;stroke-width:2" /></pattern>
<pattern id="vline-sparse" width="10" height="10" patternTransform="rotate(0 0 0)" patternUnits="userSpaceOnUse"><line x1="0" y1="0" x2="0" y2="10" style="stroke:black;stroke-width:2" /></pattern>
<pattern id="checker" width="10" height="10" patternTransform="rotate(45 0 0)" patternUnits="userSpaceOnUse"><line x1="0" y1="0" x2="10" y2="0" style="stroke:black;stroke-width:2" /><line x1="0" y1="0" x2="0" y2="10" style="stroke:black;stroke-width:2" /></pattern>
<pattern id="vline" width="10" height="10" patternTransform="rotate(0 0 0)" patternUnits="userSpaceOnUse"><line x1="0" y1="0" x2="0" y2="10" style="stroke:black;stroke-width:5" /></pattern>
<pattern id="checker" width="10" height="10" patternTransform="rotate(45 0 0)" patternUnits="userSpaceOnUse"><line x1="0" y1="0" x2="10" y2="0" style="stroke:black;stroke-width:5" /><line x1="0" y1="0" x2="0" y2="10" style="stroke:black;stroke-width:4" /></pattern>
<pattern id="hline" width="10" height="10" patternTransform="rotate(0 0 0)" patternUnits="userSpaceOnUse"><line x1="0" y1="0" x2="10" y2="0" style="stroke:black;stroke-width:5" /></pattern>
</defs>
</svg>
