<?xml version="1.0" encoding="utf-8" standalone="no"?>
<!DOCTYPE svg PUBLIC "-//W3C//DTD SVG 1.1//EN" "http://www.w3.org/Graphics/SVG/1.1/DTD/svg11.dtd">
<svg width="4000px" height="4000px" version="1.1" xmlns="http://www.w3.org/2000/svg" xmlns:xlink="http://www.w3.org/1999/xlink">
<g id="bg">
<rect x="0" y="0" width="4000px" height="4000px" style="fill:rgb(255,255,255);"/>
</g>
<g id="ideograms">
<path d="M2000.000,358.000 A1642.000,1642.000 40.000 0,1 2727.139,527.779 L2743.967,493.709 A1680.000,1680.000 0.000 0,0 2000.000,320.000 Z" style="stroke-width:2.0;stroke:rgb(255,255,255);stroke-linecap:round;fill:rgb(185,185,185);" />
<text x="2412.3" y="302.2" font-size="36.4px" font-family="CMUBright-Roman" style="text-anchor:start;fill:rgb(0,0,0);" transform="rotate(283.1,2412.3,302.2)" >Engineering</text>
<path d="M2000.000,358.000 A1642.000,1642.000 40.000 0,1 2727.139,527.779 L2743.967,493.709 A1680.000,1680.000 0.000 0,0 2000.000,320.000 Z" style="stroke-width:2.0;stroke:rgb(255,255,255);stroke-linecap:round;fill:none;" />
<path d="M2759.082,543.992 A1642.000,1642.000 40.000 0,1 3284.099,976.646 L3313.816,952.963 A1680.000,1680.000 0.000 0,0 2776.649,510.297 Z" style="stroke-width:2.0;stroke:rgb(255,255,255);stroke-linecap:round;fill:rgb(185,185,185);" />
<text x="3120.8" y="659.6" font-size="36.4px" font-family="CMUBright-Roman" style="text-anchor:start;fill:rgb(0,0,0);" transform="rotate(309.5,3120.8,659.6)" >Finance-Investment</text>
<path d="M2759.082,543.992 A1642.000,1642.000 40.000 0,1 3284.099,976.646 L3313.816,952.963 A1680.000,1680.000 0.000 0,0 2776.649,510.297 Z" style="stroke-width:2.0;stroke:rgb(255,255,255);stroke-linecap:round;fill:none;" />
<path d="M3306.118,1004.902 A1642.000,1642.000 40.000 0,1 3557.132,1478.938 L3593.167,1466.879 A1680.000,1680.000 0.000 0,0 3336.345,981.873 Z" style="stroke-width:2.0;stroke:rgb(255,255,255);stroke-linecap:round;fill:rgb(185,185,185);" />
<text x="3551.5" y="1196.5" font-size="36.4px" font-family="CMUBright-Roman" style="text-anchor:start;fill:rgb(0,0,0);" transform="rotate(332.1,3551.5,1196.5)" >Management-Operations</text>
<path d="M3306.118,1004.902 A1642.000,1642.000 40.000 0,1 3557.132,1478.938 L3593.167,1466.879 A1680.000,1680.000 0.000 0,0 3336.345,981.873 Z" style="stroke-width:2.0;stroke:rgb(255,255,255);stroke-linecap:round;fill:none;" />
<path d="M3568.128,1513.031 A1642.000,1642.000 40.000 0,1 3640.479,1929.339 L3678.444,1927.703 A1680.000,1680.000 0.000 0,0 3604.418,1501.761 Z" style="stroke-width:2.0;stroke:rgb(255,255,255);stroke-linecap:round;fill:rgb(185,185,185);" />
<text x="3723.5" y="1713.2" font-size="36.4px" font-family="CMUBright-Roman" style="text-anchor:start;fill:rgb(0,0,0);" transform="rotate(350.1,3723.5,1713.2)" >Software-Data</text>
<path d="M3568.128,1513.031 A1642.000,1642.000 40.000 0,1 3640.479,1929.339 L3678.444,1927.703 A1680.000,1680.000 0.000 0,0 3604.418,1501.761 Z" style="stroke-width:2.0;stroke:rgb(255,255,255);stroke-linecap:round;fill:none;" />
<path d="M3641.630,1965.142 A1642.000,1642.000 40.000 0,1 3597.388,2380.151 L3634.356,2388.948 A1680.000,1680.000 0.000 0,0 3679.621,1964.336 Z" style="stroke-width:2.0;stroke:rgb(255,255,255);stroke-linecap:round;fill:rgb(185,185,185);" />
<text x="3735.6" y="2201.1" font-size="36.4px" font-family="CMUBright-Roman" style="text-anchor:start;fill:rgb(0,0,0);" transform="rotate(6.1,3735.6,2201.1)" >Sales-Marketing</text>
<path d="M3641.630,1965.142 A1642.000,1642.000 40.000 0,1 3597.388,2380.151 L3634.356,2388.948 A1680.000,1680.000 0.000 0,0 3679.621,1964.336 Z" style="stroke-width:2.0;stroke:rgb(255,255,255);stroke-linecap:round;fill:none;" />
<path d="M3588.715,2414.907 A1642.000,1642.000 40.000 0,1 3447.858,2774.513 L3481.365,2792.437 A1680.000,1680.000 0.000 0,0 3625.482,2424.509 Z" style="stroke-width:2.0;stroke:rgb(255,255,255);stroke-linecap:round;fill:rgb(185,185,185);" />
<text x="3620.9" y="2652.1" font-size="36.4px" font-family="CMUBright-Roman" style="text-anchor:start;fill:rgb(0,0,0);" transform="rotate(21.4,3620.9,2652.1)" >Accounting-Audit</text>
<path d="M3588.715,2414.907 A1642.000,1642.000 40.000 0,1 3447.858,2774.513 L3481.365,2792.437 A1680.000,1680.000 0.000 0,0 3625.482,2424.509 Z" style="stroke-width:2.0;stroke:rgb(255,255,255);stroke-linecap:round;fill:none;" />
<path d="M3430.618,2805.914 A1642.000,1642.000 40.000 0,1 3261.549,3051.027 L3290.745,3075.350 A1680.000,1680.000 0.000 0,0 3463.726,2824.565 Z" style="stroke-width:2.0;stroke:rgb(255,255,255);stroke-linecap:round;fill:rgb(185,185,185);" />
<text x="3429.4" y="3004.8" font-size="36.4px" font-family="CMUBright-Roman" style="text-anchor:start;fill:rgb(0,0,0);" transform="rotate(34.6,3429.4,3004.8)" >Leadership-General</text>
<path d="M3430.618,2805.914 A1642.000,1642.000 40.000 0,1 3261.549,3051.027 L3290.745,3075.350 A1680.000,1680.000 0.000 0,0 3463.726,2824.565 Z" style="stroke-width:2.0;stroke:rgb(255,255,255);stroke-linecap:round;fill:none;" />
<path d="M3238.321,3078.297 A1642.000,1642.000 40.000 0,1 3039.505,3271.060 L3063.562,3300.476 A1680.000,1680.000 0.000 0,0 3266.979,3103.252 Z" style="stroke-width:2.0;stroke:rgb(255,255,255);stroke-linecap:round;fill:rgb(185,185,185);" />
<text x="3207.2" y="3263.1" font-size="36.4px" font-family="CMUBright-Roman" style="text-anchor:start;fill:rgb(0,0,0);" transform="rotate(45.9,3207.2,3263.1)" >Clinical-Care</text>
<path d="M3238.321,3078.297 A1642.000,1642.000 40.000 0,1 3039.505,3271.060 L3063.562,3300.476 A1680.000,1680.000 0.000 0,0 3266.979,3103.252 Z" style="stroke-width:2.0;stroke:rgb(255,255,255);stroke-linecap:round;fill:none;" />
<path d="M3011.529,3293.434 A1642.000,1642.000 40.000 0,1 2784.385,3442.534 L2802.537,3475.918 A1680.000,1680.000 0.000 0,0 3034.939,3323.368 Z" style="stroke-width:2.0;stroke:rgb(255,255,255);stroke-linecap:round;fill:rgb(185,185,185);" />
<text x="2948.3" y="3467.5" font-size="36.4px" font-family="CMUBright-Roman" style="text-anchor:start;fill:rgb(0,0,0);" transform="rotate(56.7,2948.3,3467.5)" >Research-Science</text>
<path d="M3011.529,3293.434 A1642.000,1642.000 40.000 0,1 2784.385,3442.534 L2802.537,3475.918 A1680.000,1680.000 0.000 0,0 3034.939,3323.368 Z" style="stroke-width:2.0;stroke:rgb(255,255,255);stroke-linecap:round;fill:none;" />
<path d="M2752.729,3459.302 A1642.000,1642.000 40.000 0,1 2556.245,3544.913 L2569.118,3580.666 A1680.000,1680.000 0.000 0,0 2770.149,3493.074 Z" style="stroke-width:2.0;stroke:rgb(255,255,255);stroke-linecap:round;fill:rgb(185,185,185);" />
<text x="2686.4" y="3606.7" font-size="36.4px" font-family="CMUBright-Roman" style="text-anchor:start;fill:rgb(0,0,0);" transform="rotate(66.5,2686.4,3606.7)" >Education</text>
<path d="M2752.729,3459.302 A1642.000,1642.000 40.000 0,1 2556.245,3544.913 L2569.118,3580.666 A1680.000,1680.000 0.000 0,0 2770.149,3493.074 Z" style="stroke-width:2.0;stroke:rgb(255,255,255);stroke-linecap:round;fill:none;" />
<path d="M2522.411,3556.679 A1642.000,1642.000 40.000 0,1 2417.174,3588.121 L2426.829,3624.875 A1680.000,1680.000 0.000 0,0 2534.501,3592.705 Z" style="stroke-width:2.0;stroke:rgb(255,255,255);stroke-linecap:round;fill:rgb(185,185,185);" />
<text x="2488.2" y="3677.6" font-size="36.4px" font-family="CMUBright-Roman" style="text-anchor:start;fill:rgb(0,0,0);" transform="rotate(73.4,2488.2,3677.6)" >IT-Infrastructure</text>
<path d="M2522.411,3556.679 A1642.000,1642.000 40.000 0,1 2417.174,3588.121 L2426.829,3624.875 A1680.000,1680.000 0.000 0,0 2534.501,3592.705 Z" style="stroke-width:2.0;stroke:rgb(255,255,255);stroke-linecap:round;fill:none;" />
<path d="M2382.430,3596.844 A1642.000,1642.000 40.000 0,1 2321.118,3610.294 L2328.550,3647.560 A1680.000,1680.000 0.000 0,0 2391.281,3633.799 Z" style="stroke-width:2.0;stroke:rgb(255,255,255);stroke-linecap:round;fill:rgb(185,185,185);" />
<text x="2358.7" y="3710.0" font-size="36.4px" font-family="CMUBright-Roman" style="text-anchor:start;fill:rgb(0,0,0);" transform="rotate(77.6,2358.7,3710.0)" >Legal-Policy</text>
<path d="M2382.430,3596.844 A1642.000,1642.000 40.000 0,1 2321.118,3610.294 L2328.550,3647.560 A1680.000,1680.000 0.000 0,0 2391.281,3633.799 Z" style="stroke-width:2.0;stroke:rgb(255,255,255);stroke-linecap:round;fill:none;" />
<path d="M2285.913,3616.916 A1642.000,1642.000 40.000 0,1 2249.787,3622.890 L2255.567,3660.447 A1680.000,1680.000 0.000 0,0 2292.530,3654.336 Z" style="stroke-width:2.0;stroke:rgb(255,255,255);stroke-linecap:round;fill:rgb(185,185,185);" />
<text x="2272.7" y="3725.8" font-size="36.4px" font-family="CMUBright-Roman" style="text-anchor:start;fill:rgb(0,0,0);" transform="rotate(80.6,2272.7,3725.8)" >Social-Service</text>
<path d="M2285.913,3616.916 A1642.000,1642.000 40.000 0,1 2249.787,3622.890 L2255.567,3660.447 A1680.000,1680.000 0.000 0,0 2292.530,3654.336 Z" style="stroke-width:2.0;stroke:rgb(255,255,255);stroke-linecap:round;fill:none;" />
<path d="M2214.324,3627.952 A1642.000,1642.000 40.000 0,1 1245.263,3458.265 L1227.797,3492.013 A1680.000,1680.000 0.000 0,0 2219.284,3665.627 Z" style="stroke-width:2.0;stroke:rgb(255,255,255);stroke-linecap:round;fill:rgb(15,52,135);" />
<text x="1714.4" y="3723.7" font-size="36.4px" font-family="CMUBright-Roman" style="text-anchor:end;fill:rgb(0,0,0);" transform="rotate(-80.1,1714.4,3723.7)" >Finance-Accounting</text>
<path d="M2214.324,3627.952 A1642.000,1642.000 40.000 0,1 1245.263,3458.265 L1227.797,3492.013 A1680.000,1680.000 0.000 0,0 2219.284,3665.627 Z" style="stroke-width:2.0;stroke:rgb(255,255,255);stroke-linecap:round;fill:none;" />
<path d="M1213.631,3441.453 A1642.000,1642.000 40.000 0,1 879.437,3200.209 L853.504,3227.985 A1680.000,1680.000 0.000 0,0 1195.432,3474.812 Z" style="stroke-width:2.0;stroke:rgb(255,255,255);stroke-linecap:round;fill:rgb(28,75,160);" />
<text x="990.4" y="3426.0" font-size="36.4px" font-family="CMUBright-Roman" style="text-anchor:end;fill:rgb(0,0,0);" transform="rotate(-54.2,990.4,3426.0)" >Marketing-Communication</text>
<path d="M1213.631,3441.453 A1642.000,1642.000 40.000 0,1 879.437,3200.209 L853.504,3227.985 A1680.000,1680.000 0.000 0,0 1195.432,3474.812 Z" style="stroke-width:2.0;stroke:rgb(255,255,255);stroke-linecap:round;fill:none;" />
<path d="M853.521,3175.478 A1642.000,1642.000 40.000 0,1 639.254,2918.986 L607.763,2940.253 A1680.000,1680.000 0.000 0,0 826.988,3202.682 Z" style="stroke-width:2.0;stroke:rgb(255,255,255);stroke-linecap:round;fill:rgb(42,98,180);" />
<text x="667.2" y="3129.7" font-size="36.4px" font-family="CMUBright-Roman" style="text-anchor:end;fill:rgb(0,0,0);" transform="rotate(-39.9,667.2,3129.7)" >General-Business</text>
<path d="M853.521,3175.478 A1642.000,1642.000 40.000 0,1 639.254,2918.986 L607.763,2940.253 A1680.000,1680.000 0.000 0,0 826.988,3202.682 Z" style="stroke-width:2.0;stroke:rgb(255,255,255);stroke-linecap:round;fill:none;" />
<path d="M619.530,2889.082 A1642.000,1642.000 40.000 0,1 479.680,2620.315 L444.496,2634.671 A1680.000,1680.000 0.000 0,0 587.583,2909.658 Z" style="stroke-width:2.0;stroke:rgb(255,255,255);stroke-linecap:round;fill:rgb(60,120,198);" />
<text x="457.3" y="2820.2" font-size="36.4px" font-family="CMUBright-Roman" style="text-anchor:end;fill:rgb(0,0,0);" transform="rotate(-27.5,457.3,2820.2)" >Operations-Analytics</text>
<path d="M619.530,2889.082 A1642.000,1642.000 40.000 0,1 479.680,2620.315 L444.496,2634.671 A1680.000,1680.000 0.000 0,0 587.583,2909.658 Z" style="stroke-width:2.0;stroke:rgb(255,255,255);stroke-linecap:round;fill:none;" />
<path d="M466.510,2587.002 A1642.000,1642.000 40.000 0,1 421.749,2453.087 L385.224,2463.573 A1680.000,1680.000 0.000 0,0 431.021,2600.587 Z" style="stroke-width:2.0;stroke:rgb(255,255,255);stroke-linecap:round;fill:rgb(82,145,215);" />
<text x="347.9" y="2568.6" font-size="36.4px" font-family="CMUBright-Roman" style="text-anchor:end;fill:rgb(0,0,0);" transform="rotate(-18.5,347.9,2568.6)" >Specialized-Business</text>
<path d="M466.510,2587.002 A1642.000,1642.000 40.000 0,1 421.749,2453.087 L385.224,2463.573 A1680.000,1680.000 0.000 0,0 431.021,2600.587 Z" style="stroke-width:2.0;stroke:rgb(255,255,255);stroke-linecap:round;fill:none;" />
<path d="M412.241,2418.550 A1642.000,1642.000 40.000 0,1 391.911,2331.987 L354.696,2339.670 A1680.000,1680.000 0.000 0,0 375.496,2428.236 Z" style="stroke-width:2.0;stroke:rgb(255,255,255);stroke-linecap:round;fill:rgb(108,170,228);" />
<text x="301.9" y="2411.1" font-size="36.4px" font-family="CMUBright-Roman" style="text-anchor:end;fill:rgb(0,0,0);" transform="rotate(-13.2,301.9,2411.1)" >Economics</text>
<path d="M412.241,2418.550 A1642.000,1642.000 40.000 0,1 391.911,2331.987 L354.696,2339.670 A1680.000,1680.000 0.000 0,0 375.496,2428.236 Z" style="stroke-width:2.0;stroke:rgb(255,255,255);stroke-linecap:round;fill:none;" />
<path d="M385.052,2296.827 A1642.000,1642.000 40.000 0,1 366.030,2162.194 L328.216,2165.947 A1680.000,1680.000 0.000 0,0 347.678,2303.697 Z" style="stroke-width:2.0;stroke:rgb(255,255,255);stroke-linecap:round;fill:rgb(200,108,30);" />
<text x="271.8" y="2256.8" font-size="36.4px" font-family="CMUBright-Roman" style="text-anchor:end;fill:rgb(0,0,0);" transform="rotate(-8.0,271.8,2256.8)" >Social-Sciences</text>
<path d="M385.052,2296.827 A1642.000,1642.000 40.000 0,1 366.030,2162.194 L328.216,2165.947 A1680.000,1680.000 0.000 0,0 347.678,2303.697 Z" style="stroke-width:2.0;stroke:rgb(255,255,255);stroke-linecap:round;fill:none;" />
<path d="M362.881,2126.510 A1642.000,1642.000 40.000 0,1 359.682,2074.299 L321.721,2076.018 A1680.000,1680.000 0.000 0,0 324.994,2129.438 Z" style="stroke-width:2.0;stroke:rgb(255,255,255);stroke-linecap:round;fill:rgb(220,140,52);" />
<text x="256.9" y="2119.3" font-size="36.4px" font-family="CMUBright-Roman" style="text-anchor:end;fill:rgb(0,0,0);" transform="rotate(-3.5,256.9,2119.3)" >Humanities-Liberal-Arts</text>
<path d="M362.881,2126.510 A1642.000,1642.000 40.000 0,1 359.682,2074.299 L321.721,2076.018 A1680.000,1680.000 0.000 0,0 324.994,2129.438 Z" style="stroke-width:2.0;stroke:rgb(255,255,255);stroke-linecap:round;fill:none;" />
<path d="M358.451,2038.498 A1642.000,1642.000 40.000 0,1 358.158,2022.807 L320.162,2023.335 A1680.000,1680.000 0.000 0,0 320.462,2039.389 Z" style="stroke-width:2.0;stroke:rgb(255,255,255);stroke-linecap:round;fill:rgb(235,168,78);" />
<text x="253.4" y="2045.1" font-size="36.4px" font-family="CMUBright-Roman" style="text-anchor:end;fill:rgb(0,0,0);" transform="rotate(-1.1,253.4,2045.1)" >International-Studies</text>
<path d="M358.451,2038.498 A1642.000,1642.000 40.000 0,1 358.158,2022.807 L320.162,2023.335 A1680.000,1680.000 0.000 0,0 320.462,2039.389 Z" style="stroke-width:2.0;stroke:rgb(255,255,255);stroke-linecap:round;fill:none;" />
<path d="M358.052,1986.985 A1642.000,1642.000 40.000 0,1 367.336,1825.152 L329.552,1821.105 A1680.000,1680.000 0.000 0,0 320.053,1986.684 Z" style="stroke-width:2.0;stroke:rgb(255,255,255);stroke-linecap:round;fill:rgb(175,35,42);" />
<text x="255.0" y="1912.4" font-size="36.4px" font-family="CMUBright-Roman" style="text-anchor:end;fill:rgb(0,0,0);" transform="rotate(3.3,255.0,1912.4)" >Teacher-Education</text>
<path d="M358.052,1986.985 A1642.000,1642.000 40.000 0,1 367.336,1825.152 L329.552,1821.105 A1680.000,1680.000 0.000 0,0 320.053,1986.684 Z" style="stroke-width:2.0;stroke:rgb(255,255,255);stroke-linecap:round;fill:none;" />
<path d="M371.539,1789.577 A1642.000,1642.000 40.000 0,1 376.636,1753.316 L339.067,1747.607 A1680.000,1680.000 0.000 0,0 333.852,1784.707 Z" style="stroke-width:2.0;stroke:rgb(255,255,255);stroke-linecap:round;fill:rgb(195,58,55);" />
<text x="268.1" y="1769.2" font-size="36.4px" font-family="CMUBright-Roman" style="text-anchor:end;fill:rgb(0,0,0);" transform="rotate(8.0,268.1,1769.2)" >Social-Work</text>
<path d="M371.539,1789.577 A1642.000,1642.000 40.000 0,1 376.636,1753.316 L339.067,1747.607 A1680.000,1680.000 0.000 0,0 333.852,1784.707 Z" style="stroke-width:2.0;stroke:rgb(255,255,255);stroke-linecap:round;fill:none;" />
<path d="M382.404,1717.961 A1642.000,1642.000 40.000 0,1 388.090,1687.094 L350.786,1679.853 A1680.000,1680.000 0.000 0,0 344.968,1711.434 Z" style="stroke-width:2.0;stroke:rgb(255,255,255);stroke-linecap:round;fill:rgb(215,82,72);" />
<text x="279.0" y="1698.7" font-size="36.4px" font-family="CMUBright-Roman" style="text-anchor:end;fill:rgb(0,0,0);" transform="rotate(10.4,279.0,1698.7)" >Special-Education</text>
<path d="M382.404,1717.961 A1642.000,1642.000 40.000 0,1 388.090,1687.094 L350.786,1679.853 A1680.000,1680.000 0.000 0,0 344.968,1711.434 Z" style="stroke-width:2.0;stroke:rgb(255,255,255);stroke-linecap:round;fill:none;" />
<path d="M395.300,1652.005 A1642.000,1642.000 40.000 0,1 396.416,1646.895 L359.305,1638.723 A1680.000,1680.000 0.000 0,0 358.163,1643.952 Z" style="stroke-width:2.0;stroke:rgb(255,255,255);stroke-linecap:round;fill:rgb(230,112,95);" />
<text x="289.8" y="1642.1" font-size="36.4px" font-family="CMUBright-Roman" style="text-anchor:end;fill:rgb(0,0,0);" transform="rotate(12.3,289.8,1642.1)" >Educational-Leadership</text>
<path d="M395.300,1652.005 A1642.000,1642.000 40.000 0,1 396.416,1646.895 L359.305,1638.723 A1680.000,1680.000 0.000 0,0 358.163,1643.952 Z" style="stroke-width:2.0;stroke:rgb(255,255,255);stroke-linecap:round;fill:none;" />
<path d="M404.501,1611.997 A1642.000,1642.000 40.000 0,1 423.388,1541.244 L386.901,1530.627 A1680.000,1680.000 0.000 0,0 367.577,1603.017 Z" style="stroke-width:2.0;stroke:rgb(255,255,255);stroke-linecap:round;fill:rgb(0,130,142);" />
<text x="308.7" y="1561.5" font-size="36.4px" font-family="CMUBright-Roman" style="text-anchor:end;fill:rgb(0,0,0);" transform="rotate(14.9,308.7,1561.5)" >Communication-Studies</text>
<path d="M404.501,1611.997 A1642.000,1642.000 40.000 0,1 423.388,1541.244 L386.901,1530.627 A1680.000,1680.000 0.000 0,0 367.577,1603.017 Z" style="stroke-width:2.0;stroke:rgb(255,255,255);stroke-linecap:round;fill:none;" />
<path d="M433.770,1506.960 A1642.000,1642.000 40.000 0,1 448.549,1462.261 L412.644,1449.816 A1680.000,1680.000 0.000 0,0 397.524,1495.549 Z" style="stroke-width:2.0;stroke:rgb(255,255,255);stroke-linecap:round;fill:rgb(0,165,172);" />
<text x="337.2" y="1463.4" font-size="36.4px" font-family="CMUBright-Roman" style="text-anchor:end;fill:rgb(0,0,0);" transform="rotate(18.3,337.2,1463.4)" >Journalism-Media</text>
<path d="M433.770,1506.960 A1642.000,1642.000 40.000 0,1 448.549,1462.261 L412.644,1449.816 A1680.000,1680.000 0.000 0,0 397.524,1495.549 Z" style="stroke-width:2.0;stroke:rgb(255,255,255);stroke-linecap:round;fill:none;" />
<path d="M460.649,1428.544 A1642.000,1642.000 40.000 0,1 466.181,1413.858 L430.684,1400.293 A1680.000,1680.000 0.000 0,0 425.024,1415.319 Z" style="stroke-width:2.0;stroke:rgb(255,255,255);stroke-linecap:round;fill:rgb(38,195,195);" />
<text x="359.4" y="1399.1" font-size="36.4px" font-family="CMUBright-Roman" style="text-anchor:end;fill:rgb(0,0,0);" transform="rotate(20.6,359.4,1399.1)" >Creative-Writing</text>
<path d="M460.649,1428.544 A1642.000,1642.000 40.000 0,1 466.181,1413.858 L430.684,1400.293 A1680.000,1680.000 0.000 0,0 425.024,1415.319 Z" style="stroke-width:2.0;stroke:rgb(255,255,255);stroke-linecap:round;fill:none;" />
<path d="M479.332,1380.537 A1642.000,1642.000 40.000 0,1 510.660,1308.603 L476.193,1292.602 A1680.000,1680.000 0.000 0,0 444.140,1366.201 Z" style="stroke-width:2.0;stroke:rgb(255,255,255);stroke-linecap:round;fill:rgb(180,45,112);" />
<text x="391.8" y="1317.1" font-size="36.4px" font-family="CMUBright-Roman" style="text-anchor:end;fill:rgb(0,0,0);" transform="rotate(23.5,391.8,1317.1)" >Arts-Theology</text>
<path d="M479.332,1380.537 A1642.000,1642.000 40.000 0,1 510.660,1308.603 L476.193,1292.602 A1680.000,1680.000 0.000 0,0 444.140,1366.201 Z" style="stroke-width:2.0;stroke:rgb(255,255,255);stroke-linecap:round;fill:none;" />
<path d="M526.097,1276.278 A1642.000,1642.000 40.000 0,1 530.738,1266.901 L496.736,1249.936 A1680.000,1680.000 0.000 0,0 491.987,1259.529 Z" style="stroke-width:2.0;stroke:rgb(255,255,255);stroke-linecap:round;fill:rgb(205,75,142);" />
<text x="427.1" y="1239.3" font-size="36.4px" font-family="CMUBright-Roman" style="text-anchor:end;fill:rgb(0,0,0);" transform="rotate(26.3,427.1,1239.3)" >English-Writing</text>
<path d="M526.097,1276.278 A1642.000,1642.000 40.000 0,1 530.738,1266.901 L496.736,1249.936 A1680.000,1680.000 0.000 0,0 491.987,1259.529 Z" style="stroke-width:2.0;stroke:rgb(255,255,255);stroke-linecap:round;fill:none;" />
<path d="M547.080,1235.024 A1642.000,1642.000 40.000 0,1 549.525,1230.399 L515.957,1212.589 A1680.000,1680.000 0.000 0,0 513.456,1217.321 Z" style="stroke-width:2.0;stroke:rgb(255,255,255);stroke-linecap:round;fill:rgb(225,110,168);" />
<text x="447.9" y="1197.7" font-size="36.4px" font-family="CMUBright-Roman" style="text-anchor:end;fill:rgb(0,0,0);" transform="rotate(27.9,447.9,1197.7)" >Languages</text>
<path d="M547.080,1235.024 A1642.000,1642.000 40.000 0,1 549.525,1230.399 L515.957,1212.589 A1680.000,1680.000 0.000 0,0 513.456,1217.321 Z" style="stroke-width:2.0;stroke:rgb(255,255,255);stroke-linecap:round;fill:none;" />
<path d="M566.659,1198.940 A1642.000,1642.000 40.000 0,1 748.337,937.219 L719.370,912.624 A1680.000,1680.000 0.000 0,0 533.488,1180.402 Z" style="stroke-width:2.0;stroke:rgb(255,255,255);stroke-linecap:round;fill:rgb(88,40,138);" />
<text x="555.7" y="1016.9" font-size="36.4px" font-family="CMUBright-Roman" style="text-anchor:end;fill:rgb(0,0,0);" transform="rotate(34.8,555.7,1016.9)" >Biological-Sciences</text>
<path d="M566.659,1198.940 A1642.000,1642.000 40.000 0,1 748.337,937.219 L719.370,912.624 A1680.000,1680.000 0.000 0,0 533.488,1180.402 Z" style="stroke-width:2.0;stroke:rgb(255,255,255);stroke-linecap:round;fill:none;" />
<path d="M771.819,910.167 A1642.000,1642.000 40.000 0,1 821.633,856.490 L794.362,830.027 A1680.000,1680.000 0.000 0,0 743.396,884.946 Z" style="stroke-width:2.0;stroke:rgb(255,255,255);stroke-linecap:round;fill:rgb(115,65,165);" />
<text x="710.8" y="820.7" font-size="36.4px" font-family="CMUBright-Roman" style="text-anchor:end;fill:rgb(0,0,0);" transform="rotate(42.9,710.8,820.7)" >Health-Wellness</text>
<path d="M771.819,910.167 A1642.000,1642.000 40.000 0,1 821.633,856.490 L794.362,830.027 A1680.000,1680.000 0.000 0,0 743.396,884.946 Z" style="stroke-width:2.0;stroke:rgb(255,255,255);stroke-linecap:round;fill:none;" />
<path d="M846.858,831.057 A1642.000,1642.000 40.000 0,1 873.212,805.633 L847.135,777.993 A1680.000,1680.000 0.000 0,0 820.172,804.004 Z" style="stroke-width:2.0;stroke:rgb(255,255,255);stroke-linecap:round;fill:rgb(140,92,188);" />
<text x="775.8" y="753.4" font-size="36.4px" font-family="CMUBright-Roman" style="text-anchor:end;fill:rgb(0,0,0);" transform="rotate(46.0,775.8,753.4)" >Physical-Sciences</text>
<path d="M846.858,831.057 A1642.000,1642.000 40.000 0,1 873.212,805.633 L847.135,777.993 A1680.000,1680.000 0.000 0,0 820.172,804.004 Z" style="stroke-width:2.0;stroke:rgb(255,255,255);stroke-linecap:round;fill:none;" />
<path d="M899.535,781.337 A1642.000,1642.000 40.000 0,1 903.423,777.837 L878.045,749.553 A1680.000,1680.000 0.000 0,0 874.067,753.134 Z" style="stroke-width:2.0;stroke:rgb(255,255,255);stroke-linecap:round;fill:rgb(165,120,208);" />
<text x="821.8" y="709.8" font-size="36.4px" font-family="CMUBright-Roman" style="text-anchor:end;fill:rgb(0,0,0);" transform="rotate(48.0,821.8,709.8)" >Environmental-Sciences</text>
<path d="M899.535,781.337 A1642.000,1642.000 40.000 0,1 903.423,777.837 L878.045,749.553 A1680.000,1680.000 0.000 0,0 874.067,753.134 Z" style="stroke-width:2.0;stroke:rgb(255,255,255);stroke-linecap:round;fill:none;" />
<path d="M930.345,754.206 A1642.000,1642.000 40.000 0,1 1638.399,398.311 L1630.030,361.244 A1680.000,1680.000 0.000 0,0 905.590,725.375 Z" style="stroke-width:2.0;stroke:rgb(255,255,255);stroke-linecap:round;fill:rgb(22,118,50);" />
<text x="1201.1" y="446.2" font-size="36.4px" font-family="CMUBright-Roman" style="text-anchor:end;fill:rgb(0,0,0);" transform="rotate(63.3,1201.1,446.2)" >Engineering-Disciplines</text>
<path d="M930.345,754.206 A1642.000,1642.000 40.000 0,1 1638.399,398.311 L1630.030,361.244 A1680.000,1680.000 0.000 0,0 905.590,725.375 Z" style="stroke-width:2.0;stroke:rgb(255,255,255);stroke-linecap:round;fill:none;" />
<path d="M1673.425,390.804 A1642.000,1642.000 40.000 0,1 1964.180,358.391 L1963.351,320.400 A1680.000,1680.000 0.000 0,0 1665.867,353.563 Z" style="stroke-width:2.0;stroke:rgb(255,255,255);stroke-linecap:round;fill:rgb(48,158,75);" />
<text x="1791.0" y="265.3" font-size="36.4px" font-family="CMUBright-Roman" style="text-anchor:end;fill:rgb(0,0,0);" transform="rotate(83.6,1791.0,265.3)" >Computer-Science-IT</text>
<path d="M1673.425,390.804 A1642.000,1642.000 40.000 0,1 1964.180,358.391 L1963.351,320.400 A1680.000,1680.000 0.000 0,0 1665.867,353.563 Z" style="stroke-width:2.0;stroke:rgb(255,255,255);stroke-linecap:round;fill:none;" />
</g>
<g id="track_0">
<path d="M 401.201,2293.859 A 1625.580,1625.580 0.00 0,1 399.4,2283.7 L 399.4,2283.7 458.3,2274.6 518.6,2267.9 580.1,2263.7 642.5,2262.1 705.6,2263.1 769.3,2266.6 833.5,2272.8 897.8,2281.6 962.2,2293.0 1026.5,2307.0 1090.5,2323.7 1154.1,2342.9 1217.2,2364.8 1279.5,2389.1 1341.0,2416.0 1401.5,2445.4 1460.9,2477.2 1519.0,2511.3 1575.8,2547.8 1631.1,2586.5 1684.8,2627.3 1736.9,2670.2 1787.1,2715.0 1835.5,2761.8 1881.8,2810.3 1926.1,2860.5 1968.3,2912.2 2008.2,2965.3 2045.8,3019.7 2081.1,3075.3 2113.9,3131.9 2144.3,3189.3 2172.1,3247.4 2197.3,3306.0 2219.8,3365.0 2239.7,3424.2 2256.9,3483.3 2271.4,3542.2 2283.1,3600.7  A 1625.580,1625.580 0.00 0,1 2272.8,3602.5 L 2272.8,3602.5 2261.6,3544.0 2247.5,3485.1 2230.7,3426.0 2211.3,3366.9 2189.1,3307.9 2164.3,3249.3 2137.0,3191.2 2107.0,3133.9 2074.6,3077.3 2039.8,3021.8 2002.6,2967.5 1963.1,2914.5 1921.3,2862.9 1877.4,2812.8 1831.4,2764.4 1783.5,2717.8 1733.6,2673.2 1681.9,2630.5 1628.5,2589.8 1573.5,2551.4 1517.1,2515.2 1459.2,2481.3 1400.1,2449.8 1339.9,2420.7 1278.7,2394.2 1216.6,2370.1 1153.8,2348.6 1090.4,2329.7 1026.6,2313.4 962.5,2299.7 898.3,2288.7 834.1,2280.3 770.2,2274.5 706.7,2271.4 643.7,2270.8 581.5,2272.8 520.2,2277.4 460.0,2284.4 401.2,2293.9  Z" style="stroke-width: 0.0;  fill: rgb(200,108,30);" />
<path d="M 399.361,2283.666 A 1625.580,1625.580 0.00 0,1 395.9,2263.2 L 395.9,2263.2 455.5,2254.8 516.6,2248.9 578.8,2245.4 642.1,2244.5 706.2,2246.2 771.0,2250.4 836.3,2257.3 901.9,2266.7 967.7,2278.7 1033.4,2293.3 1099.1,2310.5 1164.4,2330.2 1229.3,2352.4 1293.6,2377.1 1357.2,2404.3 1419.9,2433.8 1481.7,2465.7 1542.3,2499.9 1601.7,2536.3 1659.8,2574.9 1716.4,2615.6 1771.4,2658.2 1824.7,2702.8 1876.3,2749.2 1925.9,2797.3 1973.6,2847.0 2019.2,2898.2 2062.7,2950.9 2104.0,3004.7 2142.9,3059.7 2179.4,3115.7 2213.5,3172.5 2245.1,3230.1 2274.1,3288.1 2300.5,3346.6 2324.2,3405.3 2345.1,3464.0 2363.3,3522.6 2378.6,3580.9  A 1625.580,1625.580 0.00 0,1 2358.4,3585.6 L 2358.4,3585.6 2343.9,3527.3 2326.6,3468.7 2306.4,3410.0 2283.6,3351.3 2258.1,3292.8 2229.9,3234.8 2199.2,3177.3 2165.9,3120.5 2130.2,3064.5 2092.1,3009.6 2051.7,2955.9 2009.0,2903.4 1964.1,2852.4 1917.2,2802.9 1868.3,2755.0 1817.5,2708.9 1764.9,2664.6 1710.5,2622.3 1654.6,2582.0 1597.2,2543.9 1538.4,2507.9 1478.3,2474.2 1417.2,2442.8 1355.0,2413.8 1291.9,2387.3 1228.0,2363.2 1163.6,2341.6 1098.7,2322.6 1033.5,2306.2 968.1,2292.3 902.7,2281.0 837.5,2272.3 772.6,2266.3 708.1,2262.8 644.3,2261.9 581.4,2263.6 519.4,2267.8 458.7,2274.5 399.4,2283.7  Z" style="stroke-width: 0.0;  fill: rgb(200,108,30);" />
<path d="M 395.877,2263.246 A 1625.580,1625.580 0.00 0,1 394.2,2253.0 L 394.2,2253.0 454.7,2244.9 516.7,2239.2 580.0,2236.0 644.4,2235.4 709.8,2237.2 776.0,2241.7 842.8,2248.6 910.1,2258.1 977.8,2270.1 1045.6,2284.7 1113.4,2301.7 1181.2,2321.1 1248.6,2343.0 1315.7,2367.3 1382.2,2393.9 1448.1,2422.8 1513.2,2454.0 1577.3,2487.4 1640.4,2522.9 1702.3,2560.4 1762.9,2600.0 1822.2,2641.5 1879.9,2684.8 1935.9,2729.8 1990.3,2776.6 2042.8,2824.8 2093.3,2874.6 2141.9,2925.7 2188.3,2978.0 2232.5,3031.5 2274.4,3085.9 2313.9,3141.2 2350.9,3197.3 2385.4,3253.9 2417.3,3311.1 2446.5,3368.5 2472.9,3426.1 2496.5,3483.7 2517.2,3541.1  A 1625.580,1625.580 0.00 0,1 2507.4,3544.4 L 2507.4,3544.4 2487.1,3486.9 2463.9,3429.3 2437.9,3371.7 2409.1,3314.2 2377.7,3257.0 2343.6,3200.3 2307.0,3144.3 2267.9,3088.9 2226.4,3034.5 2182.6,2981.0 2136.6,2928.7 2088.4,2877.7 2038.2,2828.0 1986.1,2779.8 1932.1,2733.1 1876.4,2688.2 1819.0,2645.0 1760.1,2603.6 1699.8,2564.2 1638.2,2526.9 1575.4,2491.6 1511.5,2458.4 1446.7,2427.5 1381.1,2398.8 1314.8,2372.5 1248.0,2348.5 1180.7,2326.9 1113.2,2307.8 1045.6,2291.1 977.9,2277.0 910.5,2265.3 843.3,2256.2 776.7,2249.6 710.6,2245.6 645.4,2244.1 581.2,2245.1 518.0,2248.7 456.2,2254.7 395.9,2263.2  Z" style="stroke-width: 0.0;  fill: rgb(200,108,30);" />
<path d="M 394.232,2253.020 A 1625.580,1625.580 0.00 0,1 393.4,2247.9 L 393.4,2247.9 455.3,2239.7 518.8,2234.0 583.7,2230.7 650.0,2229.9 717.5,2231.5 785.9,2235.6 855.3,2242.0 925.4,2250.8 996.0,2262.0 1067.1,2275.6 1138.5,2291.4 1210.1,2309.5 1281.7,2329.8 1353.2,2352.4 1424.5,2377.0 1495.4,2403.8 1565.8,2432.7 1635.6,2463.5 1704.6,2496.3 1772.7,2531.0 1839.8,2567.4 1905.8,2605.7 1970.5,2645.6 2033.9,2687.2 2095.8,2730.3 2156.1,2774.8 2214.7,2820.7 2271.5,2867.9 2326.3,2916.4 2379.1,2965.9 2429.7,3016.4 2478.1,3067.9 2524.2,3120.1 2567.7,3173.1 2608.7,3226.7 2647.1,3280.8 2682.7,3335.2 2715.4,3389.9 2745.2,3444.7  A 1625.580,1625.580 0.00 0,1 2740.6,3447.1 L 2740.6,3447.1 2711.0,3392.2 2678.5,3337.5 2643.1,3283.0 2604.9,3228.9 2564.1,3175.2 2520.8,3122.2 2474.9,3069.9 2426.7,3018.4 2376.3,2967.8 2323.7,2918.3 2269.0,2869.9 2212.4,2822.6 2154.0,2776.7 2093.9,2732.2 2032.2,2689.1 1968.9,2647.6 1904.4,2607.7 1838.5,2569.5 1771.5,2533.1 1703.5,2498.5 1634.7,2465.7 1565.0,2435.0 1494.8,2406.3 1424.0,2379.6 1352.8,2355.0 1281.4,2332.6 1209.9,2312.5 1138.4,2294.5 1067.1,2278.8 996.1,2265.5 925.5,2254.5 855.5,2245.8 786.3,2239.5 717.9,2235.7 650.5,2234.3 584.3,2235.3 519.4,2238.7 456.0,2244.7 394.2,2253.0  Z" style="stroke-width: 0.0;  fill: rgb(200,108,30);" />
<path d="M 393.434,2247.903 A 1625.580,1625.580 0.00 0,1 390.4,2227.4 L 390.4,2227.4 454.2,2219.7 519.7,2214.4 586.8,2211.5 655.5,2210.8 725.5,2212.4 796.7,2216.2 869.0,2222.1 942.3,2230.2 1016.5,2240.4 1091.3,2252.7 1166.7,2267.0 1242.6,2283.2 1318.8,2301.3 1395.3,2321.3 1471.8,2343.1 1548.2,2366.7 1624.4,2392.1 1700.4,2419.1 1775.9,2447.7 1850.8,2478.0 1925.0,2509.7 1998.5,2542.9 2070.9,2577.6 2142.4,2613.6 2212.6,2651.0 2281.5,2689.6 2349.0,2729.4 2414.9,2770.4 2479.1,2812.4 2541.5,2855.5 2602.0,2899.6 2660.4,2944.6 2716.6,2990.5 2770.6,3037.2 2822.1,3084.6 2871.0,3132.7 2917.3,3181.5 2960.8,3230.7 3001.4,3280.5  A 1625.580,1625.580 0.00 0,1 2985.0,3293.2 L 2985.0,3293.2 2945.2,3243.1 2902.5,3193.5 2856.9,3144.4 2808.7,3096.0 2758.0,3048.2 2704.8,3001.2 2649.2,2955.0 2591.5,2909.7 2531.7,2865.3 2470.0,2822.0 2406.4,2779.7 2341.2,2738.6 2274.3,2698.6 2206.0,2659.9 2136.3,2622.5 2065.4,2586.5 1993.5,2551.9 1920.6,2518.8 1846.8,2487.2 1772.3,2457.1 1697.3,2428.7 1621.8,2402.0 1546.0,2377.0 1469.9,2353.8 1393.8,2332.4 1317.7,2312.8 1241.9,2295.2 1166.3,2279.6 1091.2,2265.9 1016.7,2254.3 942.8,2244.7 869.9,2237.3 797.8,2232.1 726.9,2229.0 657.2,2228.2 588.9,2229.6 522.1,2233.4 456.9,2239.5 393.4,2247.9  Z" style="stroke-width: 0.0;  fill: rgb(200,108,30);" />
<path d="M 390.405,2227.410 A 1625.580,1625.580 0.00 0,1 386.4,2196.6 L 386.4,2196.6 452.2,2189.8 519.9,2185.3 589.3,2182.9 660.3,2182.6 732.8,2184.3 806.7,2187.9 881.8,2193.5 958.0,2200.8 1035.3,2209.9 1113.4,2220.6 1192.4,2233.0 1272.0,2247.0 1352.2,2262.4 1432.8,2279.4 1513.7,2297.7 1594.8,2317.4 1676.0,2338.5 1757.1,2360.8 1838.0,2384.3 1918.7,2409.0 1998.9,2434.9 2078.6,2461.9 2157.6,2490.0 2235.8,2519.2 2313.1,2549.3 2389.3,2580.5 2464.3,2612.6 2538.1,2645.7 2610.4,2679.7 2681.2,2714.7 2750.2,2750.5 2817.5,2787.1 2882.7,2824.7 2945.9,2863.1 3006.9,2902.3 3065.5,2942.4 3121.7,2983.3 3175.2,3025.0 3225.9,3067.5  A 1625.580,1625.580 0.00 0,1 3205.3,3090.8 L 3205.3,3090.8 3155.6,3047.5 3103.2,3005.1 3048.1,2963.5 2990.5,2922.7 2930.5,2882.7 2868.3,2843.7 2803.9,2805.5 2737.6,2768.2 2669.4,2731.8 2599.4,2696.4 2527.9,2661.9 2454.9,2628.4 2380.6,2595.9 2305.1,2564.4 2228.5,2534.1 2150.9,2504.8 2072.6,2476.6 1993.5,2449.6 1913.8,2423.8 1833.7,2399.2 1753.3,2375.9 1672.7,2354.0 1592.0,2333.3 1511.4,2314.1 1430.9,2296.3 1350.7,2280.0 1271.0,2265.3 1191.8,2252.1 1113.2,2240.5 1035.4,2230.7 958.6,2222.6 882.7,2216.3 808.0,2211.8 734.6,2209.3 662.5,2208.7 592.0,2210.2 523.0,2213.7 455.8,2219.4 390.4,2227.4  Z" style="stroke-width: 0.0;  fill: rgb(200,108,30);" />
<path d="M 386.353,2196.603 A 1625.580,1625.580 0.00 0,1 385.1,2186.3 L 385.1,2186.3 453.1,2179.6 522.9,2174.9 594.5,2172.1 667.7,2171.1 742.5,2171.8 818.7,2174.1 896.2,2177.9 975.0,2183.0 1054.9,2189.6 1135.8,2197.3 1217.7,2206.3 1300.4,2216.4 1383.7,2227.5 1467.7,2239.6 1552.1,2252.7 1637.0,2266.7 1722.0,2281.5 1807.2,2297.1 1892.4,2313.6 1977.6,2330.7 2062.5,2348.6 2147.1,2367.3 2231.3,2386.6 2314.8,2406.6 2397.7,2427.3 2479.8,2448.6 2561.0,2470.7 2641.1,2493.5 2720.0,2517.0 2797.7,2541.2 2873.9,2566.1 2948.5,2591.9 3021.4,2618.5 3092.6,2646.0 3161.7,2674.3 3228.8,2703.6 3293.7,2733.9 3356.3,2765.3 3416.3,2797.9  A 1625.580,1625.580 0.00 0,1 3411.2,2806.9 L 3411.2,2806.9 3351.5,2774.0 3289.2,2742.3 3224.6,2711.7 3157.8,2682.1 3088.9,2653.4 3018.0,2625.7 2945.3,2598.8 2870.9,2572.8 2794.9,2547.6 2717.5,2523.1 2638.8,2499.4 2558.9,2476.5 2477.9,2454.2 2395.9,2432.7 2313.2,2411.9 2229.8,2391.8 2145.7,2372.5 2061.3,2353.8 1976.5,2335.9 1891.5,2318.7 1806.3,2302.4 1721.3,2286.8 1636.3,2272.1 1551.6,2258.3 1467.3,2245.4 1383.4,2233.4 1300.1,2222.5 1217.5,2212.7 1135.8,2204.0 1054.9,2196.5 975.1,2190.3 896.5,2185.4 819.0,2182.0 742.9,2180.1 668.3,2179.8 595.2,2181.2 523.8,2184.4 454.2,2189.5 386.4,2196.6  Z" style="stroke-width: 0.0;  fill: rgb(200,108,30);" />
<path d="M 385.133,2186.318 A 1625.580,1625.580 0.00 0,1 382.4,2160.6 L 382.4,2160.6 451.0,2152.7 521.0,2142.5 592.3,2130.2 664.9,2115.9 738.7,2099.8 813.6,2082.0 889.5,2062.6 966.4,2041.6 1044.1,2019.3 1122.7,1995.7 1201.9,1970.9 1281.8,1945.0 1362.2,1918.1 1443.1,1890.2 1524.2,1861.5 1605.7,1832.1 1687.2,1801.9 1768.9,1771.0 1850.4,1739.5 1931.9,1707.5 2013.0,1674.9 2093.8,1641.8 2174.1,1608.3 2253.7,1574.4 2332.7,1540.1 2410.8,1505.3 2488.0,1470.2 2564.1,1434.7 2639.0,1398.8 2712.6,1362.6 2784.7,1325.9 2855.2,1288.8 2924.0,1251.3 2991.0,1213.3 3055.9,1174.8 3118.8,1135.7 3179.3,1096.1 3237.5,1055.8 3293.1,1014.9  A 1625.580,1625.580 0.00 0,1 3308.6,1035.6 L 3308.6,1035.6 3252.1,1075.9 3193.1,1115.4 3131.7,1154.4 3068.1,1192.8 3002.4,1230.6 2934.7,1267.9 2865.3,1304.8 2794.1,1341.3 2721.4,1377.5 2647.3,1413.2 2571.9,1448.6 2495.3,1483.7 2417.7,1518.5 2339.2,1552.9 2259.8,1587.0 2179.8,1620.8 2099.2,1654.2 2018.2,1687.2 1936.8,1719.7 1855.2,1751.9 1773.4,1783.5 1691.6,1814.6 1609.9,1845.1 1528.4,1874.9 1447.1,1904.1 1366.2,1932.4 1285.7,1959.9 1205.7,1986.4 1126.4,2011.9 1047.8,2036.2 970.0,2059.4 893.0,2081.2 817.1,2101.5 742.1,2120.3 668.2,2137.4 595.5,2152.7 524.1,2166.0 453.9,2177.3 385.1,2186.3  Z" style="stroke-width: 0.0;  fill: rgb(200,108,30);" />
</g>
<defs>
<pattern id="hline" width="10" height="10" patternTransform="rotate(0 0 0)" patternUnits="userSpaceOnUse"><line x1="0" y1="0" x2="10" y2="0" style="stroke:black;stroke-width:5" /></pattern>
<pattern id="vline-sparse" width="10" height="10" patternTransform="rotate(0 0 0)" patternUnits="userSpaceOnUse"><line x1="0" y1="0" x2="0" y2="10" style="stroke:black;stroke-width:2" /></pattern>
<pattern id="vline" width="10" height="10" patternTransform="rotate(0 0 0)" patternUnits="userSpaceOnUse"><line x1="0" y1="0" x2="0" y2="10" style="stroke:black;stroke-width:5" /></pattern>
<pattern id="checker" width="10" height="10" patternTransform="rotate(45 0 0)" patternUnits="userSpaceOnUse"><line x1="0" y1="0" x2="10" y2="0" style="stroke:black;stroke-width:5" /><line x1="0" y1="0" x2="0" y2="10" style="stroke:black;stroke-width:4" /></pattern>
<pattern id="hline-sparse" width="10" height="10" patternTransform="rotate(0 0 0)" patternUnits="userSpaceOnUse"><line x1="0" y1="0" x2="10" y2="0" style="stroke:black;stroke-width:2" /></pattern>
<pattern id="checker" width="10" height="10" patternTransform="rotate(45 0 0)" patternUnits="userSpaceOnUse"><line x1="0" y1="0" x2="10" y2="0" style="stroke:black;stroke-width:2" /><line x1="0" y1="0" x2="0" y2="10" style="stroke:black;stroke-width:2" /></pattern>
</defs>
</svg>
