<?xml version="1.0" encoding="utf-8" standalone="no"?>
<!DOCTYPE svg PUBLIC "-//W3C//DTD SVG 1.1//EN" "http://www.w3.org/Graphics/SVG/1.1/DTD/svg11.dtd">
<svg width="4000px" height="4000px" version="1.1" xmlns="http://www.w3.org/2000/svg" xmlns:xlink="http://www.w3.org/1999/xlink">
<g id="bg">
<rect x="0" y="0" width="4000px" height="4000px" style="fill:rgb(255,255,255);"/>
</g>
<g id="ideograms">
<path d="M2000.000,358.000 A1642.000,1642.000 40.000 0,1 2751.610,540.121 L2769.004,506.336 A1680.000,1680.000 0.000 0,0 2000.000,320.000 Z" style="stroke-width:2.0;stroke:rgb(255,255,255);stroke-linecap:round;fill:rgb(185,185,185);" />
<text x="2427.0" y="305.8" font-size="36.4px" font-family="CMUBright-Roman" style="text-anchor:start;fill:rgb(0,0,0);" transform="rotate(283.6,2427.0,305.8)" >Management-Operations</text>
<path d="M2000.000,358.000 A1642.000,1642.000 40.000 0,1 2751.610,540.121 L2769.004,506.336 A1680.000,1680.000 0.000 0,0 2000.000,320.000 Z" style="stroke-width:2.0;stroke:rgb(255,255,255);stroke-linecap:round;fill:none;" />
<path d="M2783.279,556.865 A1642.000,1642.000 40.000 0,1 3226.411,908.176 L3254.793,882.908 A1680.000,1680.000 0.000 0,0 2801.406,523.467 Z" style="stroke-width:2.0;stroke:rgb(255,255,255);stroke-linecap:round;fill:rgb(185,185,185);" />
<text x="3097.5" y="640.5" font-size="36.4px" font-family="CMUBright-Roman" style="text-anchor:start;fill:rgb(0,0,0);" transform="rotate(308.4,3097.5,640.5)" >Engineering</text>
<path d="M2783.279,556.865 A1642.000,1642.000 40.000 0,1 3226.411,908.176 L3254.793,882.908 A1680.000,1680.000 0.000 0,0 2801.406,523.467 Z" style="stroke-width:2.0;stroke:rgb(255,255,255);stroke-linecap:round;fill:none;" />
<path d="M3249.937,935.189 A1642.000,1642.000 40.000 0,1 3507.538,1349.236 L3542.426,1334.176 A1680.000,1680.000 0.000 0,0 3278.864,910.547 Z" style="stroke-width:2.0;stroke:rgb(255,255,255);stroke-linecap:round;fill:rgb(185,185,185);" />
<text x="3491.6" y="1090.2" font-size="36.4px" font-family="CMUBright-Roman" style="text-anchor:start;fill:rgb(0,0,0);" transform="rotate(328.1,3491.6,1090.2)" >Leadership-General</text>
<path d="M3249.937,935.189 A1642.000,1642.000 40.000 0,1 3507.538,1349.236 L3542.426,1334.176 A1680.000,1680.000 0.000 0,0 3278.864,910.547 Z" style="stroke-width:2.0;stroke:rgb(255,255,255);stroke-linecap:round;fill:none;" />
<path d="M3521.375,1382.278 A1642.000,1642.000 40.000 0,1 3633.192,1830.154 L3670.988,1826.223 A1680.000,1680.000 0.000 0,0 3556.584,1367.982 Z" style="stroke-width:2.0;stroke:rgb(255,255,255);stroke-linecap:round;fill:rgb(185,185,185);" />
<text x="3699.0" y="1592.3" font-size="36.4px" font-family="CMUBright-Roman" style="text-anchor:start;fill:rgb(0,0,0);" transform="rotate(346.0,3699.0,1592.3)" >Sales-Marketing</text>
<path d="M3521.375,1382.278 A1642.000,1642.000 40.000 0,1 3633.192,1830.154 L3670.988,1826.223 A1680.000,1680.000 0.000 0,0 3556.584,1367.982 Z" style="stroke-width:2.0;stroke:rgb(255,255,255);stroke-linecap:round;fill:none;" />
<path d="M3636.509,1865.822 A1642.000,1642.000 40.000 0,1 3610.774,2318.704 L3648.051,2326.079 A1680.000,1680.000 0.000 0,0 3674.381,1862.717 Z" style="stroke-width:2.0;stroke:rgb(255,255,255);stroke-linecap:round;fill:rgb(185,185,185);" />
<text x="3743.6" y="2111.6" font-size="36.4px" font-family="CMUBright-Roman" style="text-anchor:start;fill:rgb(0,0,0);" transform="rotate(3.3,3743.6,2111.6)" >Finance-Investment</text>
<path d="M3636.509,1865.822 A1642.000,1642.000 40.000 0,1 3610.774,2318.704 L3648.051,2326.079 A1680.000,1680.000 0.000 0,0 3674.381,1862.717 Z" style="stroke-width:2.0;stroke:rgb(255,255,255);stroke-linecap:round;fill:none;" />
<path d="M3603.438,2353.767 A1642.000,1642.000 40.000 0,1 3499.856,2668.278 L3534.566,2683.744 A1680.000,1680.000 0.000 0,0 3640.546,2361.954 Z" style="stroke-width:2.0;stroke:rgb(255,255,255);stroke-linecap:round;fill:rgb(185,185,185);" />
<text x="3655.6" y="2558.4" font-size="36.4px" font-family="CMUBright-Roman" style="text-anchor:start;fill:rgb(0,0,0);" transform="rotate(18.2,3655.6,2558.4)" >Software-Data</text>
<path d="M3603.438,2353.767 A1642.000,1642.000 40.000 0,1 3499.856,2668.278 L3534.566,2683.744 A1680.000,1680.000 0.000 0,0 3640.546,2361.954 Z" style="stroke-width:2.0;stroke:rgb(255,255,255);stroke-linecap:round;fill:none;" />
<path d="M3484.921,2700.839 A1642.000,1642.000 40.000 0,1 3330.895,2961.708 L3361.695,2983.964 A1680.000,1680.000 0.000 0,0 3519.285,2717.058 Z" style="stroke-width:2.0;stroke:rgb(255,255,255);stroke-linecap:round;fill:rgb(185,185,185);" />
<text x="3498.1" y="2899.1" font-size="36.4px" font-family="CMUBright-Roman" style="text-anchor:start;fill:rgb(0,0,0);" transform="rotate(30.6,3498.1,2899.1)" >Education</text>
<path d="M3484.921,2700.839 A1642.000,1642.000 40.000 0,1 3330.895,2961.708 L3361.695,2983.964 A1680.000,1680.000 0.000 0,0 3519.285,2717.058 Z" style="stroke-width:2.0;stroke:rgb(255,255,255);stroke-linecap:round;fill:none;" />
<path d="M3309.599,2990.512 A1642.000,1642.000 40.000 0,1 3129.055,3192.225 L3155.184,3219.816 A1680.000,1680.000 0.000 0,0 3339.906,3013.435 Z" style="stroke-width:2.0;stroke:rgb(255,255,255);stroke-linecap:round;fill:rgb(185,185,185);" />
<text x="3293.5" y="3174.5" font-size="36.4px" font-family="CMUBright-Roman" style="text-anchor:start;fill:rgb(0,0,0);" transform="rotate(41.8,3293.5,3174.5)" >Research-Science</text>
<path d="M3309.599,2990.512 A1642.000,1642.000 40.000 0,1 3129.055,3192.225 L3155.184,3219.816 A1680.000,1680.000 0.000 0,0 3339.906,3013.435 Z" style="stroke-width:2.0;stroke:rgb(255,255,255);stroke-linecap:round;fill:none;" />
<path d="M3102.778,3216.571 A1642.000,1642.000 40.000 0,1 2891.302,3379.038 L2911.929,3410.952 A1680.000,1680.000 0.000 0,0 3128.299,3244.726 Z" style="stroke-width:2.0;stroke:rgb(255,255,255);stroke-linecap:round;fill:rgb(185,185,185);" />
<text x="3054.5" y="3393.1" font-size="36.4px" font-family="CMUBright-Roman" style="text-anchor:start;fill:rgb(0,0,0);" transform="rotate(52.5,3054.5,3393.1)" >Clinical-Care</text>
<path d="M3102.778,3216.571 A1642.000,1642.000 40.000 0,1 2891.302,3379.038 L2911.929,3410.952 A1680.000,1680.000 0.000 0,0 3128.299,3244.726 Z" style="stroke-width:2.0;stroke:rgb(255,255,255);stroke-linecap:round;fill:none;" />
<path d="M2861.006,3398.153 A1642.000,1642.000 40.000 0,1 2640.127,3512.085 L2654.941,3547.079 A1680.000,1680.000 0.000 0,0 2880.932,3430.510 Z" style="stroke-width:2.0;stroke:rgb(255,255,255);stroke-linecap:round;fill:rgb(185,185,185);" />
<text x="2786.7" y="3560.1" font-size="36.4px" font-family="CMUBright-Roman" style="text-anchor:start;fill:rgb(0,0,0);" transform="rotate(62.7,2786.7,3560.1)" >Accounting-Audit</text>
<path d="M2861.006,3398.153 A1642.000,1642.000 40.000 0,1 2640.127,3512.085 L2654.941,3547.079 A1680.000,1680.000 0.000 0,0 2880.932,3430.510 Z" style="stroke-width:2.0;stroke:rgb(255,255,255);stroke-linecap:round;fill:none;" />
<path d="M2606.988,3525.690 A1642.000,1642.000 40.000 0,1 2452.002,3578.562 L2462.463,3615.094 A1680.000,1680.000 0.000 0,0 2621.036,3560.998 Z" style="stroke-width:2.0;stroke:rgb(255,255,255);stroke-linecap:round;fill:rgb(185,185,185);" />
<text x="2552.3" y="3657.6" font-size="36.4px" font-family="CMUBright-Roman" style="text-anchor:start;fill:rgb(0,0,0);" transform="rotate(71.2,2552.3,3657.6)" >Social-Service</text>
<path d="M2606.988,3525.690 A1642.000,1642.000 40.000 0,1 2452.002,3578.562 L2462.463,3615.094 A1680.000,1680.000 0.000 0,0 2621.036,3560.998 Z" style="stroke-width:2.0;stroke:rgb(255,255,255);stroke-linecap:round;fill:none;" />
<path d="M2417.459,3588.047 A1642.000,1642.000 40.000 0,1 2320.910,3610.336 L2328.336,3647.603 A1680.000,1680.000 0.000 0,0 2427.120,3624.798 Z" style="stroke-width:2.0;stroke:rgb(255,255,255);stroke-linecap:round;fill:rgb(185,185,185);" />
<text x="2380.8" y="3705.2" font-size="36.4px" font-family="CMUBright-Roman" style="text-anchor:start;fill:rgb(0,0,0);" transform="rotate(77.0,2380.8,3705.2)" >IT-Infrastructure</text>
<path d="M2417.459,3588.047 A1642.000,1642.000 40.000 0,1 2320.910,3610.336 L2328.336,3647.603 A1680.000,1680.000 0.000 0,0 2427.120,3624.798 Z" style="stroke-width:2.0;stroke:rgb(255,255,255);stroke-linecap:round;fill:none;" />
<path d="M2285.704,3616.953 A1642.000,1642.000 40.000 0,1 2189.660,3631.010 L2194.050,3668.755 A1680.000,1680.000 0.000 0,0 2292.316,3654.373 Z" style="stroke-width:2.0;stroke:rgb(255,255,255);stroke-linecap:round;fill:rgb(185,185,185);" />
<text x="2237.2" y="3731.0" font-size="36.4px" font-family="CMUBright-Roman" style="text-anchor:start;fill:rgb(0,0,0);" transform="rotate(81.7,2237.2,3731.0)" >Legal-Policy</text>
<path d="M2285.704,3616.953 A1642.000,1642.000 40.000 0,1 2189.660,3631.010 L2194.050,3668.755 A1680.000,1680.000 0.000 0,0 2292.316,3654.373 Z" style="stroke-width:2.0;stroke:rgb(255,255,255);stroke-linecap:round;fill:none;" />
<path d="M2154.035,3634.759 A1642.000,1642.000 40.000 0,1 1474.020,3555.477 L1461.848,3591.475 A1680.000,1680.000 0.000 0,0 2157.600,3672.592 Z" style="stroke-width:2.0;stroke:rgb(255,255,255);stroke-linecap:round;fill:rgb(15,52,135);" />
<text x="1813.6" y="3737.2" font-size="36.4px" font-family="CMUBright-Roman" style="text-anchor:end;fill:rgb(0,0,0);" transform="rotate(-83.3,1813.6,3737.2)" >Finance-Accounting</text>
<path d="M2154.035,3634.759 A1642.000,1642.000 40.000 0,1 1474.020,3555.477 L1461.848,3591.475 A1680.000,1680.000 0.000 0,0 2157.600,3672.592 Z" style="stroke-width:2.0;stroke:rgb(255,255,255);stroke-linecap:round;fill:none;" />
<path d="M1440.213,3543.633 A1642.000,1642.000 40.000 0,1 888.845,3208.925 L863.130,3236.902 A1680.000,1680.000 0.000 0,0 1427.258,3579.356 Z" style="stroke-width:2.0;stroke:rgb(255,255,255);stroke-linecap:round;fill:rgb(42,98,180);" />
<text x="1104.1" y="3500.0" font-size="36.4px" font-family="CMUBright-Roman" style="text-anchor:end;fill:rgb(0,0,0);" transform="rotate(-58.7,1104.1,3500.0)" >General-Business</text>
<path d="M1440.213,3543.633 A1642.000,1642.000 40.000 0,1 888.845,3208.925 L863.130,3236.902 A1680.000,1680.000 0.000 0,0 1427.258,3579.356 Z" style="stroke-width:2.0;stroke:rgb(255,255,255);stroke-linecap:round;fill:none;" />
<path d="M862.737,3184.397 A1642.000,1642.000 40.000 0,1 624.574,2896.866 L592.744,2917.622 A1680.000,1680.000 0.000 0,0 836.418,3211.807 Z" style="stroke-width:2.0;stroke:rgb(255,255,255);stroke-linecap:round;fill:rgb(28,75,160);" />
<text x="664.7" y="3126.8" font-size="36.4px" font-family="CMUBright-Roman" style="text-anchor:end;fill:rgb(0,0,0);" transform="rotate(-39.6,664.7,3126.8)" >Marketing-Communication</text>
<path d="M862.737,3184.397 A1642.000,1642.000 40.000 0,1 624.574,2896.866 L592.744,2917.622 A1680.000,1680.000 0.000 0,0 836.418,3211.807 Z" style="stroke-width:2.0;stroke:rgb(255,255,255);stroke-linecap:round;fill:none;" />
<path d="M605.337,2866.648 A1642.000,1642.000 40.000 0,1 476.558,2612.607 L441.301,2626.784 A1680.000,1680.000 0.000 0,0 573.061,2886.704 Z" style="stroke-width:2.0;stroke:rgb(255,255,255);stroke-linecap:round;fill:rgb(60,120,198);" />
<text x="448.7" y="2803.8" font-size="36.4px" font-family="CMUBright-Roman" style="text-anchor:end;fill:rgb(0,0,0);" transform="rotate(-26.9,448.7,2803.8)" >Operations-Analytics</text>
<path d="M605.337,2866.648 A1642.000,1642.000 40.000 0,1 476.558,2612.607 L441.301,2626.784 A1680.000,1680.000 0.000 0,0 573.061,2886.704 Z" style="stroke-width:2.0;stroke:rgb(255,255,255);stroke-linecap:round;fill:none;" />
<path d="M463.556,2579.227 A1642.000,1642.000 40.000 0,1 407.419,2399.813 L370.563,2409.066 A1680.000,1680.000 0.000 0,0 427.999,2592.632 Z" style="stroke-width:2.0;stroke:rgb(255,255,255);stroke-linecap:round;fill:rgb(82,145,215);" />
<text x="337.2" y="2536.5" font-size="36.4px" font-family="CMUBright-Roman" style="text-anchor:end;fill:rgb(0,0,0);" transform="rotate(-17.4,337.2,2536.5)" >Specialized-Business</text>
<path d="M463.556,2579.227 A1642.000,1642.000 40.000 0,1 407.419,2399.813 L370.563,2409.066 A1680.000,1680.000 0.000 0,0 427.999,2592.632 Z" style="stroke-width:2.0;stroke:rgb(255,255,255);stroke-linecap:round;fill:none;" />
<path d="M399.076,2364.976 A1642.000,1642.000 40.000 0,1 366.776,2169.540 L328.979,2173.464 A1680.000,1680.000 0.000 0,0 362.027,2373.422 Z" style="stroke-width:2.0;stroke:rgb(255,255,255);stroke-linecap:round;fill:rgb(200,108,30);" />
<text x="278.3" y="2297.2" font-size="36.4px" font-family="CMUBright-Roman" style="text-anchor:end;fill:rgb(0,0,0);" transform="rotate(-9.4,278.3,2297.2)" >Social-Sciences</text>
<path d="M399.076,2364.976 A1642.000,1642.000 40.000 0,1 366.776,2169.540 L328.979,2173.464 A1680.000,1680.000 0.000 0,0 362.027,2373.422 Z" style="stroke-width:2.0;stroke:rgb(255,255,255);stroke-linecap:round;fill:none;" />
<path d="M363.466,2133.872 A1642.000,1642.000 40.000 0,1 358.290,2030.870 L320.297,2031.584 A1680.000,1680.000 0.000 0,0 325.593,2136.970 Z" style="stroke-width:2.0;stroke:rgb(255,255,255);stroke-linecap:round;fill:rgb(108,170,228);" />
<text x="255.6" y="2099.7" font-size="36.4px" font-family="CMUBright-Roman" style="text-anchor:end;fill:rgb(0,0,0);" transform="rotate(-2.9,255.6,2099.7)" >Economics</text>
<path d="M363.466,2133.872 A1642.000,1642.000 40.000 0,1 358.290,2030.870 L320.297,2031.584 A1680.000,1680.000 0.000 0,0 325.593,2136.970 Z" style="stroke-width:2.0;stroke:rgb(255,255,255);stroke-linecap:round;fill:none;" />
<path d="M358.007,1995.049 A1642.000,1642.000 40.000 0,1 358.807,1948.539 L320.825,1947.348 A1680.000,1680.000 0.000 0,0 320.008,1994.934 Z" style="stroke-width:2.0;stroke:rgb(255,255,255);stroke-linecap:round;fill:rgb(220,140,52);" />
<text x="252.9" y="1982.5" font-size="36.4px" font-family="CMUBright-Roman" style="text-anchor:end;fill:rgb(0,0,0);" transform="rotate(1.0,252.9,1982.5)" >Humanities-Liberal-Arts</text>
<path d="M358.007,1995.049 A1642.000,1642.000 40.000 0,1 358.807,1948.539 L320.825,1947.348 A1680.000,1680.000 0.000 0,0 320.008,1994.934 Z" style="stroke-width:2.0;stroke:rgb(255,255,255);stroke-linecap:round;fill:none;" />
<path d="M360.320,1912.749 A1642.000,1642.000 40.000 0,1 361.133,1898.615 L323.205,1896.269 A1680.000,1680.000 0.000 0,0 322.373,1910.730 Z" style="stroke-width:2.0;stroke:rgb(255,255,255);stroke-linecap:round;fill:rgb(235,168,78);" />
<text x="255.0" y="1912.1" font-size="36.4px" font-family="CMUBright-Roman" style="text-anchor:end;fill:rgb(0,0,0);" transform="rotate(3.3,255.0,1912.1)" >International-Studies</text>
<path d="M360.320,1912.749 A1642.000,1642.000 40.000 0,1 361.133,1898.615 L323.205,1896.269 A1680.000,1680.000 0.000 0,0 322.373,1910.730 Z" style="stroke-width:2.0;stroke:rgb(255,255,255);stroke-linecap:round;fill:none;" />
<path d="M363.735,1862.887 A1642.000,1642.000 40.000 0,1 391.336,1670.812 L354.108,1663.193 A1680.000,1680.000 0.000 0,0 325.867,1859.714 Z" style="stroke-width:2.0;stroke:rgb(255,255,255);stroke-linecap:round;fill:rgb(195,58,55);" />
<text x="268.8" y="1763.9" font-size="36.4px" font-family="CMUBright-Roman" style="text-anchor:end;fill:rgb(0,0,0);" transform="rotate(8.2,268.8,1763.9)" >Social-Work</text>
<path d="M363.735,1862.887 A1642.000,1642.000 40.000 0,1 391.336,1670.812 L354.108,1663.193 A1680.000,1680.000 0.000 0,0 325.867,1859.714 Z" style="stroke-width:2.0;stroke:rgb(255,255,255);stroke-linecap:round;fill:none;" />
<path d="M398.900,1635.797 A1642.000,1642.000 40.000 0,1 428.981,1522.439 L392.624,1511.387 A1680.000,1680.000 0.000 0,0 361.847,1627.368 Z" style="stroke-width:2.0;stroke:rgb(255,255,255);stroke-linecap:round;fill:rgb(175,35,42);" />
<text x="308.1" y="1564.0" font-size="36.4px" font-family="CMUBright-Roman" style="text-anchor:end;fill:rgb(0,0,0);" transform="rotate(14.9,308.1,1564.0)" >Teacher-Education</text>
<path d="M398.900,1635.797 A1642.000,1642.000 40.000 0,1 428.981,1522.439 L392.624,1511.387 A1680.000,1680.000 0.000 0,0 361.847,1627.368 Z" style="stroke-width:2.0;stroke:rgb(255,255,255);stroke-linecap:round;fill:none;" />
<path d="M439.773,1488.281 A1642.000,1642.000 40.000 0,1 474.975,1391.343 L439.682,1377.257 A1680.000,1680.000 0.000 0,0 403.666,1476.439 Z" style="stroke-width:2.0;stroke:rgb(255,255,255);stroke-linecap:round;fill:rgb(215,82,72);" />
<text x="352.5" y="1418.2" font-size="36.4px" font-family="CMUBright-Roman" style="text-anchor:end;fill:rgb(0,0,0);" transform="rotate(20.0,352.5,1418.2)" >Special-Education</text>
<path d="M439.773,1488.281 A1642.000,1642.000 40.000 0,1 474.975,1391.343 L439.682,1377.257 A1680.000,1680.000 0.000 0,0 403.666,1476.439 Z" style="stroke-width:2.0;stroke:rgb(255,255,255);stroke-linecap:round;fill:none;" />
<path d="M488.616,1358.220 A1642.000,1642.000 40.000 0,1 509.092,1311.991 L474.588,1296.068 A1680.000,1680.000 0.000 0,0 453.639,1343.368 Z" style="stroke-width:2.0;stroke:rgb(255,255,255);stroke-linecap:round;fill:rgb(230,112,95);" />
<text x="396.3" y="1306.6" font-size="36.4px" font-family="CMUBright-Roman" style="text-anchor:end;fill:rgb(0,0,0);" transform="rotate(23.9,396.3,1306.6)" >Educational-Leadership</text>
<path d="M488.616,1358.220 A1642.000,1642.000 40.000 0,1 509.092,1311.991 L474.588,1296.068 A1680.000,1680.000 0.000 0,0 453.639,1343.368 Z" style="stroke-width:2.0;stroke:rgb(255,255,255);stroke-linecap:round;fill:none;" />
<path d="M524.455,1279.630 A1642.000,1642.000 40.000 0,1 553.988,1222.045 L520.524,1204.041 A1680.000,1680.000 0.000 0,0 490.308,1262.959 Z" style="stroke-width:2.0;stroke:rgb(255,255,255);stroke-linecap:round;fill:rgb(0,130,142);" />
<text x="439.7" y="1213.8" font-size="36.4px" font-family="CMUBright-Roman" style="text-anchor:end;fill:rgb(0,0,0);" transform="rotate(27.2,439.7,1213.8)" >Communication-Studies</text>
<path d="M524.455,1279.630 A1642.000,1642.000 40.000 0,1 553.988,1222.045 L520.524,1204.041 A1680.000,1680.000 0.000 0,0 490.308,1262.959 Z" style="stroke-width:2.0;stroke:rgb(255,255,255);stroke-linecap:round;fill:none;" />
<path d="M571.303,1190.686 A1642.000,1642.000 40.000 0,1 588.562,1160.949 L555.898,1141.531 A1680.000,1680.000 0.000 0,0 538.240,1171.956 Z" style="stroke-width:2.0;stroke:rgb(255,255,255);stroke-linecap:round;fill:rgb(0,165,172);" />
<text x="482.6" y="1133.8" font-size="36.4px" font-family="CMUBright-Roman" style="text-anchor:end;fill:rgb(0,0,0);" transform="rotate(30.1,482.6,1133.8)" >Journalism-Media</text>
<path d="M571.303,1190.686 A1642.000,1642.000 40.000 0,1 588.562,1160.949 L555.898,1141.531 A1680.000,1680.000 0.000 0,0 538.240,1171.956 Z" style="stroke-width:2.0;stroke:rgb(255,255,255);stroke-linecap:round;fill:none;" />
<path d="M607.202,1130.358 A1642.000,1642.000 40.000 0,1 613.667,1120.089 L581.583,1099.725 A1680.000,1680.000 0.000 0,0 574.969,1110.233 Z" style="stroke-width:2.0;stroke:rgb(255,255,255);stroke-linecap:round;fill:rgb(38,195,195);" />
<text x="512.9" y="1082.8" font-size="36.4px" font-family="CMUBright-Roman" style="text-anchor:end;fill:rgb(0,0,0);" transform="rotate(32.2,512.9,1082.8)" >Creative-Writing</text>
<path d="M607.202,1130.358 A1642.000,1642.000 40.000 0,1 613.667,1120.089 L581.583,1099.725 A1680.000,1680.000 0.000 0,0 574.969,1110.233 Z" style="stroke-width:2.0;stroke:rgb(255,255,255);stroke-linecap:round;fill:none;" />
<path d="M633.192,1090.055 A1642.000,1642.000 40.000 0,1 667.742,1040.182 L636.910,1017.969 A1680.000,1680.000 0.000 0,0 601.560,1068.997 Z" style="stroke-width:2.0;stroke:rgb(255,255,255);stroke-linecap:round;fill:rgb(180,45,112);" />
<text x="554.7" y="1018.2" font-size="36.4px" font-family="CMUBright-Roman" style="text-anchor:end;fill:rgb(0,0,0);" transform="rotate(34.7,554.7,1018.2)" >Arts-Theology</text>
<path d="M633.192,1090.055 A1642.000,1642.000 40.000 0,1 667.742,1040.182 L636.910,1017.969 A1680.000,1680.000 0.000 0,0 601.560,1068.997 Z" style="stroke-width:2.0;stroke:rgb(255,255,255);stroke-linecap:round;fill:none;" />
<path d="M688.997,1011.347 A1642.000,1642.000 40.000 0,1 698.803,998.477 L668.690,975.299 A1680.000,1680.000 0.000 0,0 658.657,988.467 Z" style="stroke-width:2.0;stroke:rgb(255,255,255);stroke-linecap:round;fill:rgb(205,75,142);" />
<text x="600.6" y="953.9" font-size="36.4px" font-family="CMUBright-Roman" style="text-anchor:end;fill:rgb(0,0,0);" transform="rotate(37.3,600.6,953.9)" >English-Writing</text>
<path d="M688.997,1011.347 A1642.000,1642.000 40.000 0,1 698.803,998.477 L668.690,975.299 A1680.000,1680.000 0.000 0,0 658.657,988.467 Z" style="stroke-width:2.0;stroke:rgb(255,255,255);stroke-linecap:round;fill:none;" />
<path d="M720.960,970.329 A1642.000,1642.000 40.000 0,1 724.774,965.610 L695.262,941.672 A1680.000,1680.000 0.000 0,0 691.360,946.500 Z" style="stroke-width:2.0;stroke:rgb(255,255,255);stroke-linecap:round;fill:rgb(225,110,168);" />
<text x="631.0" y="914.3" font-size="36.4px" font-family="CMUBright-Roman" style="text-anchor:end;fill:rgb(0,0,0);" transform="rotate(38.9,631.0,914.3)" >Languages</text>
<path d="M720.960,970.329 A1642.000,1642.000 40.000 0,1 724.774,965.610 L695.262,941.672 A1680.000,1680.000 0.000 0,0 691.360,946.500 Z" style="stroke-width:2.0;stroke:rgb(255,255,255);stroke-linecap:round;fill:none;" />
<path d="M747.643,938.037 A1642.000,1642.000 40.000 0,1 884.635,794.959 L858.822,767.071 A1680.000,1680.000 0.000 0,0 718.660,913.461 Z" style="stroke-width:2.0;stroke:rgb(255,255,255);stroke-linecap:round;fill:rgb(88,40,138);" />
<text x="727.0" y="803.3" font-size="36.4px" font-family="CMUBright-Roman" style="text-anchor:end;fill:rgb(0,0,0);" transform="rotate(43.8,727.0,803.3)" >Biological-Sciences</text>
<path d="M747.643,938.037 A1642.000,1642.000 40.000 0,1 884.635,794.959 L858.822,767.071 A1680.000,1680.000 0.000 0,0 718.660,913.461 Z" style="stroke-width:2.0;stroke:rgb(255,255,255);stroke-linecap:round;fill:none;" />
<path d="M911.188,770.914 A1642.000,1642.000 40.000 0,1 969.888,721.316 L946.049,691.724 A1680.000,1680.000 0.000 0,0 885.990,742.470 Z" style="stroke-width:2.0;stroke:rgb(255,255,255);stroke-linecap:round;fill:rgb(115,65,165);" />
<text x="862.8" y="673.5" font-size="36.4px" font-family="CMUBright-Roman" style="text-anchor:end;fill:rgb(0,0,0);" transform="rotate(49.8,862.8,673.5)" >Health-Wellness</text>
<path d="M911.188,770.914 A1642.000,1642.000 40.000 0,1 969.888,721.316 L946.049,691.724 A1680.000,1680.000 0.000 0,0 885.990,742.470 Z" style="stroke-width:2.0;stroke:rgb(255,255,255);stroke-linecap:round;fill:none;" />
<path d="M998.028,699.148 A1642.000,1642.000 40.000 0,1 1023.858,679.655 L1001.267,649.099 A1680.000,1680.000 0.000 0,0 974.840,669.043 Z" style="stroke-width:2.0;stroke:rgb(255,255,255);stroke-linecap:round;fill:rgb(140,92,188);" />
<text x="935.2" y="614.8" font-size="36.4px" font-family="CMUBright-Roman" style="text-anchor:end;fill:rgb(0,0,0);" transform="rotate(53.0,935.2,614.8)" >Physical-Sciences</text>
<path d="M998.028,699.148 A1642.000,1642.000 40.000 0,1 1023.858,679.655 L1001.267,649.099 A1680.000,1680.000 0.000 0,0 974.840,669.043 Z" style="stroke-width:2.0;stroke:rgb(255,255,255);stroke-linecap:round;fill:none;" />
<path d="M1052.893,658.675 A1642.000,1642.000 40.000 0,1 1064.493,650.559 L1042.843,619.329 A1680.000,1680.000 0.000 0,0 1030.975,627.633 Z" style="stroke-width:2.0;stroke:rgb(255,255,255);stroke-linecap:round;fill:rgb(165,120,208);" />
<text x="988.2" y="575.6" font-size="36.4px" font-family="CMUBright-Roman" style="text-anchor:end;fill:rgb(0,0,0);" transform="rotate(55.0,988.2,575.6)" >Environmental-Sciences</text>
<path d="M1052.893,658.675 A1642.000,1642.000 40.000 0,1 1064.493,650.559 L1042.843,619.329 A1680.000,1680.000 0.000 0,0 1030.975,627.633 Z" style="stroke-width:2.0;stroke:rgb(255,255,255);stroke-linecap:round;fill:none;" />
<path d="M1094.154,630.472 A1642.000,1642.000 40.000 0,1 1594.822,408.776 L1585.445,371.951 A1680.000,1680.000 0.000 0,0 1073.190,598.778 Z" style="stroke-width:2.0;stroke:rgb(255,255,255);stroke-linecap:round;fill:rgb(22,118,50);" />
<text x="1278.0" y="409.0" font-size="36.4px" font-family="CMUBright-Roman" style="text-anchor:end;fill:rgb(0,0,0);" transform="rotate(66.1,1278.0,409.0)" >Engineering-Disciplines</text>
<path d="M1094.154,630.472 A1642.000,1642.000 40.000 0,1 1594.822,408.776 L1585.445,371.951 A1680.000,1680.000 0.000 0,0 1073.190,598.778 Z" style="stroke-width:2.0;stroke:rgb(255,255,255);stroke-linecap:round;fill:none;" />
<path d="M1629.631,400.315 A1642.000,1642.000 40.000 0,1 1964.180,358.391 L1963.351,320.400 A1680.000,1680.000 0.000 0,0 1621.060,363.295 Z" style="stroke-width:2.0;stroke:rgb(255,255,255);stroke-linecap:round;fill:rgb(48,158,75);" />
<text x="1767.4" y="268.4" font-size="36.4px" font-family="CMUBright-Roman" style="text-anchor:end;fill:rgb(0,0,0);" transform="rotate(82.9,1767.4,268.4)" >Computer-Science-IT</text>
<path d="M1629.631,400.315 A1642.000,1642.000 40.000 0,1 1964.180,358.391 L1963.351,320.400 A1680.000,1680.000 0.000 0,0 1621.060,363.295 Z" style="stroke-width:2.0;stroke:rgb(255,255,255);stroke-linecap:round;fill:none;" />
</g>
<g id="track_0">
<path d="M 415.086,2361.326 A 1625.580,1625.580 0.00 0,1 412.0,2347.6 L 412.0,2347.6 470.3,2336.2 529.9,2327.2 590.7,2320.6 652.5,2316.6 715.1,2315.0 778.3,2316.1 841.9,2319.8 905.8,2326.1 969.8,2335.0 1033.7,2346.6 1097.3,2360.8 1160.5,2377.7 1223.2,2397.2 1285.2,2419.3 1346.3,2444.0 1406.5,2471.3 1465.6,2501.0 1523.4,2533.1 1579.9,2567.7 1634.9,2604.5 1688.4,2643.6 1740.1,2684.9 1790.1,2728.2 1838.1,2773.5 1884.3,2820.6 1928.3,2869.5 1970.2,2920.0 2009.9,2972.1 2047.3,3025.5 2082.3,3080.2 2114.9,3135.9 2145.0,3192.6 2172.6,3250.1 2197.7,3308.1 2220.1,3366.6 2239.8,3425.3 2256.9,3484.0 2271.2,3542.6 2282.8,3600.8  A 1625.580,1625.580 0.00 0,1 2269.0,3603.2 L 2269.0,3603.2 2257.9,3545.0 2244.1,3486.4 2227.6,3427.7 2208.4,3369.0 2186.6,3310.6 2162.2,3252.6 2135.1,3195.2 2105.6,3138.6 2073.6,3082.9 2039.1,3028.4 2002.3,2975.0 1963.2,2923.1 1921.8,2872.7 1878.3,2824.0 1832.8,2777.0 1785.2,2732.0 1735.7,2688.9 1684.5,2647.9 1631.5,2609.1 1577.0,2572.5 1520.9,2538.3 1463.5,2506.5 1404.9,2477.2 1345.1,2450.4 1284.3,2426.1 1222.7,2404.4 1160.4,2385.4 1097.5,2369.0 1034.1,2355.2 970.6,2344.1 906.9,2335.7 843.3,2329.9 779.9,2326.7 717.0,2326.2 654.6,2328.3 593.1,2332.8 532.5,2339.9 473.1,2349.4 415.1,2361.3  Z" style="stroke-width: 0.0;  fill: rgb(200,108,30);" />
<path d="M 412.029,2347.648 A 1625.580,1625.580 0.00 0,1 410.8,2341.8 L 410.8,2341.8 469.7,2330.5 530.2,2321.5 591.9,2315.1 654.7,2311.1 718.5,2309.7 783.0,2310.8 848.0,2314.5 913.5,2320.8 979.2,2329.7 1045.0,2341.2 1110.8,2355.3 1176.3,2371.9 1241.4,2391.2 1306.0,2412.9 1370.0,2437.2 1433.1,2463.9 1495.3,2493.0 1556.5,2524.5 1616.5,2558.4 1675.2,2594.4 1732.5,2632.7 1788.2,2673.0 1842.3,2715.3 1894.7,2759.6 1945.3,2805.7 1993.9,2853.5 2040.4,2902.9 2084.9,2953.8 2127.2,3006.1 2167.2,3059.6 2204.8,3114.2 2240.0,3169.8 2272.7,3226.1 2302.8,3283.2 2330.4,3340.7 2355.2,3398.5 2377.4,3456.5 2396.7,3514.5 2413.3,3572.2  A 1625.580,1625.580 0.00 0,1 2407.5,3573.7 L 2407.5,3573.7 2391.2,3516.0 2372.0,3458.0 2350.1,3400.0 2325.5,3342.2 2298.2,3284.7 2268.3,3227.6 2235.9,3171.3 2200.9,3115.7 2163.5,3061.1 2123.8,3007.6 2081.7,2955.3 2037.5,2904.5 1991.2,2855.1 1942.8,2807.4 1892.5,2761.3 1840.3,2717.1 1786.4,2674.9 1730.9,2634.7 1673.8,2596.5 1615.3,2560.6 1555.5,2526.9 1494.5,2495.5 1432.4,2466.5 1369.4,2440.0 1305.6,2415.9 1241.2,2394.3 1176.2,2375.3 1110.8,2358.8 1045.2,2344.9 979.5,2333.6 913.9,2325.0 848.6,2318.9 783.6,2315.4 719.2,2314.5 655.6,2316.1 592.9,2320.3 531.2,2327.0 470.9,2336.1 412.0,2347.6  Z" style="stroke-width: 0.0;  fill: rgb(200,108,30);" />
<path d="M 410.755,2341.777 A 1625.580,1625.580 0.00 0,1 403.2,2304.5 L 403.2,2304.5 463.6,2294.3 525.6,2286.6 589.0,2281.4 653.6,2278.6 719.3,2278.3 785.9,2280.6 853.3,2285.3 921.3,2292.5 989.8,2302.2 1058.5,2314.3 1127.4,2329.0 1196.3,2346.0 1265.1,2365.5 1333.6,2387.3 1401.6,2411.5 1469.2,2438.0 1536.0,2466.7 1602.0,2497.6 1667.1,2530.7 1731.2,2565.8 1794.0,2603.0 1855.6,2642.1 1915.7,2683.0 1974.3,2725.7 2031.3,2770.2 2086.5,2816.2 2139.8,2863.8 2191.2,2912.7 2240.6,2963.0 2287.8,3014.4 2332.7,3067.0 2375.3,3120.4 2415.5,3174.7 2453.2,3229.8 2488.2,3285.3 2520.6,3341.3 2550.2,3397.6 2577.0,3454.0 2600.9,3510.4  A 1625.580,1625.580 0.00 0,1 2565.4,3524.1 L 2565.4,3524.1 2543.0,3467.5 2517.7,3410.9 2489.6,3354.4 2458.7,3298.2 2425.2,3242.4 2389.0,3187.2 2350.4,3132.7 2309.3,3079.1 2265.8,3026.5 2220.1,2975.0 2172.2,2924.8 2122.2,2875.9 2070.2,2828.5 2016.4,2782.6 1960.7,2738.4 1903.4,2696.0 1844.5,2655.5 1784.2,2616.8 1722.5,2580.2 1659.6,2545.7 1595.6,2513.4 1530.6,2483.2 1464.8,2455.3 1398.2,2429.8 1331.1,2406.6 1263.5,2385.8 1195.6,2367.4 1127.5,2351.5 1059.4,2338.1 991.4,2327.2 923.7,2318.8 856.4,2313.0 789.6,2309.6 723.7,2308.8 658.6,2310.4 594.6,2314.6 531.9,2321.2 470.5,2330.3 410.8,2341.8  Z" style="stroke-width: 0.0;  fill: rgb(200,108,30);" />
<path d="M 403.193,2304.494 A 1625.580,1625.580 0.00 0,1 391.0,2231.4 L 391.0,2231.4 455.4,2223.5 521.6,2217.8 589.5,2214.5 658.9,2213.3 729.8,2214.3 801.9,2217.5 875.3,2222.7 949.7,2229.9 1025.0,2239.1 1101.1,2250.3 1177.9,2263.3 1255.3,2278.1 1333.1,2294.7 1411.1,2313.1 1489.4,2333.2 1567.7,2354.9 1645.9,2378.2 1724.0,2403.1 1801.7,2429.4 1878.9,2457.2 1955.6,2486.5 2031.5,2517.1 2106.6,2549.0 2180.8,2582.3 2253.9,2616.7 2325.7,2652.4 2396.3,2689.2 2465.3,2727.1 2532.8,2766.0 2598.5,2806.0 2662.4,2846.9 2724.3,2888.8 2784.1,2931.6 2841.7,2975.2 2896.9,3019.6 2949.7,3064.8 2999.8,3110.7 3047.2,3157.2 3091.7,3204.4  A 1625.580,1625.580 0.00 0,1 3035.7,3252.9 L 3035.7,3252.9 2993.9,3204.4 2949.2,3156.5 2901.8,3109.2 2851.6,3062.7 2799.0,3017.0 2743.9,2972.0 2686.6,2928.0 2627.1,2885.0 2565.6,2843.0 2502.1,2802.0 2436.9,2762.2 2370.0,2723.6 2301.6,2686.2 2231.7,2650.1 2160.6,2615.4 2088.4,2582.0 2015.1,2550.1 1940.8,2519.8 1865.9,2490.9 1790.2,2463.7 1714.1,2438.1 1637.6,2414.1 1560.8,2392.0 1483.8,2371.5 1406.9,2352.9 1330.1,2336.2 1253.6,2321.4 1177.4,2308.5 1101.8,2297.5 1026.8,2288.6 952.6,2281.7 879.3,2276.9 807.1,2274.3 736.0,2273.8 666.3,2275.4 598.0,2279.3 531.3,2285.4 466.3,2293.8 403.2,2304.5  Z" style="stroke-width: 0.0;  fill: rgb(200,108,30);" />
<path d="M 390.978,2231.429 A 1625.580,1625.580 0.00 0,1 388.8,2215.6 L 388.8,2215.6 455.1,2207.9 523.3,2202.4 593.3,2199.0 664.9,2197.5 738.0,2198.0 812.6,2200.3 888.5,2204.3 965.6,2210.1 1043.7,2217.5 1122.8,2226.4 1202.8,2236.8 1283.5,2248.7 1364.8,2261.9 1446.7,2276.5 1528.9,2292.4 1611.4,2309.5 1694.0,2327.8 1776.6,2347.3 1859.2,2367.9 1941.5,2389.5 2023.5,2412.2 2105.0,2436.0 2186.0,2460.7 2266.2,2486.4 2345.6,2513.0 2424.0,2540.6 2501.3,2569.1 2577.4,2598.5 2652.2,2628.8 2725.4,2659.9 2797.1,2692.0 2867.0,2724.9 2935.1,2758.7 3001.1,2793.4 3065.0,2829.0 3126.6,2865.5 3185.8,2902.9 3242.5,2941.3 3296.5,2980.6  A 1625.580,1625.580 0.00 0,1 3286.8,2993.3 L 3286.8,2993.3 3233.3,2953.6 3177.2,2914.9 3118.5,2877.0 3057.3,2840.1 2993.9,2804.1 2928.3,2769.0 2860.7,2734.8 2791.2,2701.6 2720.0,2669.2 2647.1,2637.7 2572.8,2607.2 2497.0,2577.5 2420.0,2548.8 2342.0,2521.1 2262.9,2494.3 2183.0,2468.5 2102.3,2443.7 2021.1,2420.0 1939.4,2397.3 1857.3,2375.7 1775.0,2355.2 1692.5,2335.9 1610.1,2317.8 1527.9,2300.9 1445.9,2285.3 1364.2,2271.0 1283.1,2258.1 1202.6,2246.7 1122.8,2236.7 1043.9,2228.2 965.9,2221.3 889.1,2216.1 813.4,2212.6 739.0,2210.9 666.1,2211.0 594.7,2213.0 525.0,2217.1 457.1,2223.2 391.0,2231.4  Z" style="stroke-width: 0.0;  fill: rgb(200,108,30);" />
<path d="M 388.776,2215.563 A 1625.580,1625.580 0.00 0,1 387.2,2203.6 L 387.2,2203.6 455.7,2196.1 526.1,2190.5 598.2,2186.6 672.0,2184.5 747.4,2183.9 824.2,2184.7 902.4,2187.0 981.9,2190.4 1062.5,2195.1 1144.2,2200.9 1226.9,2207.8 1310.4,2215.6 1394.6,2224.2 1479.4,2233.8 1564.8,2244.1 1650.6,2255.2 1736.6,2267.0 1822.9,2279.5 1909.2,2292.6 1995.5,2306.3 2081.7,2320.6 2167.6,2335.5 2253.0,2351.0 2338.0,2367.1 2422.4,2383.7 2506.0,2401.0 2588.8,2418.8 2670.6,2437.3 2751.2,2456.4 2830.7,2476.3 2908.8,2496.8 2985.4,2518.2 3060.5,2540.3 3133.8,2563.3 3205.3,2587.3 3274.8,2612.2 3342.1,2638.2 3407.3,2665.4 3470.1,2693.8  A 1625.580,1625.580 0.00 0,1 3464.9,2704.7 L 3464.9,2704.7 3402.5,2675.9 3337.6,2648.3 3270.6,2621.9 3201.4,2596.6 3130.2,2572.2 3057.1,2548.9 2982.3,2526.4 2905.9,2504.7 2828.0,2483.9 2748.8,2463.8 2668.3,2444.4 2586.7,2425.7 2504.1,2407.6 2420.7,2390.2 2336.5,2373.4 2251.6,2357.2 2166.3,2341.6 2080.5,2326.7 1994.5,2312.3 1908.3,2298.6 1822.1,2285.6 1736.0,2273.2 1650.0,2261.5 1564.3,2250.6 1479.1,2240.5 1394.3,2231.1 1310.2,2222.7 1226.8,2215.2 1144.3,2208.6 1062.7,2203.2 982.2,2198.9 902.8,2195.7 824.8,2193.9 748.1,2193.5 672.8,2194.5 599.2,2197.1 527.2,2201.5 457.1,2207.6 388.8,2215.6  Z" style="stroke-width: 0.0;  fill: rgb(200,108,30);" />
<path d="M 387.227,2203.650 A 1625.580,1625.580 0.00 0,1 386.7,2199.7 L 386.7,2199.7 460.5,2191.3 535.7,2184.0 612.5,2177.7 690.6,2172.1 770.0,2167.1 850.6,2162.5 932.3,2158.3 1015.0,2154.1 1098.6,2150.0 1183.0,2145.8 1268.1,2141.3 1353.9,2136.6 1440.2,2131.5 1526.9,2126.0 1614.1,2119.9 1701.6,2113.4 1789.2,2106.2 1877.0,2098.4 1964.9,2090.0 2052.7,2081.0 2140.4,2071.3 2228.0,2061.1 2315.3,2050.2 2402.2,2038.9 2488.8,2027.1 2574.9,2014.8 2660.4,2002.2 2745.3,1989.4 2829.6,1976.4 2913.1,1963.4 2995.8,1950.4 3077.5,1937.6 3158.4,1925.2 3238.2,1913.3 3317.0,1902.0 3394.6,1891.6 3471.1,1882.2 3546.3,1873.9 3620.1,1867.2  A 1625.580,1625.580 0.00 0,1 3620.5,1871.2 L 3620.5,1871.2 3546.6,1877.8 3471.4,1885.8 3395.0,1895.0 3317.4,1905.3 3238.6,1916.4 3158.8,1928.2 3078.0,1940.5 2996.2,1953.1 2913.5,1966.0 2830.0,1978.9 2745.7,1991.8 2660.8,2004.5 2575.2,2017.0 2489.1,2029.2 2402.5,2041.0 2315.6,2052.3 2228.2,2063.1 2140.7,2073.3 2052.9,2083.0 1965.1,2092.0 1877.2,2100.4 1789.4,2108.2 1701.7,2115.4 1614.2,2122.1 1527.1,2128.2 1440.3,2133.8 1354.0,2138.9 1268.2,2143.7 1183.1,2148.3 1098.7,2152.6 1015.1,2156.9 932.5,2161.1 850.8,2165.6 770.3,2170.3 690.9,2175.4 612.8,2181.2 536.1,2187.7 460.9,2195.1 387.2,2203.6  Z" style="stroke-width: 0.0;  fill: rgb(200,108,30);" />
<path d="M 386.730,2199.676 A 1625.580,1625.580 0.00 0,1 384.6,2181.8 L 384.6,2181.8 452.7,2173.0 522.1,2161.9 592.8,2148.6 664.8,2133.2 737.9,2115.9 812.0,2096.8 887.2,2076.0 963.2,2053.5 1040.1,2029.7 1117.8,2004.4 1196.1,1977.8 1274.9,1950.1 1354.3,1921.2 1434.0,1891.3 1514.0,1860.4 1594.2,1828.7 1674.5,1796.2 1754.8,1762.9 1835.0,1728.9 1915.0,1694.2 1994.7,1659.0 2073.9,1623.2 2152.6,1586.8 2230.6,1550.0 2307.8,1512.7 2384.1,1475.0 2459.5,1436.9 2533.7,1398.3 2606.6,1359.4 2678.1,1320.0 2748.1,1280.3 2816.5,1240.1 2883.1,1199.5 2947.8,1158.5 3010.4,1117.0 3070.8,1075.0 3128.9,1032.5 3184.5,989.5 3237.4,945.8  A 1625.580,1625.580 0.00 0,1 3249.0,959.6 L 3249.0,959.6 3195.4,1002.8 3139.2,1045.4 3080.5,1087.5 3019.6,1129.0 2956.4,1170.1 2891.2,1210.7 2824.1,1250.9 2755.3,1290.7 2684.8,1330.1 2612.9,1369.1 2539.6,1407.7 2465.0,1446.0 2389.4,1483.9 2312.7,1521.5 2235.2,1558.6 2156.9,1595.3 2078.0,1631.6 1998.6,1667.3 1918.8,1702.6 1838.6,1737.3 1758.3,1771.5 1677.8,1804.9 1597.4,1837.7 1517.1,1869.7 1437.0,1900.9 1357.2,1931.1 1277.8,1960.4 1198.9,1988.6 1120.5,2015.6 1042.9,2041.4 965.9,2065.9 889.8,2088.9 814.6,2110.3 740.4,2130.1 667.3,2148.1 595.3,2164.2 524.5,2178.2 454.9,2190.1 386.7,2199.7  Z" style="stroke-width: 0.0;  fill: rgb(200,108,30);" />
<path d="M 384.616,2181.780 A 1625.580,1625.580 0.00 0,1 383.1,2167.8 L 383.1,2167.8 443.1,2160.3 503.9,2149.9 565.2,2136.8 626.8,2121.0 688.7,2102.5 750.5,2081.3 812.2,2057.5 873.7,2031.1 934.6,2002.1 994.9,1970.7 1054.5,1936.8 1113.2,1900.6 1170.9,1862.1 1227.5,1821.3 1282.8,1778.4 1336.6,1733.4 1389.0,1686.4 1439.8,1637.5 1488.9,1586.8 1536.2,1534.3 1581.6,1480.3 1625.0,1424.7 1666.3,1367.7 1705.5,1309.5 1742.5,1250.1 1777.2,1189.6 1809.6,1128.2 1839.6,1066.1 1867.1,1003.3 1892.1,940.1 1914.6,876.5 1934.5,812.7 1951.8,748.8 1966.5,685.1 1978.6,621.7 1987.9,558.7 1994.6,496.4 1998.7,434.9 2000.0,374.4  A 1625.580,1625.580 0.00 0,1 2014.0,374.5 L 2014.0,374.5 2012.2,435.1 2007.6,496.7 2000.3,559.2 1990.4,622.3 1977.8,685.8 1962.6,749.7 1944.7,813.6 1924.3,877.6 1901.2,941.4 1875.7,1004.8 1847.7,1067.8 1817.2,1130.1 1784.3,1191.7 1749.2,1252.4 1711.8,1312.1 1672.1,1370.6 1630.4,1427.9 1586.6,1483.8 1540.9,1538.2 1493.3,1591.0 1443.9,1642.1 1392.8,1691.4 1340.1,1738.9 1286.0,1784.3 1230.5,1827.7 1173.8,1869.0 1115.9,1908.0 1057.0,1944.7 997.3,1979.1 936.8,2011.1 875.8,2040.6 814.3,2067.5 752.5,2091.9 690.5,2113.6 628.6,2132.7 566.9,2149.1 505.6,2162.8 444.7,2173.7 384.6,2181.8  Z" style="stroke-width: 0.0;  fill: rgb(200,108,30);" />
</g>
<defs>
<pattern id="hline-sparse" width="10" height="10" patternTransform="rotate(0 0 0)" patternUnits="userSpaceOnUse"><line x1="0" y1="0" x2="10" y2="0" style="stroke:black;stroke-width:2" /></pattern>
<pattern id="hline" width="10" height="10" patternTransform="rotate(0 0 0)" patternUnits="userSpaceOnUse"><line x1="0" y1="0" x2="10" y2="0" style="stroke:black;stroke-width:5" /></pattern>
<pattern id="checker" width="10" height="10" patternTransform="rotate(45 0 0)" patternUnits="userSpaceOnUse"><line x1="0" y1="0" x2="10" y2="0" style="stroke:black;stroke-width:5" /><line x1="0" y1="0" x2="0" y2="10" style="stroke:black;stroke-width:4" /></pattern>
<pattern id="vline" width="10" height="10" patternTransform="rotate(0 0 0)" patternUnits="userSpaceOnUse"><line x1="0" y1="0" x2="0" y2="10" style="stroke:black;stroke-width:5" /></pattern>
<pattern id="checker" width="10" height="10" patternTransform="rotate(45 0 0)" patternUnits="userSpaceOnUse"><line x1="0" y1="0" x2="10" y2="0" style="stroke:black;stroke-width:2" /><line x1="0" y1="0" x2="0" y2="10" style="stroke:black;stroke-width:2" /></pattern>
<pattern id="vline-sparse" width="10" height="10" patternTransform="rotate(0 0 0)" patternUnits="userSpaceOnUse"><line x1="0" y1="0" x2="0" y2="10" style="stroke:black;stroke-width:2" /></pattern>
</defs>
</svg>
