<?xml version="1.0" encoding="utf-8" standalone="no"?>
<!DOCTYPE svg PUBLIC "-//W3C//DTD SVG 1.1//EN" "http://www.w3.org/Graphics/SVG/1.1/DTD/svg11.dtd">
<svg width="4000px" height="4000px" version="1.1" xmlns="http://www.w3.org/2000/svg" xmlns:xlink="http://www.w3.org/1999/xlink">
<g id="bg">
<rect x="0" y="0" width="4000px" height="4000px" style="fill:rgb(255,255,255);"/>
</g>
<g id="ideograms">
<path d="M2000.000,358.000 A1642.000,1642.000 40.000 0,1 2751.610,540.121 L2769.004,506.336 A1680.000,1680.000 0.000 0,0 2000.000,320.000 Z" style="stroke-width:2.0;stroke:rgb(255,255,255);stroke-linecap:round;fill:rgb(185,185,185);" />
<text x="2427.0" y="305.8" font-size="36.4px" font-family="CMUBright-Roman" style="text-anchor:start;fill:rgb(0,0,0);" transform="rotate(283.6,2427.0,305.8)" >Management-Operations</text>
<path d="M2000.000,358.000 A1642.000,1642.000 40.000 0,1 2751.610,540.121 L2769.004,506.336 A1680.000,1680.000 0.000 0,0 2000.000,320.000 Z" style="stroke-width:2.0;stroke:rgb(255,255,255);stroke-linecap:round;fill:none;" />
<path d="M2783.279,556.865 A1642.000,1642.000 40.000 0,1 3226.411,908.176 L3254.793,882.908 A1680.000,1680.000 0.000 0,0 2801.406,523.467 Z" style="stroke-width:2.0;stroke:rgb(255,255,255);stroke-linecap:round;fill:rgb(185,185,185);" />
<text x="3097.5" y="640.5" font-size="36.4px" font-family="CMUBright-Roman" style="text-anchor:start;fill:rgb(0,0,0);" transform="rotate(308.4,3097.5,640.5)" >Engineering</text>
<path d="M2783.279,556.865 A1642.000,1642.000 40.000 0,1 3226.411,908.176 L3254.793,882.908 A1680.000,1680.000 0.000 0,0 2801.406,523.467 Z" style="stroke-width:2.0;stroke:rgb(255,255,255);stroke-linecap:round;fill:none;" />
<path d="M3249.937,935.189 A1642.000,1642.000 40.000 0,1 3507.538,1349.236 L3542.426,1334.176 A1680.000,1680.000 0.000 0,0 3278.864,910.547 Z" style="stroke-width:2.0;stroke:rgb(255,255,255);stroke-linecap:round;fill:rgb(185,185,185);" />
<text x="3491.6" y="1090.2" font-size="36.4px" font-family="CMUBright-Roman" style="text-anchor:start;fill:rgb(0,0,0);" transform="rotate(328.1,3491.6,1090.2)" >Leadership-General</text>
<path d="M3249.937,935.189 A1642.000,1642.000 40.000 0,1 3507.538,1349.236 L3542.426,1334.176 A1680.000,1680.000 0.000 0,0 3278.864,910.547 Z" style="stroke-width:2.0;stroke:rgb(255,255,255);stroke-linecap:round;fill:none;" />
<path d="M3521.375,1382.278 A1642.000,1642.000 40.000 0,1 3633.192,1830.154 L3670.988,1826.223 A1680.000,1680.000 0.000 0,0 3556.584,1367.982 Z" style="stroke-width:2.0;stroke:rgb(255,255,255);stroke-linecap:round;fill:rgb(185,185,185);" />
<text x="3699.0" y="1592.3" font-size="36.4px" font-family="CMUBright-Roman" style="text-anchor:start;fill:rgb(0,0,0);" transform="rotate(346.0,3699.0,1592.3)" >Sales-Marketing</text>
<path d="M3521.375,1382.278 A1642.000,1642.000 40.000 0,1 3633.192,1830.154 L3670.988,1826.223 A1680.000,1680.000 0.000 0,0 3556.584,1367.982 Z" style="stroke-width:2.0;stroke:rgb(255,255,255);stroke-linecap:round;fill:none;" />
<path d="M3636.509,1865.822 A1642.000,1642.000 40.000 0,1 3610.774,2318.704 L3648.051,2326.079 A1680.000,1680.000 0.000 0,0 3674.381,1862.717 Z" style="stroke-width:2.0;stroke:rgb(255,255,255);stroke-linecap:round;fill:rgb(185,185,185);" />
<text x="3743.6" y="2111.6" font-size="36.4px" font-family="CMUBright-Roman" style="text-anchor:start;fill:rgb(0,0,0);" transform="rotate(3.3,3743.6,2111.6)" >Finance-Investment</text>
<path d="M3636.509,1865.822 A1642.000,1642.000 40.000 0,1 3610.774,2318.704 L3648.051,2326.079 A1680.000,1680.000 0.000 0,0 3674.381,1862.717 Z" style="stroke-width:2.0;stroke:rgb(255,255,255);stroke-linecap:round;fill:none;" />
<path d="M3603.438,2353.767 A1642.000,1642.000 40.000 0,1 3499.856,2668.278 L3534.566,2683.744 A1680.000,1680.000 0.000 0,0 3640.546,2361.954 Z" style="stroke-width:2.0;stroke:rgb(255,255,255);stroke-linecap:round;fill:rgb(185,185,185);" />
<text x="3655.6" y="2558.4" font-size="36.4px" font-family="CMUBright-Roman" style="text-anchor:start;fill:rgb(0,0,0);" transform="rotate(18.2,3655.6,2558.4)" >Software-Data</text>
<path d="M3603.438,2353.767 A1642.000,1642.000 40.000 0,1 3499.856,2668.278 L3534.566,2683.744 A1680.000,1680.000 0.000 0,0 3640.546,2361.954 Z" style="stroke-width:2.0;stroke:rgb(255,255,255);stroke-linecap:round;fill:none;" />
<path d="M3484.921,2700.839 A1642.000,1642.000 40.000 0,1 3330.895,2961.708 L3361.695,2983.964 A1680.000,1680.000 0.000 0,0 3519.285,2717.058 Z" style="stroke-width:2.0;stroke:rgb(255,255,255);stroke-linecap:round;fill:rgb(185,185,185);" />
<text x="3498.1" y="2899.1" font-size="36.4px" font-family="CMUBright-Roman" style="text-anchor:start;fill:rgb(0,0,0);" transform="rotate(30.6,3498.1,2899.1)" >Education</text>
<path d="M3484.921,2700.839 A1642.000,1642.000 40.000 0,1 3330.895,2961.708 L3361.695,2983.964 A1680.000,1680.000 0.000 0,0 3519.285,2717.058 Z" style="stroke-width:2.0;stroke:rgb(255,255,255);stroke-linecap:round;fill:none;" />
<path d="M3309.599,2990.512 A1642.000,1642.000 40.000 0,1 3129.055,3192.225 L3155.184,3219.816 A1680.000,1680.000 0.000 0,0 3339.906,3013.435 Z" style="stroke-width:2.0;stroke:rgb(255,255,255);stroke-linecap:round;fill:rgb(185,185,185);" />
<text x="3293.5" y="3174.5" font-size="36.4px" font-family="CMUBright-Roman" style="text-anchor:start;fill:rgb(0,0,0);" transform="rotate(41.8,3293.5,3174.5)" >Research-Science</text>
<path d="M3309.599,2990.512 A1642.000,1642.000 40.000 0,1 3129.055,3192.225 L3155.184,3219.816 A1680.000,1680.000 0.000 0,0 3339.906,3013.435 Z" style="stroke-width:2.0;stroke:rgb(255,255,255);stroke-linecap:round;fill:none;" />
<path d="M3102.778,3216.571 A1642.000,1642.000 40.000 0,1 2891.302,3379.038 L2911.929,3410.952 A1680.000,1680.000 0.000 0,0 3128.299,3244.726 Z" style="stroke-width:2.0;stroke:rgb(255,255,255);stroke-linecap:round;fill:rgb(185,185,185);" />
<text x="3054.5" y="3393.1" font-size="36.4px" font-family="CMUBright-Roman" style="text-anchor:start;fill:rgb(0,0,0);" transform="rotate(52.5,3054.5,3393.1)" >Clinical-Care</text>
<path d="M3102.778,3216.571 A1642.000,1642.000 40.000 0,1 2891.302,3379.038 L2911.929,3410.952 A1680.000,1680.000 0.000 0,0 3128.299,3244.726 Z" style="stroke-width:2.0;stroke:rgb(255,255,255);stroke-linecap:round;fill:none;" />
<path d="M2861.006,3398.153 A1642.000,1642.000 40.000 0,1 2640.127,3512.085 L2654.941,3547.079 A1680.000,1680.000 0.000 0,0 2880.932,3430.510 Z" style="stroke-width:2.0;stroke:rgb(255,255,255);stroke-linecap:round;fill:rgb(185,185,185);" />
<text x="2786.7" y="3560.1" font-size="36.4px" font-family="CMUBright-Roman" style="text-anchor:start;fill:rgb(0,0,0);" transform="rotate(62.7,2786.7,3560.1)" >Accounting-Audit</text>
<path d="M2861.006,3398.153 A1642.000,1642.000 40.000 0,1 2640.127,3512.085 L2654.941,3547.079 A1680.000,1680.000 0.000 0,0 2880.932,3430.510 Z" style="stroke-width:2.0;stroke:rgb(255,255,255);stroke-linecap:round;fill:none;" />
<path d="M2606.988,3525.690 A1642.000,1642.000 40.000 0,1 2452.002,3578.562 L2462.463,3615.094 A1680.000,1680.000 0.000 0,0 2621.036,3560.998 Z" style="stroke-width:2.0;stroke:rgb(255,255,255);stroke-linecap:round;fill:rgb(185,185,185);" />
<text x="2552.3" y="3657.6" font-size="36.4px" font-family="CMUBright-Roman" style="text-anchor:start;fill:rgb(0,0,0);" transform="rotate(71.2,2552.3,3657.6)" >Social-Service</text>
<path d="M2606.988,3525.690 A1642.000,1642.000 40.000 0,1 2452.002,3578.562 L2462.463,3615.094 A1680.000,1680.000 0.000 0,0 2621.036,3560.998 Z" style="stroke-width:2.0;stroke:rgb(255,255,255);stroke-linecap:round;fill:none;" />
<path d="M2417.459,3588.047 A1642.000,1642.000 40.000 0,1 2320.910,3610.336 L2328.336,3647.603 A1680.000,1680.000 0.000 0,0 2427.120,3624.798 Z" style="stroke-width:2.0;stroke:rgb(255,255,255);stroke-linecap:round;fill:rgb(185,185,185);" />
<text x="2380.8" y="3705.2" font-size="36.4px" font-family="CMUBright-Roman" style="text-anchor:start;fill:rgb(0,0,0);" transform="rotate(77.0,2380.8,3705.2)" >IT-Infrastructure</text>
<path d="M2417.459,3588.047 A1642.000,1642.000 40.000 0,1 2320.910,3610.336 L2328.336,3647.603 A1680.000,1680.000 0.000 0,0 2427.120,3624.798 Z" style="stroke-width:2.0;stroke:rgb(255,255,255);stroke-linecap:round;fill:none;" />
<path d="M2285.704,3616.953 A1642.000,1642.000 40.000 0,1 2189.660,3631.010 L2194.050,3668.755 A1680.000,1680.000 0.000 0,0 2292.316,3654.373 Z" style="stroke-width:2.0;stroke:rgb(255,255,255);stroke-linecap:round;fill:rgb(185,185,185);" />
<text x="2237.2" y="3731.0" font-size="36.4px" font-family="CMUBright-Roman" style="text-anchor:start;fill:rgb(0,0,0);" transform="rotate(81.7,2237.2,3731.0)" >Legal-Policy</text>
<path d="M2285.704,3616.953 A1642.000,1642.000 40.000 0,1 2189.660,3631.010 L2194.050,3668.755 A1680.000,1680.000 0.000 0,0 2292.316,3654.373 Z" style="stroke-width:2.0;stroke:rgb(255,255,255);stroke-linecap:round;fill:none;" />
<path d="M2154.035,3634.759 A1642.000,1642.000 40.000 0,1 1474.020,3555.477 L1461.848,3591.475 A1680.000,1680.000 0.000 0,0 2157.600,3672.592 Z" style="stroke-width:2.0;stroke:rgb(255,255,255);stroke-linecap:round;fill:rgb(15,52,135);" />
<text x="1813.6" y="3737.2" font-size="36.4px" font-family="CMUBright-Roman" style="text-anchor:end;fill:rgb(0,0,0);" transform="rotate(-83.3,1813.6,3737.2)" >Finance-Accounting</text>
<path d="M2154.035,3634.759 A1642.000,1642.000 40.000 0,1 1474.020,3555.477 L1461.848,3591.475 A1680.000,1680.000 0.000 0,0 2157.600,3672.592 Z" style="stroke-width:2.0;stroke:rgb(255,255,255);stroke-linecap:round;fill:none;" />
<path d="M1440.213,3543.633 A1642.000,1642.000 40.000 0,1 888.845,3208.925 L863.130,3236.902 A1680.000,1680.000 0.000 0,0 1427.258,3579.356 Z" style="stroke-width:2.0;stroke:rgb(255,255,255);stroke-linecap:round;fill:rgb(42,98,180);" />
<text x="1104.1" y="3500.0" font-size="36.4px" font-family="CMUBright-Roman" style="text-anchor:end;fill:rgb(0,0,0);" transform="rotate(-58.7,1104.1,3500.0)" >General-Business</text>
<path d="M1440.213,3543.633 A1642.000,1642.000 40.000 0,1 888.845,3208.925 L863.130,3236.902 A1680.000,1680.000 0.000 0,0 1427.258,3579.356 Z" style="stroke-width:2.0;stroke:rgb(255,255,255);stroke-linecap:round;fill:none;" />
<path d="M862.737,3184.397 A1642.000,1642.000 40.000 0,1 624.574,2896.866 L592.744,2917.622 A1680.000,1680.000 0.000 0,0 836.418,3211.807 Z" style="stroke-width:2.0;stroke:rgb(255,255,255);stroke-linecap:round;fill:rgb(28,75,160);" />
<text x="664.7" y="3126.8" font-size="36.4px" font-family="CMUBright-Roman" style="text-anchor:end;fill:rgb(0,0,0);" transform="rotate(-39.6,664.7,3126.8)" >Marketing-Communication</text>
<path d="M862.737,3184.397 A1642.000,1642.000 40.000 0,1 624.574,2896.866 L592.744,2917.622 A1680.000,1680.000 0.000 0,0 836.418,3211.807 Z" style="stroke-width:2.0;stroke:rgb(255,255,255);stroke-linecap:round;fill:none;" />
<path d="M605.337,2866.648 A1642.000,1642.000 40.000 0,1 476.558,2612.607 L441.301,2626.784 A1680.000,1680.000 0.000 0,0 573.061,2886.704 Z" style="stroke-width:2.0;stroke:rgb(255,255,255);stroke-linecap:round;fill:rgb(60,120,198);" />
<text x="448.7" y="2803.8" font-size="36.4px" font-family="CMUBright-Roman" style="text-anchor:end;fill:rgb(0,0,0);" transform="rotate(-26.9,448.7,2803.8)" >Operations-Analytics</text>
<path d="M605.337,2866.648 A1642.000,1642.000 40.000 0,1 476.558,2612.607 L441.301,2626.784 A1680.000,1680.000 0.000 0,0 573.061,2886.704 Z" style="stroke-width:2.0;stroke:rgb(255,255,255);stroke-linecap:round;fill:none;" />
<path d="M463.556,2579.227 A1642.000,1642.000 40.000 0,1 407.419,2399.813 L370.563,2409.066 A1680.000,1680.000 0.000 0,0 427.999,2592.632 Z" style="stroke-width:2.0;stroke:rgb(255,255,255);stroke-linecap:round;fill:rgb(82,145,215);" />
<text x="337.2" y="2536.5" font-size="36.4px" font-family="CMUBright-Roman" style="text-anchor:end;fill:rgb(0,0,0);" transform="rotate(-17.4,337.2,2536.5)" >Specialized-Business</text>
<path d="M463.556,2579.227 A1642.000,1642.000 40.000 0,1 407.419,2399.813 L370.563,2409.066 A1680.000,1680.000 0.000 0,0 427.999,2592.632 Z" style="stroke-width:2.0;stroke:rgb(255,255,255);stroke-linecap:round;fill:none;" />
<path d="M399.076,2364.976 A1642.000,1642.000 40.000 0,1 366.776,2169.540 L328.979,2173.464 A1680.000,1680.000 0.000 0,0 362.027,2373.422 Z" style="stroke-width:2.0;stroke:rgb(255,255,255);stroke-linecap:round;fill:rgb(200,108,30);" />
<text x="278.3" y="2297.2" font-size="36.4px" font-family="CMUBright-Roman" style="text-anchor:end;fill:rgb(0,0,0);" transform="rotate(-9.4,278.3,2297.2)" >Social-Sciences</text>
<path d="M399.076,2364.976 A1642.000,1642.000 40.000 0,1 366.776,2169.540 L328.979,2173.464 A1680.000,1680.000 0.000 0,0 362.027,2373.422 Z" style="stroke-width:2.0;stroke:rgb(255,255,255);stroke-linecap:round;fill:none;" />
<path d="M363.466,2133.872 A1642.000,1642.000 40.000 0,1 358.290,2030.870 L320.297,2031.584 A1680.000,1680.000 0.000 0,0 325.593,2136.970 Z" style="stroke-width:2.0;stroke:rgb(255,255,255);stroke-linecap:round;fill:rgb(108,170,228);" />
<text x="255.6" y="2099.7" font-size="36.4px" font-family="CMUBright-Roman" style="text-anchor:end;fill:rgb(0,0,0);" transform="rotate(-2.9,255.6,2099.7)" >Economics</text>
<path d="M363.466,2133.872 A1642.000,1642.000 40.000 0,1 358.290,2030.870 L320.297,2031.584 A1680.000,1680.000 0.000 0,0 325.593,2136.970 Z" style="stroke-width:2.0;stroke:rgb(255,255,255);stroke-linecap:round;fill:none;" />
<path d="M358.007,1995.049 A1642.000,1642.000 40.000 0,1 358.807,1948.539 L320.825,1947.348 A1680.000,1680.000 0.000 0,0 320.008,1994.934 Z" style="stroke-width:2.0;stroke:rgb(255,255,255);stroke-linecap:round;fill:rgb(220,140,52);" />
<text x="252.9" y="1982.5" font-size="36.4px" font-family="CMUBright-Roman" style="text-anchor:end;fill:rgb(0,0,0);" transform="rotate(1.0,252.9,1982.5)" >Humanities-Liberal-Arts</text>
<path d="M358.007,1995.049 A1642.000,1642.000 40.000 0,1 358.807,1948.539 L320.825,1947.348 A1680.000,1680.000 0.000 0,0 320.008,1994.934 Z" style="stroke-width:2.0;stroke:rgb(255,255,255);stroke-linecap:round;fill:none;" />
<path d="M360.320,1912.749 A1642.000,1642.000 40.000 0,1 361.133,1898.615 L323.205,1896.269 A1680.000,1680.000 0.000 0,0 322.373,1910.730 Z" style="stroke-width:2.0;stroke:rgb(255,255,255);stroke-linecap:round;fill:rgb(235,168,78);" />
<text x="255.0" y="1912.1" font-size="36.4px" font-family="CMUBright-Roman" style="text-anchor:end;fill:rgb(0,0,0);" transform="rotate(3.3,255.0,1912.1)" >International-Studies</text>
<path d="M360.320,1912.749 A1642.000,1642.000 40.000 0,1 361.133,1898.615 L323.205,1896.269 A1680.000,1680.000 0.000 0,0 322.373,1910.730 Z" style="stroke-width:2.0;stroke:rgb(255,255,255);stroke-linecap:round;fill:none;" />
<path d="M363.735,1862.887 A1642.000,1642.000 40.000 0,1 391.336,1670.812 L354.108,1663.193 A1680.000,1680.000 0.000 0,0 325.867,1859.714 Z" style="stroke-width:2.0;stroke:rgb(255,255,255);stroke-linecap:round;fill:rgb(195,58,55);" />
<text x="268.8" y="1763.9" font-size="36.4px" font-family="CMUBright-Roman" style="text-anchor:end;fill:rgb(0,0,0);" transform="rotate(8.2,268.8,1763.9)" >Social-Work</text>
<path d="M363.735,1862.887 A1642.000,1642.000 40.000 0,1 391.336,1670.812 L354.108,1663.193 A1680.000,1680.000 0.000 0,0 325.867,1859.714 Z" style="stroke-width:2.0;stroke:rgb(255,255,255);stroke-linecap:round;fill:none;" />
<path d="M398.900,1635.797 A1642.000,1642.000 40.000 0,1 428.981,1522.439 L392.624,1511.387 A1680.000,1680.000 0.000 0,0 361.847,1627.368 Z" style="stroke-width:2.0;stroke:rgb(255,255,255);stroke-linecap:round;fill:rgb(175,35,42);" />
<text x="308.1" y="1564.0" font-size="36.4px" font-family="CMUBright-Roman" style="text-anchor:end;fill:rgb(0,0,0);" transform="rotate(14.9,308.1,1564.0)" >Teacher-Education</text>
<path d="M398.900,1635.797 A1642.000,1642.000 40.000 0,1 428.981,1522.439 L392.624,1511.387 A1680.000,1680.000 0.000 0,0 361.847,1627.368 Z" style="stroke-width:2.0;stroke:rgb(255,255,255);stroke-linecap:round;fill:none;" />
<path d="M439.773,1488.281 A1642.000,1642.000 40.000 0,1 474.975,1391.343 L439.682,1377.257 A1680.000,1680.000 0.000 0,0 403.666,1476.439 Z" style="stroke-width:2.0;stroke:rgb(255,255,255);stroke-linecap:round;fill:rgb(215,82,72);" />
<text x="352.5" y="1418.2" font-size="36.4px" font-family="CMUBright-Roman" style="text-anchor:end;fill:rgb(0,0,0);" transform="rotate(20.0,352.5,1418.2)" >Special-Education</text>
<path d="M439.773,1488.281 A1642.000,1642.000 40.000 0,1 474.975,1391.343 L439.682,1377.257 A1680.000,1680.000 0.000 0,0 403.666,1476.439 Z" style="stroke-width:2.0;stroke:rgb(255,255,255);stroke-linecap:round;fill:none;" />
<path d="M488.616,1358.220 A1642.000,1642.000 40.000 0,1 509.092,1311.991 L474.588,1296.068 A1680.000,1680.000 0.000 0,0 453.639,1343.368 Z" style="stroke-width:2.0;stroke:rgb(255,255,255);stroke-linecap:round;fill:rgb(230,112,95);" />
<text x="396.3" y="1306.6" font-size="36.4px" font-family="CMUBright-Roman" style="text-anchor:end;fill:rgb(0,0,0);" transform="rotate(23.9,396.3,1306.6)" >Educational-Leadership</text>
<path d="M488.616,1358.220 A1642.000,1642.000 40.000 0,1 509.092,1311.991 L474.588,1296.068 A1680.000,1680.000 0.000 0,0 453.639,1343.368 Z" style="stroke-width:2.0;stroke:rgb(255,255,255);stroke-linecap:round;fill:none;" />
<path d="M524.455,1279.630 A1642.000,1642.000 40.000 0,1 553.988,1222.045 L520.524,1204.041 A1680.000,1680.000 0.000 0,0 490.308,1262.959 Z" style="stroke-width:2.0;stroke:rgb(255,255,255);stroke-linecap:round;fill:rgb(0,130,142);" />
<text x="439.7" y="1213.8" font-size="36.4px" font-family="CMUBright-Roman" style="text-anchor:end;fill:rgb(0,0,0);" transform="rotate(27.2,439.7,1213.8)" >Communication-Studies</text>
<path d="M524.455,1279.630 A1642.000,1642.000 40.000 0,1 553.988,1222.045 L520.524,1204.041 A1680.000,1680.000 0.000 0,0 490.308,1262.959 Z" style="stroke-width:2.0;stroke:rgb(255,255,255);stroke-linecap:round;fill:none;" />
<path d="M571.303,1190.686 A1642.000,1642.000 40.000 0,1 588.562,1160.949 L555.898,1141.531 A1680.000,1680.000 0.000 0,0 538.240,1171.956 Z" style="stroke-width:2.0;stroke:rgb(255,255,255);stroke-linecap:round;fill:rgb(0,165,172);" />
<text x="482.6" y="1133.8" font-size="36.4px" font-family="CMUBright-Roman" style="text-anchor:end;fill:rgb(0,0,0);" transform="rotate(30.1,482.6,1133.8)" >Journalism-Media</text>
<path d="M571.303,1190.686 A1642.000,1642.000 40.000 0,1 588.562,1160.949 L555.898,1141.531 A1680.000,1680.000 0.000 0,0 538.240,1171.956 Z" style="stroke-width:2.0;stroke:rgb(255,255,255);stroke-linecap:round;fill:none;" />
<path d="M607.202,1130.358 A1642.000,1642.000 40.000 0,1 613.667,1120.089 L581.583,1099.725 A1680.000,1680.000 0.000 0,0 574.969,1110.233 Z" style="stroke-width:2.0;stroke:rgb(255,255,255);stroke-linecap:round;fill:rgb(38,195,195);" />
<text x="512.9" y="1082.8" font-size="36.4px" font-family="CMUBright-Roman" style="text-anchor:end;fill:rgb(0,0,0);" transform="rotate(32.2,512.9,1082.8)" >Creative-Writing</text>
<path d="M607.202,1130.358 A1642.000,1642.000 40.000 0,1 613.667,1120.089 L581.583,1099.725 A1680.000,1680.000 0.000 0,0 574.969,1110.233 Z" style="stroke-width:2.0;stroke:rgb(255,255,255);stroke-linecap:round;fill:none;" />
<path d="M633.192,1090.055 A1642.000,1642.000 40.000 0,1 667.742,1040.182 L636.910,1017.969 A1680.000,1680.000 0.000 0,0 601.560,1068.997 Z" style="stroke-width:2.0;stroke:rgb(255,255,255);stroke-linecap:round;fill:rgb(180,45,112);" />
<text x="554.7" y="1018.2" font-size="36.4px" font-family="CMUBright-Roman" style="text-anchor:end;fill:rgb(0,0,0);" transform="rotate(34.7,554.7,1018.2)" >Arts-Theology</text>
<path d="M633.192,1090.055 A1642.000,1642.000 40.000 0,1 667.742,1040.182 L636.910,1017.969 A1680.000,1680.000 0.000 0,0 601.560,1068.997 Z" style="stroke-width:2.0;stroke:rgb(255,255,255);stroke-linecap:round;fill:none;" />
<path d="M688.997,1011.347 A1642.000,1642.000 40.000 0,1 698.803,998.477 L668.690,975.299 A1680.000,1680.000 0.000 0,0 658.657,988.467 Z" style="stroke-width:2.0;stroke:rgb(255,255,255);stroke-linecap:round;fill:rgb(205,75,142);" />
<text x="600.6" y="953.9" font-size="36.4px" font-family="CMUBright-Roman" style="text-anchor:end;fill:rgb(0,0,0);" transform="rotate(37.3,600.6,953.9)" >English-Writing</text>
<path d="M688.997,1011.347 A1642.000,1642.000 40.000 0,1 698.803,998.477 L668.690,975.299 A1680.000,1680.000 0.000 0,0 658.657,988.467 Z" style="stroke-width:2.0;stroke:rgb(255,255,255);stroke-linecap:round;fill:none;" />
<path d="M720.960,970.329 A1642.000,1642.000 40.000 0,1 724.774,965.610 L695.262,941.672 A1680.000,1680.000 0.000 0,0 691.360,946.500 Z" style="stroke-width:2.0;stroke:rgb(255,255,255);stroke-linecap:round;fill:rgb(225,110,168);" />
<text x="631.0" y="914.3" font-size="36.4px" font-family="CMUBright-Roman" style="text-anchor:end;fill:rgb(0,0,0);" transform="rotate(38.9,631.0,914.3)" >Languages</text>
<path d="M720.960,970.329 A1642.000,1642.000 40.000 0,1 724.774,965.610 L695.262,941.672 A1680.000,1680.000 0.000 0,0 691.360,946.500 Z" style="stroke-width:2.0;stroke:rgb(255,255,255);stroke-linecap:round;fill:none;" />
<path d="M747.643,938.037 A1642.000,1642.000 40.000 0,1 884.635,794.959 L858.822,767.071 A1680.000,1680.000 0.000 0,0 718.660,913.461 Z" style="stroke-width:2.0;stroke:rgb(255,255,255);stroke-linecap:round;fill:rgb(88,40,138);" />
<text x="727.0" y="803.3" font-size="36.4px" font-family="CMUBright-Roman" style="text-anchor:end;fill:rgb(0,0,0);" transform="rotate(43.8,727.0,803.3)" >Biological-Sciences</text>
<path d="M747.643,938.037 A1642.000,1642.000 40.000 0,1 884.635,794.959 L858.822,767.071 A1680.000,1680.000 0.000 0,0 718.660,913.461 Z" style="stroke-width:2.0;stroke:rgb(255,255,255);stroke-linecap:round;fill:none;" />
<path d="M911.188,770.914 A1642.000,1642.000 40.000 0,1 969.888,721.316 L946.049,691.724 A1680.000,1680.000 0.000 0,0 885.990,742.470 Z" style="stroke-width:2.0;stroke:rgb(255,255,255);stroke-linecap:round;fill:rgb(115,65,165);" />
<text x="862.8" y="673.5" font-size="36.4px" font-family="CMUBright-Roman" style="text-anchor:end;fill:rgb(0,0,0);" transform="rotate(49.8,862.8,673.5)" >Health-Wellness</text>
<path d="M911.188,770.914 A1642.000,1642.000 40.000 0,1 969.888,721.316 L946.049,691.724 A1680.000,1680.000 0.000 0,0 885.990,742.470 Z" style="stroke-width:2.0;stroke:rgb(255,255,255);stroke-linecap:round;fill:none;" />
<path d="M998.028,699.148 A1642.000,1642.000 40.000 0,1 1023.858,679.655 L1001.267,649.099 A1680.000,1680.000 0.000 0,0 974.840,669.043 Z" style="stroke-width:2.0;stroke:rgb(255,255,255);stroke-linecap:round;fill:rgb(140,92,188);" />
<text x="935.2" y="614.8" font-size="36.4px" font-family="CMUBright-Roman" style="text-anchor:end;fill:rgb(0,0,0);" transform="rotate(53.0,935.2,614.8)" >Physical-Sciences</text>
<path d="M998.028,699.148 A1642.000,1642.000 40.000 0,1 1023.858,679.655 L1001.267,649.099 A1680.000,1680.000 0.000 0,0 974.840,669.043 Z" style="stroke-width:2.0;stroke:rgb(255,255,255);stroke-linecap:round;fill:none;" />
<path d="M1052.893,658.675 A1642.000,1642.000 40.000 0,1 1064.493,650.559 L1042.843,619.329 A1680.000,1680.000 0.000 0,0 1030.975,627.633 Z" style="stroke-width:2.0;stroke:rgb(255,255,255);stroke-linecap:round;fill:rgb(165,120,208);" />
<text x="988.2" y="575.6" font-size="36.4px" font-family="CMUBright-Roman" style="text-anchor:end;fill:rgb(0,0,0);" transform="rotate(55.0,988.2,575.6)" >Environmental-Sciences</text>
<path d="M1052.893,658.675 A1642.000,1642.000 40.000 0,1 1064.493,650.559 L1042.843,619.329 A1680.000,1680.000 0.000 0,0 1030.975,627.633 Z" style="stroke-width:2.0;stroke:rgb(255,255,255);stroke-linecap:round;fill:none;" />
<path d="M1094.154,630.472 A1642.000,1642.000 40.000 0,1 1594.822,408.776 L1585.445,371.951 A1680.000,1680.000 0.000 0,0 1073.190,598.778 Z" style="stroke-width:2.0;stroke:rgb(255,255,255);stroke-linecap:round;fill:rgb(22,118,50);" />
<text x="1278.0" y="409.0" font-size="36.4px" font-family="CMUBright-Roman" style="text-anchor:end;fill:rgb(0,0,0);" transform="rotate(66.1,1278.0,409.0)" >Engineering-Disciplines</text>
<path d="M1094.154,630.472 A1642.000,1642.000 40.000 0,1 1594.822,408.776 L1585.445,371.951 A1680.000,1680.000 0.000 0,0 1073.190,598.778 Z" style="stroke-width:2.0;stroke:rgb(255,255,255);stroke-linecap:round;fill:none;" />
<path d="M1629.631,400.315 A1642.000,1642.000 40.000 0,1 1964.180,358.391 L1963.351,320.400 A1680.000,1680.000 0.000 0,0 1621.060,363.295 Z" style="stroke-width:2.0;stroke:rgb(255,255,255);stroke-linecap:round;fill:rgb(48,158,75);" />
<text x="1767.4" y="268.4" font-size="36.4px" font-family="CMUBright-Roman" style="text-anchor:end;fill:rgb(0,0,0);" transform="rotate(82.9,1767.4,268.4)" >Computer-Science-IT</text>
<path d="M1629.631,400.315 A1642.000,1642.000 40.000 0,1 1964.180,358.391 L1963.351,320.400 A1680.000,1680.000 0.000 0,0 1621.060,363.295 Z" style="stroke-width:2.0;stroke:rgb(255,255,255);stroke-linecap:round;fill:none;" />
</g>
<g id="track_0">
<path d="M 619.283,2857.981 A 1625.580,1625.580 0.00 0,1 617.2,2854.6 L 617.2,2854.6 666.2,2825.6 716.9,2798.4 769.0,2773.2 822.2,2750.1 876.5,2729.2 931.5,2710.7 987.2,2694.7 1043.4,2681.3 1099.8,2670.7 1156.3,2662.8 1212.8,2657.9 1269.1,2655.8 1325.0,2656.8 1380.3,2660.7 1435.1,2667.7 1489.0,2677.8 1542.1,2690.9 1594.0,2707.1 1644.9,2726.3 1694.4,2748.5 1742.6,2773.7 1789.3,2801.7 1834.4,2832.5 1877.8,2866.1 1919.5,2902.2 1959.3,2940.9 1997.2,2982.0 2033.1,3025.3 2067.0,3070.8 2098.8,3118.2 2128.4,3167.4 2155.8,3218.2 2180.9,3270.4 2203.8,3323.8 2224.3,3378.2 2242.5,3433.4 2258.3,3489.0 2271.8,3544.9 2282.8,3600.8  A 1625.580,1625.580 0.00 0,1 2278.9,3601.5 L 2278.9,3601.5 2268.0,3545.6 2254.7,3489.7 2239.0,3434.1 2221.0,3378.9 2200.6,3324.5 2177.9,3271.1 2153.0,3218.9 2125.8,3168.1 2096.3,3119.0 2064.7,3071.6 2031.0,3026.1 1995.3,2982.8 1957.6,2941.8 1917.9,2903.1 1876.4,2867.0 1833.2,2833.5 1788.3,2802.8 1741.8,2774.8 1693.8,2749.7 1644.4,2727.6 1593.7,2708.5 1541.9,2692.4 1489.1,2679.3 1435.3,2669.4 1380.7,2662.5 1325.5,2658.6 1269.7,2657.8 1213.6,2659.9 1157.3,2665.0 1100.9,2673.0 1044.6,2683.8 988.6,2697.3 933.0,2713.4 878.0,2732.0 823.9,2753.0 770.8,2776.3 718.8,2801.6 668.2,2828.9 619.3,2858.0  Z" style="stroke-width: 0.0;  fill: rgb(60,120,198);" />
<path d="M 617.174,2854.577 A 1625.580,1625.580 0.00 0,1 615.1,2851.2 L 615.1,2851.2 664.7,2822.1 716.1,2794.8 769.0,2769.5 823.2,2746.3 878.6,2725.3 935.0,2706.7 992.1,2690.6 1049.9,2677.1 1108.2,2666.3 1166.7,2658.2 1225.4,2652.9 1284.0,2650.6 1342.4,2651.1 1400.6,2654.7 1458.2,2661.2 1515.3,2670.7 1571.6,2683.2 1627.0,2698.7 1681.5,2717.2 1734.8,2738.6 1787.0,2762.8 1837.8,2789.9 1887.1,2819.8 1934.9,2852.3 1981.1,2887.4 2025.6,2925.1 2068.2,2965.0 2109.0,3007.2 2147.8,3051.6 2184.5,3097.8 2219.1,3145.9 2251.6,3195.6 2281.8,3246.7 2309.7,3299.1 2335.3,3352.5 2358.5,3406.8 2379.2,3461.7 2397.5,3516.9 2413.3,3572.2  A 1625.580,1625.580 0.00 0,1 2409.4,3573.2 L 2409.4,3573.2 2393.8,3517.9 2375.6,3462.6 2355.0,3407.8 2332.0,3353.5 2306.6,3300.1 2278.9,3247.7 2248.8,3196.6 2216.6,3146.9 2182.1,3098.8 2145.6,3052.5 2107.0,3008.2 2066.4,2966.0 2023.9,2926.1 1979.6,2888.5 1933.6,2853.4 1886.0,2820.9 1836.8,2791.1 1786.2,2764.1 1734.2,2739.9 1681.0,2718.5 1626.7,2700.1 1571.5,2684.7 1515.3,2672.3 1458.4,2662.9 1400.9,2656.5 1342.9,2653.0 1284.6,2652.6 1226.1,2655.0 1167.6,2660.4 1109.2,2668.6 1051.1,2679.6 993.5,2693.2 936.4,2709.4 880.2,2728.1 824.9,2749.2 770.7,2772.6 718.0,2798.0 666.7,2825.4 617.2,2854.6  Z" style="stroke-width: 0.0;  fill: rgb(60,120,198);" />
<path d="M 615.073,2851.168 A 1625.580,1625.580 0.00 0,1 607.8,2839.2 L 607.8,2839.2 659.6,2809.5 713.6,2781.6 769.6,2755.6 827.3,2731.7 886.7,2709.8 947.6,2690.2 1009.8,2672.9 1073.2,2657.9 1137.6,2645.3 1202.8,2635.3 1268.8,2627.7 1335.3,2622.7 1402.3,2620.3 1469.5,2620.5 1536.8,2623.4 1604.1,2628.9 1671.3,2637.0 1738.1,2647.8 1804.6,2661.2 1870.5,2677.2 1935.6,2695.8 2000.0,2716.9 2063.4,2740.4 2125.8,2766.4 2186.9,2794.7 2246.8,2825.3 2305.1,2858.2 2362.0,2893.1 2417.1,2930.1 2470.5,2968.9 2521.9,3009.6 2571.4,3052.0 2618.7,3095.9 2663.8,3141.3 2706.6,3187.9 2747.0,3235.7 2784.8,3284.5 2819.9,3334.0 2852.4,3384.2  A 1625.580,1625.580 0.00 0,1 2840.4,3391.5 L 2840.4,3391.5 2808.5,3341.1 2773.8,3291.4 2736.5,3242.5 2696.7,3194.5 2654.5,3147.7 2609.9,3102.2 2563.2,3058.1 2514.3,3015.6 2463.4,2974.7 2410.6,2935.7 2356.0,2898.7 2299.7,2863.6 2241.9,2830.8 2182.6,2800.1 2122.0,2771.8 2060.2,2745.8 1997.3,2722.3 1933.5,2701.3 1868.8,2682.8 1803.5,2666.9 1737.5,2653.7 1671.2,2643.1 1604.5,2635.1 1537.7,2629.9 1470.8,2627.3 1404.1,2627.4 1337.6,2630.1 1271.6,2635.4 1206.1,2643.3 1141.3,2653.7 1077.3,2666.7 1014.3,2682.0 952.5,2699.8 892.1,2719.8 833.1,2742.1 775.7,2766.4 720.1,2792.8 666.5,2821.1 615.1,2851.2  Z" style="stroke-width: 0.0;  fill: rgb(60,120,198);" />
<path d="M 607.785,2839.195 A 1625.580,1625.580 0.00 0,1 603.7,2832.3 L 603.7,2832.3 658.4,2801.2 715.6,2771.8 775.2,2744.0 836.9,2717.9 900.7,2693.6 966.4,2671.0 1033.9,2650.3 1103.0,2631.4 1173.6,2614.3 1245.5,2599.1 1318.7,2585.8 1392.9,2574.5 1468.0,2565.0 1544.0,2557.6 1620.6,2552.0 1697.7,2548.5 1775.2,2546.9 1852.9,2547.2 1930.7,2549.6 2008.5,2553.9 2086.1,2560.1 2163.4,2568.3 2240.3,2578.4 2316.5,2590.4 2392.0,2604.3 2466.7,2620.0 2540.4,2637.7 2612.9,2657.1 2684.1,2678.3 2754.0,2701.3 2822.2,2726.0 2888.8,2752.4 2953.6,2780.5 3016.5,2810.1 3077.2,2841.3 3135.7,2874.0 3191.8,2908.2 3245.5,2943.7 3296.5,2980.6  A 1625.580,1625.580 0.00 0,1 3291.7,2987.0 L 3291.7,2987.0 3240.9,2949.9 3187.5,2914.1 3131.6,2879.8 3073.3,2846.9 3012.9,2815.5 2950.3,2785.6 2885.7,2757.4 2819.4,2730.8 2751.3,2705.9 2681.7,2682.8 2610.7,2661.4 2538.4,2641.9 2465.0,2624.1 2390.6,2608.2 2315.3,2594.3 2239.3,2582.2 2162.6,2572.0 2085.6,2563.8 2008.2,2557.6 1930.6,2553.3 1853.0,2551.0 1775.5,2550.7 1698.3,2552.4 1621.4,2556.1 1545.0,2561.7 1469.3,2569.3 1394.3,2578.9 1320.4,2590.4 1247.4,2603.8 1175.7,2619.2 1105.3,2636.4 1036.5,2655.6 969.2,2676.5 903.7,2699.3 840.2,2723.9 778.6,2750.2 719.3,2778.2 662.3,2807.9 607.8,2839.2  Z" style="stroke-width: 0.0;  fill: rgb(60,120,198);" />
<path d="M 603.668,2832.326 A 1625.580,1625.580 0.00 0,1 583.6,2797.7 L 583.6,2797.7 642.8,2765.7 704.5,2735.0 768.6,2705.5 835.0,2677.1 903.5,2649.9 973.9,2623.7 1046.2,2598.6 1120.3,2574.6 1195.9,2551.5 1273.1,2529.4 1351.5,2508.3 1431.2,2488.1 1512.0,2468.9 1593.7,2450.6 1676.2,2433.2 1759.5,2416.8 1843.3,2401.3 1927.6,2386.7 2012.2,2373.1 2097.1,2360.5 2182.0,2348.8 2266.8,2338.2 2351.6,2328.6 2436.0,2320.0 2520.0,2312.6 2603.5,2306.3 2686.4,2301.1 2768.5,2297.2 2849.7,2294.6 2929.9,2293.2 3009.0,2293.2 3086.8,2294.7 3163.3,2297.6 3238.4,2302.1 3311.8,2308.2 3383.5,2316.0 3453.5,2325.5 3521.5,2336.9 3587.4,2350.2  A 1625.580,1625.580 0.00 0,1 3578.3,2389.2 L 3578.3,2389.2 3513.2,2374.4 3445.9,2361.5 3376.7,2350.5 3305.7,2341.3 3232.9,2333.8 3158.5,2328.0 3082.7,2323.8 3005.4,2321.1 2926.9,2319.9 2847.3,2320.2 2766.6,2321.8 2685.1,2324.8 2602.8,2329.1 2519.8,2334.7 2436.4,2341.5 2352.5,2349.6 2268.3,2358.8 2184.1,2369.1 2099.7,2380.5 2015.5,2393.1 1931.5,2406.7 1847.9,2421.4 1764.7,2437.1 1682.1,2453.9 1600.3,2471.7 1519.3,2490.5 1439.3,2510.4 1360.4,2531.3 1282.8,2553.2 1206.6,2576.2 1131.8,2600.2 1058.7,2625.2 987.3,2651.4 917.9,2678.7 850.5,2707.0 785.2,2736.6 722.2,2767.3 661.7,2799.2 603.7,2832.3  Z" style="stroke-width: 0.0;  fill: rgb(60,120,198);" />
<path d="M 583.589,2797.678 A 1625.580,1625.580 0.00 0,1 573.9,2780.2 L 573.9,2780.2 636.1,2747.3 700.7,2715.3 767.4,2684.1 836.2,2653.7 907.0,2623.9 979.5,2594.6 1053.6,2565.9 1129.3,2537.6 1206.4,2509.6 1284.7,2482.0 1364.2,2454.7 1444.7,2427.7 1526.1,2400.9 1608.3,2374.2 1691.2,2347.8 1774.6,2321.6 1858.4,2295.6 1942.7,2269.8 2027.1,2244.2 2111.7,2218.8 2196.3,2193.8 2280.8,2169.0 2365.2,2144.6 2449.2,2120.6 2533.0,2097.1 2616.3,2074.1 2699.0,2051.7 2781.1,2030.1 2862.5,2009.2 2943.1,1989.1 3022.8,1970.1 3101.6,1952.1 3179.4,1935.3 3256.0,1919.8 3331.5,1905.8 3405.7,1893.4 3478.6,1882.7 3550.1,1873.9 3620.1,1867.2  A 1625.580,1625.580 0.00 0,1 3621.7,1887.1 L 3621.7,1887.1 3551.8,1893.0 3480.4,1901.0 3407.6,1910.8 3333.5,1922.5 3258.1,1935.7 3181.6,1950.4 3103.9,1966.5 3025.2,1983.8 2945.5,2002.3 2864.9,2021.8 2783.5,2042.2 2701.5,2063.4 2618.8,2085.3 2535.5,2107.9 2451.8,2131.1 2367.8,2154.9 2283.5,2179.1 2199.1,2203.7 2114.6,2228.7 2030.1,2254.0 1945.8,2279.6 1861.7,2305.5 1778.0,2331.6 1694.8,2358.0 1612.1,2384.7 1530.2,2411.6 1449.0,2438.7 1368.8,2466.2 1289.7,2493.9 1211.7,2521.9 1135.0,2550.4 1059.7,2579.2 986.0,2608.5 913.9,2638.3 843.7,2668.7 775.4,2699.8 709.2,2731.5 645.2,2764.2 583.6,2797.7  Z" style="stroke-width: 0.0;  fill: rgb(60,120,198);" />
<path d="M 573.872,2780.172 A 1625.580,1625.580 0.00 0,1 562.5,2759.0 L 562.5,2759.0 627.9,2725.3 695.3,2692.2 764.5,2659.5 835.4,2627.1 907.7,2594.9 981.4,2562.7 1056.4,2530.5 1132.4,2498.2 1209.3,2465.7 1287.1,2432.9 1365.6,2399.8 1444.7,2366.2 1524.3,2332.3 1604.2,2297.9 1684.5,2263.0 1764.9,2227.5 1845.4,2191.6 1925.9,2155.2 2006.3,2118.3 2086.5,2081.0 2166.5,2043.2 2246.2,2005.0 2325.5,1966.5 2404.3,1927.8 2482.7,1888.9 2560.5,1849.8 2637.7,1810.8 2714.3,1771.8 2790.2,1733.1 2865.4,1694.7 2939.8,1656.7 3013.4,1619.3 3086.3,1582.7 3158.3,1547.0 3229.6,1512.4 3300.0,1479.0 3369.5,1447.1 3438.3,1416.9 3506.2,1388.5  A 1625.580,1625.580 0.00 0,1 3515.0,1410.8 L 3515.0,1410.8 3447.0,1438.1 3378.1,1467.3 3308.4,1498.2 3237.8,1530.6 3166.3,1564.3 3094.1,1599.2 3021.0,1635.0 2947.1,1671.6 2872.4,1708.9 2797.0,1746.7 2720.8,1784.9 2644.0,1823.3 2566.6,1862.0 2488.6,1900.6 2410.0,1939.3 2331.0,1977.8 2251.6,2016.1 2171.7,2054.2 2091.7,2091.9 2011.3,2129.3 1930.9,2166.3 1850.4,2202.9 1769.9,2239.0 1689.6,2274.7 1609.5,2310.0 1529.6,2344.8 1450.3,2379.2 1371.4,2413.2 1293.2,2446.9 1215.7,2480.3 1139.1,2513.4 1063.5,2546.4 989.0,2579.3 915.8,2612.1 844.0,2645.1 773.8,2678.3 705.3,2711.8 638.6,2745.7 573.9,2780.2  Z" style="stroke-width: 0.0;  fill: rgb(60,120,198);" />
<path d="M 562.496,2759.008 A 1625.580,1625.580 0.00 0,1 544.2,2723.4 L 544.2,2723.4 608.5,2690.5 673.3,2655.4 738.9,2618.4 805.1,2579.5 872.0,2539.1 939.6,2497.2 1007.8,2454.0 1076.7,2409.7 1146.3,2364.4 1216.5,2318.2 1287.2,2271.3 1358.5,2223.8 1430.4,2175.9 1502.7,2127.5 1575.5,2078.9 1648.6,2030.0 1722.1,1981.1 1795.8,1932.1 1869.7,1883.1 1943.8,1834.3 2017.8,1785.6 2091.9,1737.0 2165.7,1688.7 2239.4,1640.7 2312.7,1592.9 2385.6,1545.4 2458.0,1498.2 2529.7,1451.3 2600.6,1404.6 2670.7,1358.3 2739.7,1312.1 2807.5,1266.2 2874.0,1220.4 2939.1,1174.7 3002.6,1129.1 3064.4,1083.5 3124.2,1037.8 3181.9,992.0 3237.4,945.8  A 1625.580,1625.580 0.00 0,1 3263.0,976.6 L 3263.0,976.6 3206.1,1021.7 3146.9,1066.5 3085.7,1111.2 3022.8,1155.8 2958.1,1200.4 2891.9,1245.0 2824.4,1289.8 2755.6,1334.9 2685.8,1380.1 2615.0,1425.7 2543.4,1471.6 2471.1,1517.8 2398.3,1564.4 2324.9,1611.3 2251.3,1658.6 2177.3,1706.3 2103.2,1754.3 2029.1,1802.7 1955.0,1851.3 1880.9,1900.1 1807.1,1949.2 1733.5,1998.3 1660.2,2047.6 1587.3,2096.8 1514.9,2146.0 1442.9,2194.9 1371.4,2243.6 1300.5,2291.9 1230.1,2339.7 1160.4,2386.9 1091.3,2433.3 1022.9,2478.8 955.2,2523.3 888.1,2566.6 821.7,2608.5 755.9,2648.9 690.8,2687.6 626.3,2724.3 562.5,2759.0  Z" style="stroke-width: 0.0;  fill: rgb(60,120,198);" />
<path d="M 544.236,2723.369 A 1625.580,1625.580 0.00 0,1 538.9,2712.6 L 538.9,2712.6 599.9,2681.6 661.3,2647.9 723.2,2611.7 785.5,2573.2 848.3,2532.3 911.4,2489.4 974.8,2444.5 1038.5,2397.7 1102.5,2349.3 1166.7,2299.2 1231.0,2247.7 1295.4,2194.8 1359.9,2140.6 1424.3,2085.3 1488.6,2028.9 1552.8,1971.7 1616.8,1913.5 1680.4,1854.7 1743.7,1795.1 1806.5,1735.0 1868.7,1674.4 1930.3,1613.4 1991.1,1552.0 2051.2,1490.4 2110.2,1428.6 2168.3,1366.6 2225.2,1304.6 2280.9,1242.5 2335.2,1180.5 2388.0,1118.5 2439.2,1056.7 2488.7,995.1 2536.3,933.7 2581.9,872.5 2625.4,811.6 2666.7,751.0 2705.5,690.8 2741.8,630.8 2775.4,571.3  A 1625.580,1625.580 0.00 0,1 2786.0,577.1 L 2786.0,577.1 2751.9,636.5 2715.1,696.3 2675.7,756.4 2634.0,816.9 2590.1,877.6 2544.0,938.7 2496.0,1000.0 2446.1,1061.5 2394.6,1123.2 2341.4,1185.0 2286.8,1246.9 2230.9,1308.9 2173.7,1370.9 2115.4,1432.8 2056.1,1494.6 1995.9,1556.3 1934.8,1617.6 1873.1,1678.7 1810.7,1739.4 1747.9,1799.6 1684.5,1859.2 1620.8,1918.3 1556.9,1976.6 1492.7,2034.0 1428.4,2090.6 1364.0,2146.2 1299.5,2200.6 1235.2,2253.8 1170.9,2305.7 1106.8,2356.1 1043.0,2404.9 979.3,2452.0 916.0,2497.3 853.0,2540.7 790.4,2582.0 728.2,2621.0 666.4,2657.7 605.1,2691.9 544.2,2723.4  Z" style="stroke-width: 0.0;  fill: rgb(60,120,198);" />
<path d="M 538.930,2712.590 A 1625.580,1625.580 0.00 0,1 491.8,2606.5 L 491.8,2606.5 549.7,2581.8 607.7,2554.1 665.9,2523.6 724.0,2490.3 782.0,2454.3 839.7,2415.7 897.0,2374.6 953.9,2331.1 1010.2,2285.3 1065.7,2237.3 1120.6,2187.1 1174.5,2135.0 1227.4,2080.9 1279.3,2025.0 1330.0,1967.4 1379.4,1908.2 1427.5,1847.6 1474.2,1785.5 1519.3,1722.2 1562.9,1657.7 1604.8,1592.2 1645.0,1525.7 1683.3,1458.4 1719.8,1390.5 1754.3,1322.0 1786.8,1253.0 1817.2,1183.7 1845.5,1114.2 1871.6,1044.7 1895.4,975.2 1916.9,905.9 1936.0,836.9 1952.8,768.4 1967.0,700.4 1978.8,633.2 1988.0,566.9 1994.7,501.5 1998.7,437.3 2000.0,374.4  A 1625.580,1625.580 0.00 0,1 2116.0,378.6 L 2116.0,378.6 2110.1,442.5 2101.6,507.7 2090.3,574.0 2076.6,641.3 2060.3,709.4 2041.6,778.3 2020.6,847.8 1997.3,917.7 1971.7,988.1 1944.0,1058.8 1914.3,1129.6 1882.5,1200.4 1848.7,1271.1 1813.2,1341.7 1775.8,1411.9 1736.6,1481.7 1695.9,1551.0 1653.6,1619.7 1609.7,1687.5 1564.5,1754.5 1517.9,1820.5 1470.0,1885.4 1420.9,1949.0 1370.7,2011.4 1319.5,2072.2 1267.3,2131.6 1214.3,2189.3 1160.4,2245.2 1105.8,2299.2 1050.6,2351.3 994.9,2401.3 938.6,2449.0 882.0,2494.4 825.1,2537.5 768.0,2578.0 710.7,2615.8 653.4,2651.0 596.1,2683.3 538.9,2712.6  Z" style="stroke-width: 0.0;  fill: rgb(60,120,198);" />
</g>
<defs>
<pattern id="vline" width="10" height="10" patternTransform="rotate(0 0 0)" patternUnits="userSpaceOnUse"><line x1="0" y1="0" x2="0" y2="10" style="stroke:black;stroke-width:5" /></pattern>
<pattern id="checker" width="10" height="10" patternTransform="rotate(45 0 0)" patternUnits="userSpaceOnUse"><line x1="0" y1="0" x2="10" y2="0" style="stroke:black;stroke-width:5" /><line x1="0" y1="0" x2="0" y2="10" style="stroke:black;stroke-width:4" /></pattern>
<pattern id="vline-sparse" width="10" height="10" patternTransform="rotate(0 0 0)" patternUnits="userSpaceOnUse"><line x1="0" y1="0" x2="0" y2="10" style="stroke:black;stroke-width:2" /></pattern>
<pattern id="checker" width="10" height="10" patternTransform="rotate(45 0 0)" patternUnits="userSpaceOnUse"><line x1="0" y1="0" x2="10" y2="0" style="stroke:black;stroke-width:2" /><line x1="0" y1="0" x2="0" y2="10" style="stroke:black;stroke-width:2" /></pattern>
<pattern id="hline-sparse" width="10" height="10" patternTransform="rotate(0 0 0)" patternUnits="userSpaceOnUse"><line x1="0" y1="0" x2="10" y2="0" style="stroke:black;stroke-width:2" /></pattern>
<pattern id="hline" width="10" height="10" patternTransform="rotate(0 0 0)" patternUnits="userSpaceOnUse"><line x1="0" y1="0" x2="10" y2="0" style="stroke:black;stroke-width:5" /></pattern>
</defs>
</svg>
