<?xml version="1.0" encoding="utf-8" standalone="no"?>
<!DOCTYPE svg PUBLIC "-//W3C//DTD SVG 1.1//EN" "http://www.w3.org/Graphics/SVG/1.1/DTD/svg11.dtd">
<svg width="4000px" height="4000px" version="1.1" xmlns="http://www.w3.org/2000/svg" xmlns:xlink="http://www.w3.org/1999/xlink">
<g id="bg">
<rect x="0" y="0" width="4000px" height="4000px" style="fill:rgb(255,255,255);"/>
</g>
<g id="ideograms">
<path d="M2000.000,358.000 A1642.000,1642.000 40.000 0,1 2727.139,527.779 L2743.967,493.709 A1680.000,1680.000 0.000 0,0 2000.000,320.000 Z" style="stroke-width:2.0;stroke:rgb(255,255,255);stroke-linecap:round;fill:rgb(185,185,185);" />
<text x="2412.3" y="302.2" font-size="36.4px" font-family="CMUBright-Roman" style="text-anchor:start;fill:rgb(0,0,0);" transform="rotate(283.1,2412.3,302.2)" >Engineering</text>
<path d="M2000.000,358.000 A1642.000,1642.000 40.000 0,1 2727.139,527.779 L2743.967,493.709 A1680.000,1680.000 0.000 0,0 2000.000,320.000 Z" style="stroke-width:2.0;stroke:rgb(255,255,255);stroke-linecap:round;fill:none;" />
<path d="M2759.082,543.992 A1642.000,1642.000 40.000 0,1 3284.099,976.646 L3313.816,952.963 A1680.000,1680.000 0.000 0,0 2776.649,510.297 Z" style="stroke-width:2.0;stroke:rgb(255,255,255);stroke-linecap:round;fill:rgb(185,185,185);" />
<text x="3120.8" y="659.6" font-size="36.4px" font-family="CMUBright-Roman" style="text-anchor:start;fill:rgb(0,0,0);" transform="rotate(309.5,3120.8,659.6)" >Finance-Investment</text>
<path d="M2759.082,543.992 A1642.000,1642.000 40.000 0,1 3284.099,976.646 L3313.816,952.963 A1680.000,1680.000 0.000 0,0 2776.649,510.297 Z" style="stroke-width:2.0;stroke:rgb(255,255,255);stroke-linecap:round;fill:none;" />
<path d="M3306.118,1004.902 A1642.000,1642.000 40.000 0,1 3557.132,1478.938 L3593.167,1466.879 A1680.000,1680.000 0.000 0,0 3336.345,981.873 Z" style="stroke-width:2.0;stroke:rgb(255,255,255);stroke-linecap:round;fill:rgb(185,185,185);" />
<text x="3551.5" y="1196.5" font-size="36.4px" font-family="CMUBright-Roman" style="text-anchor:start;fill:rgb(0,0,0);" transform="rotate(332.1,3551.5,1196.5)" >Management-Operations</text>
<path d="M3306.118,1004.902 A1642.000,1642.000 40.000 0,1 3557.132,1478.938 L3593.167,1466.879 A1680.000,1680.000 0.000 0,0 3336.345,981.873 Z" style="stroke-width:2.0;stroke:rgb(255,255,255);stroke-linecap:round;fill:none;" />
<path d="M3568.128,1513.031 A1642.000,1642.000 40.000 0,1 3640.479,1929.339 L3678.444,1927.703 A1680.000,1680.000 0.000 0,0 3604.418,1501.761 Z" style="stroke-width:2.0;stroke:rgb(255,255,255);stroke-linecap:round;fill:rgb(185,185,185);" />
<text x="3723.5" y="1713.2" font-size="36.4px" font-family="CMUBright-Roman" style="text-anchor:start;fill:rgb(0,0,0);" transform="rotate(350.1,3723.5,1713.2)" >Software-Data</text>
<path d="M3568.128,1513.031 A1642.000,1642.000 40.000 0,1 3640.479,1929.339 L3678.444,1927.703 A1680.000,1680.000 0.000 0,0 3604.418,1501.761 Z" style="stroke-width:2.0;stroke:rgb(255,255,255);stroke-linecap:round;fill:none;" />
<path d="M3641.630,1965.142 A1642.000,1642.000 40.000 0,1 3597.388,2380.151 L3634.356,2388.948 A1680.000,1680.000 0.000 0,0 3679.621,1964.336 Z" style="stroke-width:2.0;stroke:rgb(255,255,255);stroke-linecap:round;fill:rgb(185,185,185);" />
<text x="3735.6" y="2201.1" font-size="36.4px" font-family="CMUBright-Roman" style="text-anchor:start;fill:rgb(0,0,0);" transform="rotate(6.1,3735.6,2201.1)" >Sales-Marketing</text>
<path d="M3641.630,1965.142 A1642.000,1642.000 40.000 0,1 3597.388,2380.151 L3634.356,2388.948 A1680.000,1680.000 0.000 0,0 3679.621,1964.336 Z" style="stroke-width:2.0;stroke:rgb(255,255,255);stroke-linecap:round;fill:none;" />
<path d="M3588.715,2414.907 A1642.000,1642.000 40.000 0,1 3447.858,2774.513 L3481.365,2792.437 A1680.000,1680.000 0.000 0,0 3625.482,2424.509 Z" style="stroke-width:2.0;stroke:rgb(255,255,255);stroke-linecap:round;fill:rgb(185,185,185);" />
<text x="3620.9" y="2652.1" font-size="36.4px" font-family="CMUBright-Roman" style="text-anchor:start;fill:rgb(0,0,0);" transform="rotate(21.4,3620.9,2652.1)" >Accounting-Audit</text>
<path d="M3588.715,2414.907 A1642.000,1642.000 40.000 0,1 3447.858,2774.513 L3481.365,2792.437 A1680.000,1680.000 0.000 0,0 3625.482,2424.509 Z" style="stroke-width:2.0;stroke:rgb(255,255,255);stroke-linecap:round;fill:none;" />
<path d="M3430.618,2805.914 A1642.000,1642.000 40.000 0,1 3261.549,3051.027 L3290.745,3075.350 A1680.000,1680.000 0.000 0,0 3463.726,2824.565 Z" style="stroke-width:2.0;stroke:rgb(255,255,255);stroke-linecap:round;fill:rgb(185,185,185);" />
<text x="3429.4" y="3004.8" font-size="36.4px" font-family="CMUBright-Roman" style="text-anchor:start;fill:rgb(0,0,0);" transform="rotate(34.6,3429.4,3004.8)" >Leadership-General</text>
<path d="M3430.618,2805.914 A1642.000,1642.000 40.000 0,1 3261.549,3051.027 L3290.745,3075.350 A1680.000,1680.000 0.000 0,0 3463.726,2824.565 Z" style="stroke-width:2.0;stroke:rgb(255,255,255);stroke-linecap:round;fill:none;" />
<path d="M3238.321,3078.297 A1642.000,1642.000 40.000 0,1 3039.505,3271.060 L3063.562,3300.476 A1680.000,1680.000 0.000 0,0 3266.979,3103.252 Z" style="stroke-width:2.0;stroke:rgb(255,255,255);stroke-linecap:round;fill:rgb(185,185,185);" />
<text x="3207.2" y="3263.1" font-size="36.4px" font-family="CMUBright-Roman" style="text-anchor:start;fill:rgb(0,0,0);" transform="rotate(45.9,3207.2,3263.1)" >Clinical-Care</text>
<path d="M3238.321,3078.297 A1642.000,1642.000 40.000 0,1 3039.505,3271.060 L3063.562,3300.476 A1680.000,1680.000 0.000 0,0 3266.979,3103.252 Z" style="stroke-width:2.0;stroke:rgb(255,255,255);stroke-linecap:round;fill:none;" />
<path d="M3011.529,3293.434 A1642.000,1642.000 40.000 0,1 2784.385,3442.534 L2802.537,3475.918 A1680.000,1680.000 0.000 0,0 3034.939,3323.368 Z" style="stroke-width:2.0;stroke:rgb(255,255,255);stroke-linecap:round;fill:rgb(185,185,185);" />
<text x="2948.3" y="3467.5" font-size="36.4px" font-family="CMUBright-Roman" style="text-anchor:start;fill:rgb(0,0,0);" transform="rotate(56.7,2948.3,3467.5)" >Research-Science</text>
<path d="M3011.529,3293.434 A1642.000,1642.000 40.000 0,1 2784.385,3442.534 L2802.537,3475.918 A1680.000,1680.000 0.000 0,0 3034.939,3323.368 Z" style="stroke-width:2.0;stroke:rgb(255,255,255);stroke-linecap:round;fill:none;" />
<path d="M2752.729,3459.302 A1642.000,1642.000 40.000 0,1 2556.245,3544.913 L2569.118,3580.666 A1680.000,1680.000 0.000 0,0 2770.149,3493.074 Z" style="stroke-width:2.0;stroke:rgb(255,255,255);stroke-linecap:round;fill:rgb(185,185,185);" />
<text x="2686.4" y="3606.7" font-size="36.4px" font-family="CMUBright-Roman" style="text-anchor:start;fill:rgb(0,0,0);" transform="rotate(66.5,2686.4,3606.7)" >Education</text>
<path d="M2752.729,3459.302 A1642.000,1642.000 40.000 0,1 2556.245,3544.913 L2569.118,3580.666 A1680.000,1680.000 0.000 0,0 2770.149,3493.074 Z" style="stroke-width:2.0;stroke:rgb(255,255,255);stroke-linecap:round;fill:none;" />
<path d="M2522.411,3556.679 A1642.000,1642.000 40.000 0,1 2417.174,3588.121 L2426.829,3624.875 A1680.000,1680.000 0.000 0,0 2534.501,3592.705 Z" style="stroke-width:2.0;stroke:rgb(255,255,255);stroke-linecap:round;fill:rgb(185,185,185);" />
<text x="2488.2" y="3677.6" font-size="36.4px" font-family="CMUBright-Roman" style="text-anchor:start;fill:rgb(0,0,0);" transform="rotate(73.4,2488.2,3677.6)" >IT-Infrastructure</text>
<path d="M2522.411,3556.679 A1642.000,1642.000 40.000 0,1 2417.174,3588.121 L2426.829,3624.875 A1680.000,1680.000 0.000 0,0 2534.501,3592.705 Z" style="stroke-width:2.0;stroke:rgb(255,255,255);stroke-linecap:round;fill:none;" />
<path d="M2382.430,3596.844 A1642.000,1642.000 40.000 0,1 2321.118,3610.294 L2328.550,3647.560 A1680.000,1680.000 0.000 0,0 2391.281,3633.799 Z" style="stroke-width:2.0;stroke:rgb(255,255,255);stroke-linecap:round;fill:rgb(185,185,185);" />
<text x="2358.7" y="3710.0" font-size="36.4px" font-family="CMUBright-Roman" style="text-anchor:start;fill:rgb(0,0,0);" transform="rotate(77.6,2358.7,3710.0)" >Legal-Policy</text>
<path d="M2382.430,3596.844 A1642.000,1642.000 40.000 0,1 2321.118,3610.294 L2328.550,3647.560 A1680.000,1680.000 0.000 0,0 2391.281,3633.799 Z" style="stroke-width:2.0;stroke:rgb(255,255,255);stroke-linecap:round;fill:none;" />
<path d="M2285.913,3616.916 A1642.000,1642.000 40.000 0,1 2249.787,3622.890 L2255.567,3660.447 A1680.000,1680.000 0.000 0,0 2292.530,3654.336 Z" style="stroke-width:2.0;stroke:rgb(255,255,255);stroke-linecap:round;fill:rgb(185,185,185);" />
<text x="2272.7" y="3725.8" font-size="36.4px" font-family="CMUBright-Roman" style="text-anchor:start;fill:rgb(0,0,0);" transform="rotate(80.6,2272.7,3725.8)" >Social-Service</text>
<path d="M2285.913,3616.916 A1642.000,1642.000 40.000 0,1 2249.787,3622.890 L2255.567,3660.447 A1680.000,1680.000 0.000 0,0 2292.530,3654.336 Z" style="stroke-width:2.0;stroke:rgb(255,255,255);stroke-linecap:round;fill:none;" />
<path d="M2214.324,3627.952 A1642.000,1642.000 40.000 0,1 1245.263,3458.265 L1227.797,3492.013 A1680.000,1680.000 0.000 0,0 2219.284,3665.627 Z" style="stroke-width:2.0;stroke:rgb(255,255,255);stroke-linecap:round;fill:rgb(15,52,135);" />
<text x="1714.4" y="3723.7" font-size="36.4px" font-family="CMUBright-Roman" style="text-anchor:end;fill:rgb(0,0,0);" transform="rotate(-80.1,1714.4,3723.7)" >Finance-Accounting</text>
<path d="M2214.324,3627.952 A1642.000,1642.000 40.000 0,1 1245.263,3458.265 L1227.797,3492.013 A1680.000,1680.000 0.000 0,0 2219.284,3665.627 Z" style="stroke-width:2.0;stroke:rgb(255,255,255);stroke-linecap:round;fill:none;" />
<path d="M1213.631,3441.453 A1642.000,1642.000 40.000 0,1 879.437,3200.209 L853.504,3227.985 A1680.000,1680.000 0.000 0,0 1195.432,3474.812 Z" style="stroke-width:2.0;stroke:rgb(255,255,255);stroke-linecap:round;fill:rgb(28,75,160);" />
<text x="990.4" y="3426.0" font-size="36.4px" font-family="CMUBright-Roman" style="text-anchor:end;fill:rgb(0,0,0);" transform="rotate(-54.2,990.4,3426.0)" >Marketing-Communication</text>
<path d="M1213.631,3441.453 A1642.000,1642.000 40.000 0,1 879.437,3200.209 L853.504,3227.985 A1680.000,1680.000 0.000 0,0 1195.432,3474.812 Z" style="stroke-width:2.0;stroke:rgb(255,255,255);stroke-linecap:round;fill:none;" />
<path d="M853.521,3175.478 A1642.000,1642.000 40.000 0,1 639.254,2918.986 L607.763,2940.253 A1680.000,1680.000 0.000 0,0 826.988,3202.682 Z" style="stroke-width:2.0;stroke:rgb(255,255,255);stroke-linecap:round;fill:rgb(42,98,180);" />
<text x="667.2" y="3129.7" font-size="36.4px" font-family="CMUBright-Roman" style="text-anchor:end;fill:rgb(0,0,0);" transform="rotate(-39.9,667.2,3129.7)" >General-Business</text>
<path d="M853.521,3175.478 A1642.000,1642.000 40.000 0,1 639.254,2918.986 L607.763,2940.253 A1680.000,1680.000 0.000 0,0 826.988,3202.682 Z" style="stroke-width:2.0;stroke:rgb(255,255,255);stroke-linecap:round;fill:none;" />
<path d="M619.530,2889.082 A1642.000,1642.000 40.000 0,1 479.680,2620.315 L444.496,2634.671 A1680.000,1680.000 0.000 0,0 587.583,2909.658 Z" style="stroke-width:2.0;stroke:rgb(255,255,255);stroke-linecap:round;fill:rgb(60,120,198);" />
<text x="457.3" y="2820.2" font-size="36.4px" font-family="CMUBright-Roman" style="text-anchor:end;fill:rgb(0,0,0);" transform="rotate(-27.5,457.3,2820.2)" >Operations-Analytics</text>
<path d="M619.530,2889.082 A1642.000,1642.000 40.000 0,1 479.680,2620.315 L444.496,2634.671 A1680.000,1680.000 0.000 0,0 587.583,2909.658 Z" style="stroke-width:2.0;stroke:rgb(255,255,255);stroke-linecap:round;fill:none;" />
<path d="M466.510,2587.002 A1642.000,1642.000 40.000 0,1 421.749,2453.087 L385.224,2463.573 A1680.000,1680.000 0.000 0,0 431.021,2600.587 Z" style="stroke-width:2.0;stroke:rgb(255,255,255);stroke-linecap:round;fill:rgb(82,145,215);" />
<text x="347.9" y="2568.6" font-size="36.4px" font-family="CMUBright-Roman" style="text-anchor:end;fill:rgb(0,0,0);" transform="rotate(-18.5,347.9,2568.6)" >Specialized-Business</text>
<path d="M466.510,2587.002 A1642.000,1642.000 40.000 0,1 421.749,2453.087 L385.224,2463.573 A1680.000,1680.000 0.000 0,0 431.021,2600.587 Z" style="stroke-width:2.0;stroke:rgb(255,255,255);stroke-linecap:round;fill:none;" />
<path d="M412.241,2418.550 A1642.000,1642.000 40.000 0,1 391.911,2331.987 L354.696,2339.670 A1680.000,1680.000 0.000 0,0 375.496,2428.236 Z" style="stroke-width:2.0;stroke:rgb(255,255,255);stroke-linecap:round;fill:rgb(108,170,228);" />
<text x="301.9" y="2411.1" font-size="36.4px" font-family="CMUBright-Roman" style="text-anchor:end;fill:rgb(0,0,0);" transform="rotate(-13.2,301.9,2411.1)" >Economics</text>
<path d="M412.241,2418.550 A1642.000,1642.000 40.000 0,1 391.911,2331.987 L354.696,2339.670 A1680.000,1680.000 0.000 0,0 375.496,2428.236 Z" style="stroke-width:2.0;stroke:rgb(255,255,255);stroke-linecap:round;fill:none;" />
<path d="M385.052,2296.827 A1642.000,1642.000 40.000 0,1 366.030,2162.194 L328.216,2165.947 A1680.000,1680.000 0.000 0,0 347.678,2303.697 Z" style="stroke-width:2.0;stroke:rgb(255,255,255);stroke-linecap:round;fill:rgb(200,108,30);" />
<text x="271.8" y="2256.8" font-size="36.4px" font-family="CMUBright-Roman" style="text-anchor:end;fill:rgb(0,0,0);" transform="rotate(-8.0,271.8,2256.8)" >Social-Sciences</text>
<path d="M385.052,2296.827 A1642.000,1642.000 40.000 0,1 366.030,2162.194 L328.216,2165.947 A1680.000,1680.000 0.000 0,0 347.678,2303.697 Z" style="stroke-width:2.0;stroke:rgb(255,255,255);stroke-linecap:round;fill:none;" />
<path d="M362.881,2126.510 A1642.000,1642.000 40.000 0,1 359.682,2074.299 L321.721,2076.018 A1680.000,1680.000 0.000 0,0 324.994,2129.438 Z" style="stroke-width:2.0;stroke:rgb(255,255,255);stroke-linecap:round;fill:rgb(220,140,52);" />
<text x="256.9" y="2119.3" font-size="36.4px" font-family="CMUBright-Roman" style="text-anchor:end;fill:rgb(0,0,0);" transform="rotate(-3.5,256.9,2119.3)" >Humanities-Liberal-Arts</text>
<path d="M362.881,2126.510 A1642.000,1642.000 40.000 0,1 359.682,2074.299 L321.721,2076.018 A1680.000,1680.000 0.000 0,0 324.994,2129.438 Z" style="stroke-width:2.0;stroke:rgb(255,255,255);stroke-linecap:round;fill:none;" />
<path d="M358.451,2038.498 A1642.000,1642.000 40.000 0,1 358.158,2022.807 L320.162,2023.335 A1680.000,1680.000 0.000 0,0 320.462,2039.389 Z" style="stroke-width:2.0;stroke:rgb(255,255,255);stroke-linecap:round;fill:rgb(235,168,78);" />
<text x="253.4" y="2045.1" font-size="36.4px" font-family="CMUBright-Roman" style="text-anchor:end;fill:rgb(0,0,0);" transform="rotate(-1.1,253.4,2045.1)" >International-Studies</text>
<path d="M358.451,2038.498 A1642.000,1642.000 40.000 0,1 358.158,2022.807 L320.162,2023.335 A1680.000,1680.000 0.000 0,0 320.462,2039.389 Z" style="stroke-width:2.0;stroke:rgb(255,255,255);stroke-linecap:round;fill:none;" />
<path d="M358.052,1986.985 A1642.000,1642.000 40.000 0,1 367.336,1825.152 L329.552,1821.105 A1680.000,1680.000 0.000 0,0 320.053,1986.684 Z" style="stroke-width:2.0;stroke:rgb(255,255,255);stroke-linecap:round;fill:rgb(175,35,42);" />
<text x="255.0" y="1912.4" font-size="36.4px" font-family="CMUBright-Roman" style="text-anchor:end;fill:rgb(0,0,0);" transform="rotate(3.3,255.0,1912.4)" >Teacher-Education</text>
<path d="M358.052,1986.985 A1642.000,1642.000 40.000 0,1 367.336,1825.152 L329.552,1821.105 A1680.000,1680.000 0.000 0,0 320.053,1986.684 Z" style="stroke-width:2.0;stroke:rgb(255,255,255);stroke-linecap:round;fill:none;" />
<path d="M371.539,1789.577 A1642.000,1642.000 40.000 0,1 376.636,1753.316 L339.067,1747.607 A1680.000,1680.000 0.000 0,0 333.852,1784.707 Z" style="stroke-width:2.0;stroke:rgb(255,255,255);stroke-linecap:round;fill:rgb(195,58,55);" />
<text x="268.1" y="1769.2" font-size="36.4px" font-family="CMUBright-Roman" style="text-anchor:end;fill:rgb(0,0,0);" transform="rotate(8.0,268.1,1769.2)" >Social-Work</text>
<path d="M371.539,1789.577 A1642.000,1642.000 40.000 0,1 376.636,1753.316 L339.067,1747.607 A1680.000,1680.000 0.000 0,0 333.852,1784.707 Z" style="stroke-width:2.0;stroke:rgb(255,255,255);stroke-linecap:round;fill:none;" />
<path d="M382.404,1717.961 A1642.000,1642.000 40.000 0,1 388.090,1687.094 L350.786,1679.853 A1680.000,1680.000 0.000 0,0 344.968,1711.434 Z" style="stroke-width:2.0;stroke:rgb(255,255,255);stroke-linecap:round;fill:rgb(215,82,72);" />
<text x="279.0" y="1698.7" font-size="36.4px" font-family="CMUBright-Roman" style="text-anchor:end;fill:rgb(0,0,0);" transform="rotate(10.4,279.0,1698.7)" >Special-Education</text>
<path d="M382.404,1717.961 A1642.000,1642.000 40.000 0,1 388.090,1687.094 L350.786,1679.853 A1680.000,1680.000 0.000 0,0 344.968,1711.434 Z" style="stroke-width:2.0;stroke:rgb(255,255,255);stroke-linecap:round;fill:none;" />
<path d="M395.300,1652.005 A1642.000,1642.000 40.000 0,1 396.416,1646.895 L359.305,1638.723 A1680.000,1680.000 0.000 0,0 358.163,1643.952 Z" style="stroke-width:2.0;stroke:rgb(255,255,255);stroke-linecap:round;fill:rgb(230,112,95);" />
<text x="289.8" y="1642.1" font-size="36.4px" font-family="CMUBright-Roman" style="text-anchor:end;fill:rgb(0,0,0);" transform="rotate(12.3,289.8,1642.1)" >Educational-Leadership</text>
<path d="M395.300,1652.005 A1642.000,1642.000 40.000 0,1 396.416,1646.895 L359.305,1638.723 A1680.000,1680.000 0.000 0,0 358.163,1643.952 Z" style="stroke-width:2.0;stroke:rgb(255,255,255);stroke-linecap:round;fill:none;" />
<path d="M404.501,1611.997 A1642.000,1642.000 40.000 0,1 423.388,1541.244 L386.901,1530.627 A1680.000,1680.000 0.000 0,0 367.577,1603.017 Z" style="stroke-width:2.0;stroke:rgb(255,255,255);stroke-linecap:round;fill:rgb(0,130,142);" />
<text x="308.7" y="1561.5" font-size="36.4px" font-family="CMUBright-Roman" style="text-anchor:end;fill:rgb(0,0,0);" transform="rotate(14.9,308.7,1561.5)" >Communication-Studies</text>
<path d="M404.501,1611.997 A1642.000,1642.000 40.000 0,1 423.388,1541.244 L386.901,1530.627 A1680.000,1680.000 0.000 0,0 367.577,1603.017 Z" style="stroke-width:2.0;stroke:rgb(255,255,255);stroke-linecap:round;fill:none;" />
<path d="M433.770,1506.960 A1642.000,1642.000 40.000 0,1 448.549,1462.261 L412.644,1449.816 A1680.000,1680.000 0.000 0,0 397.524,1495.549 Z" style="stroke-width:2.0;stroke:rgb(255,255,255);stroke-linecap:round;fill:rgb(0,165,172);" />
<text x="337.2" y="1463.4" font-size="36.4px" font-family="CMUBright-Roman" style="text-anchor:end;fill:rgb(0,0,0);" transform="rotate(18.3,337.2,1463.4)" >Journalism-Media</text>
<path d="M433.770,1506.960 A1642.000,1642.000 40.000 0,1 448.549,1462.261 L412.644,1449.816 A1680.000,1680.000 0.000 0,0 397.524,1495.549 Z" style="stroke-width:2.0;stroke:rgb(255,255,255);stroke-linecap:round;fill:none;" />
<path d="M460.649,1428.544 A1642.000,1642.000 40.000 0,1 466.181,1413.858 L430.684,1400.293 A1680.000,1680.000 0.000 0,0 425.024,1415.319 Z" style="stroke-width:2.0;stroke:rgb(255,255,255);stroke-linecap:round;fill:rgb(38,195,195);" />
<text x="359.4" y="1399.1" font-size="36.4px" font-family="CMUBright-Roman" style="text-anchor:end;fill:rgb(0,0,0);" transform="rotate(20.6,359.4,1399.1)" >Creative-Writing</text>
<path d="M460.649,1428.544 A1642.000,1642.000 40.000 0,1 466.181,1413.858 L430.684,1400.293 A1680.000,1680.000 0.000 0,0 425.024,1415.319 Z" style="stroke-width:2.0;stroke:rgb(255,255,255);stroke-linecap:round;fill:none;" />
<path d="M479.332,1380.537 A1642.000,1642.000 40.000 0,1 510.660,1308.603 L476.193,1292.602 A1680.000,1680.000 0.000 0,0 444.140,1366.201 Z" style="stroke-width:2.0;stroke:rgb(255,255,255);stroke-linecap:round;fill:rgb(180,45,112);" />
<text x="391.8" y="1317.1" font-size="36.4px" font-family="CMUBright-Roman" style="text-anchor:end;fill:rgb(0,0,0);" transform="rotate(23.5,391.8,1317.1)" >Arts-Theology</text>
<path d="M479.332,1380.537 A1642.000,1642.000 40.000 0,1 510.660,1308.603 L476.193,1292.602 A1680.000,1680.000 0.000 0,0 444.140,1366.201 Z" style="stroke-width:2.0;stroke:rgb(255,255,255);stroke-linecap:round;fill:none;" />
<path d="M526.097,1276.278 A1642.000,1642.000 40.000 0,1 530.738,1266.901 L496.736,1249.936 A1680.000,1680.000 0.000 0,0 491.987,1259.529 Z" style="stroke-width:2.0;stroke:rgb(255,255,255);stroke-linecap:round;fill:rgb(205,75,142);" />
<text x="427.1" y="1239.3" font-size="36.4px" font-family="CMUBright-Roman" style="text-anchor:end;fill:rgb(0,0,0);" transform="rotate(26.3,427.1,1239.3)" >English-Writing</text>
<path d="M526.097,1276.278 A1642.000,1642.000 40.000 0,1 530.738,1266.901 L496.736,1249.936 A1680.000,1680.000 0.000 0,0 491.987,1259.529 Z" style="stroke-width:2.0;stroke:rgb(255,255,255);stroke-linecap:round;fill:none;" />
<path d="M547.080,1235.024 A1642.000,1642.000 40.000 0,1 549.525,1230.399 L515.957,1212.589 A1680.000,1680.000 0.000 0,0 513.456,1217.321 Z" style="stroke-width:2.0;stroke:rgb(255,255,255);stroke-linecap:round;fill:rgb(225,110,168);" />
<text x="447.9" y="1197.7" font-size="36.4px" font-family="CMUBright-Roman" style="text-anchor:end;fill:rgb(0,0,0);" transform="rotate(27.9,447.9,1197.7)" >Languages</text>
<path d="M547.080,1235.024 A1642.000,1642.000 40.000 0,1 549.525,1230.399 L515.957,1212.589 A1680.000,1680.000 0.000 0,0 513.456,1217.321 Z" style="stroke-width:2.0;stroke:rgb(255,255,255);stroke-linecap:round;fill:none;" />
<path d="M566.659,1198.940 A1642.000,1642.000 40.000 0,1 748.337,937.219 L719.370,912.624 A1680.000,1680.000 0.000 0,0 533.488,1180.402 Z" style="stroke-width:2.0;stroke:rgb(255,255,255);stroke-linecap:round;fill:rgb(88,40,138);" />
<text x="555.7" y="1016.9" font-size="36.4px" font-family="CMUBright-Roman" style="text-anchor:end;fill:rgb(0,0,0);" transform="rotate(34.8,555.7,1016.9)" >Biological-Sciences</text>
<path d="M566.659,1198.940 A1642.000,1642.000 40.000 0,1 748.337,937.219 L719.370,912.624 A1680.000,1680.000 0.000 0,0 533.488,1180.402 Z" style="stroke-width:2.0;stroke:rgb(255,255,255);stroke-linecap:round;fill:none;" />
<path d="M771.819,910.167 A1642.000,1642.000 40.000 0,1 821.633,856.490 L794.362,830.027 A1680.000,1680.000 0.000 0,0 743.396,884.946 Z" style="stroke-width:2.0;stroke:rgb(255,255,255);stroke-linecap:round;fill:rgb(115,65,165);" />
<text x="710.8" y="820.7" font-size="36.4px" font-family="CMUBright-Roman" style="text-anchor:end;fill:rgb(0,0,0);" transform="rotate(42.9,710.8,820.7)" >Health-Wellness</text>
<path d="M771.819,910.167 A1642.000,1642.000 40.000 0,1 821.633,856.490 L794.362,830.027 A1680.000,1680.000 0.000 0,0 743.396,884.946 Z" style="stroke-width:2.0;stroke:rgb(255,255,255);stroke-linecap:round;fill:none;" />
<path d="M846.858,831.057 A1642.000,1642.000 40.000 0,1 873.212,805.633 L847.135,777.993 A1680.000,1680.000 0.000 0,0 820.172,804.004 Z" style="stroke-width:2.0;stroke:rgb(255,255,255);stroke-linecap:round;fill:rgb(140,92,188);" />
<text x="775.8" y="753.4" font-size="36.4px" font-family="CMUBright-Roman" style="text-anchor:end;fill:rgb(0,0,0);" transform="rotate(46.0,775.8,753.4)" >Physical-Sciences</text>
<path d="M846.858,831.057 A1642.000,1642.000 40.000 0,1 873.212,805.633 L847.135,777.993 A1680.000,1680.000 0.000 0,0 820.172,804.004 Z" style="stroke-width:2.0;stroke:rgb(255,255,255);stroke-linecap:round;fill:none;" />
<path d="M899.535,781.337 A1642.000,1642.000 40.000 0,1 903.423,777.837 L878.045,749.553 A1680.000,1680.000 0.000 0,0 874.067,753.134 Z" style="stroke-width:2.0;stroke:rgb(255,255,255);stroke-linecap:round;fill:rgb(165,120,208);" />
<text x="821.8" y="709.8" font-size="36.4px" font-family="CMUBright-Roman" style="text-anchor:end;fill:rgb(0,0,0);" transform="rotate(48.0,821.8,709.8)" >Environmental-Sciences</text>
<path d="M899.535,781.337 A1642.000,1642.000 40.000 0,1 903.423,777.837 L878.045,749.553 A1680.000,1680.000 0.000 0,0 874.067,753.134 Z" style="stroke-width:2.0;stroke:rgb(255,255,255);stroke-linecap:round;fill:none;" />
<path d="M930.345,754.206 A1642.000,1642.000 40.000 0,1 1638.399,398.311 L1630.030,361.244 A1680.000,1680.000 0.000 0,0 905.590,725.375 Z" style="stroke-width:2.0;stroke:rgb(255,255,255);stroke-linecap:round;fill:rgb(22,118,50);" />
<text x="1201.1" y="446.2" font-size="36.4px" font-family="CMUBright-Roman" style="text-anchor:end;fill:rgb(0,0,0);" transform="rotate(63.3,1201.1,446.2)" >Engineering-Disciplines</text>
<path d="M930.345,754.206 A1642.000,1642.000 40.000 0,1 1638.399,398.311 L1630.030,361.244 A1680.000,1680.000 0.000 0,0 905.590,725.375 Z" style="stroke-width:2.0;stroke:rgb(255,255,255);stroke-linecap:round;fill:none;" />
<path d="M1673.425,390.804 A1642.000,1642.000 40.000 0,1 1964.180,358.391 L1963.351,320.400 A1680.000,1680.000 0.000 0,0 1665.867,353.563 Z" style="stroke-width:2.0;stroke:rgb(255,255,255);stroke-linecap:round;fill:rgb(48,158,75);" />
<text x="1791.0" y="265.3" font-size="36.4px" font-family="CMUBright-Roman" style="text-anchor:end;fill:rgb(0,0,0);" transform="rotate(83.6,1791.0,265.3)" >Computer-Science-IT</text>
<path d="M1673.425,390.804 A1642.000,1642.000 40.000 0,1 1964.180,358.391 L1963.351,320.400 A1680.000,1680.000 0.000 0,0 1665.867,353.563 Z" style="stroke-width:2.0;stroke:rgb(255,255,255);stroke-linecap:round;fill:none;" />
</g>
<g id="track_0">
<path d="M 633.335,2880.192 A 1625.580,1625.580 0.00 0,1 630.5,2875.8 L 630.5,2875.8 679.4,2846.0 730.0,2817.9 782.0,2791.8 835.4,2767.7 889.9,2745.9 945.4,2726.4 1001.6,2709.4 1058.3,2695.0 1115.5,2683.3 1173.0,2674.4 1230.5,2668.4 1288.0,2665.2 1345.3,2665.0 1402.2,2667.8 1458.6,2673.7 1514.3,2682.5 1569.3,2694.5 1623.4,2709.4 1676.4,2727.4 1728.4,2748.3 1779.0,2772.2 1828.4,2799.0 1876.2,2828.5 1922.6,2860.8 1967.2,2895.7 2010.1,2933.2 2051.2,2973.0 2090.4,3015.2 2127.7,3059.5 2162.9,3105.8 2195.9,3153.9 2226.9,3203.6 2255.5,3254.8 2282.0,3307.3 2306.1,3360.9 2327.8,3415.2 2347.2,3470.2 2364.1,3525.5 2378.6,3580.9  A 1625.580,1625.580 0.00 0,1 2373.6,3582.1 L 2373.6,3582.1 2359.3,3526.7 2342.5,3471.4 2323.4,3416.4 2301.8,3362.0 2278.0,3308.5 2251.8,3256.0 2223.3,3204.8 2192.6,3155.0 2159.8,3106.9 2124.8,3060.6 2087.8,3016.4 2048.8,2974.3 2008.0,2934.4 1965.3,2897.0 1920.9,2862.2 1874.8,2829.9 1827.1,2800.4 1778.0,2773.7 1727.6,2749.9 1675.9,2729.1 1623.0,2711.2 1569.2,2696.4 1514.4,2684.6 1458.8,2675.8 1402.7,2670.1 1346.0,2667.4 1288.9,2667.8 1231.6,2671.1 1174.3,2677.3 1117.0,2686.3 1060.0,2698.2 1003.3,2712.7 947.3,2729.9 892.0,2749.5 837.7,2771.5 784.4,2795.7 732.5,2822.0 682.1,2850.2 633.3,2880.2  Z" style="stroke-width: 0.0;  fill: rgb(60,120,198);" />
<path d="M 630.538,2875.833 A 1625.580,1625.580 0.00 0,1 627.8,2871.5 L 627.8,2871.5 679.5,2840.2 733.5,2810.6 789.7,2782.9 847.8,2757.1 907.7,2733.3 969.3,2711.6 1032.4,2692.1 1096.8,2674.7 1162.5,2659.7 1229.2,2647.0 1296.9,2636.6 1365.3,2628.7 1434.3,2623.2 1503.8,2620.2 1573.6,2619.7 1643.6,2621.7 1713.7,2626.2 1783.7,2633.2 1853.5,2642.7 1922.9,2654.7 1991.9,2669.1 2060.2,2685.9 2127.7,2705.1 2194.4,2726.7 2260.0,2750.6 2324.5,2776.6 2387.7,2804.9 2449.5,2835.3 2509.8,2867.6 2568.4,2901.9 2625.2,2938.1 2680.2,2976.0 2733.1,3015.5 2783.8,3056.6 2832.3,3099.1 2878.5,3142.9 2922.1,3187.8 2963.1,3233.7 3001.4,3280.5  A 1625.580,1625.580 0.00 0,1 2997.3,3283.7 L 2997.3,3283.7 2959.2,3236.8 2918.4,3190.8 2874.9,3145.8 2829.0,3101.9 2780.7,3059.4 2730.1,3018.2 2677.4,2978.6 2622.7,2940.6 2566.0,2904.4 2507.6,2870.0 2447.5,2837.6 2385.9,2807.2 2322.9,2778.9 2258.6,2752.7 2193.2,2728.9 2126.7,2707.3 2059.3,2688.1 1991.2,2671.2 1922.5,2656.8 1853.2,2644.9 1783.6,2635.5 1713.8,2628.5 1643.9,2624.1 1574.0,2622.2 1504.4,2622.8 1435.0,2625.9 1366.2,2631.4 1298.0,2639.5 1230.5,2649.9 1163.9,2662.8 1098.4,2678.0 1034.1,2695.4 971.2,2715.1 909.8,2737.0 850.0,2760.9 792.0,2786.9 736.0,2814.7 682.1,2844.4 630.5,2875.8  Z" style="stroke-width: 0.0;  fill: rgb(60,120,198);" />
<path d="M 627.755,2871.466 A 1625.580,1625.580 0.00 0,1 608.7,2840.6 L 608.7,2840.6 664.2,2808.6 722.3,2778.1 782.9,2749.1 845.6,2721.6 910.6,2695.7 977.5,2671.3 1046.3,2648.6 1116.8,2627.4 1188.9,2607.9 1262.4,2589.9 1337.3,2573.6 1413.3,2559.0 1490.4,2546.0 1568.4,2534.7 1647.2,2525.0 1726.6,2517.0 1806.5,2510.7 1886.8,2506.1 1967.4,2503.2 2048.0,2502.0 2128.5,2502.4 2208.9,2504.6 2289.0,2508.5 2368.6,2514.0 2447.7,2521.3 2526.0,2530.2 2603.4,2540.9 2679.9,2553.2 2755.2,2567.2 2829.3,2582.9 2902.0,2600.2 2973.1,2619.2 3042.5,2639.9 3110.1,2662.2 3175.8,2686.1 3239.4,2711.6 3300.8,2738.8 3359.8,2767.5 3416.3,2797.9  A 1625.580,1625.580 0.00 0,1 3398.2,2829.2 L 3398.2,2829.2 3342.7,2797.9 3284.7,2768.1 3224.3,2739.9 3161.7,2713.3 3097.0,2688.3 3030.4,2665.0 2961.9,2643.4 2891.7,2623.4 2820.0,2605.2 2746.9,2588.7 2672.5,2573.9 2596.9,2560.9 2520.4,2549.7 2443.0,2540.2 2364.8,2532.5 2286.1,2526.5 2206.9,2522.4 2127.5,2520.0 2047.8,2519.4 1968.1,2520.7 1888.5,2523.7 1809.1,2528.4 1730.1,2535.0 1651.5,2543.3 1573.7,2553.4 1496.6,2565.3 1420.4,2578.9 1345.3,2594.2 1271.4,2611.2 1198.8,2629.9 1127.7,2650.3 1058.1,2672.4 990.4,2696.1 924.4,2721.4 860.5,2748.4 798.8,2776.8 739.3,2806.9 682.2,2838.4 627.8,2871.5  Z" style="stroke-width: 0.0;  fill: rgb(60,120,198);" />
<path d="M 608.663,2840.649 A 1625.580,1625.580 0.00 0,1 595.4,2818.4 L 595.4,2818.4 653.7,2785.8 714.6,2754.6 777.8,2724.5 843.4,2695.7 911.0,2668.0 980.7,2641.5 1052.3,2616.1 1125.7,2591.8 1200.6,2568.6 1277.1,2546.5 1354.9,2525.4 1433.9,2505.4 1514.1,2486.4 1595.2,2468.5 1677.2,2451.7 1759.9,2435.8 1843.2,2421.1 1927.0,2407.4 2011.1,2394.7 2095.4,2383.2 2179.8,2372.8 2264.2,2363.4 2348.4,2355.3 2432.3,2348.3 2515.8,2342.5 2598.8,2338.0 2681.1,2334.7 2762.6,2332.7 2843.2,2332.1 2922.8,2332.8 3001.2,2335.0 3078.4,2338.7 3154.2,2343.9 3228.4,2350.7 3301.1,2359.2 3371.9,2369.4 3440.9,2381.3 3507.9,2395.1 3572.8,2410.8  A 1625.580,1625.580 0.00 0,1 3566.1,2435.8 L 3566.1,2435.8 3501.7,2419.1 3435.3,2404.4 3366.8,2391.6 3296.4,2380.5 3224.2,2371.1 3150.4,2363.5 3075.1,2357.4 2998.3,2353.0 2920.3,2350.0 2841.1,2348.6 2760.9,2348.5 2679.8,2349.9 2597.9,2352.7 2515.3,2356.8 2432.2,2362.2 2348.7,2368.8 2264.9,2376.7 2181.0,2385.8 2097.0,2396.1 2013.1,2407.6 1929.4,2420.3 1846.1,2434.0 1763.3,2449.0 1681.0,2465.0 1599.5,2482.1 1518.9,2500.4 1439.3,2519.8 1360.7,2540.2 1283.5,2561.8 1207.6,2584.5 1133.3,2608.3 1060.5,2633.2 989.6,2659.3 920.6,2686.5 853.6,2714.9 788.8,2744.5 726.2,2775.3 666.2,2807.3 608.7,2840.6  Z" style="stroke-width: 0.0;  fill: rgb(60,120,198);" />
<path d="M 595.449,2818.381 A 1625.580,1625.580 0.00 0,1 585.1,2800.4 L 585.1,2800.4 646.3,2767.1 709.8,2734.7 775.6,2703.1 843.5,2672.4 913.4,2642.5 985.2,2613.2 1058.7,2584.5 1133.8,2556.3 1210.4,2528.7 1288.3,2501.5 1367.4,2474.8 1447.6,2448.5 1528.8,2422.6 1610.9,2397.0 1693.7,2371.8 1777.1,2347.0 1861.0,2322.5 1945.3,2298.4 2029.9,2274.7 2114.6,2251.4 2199.5,2228.6 2284.2,2206.3 2368.9,2184.4 2453.3,2163.2 2537.3,2142.6 2620.9,2122.6 2703.9,2103.5 2786.4,2085.1 2868.0,2067.7 2948.9,2051.2 3028.8,2035.9 3107.8,2021.7 3185.6,2008.8 3262.3,1997.4 3337.7,1987.4 3411.8,1979.1 3484.5,1972.6 3555.6,1968.0 3625.2,1965.5  A 1625.580,1625.580 0.00 0,1 3625.5,1986.2 L 3625.5,1986.2 3556.2,1987.9 3485.2,1991.6 3412.7,1997.3 3338.8,2004.8 3263.5,2013.9 3187.0,2024.6 3109.2,2036.8 3030.4,2050.3 2950.6,2065.0 2869.8,2080.8 2788.2,2097.7 2705.9,2115.6 2622.9,2134.3 2539.4,2153.9 2455.5,2174.2 2371.2,2195.2 2286.7,2216.8 2202.0,2239.0 2117.4,2261.7 2032.8,2284.9 1948.4,2308.6 1864.2,2332.8 1780.6,2357.4 1697.4,2382.4 1614.9,2407.8 1533.1,2433.7 1452.2,2459.9 1372.3,2486.6 1293.5,2513.8 1216.0,2541.4 1139.8,2569.5 1065.2,2598.2 992.1,2627.4 920.8,2657.3 851.4,2687.9 784.1,2719.2 718.9,2751.4 655.9,2784.4 595.4,2818.4  Z" style="stroke-width: 0.0;  fill: rgb(60,120,198);" />
<path d="M 585.135,2800.416 A 1625.580,1625.580 0.00 0,1 553.2,2741.1 L 553.2,2741.1 618.4,2708.7 685.7,2676.8 754.9,2645.6 825.8,2614.7 898.4,2584.2 972.4,2553.8 1047.7,2523.5 1124.2,2493.3 1201.8,2463.0 1280.4,2432.5 1359.8,2401.9 1439.9,2371.0 1520.6,2339.9 1601.8,2308.4 1683.4,2276.6 1765.2,2244.5 1847.3,2212.0 1929.5,2179.1 2011.6,2145.9 2093.7,2112.5 2175.7,2078.7 2257.4,2044.7 2338.8,2010.5 2419.8,1976.3 2500.3,1941.9 2580.4,1907.6 2659.8,1873.5 2738.7,1839.5 2816.9,1805.9 2894.3,1772.7 2971.0,1740.1 3046.8,1708.2 3121.8,1677.1 3195.9,1647.1 3269.2,1618.2 3341.4,1590.7 3412.8,1564.6 3483.1,1540.3 3552.4,1517.9  A 1625.580,1625.580 0.00 0,1 3571.1,1582.6 L 3571.1,1582.6 3501.7,1602.0 3431.2,1623.3 3359.7,1646.5 3287.1,1671.4 3213.6,1697.7 3139.1,1725.3 3063.7,1754.0 2987.5,1783.8 2910.4,1814.4 2832.5,1845.8 2753.9,1877.8 2674.6,1910.2 2594.8,1943.1 2514.4,1976.3 2433.5,2009.7 2352.2,2043.3 2270.6,2076.9 2188.7,2110.5 2106.7,2144.1 2024.5,2177.6 1942.4,2211.0 1860.4,2244.2 1778.5,2277.2 1697.0,2310.1 1615.8,2342.8 1535.1,2375.3 1455.0,2407.7 1375.7,2439.9 1297.1,2472.0 1219.5,2504.0 1143.0,2536.0 1067.7,2568.1 993.7,2600.3 921.1,2632.7 850.2,2665.3 780.9,2698.3 713.6,2731.7 648.3,2765.7 585.1,2800.4  Z" style="stroke-width: 0.0;  fill: rgb(60,120,198);" />
<path d="M 553.207,2741.149 A 1625.580,1625.580 0.00 0,1 500.8,2628.5 L 500.8,2628.5 566.9,2599.8 633.8,2569.0 701.5,2536.2 770.0,2501.7 839.2,2465.6 909.3,2428.0 980.0,2389.2 1051.5,2349.3 1123.7,2308.5 1196.6,2266.7 1270.1,2224.3 1344.1,2181.3 1418.8,2137.8 1493.9,2094.0 1569.5,2049.9 1645.4,2005.5 1721.7,1961.1 1798.2,1916.6 1874.9,1872.2 1951.7,1827.8 2028.5,1783.5 2105.2,1739.4 2181.8,1695.5 2258.2,1651.9 2334.1,1608.4 2409.6,1565.2 2484.6,1522.3 2558.8,1479.6 2632.3,1437.1 2704.8,1394.8 2776.3,1352.6 2846.5,1310.6 2915.5,1268.7 2983.0,1226.7 3048.8,1184.8 3112.9,1142.7 3175.1,1100.4 3235.2,1057.8 3293.1,1014.9  A 1625.580,1625.580 0.00 0,1 3364.5,1116.5 L 3364.5,1116.5 3302.3,1155.8 3238.1,1194.8 3172.1,1233.5 3104.4,1272.0 3035.2,1310.5 2964.7,1349.1 2892.9,1387.8 2820.1,1426.7 2746.3,1465.9 2671.7,1505.5 2596.4,1545.4 2520.6,1585.8 2444.3,1626.6 2367.7,1668.0 2290.9,1709.8 2213.9,1752.2 2136.9,1795.1 2059.9,1838.5 1983.1,1882.3 1906.5,1926.6 1830.1,1971.3 1754.1,2016.3 1678.5,2061.6 1603.4,2107.2 1528.7,2152.9 1454.6,2198.6 1381.2,2244.3 1308.3,2289.8 1236.1,2335.1 1164.6,2379.9 1093.8,2424.3 1023.7,2468.0 954.4,2510.8 885.8,2552.7 817.8,2593.5 750.6,2632.9 684.2,2670.7 618.4,2706.9 553.2,2741.1  Z" style="stroke-width: 0.0;  fill: rgb(60,120,198);" />
<path d="M 500.821,2628.469 A 1625.580,1625.580 0.00 0,1 496.8,2618.9 L 496.8,2618.9 558.9,2592.1 621.5,2562.5 684.7,2530.4 748.4,2495.8 812.6,2458.9 877.2,2419.8 942.1,2378.7 1007.3,2335.6 1072.8,2290.6 1138.5,2244.0 1204.3,2195.7 1270.2,2146.0 1336.0,2094.8 1401.8,2042.4 1467.3,1988.8 1532.7,1934.1 1597.7,1878.5 1662.4,1821.9 1726.5,1764.5 1790.1,1706.5 1853.0,1647.7 1915.1,1588.4 1976.4,1528.7 2036.7,1468.5 2096.0,1408.0 2154.1,1347.2 2211.0,1286.2 2266.4,1225.1 2320.4,1163.9 2372.8,1102.7 2423.4,1041.5 2472.2,980.4 2519.1,919.4 2563.8,858.6 2606.3,798.0 2646.5,737.7 2684.2,677.6 2719.2,617.9 2751.5,558.6  A 1625.580,1625.580 0.00 0,1 2760.7,563.4 L 2760.7,563.4 2727.9,622.6 2692.5,682.3 2654.4,742.2 2613.8,802.4 2570.9,862.9 2525.8,923.6 2478.6,984.5 2429.5,1045.5 2378.5,1106.6 2325.8,1167.8 2271.6,1228.9 2215.9,1290.0 2158.8,1350.9 2100.4,1411.7 2041.0,1472.2 1980.4,1532.4 1919.0,1592.2 1856.7,1651.5 1793.7,1710.3 1730.0,1768.5 1665.8,1826.0 1601.1,1882.7 1536.0,1938.5 1470.6,1993.4 1405.0,2047.2 1339.3,2099.8 1273.4,2151.2 1207.6,2201.2 1141.9,2249.7 1076.2,2296.7 1010.8,2342.0 945.6,2385.4 880.7,2426.9 816.2,2466.4 752.1,2503.7 688.5,2538.7 625.4,2571.2 562.8,2601.2 500.8,2628.5  Z" style="stroke-width: 0.0;  fill: rgb(60,120,198);" />
<path d="M 496.847,2618.904 A 1625.580,1625.580 0.00 0,1 494.9,2614.1 L 494.9,2614.1 552.7,2589.1 610.6,2561.1 668.7,2530.3 726.7,2496.7 784.6,2460.4 842.2,2421.5 899.4,2380.1 956.1,2336.3 1012.2,2290.2 1067.7,2241.9 1122.4,2191.4 1176.2,2139.0 1229.0,2084.7 1280.7,2028.5 1331.3,1970.7 1380.6,1911.2 1428.6,1850.3 1475.1,1788.1 1520.2,1724.5 1563.7,1659.8 1605.5,1594.1 1645.6,1527.5 1683.8,1460.0 1720.2,1391.9 1754.7,1323.2 1787.1,1254.1 1817.5,1184.7 1845.7,1115.1 1871.7,1045.4 1895.5,975.8 1917.0,906.4 1936.1,837.3 1952.8,768.7 1967.1,700.7 1978.8,633.4 1988.0,567.0 1994.7,501.6 1998.7,437.4 2000.0,374.4  A 1625.580,1625.580 0.00 0,1 2005.2,374.4 L 2005.2,374.4 2003.6,437.4 1999.4,501.7 1992.6,567.2 1983.2,633.7 1971.2,701.0 1956.8,769.0 1939.9,837.7 1920.6,906.8 1898.9,976.3 1875.0,1045.9 1848.8,1115.7 1820.4,1185.4 1789.9,1254.9 1757.3,1324.0 1722.7,1392.8 1686.2,1461.0 1647.8,1528.5 1607.6,1595.3 1565.7,1661.1 1522.2,1725.9 1477.0,1789.6 1430.4,1852.0 1382.4,1913.1 1333.0,1972.6 1282.4,2030.6 1230.7,2086.9 1177.9,2141.5 1124.1,2194.1 1069.4,2244.7 1014.0,2293.2 957.8,2339.4 901.1,2383.4 843.9,2425.0 786.4,2464.1 728.6,2500.6 670.6,2534.4 612.6,2565.5 554.6,2593.7 496.8,2618.9  Z" style="stroke-width: 0.0;  fill: rgb(60,120,198);" />
</g>
<defs>
<pattern id="vline-sparse" width="10" height="10" patternTransform="rotate(0 0 0)" patternUnits="userSpaceOnUse"><line x1="0" y1="0" x2="0" y2="10" style="stroke:black;stroke-width:2" /></pattern>
<pattern id="hline" width="10" height="10" patternTransform="rotate(0 0 0)" patternUnits="userSpaceOnUse"><line x1="0" y1="0" x2="10" y2="0" style="stroke:black;stroke-width:5" /></pattern>
<pattern id="hline-sparse" width="10" height="10" patternTransform="rotate(0 0 0)" patternUnits="userSpaceOnUse"><line x1="0" y1="0" x2="10" y2="0" style="stroke:black;stroke-width:2" /></pattern>
<pattern id="checker" width="10" height="10" patternTransform="rotate(45 0 0)" patternUnits="userSpaceOnUse"><line x1="0" y1="0" x2="10" y2="0" style="stroke:black;stroke-width:2" /><line x1="0" y1="0" x2="0" y2="10" style="stroke:black;stroke-width:2" /></pattern>
<pattern id="vline" width="10" height="10" patternTransform="rotate(0 0 0)" patternUnits="userSpaceOnUse"><line x1="0" y1="0" x2="0" y2="10" style="stroke:black;stroke-width:5" /></pattern>
<pattern id="checker" width="10" height="10" patternTransform="rotate(45 0 0)" patternUnits="userSpaceOnUse"><line x1="0" y1="0" x2="10" y2="0" style="stroke:black;stroke-width:5" /><line x1="0" y1="0" x2="0" y2="10" style="stroke:black;stroke-width:4" /></pattern>
</defs>
</svg>
