<?xml version="1.0" encoding="utf-8" standalone="no"?>
<!DOCTYPE svg PUBLIC "-//W3C//DTD SVG 1.1//EN" "http://www.w3.org/Graphics/SVG/1.1/DTD/svg11.dtd">
<svg width="4000px" height="4000px" version="1.1" xmlns="http://www.w3.org/2000/svg" xmlns:xlink="http://www.w3.org/1999/xlink">
<g id="bg">
<rect x="0" y="0" width="4000px" height="4000px" style="fill:rgb(255,255,255);"/>
</g>
<g id="ideograms">
<path d="M2000.000,358.000 A1642.000,1642.000 40.000 0,1 2727.139,527.779 L2743.967,493.709 A1680.000,1680.000 0.000 0,0 2000.000,320.000 Z" style="stroke-width:2.0;stroke:rgb(255,255,255);stroke-linecap:round;fill:rgb(185,185,185);" />
<text x="2412.3" y="302.2" font-size="36.4px" font-family="CMUBright-Roman" style="text-anchor:start;fill:rgb(0,0,0);" transform="rotate(283.1,2412.3,302.2)" >Engineering</text>
<path d="M2000.000,358.000 A1642.000,1642.000 40.000 0,1 2727.139,527.779 L2743.967,493.709 A1680.000,1680.000 0.000 0,0 2000.000,320.000 Z" style="stroke-width:2.0;stroke:rgb(255,255,255);stroke-linecap:round;fill:none;" />
<path d="M2759.082,543.992 A1642.000,1642.000 40.000 0,1 3284.099,976.646 L3313.816,952.963 A1680.000,1680.000 0.000 0,0 2776.649,510.297 Z" style="stroke-width:2.0;stroke:rgb(255,255,255);stroke-linecap:round;fill:rgb(185,185,185);" />
<text x="3120.8" y="659.6" font-size="36.4px" font-family="CMUBright-Roman" style="text-anchor:start;fill:rgb(0,0,0);" transform="rotate(309.5,3120.8,659.6)" >Finance-Investment</text>
<path d="M2759.082,543.992 A1642.000,1642.000 40.000 0,1 3284.099,976.646 L3313.816,952.963 A1680.000,1680.000 0.000 0,0 2776.649,510.297 Z" style="stroke-width:2.0;stroke:rgb(255,255,255);stroke-linecap:round;fill:none;" />
<path d="M3306.118,1004.902 A1642.000,1642.000 40.000 0,1 3557.132,1478.938 L3593.167,1466.879 A1680.000,1680.000 0.000 0,0 3336.345,981.873 Z" style="stroke-width:2.0;stroke:rgb(255,255,255);stroke-linecap:round;fill:rgb(185,185,185);" />
<text x="3551.5" y="1196.5" font-size="36.4px" font-family="CMUBright-Roman" style="text-anchor:start;fill:rgb(0,0,0);" transform="rotate(332.1,3551.5,1196.5)" >Management-Operations</text>
<path d="M3306.118,1004.902 A1642.000,1642.000 40.000 0,1 3557.132,1478.938 L3593.167,1466.879 A1680.000,1680.000 0.000 0,0 3336.345,981.873 Z" style="stroke-width:2.0;stroke:rgb(255,255,255);stroke-linecap:round;fill:none;" />
<path d="M3568.128,1513.031 A1642.000,1642.000 40.000 0,1 3640.479,1929.339 L3678.444,1927.703 A1680.000,1680.000 0.000 0,0 3604.418,1501.761 Z" style="stroke-width:2.0;stroke:rgb(255,255,255);stroke-linecap:round;fill:rgb(185,185,185);" />
<text x="3723.5" y="1713.2" font-size="36.4px" font-family="CMUBright-Roman" style="text-anchor:start;fill:rgb(0,0,0);" transform="rotate(350.1,3723.5,1713.2)" >Software-Data</text>
<path d="M3568.128,1513.031 A1642.000,1642.000 40.000 0,1 3640.479,1929.339 L3678.444,1927.703 A1680.000,1680.000 0.000 0,0 3604.418,1501.761 Z" style="stroke-width:2.0;stroke:rgb(255,255,255);stroke-linecap:round;fill:none;" />
<path d="M3641.630,1965.142 A1642.000,1642.000 40.000 0,1 3597.388,2380.151 L3634.356,2388.948 A1680.000,1680.000 0.000 0,0 3679.621,1964.336 Z" style="stroke-width:2.0;stroke:rgb(255,255,255);stroke-linecap:round;fill:rgb(185,185,185);" />
<text x="3735.6" y="2201.1" font-size="36.4px" font-family="CMUBright-Roman" style="text-anchor:start;fill:rgb(0,0,0);" transform="rotate(6.1,3735.6,2201.1)" >Sales-Marketing</text>
<path d="M3641.630,1965.142 A1642.000,1642.000 40.000 0,1 3597.388,2380.151 L3634.356,2388.948 A1680.000,1680.000 0.000 0,0 3679.621,1964.336 Z" style="stroke-width:2.0;stroke:rgb(255,255,255);stroke-linecap:round;fill:none;" />
<path d="M3588.715,2414.907 A1642.000,1642.000 40.000 0,1 3447.858,2774.513 L3481.365,2792.437 A1680.000,1680.000 0.000 0,0 3625.482,2424.509 Z" style="stroke-width:2.0;stroke:rgb(255,255,255);stroke-linecap:round;fill:rgb(185,185,185);" />
<text x="3620.9" y="2652.1" font-size="36.4px" font-family="CMUBright-Roman" style="text-anchor:start;fill:rgb(0,0,0);" transform="rotate(21.4,3620.9,2652.1)" >Accounting-Audit</text>
<path d="M3588.715,2414.907 A1642.000,1642.000 40.000 0,1 3447.858,2774.513 L3481.365,2792.437 A1680.000,1680.000 0.000 0,0 3625.482,2424.509 Z" style="stroke-width:2.0;stroke:rgb(255,255,255);stroke-linecap:round;fill:none;" />
<path d="M3430.618,2805.914 A1642.000,1642.000 40.000 0,1 3261.549,3051.027 L3290.745,3075.350 A1680.000,1680.000 0.000 0,0 3463.726,2824.565 Z" style="stroke-width:2.0;stroke:rgb(255,255,255);stroke-linecap:round;fill:rgb(185,185,185);" />
<text x="3429.4" y="3004.8" font-size="36.4px" font-family="CMUBright-Roman" style="text-anchor:start;fill:rgb(0,0,0);" transform="rotate(34.6,3429.4,3004.8)" >Leadership-General</text>
<path d="M3430.618,2805.914 A1642.000,1642.000 40.000 0,1 3261.549,3051.027 L3290.745,3075.350 A1680.000,1680.000 0.000 0,0 3463.726,2824.565 Z" style="stroke-width:2.0;stroke:rgb(255,255,255);stroke-linecap:round;fill:none;" />
<path d="M3238.321,3078.297 A1642.000,1642.000 40.000 0,1 3039.505,3271.060 L3063.562,3300.476 A1680.000,1680.000 0.000 0,0 3266.979,3103.252 Z" style="stroke-width:2.0;stroke:rgb(255,255,255);stroke-linecap:round;fill:rgb(185,185,185);" />
<text x="3207.2" y="3263.1" font-size="36.4px" font-family="CMUBright-Roman" style="text-anchor:start;fill:rgb(0,0,0);" transform="rotate(45.9,3207.2,3263.1)" >Clinical-Care</text>
<path d="M3238.321,3078.297 A1642.000,1642.000 40.000 0,1 3039.505,3271.060 L3063.562,3300.476 A1680.000,1680.000 0.000 0,0 3266.979,3103.252 Z" style="stroke-width:2.0;stroke:rgb(255,255,255);stroke-linecap:round;fill:none;" />
<path d="M3011.529,3293.434 A1642.000,1642.000 40.000 0,1 2784.385,3442.534 L2802.537,3475.918 A1680.000,1680.000 0.000 0,0 3034.939,3323.368 Z" style="stroke-width:2.0;stroke:rgb(255,255,255);stroke-linecap:round;fill:rgb(185,185,185);" />
<text x="2948.3" y="3467.5" font-size="36.4px" font-family="CMUBright-Roman" style="text-anchor:start;fill:rgb(0,0,0);" transform="rotate(56.7,2948.3,3467.5)" >Research-Science</text>
<path d="M3011.529,3293.434 A1642.000,1642.000 40.000 0,1 2784.385,3442.534 L2802.537,3475.918 A1680.000,1680.000 0.000 0,0 3034.939,3323.368 Z" style="stroke-width:2.0;stroke:rgb(255,255,255);stroke-linecap:round;fill:none;" />
<path d="M2752.729,3459.302 A1642.000,1642.000 40.000 0,1 2556.245,3544.913 L2569.118,3580.666 A1680.000,1680.000 0.000 0,0 2770.149,3493.074 Z" style="stroke-width:2.0;stroke:rgb(255,255,255);stroke-linecap:round;fill:rgb(185,185,185);" />
<text x="2686.4" y="3606.7" font-size="36.4px" font-family="CMUBright-Roman" style="text-anchor:start;fill:rgb(0,0,0);" transform="rotate(66.5,2686.4,3606.7)" >Education</text>
<path d="M2752.729,3459.302 A1642.000,1642.000 40.000 0,1 2556.245,3544.913 L2569.118,3580.666 A1680.000,1680.000 0.000 0,0 2770.149,3493.074 Z" style="stroke-width:2.0;stroke:rgb(255,255,255);stroke-linecap:round;fill:none;" />
<path d="M2522.411,3556.679 A1642.000,1642.000 40.000 0,1 2417.174,3588.121 L2426.829,3624.875 A1680.000,1680.000 0.000 0,0 2534.501,3592.705 Z" style="stroke-width:2.0;stroke:rgb(255,255,255);stroke-linecap:round;fill:rgb(185,185,185);" />
<text x="2488.2" y="3677.6" font-size="36.4px" font-family="CMUBright-Roman" style="text-anchor:start;fill:rgb(0,0,0);" transform="rotate(73.4,2488.2,3677.6)" >IT-Infrastructure</text>
<path d="M2522.411,3556.679 A1642.000,1642.000 40.000 0,1 2417.174,3588.121 L2426.829,3624.875 A1680.000,1680.000 0.000 0,0 2534.501,3592.705 Z" style="stroke-width:2.0;stroke:rgb(255,255,255);stroke-linecap:round;fill:none;" />
<path d="M2382.430,3596.844 A1642.000,1642.000 40.000 0,1 2321.118,3610.294 L2328.550,3647.560 A1680.000,1680.000 0.000 0,0 2391.281,3633.799 Z" style="stroke-width:2.0;stroke:rgb(255,255,255);stroke-linecap:round;fill:rgb(185,185,185);" />
<text x="2358.7" y="3710.0" font-size="36.4px" font-family="CMUBright-Roman" style="text-anchor:start;fill:rgb(0,0,0);" transform="rotate(77.6,2358.7,3710.0)" >Legal-Policy</text>
<path d="M2382.430,3596.844 A1642.000,1642.000 40.000 0,1 2321.118,3610.294 L2328.550,3647.560 A1680.000,1680.000 0.000 0,0 2391.281,3633.799 Z" style="stroke-width:2.0;stroke:rgb(255,255,255);stroke-linecap:round;fill:none;" />
<path d="M2285.913,3616.916 A1642.000,1642.000 40.000 0,1 2249.787,3622.890 L2255.567,3660.447 A1680.000,1680.000 0.000 0,0 2292.530,3654.336 Z" style="stroke-width:2.0;stroke:rgb(255,255,255);stroke-linecap:round;fill:rgb(185,185,185);" />
<text x="2272.7" y="3725.8" font-size="36.4px" font-family="CMUBright-Roman" style="text-anchor:start;fill:rgb(0,0,0);" transform="rotate(80.6,2272.7,3725.8)" >Social-Service</text>
<path d="M2285.913,3616.916 A1642.000,1642.000 40.000 0,1 2249.787,3622.890 L2255.567,3660.447 A1680.000,1680.000 0.000 0,0 2292.530,3654.336 Z" style="stroke-width:2.0;stroke:rgb(255,255,255);stroke-linecap:round;fill:none;" />
<path d="M2214.324,3627.952 A1642.000,1642.000 40.000 0,1 1245.263,3458.265 L1227.797,3492.013 A1680.000,1680.000 0.000 0,0 2219.284,3665.627 Z" style="stroke-width:2.0;stroke:rgb(255,255,255);stroke-linecap:round;fill:rgb(15,52,135);" />
<text x="1714.4" y="3723.7" font-size="36.4px" font-family="CMUBright-Roman" style="text-anchor:end;fill:rgb(0,0,0);" transform="rotate(-80.1,1714.4,3723.7)" >Finance-Accounting</text>
<path d="M2214.324,3627.952 A1642.000,1642.000 40.000 0,1 1245.263,3458.265 L1227.797,3492.013 A1680.000,1680.000 0.000 0,0 2219.284,3665.627 Z" style="stroke-width:2.0;stroke:rgb(255,255,255);stroke-linecap:round;fill:none;" />
<path d="M1213.631,3441.453 A1642.000,1642.000 40.000 0,1 879.437,3200.209 L853.504,3227.985 A1680.000,1680.000 0.000 0,0 1195.432,3474.812 Z" style="stroke-width:2.0;stroke:rgb(255,255,255);stroke-linecap:round;fill:rgb(28,75,160);" />
<text x="990.4" y="3426.0" font-size="36.4px" font-family="CMUBright-Roman" style="text-anchor:end;fill:rgb(0,0,0);" transform="rotate(-54.2,990.4,3426.0)" >Marketing-Communication</text>
<path d="M1213.631,3441.453 A1642.000,1642.000 40.000 0,1 879.437,3200.209 L853.504,3227.985 A1680.000,1680.000 0.000 0,0 1195.432,3474.812 Z" style="stroke-width:2.0;stroke:rgb(255,255,255);stroke-linecap:round;fill:none;" />
<path d="M853.521,3175.478 A1642.000,1642.000 40.000 0,1 639.254,2918.986 L607.763,2940.253 A1680.000,1680.000 0.000 0,0 826.988,3202.682 Z" style="stroke-width:2.0;stroke:rgb(255,255,255);stroke-linecap:round;fill:rgb(42,98,180);" />
<text x="667.2" y="3129.7" font-size="36.4px" font-family="CMUBright-Roman" style="text-anchor:end;fill:rgb(0,0,0);" transform="rotate(-39.9,667.2,3129.7)" >General-Business</text>
<path d="M853.521,3175.478 A1642.000,1642.000 40.000 0,1 639.254,2918.986 L607.763,2940.253 A1680.000,1680.000 0.000 0,0 826.988,3202.682 Z" style="stroke-width:2.0;stroke:rgb(255,255,255);stroke-linecap:round;fill:none;" />
<path d="M619.530,2889.082 A1642.000,1642.000 40.000 0,1 479.680,2620.315 L444.496,2634.671 A1680.000,1680.000 0.000 0,0 587.583,2909.658 Z" style="stroke-width:2.0;stroke:rgb(255,255,255);stroke-linecap:round;fill:rgb(60,120,198);" />
<text x="457.3" y="2820.2" font-size="36.4px" font-family="CMUBright-Roman" style="text-anchor:end;fill:rgb(0,0,0);" transform="rotate(-27.5,457.3,2820.2)" >Operations-Analytics</text>
<path d="M619.530,2889.082 A1642.000,1642.000 40.000 0,1 479.680,2620.315 L444.496,2634.671 A1680.000,1680.000 0.000 0,0 587.583,2909.658 Z" style="stroke-width:2.0;stroke:rgb(255,255,255);stroke-linecap:round;fill:none;" />
<path d="M466.510,2587.002 A1642.000,1642.000 40.000 0,1 421.749,2453.087 L385.224,2463.573 A1680.000,1680.000 0.000 0,0 431.021,2600.587 Z" style="stroke-width:2.0;stroke:rgb(255,255,255);stroke-linecap:round;fill:rgb(82,145,215);" />
<text x="347.9" y="2568.6" font-size="36.4px" font-family="CMUBright-Roman" style="text-anchor:end;fill:rgb(0,0,0);" transform="rotate(-18.5,347.9,2568.6)" >Specialized-Business</text>
<path d="M466.510,2587.002 A1642.000,1642.000 40.000 0,1 421.749,2453.087 L385.224,2463.573 A1680.000,1680.000 0.000 0,0 431.021,2600.587 Z" style="stroke-width:2.0;stroke:rgb(255,255,255);stroke-linecap:round;fill:none;" />
<path d="M412.241,2418.550 A1642.000,1642.000 40.000 0,1 391.911,2331.987 L354.696,2339.670 A1680.000,1680.000 0.000 0,0 375.496,2428.236 Z" style="stroke-width:2.0;stroke:rgb(255,255,255);stroke-linecap:round;fill:rgb(108,170,228);" />
<text x="301.9" y="2411.1" font-size="36.4px" font-family="CMUBright-Roman" style="text-anchor:end;fill:rgb(0,0,0);" transform="rotate(-13.2,301.9,2411.1)" >Economics</text>
<path d="M412.241,2418.550 A1642.000,1642.000 40.000 0,1 391.911,2331.987 L354.696,2339.670 A1680.000,1680.000 0.000 0,0 375.496,2428.236 Z" style="stroke-width:2.0;stroke:rgb(255,255,255);stroke-linecap:round;fill:none;" />
<path d="M385.052,2296.827 A1642.000,1642.000 40.000 0,1 366.030,2162.194 L328.216,2165.947 A1680.000,1680.000 0.000 0,0 347.678,2303.697 Z" style="stroke-width:2.0;stroke:rgb(255,255,255);stroke-linecap:round;fill:rgb(200,108,30);" />
<text x="271.8" y="2256.8" font-size="36.4px" font-family="CMUBright-Roman" style="text-anchor:end;fill:rgb(0,0,0);" transform="rotate(-8.0,271.8,2256.8)" >Social-Sciences</text>
<path d="M385.052,2296.827 A1642.000,1642.000 40.000 0,1 366.030,2162.194 L328.216,2165.947 A1680.000,1680.000 0.000 0,0 347.678,2303.697 Z" style="stroke-width:2.0;stroke:rgb(255,255,255);stroke-linecap:round;fill:none;" />
<path d="M362.881,2126.510 A1642.000,1642.000 40.000 0,1 359.682,2074.299 L321.721,2076.018 A1680.000,1680.000 0.000 0,0 324.994,2129.438 Z" style="stroke-width:2.0;stroke:rgb(255,255,255);stroke-linecap:round;fill:rgb(220,140,52);" />
<text x="256.9" y="2119.3" font-size="36.4px" font-family="CMUBright-Roman" style="text-anchor:end;fill:rgb(0,0,0);" transform="rotate(-3.5,256.9,2119.3)" >Humanities-Liberal-Arts</text>
<path d="M362.881,2126.510 A1642.000,1642.000 40.000 0,1 359.682,2074.299 L321.721,2076.018 A1680.000,1680.000 0.000 0,0 324.994,2129.438 Z" style="stroke-width:2.0;stroke:rgb(255,255,255);stroke-linecap:round;fill:none;" />
<path d="M358.451,2038.498 A1642.000,1642.000 40.000 0,1 358.158,2022.807 L320.162,2023.335 A1680.000,1680.000 0.000 0,0 320.462,2039.389 Z" style="stroke-width:2.0;stroke:rgb(255,255,255);stroke-linecap:round;fill:rgb(235,168,78);" />
<text x="253.4" y="2045.1" font-size="36.4px" font-family="CMUBright-Roman" style="text-anchor:end;fill:rgb(0,0,0);" transform="rotate(-1.1,253.4,2045.1)" >International-Studies</text>
<path d="M358.451,2038.498 A1642.000,1642.000 40.000 0,1 358.158,2022.807 L320.162,2023.335 A1680.000,1680.000 0.000 0,0 320.462,2039.389 Z" style="stroke-width:2.0;stroke:rgb(255,255,255);stroke-linecap:round;fill:none;" />
<path d="M358.052,1986.985 A1642.000,1642.000 40.000 0,1 367.336,1825.152 L329.552,1821.105 A1680.000,1680.000 0.000 0,0 320.053,1986.684 Z" style="stroke-width:2.0;stroke:rgb(255,255,255);stroke-linecap:round;fill:rgb(175,35,42);" />
<text x="255.0" y="1912.4" font-size="36.4px" font-family="CMUBright-Roman" style="text-anchor:end;fill:rgb(0,0,0);" transform="rotate(3.3,255.0,1912.4)" >Teacher-Education</text>
<path d="M358.052,1986.985 A1642.000,1642.000 40.000 0,1 367.336,1825.152 L329.552,1821.105 A1680.000,1680.000 0.000 0,0 320.053,1986.684 Z" style="stroke-width:2.0;stroke:rgb(255,255,255);stroke-linecap:round;fill:none;" />
<path d="M371.539,1789.577 A1642.000,1642.000 40.000 0,1 376.636,1753.316 L339.067,1747.607 A1680.000,1680.000 0.000 0,0 333.852,1784.707 Z" style="stroke-width:2.0;stroke:rgb(255,255,255);stroke-linecap:round;fill:rgb(195,58,55);" />
<text x="268.1" y="1769.2" font-size="36.4px" font-family="CMUBright-Roman" style="text-anchor:end;fill:rgb(0,0,0);" transform="rotate(8.0,268.1,1769.2)" >Social-Work</text>
<path d="M371.539,1789.577 A1642.000,1642.000 40.000 0,1 376.636,1753.316 L339.067,1747.607 A1680.000,1680.000 0.000 0,0 333.852,1784.707 Z" style="stroke-width:2.0;stroke:rgb(255,255,255);stroke-linecap:round;fill:none;" />
<path d="M382.404,1717.961 A1642.000,1642.000 40.000 0,1 388.090,1687.094 L350.786,1679.853 A1680.000,1680.000 0.000 0,0 344.968,1711.434 Z" style="stroke-width:2.0;stroke:rgb(255,255,255);stroke-linecap:round;fill:rgb(215,82,72);" />
<text x="279.0" y="1698.7" font-size="36.4px" font-family="CMUBright-Roman" style="text-anchor:end;fill:rgb(0,0,0);" transform="rotate(10.4,279.0,1698.7)" >Special-Education</text>
<path d="M382.404,1717.961 A1642.000,1642.000 40.000 0,1 388.090,1687.094 L350.786,1679.853 A1680.000,1680.000 0.000 0,0 344.968,1711.434 Z" style="stroke-width:2.0;stroke:rgb(255,255,255);stroke-linecap:round;fill:none;" />
<path d="M395.300,1652.005 A1642.000,1642.000 40.000 0,1 396.416,1646.895 L359.305,1638.723 A1680.000,1680.000 0.000 0,0 358.163,1643.952 Z" style="stroke-width:2.0;stroke:rgb(255,255,255);stroke-linecap:round;fill:rgb(230,112,95);" />
<text x="289.8" y="1642.1" font-size="36.4px" font-family="CMUBright-Roman" style="text-anchor:end;fill:rgb(0,0,0);" transform="rotate(12.3,289.8,1642.1)" >Educational-Leadership</text>
<path d="M395.300,1652.005 A1642.000,1642.000 40.000 0,1 396.416,1646.895 L359.305,1638.723 A1680.000,1680.000 0.000 0,0 358.163,1643.952 Z" style="stroke-width:2.0;stroke:rgb(255,255,255);stroke-linecap:round;fill:none;" />
<path d="M404.501,1611.997 A1642.000,1642.000 40.000 0,1 423.388,1541.244 L386.901,1530.627 A1680.000,1680.000 0.000 0,0 367.577,1603.017 Z" style="stroke-width:2.0;stroke:rgb(255,255,255);stroke-linecap:round;fill:rgb(0,130,142);" />
<text x="308.7" y="1561.5" font-size="36.4px" font-family="CMUBright-Roman" style="text-anchor:end;fill:rgb(0,0,0);" transform="rotate(14.9,308.7,1561.5)" >Communication-Studies</text>
<path d="M404.501,1611.997 A1642.000,1642.000 40.000 0,1 423.388,1541.244 L386.901,1530.627 A1680.000,1680.000 0.000 0,0 367.577,1603.017 Z" style="stroke-width:2.0;stroke:rgb(255,255,255);stroke-linecap:round;fill:none;" />
<path d="M433.770,1506.960 A1642.000,1642.000 40.000 0,1 448.549,1462.261 L412.644,1449.816 A1680.000,1680.000 0.000 0,0 397.524,1495.549 Z" style="stroke-width:2.0;stroke:rgb(255,255,255);stroke-linecap:round;fill:rgb(0,165,172);" />
<text x="337.2" y="1463.4" font-size="36.4px" font-family="CMUBright-Roman" style="text-anchor:end;fill:rgb(0,0,0);" transform="rotate(18.3,337.2,1463.4)" >Journalism-Media</text>
<path d="M433.770,1506.960 A1642.000,1642.000 40.000 0,1 448.549,1462.261 L412.644,1449.816 A1680.000,1680.000 0.000 0,0 397.524,1495.549 Z" style="stroke-width:2.0;stroke:rgb(255,255,255);stroke-linecap:round;fill:none;" />
<path d="M460.649,1428.544 A1642.000,1642.000 40.000 0,1 466.181,1413.858 L430.684,1400.293 A1680.000,1680.000 0.000 0,0 425.024,1415.319 Z" style="stroke-width:2.0;stroke:rgb(255,255,255);stroke-linecap:round;fill:rgb(38,195,195);" />
<text x="359.4" y="1399.1" font-size="36.4px" font-family="CMUBright-Roman" style="text-anchor:end;fill:rgb(0,0,0);" transform="rotate(20.6,359.4,1399.1)" >Creative-Writing</text>
<path d="M460.649,1428.544 A1642.000,1642.000 40.000 0,1 466.181,1413.858 L430.684,1400.293 A1680.000,1680.000 0.000 0,0 425.024,1415.319 Z" style="stroke-width:2.0;stroke:rgb(255,255,255);stroke-linecap:round;fill:none;" />
<path d="M479.332,1380.537 A1642.000,1642.000 40.000 0,1 510.660,1308.603 L476.193,1292.602 A1680.000,1680.000 0.000 0,0 444.140,1366.201 Z" style="stroke-width:2.0;stroke:rgb(255,255,255);stroke-linecap:round;fill:rgb(180,45,112);" />
<text x="391.8" y="1317.1" font-size="36.4px" font-family="CMUBright-Roman" style="text-anchor:end;fill:rgb(0,0,0);" transform="rotate(23.5,391.8,1317.1)" >Arts-Theology</text>
<path d="M479.332,1380.537 A1642.000,1642.000 40.000 0,1 510.660,1308.603 L476.193,1292.602 A1680.000,1680.000 0.000 0,0 444.140,1366.201 Z" style="stroke-width:2.0;stroke:rgb(255,255,255);stroke-linecap:round;fill:none;" />
<path d="M526.097,1276.278 A1642.000,1642.000 40.000 0,1 530.738,1266.901 L496.736,1249.936 A1680.000,1680.000 0.000 0,0 491.987,1259.529 Z" style="stroke-width:2.0;stroke:rgb(255,255,255);stroke-linecap:round;fill:rgb(205,75,142);" />
<text x="427.1" y="1239.3" font-size="36.4px" font-family="CMUBright-Roman" style="text-anchor:end;fill:rgb(0,0,0);" transform="rotate(26.3,427.1,1239.3)" >English-Writing</text>
<path d="M526.097,1276.278 A1642.000,1642.000 40.000 0,1 530.738,1266.901 L496.736,1249.936 A1680.000,1680.000 0.000 0,0 491.987,1259.529 Z" style="stroke-width:2.0;stroke:rgb(255,255,255);stroke-linecap:round;fill:none;" />
<path d="M547.080,1235.024 A1642.000,1642.000 40.000 0,1 549.525,1230.399 L515.957,1212.589 A1680.000,1680.000 0.000 0,0 513.456,1217.321 Z" style="stroke-width:2.0;stroke:rgb(255,255,255);stroke-linecap:round;fill:rgb(225,110,168);" />
<text x="447.9" y="1197.7" font-size="36.4px" font-family="CMUBright-Roman" style="text-anchor:end;fill:rgb(0,0,0);" transform="rotate(27.9,447.9,1197.7)" >Languages</text>
<path d="M547.080,1235.024 A1642.000,1642.000 40.000 0,1 549.525,1230.399 L515.957,1212.589 A1680.000,1680.000 0.000 0,0 513.456,1217.321 Z" style="stroke-width:2.0;stroke:rgb(255,255,255);stroke-linecap:round;fill:none;" />
<path d="M566.659,1198.940 A1642.000,1642.000 40.000 0,1 748.337,937.219 L719.370,912.624 A1680.000,1680.000 0.000 0,0 533.488,1180.402 Z" style="stroke-width:2.0;stroke:rgb(255,255,255);stroke-linecap:round;fill:rgb(88,40,138);" />
<text x="555.7" y="1016.9" font-size="36.4px" font-family="CMUBright-Roman" style="text-anchor:end;fill:rgb(0,0,0);" transform="rotate(34.8,555.7,1016.9)" >Biological-Sciences</text>
<path d="M566.659,1198.940 A1642.000,1642.000 40.000 0,1 748.337,937.219 L719.370,912.624 A1680.000,1680.000 0.000 0,0 533.488,1180.402 Z" style="stroke-width:2.0;stroke:rgb(255,255,255);stroke-linecap:round;fill:none;" />
<path d="M771.819,910.167 A1642.000,1642.000 40.000 0,1 821.633,856.490 L794.362,830.027 A1680.000,1680.000 0.000 0,0 743.396,884.946 Z" style="stroke-width:2.0;stroke:rgb(255,255,255);stroke-linecap:round;fill:rgb(115,65,165);" />
<text x="710.8" y="820.7" font-size="36.4px" font-family="CMUBright-Roman" style="text-anchor:end;fill:rgb(0,0,0);" transform="rotate(42.9,710.8,820.7)" >Health-Wellness</text>
<path d="M771.819,910.167 A1642.000,1642.000 40.000 0,1 821.633,856.490 L794.362,830.027 A1680.000,1680.000 0.000 0,0 743.396,884.946 Z" style="stroke-width:2.0;stroke:rgb(255,255,255);stroke-linecap:round;fill:none;" />
<path d="M846.858,831.057 A1642.000,1642.000 40.000 0,1 873.212,805.633 L847.135,777.993 A1680.000,1680.000 0.000 0,0 820.172,804.004 Z" style="stroke-width:2.0;stroke:rgb(255,255,255);stroke-linecap:round;fill:rgb(140,92,188);" />
<text x="775.8" y="753.4" font-size="36.4px" font-family="CMUBright-Roman" style="text-anchor:end;fill:rgb(0,0,0);" transform="rotate(46.0,775.8,753.4)" >Physical-Sciences</text>
<path d="M846.858,831.057 A1642.000,1642.000 40.000 0,1 873.212,805.633 L847.135,777.993 A1680.000,1680.000 0.000 0,0 820.172,804.004 Z" style="stroke-width:2.0;stroke:rgb(255,255,255);stroke-linecap:round;fill:none;" />
<path d="M899.535,781.337 A1642.000,1642.000 40.000 0,1 903.423,777.837 L878.045,749.553 A1680.000,1680.000 0.000 0,0 874.067,753.134 Z" style="stroke-width:2.0;stroke:rgb(255,255,255);stroke-linecap:round;fill:rgb(165,120,208);" />
<text x="821.8" y="709.8" font-size="36.4px" font-family="CMUBright-Roman" style="text-anchor:end;fill:rgb(0,0,0);" transform="rotate(48.0,821.8,709.8)" >Environmental-Sciences</text>
<path d="M899.535,781.337 A1642.000,1642.000 40.000 0,1 903.423,777.837 L878.045,749.553 A1680.000,1680.000 0.000 0,0 874.067,753.134 Z" style="stroke-width:2.0;stroke:rgb(255,255,255);stroke-linecap:round;fill:none;" />
<path d="M930.345,754.206 A1642.000,1642.000 40.000 0,1 1638.399,398.311 L1630.030,361.244 A1680.000,1680.000 0.000 0,0 905.590,725.375 Z" style="stroke-width:2.0;stroke:rgb(255,255,255);stroke-linecap:round;fill:rgb(22,118,50);" />
<text x="1201.1" y="446.2" font-size="36.4px" font-family="CMUBright-Roman" style="text-anchor:end;fill:rgb(0,0,0);" transform="rotate(63.3,1201.1,446.2)" >Engineering-Disciplines</text>
<path d="M930.345,754.206 A1642.000,1642.000 40.000 0,1 1638.399,398.311 L1630.030,361.244 A1680.000,1680.000 0.000 0,0 905.590,725.375 Z" style="stroke-width:2.0;stroke:rgb(255,255,255);stroke-linecap:round;fill:none;" />
<path d="M1673.425,390.804 A1642.000,1642.000 40.000 0,1 1964.180,358.391 L1963.351,320.400 A1680.000,1680.000 0.000 0,0 1665.867,353.563 Z" style="stroke-width:2.0;stroke:rgb(255,255,255);stroke-linecap:round;fill:rgb(48,158,75);" />
<text x="1791.0" y="265.3" font-size="36.4px" font-family="CMUBright-Roman" style="text-anchor:end;fill:rgb(0,0,0);" transform="rotate(83.6,1791.0,265.3)" >Computer-Science-IT</text>
<path d="M1673.425,390.804 A1642.000,1642.000 40.000 0,1 1964.180,358.391 L1963.351,320.400 A1680.000,1680.000 0.000 0,0 1665.867,353.563 Z" style="stroke-width:2.0;stroke:rgb(255,255,255);stroke-linecap:round;fill:none;" />
</g>
<g id="track_0">
<path d="M 3552.447,1517.900 A 1625.580,1625.580 0.00 0,1 3610.7,1780.5 L 3610.7,1780.5 3550.9,1787.3 3489.8,1791.6 3427.5,1793.3 3364.3,1792.5 3300.4,1789.1 3235.9,1783.1 3170.9,1774.4 3105.8,1763.2 3040.5,1749.4 2975.3,1733.0 2910.4,1714.0 2845.8,1692.5 2781.7,1668.5 2718.4,1642.0 2655.8,1613.0 2594.2,1581.7 2533.6,1548.1 2474.2,1512.2 2416.1,1474.1 2359.5,1433.8 2304.4,1391.6 2250.9,1347.3 2199.2,1301.2 2149.4,1253.3 2101.4,1203.8 2055.5,1152.7 2011.8,1100.1 1970.2,1046.2 1930.9,991.2 1893.9,935.0 1859.3,878.0 1827.3,820.1 1797.7,761.6 1770.8,702.7 1746.5,643.5 1724.9,584.1 1706.1,524.7 1690.0,465.6 1676.7,406.9  A 1625.580,1625.580 0.00 0,1 1943.8,375.4 L 1943.8,375.4 1947.0,433.0 1952.7,491.1 1961.0,549.4 1971.7,607.8 1985.0,665.9 2000.8,723.5 2019.1,780.5 2040.0,836.6 2063.4,891.7 2089.2,945.5 2117.5,998.0 2148.2,1048.9 2181.2,1098.1 2216.6,1145.5 2254.2,1190.8 2294.0,1234.1 2335.9,1275.2 2379.8,1313.9 2425.6,1350.3 2473.3,1384.1 2522.7,1415.4 2573.8,1444.1 2626.3,1470.2 2680.3,1493.5 2735.5,1514.0 2791.9,1531.8 2849.2,1546.8 2907.4,1559.0 2966.2,1568.4 3025.6,1575.1 3085.3,1579.0 3145.2,1580.2 3205.0,1578.8 3264.6,1574.7 3323.9,1568.1 3382.5,1559.1 3440.3,1547.6 3497.0,1533.8 3552.4,1517.9  Z" style="stroke-width: 0.0;  fill: rgb(48,158,75);" />
<path d="M 3610.694,1780.510 A 1625.580,1625.580 0.00 0,1 3616.3,1826.8 L 3616.3,1826.8 3551.6,1832.4 3485.1,1835.7 3417.1,1836.6 3347.6,1835.3 3276.7,1831.8 3204.5,1826.1 3131.3,1818.3 3057.1,1808.5 2982.0,1796.7 2906.1,1782.9 2829.7,1767.3 2752.7,1749.8 2675.4,1730.6 2597.8,1709.6 2520.1,1686.9 2442.4,1662.6 2364.8,1636.8 2287.5,1609.4 2210.5,1580.5 2134.0,1550.2 2058.1,1518.5 1983.0,1485.5 1908.8,1451.2 1835.5,1415.7 1763.4,1378.9 1692.5,1341.1 1622.9,1302.2 1554.9,1262.2 1488.5,1221.2 1423.8,1179.3 1361.0,1136.4 1300.2,1092.7 1241.5,1048.2 1185.1,1003.0 1131.0,957.0 1079.5,910.3 1030.5,863.0 984.3,815.1 941.0,766.7  A 1625.580,1625.580 0.00 0,1 976.8,736.8 L 976.8,736.8 1018.4,786.0 1062.9,834.8 1110.1,882.9 1160.0,930.4 1212.4,977.2 1267.3,1023.3 1324.4,1068.5 1383.7,1112.9 1445.0,1156.4 1508.2,1198.9 1573.3,1240.4 1639.9,1280.8 1708.2,1320.1 1777.8,1358.2 1848.8,1395.1 1920.9,1430.7 1994.0,1464.9 2068.1,1497.7 2142.9,1529.2 2218.4,1559.1 2294.4,1587.5 2370.9,1614.2 2447.6,1639.4 2524.5,1662.9 2601.5,1684.6 2678.3,1704.5 2754.9,1722.6 2831.2,1738.9 2907.0,1753.2 2982.2,1765.5 3056.7,1775.9 3130.3,1784.1 3202.9,1790.3 3274.4,1794.3 3344.6,1796.1 3413.5,1795.7 3480.9,1792.9 3546.7,1787.9 3610.7,1780.5  Z" style="stroke-width: 0.0;  fill: rgb(22,118,50);" />
<path d="M 3616.324,1826.776 A 1625.580,1625.580 0.00 0,1 3616.9,1831.9 L 3616.9,1831.9 3548.2,1838.0 3477.6,1842.1 3405.4,1844.3 3331.5,1844.9 3256.0,1843.9 3179.2,1841.4 3101.0,1837.6 3021.5,1832.4 2940.9,1826.1 2859.3,1818.6 2776.8,1810.1 2693.4,1800.6 2609.3,1790.2 2524.6,1779.0 2439.4,1767.0 2353.8,1754.2 2268.0,1740.7 2181.9,1726.6 2095.8,1711.9 2009.7,1696.5 1923.8,1680.6 1838.2,1664.1 1752.9,1647.1 1668.2,1629.4 1584.1,1611.3 1500.7,1592.5 1418.2,1573.2 1336.7,1553.3 1256.3,1532.8 1177.2,1511.6 1099.3,1489.7 1023.0,1467.1 948.3,1443.7 875.3,1419.5 804.2,1394.3 735.0,1368.3 668.0,1341.1 603.2,1312.9 540.8,1283.5  A 1625.580,1625.580 0.00 0,1 543.1,1278.9 L 543.1,1278.9 605.4,1308.4 670.0,1336.8 736.9,1364.1 805.9,1390.4 876.9,1415.6 949.8,1440.0 1024.4,1463.6 1100.6,1486.3 1178.3,1508.3 1257.4,1529.6 1337.7,1550.3 1419.2,1570.3 1501.6,1589.7 1584.9,1608.5 1668.9,1626.7 1753.6,1644.4 1838.7,1661.5 1924.3,1678.0 2010.2,1693.9 2096.2,1709.3 2182.3,1724.0 2268.3,1738.1 2354.1,1751.5 2439.7,1764.2 2524.9,1776.1 2609.5,1787.2 2693.6,1797.5 2776.9,1806.9 2859.4,1815.3 2940.9,1822.6 3021.5,1828.8 3100.9,1833.8 3179.0,1837.5 3255.8,1839.8 3331.2,1840.6 3405.0,1839.8 3477.2,1837.3 3547.7,1833.0 3616.3,1826.8  Z" style="stroke-width: 0.0;  fill: rgb(205,75,142);" />
<path d="M 3616.868,1831.927 A 1625.580,1625.580 0.00 0,1 3617.9,1842.2 L 3617.9,1842.2 3545.3,1850.1 3471.4,1859.7 3396.2,1870.7 3319.7,1883.0 3242.1,1896.4 3163.3,1910.7 3083.5,1925.7 3002.7,1941.5 2920.9,1957.7 2838.3,1974.3 2754.8,1991.1 2670.7,2008.1 2585.9,2025.2 2500.5,2042.2 2414.5,2059.2 2328.2,2075.9 2241.5,2092.5 2154.6,2108.8 2067.4,2124.7 1980.2,2140.4 1892.9,2155.7 1805.7,2170.7 1718.6,2185.3 1631.9,2199.6 1545.4,2213.5 1459.4,2227.2 1374.0,2240.7 1289.1,2254.0 1205.0,2267.2 1121.8,2280.4 1039.5,2293.6 958.2,2306.9 878.1,2320.5 799.3,2334.5 721.9,2348.9 645.9,2364.0 571.5,2379.8 498.9,2396.6 428.1,2414.4  A 1625.580,1625.580 0.00 0,1 425.5,2404.3 L 425.5,2404.3 496.5,2386.9 569.4,2370.6 643.9,2355.2 720.1,2340.5 797.7,2326.4 876.7,2312.8 956.9,2299.6 1038.2,2286.5 1120.6,2273.6 1204.0,2260.7 1288.1,2247.8 1373.0,2234.7 1458.5,2221.4 1544.5,2207.9 1631.0,2194.1 1717.8,2179.9 1804.8,2165.4 1892.0,2150.5 1979.2,2135.2 2066.5,2119.6 2153.6,2103.6 2240.5,2087.3 2327.2,2070.6 2413.5,2053.7 2499.4,2036.6 2584.7,2019.4 2669.5,2002.2 2753.6,1984.9 2837.0,1967.8 2919.6,1950.9 3001.4,1934.4 3082.2,1918.4 3162.0,1902.9 3240.8,1888.2 3318.5,1874.4 3395.0,1861.7 3470.2,1850.3 3544.2,1840.3 3616.9,1831.9  Z" style="stroke-width: 0.0;  fill: rgb(108,170,228);" />
<path d="M 3617.906,1842.232 A 1625.580,1625.580 0.00 0,1 3623.1,1909.4 L 3623.1,1909.4 3553.8,1914.3 3483.1,1921.4 3410.9,1930.5 3337.4,1941.4 3262.6,1954.1 3186.6,1968.4 3109.5,1984.2 3031.4,2001.4 2952.3,2019.8 2872.3,2039.4 2791.6,2060.1 2710.2,2081.8 2628.2,2104.4 2545.6,2127.8 2462.7,2151.9 2379.5,2176.8 2296.0,2202.3 2212.5,2228.4 2128.9,2255.0 2045.5,2282.1 1962.2,2309.6 1879.3,2337.6 1796.8,2366.0 1714.8,2394.8 1633.5,2424.0 1553.0,2453.5 1473.3,2483.4 1394.7,2513.7 1317.2,2544.4 1241.0,2575.5 1166.2,2607.1 1092.9,2639.1 1021.2,2671.6 951.3,2704.7 883.3,2738.3 817.4,2772.7 753.7,2807.7 692.3,2843.5 633.3,2880.2  A 1625.580,1625.580 0.00 0,1 598.1,2822.9 L 598.1,2822.9 659.2,2788.2 722.6,2754.4 788.3,2721.3 856.1,2689.0 925.8,2657.2 997.3,2626.0 1070.6,2595.2 1145.3,2564.9 1221.5,2534.9 1299.0,2505.3 1377.6,2475.9 1457.3,2446.8 1537.9,2417.9 1619.4,2389.3 1701.5,2360.9 1784.2,2332.6 1867.3,2304.6 1950.8,2276.9 2034.6,2249.3 2118.5,2222.1 2202.5,2195.2 2286.3,2168.6 2370.1,2142.4 2453.6,2116.6 2536.7,2091.4 2619.4,2066.7 2701.6,2042.7 2783.2,2019.5 2864.1,1997.0 2944.2,1975.5 3023.5,1955.0 3101.8,1935.6 3179.1,1917.5 3255.4,1900.7 3330.4,1885.5 3404.3,1871.8 3476.9,1860.0 3548.1,1850.1 3617.9,1842.2  Z" style="stroke-width: 0.0;  fill: rgb(60,120,198);" />
<path d="M 3623.051,1909.355 A 1625.580,1625.580 0.00 0,1 3623.6,1919.7 L 3623.6,1919.7 3556.6,1924.2 3488.2,1931.2 3418.5,1940.4 3347.4,1951.9 3275.2,1965.4 3201.9,1981.0 3127.5,1998.5 3052.3,2017.8 2976.3,2038.8 2899.6,2061.5 2822.3,2085.8 2744.4,2111.5 2666.2,2138.7 2587.7,2167.2 2509.0,2196.9 2430.2,2227.9 2351.5,2260.0 2272.9,2293.2 2194.6,2327.4 2116.6,2362.5 2039.1,2398.6 1962.2,2435.6 1886.0,2473.3 1810.6,2511.9 1736.2,2551.1 1662.9,2591.1 1590.8,2631.8 1519.9,2673.1 1450.6,2715.0 1382.8,2757.4 1316.7,2800.5 1252.4,2844.1 1190.1,2888.2 1129.9,2932.9 1071.9,2978.0 1016.3,3023.7 963.2,3069.9 912.7,3116.5 865.0,3163.7  A 1625.580,1625.580 0.00 0,1 857.6,3156.5 L 857.6,3156.5 905.7,3109.5 956.5,3063.0 1010.0,3017.1 1066.0,2971.6 1124.3,2926.7 1184.9,2882.2 1247.5,2838.3 1312.0,2794.9 1378.4,2752.0 1446.5,2709.7 1516.1,2667.9 1587.2,2626.8 1659.6,2586.2 1733.1,2546.3 1807.7,2507.1 1883.3,2468.6 1959.6,2430.9 2036.7,2393.9 2114.3,2357.8 2192.5,2322.6 2270.9,2288.3 2349.7,2255.0 2428.5,2222.7 2507.4,2191.6 2586.2,2161.6 2664.8,2132.9 2743.1,2105.5 2820.9,2079.5 2898.3,2055.0 2975.1,2032.0 3051.2,2010.6 3126.5,1990.9 3200.9,1973.1 3274.2,1957.1 3346.5,1943.2 3417.7,1931.3 3487.5,1921.7 3556.0,1914.3 3623.1,1909.4  Z" style="stroke-width: 0.0;  fill: rgb(42,98,180);" />
<path d="M 3623.595,1919.699 A 1625.580,1625.580 0.00 0,1 3623.8,1924.9 L 3623.8,1924.9 3559.6,1929.2 3494.0,1936.1 3427.2,1945.6 3359.3,1957.6 3290.6,1972.1 3221.0,1989.0 3150.6,2008.1 3079.7,2029.5 3008.4,2053.1 2936.6,2078.9 2864.7,2106.6 2792.6,2136.4 2720.5,2168.0 2648.5,2201.5 2576.8,2236.8 2505.3,2273.8 2434.4,2312.3 2364.0,2352.5 2294.4,2394.2 2225.5,2437.2 2157.5,2481.6 2090.6,2527.3 2024.9,2574.2 1960.4,2622.2 1897.2,2671.3 1835.6,2721.3 1775.6,2772.3 1717.3,2824.1 1660.8,2876.6 1606.3,2929.9 1553.8,2983.7 1503.5,3038.1 1455.5,3092.9 1409.9,3148.1 1366.7,3203.6 1326.2,3259.3 1288.4,3315.2 1253.5,3371.1 1221.5,3427.0  A 1625.580,1625.580 0.00 0,1 1217.0,3424.6 L 1217.0,3424.6 1249.2,3368.7 1284.3,3312.8 1322.3,3257.0 1363.0,3201.3 1406.3,3145.9 1452.2,3090.7 1500.4,3035.9 1550.9,2981.6 1603.5,2927.8 1658.2,2874.6 1714.8,2822.1 1773.3,2770.3 1833.5,2719.4 1895.2,2669.3 1958.5,2620.2 2023.1,2572.2 2089.0,2525.3 2156.0,2479.6 2224.1,2435.1 2293.1,2392.0 2362.8,2350.3 2433.3,2310.0 2504.3,2271.3 2575.8,2234.2 2647.6,2198.9 2719.7,2165.2 2791.8,2133.4 2864.0,2103.6 2936.0,2075.6 3007.8,2049.7 3079.2,2026.0 3150.1,2004.4 3220.5,1985.0 3290.1,1967.9 3358.9,1953.3 3426.8,1941.0 3493.6,1931.3 3559.3,1924.2 3623.6,1919.7  Z" style="stroke-width: 0.0;  fill: rgb(28,75,160);" />
<path d="M 3623.843,1924.872 A 1625.580,1625.580 0.00 0,1 3624.1,1930.0 L 3624.1,1930.0 3565.2,1933.9 3505.7,1940.3 3445.7,1949.5 3385.4,1961.2 3325.2,1975.6 3265.0,1992.7 3205.3,2012.3 3146.0,2034.6 3087.4,2059.4 3029.7,2086.8 2973.1,2116.7 2917.6,2149.0 2863.4,2183.7 2810.6,2220.8 2759.4,2260.1 2710.0,2301.7 2662.3,2345.4 2616.6,2391.1 2572.9,2438.8 2531.3,2488.3 2491.9,2539.6 2454.8,2592.6 2420.0,2647.1 2387.7,2703.0 2357.8,2760.2 2330.4,2818.5 2305.6,2877.9 2283.3,2938.2 2263.7,2999.2 2246.8,3060.7 2232.4,3122.7 2220.8,3184.9 2211.7,3247.2 2205.3,3309.4 2201.6,3371.2 2200.4,3432.6 2201.8,3493.3 2205.8,3553.0 2212.2,3611.7  A 1625.580,1625.580 0.00 0,1 2207.0,3612.3 L 2207.0,3612.3 2200.8,3553.6 2197.1,3493.8 2195.9,3433.1 2197.2,3371.6 2201.2,3309.7 2207.8,3247.5 2217.0,3185.1 2228.9,3122.8 2243.4,3060.7 2260.6,2999.1 2280.4,2938.0 2302.8,2877.6 2327.8,2818.1 2355.3,2759.6 2385.4,2702.3 2417.9,2646.2 2452.8,2591.6 2490.1,2538.5 2529.7,2487.1 2571.4,2437.4 2615.2,2389.5 2661.1,2343.6 2708.8,2299.8 2758.4,2258.0 2809.7,2218.5 2862.5,2181.2 2916.8,2146.3 2972.3,2113.8 3029.1,2083.7 3086.8,2056.1 3145.5,2031.1 3204.8,2008.6 3264.6,1988.7 3324.7,1971.5 3385.1,1956.9 3445.3,1944.9 3505.4,1935.6 3564.9,1928.9 3623.8,1924.9  Z" style="stroke-width: 0.0;  fill: rgb(15,52,135);" />
</g>
<defs>
<pattern id="hline" width="10" height="10" patternTransform="rotate(0 0 0)" patternUnits="userSpaceOnUse"><line x1="0" y1="0" x2="10" y2="0" style="stroke:black;stroke-width:5" /></pattern>
<pattern id="vline" width="10" height="10" patternTransform="rotate(0 0 0)" patternUnits="userSpaceOnUse"><line x1="0" y1="0" x2="0" y2="10" style="stroke:black;stroke-width:5" /></pattern>
<pattern id="vline-sparse" width="10" height="10" patternTransform="rotate(0 0 0)" patternUnits="userSpaceOnUse"><line x1="0" y1="0" x2="0" y2="10" style="stroke:black;stroke-width:2" /></pattern>
<pattern id="checker" width="10" height="10" patternTransform="rotate(45 0 0)" patternUnits="userSpaceOnUse"><line x1="0" y1="0" x2="10" y2="0" style="stroke:black;stroke-width:5" /><line x1="0" y1="0" x2="0" y2="10" style="stroke:black;stroke-width:4" /></pattern>
<pattern id="hline-sparse" width="10" height="10" patternTransform="rotate(0 0 0)" patternUnits="userSpaceOnUse"><line x1="0" y1="0" x2="10" y2="0" style="stroke:black;stroke-width:2" /></pattern>
<pattern id="checker" width="10" height="10" patternTransform="rotate(45 0 0)" patternUnits="userSpaceOnUse"><line x1="0" y1="0" x2="10" y2="0" style="stroke:black;stroke-width:2" /><line x1="0" y1="0" x2="0" y2="10" style="stroke:black;stroke-width:2" /></pattern>
</defs>
</svg>
