<?xml version="1.0" encoding="utf-8" standalone="no"?>
<!DOCTYPE svg PUBLIC "-//W3C//DTD SVG 1.1//EN" "http://www.w3.org/Graphics/SVG/1.1/DTD/svg11.dtd">
<svg width="4000px" height="4000px" version="1.1" xmlns="http://www.w3.org/2000/svg" xmlns:xlink="http://www.w3.org/1999/xlink">
<g id="bg">
<rect x="0" y="0" width="4000px" height="4000px" style="fill:rgb(255,255,255);"/>
</g>
<g id="ideograms">
<path d="M2000.000,358.000 A1642.000,1642.000 40.000 0,1 2751.610,540.121 L2769.004,506.336 A1680.000,1680.000 0.000 0,0 2000.000,320.000 Z" style="stroke-width:2.0;stroke:rgb(255,255,255);stroke-linecap:round;fill:rgb(185,185,185);" />
<text x="2427.0" y="305.8" font-size="36.4px" font-family="CMUBright-Roman" style="text-anchor:start;fill:rgb(0,0,0);" transform="rotate(283.6,2427.0,305.8)" >Management-Operations</text>
<path d="M2000.000,358.000 A1642.000,1642.000 40.000 0,1 2751.610,540.121 L2769.004,506.336 A1680.000,1680.000 0.000 0,0 2000.000,320.000 Z" style="stroke-width:2.0;stroke:rgb(255,255,255);stroke-linecap:round;fill:none;" />
<path d="M2783.279,556.865 A1642.000,1642.000 40.000 0,1 3226.411,908.176 L3254.793,882.908 A1680.000,1680.000 0.000 0,0 2801.406,523.467 Z" style="stroke-width:2.0;stroke:rgb(255,255,255);stroke-linecap:round;fill:rgb(185,185,185);" />
<text x="3097.5" y="640.5" font-size="36.4px" font-family="CMUBright-Roman" style="text-anchor:start;fill:rgb(0,0,0);" transform="rotate(308.4,3097.5,640.5)" >Engineering</text>
<path d="M2783.279,556.865 A1642.000,1642.000 40.000 0,1 3226.411,908.176 L3254.793,882.908 A1680.000,1680.000 0.000 0,0 2801.406,523.467 Z" style="stroke-width:2.0;stroke:rgb(255,255,255);stroke-linecap:round;fill:none;" />
<path d="M3249.937,935.189 A1642.000,1642.000 40.000 0,1 3507.538,1349.236 L3542.426,1334.176 A1680.000,1680.000 0.000 0,0 3278.864,910.547 Z" style="stroke-width:2.0;stroke:rgb(255,255,255);stroke-linecap:round;fill:rgb(185,185,185);" />
<text x="3491.6" y="1090.2" font-size="36.4px" font-family="CMUBright-Roman" style="text-anchor:start;fill:rgb(0,0,0);" transform="rotate(328.1,3491.6,1090.2)" >Leadership-General</text>
<path d="M3249.937,935.189 A1642.000,1642.000 40.000 0,1 3507.538,1349.236 L3542.426,1334.176 A1680.000,1680.000 0.000 0,0 3278.864,910.547 Z" style="stroke-width:2.0;stroke:rgb(255,255,255);stroke-linecap:round;fill:none;" />
<path d="M3521.375,1382.278 A1642.000,1642.000 40.000 0,1 3633.192,1830.154 L3670.988,1826.223 A1680.000,1680.000 0.000 0,0 3556.584,1367.982 Z" style="stroke-width:2.0;stroke:rgb(255,255,255);stroke-linecap:round;fill:rgb(185,185,185);" />
<text x="3699.0" y="1592.3" font-size="36.4px" font-family="CMUBright-Roman" style="text-anchor:start;fill:rgb(0,0,0);" transform="rotate(346.0,3699.0,1592.3)" >Sales-Marketing</text>
<path d="M3521.375,1382.278 A1642.000,1642.000 40.000 0,1 3633.192,1830.154 L3670.988,1826.223 A1680.000,1680.000 0.000 0,0 3556.584,1367.982 Z" style="stroke-width:2.0;stroke:rgb(255,255,255);stroke-linecap:round;fill:none;" />
<path d="M3636.509,1865.822 A1642.000,1642.000 40.000 0,1 3610.774,2318.704 L3648.051,2326.079 A1680.000,1680.000 0.000 0,0 3674.381,1862.717 Z" style="stroke-width:2.0;stroke:rgb(255,255,255);stroke-linecap:round;fill:rgb(185,185,185);" />
<text x="3743.6" y="2111.6" font-size="36.4px" font-family="CMUBright-Roman" style="text-anchor:start;fill:rgb(0,0,0);" transform="rotate(3.3,3743.6,2111.6)" >Finance-Investment</text>
<path d="M3636.509,1865.822 A1642.000,1642.000 40.000 0,1 3610.774,2318.704 L3648.051,2326.079 A1680.000,1680.000 0.000 0,0 3674.381,1862.717 Z" style="stroke-width:2.0;stroke:rgb(255,255,255);stroke-linecap:round;fill:none;" />
<path d="M3603.438,2353.767 A1642.000,1642.000 40.000 0,1 3499.856,2668.278 L3534.566,2683.744 A1680.000,1680.000 0.000 0,0 3640.546,2361.954 Z" style="stroke-width:2.0;stroke:rgb(255,255,255);stroke-linecap:round;fill:rgb(185,185,185);" />
<text x="3655.6" y="2558.4" font-size="36.4px" font-family="CMUBright-Roman" style="text-anchor:start;fill:rgb(0,0,0);" transform="rotate(18.2,3655.6,2558.4)" >Software-Data</text>
<path d="M3603.438,2353.767 A1642.000,1642.000 40.000 0,1 3499.856,2668.278 L3534.566,2683.744 A1680.000,1680.000 0.000 0,0 3640.546,2361.954 Z" style="stroke-width:2.0;stroke:rgb(255,255,255);stroke-linecap:round;fill:none;" />
<path d="M3484.921,2700.839 A1642.000,1642.000 40.000 0,1 3330.895,2961.708 L3361.695,2983.964 A1680.000,1680.000 0.000 0,0 3519.285,2717.058 Z" style="stroke-width:2.0;stroke:rgb(255,255,255);stroke-linecap:round;fill:rgb(185,185,185);" />
<text x="3498.1" y="2899.1" font-size="36.4px" font-family="CMUBright-Roman" style="text-anchor:start;fill:rgb(0,0,0);" transform="rotate(30.6,3498.1,2899.1)" >Education</text>
<path d="M3484.921,2700.839 A1642.000,1642.000 40.000 0,1 3330.895,2961.708 L3361.695,2983.964 A1680.000,1680.000 0.000 0,0 3519.285,2717.058 Z" style="stroke-width:2.0;stroke:rgb(255,255,255);stroke-linecap:round;fill:none;" />
<path d="M3309.599,2990.512 A1642.000,1642.000 40.000 0,1 3129.055,3192.225 L3155.184,3219.816 A1680.000,1680.000 0.000 0,0 3339.906,3013.435 Z" style="stroke-width:2.0;stroke:rgb(255,255,255);stroke-linecap:round;fill:rgb(185,185,185);" />
<text x="3293.5" y="3174.5" font-size="36.4px" font-family="CMUBright-Roman" style="text-anchor:start;fill:rgb(0,0,0);" transform="rotate(41.8,3293.5,3174.5)" >Research-Science</text>
<path d="M3309.599,2990.512 A1642.000,1642.000 40.000 0,1 3129.055,3192.225 L3155.184,3219.816 A1680.000,1680.000 0.000 0,0 3339.906,3013.435 Z" style="stroke-width:2.0;stroke:rgb(255,255,255);stroke-linecap:round;fill:none;" />
<path d="M3102.778,3216.571 A1642.000,1642.000 40.000 0,1 2891.302,3379.038 L2911.929,3410.952 A1680.000,1680.000 0.000 0,0 3128.299,3244.726 Z" style="stroke-width:2.0;stroke:rgb(255,255,255);stroke-linecap:round;fill:rgb(185,185,185);" />
<text x="3054.5" y="3393.1" font-size="36.4px" font-family="CMUBright-Roman" style="text-anchor:start;fill:rgb(0,0,0);" transform="rotate(52.5,3054.5,3393.1)" >Clinical-Care</text>
<path d="M3102.778,3216.571 A1642.000,1642.000 40.000 0,1 2891.302,3379.038 L2911.929,3410.952 A1680.000,1680.000 0.000 0,0 3128.299,3244.726 Z" style="stroke-width:2.0;stroke:rgb(255,255,255);stroke-linecap:round;fill:none;" />
<path d="M2861.006,3398.153 A1642.000,1642.000 40.000 0,1 2640.127,3512.085 L2654.941,3547.079 A1680.000,1680.000 0.000 0,0 2880.932,3430.510 Z" style="stroke-width:2.0;stroke:rgb(255,255,255);stroke-linecap:round;fill:rgb(185,185,185);" />
<text x="2786.7" y="3560.1" font-size="36.4px" font-family="CMUBright-Roman" style="text-anchor:start;fill:rgb(0,0,0);" transform="rotate(62.7,2786.7,3560.1)" >Accounting-Audit</text>
<path d="M2861.006,3398.153 A1642.000,1642.000 40.000 0,1 2640.127,3512.085 L2654.941,3547.079 A1680.000,1680.000 0.000 0,0 2880.932,3430.510 Z" style="stroke-width:2.0;stroke:rgb(255,255,255);stroke-linecap:round;fill:none;" />
<path d="M2606.988,3525.690 A1642.000,1642.000 40.000 0,1 2452.002,3578.562 L2462.463,3615.094 A1680.000,1680.000 0.000 0,0 2621.036,3560.998 Z" style="stroke-width:2.0;stroke:rgb(255,255,255);stroke-linecap:round;fill:rgb(185,185,185);" />
<text x="2552.3" y="3657.6" font-size="36.4px" font-family="CMUBright-Roman" style="text-anchor:start;fill:rgb(0,0,0);" transform="rotate(71.2,2552.3,3657.6)" >Social-Service</text>
<path d="M2606.988,3525.690 A1642.000,1642.000 40.000 0,1 2452.002,3578.562 L2462.463,3615.094 A1680.000,1680.000 0.000 0,0 2621.036,3560.998 Z" style="stroke-width:2.0;stroke:rgb(255,255,255);stroke-linecap:round;fill:none;" />
<path d="M2417.459,3588.047 A1642.000,1642.000 40.000 0,1 2320.910,3610.336 L2328.336,3647.603 A1680.000,1680.000 0.000 0,0 2427.120,3624.798 Z" style="stroke-width:2.0;stroke:rgb(255,255,255);stroke-linecap:round;fill:rgb(185,185,185);" />
<text x="2380.8" y="3705.2" font-size="36.4px" font-family="CMUBright-Roman" style="text-anchor:start;fill:rgb(0,0,0);" transform="rotate(77.0,2380.8,3705.2)" >IT-Infrastructure</text>
<path d="M2417.459,3588.047 A1642.000,1642.000 40.000 0,1 2320.910,3610.336 L2328.336,3647.603 A1680.000,1680.000 0.000 0,0 2427.120,3624.798 Z" style="stroke-width:2.0;stroke:rgb(255,255,255);stroke-linecap:round;fill:none;" />
<path d="M2285.704,3616.953 A1642.000,1642.000 40.000 0,1 2189.660,3631.010 L2194.050,3668.755 A1680.000,1680.000 0.000 0,0 2292.316,3654.373 Z" style="stroke-width:2.0;stroke:rgb(255,255,255);stroke-linecap:round;fill:rgb(185,185,185);" />
<text x="2237.2" y="3731.0" font-size="36.4px" font-family="CMUBright-Roman" style="text-anchor:start;fill:rgb(0,0,0);" transform="rotate(81.7,2237.2,3731.0)" >Legal-Policy</text>
<path d="M2285.704,3616.953 A1642.000,1642.000 40.000 0,1 2189.660,3631.010 L2194.050,3668.755 A1680.000,1680.000 0.000 0,0 2292.316,3654.373 Z" style="stroke-width:2.0;stroke:rgb(255,255,255);stroke-linecap:round;fill:none;" />
<path d="M2154.035,3634.759 A1642.000,1642.000 40.000 0,1 1474.020,3555.477 L1461.848,3591.475 A1680.000,1680.000 0.000 0,0 2157.600,3672.592 Z" style="stroke-width:2.0;stroke:rgb(255,255,255);stroke-linecap:round;fill:rgb(15,52,135);" />
<text x="1813.6" y="3737.2" font-size="36.4px" font-family="CMUBright-Roman" style="text-anchor:end;fill:rgb(0,0,0);" transform="rotate(-83.3,1813.6,3737.2)" >Finance-Accounting</text>
<path d="M2154.035,3634.759 A1642.000,1642.000 40.000 0,1 1474.020,3555.477 L1461.848,3591.475 A1680.000,1680.000 0.000 0,0 2157.600,3672.592 Z" style="stroke-width:2.0;stroke:rgb(255,255,255);stroke-linecap:round;fill:none;" />
<path d="M1440.213,3543.633 A1642.000,1642.000 40.000 0,1 888.845,3208.925 L863.130,3236.902 A1680.000,1680.000 0.000 0,0 1427.258,3579.356 Z" style="stroke-width:2.0;stroke:rgb(255,255,255);stroke-linecap:round;fill:rgb(42,98,180);" />
<text x="1104.1" y="3500.0" font-size="36.4px" font-family="CMUBright-Roman" style="text-anchor:end;fill:rgb(0,0,0);" transform="rotate(-58.7,1104.1,3500.0)" >General-Business</text>
<path d="M1440.213,3543.633 A1642.000,1642.000 40.000 0,1 888.845,3208.925 L863.130,3236.902 A1680.000,1680.000 0.000 0,0 1427.258,3579.356 Z" style="stroke-width:2.0;stroke:rgb(255,255,255);stroke-linecap:round;fill:none;" />
<path d="M862.737,3184.397 A1642.000,1642.000 40.000 0,1 624.574,2896.866 L592.744,2917.622 A1680.000,1680.000 0.000 0,0 836.418,3211.807 Z" style="stroke-width:2.0;stroke:rgb(255,255,255);stroke-linecap:round;fill:rgb(28,75,160);" />
<text x="664.7" y="3126.8" font-size="36.4px" font-family="CMUBright-Roman" style="text-anchor:end;fill:rgb(0,0,0);" transform="rotate(-39.6,664.7,3126.8)" >Marketing-Communication</text>
<path d="M862.737,3184.397 A1642.000,1642.000 40.000 0,1 624.574,2896.866 L592.744,2917.622 A1680.000,1680.000 0.000 0,0 836.418,3211.807 Z" style="stroke-width:2.0;stroke:rgb(255,255,255);stroke-linecap:round;fill:none;" />
<path d="M605.337,2866.648 A1642.000,1642.000 40.000 0,1 476.558,2612.607 L441.301,2626.784 A1680.000,1680.000 0.000 0,0 573.061,2886.704 Z" style="stroke-width:2.0;stroke:rgb(255,255,255);stroke-linecap:round;fill:rgb(60,120,198);" />
<text x="448.7" y="2803.8" font-size="36.4px" font-family="CMUBright-Roman" style="text-anchor:end;fill:rgb(0,0,0);" transform="rotate(-26.9,448.7,2803.8)" >Operations-Analytics</text>
<path d="M605.337,2866.648 A1642.000,1642.000 40.000 0,1 476.558,2612.607 L441.301,2626.784 A1680.000,1680.000 0.000 0,0 573.061,2886.704 Z" style="stroke-width:2.0;stroke:rgb(255,255,255);stroke-linecap:round;fill:none;" />
<path d="M463.556,2579.227 A1642.000,1642.000 40.000 0,1 407.419,2399.813 L370.563,2409.066 A1680.000,1680.000 0.000 0,0 427.999,2592.632 Z" style="stroke-width:2.0;stroke:rgb(255,255,255);stroke-linecap:round;fill:rgb(82,145,215);" />
<text x="337.2" y="2536.5" font-size="36.4px" font-family="CMUBright-Roman" style="text-anchor:end;fill:rgb(0,0,0);" transform="rotate(-17.4,337.2,2536.5)" >Specialized-Business</text>
<path d="M463.556,2579.227 A1642.000,1642.000 40.000 0,1 407.419,2399.813 L370.563,2409.066 A1680.000,1680.000 0.000 0,0 427.999,2592.632 Z" style="stroke-width:2.0;stroke:rgb(255,255,255);stroke-linecap:round;fill:none;" />
<path d="M399.076,2364.976 A1642.000,1642.000 40.000 0,1 366.776,2169.540 L328.979,2173.464 A1680.000,1680.000 0.000 0,0 362.027,2373.422 Z" style="stroke-width:2.0;stroke:rgb(255,255,255);stroke-linecap:round;fill:rgb(200,108,30);" />
<text x="278.3" y="2297.2" font-size="36.4px" font-family="CMUBright-Roman" style="text-anchor:end;fill:rgb(0,0,0);" transform="rotate(-9.4,278.3,2297.2)" >Social-Sciences</text>
<path d="M399.076,2364.976 A1642.000,1642.000 40.000 0,1 366.776,2169.540 L328.979,2173.464 A1680.000,1680.000 0.000 0,0 362.027,2373.422 Z" style="stroke-width:2.0;stroke:rgb(255,255,255);stroke-linecap:round;fill:none;" />
<path d="M363.466,2133.872 A1642.000,1642.000 40.000 0,1 358.290,2030.870 L320.297,2031.584 A1680.000,1680.000 0.000 0,0 325.593,2136.970 Z" style="stroke-width:2.0;stroke:rgb(255,255,255);stroke-linecap:round;fill:rgb(108,170,228);" />
<text x="255.6" y="2099.7" font-size="36.4px" font-family="CMUBright-Roman" style="text-anchor:end;fill:rgb(0,0,0);" transform="rotate(-2.9,255.6,2099.7)" >Economics</text>
<path d="M363.466,2133.872 A1642.000,1642.000 40.000 0,1 358.290,2030.870 L320.297,2031.584 A1680.000,1680.000 0.000 0,0 325.593,2136.970 Z" style="stroke-width:2.0;stroke:rgb(255,255,255);stroke-linecap:round;fill:none;" />
<path d="M358.007,1995.049 A1642.000,1642.000 40.000 0,1 358.807,1948.539 L320.825,1947.348 A1680.000,1680.000 0.000 0,0 320.008,1994.934 Z" style="stroke-width:2.0;stroke:rgb(255,255,255);stroke-linecap:round;fill:rgb(220,140,52);" />
<text x="252.9" y="1982.5" font-size="36.4px" font-family="CMUBright-Roman" style="text-anchor:end;fill:rgb(0,0,0);" transform="rotate(1.0,252.9,1982.5)" >Humanities-Liberal-Arts</text>
<path d="M358.007,1995.049 A1642.000,1642.000 40.000 0,1 358.807,1948.539 L320.825,1947.348 A1680.000,1680.000 0.000 0,0 320.008,1994.934 Z" style="stroke-width:2.0;stroke:rgb(255,255,255);stroke-linecap:round;fill:none;" />
<path d="M360.320,1912.749 A1642.000,1642.000 40.000 0,1 361.133,1898.615 L323.205,1896.269 A1680.000,1680.000 0.000 0,0 322.373,1910.730 Z" style="stroke-width:2.0;stroke:rgb(255,255,255);stroke-linecap:round;fill:rgb(235,168,78);" />
<text x="255.0" y="1912.1" font-size="36.4px" font-family="CMUBright-Roman" style="text-anchor:end;fill:rgb(0,0,0);" transform="rotate(3.3,255.0,1912.1)" >International-Studies</text>
<path d="M360.320,1912.749 A1642.000,1642.000 40.000 0,1 361.133,1898.615 L323.205,1896.269 A1680.000,1680.000 0.000 0,0 322.373,1910.730 Z" style="stroke-width:2.0;stroke:rgb(255,255,255);stroke-linecap:round;fill:none;" />
<path d="M363.735,1862.887 A1642.000,1642.000 40.000 0,1 391.336,1670.812 L354.108,1663.193 A1680.000,1680.000 0.000 0,0 325.867,1859.714 Z" style="stroke-width:2.0;stroke:rgb(255,255,255);stroke-linecap:round;fill:rgb(195,58,55);" />
<text x="268.8" y="1763.9" font-size="36.4px" font-family="CMUBright-Roman" style="text-anchor:end;fill:rgb(0,0,0);" transform="rotate(8.2,268.8,1763.9)" >Social-Work</text>
<path d="M363.735,1862.887 A1642.000,1642.000 40.000 0,1 391.336,1670.812 L354.108,1663.193 A1680.000,1680.000 0.000 0,0 325.867,1859.714 Z" style="stroke-width:2.0;stroke:rgb(255,255,255);stroke-linecap:round;fill:none;" />
<path d="M398.900,1635.797 A1642.000,1642.000 40.000 0,1 428.981,1522.439 L392.624,1511.387 A1680.000,1680.000 0.000 0,0 361.847,1627.368 Z" style="stroke-width:2.0;stroke:rgb(255,255,255);stroke-linecap:round;fill:rgb(175,35,42);" />
<text x="308.1" y="1564.0" font-size="36.4px" font-family="CMUBright-Roman" style="text-anchor:end;fill:rgb(0,0,0);" transform="rotate(14.9,308.1,1564.0)" >Teacher-Education</text>
<path d="M398.900,1635.797 A1642.000,1642.000 40.000 0,1 428.981,1522.439 L392.624,1511.387 A1680.000,1680.000 0.000 0,0 361.847,1627.368 Z" style="stroke-width:2.0;stroke:rgb(255,255,255);stroke-linecap:round;fill:none;" />
<path d="M439.773,1488.281 A1642.000,1642.000 40.000 0,1 474.975,1391.343 L439.682,1377.257 A1680.000,1680.000 0.000 0,0 403.666,1476.439 Z" style="stroke-width:2.0;stroke:rgb(255,255,255);stroke-linecap:round;fill:rgb(215,82,72);" />
<text x="352.5" y="1418.2" font-size="36.4px" font-family="CMUBright-Roman" style="text-anchor:end;fill:rgb(0,0,0);" transform="rotate(20.0,352.5,1418.2)" >Special-Education</text>
<path d="M439.773,1488.281 A1642.000,1642.000 40.000 0,1 474.975,1391.343 L439.682,1377.257 A1680.000,1680.000 0.000 0,0 403.666,1476.439 Z" style="stroke-width:2.0;stroke:rgb(255,255,255);stroke-linecap:round;fill:none;" />
<path d="M488.616,1358.220 A1642.000,1642.000 40.000 0,1 509.092,1311.991 L474.588,1296.068 A1680.000,1680.000 0.000 0,0 453.639,1343.368 Z" style="stroke-width:2.0;stroke:rgb(255,255,255);stroke-linecap:round;fill:rgb(230,112,95);" />
<text x="396.3" y="1306.6" font-size="36.4px" font-family="CMUBright-Roman" style="text-anchor:end;fill:rgb(0,0,0);" transform="rotate(23.9,396.3,1306.6)" >Educational-Leadership</text>
<path d="M488.616,1358.220 A1642.000,1642.000 40.000 0,1 509.092,1311.991 L474.588,1296.068 A1680.000,1680.000 0.000 0,0 453.639,1343.368 Z" style="stroke-width:2.0;stroke:rgb(255,255,255);stroke-linecap:round;fill:none;" />
<path d="M524.455,1279.630 A1642.000,1642.000 40.000 0,1 553.988,1222.045 L520.524,1204.041 A1680.000,1680.000 0.000 0,0 490.308,1262.959 Z" style="stroke-width:2.0;stroke:rgb(255,255,255);stroke-linecap:round;fill:rgb(0,130,142);" />
<text x="439.7" y="1213.8" font-size="36.4px" font-family="CMUBright-Roman" style="text-anchor:end;fill:rgb(0,0,0);" transform="rotate(27.2,439.7,1213.8)" >Communication-Studies</text>
<path d="M524.455,1279.630 A1642.000,1642.000 40.000 0,1 553.988,1222.045 L520.524,1204.041 A1680.000,1680.000 0.000 0,0 490.308,1262.959 Z" style="stroke-width:2.0;stroke:rgb(255,255,255);stroke-linecap:round;fill:none;" />
<path d="M571.303,1190.686 A1642.000,1642.000 40.000 0,1 588.562,1160.949 L555.898,1141.531 A1680.000,1680.000 0.000 0,0 538.240,1171.956 Z" style="stroke-width:2.0;stroke:rgb(255,255,255);stroke-linecap:round;fill:rgb(0,165,172);" />
<text x="482.6" y="1133.8" font-size="36.4px" font-family="CMUBright-Roman" style="text-anchor:end;fill:rgb(0,0,0);" transform="rotate(30.1,482.6,1133.8)" >Journalism-Media</text>
<path d="M571.303,1190.686 A1642.000,1642.000 40.000 0,1 588.562,1160.949 L555.898,1141.531 A1680.000,1680.000 0.000 0,0 538.240,1171.956 Z" style="stroke-width:2.0;stroke:rgb(255,255,255);stroke-linecap:round;fill:none;" />
<path d="M607.202,1130.358 A1642.000,1642.000 40.000 0,1 613.667,1120.089 L581.583,1099.725 A1680.000,1680.000 0.000 0,0 574.969,1110.233 Z" style="stroke-width:2.0;stroke:rgb(255,255,255);stroke-linecap:round;fill:rgb(38,195,195);" />
<text x="512.9" y="1082.8" font-size="36.4px" font-family="CMUBright-Roman" style="text-anchor:end;fill:rgb(0,0,0);" transform="rotate(32.2,512.9,1082.8)" >Creative-Writing</text>
<path d="M607.202,1130.358 A1642.000,1642.000 40.000 0,1 613.667,1120.089 L581.583,1099.725 A1680.000,1680.000 0.000 0,0 574.969,1110.233 Z" style="stroke-width:2.0;stroke:rgb(255,255,255);stroke-linecap:round;fill:none;" />
<path d="M633.192,1090.055 A1642.000,1642.000 40.000 0,1 667.742,1040.182 L636.910,1017.969 A1680.000,1680.000 0.000 0,0 601.560,1068.997 Z" style="stroke-width:2.0;stroke:rgb(255,255,255);stroke-linecap:round;fill:rgb(180,45,112);" />
<text x="554.7" y="1018.2" font-size="36.4px" font-family="CMUBright-Roman" style="text-anchor:end;fill:rgb(0,0,0);" transform="rotate(34.7,554.7,1018.2)" >Arts-Theology</text>
<path d="M633.192,1090.055 A1642.000,1642.000 40.000 0,1 667.742,1040.182 L636.910,1017.969 A1680.000,1680.000 0.000 0,0 601.560,1068.997 Z" style="stroke-width:2.0;stroke:rgb(255,255,255);stroke-linecap:round;fill:none;" />
<path d="M688.997,1011.347 A1642.000,1642.000 40.000 0,1 698.803,998.477 L668.690,975.299 A1680.000,1680.000 0.000 0,0 658.657,988.467 Z" style="stroke-width:2.0;stroke:rgb(255,255,255);stroke-linecap:round;fill:rgb(205,75,142);" />
<text x="600.6" y="953.9" font-size="36.4px" font-family="CMUBright-Roman" style="text-anchor:end;fill:rgb(0,0,0);" transform="rotate(37.3,600.6,953.9)" >English-Writing</text>
<path d="M688.997,1011.347 A1642.000,1642.000 40.000 0,1 698.803,998.477 L668.690,975.299 A1680.000,1680.000 0.000 0,0 658.657,988.467 Z" style="stroke-width:2.0;stroke:rgb(255,255,255);stroke-linecap:round;fill:none;" />
<path d="M720.960,970.329 A1642.000,1642.000 40.000 0,1 724.774,965.610 L695.262,941.672 A1680.000,1680.000 0.000 0,0 691.360,946.500 Z" style="stroke-width:2.0;stroke:rgb(255,255,255);stroke-linecap:round;fill:rgb(225,110,168);" />
<text x="631.0" y="914.3" font-size="36.4px" font-family="CMUBright-Roman" style="text-anchor:end;fill:rgb(0,0,0);" transform="rotate(38.9,631.0,914.3)" >Languages</text>
<path d="M720.960,970.329 A1642.000,1642.000 40.000 0,1 724.774,965.610 L695.262,941.672 A1680.000,1680.000 0.000 0,0 691.360,946.500 Z" style="stroke-width:2.0;stroke:rgb(255,255,255);stroke-linecap:round;fill:none;" />
<path d="M747.643,938.037 A1642.000,1642.000 40.000 0,1 884.635,794.959 L858.822,767.071 A1680.000,1680.000 0.000 0,0 718.660,913.461 Z" style="stroke-width:2.0;stroke:rgb(255,255,255);stroke-linecap:round;fill:rgb(88,40,138);" />
<text x="727.0" y="803.3" font-size="36.4px" font-family="CMUBright-Roman" style="text-anchor:end;fill:rgb(0,0,0);" transform="rotate(43.8,727.0,803.3)" >Biological-Sciences</text>
<path d="M747.643,938.037 A1642.000,1642.000 40.000 0,1 884.635,794.959 L858.822,767.071 A1680.000,1680.000 0.000 0,0 718.660,913.461 Z" style="stroke-width:2.0;stroke:rgb(255,255,255);stroke-linecap:round;fill:none;" />
<path d="M911.188,770.914 A1642.000,1642.000 40.000 0,1 969.888,721.316 L946.049,691.724 A1680.000,1680.000 0.000 0,0 885.990,742.470 Z" style="stroke-width:2.0;stroke:rgb(255,255,255);stroke-linecap:round;fill:rgb(115,65,165);" />
<text x="862.8" y="673.5" font-size="36.4px" font-family="CMUBright-Roman" style="text-anchor:end;fill:rgb(0,0,0);" transform="rotate(49.8,862.8,673.5)" >Health-Wellness</text>
<path d="M911.188,770.914 A1642.000,1642.000 40.000 0,1 969.888,721.316 L946.049,691.724 A1680.000,1680.000 0.000 0,0 885.990,742.470 Z" style="stroke-width:2.0;stroke:rgb(255,255,255);stroke-linecap:round;fill:none;" />
<path d="M998.028,699.148 A1642.000,1642.000 40.000 0,1 1023.858,679.655 L1001.267,649.099 A1680.000,1680.000 0.000 0,0 974.840,669.043 Z" style="stroke-width:2.0;stroke:rgb(255,255,255);stroke-linecap:round;fill:rgb(140,92,188);" />
<text x="935.2" y="614.8" font-size="36.4px" font-family="CMUBright-Roman" style="text-anchor:end;fill:rgb(0,0,0);" transform="rotate(53.0,935.2,614.8)" >Physical-Sciences</text>
<path d="M998.028,699.148 A1642.000,1642.000 40.000 0,1 1023.858,679.655 L1001.267,649.099 A1680.000,1680.000 0.000 0,0 974.840,669.043 Z" style="stroke-width:2.0;stroke:rgb(255,255,255);stroke-linecap:round;fill:none;" />
<path d="M1052.893,658.675 A1642.000,1642.000 40.000 0,1 1064.493,650.559 L1042.843,619.329 A1680.000,1680.000 0.000 0,0 1030.975,627.633 Z" style="stroke-width:2.0;stroke:rgb(255,255,255);stroke-linecap:round;fill:rgb(165,120,208);" />
<text x="988.2" y="575.6" font-size="36.4px" font-family="CMUBright-Roman" style="text-anchor:end;fill:rgb(0,0,0);" transform="rotate(55.0,988.2,575.6)" >Environmental-Sciences</text>
<path d="M1052.893,658.675 A1642.000,1642.000 40.000 0,1 1064.493,650.559 L1042.843,619.329 A1680.000,1680.000 0.000 0,0 1030.975,627.633 Z" style="stroke-width:2.0;stroke:rgb(255,255,255);stroke-linecap:round;fill:none;" />
<path d="M1094.154,630.472 A1642.000,1642.000 40.000 0,1 1594.822,408.776 L1585.445,371.951 A1680.000,1680.000 0.000 0,0 1073.190,598.778 Z" style="stroke-width:2.0;stroke:rgb(255,255,255);stroke-linecap:round;fill:rgb(22,118,50);" />
<text x="1278.0" y="409.0" font-size="36.4px" font-family="CMUBright-Roman" style="text-anchor:end;fill:rgb(0,0,0);" transform="rotate(66.1,1278.0,409.0)" >Engineering-Disciplines</text>
<path d="M1094.154,630.472 A1642.000,1642.000 40.000 0,1 1594.822,408.776 L1585.445,371.951 A1680.000,1680.000 0.000 0,0 1073.190,598.778 Z" style="stroke-width:2.0;stroke:rgb(255,255,255);stroke-linecap:round;fill:none;" />
<path d="M1629.631,400.315 A1642.000,1642.000 40.000 0,1 1964.180,358.391 L1963.351,320.400 A1680.000,1680.000 0.000 0,0 1621.060,363.295 Z" style="stroke-width:2.0;stroke:rgb(255,255,255);stroke-linecap:round;fill:rgb(48,158,75);" />
<text x="1767.4" y="268.4" font-size="36.4px" font-family="CMUBright-Roman" style="text-anchor:end;fill:rgb(0,0,0);" transform="rotate(82.9,1767.4,268.4)" >Computer-Science-IT</text>
<path d="M1629.631,400.315 A1642.000,1642.000 40.000 0,1 1964.180,358.391 L1963.351,320.400 A1680.000,1680.000 0.000 0,0 1621.060,363.295 Z" style="stroke-width:2.0;stroke:rgb(255,255,255);stroke-linecap:round;fill:none;" />
</g>
<g id="track_0">
<path d="M 3587.404,2350.229 A 1625.580,1625.580 0.00 0,1 3529.0,2552.0 L 3529.0,2552.0 3468.6,2528.8 3407.7,2502.7 3346.4,2473.9 3284.8,2442.3 3223.0,2408.1 3161.1,2371.4 3099.1,2332.3 3037.2,2290.9 2975.4,2247.3 2913.9,2201.6 2852.7,2153.9 2791.9,2104.4 2731.6,2053.0 2671.9,1999.9 2612.9,1945.2 2554.6,1889.1 2497.2,1831.5 2440.8,1772.6 2385.4,1712.6 2331.1,1651.5 2278.1,1589.3 2226.3,1526.3 2176.0,1462.5 2127.1,1398.0 2079.8,1332.9 2034.2,1267.3 1990.4,1201.3 1948.4,1135.1 1908.3,1068.6 1870.2,1002.1 1834.3,935.6 1800.5,869.2 1769.0,803.1 1740.0,737.2 1713.4,671.8 1689.3,606.9 1667.9,542.6 1649.2,479.0 1633.3,416.3  A 1625.580,1625.580 0.00 0,1 1840.6,382.2 L 1840.6,382.2 1848.1,444.1 1858.3,507.0 1871.3,570.6 1887.0,634.9 1905.3,699.7 1926.3,764.9 1949.8,830.4 1975.8,895.9 2004.2,961.4 2035.0,1026.7 2068.2,1091.8 2103.5,1156.4 2141.1,1220.5 2180.7,1283.9 2222.4,1346.6 2266.1,1408.3 2311.6,1469.0 2358.9,1528.6 2407.9,1587.0 2458.5,1644.0 2510.6,1699.6 2564.2,1753.6 2619.1,1806.0 2675.2,1856.7 2732.5,1905.5 2790.7,1952.4 2849.9,1997.3 2909.9,2040.1 2970.5,2080.7 3031.8,2119.1 3093.4,2155.1 3155.4,2188.7 3217.6,2219.8 3279.8,2248.3 3342.0,2274.2 3404.0,2297.4 3465.7,2317.9 3526.8,2335.5 3587.4,2350.2  Z" style="stroke-width: 0.0;  fill: rgb(48,158,75);" />
<path d="M 3528.976,2552.036 A 1625.580,1625.580 0.00 0,1 3518.5,2580.2 L 3518.5,2580.2 3455.1,2554.7 3390.9,2526.6 3326.1,2496.1 3260.6,2463.2 3194.5,2428.1 3127.9,2390.9 3060.7,2351.8 2993.1,2310.9 2925.1,2268.3 2856.8,2224.1 2788.2,2178.4 2719.4,2131.4 2650.4,2083.1 2581.4,2033.7 2512.3,1983.3 2443.4,1931.9 2374.6,1879.6 2306.0,1826.6 2237.8,1772.8 2170.0,1718.5 2102.7,1663.6 2036.0,1608.2 1970.0,1552.4 1904.8,1496.3 1840.5,1439.9 1777.3,1383.3 1715.2,1326.5 1654.3,1269.5 1594.8,1212.5 1536.8,1155.4 1480.4,1098.3 1425.8,1041.3 1373.0,984.3 1322.2,927.3 1273.6,870.4 1227.2,813.7 1183.2,757.1 1141.9,700.5 1103.2,644.2  A 1625.580,1625.580 0.00 0,1 1128.4,627.8 L 1128.4,627.8 1165.8,684.6 1206.0,741.5 1248.8,798.6 1294.0,855.7 1341.6,913.0 1391.4,970.4 1443.2,1027.8 1496.9,1085.2 1552.4,1142.6 1609.5,1200.0 1668.3,1257.3 1728.4,1314.5 1789.8,1371.5 1852.5,1428.3 1916.2,1484.7 1980.9,1540.9 2046.4,1596.6 2112.7,1651.9 2179.7,1706.6 2247.2,1760.8 2315.2,1814.2 2383.6,1866.9 2452.3,1918.8 2521.1,1969.7 2590.1,2019.6 2659.2,2068.3 2728.2,2115.9 2797.1,2162.1 2865.8,2207.0 2934.2,2250.3 3002.4,2292.0 3070.1,2331.9 3137.4,2370.0 3204.2,2406.0 3270.5,2440.0 3336.1,2471.7 3401.1,2501.0 3465.4,2527.9 3529.0,2552.0  Z" style="stroke-width: 0.0;  fill: rgb(22,118,50);" />
<path d="M 3518.516,2580.189 A 1625.580,1625.580 0.00 0,1 3517.8,2582.1 L 3517.8,2582.1 3451.7,2555.7 3384.7,2527.0 3316.8,2496.3 3248.2,2463.7 3178.8,2429.4 3108.6,2393.6 3037.6,2356.3 2966.0,2317.7 2893.6,2278.0 2820.7,2237.3 2747.1,2195.7 2673.0,2153.4 2598.4,2110.4 2523.4,2066.8 2448.0,2022.8 2372.2,1978.5 2296.3,1933.8 2220.2,1888.9 2144.0,1843.8 2067.8,1798.7 1991.6,1753.5 1915.7,1708.3 1840.0,1663.2 1764.7,1618.1 1689.9,1573.1 1615.6,1528.3 1542.1,1483.5 1469.3,1438.9 1397.5,1394.3 1326.8,1349.9 1257.2,1305.5 1188.9,1261.2 1122.1,1216.9 1056.9,1172.6 993.5,1128.2 931.9,1083.7 872.4,1039.0 815.1,994.0 760.2,948.7  A 1625.580,1625.580 0.00 0,1 761.5,947.1 L 761.5,947.1 816.3,992.5 873.6,1037.5 933.0,1082.3 994.5,1126.9 1057.9,1171.3 1123.0,1215.7 1189.8,1260.0 1258.0,1304.4 1327.5,1348.8 1398.2,1393.3 1470.0,1437.8 1542.7,1482.5 1616.3,1527.3 1690.5,1572.2 1765.3,1617.2 1840.6,1662.3 1916.2,1707.5 1992.2,1752.6 2068.3,1797.8 2144.5,1843.0 2220.7,1888.0 2296.8,1932.9 2372.8,1977.5 2448.5,2021.9 2523.9,2065.9 2598.9,2109.4 2673.6,2152.3 2747.7,2194.6 2821.3,2236.2 2894.2,2276.8 2966.6,2316.4 3038.3,2354.9 3109.2,2392.2 3179.4,2428.0 3248.9,2462.2 3317.5,2494.7 3385.4,2525.3 3452.4,2553.9 3518.5,2580.2  Z" style="stroke-width: 0.0;  fill: rgb(88,40,138);" />
<path d="M 3517.800,2582.059 A 1625.580,1625.580 0.00 0,1 3517.1,2583.9 L 3517.1,2583.9 3450.4,2557.3 3382.9,2528.5 3314.5,2497.7 3245.3,2465.2 3175.3,2431.0 3104.4,2395.4 3032.8,2358.5 2960.5,2320.5 2887.4,2281.4 2813.7,2241.5 2739.3,2200.8 2664.4,2159.5 2588.9,2117.7 2512.9,2075.5 2436.5,2032.9 2359.7,1990.2 2282.6,1947.2 2205.3,1904.2 2127.8,1861.1 2050.3,1818.1 1972.8,1775.1 1895.4,1732.2 1818.1,1689.5 1741.2,1647.0 1664.7,1604.6 1588.7,1562.5 1513.2,1520.5 1438.6,1478.7 1364.7,1437.1 1291.8,1395.7 1220.1,1354.3 1149.5,1313.0 1080.3,1271.8 1012.7,1230.5 946.6,1189.1 882.4,1147.6 820.1,1105.8 760.0,1063.7 702.1,1021.2  A 1625.580,1625.580 0.00 0,1 703.3,1019.6 L 703.3,1019.6 761.1,1062.2 821.2,1104.3 883.4,1146.2 947.6,1187.7 1013.5,1229.2 1081.2,1270.5 1150.3,1311.8 1220.8,1353.1 1292.5,1394.5 1365.4,1436.0 1439.2,1477.7 1513.8,1519.5 1589.2,1561.5 1665.2,1603.7 1741.8,1646.1 1818.7,1688.6 1895.9,1731.3 1973.3,1774.2 2050.8,1817.2 2128.3,1860.2 2205.8,1903.3 2283.1,1946.3 2360.2,1989.2 2437.0,2032.0 2513.4,2074.5 2589.4,2116.7 2664.9,2158.5 2739.9,2199.7 2814.3,2240.4 2888.0,2280.2 2961.1,2319.2 3033.5,2357.2 3105.1,2394.0 3175.9,2429.6 3246.0,2463.7 3315.2,2496.1 3383.6,2526.8 3451.1,2555.5 3517.8,2582.1  Z" style="stroke-width: 0.0;  fill: rgb(205,75,142);" />
<path d="M 3517.082,2583.928 A 1625.580,1625.580 0.00 0,1 3516.4,2585.8 L 3516.4,2585.8 3449.1,2558.9 3381.0,2529.9 3312.1,2499.1 3242.3,2466.6 3171.7,2432.7 3100.3,2397.4 3028.0,2360.9 2955.0,2323.4 2881.3,2285.1 2806.8,2246.0 2731.7,2206.3 2655.9,2166.1 2579.5,2125.6 2502.7,2084.8 2425.3,2043.8 2347.5,2002.7 2269.4,1961.6 2191.0,1920.5 2112.4,1879.5 2033.6,1838.7 1954.8,1798.1 1876.0,1757.8 1797.4,1717.6 1718.9,1677.8 1640.8,1638.3 1563.1,1599.0 1486.0,1560.0 1409.5,1521.3 1333.7,1482.8 1258.8,1444.5 1185.0,1406.4 1112.2,1368.4 1040.8,1330.4 970.7,1292.4 902.3,1254.3 835.5,1216.0 770.5,1177.5 707.6,1138.6 646.9,1099.2  A 1625.580,1625.580 0.00 0,1 648.0,1097.5 L 648.0,1097.5 708.7,1137.0 771.5,1175.9 836.4,1214.5 903.1,1252.9 971.6,1291.0 1041.6,1329.1 1113.0,1367.1 1185.7,1405.2 1259.5,1443.3 1334.3,1481.7 1410.0,1520.2 1486.5,1559.0 1563.7,1598.0 1641.3,1637.3 1719.4,1676.9 1797.9,1716.7 1876.5,1756.8 1955.3,1797.2 2034.1,1837.8 2112.8,1878.6 2191.5,1919.6 2269.9,1960.6 2348.0,2001.7 2425.8,2042.8 2503.2,2083.8 2580.1,2124.6 2656.4,2165.1 2732.2,2205.2 2807.4,2244.8 2881.8,2283.9 2955.6,2322.2 3028.6,2359.6 3100.9,2396.0 3172.4,2431.2 3243.0,2465.1 3312.8,2497.5 3381.7,2528.2 3449.8,2557.1 3517.1,2583.9  Z" style="stroke-width: 0.0;  fill: rgb(180,45,112);" />
<path d="M 3516.362,2585.797 A 1625.580,1625.580 0.00 0,1 3512.0,2597.0 L 3512.0,2597.0 3446.5,2572.2 3378.8,2548.8 3309.0,2526.4 3237.2,2505.1 3163.6,2484.7 3088.2,2465.1 3011.3,2446.4 2932.8,2428.3 2853.0,2410.9 2772.0,2394.0 2689.8,2377.7 2606.6,2361.8 2522.5,2346.4 2437.7,2331.4 2352.2,2316.7 2266.1,2302.4 2179.6,2288.4 2092.8,2274.8 2005.7,2261.5 1918.6,2248.6 1831.5,2236.1 1744.4,2223.9 1657.6,2212.2 1571.1,2200.9 1485.0,2190.1 1399.4,2179.9 1314.5,2170.2 1230.3,2161.3 1146.9,2153.1 1064.5,2145.7 983.0,2139.2 902.7,2133.7 823.6,2129.3 745.8,2126.2 669.5,2124.3 594.6,2123.9 521.3,2125.0 449.7,2127.9 379.8,2132.5  A 1625.580,1625.580 0.00 0,1 378.9,2120.6 L 378.9,2120.6 448.9,2116.4 520.7,2114.0 594.1,2113.4 669.2,2114.3 745.7,2116.6 823.5,2120.2 902.7,2124.9 983.1,2130.8 1064.7,2137.6 1147.2,2145.4 1230.6,2153.9 1314.9,2163.1 1399.9,2173.0 1485.5,2183.4 1571.7,2194.4 1658.3,2205.8 1745.1,2217.7 1832.2,2229.9 1919.5,2242.5 2006.7,2255.5 2093.8,2268.7 2180.7,2282.3 2267.3,2296.1 2353.5,2310.3 2439.1,2324.8 2524.1,2339.7 2608.3,2354.9 2691.6,2370.5 2773.9,2386.6 2855.2,2403.2 2935.1,2420.3 3013.8,2438.0 3091.0,2456.4 3166.5,2475.5 3240.4,2495.5 3312.5,2516.5 3382.6,2538.4 3450.6,2561.5 3516.4,2585.8  Z" style="stroke-width: 0.0;  fill: rgb(108,170,228);" />
<path d="M 3511.991,2596.987 A 1625.580,1625.580 0.00 0,1 3511.3,2598.8 L 3511.3,2598.8 3448.3,2575.2 3383.1,2553.2 3315.7,2532.6 3246.2,2513.6 3174.7,2495.9 3101.4,2479.6 3026.4,2464.6 2949.9,2450.9 2871.9,2438.4 2792.5,2427.1 2712.0,2417.0 2630.4,2407.9 2547.8,2400.0 2464.5,2393.1 2380.4,2387.3 2295.8,2382.6 2210.7,2378.8 2125.3,2376.1 2039.7,2374.4 1954.0,2373.7 1868.4,2373.9 1783.0,2375.2 1697.8,2377.6 1613.1,2380.9 1529.0,2385.3 1445.5,2390.8 1362.9,2397.3 1281.1,2405.0 1200.4,2413.8 1120.9,2423.7 1042.7,2434.9 965.9,2447.4 890.7,2461.1 817.2,2476.2 745.4,2492.6 675.6,2510.5 607.8,2529.9 542.2,2550.9 478.9,2573.4  A 1625.580,1625.580 0.00 0,1 478.2,2571.6 L 478.2,2571.6 541.6,2549.0 607.2,2528.2 675.0,2508.8 744.9,2491.0 816.7,2474.6 890.3,2459.6 965.5,2445.9 1042.4,2433.6 1120.6,2422.4 1200.1,2412.5 1280.9,2403.8 1362.6,2396.1 1445.3,2389.6 1528.8,2384.2 1613.0,2379.8 1697.8,2376.5 1782.9,2374.2 1868.4,2372.9 1954.0,2372.6 2039.7,2373.4 2125.4,2375.1 2210.8,2377.8 2295.9,2381.5 2380.6,2386.3 2464.7,2392.1 2548.1,2398.9 2630.6,2406.8 2712.3,2415.8 2792.8,2425.9 2872.2,2437.1 2950.2,2449.6 3026.8,2463.2 3101.9,2478.2 3175.2,2494.4 3246.7,2512.0 3316.3,2531.0 3383.7,2551.4 3449.0,2573.4 3512.0,2597.0  Z" style="stroke-width: 0.0;  fill: rgb(82,145,215);" />
<path d="M 3511.255,2598.849 A 1625.580,1625.580 0.00 0,1 3496.0,2635.9 L 3496.0,2635.9 3435.7,2611.6 3372.9,2589.1 3308.0,2568.4 3241.0,2549.3 3172.1,2532.0 3101.3,2516.3 3028.8,2502.3 2954.8,2490.0 2879.4,2479.3 2802.7,2470.2 2724.9,2462.7 2646.0,2456.8 2566.3,2452.5 2485.8,2449.8 2404.7,2448.6 2323.1,2448.9 2241.2,2450.7 2159.0,2454.1 2076.8,2458.9 1994.6,2465.3 1912.6,2473.1 1830.9,2482.4 1749.6,2493.2 1668.9,2505.4 1589.0,2519.0 1509.9,2534.1 1431.7,2550.6 1354.7,2568.5 1278.9,2587.9 1204.6,2608.6 1131.7,2630.7 1060.5,2654.3 991.0,2679.2 923.5,2705.6 858.0,2733.3 794.7,2762.4 733.7,2792.9 675.2,2824.7 619.3,2858.0  A 1625.580,1625.580 0.00 0,1 598.6,2823.7 L 598.6,2823.7 655.7,2791.6 715.4,2760.9 777.5,2731.6 841.9,2703.6 908.5,2677.0 977.1,2651.7 1047.6,2627.9 1119.8,2605.3 1193.7,2584.1 1269.0,2564.2 1345.8,2545.7 1423.7,2528.5 1502.8,2512.6 1582.8,2498.1 1663.6,2484.9 1745.1,2473.0 1827.3,2462.5 1909.8,2453.4 1992.6,2445.6 2075.7,2439.2 2158.7,2434.1 2241.7,2430.5 2324.4,2428.3 2406.8,2427.5 2488.7,2428.1 2570.0,2430.2 2650.6,2433.7 2730.2,2438.8 2808.9,2445.3 2886.4,2453.4 2962.7,2463.0 3037.5,2474.2 3110.8,2487.0 3182.5,2501.4 3252.3,2517.5 3320.3,2535.3 3386.2,2554.7 3449.9,2575.9 3511.3,2598.8  Z" style="stroke-width: 0.0;  fill: rgb(60,120,198);" />
<path d="M 3496.045,2635.893 A 1625.580,1625.580 0.00 0,1 3495.3,2637.7 L 3495.3,2637.7 3437.0,2614.4 3376.6,2592.9 3314.1,2573.5 3249.7,2556.1 3183.4,2540.7 3115.6,2527.3 3046.3,2516.0 2975.6,2506.8 2903.8,2499.7 2830.8,2494.6 2757.0,2491.7 2682.4,2490.8 2607.2,2492.0 2531.4,2495.3 2455.3,2500.7 2379.0,2508.1 2302.6,2517.6 2226.3,2529.0 2150.2,2542.5 2074.4,2558.0 1999.1,2575.4 1924.3,2594.7 1850.3,2616.0 1777.2,2639.0 1705.1,2663.9 1634.1,2690.6 1564.4,2718.9 1496.1,2748.9 1429.4,2780.6 1364.2,2813.8 1300.9,2848.5 1239.5,2884.7 1180.2,2922.2 1123.0,2961.1 1068.1,3001.2 1015.6,3042.5 965.7,3084.9 918.5,3128.2 874.1,3172.6  A 1625.580,1625.580 0.00 0,1 872.7,3171.2 L 872.7,3171.2 917.2,3126.9 964.4,3083.5 1014.4,3041.2 1066.9,3000.0 1121.9,2959.9 1179.1,2921.1 1238.6,2883.6 1300.0,2847.5 1363.4,2812.8 1428.6,2779.6 1495.4,2748.0 1563.8,2718.0 1633.6,2689.6 1704.6,2663.0 1776.8,2638.1 1850.0,2615.1 1924.0,2593.8 1998.8,2574.5 2074.2,2557.1 2150.0,2541.6 2226.2,2528.1 2302.6,2516.6 2379.0,2507.1 2455.4,2499.7 2531.5,2494.3 2607.3,2490.9 2682.6,2489.7 2757.3,2490.5 2831.1,2493.4 2904.1,2498.4 2976.0,2505.5 3046.7,2514.6 3116.1,2525.9 3184.0,2539.2 3250.2,2554.5 3314.7,2571.9 3377.3,2591.2 3437.8,2612.6 3496.0,2635.9  Z" style="stroke-width: 0.0;  fill: rgb(28,75,160);" />
<path d="M 3495.261,2637.735 A 1625.580,1625.580 0.00 0,1 3492.1,2645.1 L 3492.1,2645.1 3437.2,2622.8 3380.6,2602.6 3322.4,2584.6 3262.7,2568.8 3201.8,2555.4 3139.9,2544.4 3077.1,2535.9 3013.5,2530.0 2949.4,2526.7 2884.9,2525.9 2820.2,2527.9 2755.4,2532.6 2690.7,2539.9 2626.3,2550.0 2562.1,2562.8 2498.6,2578.2 2435.6,2596.4 2373.4,2617.2 2312.2,2640.6 2252.0,2666.6 2192.9,2695.1 2135.1,2726.1 2078.7,2759.4 2023.8,2795.1 1970.6,2833.0 1919.0,2873.0 1869.3,2915.0 1821.4,2958.9 1775.6,3004.7 1731.9,3052.1 1690.4,3101.0 1651.1,3151.3 1614.2,3202.9 1579.7,3255.5 1547.7,3309.0 1518.2,3363.2 1491.4,3417.9 1467.2,3473.0 1445.8,3528.2  A 1625.580,1625.580 0.00 0,1 1438.3,3525.4 L 1438.3,3525.4 1460.0,3470.3 1484.5,3415.2 1511.6,3360.5 1541.4,3306.4 1573.7,3252.9 1608.6,3200.3 1645.8,3148.8 1685.4,3098.6 1727.3,3049.6 1771.3,3002.3 1817.5,2956.5 1865.6,2912.6 1915.7,2870.5 1967.6,2830.5 2021.2,2792.5 2076.4,2756.8 2133.1,2723.4 2191.2,2692.3 2250.5,2663.7 2311.0,2637.6 2372.6,2614.0 2435.0,2593.1 2498.3,2574.7 2562.1,2559.1 2626.5,2546.1 2691.2,2535.8 2756.2,2528.2 2821.2,2523.4 2886.1,2521.2 2950.8,2521.6 3015.1,2524.7 3078.9,2530.4 3141.9,2538.6 3204.1,2549.3 3265.1,2562.5 3325.0,2578.0 3383.4,2595.7 3440.2,2615.7 3495.3,2637.7  Z" style="stroke-width: 0.0;  fill: rgb(42,98,180);" />
<path d="M 3492.100,2645.095 A 1625.580,1625.580 0.00 0,1 3488.1,2654.3 L 3488.1,2654.3 3436.3,2632.7 3383.3,2612.9 3329.4,2595.2 3274.9,2579.7 3219.9,2566.5 3164.7,2555.8 3109.5,2547.6 3054.6,2542.0 3000.0,2539.1 2946.0,2538.9 2892.8,2541.7 2840.5,2547.3 2789.3,2555.8 2739.4,2567.2 2690.8,2581.6 2643.7,2598.9 2598.3,2619.2 2554.6,2642.3 2512.8,2668.3 2472.9,2697.1 2435.0,2728.6 2399.3,2762.8 2365.8,2799.5 2334.5,2838.8 2305.6,2880.4 2279.0,2924.2 2254.8,2970.1 2233.0,3018.0 2213.7,3067.6 2196.8,3118.9 2182.4,3171.6 2170.4,3225.5 2160.8,3280.5 2153.7,3336.2 2148.9,3392.5 2146.4,3449.2 2146.3,3505.9 2148.3,3562.4 2152.5,3618.4  A 1625.580,1625.580 0.00 0,1 2142.5,3619.3 L 2142.5,3619.3 2138.7,3563.2 2137.0,3506.6 2137.6,3449.8 2140.4,3393.0 2145.6,3336.6 2153.2,3280.7 2163.2,3225.6 2175.6,3171.6 2190.5,3118.7 2207.8,3067.3 2227.6,3017.5 2249.8,2969.4 2274.4,2923.3 2301.5,2879.3 2330.8,2837.5 2362.5,2798.0 2396.5,2761.0 2432.6,2726.5 2470.9,2694.7 2511.1,2665.6 2553.4,2639.4 2597.5,2615.9 2643.3,2595.3 2690.7,2577.7 2739.6,2563.0 2789.9,2551.2 2841.5,2542.3 2894.1,2536.3 2947.6,2533.2 3001.9,2533.0 3056.7,2535.5 3111.9,2540.7 3167.4,2548.6 3222.8,2559.0 3278.0,2571.8 3332.8,2587.0 3386.9,2604.4 3440.1,2623.8 3492.1,2645.1  Z" style="stroke-width: 0.0;  fill: rgb(15,52,135);" />
</g>
<defs>
<pattern id="checker" width="10" height="10" patternTransform="rotate(45 0 0)" patternUnits="userSpaceOnUse"><line x1="0" y1="0" x2="10" y2="0" style="stroke:black;stroke-width:5" /><line x1="0" y1="0" x2="0" y2="10" style="stroke:black;stroke-width:4" /></pattern>
<pattern id="vline" width="10" height="10" patternTransform="rotate(0 0 0)" patternUnits="userSpaceOnUse"><line x1="0" y1="0" x2="0" y2="10" style="stroke:black;stroke-width:5" /></pattern>
<pattern id="hline-sparse" width="10" height="10" patternTransform="rotate(0 0 0)" patternUnits="userSpaceOnUse"><line x1="0" y1="0" x2="10" y2="0" style="stroke:black;stroke-width:2" /></pattern>
<pattern id="checker" width="10" height="10" patternTransform="rotate(45 0 0)" patternUnits="userSpaceOnUse"><line x1="0" y1="0" x2="10" y2="0" style="stroke:black;stroke-width:2" /><line x1="0" y1="0" x2="0" y2="10" style="stroke:black;stroke-width:2" /></pattern>
<pattern id="hline" width="10" height="10" patternTransform="rotate(0 0 0)" patternUnits="userSpaceOnUse"><line x1="0" y1="0" x2="10" y2="0" style="stroke:black;stroke-width:5" /></pattern>
<pattern id="vline-sparse" width="10" height="10" patternTransform="rotate(0 0 0)" patternUnits="userSpaceOnUse"><line x1="0" y1="0" x2="0" y2="10" style="stroke:black;stroke-width:2" /></pattern>
</defs>
</svg>
