<?xml version="1.0" encoding="utf-8" standalone="no"?>
<!DOCTYPE svg PUBLIC "-//W3C//DTD SVG 1.1//EN" "http://www.w3.org/Graphics/SVG/1.1/DTD/svg11.dtd">
<svg width="4000px" height="4000px" version="1.1" xmlns="http://www.w3.org/2000/svg" xmlns:xlink="http://www.w3.org/1999/xlink">
<g id="bg">
<rect x="0" y="0" width="4000px" height="4000px" style="fill:rgb(255,255,255);"/>
</g>
<g id="ideograms">
<path d="M2000.000,358.000 A1642.000,1642.000 40.000 0,1 2751.610,540.121 L2769.004,506.336 A1680.000,1680.000 0.000 0,0 2000.000,320.000 Z" style="stroke-width:2.0;stroke:rgb(255,255,255);stroke-linecap:round;fill:rgb(185,185,185);" />
<text x="2427.0" y="305.8" font-size="36.4px" font-family="CMUBright-Roman" style="text-anchor:start;fill:rgb(0,0,0);" transform="rotate(283.6,2427.0,305.8)" >Management-Operations</text>
<path d="M2000.000,358.000 A1642.000,1642.000 40.000 0,1 2751.610,540.121 L2769.004,506.336 A1680.000,1680.000 0.000 0,0 2000.000,320.000 Z" style="stroke-width:2.0;stroke:rgb(255,255,255);stroke-linecap:round;fill:none;" />
<path d="M2783.279,556.865 A1642.000,1642.000 40.000 0,1 3226.411,908.176 L3254.793,882.908 A1680.000,1680.000 0.000 0,0 2801.406,523.467 Z" style="stroke-width:2.0;stroke:rgb(255,255,255);stroke-linecap:round;fill:rgb(185,185,185);" />
<text x="3097.5" y="640.5" font-size="36.4px" font-family="CMUBright-Roman" style="text-anchor:start;fill:rgb(0,0,0);" transform="rotate(308.4,3097.5,640.5)" >Engineering</text>
<path d="M2783.279,556.865 A1642.000,1642.000 40.000 0,1 3226.411,908.176 L3254.793,882.908 A1680.000,1680.000 0.000 0,0 2801.406,523.467 Z" style="stroke-width:2.0;stroke:rgb(255,255,255);stroke-linecap:round;fill:none;" />
<path d="M3249.937,935.189 A1642.000,1642.000 40.000 0,1 3507.538,1349.236 L3542.426,1334.176 A1680.000,1680.000 0.000 0,0 3278.864,910.547 Z" style="stroke-width:2.0;stroke:rgb(255,255,255);stroke-linecap:round;fill:rgb(185,185,185);" />
<text x="3491.6" y="1090.2" font-size="36.4px" font-family="CMUBright-Roman" style="text-anchor:start;fill:rgb(0,0,0);" transform="rotate(328.1,3491.6,1090.2)" >Leadership-General</text>
<path d="M3249.937,935.189 A1642.000,1642.000 40.000 0,1 3507.538,1349.236 L3542.426,1334.176 A1680.000,1680.000 0.000 0,0 3278.864,910.547 Z" style="stroke-width:2.0;stroke:rgb(255,255,255);stroke-linecap:round;fill:none;" />
<path d="M3521.375,1382.278 A1642.000,1642.000 40.000 0,1 3633.192,1830.154 L3670.988,1826.223 A1680.000,1680.000 0.000 0,0 3556.584,1367.982 Z" style="stroke-width:2.0;stroke:rgb(255,255,255);stroke-linecap:round;fill:rgb(185,185,185);" />
<text x="3699.0" y="1592.3" font-size="36.4px" font-family="CMUBright-Roman" style="text-anchor:start;fill:rgb(0,0,0);" transform="rotate(346.0,3699.0,1592.3)" >Sales-Marketing</text>
<path d="M3521.375,1382.278 A1642.000,1642.000 40.000 0,1 3633.192,1830.154 L3670.988,1826.223 A1680.000,1680.000 0.000 0,0 3556.584,1367.982 Z" style="stroke-width:2.0;stroke:rgb(255,255,255);stroke-linecap:round;fill:none;" />
<path d="M3636.509,1865.822 A1642.000,1642.000 40.000 0,1 3610.774,2318.704 L3648.051,2326.079 A1680.000,1680.000 0.000 0,0 3674.381,1862.717 Z" style="stroke-width:2.0;stroke:rgb(255,255,255);stroke-linecap:round;fill:rgb(185,185,185);" />
<text x="3743.6" y="2111.6" font-size="36.4px" font-family="CMUBright-Roman" style="text-anchor:start;fill:rgb(0,0,0);" transform="rotate(3.3,3743.6,2111.6)" >Finance-Investment</text>
<path d="M3636.509,1865.822 A1642.000,1642.000 40.000 0,1 3610.774,2318.704 L3648.051,2326.079 A1680.000,1680.000 0.000 0,0 3674.381,1862.717 Z" style="stroke-width:2.0;stroke:rgb(255,255,255);stroke-linecap:round;fill:none;" />
<path d="M3603.438,2353.767 A1642.000,1642.000 40.000 0,1 3499.856,2668.278 L3534.566,2683.744 A1680.000,1680.000 0.000 0,0 3640.546,2361.954 Z" style="stroke-width:2.0;stroke:rgb(255,255,255);stroke-linecap:round;fill:rgb(185,185,185);" />
<text x="3655.6" y="2558.4" font-size="36.4px" font-family="CMUBright-Roman" style="text-anchor:start;fill:rgb(0,0,0);" transform="rotate(18.2,3655.6,2558.4)" >Software-Data</text>
<path d="M3603.438,2353.767 A1642.000,1642.000 40.000 0,1 3499.856,2668.278 L3534.566,2683.744 A1680.000,1680.000 0.000 0,0 3640.546,2361.954 Z" style="stroke-width:2.0;stroke:rgb(255,255,255);stroke-linecap:round;fill:none;" />
<path d="M3484.921,2700.839 A1642.000,1642.000 40.000 0,1 3330.895,2961.708 L3361.695,2983.964 A1680.000,1680.000 0.000 0,0 3519.285,2717.058 Z" style="stroke-width:2.0;stroke:rgb(255,255,255);stroke-linecap:round;fill:rgb(185,185,185);" />
<text x="3498.1" y="2899.1" font-size="36.4px" font-family="CMUBright-Roman" style="text-anchor:start;fill:rgb(0,0,0);" transform="rotate(30.6,3498.1,2899.1)" >Education</text>
<path d="M3484.921,2700.839 A1642.000,1642.000 40.000 0,1 3330.895,2961.708 L3361.695,2983.964 A1680.000,1680.000 0.000 0,0 3519.285,2717.058 Z" style="stroke-width:2.0;stroke:rgb(255,255,255);stroke-linecap:round;fill:none;" />
<path d="M3309.599,2990.512 A1642.000,1642.000 40.000 0,1 3129.055,3192.225 L3155.184,3219.816 A1680.000,1680.000 0.000 0,0 3339.906,3013.435 Z" style="stroke-width:2.0;stroke:rgb(255,255,255);stroke-linecap:round;fill:rgb(185,185,185);" />
<text x="3293.5" y="3174.5" font-size="36.4px" font-family="CMUBright-Roman" style="text-anchor:start;fill:rgb(0,0,0);" transform="rotate(41.8,3293.5,3174.5)" >Research-Science</text>
<path d="M3309.599,2990.512 A1642.000,1642.000 40.000 0,1 3129.055,3192.225 L3155.184,3219.816 A1680.000,1680.000 0.000 0,0 3339.906,3013.435 Z" style="stroke-width:2.0;stroke:rgb(255,255,255);stroke-linecap:round;fill:none;" />
<path d="M3102.778,3216.571 A1642.000,1642.000 40.000 0,1 2891.302,3379.038 L2911.929,3410.952 A1680.000,1680.000 0.000 0,0 3128.299,3244.726 Z" style="stroke-width:2.0;stroke:rgb(255,255,255);stroke-linecap:round;fill:rgb(185,185,185);" />
<text x="3054.5" y="3393.1" font-size="36.4px" font-family="CMUBright-Roman" style="text-anchor:start;fill:rgb(0,0,0);" transform="rotate(52.5,3054.5,3393.1)" >Clinical-Care</text>
<path d="M3102.778,3216.571 A1642.000,1642.000 40.000 0,1 2891.302,3379.038 L2911.929,3410.952 A1680.000,1680.000 0.000 0,0 3128.299,3244.726 Z" style="stroke-width:2.0;stroke:rgb(255,255,255);stroke-linecap:round;fill:none;" />
<path d="M2861.006,3398.153 A1642.000,1642.000 40.000 0,1 2640.127,3512.085 L2654.941,3547.079 A1680.000,1680.000 0.000 0,0 2880.932,3430.510 Z" style="stroke-width:2.0;stroke:rgb(255,255,255);stroke-linecap:round;fill:rgb(185,185,185);" />
<text x="2786.7" y="3560.1" font-size="36.4px" font-family="CMUBright-Roman" style="text-anchor:start;fill:rgb(0,0,0);" transform="rotate(62.7,2786.7,3560.1)" >Accounting-Audit</text>
<path d="M2861.006,3398.153 A1642.000,1642.000 40.000 0,1 2640.127,3512.085 L2654.941,3547.079 A1680.000,1680.000 0.000 0,0 2880.932,3430.510 Z" style="stroke-width:2.0;stroke:rgb(255,255,255);stroke-linecap:round;fill:none;" />
<path d="M2606.988,3525.690 A1642.000,1642.000 40.000 0,1 2452.002,3578.562 L2462.463,3615.094 A1680.000,1680.000 0.000 0,0 2621.036,3560.998 Z" style="stroke-width:2.0;stroke:rgb(255,255,255);stroke-linecap:round;fill:rgb(185,185,185);" />
<text x="2552.3" y="3657.6" font-size="36.4px" font-family="CMUBright-Roman" style="text-anchor:start;fill:rgb(0,0,0);" transform="rotate(71.2,2552.3,3657.6)" >Social-Service</text>
<path d="M2606.988,3525.690 A1642.000,1642.000 40.000 0,1 2452.002,3578.562 L2462.463,3615.094 A1680.000,1680.000 0.000 0,0 2621.036,3560.998 Z" style="stroke-width:2.0;stroke:rgb(255,255,255);stroke-linecap:round;fill:none;" />
<path d="M2417.459,3588.047 A1642.000,1642.000 40.000 0,1 2320.910,3610.336 L2328.336,3647.603 A1680.000,1680.000 0.000 0,0 2427.120,3624.798 Z" style="stroke-width:2.0;stroke:rgb(255,255,255);stroke-linecap:round;fill:rgb(185,185,185);" />
<text x="2380.8" y="3705.2" font-size="36.4px" font-family="CMUBright-Roman" style="text-anchor:start;fill:rgb(0,0,0);" transform="rotate(77.0,2380.8,3705.2)" >IT-Infrastructure</text>
<path d="M2417.459,3588.047 A1642.000,1642.000 40.000 0,1 2320.910,3610.336 L2328.336,3647.603 A1680.000,1680.000 0.000 0,0 2427.120,3624.798 Z" style="stroke-width:2.0;stroke:rgb(255,255,255);stroke-linecap:round;fill:none;" />
<path d="M2285.704,3616.953 A1642.000,1642.000 40.000 0,1 2189.660,3631.010 L2194.050,3668.755 A1680.000,1680.000 0.000 0,0 2292.316,3654.373 Z" style="stroke-width:2.0;stroke:rgb(255,255,255);stroke-linecap:round;fill:rgb(185,185,185);" />
<text x="2237.2" y="3731.0" font-size="36.4px" font-family="CMUBright-Roman" style="text-anchor:start;fill:rgb(0,0,0);" transform="rotate(81.7,2237.2,3731.0)" >Legal-Policy</text>
<path d="M2285.704,3616.953 A1642.000,1642.000 40.000 0,1 2189.660,3631.010 L2194.050,3668.755 A1680.000,1680.000 0.000 0,0 2292.316,3654.373 Z" style="stroke-width:2.0;stroke:rgb(255,255,255);stroke-linecap:round;fill:none;" />
<path d="M2154.035,3634.759 A1642.000,1642.000 40.000 0,1 1474.020,3555.477 L1461.848,3591.475 A1680.000,1680.000 0.000 0,0 2157.600,3672.592 Z" style="stroke-width:2.0;stroke:rgb(255,255,255);stroke-linecap:round;fill:rgb(15,52,135);" />
<text x="1813.6" y="3737.2" font-size="36.4px" font-family="CMUBright-Roman" style="text-anchor:end;fill:rgb(0,0,0);" transform="rotate(-83.3,1813.6,3737.2)" >Finance-Accounting</text>
<path d="M2154.035,3634.759 A1642.000,1642.000 40.000 0,1 1474.020,3555.477 L1461.848,3591.475 A1680.000,1680.000 0.000 0,0 2157.600,3672.592 Z" style="stroke-width:2.0;stroke:rgb(255,255,255);stroke-linecap:round;fill:none;" />
<path d="M1440.213,3543.633 A1642.000,1642.000 40.000 0,1 888.845,3208.925 L863.130,3236.902 A1680.000,1680.000 0.000 0,0 1427.258,3579.356 Z" style="stroke-width:2.0;stroke:rgb(255,255,255);stroke-linecap:round;fill:rgb(42,98,180);" />
<text x="1104.1" y="3500.0" font-size="36.4px" font-family="CMUBright-Roman" style="text-anchor:end;fill:rgb(0,0,0);" transform="rotate(-58.7,1104.1,3500.0)" >General-Business</text>
<path d="M1440.213,3543.633 A1642.000,1642.000 40.000 0,1 888.845,3208.925 L863.130,3236.902 A1680.000,1680.000 0.000 0,0 1427.258,3579.356 Z" style="stroke-width:2.0;stroke:rgb(255,255,255);stroke-linecap:round;fill:none;" />
<path d="M862.737,3184.397 A1642.000,1642.000 40.000 0,1 624.574,2896.866 L592.744,2917.622 A1680.000,1680.000 0.000 0,0 836.418,3211.807 Z" style="stroke-width:2.0;stroke:rgb(255,255,255);stroke-linecap:round;fill:rgb(28,75,160);" />
<text x="664.7" y="3126.8" font-size="36.4px" font-family="CMUBright-Roman" style="text-anchor:end;fill:rgb(0,0,0);" transform="rotate(-39.6,664.7,3126.8)" >Marketing-Communication</text>
<path d="M862.737,3184.397 A1642.000,1642.000 40.000 0,1 624.574,2896.866 L592.744,2917.622 A1680.000,1680.000 0.000 0,0 836.418,3211.807 Z" style="stroke-width:2.0;stroke:rgb(255,255,255);stroke-linecap:round;fill:none;" />
<path d="M605.337,2866.648 A1642.000,1642.000 40.000 0,1 476.558,2612.607 L441.301,2626.784 A1680.000,1680.000 0.000 0,0 573.061,2886.704 Z" style="stroke-width:2.0;stroke:rgb(255,255,255);stroke-linecap:round;fill:rgb(60,120,198);" />
<text x="448.7" y="2803.8" font-size="36.4px" font-family="CMUBright-Roman" style="text-anchor:end;fill:rgb(0,0,0);" transform="rotate(-26.9,448.7,2803.8)" >Operations-Analytics</text>
<path d="M605.337,2866.648 A1642.000,1642.000 40.000 0,1 476.558,2612.607 L441.301,2626.784 A1680.000,1680.000 0.000 0,0 573.061,2886.704 Z" style="stroke-width:2.0;stroke:rgb(255,255,255);stroke-linecap:round;fill:none;" />
<path d="M463.556,2579.227 A1642.000,1642.000 40.000 0,1 407.419,2399.813 L370.563,2409.066 A1680.000,1680.000 0.000 0,0 427.999,2592.632 Z" style="stroke-width:2.0;stroke:rgb(255,255,255);stroke-linecap:round;fill:rgb(82,145,215);" />
<text x="337.2" y="2536.5" font-size="36.4px" font-family="CMUBright-Roman" style="text-anchor:end;fill:rgb(0,0,0);" transform="rotate(-17.4,337.2,2536.5)" >Specialized-Business</text>
<path d="M463.556,2579.227 A1642.000,1642.000 40.000 0,1 407.419,2399.813 L370.563,2409.066 A1680.000,1680.000 0.000 0,0 427.999,2592.632 Z" style="stroke-width:2.0;stroke:rgb(255,255,255);stroke-linecap:round;fill:none;" />
<path d="M399.076,2364.976 A1642.000,1642.000 40.000 0,1 366.776,2169.540 L328.979,2173.464 A1680.000,1680.000 0.000 0,0 362.027,2373.422 Z" style="stroke-width:2.0;stroke:rgb(255,255,255);stroke-linecap:round;fill:rgb(200,108,30);" />
<text x="278.3" y="2297.2" font-size="36.4px" font-family="CMUBright-Roman" style="text-anchor:end;fill:rgb(0,0,0);" transform="rotate(-9.4,278.3,2297.2)" >Social-Sciences</text>
<path d="M399.076,2364.976 A1642.000,1642.000 40.000 0,1 366.776,2169.540 L328.979,2173.464 A1680.000,1680.000 0.000 0,0 362.027,2373.422 Z" style="stroke-width:2.0;stroke:rgb(255,255,255);stroke-linecap:round;fill:none;" />
<path d="M363.466,2133.872 A1642.000,1642.000 40.000 0,1 358.290,2030.870 L320.297,2031.584 A1680.000,1680.000 0.000 0,0 325.593,2136.970 Z" style="stroke-width:2.0;stroke:rgb(255,255,255);stroke-linecap:round;fill:rgb(108,170,228);" />
<text x="255.6" y="2099.7" font-size="36.4px" font-family="CMUBright-Roman" style="text-anchor:end;fill:rgb(0,0,0);" transform="rotate(-2.9,255.6,2099.7)" >Economics</text>
<path d="M363.466,2133.872 A1642.000,1642.000 40.000 0,1 358.290,2030.870 L320.297,2031.584 A1680.000,1680.000 0.000 0,0 325.593,2136.970 Z" style="stroke-width:2.0;stroke:rgb(255,255,255);stroke-linecap:round;fill:none;" />
<path d="M358.007,1995.049 A1642.000,1642.000 40.000 0,1 358.807,1948.539 L320.825,1947.348 A1680.000,1680.000 0.000 0,0 320.008,1994.934 Z" style="stroke-width:2.0;stroke:rgb(255,255,255);stroke-linecap:round;fill:rgb(220,140,52);" />
<text x="252.9" y="1982.5" font-size="36.4px" font-family="CMUBright-Roman" style="text-anchor:end;fill:rgb(0,0,0);" transform="rotate(1.0,252.9,1982.5)" >Humanities-Liberal-Arts</text>
<path d="M358.007,1995.049 A1642.000,1642.000 40.000 0,1 358.807,1948.539 L320.825,1947.348 A1680.000,1680.000 0.000 0,0 320.008,1994.934 Z" style="stroke-width:2.0;stroke:rgb(255,255,255);stroke-linecap:round;fill:none;" />
<path d="M360.320,1912.749 A1642.000,1642.000 40.000 0,1 361.133,1898.615 L323.205,1896.269 A1680.000,1680.000 0.000 0,0 322.373,1910.730 Z" style="stroke-width:2.0;stroke:rgb(255,255,255);stroke-linecap:round;fill:rgb(235,168,78);" />
<text x="255.0" y="1912.1" font-size="36.4px" font-family="CMUBright-Roman" style="text-anchor:end;fill:rgb(0,0,0);" transform="rotate(3.3,255.0,1912.1)" >International-Studies</text>
<path d="M360.320,1912.749 A1642.000,1642.000 40.000 0,1 361.133,1898.615 L323.205,1896.269 A1680.000,1680.000 0.000 0,0 322.373,1910.730 Z" style="stroke-width:2.0;stroke:rgb(255,255,255);stroke-linecap:round;fill:none;" />
<path d="M363.735,1862.887 A1642.000,1642.000 40.000 0,1 391.336,1670.812 L354.108,1663.193 A1680.000,1680.000 0.000 0,0 325.867,1859.714 Z" style="stroke-width:2.0;stroke:rgb(255,255,255);stroke-linecap:round;fill:rgb(195,58,55);" />
<text x="268.8" y="1763.9" font-size="36.4px" font-family="CMUBright-Roman" style="text-anchor:end;fill:rgb(0,0,0);" transform="rotate(8.2,268.8,1763.9)" >Social-Work</text>
<path d="M363.735,1862.887 A1642.000,1642.000 40.000 0,1 391.336,1670.812 L354.108,1663.193 A1680.000,1680.000 0.000 0,0 325.867,1859.714 Z" style="stroke-width:2.0;stroke:rgb(255,255,255);stroke-linecap:round;fill:none;" />
<path d="M398.900,1635.797 A1642.000,1642.000 40.000 0,1 428.981,1522.439 L392.624,1511.387 A1680.000,1680.000 0.000 0,0 361.847,1627.368 Z" style="stroke-width:2.0;stroke:rgb(255,255,255);stroke-linecap:round;fill:rgb(175,35,42);" />
<text x="308.1" y="1564.0" font-size="36.4px" font-family="CMUBright-Roman" style="text-anchor:end;fill:rgb(0,0,0);" transform="rotate(14.9,308.1,1564.0)" >Teacher-Education</text>
<path d="M398.900,1635.797 A1642.000,1642.000 40.000 0,1 428.981,1522.439 L392.624,1511.387 A1680.000,1680.000 0.000 0,0 361.847,1627.368 Z" style="stroke-width:2.0;stroke:rgb(255,255,255);stroke-linecap:round;fill:none;" />
<path d="M439.773,1488.281 A1642.000,1642.000 40.000 0,1 474.975,1391.343 L439.682,1377.257 A1680.000,1680.000 0.000 0,0 403.666,1476.439 Z" style="stroke-width:2.0;stroke:rgb(255,255,255);stroke-linecap:round;fill:rgb(215,82,72);" />
<text x="352.5" y="1418.2" font-size="36.4px" font-family="CMUBright-Roman" style="text-anchor:end;fill:rgb(0,0,0);" transform="rotate(20.0,352.5,1418.2)" >Special-Education</text>
<path d="M439.773,1488.281 A1642.000,1642.000 40.000 0,1 474.975,1391.343 L439.682,1377.257 A1680.000,1680.000 0.000 0,0 403.666,1476.439 Z" style="stroke-width:2.0;stroke:rgb(255,255,255);stroke-linecap:round;fill:none;" />
<path d="M488.616,1358.220 A1642.000,1642.000 40.000 0,1 509.092,1311.991 L474.588,1296.068 A1680.000,1680.000 0.000 0,0 453.639,1343.368 Z" style="stroke-width:2.0;stroke:rgb(255,255,255);stroke-linecap:round;fill:rgb(230,112,95);" />
<text x="396.3" y="1306.6" font-size="36.4px" font-family="CMUBright-Roman" style="text-anchor:end;fill:rgb(0,0,0);" transform="rotate(23.9,396.3,1306.6)" >Educational-Leadership</text>
<path d="M488.616,1358.220 A1642.000,1642.000 40.000 0,1 509.092,1311.991 L474.588,1296.068 A1680.000,1680.000 0.000 0,0 453.639,1343.368 Z" style="stroke-width:2.0;stroke:rgb(255,255,255);stroke-linecap:round;fill:none;" />
<path d="M524.455,1279.630 A1642.000,1642.000 40.000 0,1 553.988,1222.045 L520.524,1204.041 A1680.000,1680.000 0.000 0,0 490.308,1262.959 Z" style="stroke-width:2.0;stroke:rgb(255,255,255);stroke-linecap:round;fill:rgb(0,130,142);" />
<text x="439.7" y="1213.8" font-size="36.4px" font-family="CMUBright-Roman" style="text-anchor:end;fill:rgb(0,0,0);" transform="rotate(27.2,439.7,1213.8)" >Communication-Studies</text>
<path d="M524.455,1279.630 A1642.000,1642.000 40.000 0,1 553.988,1222.045 L520.524,1204.041 A1680.000,1680.000 0.000 0,0 490.308,1262.959 Z" style="stroke-width:2.0;stroke:rgb(255,255,255);stroke-linecap:round;fill:none;" />
<path d="M571.303,1190.686 A1642.000,1642.000 40.000 0,1 588.562,1160.949 L555.898,1141.531 A1680.000,1680.000 0.000 0,0 538.240,1171.956 Z" style="stroke-width:2.0;stroke:rgb(255,255,255);stroke-linecap:round;fill:rgb(0,165,172);" />
<text x="482.6" y="1133.8" font-size="36.4px" font-family="CMUBright-Roman" style="text-anchor:end;fill:rgb(0,0,0);" transform="rotate(30.1,482.6,1133.8)" >Journalism-Media</text>
<path d="M571.303,1190.686 A1642.000,1642.000 40.000 0,1 588.562,1160.949 L555.898,1141.531 A1680.000,1680.000 0.000 0,0 538.240,1171.956 Z" style="stroke-width:2.0;stroke:rgb(255,255,255);stroke-linecap:round;fill:none;" />
<path d="M607.202,1130.358 A1642.000,1642.000 40.000 0,1 613.667,1120.089 L581.583,1099.725 A1680.000,1680.000 0.000 0,0 574.969,1110.233 Z" style="stroke-width:2.0;stroke:rgb(255,255,255);stroke-linecap:round;fill:rgb(38,195,195);" />
<text x="512.9" y="1082.8" font-size="36.4px" font-family="CMUBright-Roman" style="text-anchor:end;fill:rgb(0,0,0);" transform="rotate(32.2,512.9,1082.8)" >Creative-Writing</text>
<path d="M607.202,1130.358 A1642.000,1642.000 40.000 0,1 613.667,1120.089 L581.583,1099.725 A1680.000,1680.000 0.000 0,0 574.969,1110.233 Z" style="stroke-width:2.0;stroke:rgb(255,255,255);stroke-linecap:round;fill:none;" />
<path d="M633.192,1090.055 A1642.000,1642.000 40.000 0,1 667.742,1040.182 L636.910,1017.969 A1680.000,1680.000 0.000 0,0 601.560,1068.997 Z" style="stroke-width:2.0;stroke:rgb(255,255,255);stroke-linecap:round;fill:rgb(180,45,112);" />
<text x="554.7" y="1018.2" font-size="36.4px" font-family="CMUBright-Roman" style="text-anchor:end;fill:rgb(0,0,0);" transform="rotate(34.7,554.7,1018.2)" >Arts-Theology</text>
<path d="M633.192,1090.055 A1642.000,1642.000 40.000 0,1 667.742,1040.182 L636.910,1017.969 A1680.000,1680.000 0.000 0,0 601.560,1068.997 Z" style="stroke-width:2.0;stroke:rgb(255,255,255);stroke-linecap:round;fill:none;" />
<path d="M688.997,1011.347 A1642.000,1642.000 40.000 0,1 698.803,998.477 L668.690,975.299 A1680.000,1680.000 0.000 0,0 658.657,988.467 Z" style="stroke-width:2.0;stroke:rgb(255,255,255);stroke-linecap:round;fill:rgb(205,75,142);" />
<text x="600.6" y="953.9" font-size="36.4px" font-family="CMUBright-Roman" style="text-anchor:end;fill:rgb(0,0,0);" transform="rotate(37.3,600.6,953.9)" >English-Writing</text>
<path d="M688.997,1011.347 A1642.000,1642.000 40.000 0,1 698.803,998.477 L668.690,975.299 A1680.000,1680.000 0.000 0,0 658.657,988.467 Z" style="stroke-width:2.0;stroke:rgb(255,255,255);stroke-linecap:round;fill:none;" />
<path d="M720.960,970.329 A1642.000,1642.000 40.000 0,1 724.774,965.610 L695.262,941.672 A1680.000,1680.000 0.000 0,0 691.360,946.500 Z" style="stroke-width:2.0;stroke:rgb(255,255,255);stroke-linecap:round;fill:rgb(225,110,168);" />
<text x="631.0" y="914.3" font-size="36.4px" font-family="CMUBright-Roman" style="text-anchor:end;fill:rgb(0,0,0);" transform="rotate(38.9,631.0,914.3)" >Languages</text>
<path d="M720.960,970.329 A1642.000,1642.000 40.000 0,1 724.774,965.610 L695.262,941.672 A1680.000,1680.000 0.000 0,0 691.360,946.500 Z" style="stroke-width:2.0;stroke:rgb(255,255,255);stroke-linecap:round;fill:none;" />
<path d="M747.643,938.037 A1642.000,1642.000 40.000 0,1 884.635,794.959 L858.822,767.071 A1680.000,1680.000 0.000 0,0 718.660,913.461 Z" style="stroke-width:2.0;stroke:rgb(255,255,255);stroke-linecap:round;fill:rgb(88,40,138);" />
<text x="727.0" y="803.3" font-size="36.4px" font-family="CMUBright-Roman" style="text-anchor:end;fill:rgb(0,0,0);" transform="rotate(43.8,727.0,803.3)" >Biological-Sciences</text>
<path d="M747.643,938.037 A1642.000,1642.000 40.000 0,1 884.635,794.959 L858.822,767.071 A1680.000,1680.000 0.000 0,0 718.660,913.461 Z" style="stroke-width:2.0;stroke:rgb(255,255,255);stroke-linecap:round;fill:none;" />
<path d="M911.188,770.914 A1642.000,1642.000 40.000 0,1 969.888,721.316 L946.049,691.724 A1680.000,1680.000 0.000 0,0 885.990,742.470 Z" style="stroke-width:2.0;stroke:rgb(255,255,255);stroke-linecap:round;fill:rgb(115,65,165);" />
<text x="862.8" y="673.5" font-size="36.4px" font-family="CMUBright-Roman" style="text-anchor:end;fill:rgb(0,0,0);" transform="rotate(49.8,862.8,673.5)" >Health-Wellness</text>
<path d="M911.188,770.914 A1642.000,1642.000 40.000 0,1 969.888,721.316 L946.049,691.724 A1680.000,1680.000 0.000 0,0 885.990,742.470 Z" style="stroke-width:2.0;stroke:rgb(255,255,255);stroke-linecap:round;fill:none;" />
<path d="M998.028,699.148 A1642.000,1642.000 40.000 0,1 1023.858,679.655 L1001.267,649.099 A1680.000,1680.000 0.000 0,0 974.840,669.043 Z" style="stroke-width:2.0;stroke:rgb(255,255,255);stroke-linecap:round;fill:rgb(140,92,188);" />
<text x="935.2" y="614.8" font-size="36.4px" font-family="CMUBright-Roman" style="text-anchor:end;fill:rgb(0,0,0);" transform="rotate(53.0,935.2,614.8)" >Physical-Sciences</text>
<path d="M998.028,699.148 A1642.000,1642.000 40.000 0,1 1023.858,679.655 L1001.267,649.099 A1680.000,1680.000 0.000 0,0 974.840,669.043 Z" style="stroke-width:2.0;stroke:rgb(255,255,255);stroke-linecap:round;fill:none;" />
<path d="M1052.893,658.675 A1642.000,1642.000 40.000 0,1 1064.493,650.559 L1042.843,619.329 A1680.000,1680.000 0.000 0,0 1030.975,627.633 Z" style="stroke-width:2.0;stroke:rgb(255,255,255);stroke-linecap:round;fill:rgb(165,120,208);" />
<text x="988.2" y="575.6" font-size="36.4px" font-family="CMUBright-Roman" style="text-anchor:end;fill:rgb(0,0,0);" transform="rotate(55.0,988.2,575.6)" >Environmental-Sciences</text>
<path d="M1052.893,658.675 A1642.000,1642.000 40.000 0,1 1064.493,650.559 L1042.843,619.329 A1680.000,1680.000 0.000 0,0 1030.975,627.633 Z" style="stroke-width:2.0;stroke:rgb(255,255,255);stroke-linecap:round;fill:none;" />
<path d="M1094.154,630.472 A1642.000,1642.000 40.000 0,1 1594.822,408.776 L1585.445,371.951 A1680.000,1680.000 0.000 0,0 1073.190,598.778 Z" style="stroke-width:2.0;stroke:rgb(255,255,255);stroke-linecap:round;fill:rgb(22,118,50);" />
<text x="1278.0" y="409.0" font-size="36.4px" font-family="CMUBright-Roman" style="text-anchor:end;fill:rgb(0,0,0);" transform="rotate(66.1,1278.0,409.0)" >Engineering-Disciplines</text>
<path d="M1094.154,630.472 A1642.000,1642.000 40.000 0,1 1594.822,408.776 L1585.445,371.951 A1680.000,1680.000 0.000 0,0 1073.190,598.778 Z" style="stroke-width:2.0;stroke:rgb(255,255,255);stroke-linecap:round;fill:none;" />
<path d="M1629.631,400.315 A1642.000,1642.000 40.000 0,1 1964.180,358.391 L1963.351,320.400 A1680.000,1680.000 0.000 0,0 1621.060,363.295 Z" style="stroke-width:2.0;stroke:rgb(255,255,255);stroke-linecap:round;fill:rgb(48,158,75);" />
<text x="1767.4" y="268.4" font-size="36.4px" font-family="CMUBright-Roman" style="text-anchor:end;fill:rgb(0,0,0);" transform="rotate(82.9,1767.4,268.4)" >Computer-Science-IT</text>
<path d="M1629.631,400.315 A1642.000,1642.000 40.000 0,1 1964.180,358.391 L1963.351,320.400 A1680.000,1680.000 0.000 0,0 1621.060,363.295 Z" style="stroke-width:2.0;stroke:rgb(255,255,255);stroke-linecap:round;fill:none;" />
</g>
<g id="track_0">
<path d="M 2413.284,3572.166 A 1625.580,1625.580 0.00 0,1 2393.9,3577.1 L 2393.9,3577.1 2376.5,3504.8 2360.1,3430.7 2344.3,3355.1 2329.1,3278.1 2314.3,3199.8 2299.7,3120.3 2285.2,3039.7 2270.7,2958.1 2256.1,2875.7 2241.2,2792.5 2225.9,2708.6 2210.3,2624.2 2194.1,2539.3 2177.4,2454.0 2160.1,2368.4 2142.2,2282.7 2123.6,2196.8 2104.3,2110.9 2084.4,2025.1 2063.7,1939.3 2042.4,1853.8 2020.5,1768.5 1998.0,1683.6 1975.0,1599.0 1951.5,1515.0 1927.5,1431.4 1903.3,1348.5 1878.9,1266.2 1854.3,1184.6 1829.7,1103.7 1805.3,1023.6 1781.1,944.4 1757.3,866.0 1734.1,788.6 1711.7,712.1 1690.2,636.6 1669.8,562.1 1650.8,488.7 1633.3,416.3  A 1625.580,1625.580 0.00 0,1 1652.9,411.9 L 1652.9,411.9 1669.4,484.2 1687.6,557.7 1707.1,632.2 1727.7,707.7 1749.4,784.3 1771.8,861.8 1794.9,940.3 1818.4,1019.7 1842.3,1099.9 1866.3,1180.9 1890.4,1262.6 1914.5,1345.1 1938.3,1428.2 1961.9,1511.9 1985.2,1596.1 2008.0,1680.8 2030.4,1765.9 2052.2,1851.3 2073.4,1936.9 2094.1,2022.8 2114.1,2108.7 2133.5,2194.7 2152.3,2280.6 2170.5,2366.4 2188.1,2452.0 2205.2,2537.3 2221.7,2622.1 2237.8,2706.5 2253.6,2790.3 2269.0,2873.3 2284.3,2955.6 2299.4,3037.0 2314.6,3117.4 2329.9,3196.7 2345.4,3274.7 2361.4,3351.4 2377.9,3426.6 2395.1,3500.2 2413.3,3572.2  Z" style="stroke-width: 0.0;  fill: rgb(48,158,75);" />
<path d="M 2393.888,3577.137 A 1625.580,1625.580 0.00 0,1 2391.9,3577.6 L 2391.9,3577.6 2374.0,3509.5 2353.8,3440.3 2331.5,3370.0 2307.3,3298.7 2281.4,3226.4 2253.8,3153.2 2224.8,3079.1 2194.4,3004.2 2162.9,2928.5 2130.2,2852.0 2096.6,2775.0 2062.1,2697.3 2026.8,2619.2 1990.8,2540.6 1954.3,2461.6 1917.3,2382.4 1879.8,2302.9 1842.0,2223.4 1803.8,2143.8 1765.4,2064.3 1726.8,1984.9 1688.0,1905.8 1649.1,1827.0 1610.0,1748.8 1570.9,1671.1 1531.7,1594.0 1492.4,1517.8 1453.0,1442.5 1413.6,1368.3 1374.1,1295.2 1334.4,1223.4 1294.6,1153.0 1254.6,1084.2 1214.4,1017.1 1173.9,951.9 1133.1,888.6 1091.9,827.4 1050.2,768.6 1008.0,712.2  A 1625.580,1625.580 0.00 0,1 1009.6,710.9 L 1009.6,710.9 1051.8,767.4 1093.4,826.4 1134.5,887.6 1175.3,950.9 1215.7,1016.2 1255.9,1083.4 1295.8,1152.2 1335.6,1222.7 1375.2,1294.5 1414.7,1367.6 1454.1,1441.9 1493.4,1517.2 1532.7,1593.5 1571.9,1670.5 1611.0,1748.3 1650.0,1826.6 1688.9,1905.3 1727.7,1984.4 1766.3,2063.8 1804.7,2143.4 1842.9,2222.9 1880.8,2302.5 1918.2,2382.0 1955.3,2461.2 1991.9,2540.2 2027.9,2618.8 2063.2,2696.9 2097.7,2774.5 2131.4,2851.6 2164.1,2928.0 2195.7,3003.7 2226.2,3078.6 2255.3,3152.7 2282.9,3225.9 2308.9,3298.2 2333.2,3369.5 2355.5,3439.8 2375.8,3509.0 2393.9,3577.1  Z" style="stroke-width: 0.0;  fill: rgb(140,92,188);" />
<path d="M 2391.945,3577.621 A 1625.580,1625.580 0.00 0,1 2386.1,3579.1 L 2386.1,3579.1 2368.5,3511.6 2348.6,3443.0 2326.5,3373.4 2302.4,3302.8 2276.3,3231.2 2248.6,3158.8 2219.2,3085.5 2188.3,3011.4 2156.1,2936.5 2122.7,2861.0 2088.1,2784.9 2052.4,2708.3 2015.9,2631.3 1978.5,2553.8 1940.4,2476.1 1901.5,2398.1 1862.1,2320.1 1822.2,2241.9 1781.8,2163.9 1741.0,2086.0 1699.9,2008.3 1658.4,1931.0 1616.7,1854.1 1574.7,1777.8 1532.6,1702.2 1490.2,1627.4 1447.7,1553.4 1405.0,1480.5 1362.2,1408.7 1319.2,1338.2 1276.0,1269.1 1232.7,1201.6 1189.2,1135.7 1145.4,1071.6 1101.4,1009.4 1057.1,949.3 1012.5,891.5 967.5,836.1 922.1,783.2  A 1625.580,1625.580 0.00 0,1 926.6,779.2 L 926.6,779.2 971.9,832.3 1016.7,888.0 1061.2,946.0 1105.4,1006.3 1149.2,1068.6 1192.8,1132.9 1236.2,1198.9 1279.4,1266.7 1322.5,1335.9 1365.3,1406.5 1408.1,1478.4 1450.7,1551.5 1493.1,1625.5 1535.4,1700.4 1577.5,1776.2 1619.4,1852.5 1661.1,1929.5 1702.6,2006.8 1743.7,2084.5 1784.6,2162.5 1825.0,2240.6 1865.0,2318.7 1904.4,2396.8 1943.3,2474.8 1981.6,2552.5 2019.1,2629.9 2055.8,2707.0 2091.5,2783.6 2126.3,2859.7 2159.9,2935.2 2192.3,3010.0 2223.4,3084.1 2252.9,3157.4 2280.9,3229.8 2307.2,3301.4 2331.6,3372.0 2353.9,3441.6 2374.1,3510.1 2391.9,3577.6  Z" style="stroke-width: 0.0;  fill: rgb(115,65,165);" />
<path d="M 2386.113,3579.059 A 1625.580,1625.580 0.00 0,1 2358.8,3585.5 L 2358.8,3585.5 2342.7,3519.3 2324.0,3452.0 2302.9,3383.8 2279.6,3314.6 2254.1,3244.4 2226.7,3173.5 2197.3,3101.8 2166.2,3029.4 2133.4,2956.5 2099.0,2883.0 2063.2,2809.0 2026.1,2734.6 1987.7,2660.0 1948.1,2585.2 1907.4,2510.2 1865.7,2435.2 1823.1,2360.3 1779.7,2285.6 1735.4,2211.1 1690.5,2137.0 1644.9,2063.3 1598.7,1990.2 1552.0,1917.8 1504.8,1846.2 1457.1,1775.4 1409.1,1705.7 1360.7,1637.2 1312.0,1569.8 1262.9,1503.9 1213.6,1439.4 1164.1,1376.6 1114.3,1315.5 1064.3,1256.4 1014.1,1199.2 963.7,1144.2 913.2,1091.5 862.4,1041.3 811.4,993.6 760.2,948.7  A 1625.580,1625.580 0.00 0,1 778.5,927.4 L 778.5,927.4 829.2,973.5 879.6,1022.2 929.9,1073.5 980.0,1127.1 1029.8,1183.1 1079.5,1241.1 1129.0,1301.2 1178.3,1363.1 1227.4,1426.7 1276.3,1491.8 1325.0,1558.5 1373.4,1626.4 1421.6,1695.6 1469.4,1765.9 1516.9,1837.1 1564.0,1909.2 1610.7,1982.0 1656.9,2055.4 1702.6,2129.4 1747.7,2203.8 1792.2,2278.5 1836.0,2353.5 1878.9,2428.6 1921.0,2503.7 1962.2,2578.7 2002.4,2653.6 2041.5,2728.3 2079.3,2802.7 2115.9,2876.6 2151.1,2950.1 2184.8,3023.1 2216.8,3095.4 2247.2,3167.1 2275.7,3238.0 2302.2,3308.1 2326.7,3377.3 2348.9,3445.5 2368.8,3512.8 2386.1,3579.1  Z" style="stroke-width: 0.0;  fill: rgb(88,40,138);" />
<path d="M 2358.827,3585.482 A 1625.580,1625.580 0.00 0,1 2356.9,3585.9 L 2356.9,3585.9 2341.0,3520.9 2322.5,3454.8 2301.4,3387.8 2278.0,3319.9 2252.2,3251.2 2224.3,3181.8 2194.2,3111.8 2162.2,3041.2 2128.4,2970.2 2092.8,2898.7 2055.5,2826.9 2016.6,2755.0 1976.2,2682.8 1934.5,2610.7 1891.4,2538.6 1847.1,2466.7 1801.7,2395.0 1755.2,2323.7 1707.8,2252.8 1659.4,2182.4 1610.2,2112.7 1560.2,2043.8 1509.5,1975.7 1458.2,1908.6 1406.3,1842.6 1353.9,1777.8 1301.0,1714.3 1247.7,1652.3 1194.0,1591.7 1140.1,1532.9 1085.8,1475.8 1031.4,1420.7 976.7,1367.6 921.9,1316.7 867.0,1268.1 812.0,1221.9 757.0,1178.2 701.9,1137.3 646.9,1099.2  A 1625.580,1625.580 0.00 0,1 648.0,1097.5 L 648.0,1097.5 703.0,1135.7 758.0,1176.7 813.1,1220.4 868.0,1266.7 922.9,1315.4 977.7,1366.4 1032.3,1419.6 1086.7,1474.8 1140.9,1531.9 1194.9,1590.8 1248.5,1651.3 1301.8,1713.5 1354.7,1777.0 1407.1,1841.9 1459.0,1907.9 1510.3,1975.0 1561.0,2043.1 1611.0,2112.1 1660.2,2181.8 1708.6,2252.2 1756.1,2323.1 1802.6,2394.5 1848.1,2466.2 1892.4,2538.1 1935.5,2610.2 1977.3,2682.4 2017.7,2754.5 2056.6,2826.5 2094.0,2898.2 2129.6,2969.7 2163.6,3040.8 2195.6,3111.4 2225.7,3181.4 2253.7,3250.8 2279.6,3319.5 2303.1,3387.3 2324.3,3454.3 2342.9,3520.4 2358.8,3585.5  Z" style="stroke-width: 0.0;  fill: rgb(180,45,112);" />
<path d="M 2356.874,3585.923 A 1625.580,1625.580 0.00 0,1 2353.0,3586.8 L 2353.0,3586.8 2338.1,3526.4 2320.4,3465.4 2299.9,3403.9 2276.6,3342.1 2250.6,3280.1 2222.0,3218.1 2190.8,3156.2 2157.1,3094.5 2121.0,3033.2 2082.5,2972.3 2041.8,2912.0 1998.9,2852.5 1953.8,2793.8 1906.8,2736.0 1857.8,2679.3 1807.0,2623.7 1754.4,2569.4 1700.2,2516.4 1644.5,2464.9 1587.3,2415.0 1528.7,2366.7 1468.9,2320.1 1408.0,2275.4 1346.1,2232.5 1283.3,2191.6 1219.7,2152.8 1155.5,2116.1 1090.7,2081.6 1025.4,2049.4 960.0,2019.5 894.3,1991.9 828.6,1966.9 763.1,1944.3 697.8,1924.3 632.9,1906.9 568.5,1892.2 504.8,1880.1 442.0,1870.8 380.1,1864.3  A 1625.580,1625.580 0.00 0,1 380.4,1860.3 L 380.4,1860.3 442.3,1867.0 505.2,1876.4 568.9,1888.6 633.3,1903.5 698.2,1921.1 763.6,1941.3 829.2,1964.0 894.9,1989.2 960.5,2016.9 1026.1,2046.9 1091.3,2079.3 1156.2,2113.9 1220.5,2150.7 1284.1,2189.7 1347.0,2230.7 1409.0,2273.6 1470.0,2318.5 1529.8,2365.2 1588.4,2413.5 1645.7,2463.6 1701.6,2515.1 1755.9,2568.2 1808.6,2622.5 1859.5,2678.2 1908.6,2734.9 1955.8,2792.7 2000.9,2851.5 2044.0,2911.1 2084.9,2971.4 2123.5,3032.2 2159.8,3093.6 2193.6,3155.3 2224.9,3217.2 2253.7,3279.2 2279.9,3341.2 2303.3,3403.0 2324.0,3464.5 2341.9,3525.5 2356.9,3585.9  Z" style="stroke-width: 0.0;  fill: rgb(195,58,55);" />
<path d="M 2352.966,3586.797 A 1625.580,1625.580 0.00 0,1 2351.0,3587.2 L 2351.0,3587.2 2336.6,3528.2 2319.3,3468.7 2299.2,3409.0 2276.4,3349.1 2250.8,3289.4 2222.6,3229.9 2191.8,3170.7 2158.5,3112.1 2122.7,3054.2 2084.5,2997.1 2043.9,2940.9 2001.1,2885.8 1956.2,2831.9 1909.2,2779.4 1860.1,2728.2 1809.2,2678.6 1756.4,2630.7 1702.0,2584.4 1645.9,2540.1 1588.3,2497.6 1529.4,2457.1 1469.2,2418.7 1407.8,2382.4 1345.4,2348.4 1282.0,2316.6 1217.9,2287.1 1153.2,2260.1 1088.0,2235.4 1022.3,2213.3 956.5,2193.6 890.6,2176.4 824.8,2161.9 759.2,2149.9 694.0,2140.5 629.3,2133.7 565.4,2129.5 502.4,2127.9 440.5,2128.9 379.8,2132.5  A 1625.580,1625.580 0.00 0,1 379.7,2130.5 L 379.7,2130.5 440.4,2127.0 502.3,2126.0 565.4,2127.7 629.3,2132.0 693.9,2138.8 759.2,2148.3 824.8,2160.4 890.6,2175.1 956.6,2192.3 1022.4,2212.0 1088.1,2234.3 1153.4,2259.0 1218.2,2286.1 1282.3,2315.6 1345.7,2347.4 1408.1,2381.5 1469.6,2417.9 1529.8,2456.3 1588.8,2496.8 1646.5,2539.4 1702.6,2583.8 1757.1,2630.1 1809.9,2678.1 1860.9,2727.7 1910.0,2778.8 1957.1,2831.4 2002.1,2885.3 2045.0,2940.4 2085.6,2996.6 2123.9,3053.7 2159.8,3111.7 2193.2,3170.3 2224.1,3229.4 2252.4,3288.9 2278.0,3348.7 2300.9,3408.5 2321.1,3468.3 2338.5,3527.7 2353.0,3586.8  Z" style="stroke-width: 0.0;  fill: rgb(108,170,228);" />
<path d="M 2351.011,3587.231 A 1625.580,1625.580 0.00 0,1 2345.1,3588.5 L 2345.1,3588.5 2331.2,3530.6 2314.5,3472.3 2295.1,3414.0 2272.9,3355.8 2248.1,3297.9 2220.7,3240.4 2190.7,3183.6 2158.2,3127.6 2123.2,3072.5 2085.9,3018.6 2046.3,2965.9 2004.4,2914.6 1960.3,2864.9 1914.1,2816.8 1866.0,2770.4 1815.9,2726.0 1764.1,2683.5 1710.5,2643.0 1655.3,2604.8 1598.6,2568.7 1540.5,2535.0 1481.2,2503.6 1420.7,2474.7 1359.2,2448.2 1296.8,2424.2 1233.6,2402.9 1169.9,2384.1 1105.7,2367.9 1041.2,2354.3 976.5,2343.4 911.8,2335.1 847.3,2329.4 783.1,2326.4 719.5,2325.9 656.5,2328.0 594.4,2332.7 533.3,2339.8 473.5,2349.4 415.1,2361.3  A 1625.580,1625.580 0.00 0,1 413.8,2355.5 L 413.8,2355.5 472.2,2343.7 532.2,2334.3 593.3,2327.4 655.6,2323.0 718.7,2321.1 782.4,2321.8 846.7,2325.1 911.4,2331.0 976.2,2339.5 1041.0,2350.6 1105.6,2364.4 1170.0,2380.8 1233.9,2399.7 1297.1,2421.3 1359.7,2445.4 1421.4,2472.1 1482.0,2501.2 1541.6,2532.7 1599.8,2566.6 1656.7,2602.7 1712.1,2641.1 1765.9,2681.7 1818.0,2724.2 1868.3,2768.8 1916.6,2815.2 1963.0,2863.4 2007.3,2913.2 2049.5,2964.5 2089.4,3017.2 2126.9,3071.2 2162.1,3126.2 2194.9,3182.3 2225.1,3239.1 2252.8,3296.6 2277.8,3354.5 2300.2,3412.7 2319.9,3471.0 2336.8,3529.3 2351.0,3587.2  Z" style="stroke-width: 0.0;  fill: rgb(200,108,30);" />
<path d="M 2345.143,3588.517 A 1625.580,1625.580 0.00 0,1 2343.2,3588.9 L 2343.2,3588.9 2329.6,3532.0 2313.3,3474.9 2294.4,3417.9 2272.9,3361.1 2248.9,3304.9 2222.3,3249.4 2193.2,3194.7 2161.7,3141.1 2127.8,3088.8 2091.6,3037.9 2053.1,2988.5 2012.4,2940.8 1969.7,2895.0 1924.9,2851.1 1878.1,2809.3 1829.5,2769.6 1779.1,2732.3 1727.1,2697.4 1673.5,2664.8 1618.5,2634.9 1562.1,2607.5 1504.5,2582.7 1445.8,2560.7 1386.2,2541.3 1325.7,2524.7 1264.6,2510.9 1202.8,2499.8 1140.7,2491.5 1078.4,2486.0 1016.0,2483.2 953.6,2483.1 891.5,2485.7 829.8,2490.9 768.7,2498.6 708.4,2508.9 649.1,2521.6 590.9,2536.7 534.1,2554.0 478.9,2573.4  A 1625.580,1625.580 0.00 0,1 478.2,2571.6 L 478.2,2571.6 533.5,2552.2 590.3,2534.9 648.5,2519.9 707.9,2507.3 768.2,2497.1 829.4,2489.4 891.1,2484.3 953.3,2481.7 1015.7,2481.9 1078.1,2484.8 1140.6,2490.4 1202.7,2498.7 1264.5,2509.9 1325.7,2523.8 1386.3,2540.4 1446.0,2559.8 1504.7,2581.9 1562.4,2606.7 1618.8,2634.2 1673.9,2664.2 1727.6,2696.7 1779.7,2731.7 1830.2,2769.1 1878.8,2808.7 1925.7,2850.6 1970.5,2894.5 2013.4,2940.3 2054.1,2988.0 2092.7,3037.4 2129.0,3088.4 2163.0,3140.7 2194.6,3194.3 2223.7,3248.9 2250.4,3304.5 2274.6,3360.7 2296.2,3417.4 2315.1,3474.5 2331.5,3531.6 2345.1,3588.5  Z" style="stroke-width: 0.0;  fill: rgb(82,145,215);" />
<path d="M 2343.187,3588.941 A 1625.580,1625.580 0.00 0,1 2339.3,3589.8 L 2339.3,3589.8 2326.2,3534.1 2310.7,3478.5 2292.7,3423.2 2272.4,3368.4 2249.7,3314.4 2224.7,3261.4 2197.4,3209.7 2167.9,3159.4 2136.1,3110.7 2102.3,3063.8 2066.3,3018.8 2028.3,2976.0 1988.4,2935.4 1946.7,2897.3 1903.1,2861.6 1857.8,2828.6 1811.0,2798.2 1762.6,2770.7 1712.8,2746.0 1661.7,2724.3 1609.3,2705.5 1555.9,2689.7 1501.6,2677.0 1446.4,2667.3 1390.5,2660.6 1334.0,2657.0 1277.1,2656.4 1219.9,2658.7 1162.6,2664.0 1105.4,2672.1 1048.3,2683.0 991.5,2696.6 935.3,2712.8 879.8,2731.6 825.2,2752.6 771.6,2776.0 719.3,2801.4 668.5,2828.8 619.3,2858.0  A 1625.580,1625.580 0.00 0,1 617.2,2854.6 L 617.2,2854.6 666.5,2825.5 717.4,2798.2 769.8,2772.9 823.5,2749.7 878.2,2728.7 933.8,2710.1 990.2,2694.0 1047.1,2680.6 1104.3,2669.8 1161.7,2661.8 1219.2,2656.6 1276.5,2654.4 1333.5,2655.1 1390.1,2658.9 1446.2,2665.6 1501.5,2675.4 1556.1,2688.3 1609.6,2704.1 1662.1,2723.0 1713.4,2744.8 1763.4,2769.5 1811.9,2797.1 1859.0,2827.5 1904.4,2860.6 1948.2,2896.3 1990.1,2934.5 2030.2,2975.1 2068.4,3018.0 2104.5,3062.9 2138.5,3109.8 2170.5,3158.5 2200.2,3208.9 2227.7,3260.6 2252.8,3313.6 2275.7,3367.6 2296.2,3422.3 2314.3,3477.7 2330.0,3533.3 2343.2,3588.9  Z" style="stroke-width: 0.0;  fill: rgb(60,120,198);" />
<path d="M 2339.271,3589.782 A 1625.580,1625.580 0.00 0,1 2337.3,3590.2 L 2337.3,3590.2 2324.8,3536.0 2310.2,3481.9 2293.6,3428.5 2274.9,3375.9 2254.3,3324.4 2231.8,3274.2 2207.3,3225.7 2181.0,3179.0 2152.8,3134.4 2122.9,3092.0 2091.3,3052.0 2058.1,3014.7 2023.2,2980.0 1986.9,2948.3 1949.0,2919.5 1909.9,2893.9 1869.4,2871.4 1827.7,2852.2 1785.0,2836.3 1741.2,2823.8 1696.5,2814.7 1650.9,2809.1 1604.7,2806.8 1557.9,2807.9 1510.6,2812.3 1463.0,2820.1 1415.1,2831.1 1367.1,2845.3 1319.2,2862.6 1271.4,2882.8 1223.9,2905.9 1176.9,2931.6 1130.5,2959.9 1084.9,2990.6 1040.2,3023.5 996.6,3058.3 954.3,3094.9 913.4,3133.1 874.1,3172.6  A 1625.580,1625.580 0.00 0,1 872.7,3171.2 L 872.7,3171.2 912.0,3131.8 953.0,3093.6 995.4,3057.1 1039.0,3022.3 1083.8,2989.4 1129.5,2958.8 1176.0,2930.5 1223.0,2904.8 1270.6,2881.8 1318.4,2861.7 1366.5,2844.4 1414.5,2830.3 1462.5,2819.3 1510.2,2811.6 1557.6,2807.2 1604.5,2806.1 1650.9,2808.4 1696.5,2814.1 1741.3,2823.3 1785.2,2835.8 1828.0,2851.7 1869.8,2870.9 1910.4,2893.4 1949.7,2919.1 1987.6,2947.8 2024.0,2979.6 2059.0,3014.2 2092.3,3051.6 2124.0,3091.6 2154.0,3134.0 2182.3,3178.6 2208.7,3225.3 2233.2,3273.8 2255.9,3324.0 2276.6,3375.5 2295.3,3428.1 2312.0,3481.5 2326.7,3535.5 2339.3,3589.8  Z" style="stroke-width: 0.0;  fill: rgb(28,75,160);" />
<path d="M 2337.313,3590.198 A 1625.580,1625.580 0.00 0,1 2325.6,3592.6 L 2325.6,3592.6 2314.2,3540.0 2301.6,3487.8 2287.8,3436.5 2272.9,3386.2 2256.9,3337.5 2239.9,3290.5 2221.8,3245.5 2202.8,3202.9 2182.9,3162.8 2162.1,3125.4 2140.5,3091.1 2118.1,3059.8 2095.0,3031.9 2071.3,3007.4 2046.9,2986.5 2022.0,2969.2 1996.6,2955.7 1970.7,2946.0 1944.5,2940.2 1917.9,2938.2 1891.1,2940.2 1864.1,2946.0 1837.0,2955.7 1809.8,2969.1 1782.7,2986.3 1755.6,3007.0 1728.7,3031.3 1702.0,3058.9 1675.6,3089.8 1649.6,3123.7 1624.0,3160.5 1599.0,3199.9 1574.6,3241.8 1550.9,3285.8 1528.0,3331.7 1505.9,3379.2 1484.8,3428.0 1464.8,3477.8 1445.8,3528.2  A 1625.580,1625.580 0.00 0,1 1434.5,3524.1 L 1434.5,3524.1 1453.9,3473.7 1474.4,3424.1 1496.0,3375.4 1518.5,3328.0 1541.9,3282.2 1566.2,3238.3 1591.1,3196.6 1616.7,3157.3 1642.8,3120.7 1669.5,3086.9 1696.5,3056.2 1723.8,3028.6 1751.4,3004.5 1779.1,2983.8 1806.9,2966.7 1834.8,2953.4 1862.6,2943.8 1890.2,2938.1 1917.7,2936.2 1945.0,2938.2 1971.9,2944.1 1998.4,2953.8 2024.5,2967.3 2050.1,2984.6 2075.2,3005.5 2099.6,3030.0 2123.3,3057.9 2146.4,3089.1 2168.6,3123.5 2190.0,3160.8 2210.5,3200.8 2230.1,3243.4 2248.7,3288.3 2266.3,3335.3 2282.8,3384.0 2298.2,3434.1 2312.5,3485.5 2325.5,3537.6 2337.3,3590.2  Z" style="stroke-width: 0.0;  fill: rgb(42,98,180);" />
<path d="M 2325.551,3592.648 A 1625.580,1625.580 0.00 0,1 2323.6,3593.0 L 2323.6,3593.0 2312.9,3541.1 2302.1,3489.6 2291.1,3439.0 2280.1,3389.5 2269.2,3341.5 2258.3,3295.4 2247.5,3251.3 2237.0,3209.7 2226.7,3170.8 2216.7,3134.7 2207.0,3101.7 2197.7,3072.0 2188.9,3045.7 2180.4,3023.0 2172.5,3004.1 2165.1,2988.9 2158.1,2977.7 2151.8,2970.4 2146.0,2967.2 2140.8,2967.9 2136.3,2972.7 2132.3,2981.5 2128.9,2994.3 2126.2,3010.9 2124.1,3031.4 2122.6,3055.5 2121.8,3083.2 2121.5,3114.4 2121.8,3148.7 2122.7,3186.2 2124.1,3226.5 2126.1,3269.3 2128.6,3314.6 2131.6,3361.9 2135.0,3411.0 2138.9,3461.5 2143.1,3513.2 2147.6,3565.6 2152.5,3618.4  A 1625.580,1625.580 0.00 0,1 2150.5,3618.6 L 2150.5,3618.6 2145.7,3565.8 2141.2,3513.4 2137.1,3461.7 2133.3,3411.1 2130.0,3362.0 2127.1,3314.7 2124.7,3269.5 2122.8,3226.6 2121.5,3186.3 2120.7,3148.8 2120.5,3114.4 2120.9,3083.3 2121.9,3055.5 2123.5,3031.4 2125.7,3010.9 2128.5,2994.3 2132.0,2981.5 2136.1,2972.7 2140.8,2967.9 2146.1,2967.1 2152.0,2970.3 2158.4,2977.6 2165.5,2988.8 2173.0,3003.9 2181.1,3022.8 2189.6,3045.5 2198.6,3071.8 2208.0,3101.5 2217.8,3134.4 2227.9,3170.5 2238.3,3209.5 2248.9,3251.1 2259.8,3295.1 2270.7,3341.2 2281.8,3389.1 2292.9,3438.6 2303.9,3489.3 2314.8,3540.7 2325.6,3592.6  Z" style="stroke-width: 0.0;  fill: rgb(15,52,135);" />
</g>
<defs>
<pattern id="checker" width="10" height="10" patternTransform="rotate(45 0 0)" patternUnits="userSpaceOnUse"><line x1="0" y1="0" x2="10" y2="0" style="stroke:black;stroke-width:5" /><line x1="0" y1="0" x2="0" y2="10" style="stroke:black;stroke-width:4" /></pattern>
<pattern id="hline" width="10" height="10" patternTransform="rotate(0 0 0)" patternUnits="userSpaceOnUse"><line x1="0" y1="0" x2="10" y2="0" style="stroke:black;stroke-width:5" /></pattern>
<pattern id="vline-sparse" width="10" height="10" patternTransform="rotate(0 0 0)" patternUnits="userSpaceOnUse"><line x1="0" y1="0" x2="0" y2="10" style="stroke:black;stroke-width:2" /></pattern>
<pattern id="checker" width="10" height="10" patternTransform="rotate(45 0 0)" patternUnits="userSpaceOnUse"><line x1="0" y1="0" x2="10" y2="0" style="stroke:black;stroke-width:2" /><line x1="0" y1="0" x2="0" y2="10" style="stroke:black;stroke-width:2" /></pattern>
<pattern id="hline-sparse" width="10" height="10" patternTransform="rotate(0 0 0)" patternUnits="userSpaceOnUse"><line x1="0" y1="0" x2="10" y2="0" style="stroke:black;stroke-width:2" /></pattern>
<pattern id="vline" width="10" height="10" patternTransform="rotate(0 0 0)" patternUnits="userSpaceOnUse"><line x1="0" y1="0" x2="0" y2="10" style="stroke:black;stroke-width:5" /></pattern>
</defs>
</svg>
