<?xml version="1.0" encoding="utf-8" standalone="no"?>
<!DOCTYPE svg PUBLIC "-//W3C//DTD SVG 1.1//EN" "http://www.w3.org/Graphics/SVG/1.1/DTD/svg11.dtd">
<svg width="4000px" height="4000px" version="1.1" xmlns="http://www.w3.org/2000/svg" xmlns:xlink="http://www.w3.org/1999/xlink">
<g id="bg">
<rect x="0" y="0" width="4000px" height="4000px" style="fill:rgb(255,255,255);"/>
</g>
<g id="ideograms">
<path d="M2000.000,358.000 A1642.000,1642.000 40.000 0,1 2751.610,540.121 L2769.004,506.336 A1680.000,1680.000 0.000 0,0 2000.000,320.000 Z" style="stroke-width:2.0;stroke:rgb(255,255,255);stroke-linecap:round;fill:rgb(185,185,185);" />
<text x="2427.0" y="305.8" font-size="36.4px" font-family="CMUBright-Roman" style="text-anchor:start;fill:rgb(0,0,0);" transform="rotate(283.6,2427.0,305.8)" >Management-Operations</text>
<path d="M2000.000,358.000 A1642.000,1642.000 40.000 0,1 2751.610,540.121 L2769.004,506.336 A1680.000,1680.000 0.000 0,0 2000.000,320.000 Z" style="stroke-width:2.0;stroke:rgb(255,255,255);stroke-linecap:round;fill:none;" />
<path d="M2783.279,556.865 A1642.000,1642.000 40.000 0,1 3226.411,908.176 L3254.793,882.908 A1680.000,1680.000 0.000 0,0 2801.406,523.467 Z" style="stroke-width:2.0;stroke:rgb(255,255,255);stroke-linecap:round;fill:rgb(185,185,185);" />
<text x="3097.5" y="640.5" font-size="36.4px" font-family="CMUBright-Roman" style="text-anchor:start;fill:rgb(0,0,0);" transform="rotate(308.4,3097.5,640.5)" >Engineering</text>
<path d="M2783.279,556.865 A1642.000,1642.000 40.000 0,1 3226.411,908.176 L3254.793,882.908 A1680.000,1680.000 0.000 0,0 2801.406,523.467 Z" style="stroke-width:2.0;stroke:rgb(255,255,255);stroke-linecap:round;fill:none;" />
<path d="M3249.937,935.189 A1642.000,1642.000 40.000 0,1 3507.538,1349.236 L3542.426,1334.176 A1680.000,1680.000 0.000 0,0 3278.864,910.547 Z" style="stroke-width:2.0;stroke:rgb(255,255,255);stroke-linecap:round;fill:rgb(185,185,185);" />
<text x="3491.6" y="1090.2" font-size="36.4px" font-family="CMUBright-Roman" style="text-anchor:start;fill:rgb(0,0,0);" transform="rotate(328.1,3491.6,1090.2)" >Leadership-General</text>
<path d="M3249.937,935.189 A1642.000,1642.000 40.000 0,1 3507.538,1349.236 L3542.426,1334.176 A1680.000,1680.000 0.000 0,0 3278.864,910.547 Z" style="stroke-width:2.0;stroke:rgb(255,255,255);stroke-linecap:round;fill:none;" />
<path d="M3521.375,1382.278 A1642.000,1642.000 40.000 0,1 3633.192,1830.154 L3670.988,1826.223 A1680.000,1680.000 0.000 0,0 3556.584,1367.982 Z" style="stroke-width:2.0;stroke:rgb(255,255,255);stroke-linecap:round;fill:rgb(185,185,185);" />
<text x="3699.0" y="1592.3" font-size="36.4px" font-family="CMUBright-Roman" style="text-anchor:start;fill:rgb(0,0,0);" transform="rotate(346.0,3699.0,1592.3)" >Sales-Marketing</text>
<path d="M3521.375,1382.278 A1642.000,1642.000 40.000 0,1 3633.192,1830.154 L3670.988,1826.223 A1680.000,1680.000 0.000 0,0 3556.584,1367.982 Z" style="stroke-width:2.0;stroke:rgb(255,255,255);stroke-linecap:round;fill:none;" />
<path d="M3636.509,1865.822 A1642.000,1642.000 40.000 0,1 3610.774,2318.704 L3648.051,2326.079 A1680.000,1680.000 0.000 0,0 3674.381,1862.717 Z" style="stroke-width:2.0;stroke:rgb(255,255,255);stroke-linecap:round;fill:rgb(185,185,185);" />
<text x="3743.6" y="2111.6" font-size="36.4px" font-family="CMUBright-Roman" style="text-anchor:start;fill:rgb(0,0,0);" transform="rotate(3.3,3743.6,2111.6)" >Finance-Investment</text>
<path d="M3636.509,1865.822 A1642.000,1642.000 40.000 0,1 3610.774,2318.704 L3648.051,2326.079 A1680.000,1680.000 0.000 0,0 3674.381,1862.717 Z" style="stroke-width:2.0;stroke:rgb(255,255,255);stroke-linecap:round;fill:none;" />
<path d="M3603.438,2353.767 A1642.000,1642.000 40.000 0,1 3499.856,2668.278 L3534.566,2683.744 A1680.000,1680.000 0.000 0,0 3640.546,2361.954 Z" style="stroke-width:2.0;stroke:rgb(255,255,255);stroke-linecap:round;fill:rgb(185,185,185);" />
<text x="3655.6" y="2558.4" font-size="36.4px" font-family="CMUBright-Roman" style="text-anchor:start;fill:rgb(0,0,0);" transform="rotate(18.2,3655.6,2558.4)" >Software-Data</text>
<path d="M3603.438,2353.767 A1642.000,1642.000 40.000 0,1 3499.856,2668.278 L3534.566,2683.744 A1680.000,1680.000 0.000 0,0 3640.546,2361.954 Z" style="stroke-width:2.0;stroke:rgb(255,255,255);stroke-linecap:round;fill:none;" />
<path d="M3484.921,2700.839 A1642.000,1642.000 40.000 0,1 3330.895,2961.708 L3361.695,2983.964 A1680.000,1680.000 0.000 0,0 3519.285,2717.058 Z" style="stroke-width:2.0;stroke:rgb(255,255,255);stroke-linecap:round;fill:rgb(185,185,185);" />
<text x="3498.1" y="2899.1" font-size="36.4px" font-family="CMUBright-Roman" style="text-anchor:start;fill:rgb(0,0,0);" transform="rotate(30.6,3498.1,2899.1)" >Education</text>
<path d="M3484.921,2700.839 A1642.000,1642.000 40.000 0,1 3330.895,2961.708 L3361.695,2983.964 A1680.000,1680.000 0.000 0,0 3519.285,2717.058 Z" style="stroke-width:2.0;stroke:rgb(255,255,255);stroke-linecap:round;fill:none;" />
<path d="M3309.599,2990.512 A1642.000,1642.000 40.000 0,1 3129.055,3192.225 L3155.184,3219.816 A1680.000,1680.000 0.000 0,0 3339.906,3013.435 Z" style="stroke-width:2.0;stroke:rgb(255,255,255);stroke-linecap:round;fill:rgb(185,185,185);" />
<text x="3293.5" y="3174.5" font-size="36.4px" font-family="CMUBright-Roman" style="text-anchor:start;fill:rgb(0,0,0);" transform="rotate(41.8,3293.5,3174.5)" >Research-Science</text>
<path d="M3309.599,2990.512 A1642.000,1642.000 40.000 0,1 3129.055,3192.225 L3155.184,3219.816 A1680.000,1680.000 0.000 0,0 3339.906,3013.435 Z" style="stroke-width:2.0;stroke:rgb(255,255,255);stroke-linecap:round;fill:none;" />
<path d="M3102.778,3216.571 A1642.000,1642.000 40.000 0,1 2891.302,3379.038 L2911.929,3410.952 A1680.000,1680.000 0.000 0,0 3128.299,3244.726 Z" style="stroke-width:2.0;stroke:rgb(255,255,255);stroke-linecap:round;fill:rgb(185,185,185);" />
<text x="3054.5" y="3393.1" font-size="36.4px" font-family="CMUBright-Roman" style="text-anchor:start;fill:rgb(0,0,0);" transform="rotate(52.5,3054.5,3393.1)" >Clinical-Care</text>
<path d="M3102.778,3216.571 A1642.000,1642.000 40.000 0,1 2891.302,3379.038 L2911.929,3410.952 A1680.000,1680.000 0.000 0,0 3128.299,3244.726 Z" style="stroke-width:2.0;stroke:rgb(255,255,255);stroke-linecap:round;fill:none;" />
<path d="M2861.006,3398.153 A1642.000,1642.000 40.000 0,1 2640.127,3512.085 L2654.941,3547.079 A1680.000,1680.000 0.000 0,0 2880.932,3430.510 Z" style="stroke-width:2.0;stroke:rgb(255,255,255);stroke-linecap:round;fill:rgb(185,185,185);" />
<text x="2786.7" y="3560.1" font-size="36.4px" font-family="CMUBright-Roman" style="text-anchor:start;fill:rgb(0,0,0);" transform="rotate(62.7,2786.7,3560.1)" >Accounting-Audit</text>
<path d="M2861.006,3398.153 A1642.000,1642.000 40.000 0,1 2640.127,3512.085 L2654.941,3547.079 A1680.000,1680.000 0.000 0,0 2880.932,3430.510 Z" style="stroke-width:2.0;stroke:rgb(255,255,255);stroke-linecap:round;fill:none;" />
<path d="M2606.988,3525.690 A1642.000,1642.000 40.000 0,1 2452.002,3578.562 L2462.463,3615.094 A1680.000,1680.000 0.000 0,0 2621.036,3560.998 Z" style="stroke-width:2.0;stroke:rgb(255,255,255);stroke-linecap:round;fill:rgb(185,185,185);" />
<text x="2552.3" y="3657.6" font-size="36.4px" font-family="CMUBright-Roman" style="text-anchor:start;fill:rgb(0,0,0);" transform="rotate(71.2,2552.3,3657.6)" >Social-Service</text>
<path d="M2606.988,3525.690 A1642.000,1642.000 40.000 0,1 2452.002,3578.562 L2462.463,3615.094 A1680.000,1680.000 0.000 0,0 2621.036,3560.998 Z" style="stroke-width:2.0;stroke:rgb(255,255,255);stroke-linecap:round;fill:none;" />
<path d="M2417.459,3588.047 A1642.000,1642.000 40.000 0,1 2320.910,3610.336 L2328.336,3647.603 A1680.000,1680.000 0.000 0,0 2427.120,3624.798 Z" style="stroke-width:2.0;stroke:rgb(255,255,255);stroke-linecap:round;fill:rgb(185,185,185);" />
<text x="2380.8" y="3705.2" font-size="36.4px" font-family="CMUBright-Roman" style="text-anchor:start;fill:rgb(0,0,0);" transform="rotate(77.0,2380.8,3705.2)" >IT-Infrastructure</text>
<path d="M2417.459,3588.047 A1642.000,1642.000 40.000 0,1 2320.910,3610.336 L2328.336,3647.603 A1680.000,1680.000 0.000 0,0 2427.120,3624.798 Z" style="stroke-width:2.0;stroke:rgb(255,255,255);stroke-linecap:round;fill:none;" />
<path d="M2285.704,3616.953 A1642.000,1642.000 40.000 0,1 2189.660,3631.010 L2194.050,3668.755 A1680.000,1680.000 0.000 0,0 2292.316,3654.373 Z" style="stroke-width:2.0;stroke:rgb(255,255,255);stroke-linecap:round;fill:rgb(185,185,185);" />
<text x="2237.2" y="3731.0" font-size="36.4px" font-family="CMUBright-Roman" style="text-anchor:start;fill:rgb(0,0,0);" transform="rotate(81.7,2237.2,3731.0)" >Legal-Policy</text>
<path d="M2285.704,3616.953 A1642.000,1642.000 40.000 0,1 2189.660,3631.010 L2194.050,3668.755 A1680.000,1680.000 0.000 0,0 2292.316,3654.373 Z" style="stroke-width:2.0;stroke:rgb(255,255,255);stroke-linecap:round;fill:none;" />
<path d="M2154.035,3634.759 A1642.000,1642.000 40.000 0,1 1474.020,3555.477 L1461.848,3591.475 A1680.000,1680.000 0.000 0,0 2157.600,3672.592 Z" style="stroke-width:2.0;stroke:rgb(255,255,255);stroke-linecap:round;fill:rgb(15,52,135);" />
<text x="1813.6" y="3737.2" font-size="36.4px" font-family="CMUBright-Roman" style="text-anchor:end;fill:rgb(0,0,0);" transform="rotate(-83.3,1813.6,3737.2)" >Finance-Accounting</text>
<path d="M2154.035,3634.759 A1642.000,1642.000 40.000 0,1 1474.020,3555.477 L1461.848,3591.475 A1680.000,1680.000 0.000 0,0 2157.600,3672.592 Z" style="stroke-width:2.0;stroke:rgb(255,255,255);stroke-linecap:round;fill:none;" />
<path d="M1440.213,3543.633 A1642.000,1642.000 40.000 0,1 888.845,3208.925 L863.130,3236.902 A1680.000,1680.000 0.000 0,0 1427.258,3579.356 Z" style="stroke-width:2.0;stroke:rgb(255,255,255);stroke-linecap:round;fill:rgb(42,98,180);" />
<text x="1104.1" y="3500.0" font-size="36.4px" font-family="CMUBright-Roman" style="text-anchor:end;fill:rgb(0,0,0);" transform="rotate(-58.7,1104.1,3500.0)" >General-Business</text>
<path d="M1440.213,3543.633 A1642.000,1642.000 40.000 0,1 888.845,3208.925 L863.130,3236.902 A1680.000,1680.000 0.000 0,0 1427.258,3579.356 Z" style="stroke-width:2.0;stroke:rgb(255,255,255);stroke-linecap:round;fill:none;" />
<path d="M862.737,3184.397 A1642.000,1642.000 40.000 0,1 624.574,2896.866 L592.744,2917.622 A1680.000,1680.000 0.000 0,0 836.418,3211.807 Z" style="stroke-width:2.0;stroke:rgb(255,255,255);stroke-linecap:round;fill:rgb(28,75,160);" />
<text x="664.7" y="3126.8" font-size="36.4px" font-family="CMUBright-Roman" style="text-anchor:end;fill:rgb(0,0,0);" transform="rotate(-39.6,664.7,3126.8)" >Marketing-Communication</text>
<path d="M862.737,3184.397 A1642.000,1642.000 40.000 0,1 624.574,2896.866 L592.744,2917.622 A1680.000,1680.000 0.000 0,0 836.418,3211.807 Z" style="stroke-width:2.0;stroke:rgb(255,255,255);stroke-linecap:round;fill:none;" />
<path d="M605.337,2866.648 A1642.000,1642.000 40.000 0,1 476.558,2612.607 L441.301,2626.784 A1680.000,1680.000 0.000 0,0 573.061,2886.704 Z" style="stroke-width:2.0;stroke:rgb(255,255,255);stroke-linecap:round;fill:rgb(60,120,198);" />
<text x="448.7" y="2803.8" font-size="36.4px" font-family="CMUBright-Roman" style="text-anchor:end;fill:rgb(0,0,0);" transform="rotate(-26.9,448.7,2803.8)" >Operations-Analytics</text>
<path d="M605.337,2866.648 A1642.000,1642.000 40.000 0,1 476.558,2612.607 L441.301,2626.784 A1680.000,1680.000 0.000 0,0 573.061,2886.704 Z" style="stroke-width:2.0;stroke:rgb(255,255,255);stroke-linecap:round;fill:none;" />
<path d="M463.556,2579.227 A1642.000,1642.000 40.000 0,1 407.419,2399.813 L370.563,2409.066 A1680.000,1680.000 0.000 0,0 427.999,2592.632 Z" style="stroke-width:2.0;stroke:rgb(255,255,255);stroke-linecap:round;fill:rgb(82,145,215);" />
<text x="337.2" y="2536.5" font-size="36.4px" font-family="CMUBright-Roman" style="text-anchor:end;fill:rgb(0,0,0);" transform="rotate(-17.4,337.2,2536.5)" >Specialized-Business</text>
<path d="M463.556,2579.227 A1642.000,1642.000 40.000 0,1 407.419,2399.813 L370.563,2409.066 A1680.000,1680.000 0.000 0,0 427.999,2592.632 Z" style="stroke-width:2.0;stroke:rgb(255,255,255);stroke-linecap:round;fill:none;" />
<path d="M399.076,2364.976 A1642.000,1642.000 40.000 0,1 366.776,2169.540 L328.979,2173.464 A1680.000,1680.000 0.000 0,0 362.027,2373.422 Z" style="stroke-width:2.0;stroke:rgb(255,255,255);stroke-linecap:round;fill:rgb(200,108,30);" />
<text x="278.3" y="2297.2" font-size="36.4px" font-family="CMUBright-Roman" style="text-anchor:end;fill:rgb(0,0,0);" transform="rotate(-9.4,278.3,2297.2)" >Social-Sciences</text>
<path d="M399.076,2364.976 A1642.000,1642.000 40.000 0,1 366.776,2169.540 L328.979,2173.464 A1680.000,1680.000 0.000 0,0 362.027,2373.422 Z" style="stroke-width:2.0;stroke:rgb(255,255,255);stroke-linecap:round;fill:none;" />
<path d="M363.466,2133.872 A1642.000,1642.000 40.000 0,1 358.290,2030.870 L320.297,2031.584 A1680.000,1680.000 0.000 0,0 325.593,2136.970 Z" style="stroke-width:2.0;stroke:rgb(255,255,255);stroke-linecap:round;fill:rgb(108,170,228);" />
<text x="255.6" y="2099.7" font-size="36.4px" font-family="CMUBright-Roman" style="text-anchor:end;fill:rgb(0,0,0);" transform="rotate(-2.9,255.6,2099.7)" >Economics</text>
<path d="M363.466,2133.872 A1642.000,1642.000 40.000 0,1 358.290,2030.870 L320.297,2031.584 A1680.000,1680.000 0.000 0,0 325.593,2136.970 Z" style="stroke-width:2.0;stroke:rgb(255,255,255);stroke-linecap:round;fill:none;" />
<path d="M358.007,1995.049 A1642.000,1642.000 40.000 0,1 358.807,1948.539 L320.825,1947.348 A1680.000,1680.000 0.000 0,0 320.008,1994.934 Z" style="stroke-width:2.0;stroke:rgb(255,255,255);stroke-linecap:round;fill:rgb(220,140,52);" />
<text x="252.9" y="1982.5" font-size="36.4px" font-family="CMUBright-Roman" style="text-anchor:end;fill:rgb(0,0,0);" transform="rotate(1.0,252.9,1982.5)" >Humanities-Liberal-Arts</text>
<path d="M358.007,1995.049 A1642.000,1642.000 40.000 0,1 358.807,1948.539 L320.825,1947.348 A1680.000,1680.000 0.000 0,0 320.008,1994.934 Z" style="stroke-width:2.0;stroke:rgb(255,255,255);stroke-linecap:round;fill:none;" />
<path d="M360.320,1912.749 A1642.000,1642.000 40.000 0,1 361.133,1898.615 L323.205,1896.269 A1680.000,1680.000 0.000 0,0 322.373,1910.730 Z" style="stroke-width:2.0;stroke:rgb(255,255,255);stroke-linecap:round;fill:rgb(235,168,78);" />
<text x="255.0" y="1912.1" font-size="36.4px" font-family="CMUBright-Roman" style="text-anchor:end;fill:rgb(0,0,0);" transform="rotate(3.3,255.0,1912.1)" >International-Studies</text>
<path d="M360.320,1912.749 A1642.000,1642.000 40.000 0,1 361.133,1898.615 L323.205,1896.269 A1680.000,1680.000 0.000 0,0 322.373,1910.730 Z" style="stroke-width:2.0;stroke:rgb(255,255,255);stroke-linecap:round;fill:none;" />
<path d="M363.735,1862.887 A1642.000,1642.000 40.000 0,1 391.336,1670.812 L354.108,1663.193 A1680.000,1680.000 0.000 0,0 325.867,1859.714 Z" style="stroke-width:2.0;stroke:rgb(255,255,255);stroke-linecap:round;fill:rgb(195,58,55);" />
<text x="268.8" y="1763.9" font-size="36.4px" font-family="CMUBright-Roman" style="text-anchor:end;fill:rgb(0,0,0);" transform="rotate(8.2,268.8,1763.9)" >Social-Work</text>
<path d="M363.735,1862.887 A1642.000,1642.000 40.000 0,1 391.336,1670.812 L354.108,1663.193 A1680.000,1680.000 0.000 0,0 325.867,1859.714 Z" style="stroke-width:2.0;stroke:rgb(255,255,255);stroke-linecap:round;fill:none;" />
<path d="M398.900,1635.797 A1642.000,1642.000 40.000 0,1 428.981,1522.439 L392.624,1511.387 A1680.000,1680.000 0.000 0,0 361.847,1627.368 Z" style="stroke-width:2.0;stroke:rgb(255,255,255);stroke-linecap:round;fill:rgb(175,35,42);" />
<text x="308.1" y="1564.0" font-size="36.4px" font-family="CMUBright-Roman" style="text-anchor:end;fill:rgb(0,0,0);" transform="rotate(14.9,308.1,1564.0)" >Teacher-Education</text>
<path d="M398.900,1635.797 A1642.000,1642.000 40.000 0,1 428.981,1522.439 L392.624,1511.387 A1680.000,1680.000 0.000 0,0 361.847,1627.368 Z" style="stroke-width:2.0;stroke:rgb(255,255,255);stroke-linecap:round;fill:none;" />
<path d="M439.773,1488.281 A1642.000,1642.000 40.000 0,1 474.975,1391.343 L439.682,1377.257 A1680.000,1680.000 0.000 0,0 403.666,1476.439 Z" style="stroke-width:2.0;stroke:rgb(255,255,255);stroke-linecap:round;fill:rgb(215,82,72);" />
<text x="352.5" y="1418.2" font-size="36.4px" font-family="CMUBright-Roman" style="text-anchor:end;fill:rgb(0,0,0);" transform="rotate(20.0,352.5,1418.2)" >Special-Education</text>
<path d="M439.773,1488.281 A1642.000,1642.000 40.000 0,1 474.975,1391.343 L439.682,1377.257 A1680.000,1680.000 0.000 0,0 403.666,1476.439 Z" style="stroke-width:2.0;stroke:rgb(255,255,255);stroke-linecap:round;fill:none;" />
<path d="M488.616,1358.220 A1642.000,1642.000 40.000 0,1 509.092,1311.991 L474.588,1296.068 A1680.000,1680.000 0.000 0,0 453.639,1343.368 Z" style="stroke-width:2.0;stroke:rgb(255,255,255);stroke-linecap:round;fill:rgb(230,112,95);" />
<text x="396.3" y="1306.6" font-size="36.4px" font-family="CMUBright-Roman" style="text-anchor:end;fill:rgb(0,0,0);" transform="rotate(23.9,396.3,1306.6)" >Educational-Leadership</text>
<path d="M488.616,1358.220 A1642.000,1642.000 40.000 0,1 509.092,1311.991 L474.588,1296.068 A1680.000,1680.000 0.000 0,0 453.639,1343.368 Z" style="stroke-width:2.0;stroke:rgb(255,255,255);stroke-linecap:round;fill:none;" />
<path d="M524.455,1279.630 A1642.000,1642.000 40.000 0,1 553.988,1222.045 L520.524,1204.041 A1680.000,1680.000 0.000 0,0 490.308,1262.959 Z" style="stroke-width:2.0;stroke:rgb(255,255,255);stroke-linecap:round;fill:rgb(0,130,142);" />
<text x="439.7" y="1213.8" font-size="36.4px" font-family="CMUBright-Roman" style="text-anchor:end;fill:rgb(0,0,0);" transform="rotate(27.2,439.7,1213.8)" >Communication-Studies</text>
<path d="M524.455,1279.630 A1642.000,1642.000 40.000 0,1 553.988,1222.045 L520.524,1204.041 A1680.000,1680.000 0.000 0,0 490.308,1262.959 Z" style="stroke-width:2.0;stroke:rgb(255,255,255);stroke-linecap:round;fill:none;" />
<path d="M571.303,1190.686 A1642.000,1642.000 40.000 0,1 588.562,1160.949 L555.898,1141.531 A1680.000,1680.000 0.000 0,0 538.240,1171.956 Z" style="stroke-width:2.0;stroke:rgb(255,255,255);stroke-linecap:round;fill:rgb(0,165,172);" />
<text x="482.6" y="1133.8" font-size="36.4px" font-family="CMUBright-Roman" style="text-anchor:end;fill:rgb(0,0,0);" transform="rotate(30.1,482.6,1133.8)" >Journalism-Media</text>
<path d="M571.303,1190.686 A1642.000,1642.000 40.000 0,1 588.562,1160.949 L555.898,1141.531 A1680.000,1680.000 0.000 0,0 538.240,1171.956 Z" style="stroke-width:2.0;stroke:rgb(255,255,255);stroke-linecap:round;fill:none;" />
<path d="M607.202,1130.358 A1642.000,1642.000 40.000 0,1 613.667,1120.089 L581.583,1099.725 A1680.000,1680.000 0.000 0,0 574.969,1110.233 Z" style="stroke-width:2.0;stroke:rgb(255,255,255);stroke-linecap:round;fill:rgb(38,195,195);" />
<text x="512.9" y="1082.8" font-size="36.4px" font-family="CMUBright-Roman" style="text-anchor:end;fill:rgb(0,0,0);" transform="rotate(32.2,512.9,1082.8)" >Creative-Writing</text>
<path d="M607.202,1130.358 A1642.000,1642.000 40.000 0,1 613.667,1120.089 L581.583,1099.725 A1680.000,1680.000 0.000 0,0 574.969,1110.233 Z" style="stroke-width:2.0;stroke:rgb(255,255,255);stroke-linecap:round;fill:none;" />
<path d="M633.192,1090.055 A1642.000,1642.000 40.000 0,1 667.742,1040.182 L636.910,1017.969 A1680.000,1680.000 0.000 0,0 601.560,1068.997 Z" style="stroke-width:2.0;stroke:rgb(255,255,255);stroke-linecap:round;fill:rgb(180,45,112);" />
<text x="554.7" y="1018.2" font-size="36.4px" font-family="CMUBright-Roman" style="text-anchor:end;fill:rgb(0,0,0);" transform="rotate(34.7,554.7,1018.2)" >Arts-Theology</text>
<path d="M633.192,1090.055 A1642.000,1642.000 40.000 0,1 667.742,1040.182 L636.910,1017.969 A1680.000,1680.000 0.000 0,0 601.560,1068.997 Z" style="stroke-width:2.0;stroke:rgb(255,255,255);stroke-linecap:round;fill:none;" />
<path d="M688.997,1011.347 A1642.000,1642.000 40.000 0,1 698.803,998.477 L668.690,975.299 A1680.000,1680.000 0.000 0,0 658.657,988.467 Z" style="stroke-width:2.0;stroke:rgb(255,255,255);stroke-linecap:round;fill:rgb(205,75,142);" />
<text x="600.6" y="953.9" font-size="36.4px" font-family="CMUBright-Roman" style="text-anchor:end;fill:rgb(0,0,0);" transform="rotate(37.3,600.6,953.9)" >English-Writing</text>
<path d="M688.997,1011.347 A1642.000,1642.000 40.000 0,1 698.803,998.477 L668.690,975.299 A1680.000,1680.000 0.000 0,0 658.657,988.467 Z" style="stroke-width:2.0;stroke:rgb(255,255,255);stroke-linecap:round;fill:none;" />
<path d="M720.960,970.329 A1642.000,1642.000 40.000 0,1 724.774,965.610 L695.262,941.672 A1680.000,1680.000 0.000 0,0 691.360,946.500 Z" style="stroke-width:2.0;stroke:rgb(255,255,255);stroke-linecap:round;fill:rgb(225,110,168);" />
<text x="631.0" y="914.3" font-size="36.4px" font-family="CMUBright-Roman" style="text-anchor:end;fill:rgb(0,0,0);" transform="rotate(38.9,631.0,914.3)" >Languages</text>
<path d="M720.960,970.329 A1642.000,1642.000 40.000 0,1 724.774,965.610 L695.262,941.672 A1680.000,1680.000 0.000 0,0 691.360,946.500 Z" style="stroke-width:2.0;stroke:rgb(255,255,255);stroke-linecap:round;fill:none;" />
<path d="M747.643,938.037 A1642.000,1642.000 40.000 0,1 884.635,794.959 L858.822,767.071 A1680.000,1680.000 0.000 0,0 718.660,913.461 Z" style="stroke-width:2.0;stroke:rgb(255,255,255);stroke-linecap:round;fill:rgb(88,40,138);" />
<text x="727.0" y="803.3" font-size="36.4px" font-family="CMUBright-Roman" style="text-anchor:end;fill:rgb(0,0,0);" transform="rotate(43.8,727.0,803.3)" >Biological-Sciences</text>
<path d="M747.643,938.037 A1642.000,1642.000 40.000 0,1 884.635,794.959 L858.822,767.071 A1680.000,1680.000 0.000 0,0 718.660,913.461 Z" style="stroke-width:2.0;stroke:rgb(255,255,255);stroke-linecap:round;fill:none;" />
<path d="M911.188,770.914 A1642.000,1642.000 40.000 0,1 969.888,721.316 L946.049,691.724 A1680.000,1680.000 0.000 0,0 885.990,742.470 Z" style="stroke-width:2.0;stroke:rgb(255,255,255);stroke-linecap:round;fill:rgb(115,65,165);" />
<text x="862.8" y="673.5" font-size="36.4px" font-family="CMUBright-Roman" style="text-anchor:end;fill:rgb(0,0,0);" transform="rotate(49.8,862.8,673.5)" >Health-Wellness</text>
<path d="M911.188,770.914 A1642.000,1642.000 40.000 0,1 969.888,721.316 L946.049,691.724 A1680.000,1680.000 0.000 0,0 885.990,742.470 Z" style="stroke-width:2.0;stroke:rgb(255,255,255);stroke-linecap:round;fill:none;" />
<path d="M998.028,699.148 A1642.000,1642.000 40.000 0,1 1023.858,679.655 L1001.267,649.099 A1680.000,1680.000 0.000 0,0 974.840,669.043 Z" style="stroke-width:2.0;stroke:rgb(255,255,255);stroke-linecap:round;fill:rgb(140,92,188);" />
<text x="935.2" y="614.8" font-size="36.4px" font-family="CMUBright-Roman" style="text-anchor:end;fill:rgb(0,0,0);" transform="rotate(53.0,935.2,614.8)" >Physical-Sciences</text>
<path d="M998.028,699.148 A1642.000,1642.000 40.000 0,1 1023.858,679.655 L1001.267,649.099 A1680.000,1680.000 0.000 0,0 974.840,669.043 Z" style="stroke-width:2.0;stroke:rgb(255,255,255);stroke-linecap:round;fill:none;" />
<path d="M1052.893,658.675 A1642.000,1642.000 40.000 0,1 1064.493,650.559 L1042.843,619.329 A1680.000,1680.000 0.000 0,0 1030.975,627.633 Z" style="stroke-width:2.0;stroke:rgb(255,255,255);stroke-linecap:round;fill:rgb(165,120,208);" />
<text x="988.2" y="575.6" font-size="36.4px" font-family="CMUBright-Roman" style="text-anchor:end;fill:rgb(0,0,0);" transform="rotate(55.0,988.2,575.6)" >Environmental-Sciences</text>
<path d="M1052.893,658.675 A1642.000,1642.000 40.000 0,1 1064.493,650.559 L1042.843,619.329 A1680.000,1680.000 0.000 0,0 1030.975,627.633 Z" style="stroke-width:2.0;stroke:rgb(255,255,255);stroke-linecap:round;fill:none;" />
<path d="M1094.154,630.472 A1642.000,1642.000 40.000 0,1 1594.822,408.776 L1585.445,371.951 A1680.000,1680.000 0.000 0,0 1073.190,598.778 Z" style="stroke-width:2.0;stroke:rgb(255,255,255);stroke-linecap:round;fill:rgb(22,118,50);" />
<text x="1278.0" y="409.0" font-size="36.4px" font-family="CMUBright-Roman" style="text-anchor:end;fill:rgb(0,0,0);" transform="rotate(66.1,1278.0,409.0)" >Engineering-Disciplines</text>
<path d="M1094.154,630.472 A1642.000,1642.000 40.000 0,1 1594.822,408.776 L1585.445,371.951 A1680.000,1680.000 0.000 0,0 1073.190,598.778 Z" style="stroke-width:2.0;stroke:rgb(255,255,255);stroke-linecap:round;fill:none;" />
<path d="M1629.631,400.315 A1642.000,1642.000 40.000 0,1 1964.180,358.391 L1963.351,320.400 A1680.000,1680.000 0.000 0,0 1621.060,363.295 Z" style="stroke-width:2.0;stroke:rgb(255,255,255);stroke-linecap:round;fill:rgb(48,158,75);" />
<text x="1767.4" y="268.4" font-size="36.4px" font-family="CMUBright-Roman" style="text-anchor:end;fill:rgb(0,0,0);" transform="rotate(82.9,1767.4,268.4)" >Computer-Science-IT</text>
<path d="M1629.631,400.315 A1642.000,1642.000 40.000 0,1 1964.180,358.391 L1963.351,320.400 A1680.000,1680.000 0.000 0,0 1621.060,363.295 Z" style="stroke-width:2.0;stroke:rgb(255,255,255);stroke-linecap:round;fill:none;" />
</g>
<g id="track_0">
<path d="M 646.860,1099.155 A 1625.580,1625.580 0.00 0,1 648.0,1097.5 L 648.0,1097.5 702.6,1135.4 757.2,1176.3 811.7,1219.8 866.1,1265.9 920.4,1314.5 974.5,1365.5 1028.3,1418.6 1081.9,1473.9 1135.2,1531.1 1188.1,1590.1 1240.6,1650.9 1292.7,1713.2 1344.3,1777.0 1395.3,1842.2 1445.7,1908.7 1495.4,1976.2 1544.3,2044.8 1592.5,2114.3 1639.8,2184.6 1686.2,2255.6 1731.5,2327.2 1775.8,2399.2 1818.9,2471.6 1860.8,2544.3 1901.4,2617.1 1940.5,2690.0 1978.3,2762.9 2014.4,2835.6 2048.9,2908.2 2081.7,2980.4 2112.7,3052.1 2141.7,3123.4 2168.7,3194.1 2193.6,3264.1 2216.3,3333.3 2236.7,3401.7 2254.6,3469.1 2270.1,3535.5 2282.8,3600.8  A 1625.580,1625.580 0.00 0,1 2280.9,3601.1 L 2280.9,3601.1 2268.2,3535.9 2252.8,3469.5 2235.0,3402.1 2214.7,3333.7 2192.1,3264.5 2167.2,3194.5 2140.3,3123.8 2111.3,3052.5 2080.4,2980.8 2047.7,2908.6 2013.3,2836.1 1977.2,2763.3 1939.5,2690.5 1900.3,2617.6 1859.8,2544.7 1818.0,2472.1 1774.9,2399.7 1730.6,2327.7 1685.3,2256.1 1639.0,2185.2 1591.7,2114.9 1543.5,2045.5 1494.6,1976.9 1444.9,1909.4 1394.5,1843.0 1343.5,1777.8 1291.9,1714.1 1239.8,1651.8 1187.3,1591.1 1134.3,1532.1 1081.0,1474.9 1027.4,1419.8 973.5,1366.7 919.4,1315.8 865.1,1267.3 810.7,1221.2 756.1,1177.8 701.5,1137.0 646.9,1099.2  Z" style="stroke-width: 0.0;  fill: rgb(180,45,112);" />
<path d="M 647.970,1097.489 A 1625.580,1625.580 0.00 0,1 649.1,1095.8 L 649.1,1095.8 704.4,1134.3 759.7,1175.5 815.0,1219.4 870.3,1265.9 925.6,1314.7 980.8,1365.8 1036.0,1419.0 1091.0,1474.2 1145.8,1531.3 1200.4,1590.2 1254.8,1650.6 1308.9,1712.6 1362.7,1775.9 1416.1,1840.5 1469.0,1906.3 1521.4,1973.1 1573.3,2040.9 1624.6,2109.5 1675.1,2178.8 1724.9,2248.7 1773.9,2319.1 1822.0,2389.9 1869.1,2461.1 1915.1,2532.5 1960.0,2604.0 2003.6,2675.5 2045.9,2747.1 2086.8,2818.4 2126.2,2889.6 2163.9,2960.4 2200.0,3030.9 2234.2,3100.9 2266.5,3170.4 2296.7,3239.3 2324.8,3307.5 2350.7,3375.0 2374.1,3441.6 2395.0,3507.3 2413.3,3572.2  A 1625.580,1625.580 0.00 0,1 2411.3,3572.7 L 2411.3,3572.7 2393.2,3507.9 2372.3,3442.1 2349.0,3375.5 2323.2,3308.0 2295.2,3239.8 2265.0,3170.9 2232.8,3101.4 2198.7,3031.4 2162.7,2960.9 2125.0,2890.1 2085.7,2818.9 2044.8,2747.5 2002.6,2676.0 1959.0,2604.5 1914.1,2533.0 1868.2,2461.6 1821.1,2390.5 1773.1,2319.6 1724.1,2249.2 1674.3,2179.4 1623.8,2110.1 1572.5,2041.5 1520.6,1973.8 1468.2,1907.0 1415.3,1841.3 1361.9,1776.7 1308.1,1713.4 1254.0,1651.5 1199.6,1591.1 1144.9,1532.3 1090.1,1475.3 1035.0,1420.2 979.9,1367.0 924.6,1316.0 869.3,1267.2 814.0,1220.9 758.6,1177.0 703.3,1135.9 648.0,1097.5  Z" style="stroke-width: 0.0;  fill: rgb(180,45,112);" />
<path d="M 649.083,1095.824 A 1625.580,1625.580 0.00 0,1 650.2,1094.2 L 650.2,1094.2 708.0,1134.2 766.1,1176.7 824.4,1221.5 883.0,1268.6 942.0,1317.6 1001.2,1368.5 1060.8,1421.1 1120.7,1475.2 1180.9,1530.8 1241.3,1587.7 1302.0,1645.7 1362.9,1704.8 1424.1,1764.8 1485.3,1825.6 1546.8,1887.1 1608.2,1949.3 1669.7,2011.9 1731.2,2074.9 1792.5,2138.3 1853.7,2201.9 1914.6,2265.7 1975.2,2329.6 2035.4,2393.5 2095.1,2457.3 2154.1,2521.1 2212.5,2584.7 2270.1,2648.1 2326.7,2711.3 2382.4,2774.2 2436.8,2836.9 2490.0,2899.1 2541.8,2961.1 2592.0,3022.7 2640.5,3083.9 2687.2,3144.7 2731.9,3205.1 2774.5,3265.2 2814.7,3324.8 2852.4,3384.2  A 1625.580,1625.580 0.00 0,1 2850.7,3385.2 L 2850.7,3385.2 2813.0,3325.9 2772.9,3266.2 2730.5,3206.1 2685.8,3145.6 2639.2,3084.8 2590.8,3023.6 2540.6,2962.0 2488.9,2900.0 2435.8,2837.7 2381.4,2775.0 2325.8,2712.1 2269.2,2648.9 2211.6,2585.4 2153.3,2521.8 2094.2,2458.0 2034.6,2394.2 1974.4,2330.3 1913.8,2266.4 1852.9,2202.6 1791.8,2139.0 1730.4,2075.7 1669.0,2012.6 1607.5,1950.0 1546.0,1887.9 1484.6,1826.4 1423.3,1765.7 1362.1,1705.7 1301.2,1646.6 1240.5,1588.6 1180.0,1531.8 1119.8,1476.3 1059.9,1422.2 1000.3,1369.7 941.0,1318.9 882.0,1269.9 823.4,1223.0 765.0,1178.2 706.9,1135.8 649.1,1095.8  Z" style="stroke-width: 0.0;  fill: rgb(180,45,112);" />
<path d="M 650.198,1094.161 A 1625.580,1625.580 0.00 0,1 652.4,1090.8 L 652.4,1090.8 711.8,1131.9 771.5,1175.3 831.6,1220.6 892.2,1267.9 953.2,1316.8 1014.7,1367.2 1076.7,1419.0 1139.2,1472.0 1202.2,1526.1 1265.7,1581.1 1329.7,1636.8 1394.2,1693.2 1459.2,1750.2 1524.6,1807.6 1590.4,1865.4 1656.5,1923.3 1723.0,1981.5 1789.7,2039.6 1856.6,2097.8 1923.6,2155.9 1990.7,2213.8 2057.8,2271.6 2124.8,2329.1 2191.6,2386.3 2258.1,2443.2 2324.2,2499.7 2389.9,2555.9 2454.9,2611.7 2519.2,2667.2 2582.7,2722.2 2645.2,2776.9 2706.5,2831.2 2766.6,2885.2 2825.3,2938.9 2882.4,2992.3 2937.8,3045.5 2991.2,3098.6 3042.6,3151.5 3091.7,3204.4  A 1625.580,1625.580 0.00 0,1 3088.8,3207.1 L 3088.8,3207.1 3039.8,3154.1 2988.6,3101.1 2935.2,3048.0 2880.0,2994.7 2823.0,2941.2 2764.5,2887.4 2704.5,2833.3 2643.3,2778.9 2580.9,2724.2 2517.5,2669.0 2453.3,2613.5 2388.3,2557.7 2322.7,2501.4 2256.6,2444.8 2190.2,2387.9 2123.4,2330.7 2056.4,2273.1 1989.4,2215.4 1922.3,2157.4 1855.2,2099.3 1788.3,2041.2 1721.6,1983.0 1655.1,1924.9 1589.0,1867.0 1523.2,1809.3 1457.7,1752.0 1392.7,1695.1 1328.2,1638.7 1264.1,1583.0 1200.5,1528.1 1137.4,1474.2 1074.9,1421.3 1012.8,1369.6 951.2,1319.3 890.2,1270.6 829.6,1223.5 769.4,1178.3 709.6,1135.1 650.2,1094.2  Z" style="stroke-width: 0.0;  fill: rgb(180,45,112);" />
<path d="M 652.433,1090.838 A 1625.580,1625.580 0.00 0,1 658.1,1082.6 L 658.1,1082.6 718.8,1125.0 780.0,1169.3 841.7,1215.4 904.0,1262.9 966.8,1311.7 1030.1,1361.6 1094.2,1412.5 1158.8,1464.1 1224.2,1516.4 1290.2,1569.1 1356.8,1622.2 1424.2,1675.5 1492.2,1729.0 1560.8,1782.4 1630.1,1835.7 1699.9,1888.8 1770.2,1941.6 1841.1,1994.1 1912.4,2046.1 1984.1,2097.7 2056.1,2148.8 2128.4,2199.3 2200.9,2249.2 2273.4,2298.5 2346.0,2347.2 2418.4,2395.3 2490.7,2442.8 2562.7,2489.7 2634.2,2536.0 2705.2,2581.8 2775.5,2627.1 2845.1,2672.0 2913.6,2716.5 2981.1,2760.8 3047.4,2804.8 3112.2,2848.7 3175.4,2892.5 3236.9,2936.5 3296.5,2980.6  A 1625.580,1625.580 0.00 0,1 3290.4,2988.6 L 3290.4,2988.6 3231.2,2944.2 3170.1,2899.9 3107.2,2855.8 3042.6,2811.6 2976.7,2767.3 2909.4,2722.8 2841.1,2678.0 2771.8,2632.9 2701.6,2587.3 2630.8,2541.3 2559.4,2494.8 2487.5,2447.7 2415.4,2400.0 2343.0,2351.8 2270.5,2302.9 2198.0,2253.5 2125.5,2203.5 2053.2,2152.9 1981.2,2101.8 1909.5,2050.2 1838.1,1998.1 1767.2,1945.7 1696.7,1892.9 1626.8,1839.9 1557.4,1786.7 1488.7,1733.4 1420.5,1680.1 1353.1,1627.0 1286.2,1574.1 1220.1,1521.5 1154.6,1469.5 1089.7,1418.1 1025.5,1367.6 962.0,1318.0 899.0,1269.5 836.6,1222.4 774.7,1176.8 713.4,1132.8 652.4,1090.8  Z" style="stroke-width: 0.0;  fill: rgb(180,45,112);" />
<path d="M 658.058,1082.556 A 1625.580,1625.580 0.00 0,1 663.7,1074.3 L 663.7,1074.3 724.2,1115.2 786.7,1155.6 851.2,1195.8 917.4,1235.9 985.3,1275.8 1054.7,1315.8 1125.3,1355.8 1197.2,1396.0 1270.1,1436.4 1343.8,1477.1 1418.4,1518.1 1493.7,1559.5 1569.5,1601.2 1645.7,1643.3 1722.3,1685.8 1799.0,1728.7 1876.0,1772.0 1952.9,1815.6 2029.8,1859.7 2106.6,1904.0 2183.2,1948.5 2259.5,1993.3 2335.5,2038.3 2411.0,2083.3 2486.1,2128.3 2560.7,2173.2 2634.8,2218.0 2708.2,2262.4 2781.0,2306.5 2853.2,2350.0 2924.6,2392.9 2995.4,2435.0 3065.4,2476.2 3134.7,2516.2 3203.2,2555.0 3271.0,2592.3 3338.1,2628.0 3404.5,2661.9 3470.1,2693.8  A 1625.580,1625.580 0.00 0,1 3465.8,2702.9 L 3465.8,2702.9 3400.2,2670.5 3334.0,2636.2 3267.0,2600.1 3199.3,2562.3 3130.9,2523.2 3061.7,2482.8 2991.8,2441.3 2921.2,2398.9 2849.8,2355.8 2777.8,2312.0 2705.1,2267.7 2631.7,2223.0 2557.8,2178.1 2483.3,2133.0 2408.3,2087.9 2332.8,2042.8 2256.9,1997.8 2180.6,1952.9 2104.1,1908.3 2027.3,1864.0 1950.4,1820.1 1873.4,1776.5 1796.5,1733.3 1719.6,1690.5 1643.0,1648.1 1566.7,1606.1 1490.8,1564.6 1415.4,1523.4 1340.7,1482.7 1266.8,1442.2 1193.7,1402.0 1121.7,1362.1 1050.8,1322.3 981.2,1282.6 913.0,1242.9 846.5,1203.2 781.7,1163.3 718.8,1123.1 658.1,1082.6  Z" style="stroke-width: 0.0;  fill: rgb(180,45,112);" />
<path d="M 663.734,1074.309 A 1625.580,1625.580 0.00 0,1 664.9,1072.7 L 664.9,1072.7 723.5,1112.2 784.5,1151.0 847.7,1189.4 913.0,1227.3 980.3,1264.7 1049.4,1301.9 1120.1,1338.8 1192.3,1375.5 1265.9,1412.0 1340.8,1448.3 1416.8,1484.6 1493.9,1520.8 1571.8,1556.9 1650.4,1592.9 1729.8,1628.9 1809.7,1664.7 1890.0,1700.6 1970.6,1736.3 2051.5,1771.8 2132.5,1807.3 2213.5,1842.5 2294.5,1877.4 2375.3,1912.0 2455.9,1946.3 2536.2,1980.1 2616.1,2013.4 2695.5,2046.1 2774.4,2078.0 2852.6,2109.2 2930.1,2139.5 3006.9,2168.7 3082.9,2196.8 3158.0,2223.7 3232.2,2249.1 3305.4,2273.1 3377.5,2295.3 3448.6,2315.7 3518.6,2334.0 3587.4,2350.2  A 1625.580,1625.580 0.00 0,1 3587.0,2352.2 L 3587.0,2352.2 3518.2,2335.9 3448.2,2317.4 3377.1,2297.0 3304.9,2274.7 3231.8,2250.7 3157.6,2225.2 3082.5,2198.2 3006.5,2170.1 2929.7,2140.7 2852.2,2110.4 2774.0,2079.2 2695.1,2047.2 2615.7,2014.5 2535.8,1981.1 2455.6,1947.3 2375.0,1913.0 2294.1,1878.4 2213.1,1843.4 2132.1,1808.2 2051.1,1772.8 1970.2,1737.2 1889.5,1701.5 1809.2,1665.7 1729.3,1629.8 1649.9,1593.9 1571.2,1557.9 1493.3,1521.8 1416.2,1485.7 1340.2,1449.5 1265.3,1413.1 1191.6,1376.7 1119.3,1340.1 1048.6,1303.2 979.5,1266.1 912.2,1228.7 846.8,1190.9 783.5,1152.6 722.4,1113.8 663.7,1074.3  Z" style="stroke-width: 0.0;  fill: rgb(180,45,112);" />
<path d="M 664.875,1072.664 A 1625.580,1625.580 0.00 0,1 667.2,1069.4 L 667.2,1069.4 721.0,1105.4 777.4,1140.1 836.4,1173.5 897.7,1205.6 961.3,1236.4 1027.0,1265.8 1094.7,1293.9 1164.2,1320.6 1235.5,1346.0 1308.3,1369.9 1382.6,1392.5 1458.2,1413.6 1534.9,1433.2 1612.8,1451.4 1691.5,1468.2 1771.0,1483.4 1851.1,1497.1 1931.8,1509.4 2012.8,1520.0 2094.1,1529.2 2175.4,1536.7 2256.8,1542.7 2338.0,1547.1 2418.9,1549.9 2499.4,1551.1 2579.3,1550.6 2658.5,1548.5 2736.9,1544.7 2814.3,1539.2 2890.6,1532.0 2965.7,1523.1 3039.5,1512.5 3111.7,1500.1 3182.3,1486.0 3251.1,1470.1 3318.1,1452.4 3383.0,1432.9 3445.7,1411.6 3506.2,1388.5  A 1625.580,1625.580 0.00 0,1 3507.7,1392.2 L 3507.7,1392.2 3447.1,1415.2 3384.3,1436.3 3319.3,1455.7 3252.3,1473.3 3183.3,1489.0 3112.6,1503.0 3040.3,1515.3 2966.5,1525.8 2891.3,1534.6 2814.9,1541.7 2737.4,1547.1 2658.9,1550.8 2579.6,1552.8 2499.6,1553.2 2419.1,1552.0 2338.1,1549.2 2256.8,1544.7 2175.4,1538.7 2093.9,1531.1 2012.5,1522.0 1931.4,1511.3 1850.7,1499.1 1770.4,1485.4 1690.8,1470.2 1612.0,1453.5 1534.1,1435.3 1457.3,1415.7 1381.6,1394.7 1307.2,1372.2 1234.3,1348.3 1162.9,1323.1 1093.2,1296.5 1025.4,1268.5 959.6,1239.1 895.9,1208.4 834.5,1176.4 775.4,1143.1 718.8,1108.5 664.9,1072.7  Z" style="stroke-width: 0.0;  fill: rgb(180,45,112);" />
<path d="M 667.164,1069.378 A 1625.580,1625.580 0.00 0,1 676.4,1056.3 L 676.4,1056.3 727.4,1091.0 781.0,1124.2 836.8,1155.8 894.9,1185.7 955.1,1213.9 1017.2,1240.3 1081.1,1264.8 1146.7,1287.4 1213.8,1308.0 1282.2,1326.5 1351.9,1343.0 1422.6,1357.4 1494.4,1369.7 1566.9,1379.7 1640.1,1387.6 1713.8,1393.3 1787.9,1396.8 1862.2,1398.1 1936.7,1397.1 2011.1,1393.9 2085.4,1388.4 2159.4,1380.8 2232.9,1371.0 2305.9,1358.9 2378.1,1344.8 2449.5,1328.5 2519.9,1310.1 2589.1,1289.7 2657.1,1267.2 2723.7,1242.8 2788.8,1216.5 2852.1,1188.4 2913.7,1158.5 2973.3,1126.9 3030.9,1093.6 3086.2,1058.8 3139.1,1022.5 3189.6,984.8 3237.4,945.8  A 1625.580,1625.580 0.00 0,1 3247.8,958.1 L 3247.8,958.1 3199.4,996.7 3148.4,1034.0 3094.9,1069.9 3039.1,1104.4 2981.1,1137.2 2920.9,1168.5 2858.9,1198.0 2795.0,1225.8 2729.4,1251.8 2662.3,1275.9 2593.8,1298.0 2524.0,1318.2 2453.1,1336.4 2381.2,1352.5 2308.5,1366.5 2235.0,1378.4 2161.0,1388.1 2086.5,1395.7 2011.7,1401.1 1936.8,1404.4 1861.8,1405.4 1786.9,1404.3 1712.3,1400.9 1638.1,1395.4 1564.4,1387.7 1491.4,1377.8 1419.2,1365.8 1348.0,1351.8 1277.8,1335.6 1208.9,1317.4 1141.3,1297.1 1075.3,1275.0 1010.9,1250.9 948.3,1224.9 887.6,1197.2 829.0,1167.7 772.7,1136.5 718.7,1103.7 667.2,1069.4  Z" style="stroke-width: 0.0;  fill: rgb(180,45,112);" />
<path d="M 676.398,1056.290 A 1625.580,1625.580 0.00 0,1 681.1,1049.8 L 681.1,1049.8 726.7,1081.4 773.6,1111.5 821.6,1139.9 870.5,1166.3 920.1,1190.5 970.1,1212.5 1020.3,1231.9 1070.7,1248.8 1120.9,1262.9 1170.9,1274.2 1220.4,1282.6 1269.4,1287.9 1317.6,1290.1 1364.9,1289.1 1411.2,1285.0 1456.4,1277.6 1500.3,1267.0 1542.9,1253.2 1583.9,1236.1 1623.4,1215.9 1661.3,1192.5 1697.4,1166.1 1731.6,1136.7 1764.0,1104.3 1794.5,1069.2 1822.9,1031.3 1849.3,990.9 1873.6,948.1 1895.8,903.0 1915.9,855.9 1933.8,806.9 1949.5,756.2 1963.1,704.0 1974.5,650.6 1983.8,596.2 1990.9,541.1 1996.0,485.6 1999.0,429.9 2000.0,374.4  A 1625.580,1625.580 0.00 0,1 2008.0,374.4 L 2008.0,374.4 2006.7,430.0 2003.4,485.7 1998.1,541.3 1990.6,596.4 1981.0,650.9 1969.2,704.3 1955.2,756.6 1939.1,807.3 1920.9,856.4 1900.4,903.7 1877.9,948.8 1853.2,991.8 1826.4,1032.3 1797.6,1070.2 1766.7,1105.5 1734.0,1138.0 1699.3,1167.6 1662.8,1194.2 1624.6,1217.8 1584.8,1238.2 1543.3,1255.4 1500.4,1269.5 1456.1,1280.3 1410.6,1287.9 1364.0,1292.3 1316.3,1293.5 1267.8,1291.5 1218.5,1286.4 1168.7,1278.4 1118.4,1267.3 1067.9,1253.5 1017.3,1236.8 966.8,1217.6 916.5,1195.9 866.7,1171.9 817.6,1145.8 769.4,1117.6 722.2,1087.7 676.4,1056.3  Z" style="stroke-width: 0.0;  fill: rgb(180,45,112);" />
</g>
<defs>
<pattern id="hline-sparse" width="10" height="10" patternTransform="rotate(0 0 0)" patternUnits="userSpaceOnUse"><line x1="0" y1="0" x2="10" y2="0" style="stroke:black;stroke-width:2" /></pattern>
<pattern id="checker" width="10" height="10" patternTransform="rotate(45 0 0)" patternUnits="userSpaceOnUse"><line x1="0" y1="0" x2="10" y2="0" style="stroke:black;stroke-width:2" /><line x1="0" y1="0" x2="0" y2="10" style="stroke:black;stroke-width:2" /></pattern>
<pattern id="hline" width="10" height="10" patternTransform="rotate(0 0 0)" patternUnits="userSpaceOnUse"><line x1="0" y1="0" x2="10" y2="0" style="stroke:black;stroke-width:5" /></pattern>
<pattern id="vline-sparse" width="10" height="10" patternTransform="rotate(0 0 0)" patternUnits="userSpaceOnUse"><line x1="0" y1="0" x2="0" y2="10" style="stroke:black;stroke-width:2" /></pattern>
<pattern id="checker" width="10" height="10" patternTransform="rotate(45 0 0)" patternUnits="userSpaceOnUse"><line x1="0" y1="0" x2="10" y2="0" style="stroke:black;stroke-width:5" /><line x1="0" y1="0" x2="0" y2="10" style="stroke:black;stroke-width:4" /></pattern>
<pattern id="vline" width="10" height="10" patternTransform="rotate(0 0 0)" patternUnits="userSpaceOnUse"><line x1="0" y1="0" x2="0" y2="10" style="stroke:black;stroke-width:5" /></pattern>
</defs>
</svg>
